<?xml version="1.0" encoding="utf-8"?>
<!-- Generator: Adobe Illustrator 25.2.3, SVG Export Plug-In . SVG Version: 6.00 Build 0)  -->
<svg version="1.1" id="Capa_1" xmlns="http://www.w3.org/2000/svg" xmlns:xlink="http://www.w3.org/1999/xlink" x="0px" y="0px"
	 viewBox="0 0 123.8 123.8" style="enable-background:new 0 0 123.8 123.8;" xml:space="preserve">
<style type="text/css">
	.st0{fill:#FFFFFF;}
	.st1{fill:url(#SVGID_1_);}
	.st2{fill:none;stroke:#12263F;stroke-width:4;stroke-miterlimit:10;}
	.st3{fill:#ECEEF0;}
	.st4{fill:#37A3A5;}
</style>
<g transform="translate(0 0)">
	<path class="st0" d="M123.8,61.9c0,34.2-27.7,61.9-61.9,61.9S0,96.1,0,61.9S27.7,0,61.9,0c0,0,0,0,0,0
		C96.1,0,123.8,27.7,123.8,61.9L123.8,61.9z"/>
	
		<radialGradient id="SVGID_1_" cx="-240.9616" cy="456.2918" r="1.465" gradientTransform="matrix(123.8305 0 0 -123.8308 29847.9316 56505.3438)" gradientUnits="userSpaceOnUse">
		<stop  offset="0" style="stop-color:#F6F6F7"/>
		<stop  offset="0.477" style="stop-color:#F9F9FA"/>
		<stop  offset="0.715" style="stop-color:#FFFFFF"/>
	</radialGradient>
	<path class="st1" d="M123.8,61.9C123.8,27.7,96.1,0,61.9,0C27.7,0,0,27.7,0,61.9c0,34.2,27.7,61.9,61.9,61.9
		c34.1,0.1,61.8-27.4,61.9-61.4C123.8,62.2,123.8,62.1,123.8,61.9z"/>
	<path class="st2" d="M109.4,62.1c0-26.1-21.2-47.3-47.3-47.3S14.8,36,14.8,62.1c0,26.1,21.2,47.3,47.3,47.3
		c26,0.1,47.2-20.9,47.3-46.9C109.4,62.4,109.4,62.2,109.4,62.1z"/>
	<g transform="translate(10.969 34.762)">
		<path class="st3" d="M106.6,0c13.9,31.3-0.2,67.8-31.5,81.7C48.5,93.6,17.2,85.2,0,61.7c19.1,28.2,57.5,35.6,85.7,16.5
			C111.2,61,120.1,27.6,106.6,0z"/>
	</g>
</g>
<g>
	<path class="st4" d="M54.6,74.4h-4.9v-19l-5.9,1.8v-4L54,49.5h0.5V74.4z"/>
	<path class="st4" d="M77.3,65h2.8v4h-2.8v5.4h-4.9V69H62.1l-0.2-3.1l10.4-16.4h5V65z M66.8,65h5.5v-8.8L72,56.8L66.8,65z"/>
</g>
</svg>
