<?xml version="1.0" encoding="utf-8"?>
<!-- Generator: Adobe Illustrator 25.2.3, SVG Export Plug-In . SVG Version: 6.00 Build 0)  -->
<svg version="1.1" id="Capa_1" xmlns="http://www.w3.org/2000/svg" xmlns:xlink="http://www.w3.org/1999/xlink" x="0px" y="0px"
	 viewBox="0 0 123.8 123.8" style="enable-background:new 0 0 123.8 123.8;" xml:space="preserve">
<style type="text/css">
	.st0{fill:#FFFFFF;}
	.st1{fill:url(#SVGID_1_);}
	.st2{fill:none;stroke:#12263F;stroke-width:4;stroke-miterlimit:10;}
	.st3{fill:#ECEEF0;}
	.st4{fill:#37A3A5;}
</style>
<g transform="translate(0 0)">
	<path class="st0" d="M123.8,61.9c0,34.2-27.7,61.9-61.9,61.9S0,96.1,0,61.9S27.7,0,61.9,0c0,0,0,0,0,0
		C96.1,0,123.8,27.7,123.8,61.9L123.8,61.9z"/>
	
		<radialGradient id="SVGID_1_" cx="-240.9616" cy="456.2918" r="1.465" gradientTransform="matrix(123.8305 0 0 -123.8308 29847.9316 56505.3438)" gradientUnits="userSpaceOnUse">
		<stop  offset="0" style="stop-color:#F6F6F7"/>
		<stop  offset="0.477" style="stop-color:#F9F9FA"/>
		<stop  offset="0.715" style="stop-color:#FFFFFF"/>
	</radialGradient>
	<path class="st1" d="M123.8,61.9C123.8,27.7,96.1,0,61.9,0C27.7,0,0,27.7,0,61.9c0,34.2,27.7,61.9,61.9,61.9
		c34.1,0.1,61.8-27.4,61.9-61.4C123.8,62.2,123.8,62.1,123.8,61.9z"/>
	<path class="st2" d="M109.4,62.1c0-26.1-21.2-47.3-47.3-47.3S14.8,36,14.8,62.1c0,26.1,21.2,47.3,47.3,47.3
		c26,0.1,47.2-20.9,47.3-46.9C109.4,62.4,109.4,62.2,109.4,62.1z"/>
	<g transform="translate(10.969 34.762)">
		<path class="st3" d="M106.6,0c13.9,31.3-0.2,67.8-31.5,81.7C48.5,93.6,17.2,85.2,0,61.7c19.1,28.2,57.5,35.6,85.7,16.5
			C111.2,61,120.1,27.6,106.6,0z"/>
	</g>
</g>
<path class="st4" d="M66.7,49.2v4.1h-0.5c-2.2,0-4,0.6-5.4,1.7c-1.4,1.1-2.2,2.7-2.5,4.7c1.3-1.3,3-2,5-2c2.2,0,3.9,0.8,5.2,2.3
	c1.3,1.5,1.9,3.6,1.9,6.1c0,1.6-0.4,3.1-1.1,4.4c-0.7,1.3-1.7,2.3-3,3.1c-1.3,0.7-2.7,1.1-4.3,1.1c-2.6,0-4.7-0.9-6.3-2.7
	c-1.6-1.8-2.4-4.3-2.4-7.3v-1.8c0-2.7,0.5-5.1,1.5-7.2c1-2.1,2.5-3.7,4.4-4.8c1.9-1.1,4.1-1.7,6.6-1.7H66.7z M61.9,61.7
	c-0.8,0-1.5,0.2-2.2,0.6s-1.1,1-1.4,1.6v1.5c0,1.6,0.3,2.9,1,3.9s1.6,1.4,2.7,1.4c1.1,0,1.9-0.4,2.6-1.3c0.7-0.8,1-1.9,1-3.2
	c0-1.4-0.3-2.4-1-3.3C63.9,62.1,63,61.7,61.9,61.7z"/>
</svg>
