<svg xmlns="http://www.w3.org/2000/svg" xmlns:xlink="http://www.w3.org/1999/xlink" width="439.477" height="283.727" viewBox="0 0 439.477 283.727">
  <defs>
    <linearGradient id="linear-gradient" x1="0.5" x2="0.5" y2="1" gradientUnits="objectBoundingBox">
      <stop offset="0" stop-color="#fff"/>
      <stop offset="1" stop-color="#d2e6ee"/>
    </linearGradient>
    <linearGradient id="linear-gradient-5" y1="-0.151" y2="1.014" xlink:href="#linear-gradient"/>
    <linearGradient id="linear-gradient-6" y1="-0.191" y2="0.971" xlink:href="#linear-gradient"/>
    <linearGradient id="linear-gradient-7" y1="-0.233" y2="0.938" xlink:href="#linear-gradient"/>
    <linearGradient id="linear-gradient-8" y1="-0.042" y2="0.862" xlink:href="#linear-gradient"/>
  </defs>
  <g id="Grupo_55271" data-name="Grupo 55271" transform="translate(-255.016 -8155.017)">
    <g id="Grupo_55267" data-name="Grupo 55267" transform="translate(410.182 8243.57)">
      <g id="Grupo_54946" data-name="Grupo 54946" transform="translate(0 42.898)">
        <g id="Grupo_54945" data-name="Grupo 54945" transform="translate(0 22.21)">
          <g id="Grupo_54944" data-name="Grupo 54944" style="isolation: isolate">
            <path id="Trazado_118687" data-name="Trazado 118687" d="M212.417,179.818l-2.731-28.206L174.153,172.26l2.731,28.207,6.622,68.492,35.532-20.649Z" transform="translate(-142.254 -138.893)" fill="#00223d"/>
            <g id="Grupo_54942" data-name="Grupo 54942" transform="translate(9.87)">
              <path id="Trazado_118688" data-name="Trazado 118688" d="M168.682,169.1l35.532-20.649,22.029,12.719L190.711,181.82Z" transform="translate(-168.682 -148.453)" fill="url(#linear-gradient)"/>
            </g>
            <g id="Grupo_54943" data-name="Grupo 54943" transform="translate(0 20.649)">
              <path id="Trazado_118689" data-name="Trazado 118689" d="M198.129,166.3l2.731,28.207L207.482,263,166.23,239.182l3.08-26.7,6.789-58.9Z" transform="translate(-166.23 -153.581)" fill="#00223d"/>
            </g>
          </g>
        </g>
        <path id="Trazado_118690" data-name="Trazado 118690" d="M218.509,167.462a24.526,24.526,0,1,1-24.526-24.526A24.524,24.524,0,0,1,218.509,167.462Z" transform="translate(-156.469 -142.936)" fill="#00223d"/>
      </g>
      <g id="Grupo_54955" data-name="Grupo 54955" transform="translate(27.119)">
        <path id="Trazado_118691" data-name="Trazado 118691" d="M259.488,157.7c13.419,31.044,7.839,78.354-12.469,105.666-15.3,20.581-34.6,23.935-48.912,11.047a143.542,143.542,0,0,1-13.757-21.877c-20.247-40.079-13.165-79.2,18.661-107.128a117.161,117.161,0,0,1,13.737-10.351C233,127.535,249.842,135.37,259.488,157.7Z" transform="translate(-172.966 -132.281)" fill="#37a3a5"/>
        <path id="Trazado_118692" data-name="Trazado 118692" d="M255.213,157.7c13.419,31.044,7.839,78.354-12.469,105.666-15.3,20.581-34.6,23.935-48.912,11.047-4.694-4.211-8.841-10.154-12.15-17.807-.572-1.325-1.111-2.685-1.606-4.07-11.305-30.98-5.359-75.455,14.079-101.6a65.313,65.313,0,0,1,4.582-5.532,44.434,44.434,0,0,1,13.737-10.351C228.721,127.535,245.566,135.37,255.213,157.7Z" transform="translate(-168.69 -132.281)" fill="#00223d"/>
        <path id="Trazado_118693" data-name="Trazado 118693" d="M220.648,275.21c-9.493,4.1-19.1,2.424-27.035-4.723-4.545-4.078-8.41-9.763-11.5-16.9-.552-1.276-1.071-2.6-1.546-3.917-11.076-30.356-5.049-73.9,13.717-99.14a62.683,62.683,0,0,1,4.4-5.314,41.9,41.9,0,0,1,12.907-9.755c.242-.109.479-.217.717-.318,15.162-6.554,29.925,1.731,38.521,21.624C263.9,187,258.436,233.226,238.664,259.822,233.217,267.15,226.989,272.468,220.648,275.21Z" transform="translate(-166.716 -130.304)" fill="#eceff0"/>
        <g id="Grupo_54954" data-name="Grupo 54954" transform="translate(7.955 1.887)">
          <g id="Grupo_54947" data-name="Grupo 54947" transform="translate(41.352)">
            <path id="Trazado_118694" data-name="Trazado 118694" d="M218.1,208.421a1.322,1.322,0,0,1-1.208-.793L185.32,134.58a1.311,1.311,0,0,1,2.408-1.039L219.3,206.589a1.314,1.314,0,0,1-1.2,1.832Z" transform="translate(-185.213 -132.749)" fill="#00223d"/>
          </g>
          <g id="Grupo_54948" data-name="Grupo 54948" transform="translate(26.153 83.65)">
            <path id="Trazado_118695" data-name="Trazado 118695" d="M182.75,214.836a1.313,1.313,0,0,1-1.023-2.134l47.161-58.687a1.313,1.313,0,0,1,2.045,1.647l-47.16,58.683A1.31,1.31,0,0,1,182.75,214.836Z" transform="translate(-181.438 -153.527)" fill="#00223d"/>
          </g>
          <g id="Grupo_54949" data-name="Grupo 54949" transform="translate(0 59.793)">
            <path id="Trazado_118696" data-name="Trazado 118696" d="M247.381,167.944a1.23,1.23,0,0,1-.318-.04l-71.127-17.718a1.311,1.311,0,0,1,.636-2.544L247.7,165.359a1.311,1.311,0,0,1-.314,2.585Z" transform="translate(-174.942 -147.601)" fill="#00223d"/>
          </g>
          <g id="Grupo_54953" data-name="Grupo 54953" transform="translate(65.709 69.441)" style="isolation: isolate">
            <g id="Grupo_54950" data-name="Grupo 54950" transform="translate(12.522 1.455)">
              <path id="Trazado_118697" data-name="Trazado 118697" d="M194.374,158.959l6.356-8.6,4.944,11.53-6.355,8.6Z" transform="translate(-194.374 -150.359)" fill="#00223d"/>
            </g>
            <g id="Grupo_54951" data-name="Grupo 54951">
              <path id="Trazado_118698" data-name="Trazado 118698" d="M191.263,158.6l6.355-8.6,12.523,1.455-6.356,8.6Z" transform="translate(-191.263 -149.998)" fill="#00223d"/>
            </g>
            <g id="Grupo_54952" data-name="Grupo 54952" transform="translate(0 8.6)">
              <path id="Trazado_118699" data-name="Trazado 118699" d="M203.786,153.589l4.945,11.53-12.523-1.455-4.944-11.53Z" transform="translate(-191.263 -152.134)" fill="#00223d"/>
            </g>
          </g>
        </g>
      </g>
    </g>
    <g id="Grupo_55268" data-name="Grupo 55268" transform="translate(255.016 8274.533)">
      <g id="Grupo_55121" data-name="Grupo 55121" transform="translate(0 0)">
        <g id="Grupo_55110" data-name="Grupo 55110">
          <g id="Grupo_55107" data-name="Grupo 55107" transform="translate(3.652 61.786)">
            <path id="Trazado_118841" data-name="Trazado 118841" d="M129.012,334.634l-39.95-23.585V324l90.095,52.888v3.807L182,378.97V366.245l-53.146-31.611Z" transform="translate(-89.061 -311.048)" fill="#bdc3c7"/>
          </g>
          <g id="Grupo_55108" data-name="Grupo 55108" transform="translate(21.509 95.868)">
            <path id="Trazado_118842" data-name="Trazado 118842" d="M139.55,365.454l5.276-2.961v-4.3l-5.276,2.982Z" transform="translate(-88.821 -328.232)" fill="#bdc3c7"/>
            <path id="Trazado_118843" data-name="Trazado 118843" d="M135.863,354.738l-5.276,2.957v-9.948l5.276,3.094Z" transform="translate(-92.033 -331.977)" fill="#bdc3c7"/>
            <path id="Trazado_118844" data-name="Trazado 118844" d="M158.211,366.1l-5.276,2.982-50.729-29.975,5.276-2.969Z" transform="translate(-102.206 -336.138)" fill="#bdc3c7"/>
          </g>
          <g id="Grupo_55109" data-name="Grupo 55109">
            <path id="Trazado_118845" data-name="Trazado 118845" d="M89.579,265.566l-3.206,1.41v.079l93.681,55.024,2.907-1.632Z" transform="translate(-86.373 -265.566)" fill="url(#linear-gradient)"/>
            <path id="Trazado_118846" data-name="Trazado 118846" d="M158.311,306.015l-.316-.186-2.856,1.817h.265v62.019l2.907-1.55Z" transform="translate(-61.723 -251.133)" fill="url(#linear-gradient)"/>
          </g>
          <path id="Trazado_118847" data-name="Trazado 118847" d="M180.12,321.688,86.373,266.6v61.987l93.747,55.084Z" transform="translate(-86.373 -265.194)" fill="#00223d"/>
          <path id="Trazado_118848" data-name="Trazado 118848" d="M88.763,328.917v-57.7L175.2,322.052v57.7Z" transform="translate(-85.516 -263.541)" fill="#21587b"/>
          <path id="Trazado_118849" data-name="Trazado 118849" d="M180.12,380.268v-12.95L86.373,312.234v12.95l33.684,19.792v9.892l-12.175-7.194v4.285l50.729,29.975v-4.285l-12.175-7.194v-9.98Z" transform="translate(-86.373 -248.838)" fill="url(#linear-gradient)"/>
        </g>
      </g>
    </g>
    <g id="Grupo_37889" data-name="Grupo 37889" transform="translate(633.549 8162.575)">
      <g id="Grupo_37815" data-name="Grupo 37815" transform="translate(0 115.15)" opacity="0.76" style="mix-blend-mode: multiply;isolation: isolate">
        <path id="Trazado_89315" data-name="Trazado 89315" d="M450.879,822.69c-9.959-5.722-31.5-17.532-31.5-17.532s23.172-16.047,23.172-16.047l12.547,7.222c.036-.02,25.225,14.48,25.225,14.48L459.69,822.69Z" transform="translate(-419.376 -789.111)" fill="#f8f8f8"/>
      </g>
      <g id="Grupo_37888" data-name="Grupo 37888" transform="translate(0)">
        <path id="Trazado_89316" data-name="Trazado 89316" d="M446.294,655.858a8.014,8.014,0,0,0-2.3-4.417,5.152,5.152,0,0,0-1.785-1.064,5.508,5.508,0,0,0-2.371-.224,8.6,8.6,0,0,0-3.35,1.158,14.152,14.152,0,0,0-2.206,1.6,25.424,25.424,0,0,0-7.68,14.717,20.357,20.357,0,0,0-.233,2.962v110.6l12.334,6.868a25.251,25.251,0,0,0,7.907-17.659V658.939A14.891,14.891,0,0,0,446.294,655.858Z" transform="translate(-420.739 -646.858)" fill="url(#linear-gradient-5)"/>
        <path id="Trazado_89317" data-name="Trazado 89317" d="M457.207,685.162v-20.12a14.934,14.934,0,0,0-.312-3.081,8.013,8.013,0,0,0-2.3-4.417,5.14,5.14,0,0,0-1.785-1.064,5.506,5.506,0,0,0-2.371-.224,8.586,8.586,0,0,0-3.349,1.158,14.106,14.106,0,0,0-2.207,1.6,25.417,25.417,0,0,0-7.677,14.693l17.036,9.756L437.2,673.707a20.464,20.464,0,0,0-.237,2.986v110.44l12.448,6.932a25.3,25.3,0,0,0,7.792-17.562v-91.34Z" transform="translate(-422.806 -648.048)" fill="url(#linear-gradient-6)"/>
        <path id="Trazado_89318" data-name="Trazado 89318" d="M467.808,691.306V671.489a14.882,14.882,0,0,0-.312-3.081,8.017,8.017,0,0,0-2.3-4.417,5.117,5.117,0,0,0-1.784-1.063,5.51,5.51,0,0,0-2.372-.224,8.6,8.6,0,0,0-3.348,1.157,14.1,14.1,0,0,0-2.207,1.6,25.393,25.393,0,0,0-7.634,14.414l16.881,9.667-16.881-9.667a20.518,20.518,0,0,0-.279,3.265v110l8.8,4.9s11.44-10.554,11.44-15.092V691.306Z" transform="translate(-424.873 -649.305)" fill="url(#linear-gradient-7)"/>
        <g id="Grupo_37817" data-name="Grupo 37817">
          <g id="Grupo_37816" data-name="Grupo 37816">
            <path id="Trazado_89319" data-name="Trazado 89319" d="M432.916,652.122a14.152,14.152,0,0,1,2.206-1.6,8.6,8.6,0,0,1,3.35-1.158,5.51,5.51,0,0,1,2.371.224l-4.4-2.625-.61-.364c-1.734-.856-3.935-.7-6.333.677a14.043,14.043,0,0,0-2.211,1.6,25.429,25.429,0,0,0-7.679,14.734l1.887,1.081-1.887-1.081a20.379,20.379,0,0,0-.229,2.941V777.267L425,780.4V669.8a20.359,20.359,0,0,1,.233-2.962A25.425,25.425,0,0,1,432.916,652.122Z" transform="translate(-419.376 -646.069)" fill="#fff"/>
            <path id="Trazado_89320" data-name="Trazado 89320" d="M447.039,653.066l-.609-.364c-1.735-.856-3.935-.7-6.334.676a14.041,14.041,0,0,0-2.211,1.605,25.417,25.417,0,0,0-7.675,14.711,20.268,20.268,0,0,0-.234,2.964V783.209l5.628,3.134V675.9a20.459,20.459,0,0,1,.237-2.986,25.417,25.417,0,0,1,7.677-14.693,14.132,14.132,0,0,1,2.207-1.6,8.59,8.59,0,0,1,3.349-1.158,5.508,5.508,0,0,1,2.371.224Z" transform="translate(-421.443 -647.259)" fill="#dee4f0"/>
            <path id="Trazado_89321" data-name="Trazado 89321" d="M457.64,659.513l-.61-.364c-1.734-.856-3.935-.7-6.333.677a14.134,14.134,0,0,0-2.211,1.6,25.4,25.4,0,0,0-7.633,14.432,20.5,20.5,0,0,0-.276,3.243V789.219l5.628,3.134v-110a20.52,20.52,0,0,1,.279-3.265,25.393,25.393,0,0,1,7.634-14.414,14.1,14.1,0,0,1,2.207-1.6,8.6,8.6,0,0,1,3.348-1.158,5.513,5.513,0,0,1,2.372.225Z" transform="translate(-423.51 -648.517)" fill="#dee4f0"/>
            <path id="Trazado_89322" data-name="Trazado 89322" d="M468.572,665.49l-.61-.364c-1.734-.856-3.935-.7-6.333.677a14.12,14.12,0,0,0-2.211,1.6,25.419,25.419,0,0,0-7.664,14.642,20.458,20.458,0,0,0-.244,3.034v110.2l5.627,3.134V688.329a20.424,20.424,0,0,1,.248-3.055,25.408,25.408,0,0,1,7.666-14.624,14.114,14.114,0,0,1,2.206-1.6,8.6,8.6,0,0,1,3.349-1.158,5.509,5.509,0,0,1,2.372.225Z" transform="translate(-425.642 -649.682)" fill="#dee4f0"/>
          </g>
          <path id="Trazado_89323" data-name="Trazado 89323" d="M478.428,674.385a8.02,8.02,0,0,0-2.3-4.417,5.116,5.116,0,0,0-1.784-1.063,5.509,5.509,0,0,0-2.372-.225,8.6,8.6,0,0,0-3.349,1.158,14.116,14.116,0,0,0-2.206,1.6,25.407,25.407,0,0,0-7.666,14.624,20.421,20.421,0,0,0-.248,3.055v110.09l20.207-10.74.033-90.956V677.466A14.947,14.947,0,0,0,478.428,674.385Z" transform="translate(-427.004 -650.471)" fill="url(#linear-gradient-8)"/>
        </g>
        <g id="Grupo_37818" data-name="Grupo 37818" transform="translate(36.553 29.938)">
          <path id="Trazado_89324" data-name="Trazado 89324" d="M474.748,686.13a4.011,4.011,0,0,0-1.151-2.208,2.58,2.58,0,0,0-.893-.532,2.761,2.761,0,0,0-1.186-.112,4.306,4.306,0,0,0-1.674.579,7.008,7.008,0,0,0-1.1.8,12.705,12.705,0,0,0-3.833,7.312,10.221,10.221,0,0,0-.125,1.528v55.73c0,.385-.006,41.763.013,42.146l10.091-5.253c.027-.527.017-42.191.017-42.719v-55.73A7.448,7.448,0,0,0,474.748,686.13Z" transform="translate(-464.783 -683.259)" fill="#00223d"/>
        </g>
        <g id="Grupo_37841" data-name="Grupo 37841" transform="translate(9.742 26.267)">
          <g id="Grupo_37829" data-name="Grupo 37829">
            <g id="Grupo_37819" data-name="Grupo 37819">
              <path id="Trazado_89325" data-name="Trazado 89325" d="M433.97,680.133l.339.2v4.4l-2.83-1.629v-4.4Z" transform="translate(-431.478 -678.699)" fill="#00223d"/>
            </g>
            <g id="Grupo_37820" data-name="Grupo 37820" transform="translate(0.034 5.14)">
              <path id="Trazado_89326" data-name="Trazado 89326" d="M434.35,691.117l-2.83-1.629v-4.4l2.83,1.629Z" transform="translate(-431.52 -685.084)" fill="#00223d"/>
            </g>
            <g id="Grupo_37821" data-name="Grupo 37821" transform="translate(0.068 10.279)">
              <path id="Trazado_89327" data-name="Trazado 89327" d="M434.392,697.5l-2.83-1.629v-4.4l2.83,1.629Z" transform="translate(-431.562 -691.468)" fill="#00223d"/>
            </g>
            <g id="Grupo_37822" data-name="Grupo 37822" transform="translate(0.102 15.419)">
              <path id="Trazado_89328" data-name="Trazado 89328" d="M434.434,703.886l-2.83-1.629v-4.4l2.83,1.629Z" transform="translate(-431.604 -697.853)" fill="#00223d"/>
            </g>
            <g id="Grupo_37823" data-name="Grupo 37823" transform="translate(0.135 20.558)">
              <path id="Trazado_89329" data-name="Trazado 89329" d="M434.476,710.271l-2.83-1.63v-4.4l2.83,1.629Z" transform="translate(-431.646 -704.237)" fill="#00223d"/>
            </g>
            <g id="Grupo_37824" data-name="Grupo 37824" transform="translate(0.17 25.698)">
              <path id="Trazado_89330" data-name="Trazado 89330" d="M434.519,716.655l-2.83-1.629v-4.4l2.83,1.629Z" transform="translate(-431.688 -710.622)" fill="#00223d"/>
            </g>
            <g id="Grupo_37825" data-name="Grupo 37825" transform="translate(0.203 30.837)">
              <path id="Trazado_89331" data-name="Trazado 89331" d="M434.561,723.039l-2.831-1.629v-4.4l2.831,1.629Z" transform="translate(-431.73 -717.006)" fill="#00223d"/>
            </g>
            <g id="Grupo_37826" data-name="Grupo 37826" transform="translate(0.237 35.977)">
              <path id="Trazado_89332" data-name="Trazado 89332" d="M434.6,729.424l-2.83-1.63v-4.4l2.83,1.629Z" transform="translate(-431.772 -723.391)" fill="#00223d"/>
            </g>
            <g id="Grupo_37827" data-name="Grupo 37827" transform="translate(0.271 41.117)">
              <path id="Trazado_89333" data-name="Trazado 89333" d="M434.645,735.809l-2.83-1.629v-4.4l2.83,1.629Z" transform="translate(-431.815 -729.775)" fill="#00223d"/>
            </g>
            <g id="Grupo_37828" data-name="Grupo 37828" transform="translate(0.305 46.256)">
              <path id="Trazado_89334" data-name="Trazado 89334" d="M434.674,737.781l-2.818-1.622v4.4l2.818,1.622Z" transform="translate(-431.856 -736.159)" fill="#00223d"/>
            </g>
          </g>
          <g id="Grupo_37840" data-name="Grupo 37840" transform="translate(0.325 51.456)">
            <g id="Grupo_37830" data-name="Grupo 37830">
              <path id="Trazado_89335" data-name="Trazado 89335" d="M434.373,744.054l.339.2v4.4l-2.831-1.629v-4.4Z" transform="translate(-431.881 -742.619)" fill="#00223d"/>
            </g>
            <g id="Grupo_37831" data-name="Grupo 37831" transform="translate(0.034 5.14)">
              <path id="Trazado_89336" data-name="Trazado 89336" d="M434.754,755.037l-2.83-1.629V749l2.83,1.629Z" transform="translate(-431.923 -749.004)" fill="#00223d"/>
            </g>
            <g id="Grupo_37832" data-name="Grupo 37832" transform="translate(0.068 10.279)">
              <path id="Trazado_89337" data-name="Trazado 89337" d="M434.8,761.422l-2.83-1.629v-4.4l2.83,1.629Z" transform="translate(-431.965 -755.389)" fill="#00223d"/>
            </g>
            <g id="Grupo_37833" data-name="Grupo 37833" transform="translate(0.102 15.419)">
              <path id="Trazado_89338" data-name="Trazado 89338" d="M434.838,767.806l-2.83-1.629v-4.4l2.83,1.629Z" transform="translate(-432.008 -761.773)" fill="#00223d"/>
            </g>
            <g id="Grupo_37834" data-name="Grupo 37834" transform="translate(0.135 20.559)">
              <path id="Trazado_89339" data-name="Trazado 89339" d="M434.88,774.191l-2.831-1.629v-4.4l2.831,1.629Z" transform="translate(-432.049 -768.157)" fill="#00223d"/>
            </g>
            <g id="Grupo_37835" data-name="Grupo 37835" transform="translate(0.169 25.698)">
              <path id="Trazado_89340" data-name="Trazado 89340" d="M434.922,780.575l-2.83-1.629v-4.4l2.83,1.629Z" transform="translate(-432.091 -774.542)" fill="#00223d"/>
            </g>
            <g id="Grupo_37836" data-name="Grupo 37836" transform="translate(0.203 30.838)">
              <path id="Trazado_89341" data-name="Trazado 89341" d="M434.964,786.96l-2.83-1.629v-4.4l2.83,1.629Z" transform="translate(-432.134 -780.926)" fill="#00223d"/>
            </g>
            <g id="Grupo_37837" data-name="Grupo 37837" transform="translate(0.237 35.977)">
              <path id="Trazado_89342" data-name="Trazado 89342" d="M435.006,793.344l-2.83-1.629v-4.4l2.83,1.629Z" transform="translate(-432.176 -787.311)" fill="#00223d"/>
            </g>
            <g id="Grupo_37838" data-name="Grupo 37838" transform="translate(0.271 41.117)">
              <path id="Trazado_89343" data-name="Trazado 89343" d="M435.048,799.729l-2.83-1.629v-4.4l2.83,1.629Z" transform="translate(-432.218 -793.695)" fill="#00223d"/>
            </g>
            <g id="Grupo_37839" data-name="Grupo 37839" transform="translate(0.305 46.256)">
              <path id="Trazado_89344" data-name="Trazado 89344" d="M435.077,801.7l-2.818-1.622v4.4l2.818,1.622Z" transform="translate(-432.26 -800.08)" fill="#00223d"/>
            </g>
          </g>
        </g>
        <g id="Grupo_37864" data-name="Grupo 37864" transform="translate(18.297 30.994)">
          <g id="Grupo_37852" data-name="Grupo 37852">
            <g id="Grupo_37842" data-name="Grupo 37842">
              <path id="Trazado_89345" data-name="Trazado 89345" d="M444.6,686.005l.339.195v4.4l-2.83-1.629v-4.4Z" transform="translate(-442.105 -684.571)" fill="#00223d"/>
            </g>
            <g id="Grupo_37843" data-name="Grupo 37843" transform="translate(0.034 5.14)">
              <path id="Trazado_89346" data-name="Trazado 89346" d="M444.977,696.989l-2.831-1.629v-4.4l2.831,1.629Z" transform="translate(-442.147 -690.955)" fill="#00223d"/>
            </g>
            <g id="Grupo_37844" data-name="Grupo 37844" transform="translate(0.068 10.279)">
              <path id="Trazado_89347" data-name="Trazado 89347" d="M445.019,703.373l-2.83-1.629v-4.4l2.83,1.629Z" transform="translate(-442.189 -697.34)" fill="#00223d"/>
            </g>
            <g id="Grupo_37845" data-name="Grupo 37845" transform="translate(0.102 15.419)">
              <path id="Trazado_89348" data-name="Trazado 89348" d="M445.061,709.758l-2.83-1.629v-4.4l2.83,1.629Z" transform="translate(-442.231 -703.724)" fill="#00223d"/>
            </g>
            <g id="Grupo_37846" data-name="Grupo 37846" transform="translate(0.135 20.558)">
              <path id="Trazado_89349" data-name="Trazado 89349" d="M445.1,716.142l-2.83-1.629v-4.4l2.83,1.63Z" transform="translate(-442.273 -710.108)" fill="#00223d"/>
            </g>
            <g id="Grupo_37847" data-name="Grupo 37847" transform="translate(0.169 25.698)">
              <path id="Trazado_89350" data-name="Trazado 89350" d="M445.145,722.527l-2.83-1.629v-4.4l2.83,1.63Z" transform="translate(-442.315 -716.493)" fill="#00223d"/>
            </g>
            <g id="Grupo_37848" data-name="Grupo 37848" transform="translate(0.203 30.838)">
              <path id="Trazado_89351" data-name="Trazado 89351" d="M445.188,728.911l-2.83-1.629v-4.4l2.83,1.629Z" transform="translate(-442.357 -722.878)" fill="#00223d"/>
            </g>
            <g id="Grupo_37849" data-name="Grupo 37849" transform="translate(0.237 35.977)">
              <path id="Trazado_89352" data-name="Trazado 89352" d="M445.229,735.3l-2.83-1.629v-4.4l2.83,1.629Z" transform="translate(-442.399 -729.262)" fill="#00223d"/>
            </g>
            <g id="Grupo_37850" data-name="Grupo 37850" transform="translate(0.271 41.117)">
              <path id="Trazado_89353" data-name="Trazado 89353" d="M445.272,741.68l-2.83-1.629v-4.4l2.83,1.629Z" transform="translate(-442.441 -735.647)" fill="#00223d"/>
            </g>
            <g id="Grupo_37851" data-name="Grupo 37851" transform="translate(0.305 46.256)">
              <path id="Trazado_89354" data-name="Trazado 89354" d="M445.3,743.653l-2.818-1.622v4.4l2.818,1.622Z" transform="translate(-442.483 -742.031)" fill="#00223d"/>
            </g>
          </g>
          <g id="Grupo_37863" data-name="Grupo 37863" transform="translate(0.325 51.456)">
            <g id="Grupo_37853" data-name="Grupo 37853">
              <path id="Trazado_89355" data-name="Trazado 89355" d="M445,749.925l.339.195v4.4l-2.83-1.629v-4.4Z" transform="translate(-442.508 -748.491)" fill="#00223d"/>
            </g>
            <g id="Grupo_37854" data-name="Grupo 37854" transform="translate(0.034 5.14)">
              <path id="Trazado_89356" data-name="Trazado 89356" d="M445.38,760.909l-2.83-1.629v-4.4l2.83,1.629Z" transform="translate(-442.55 -754.875)" fill="#00223d"/>
            </g>
            <g id="Grupo_37855" data-name="Grupo 37855" transform="translate(0.068 10.279)">
              <path id="Trazado_89357" data-name="Trazado 89357" d="M445.423,767.293l-2.83-1.629v-4.4l2.83,1.63Z" transform="translate(-442.592 -761.26)" fill="#00223d"/>
            </g>
            <g id="Grupo_37856" data-name="Grupo 37856" transform="translate(0.102 15.419)">
              <path id="Trazado_89358" data-name="Trazado 89358" d="M445.465,773.678l-2.83-1.629v-4.4l2.83,1.629Z" transform="translate(-442.634 -767.644)" fill="#00223d"/>
            </g>
            <g id="Grupo_37857" data-name="Grupo 37857" transform="translate(0.135 20.558)">
              <path id="Trazado_89359" data-name="Trazado 89359" d="M445.507,780.062l-2.83-1.629v-4.4l2.83,1.629Z" transform="translate(-442.676 -774.029)" fill="#00223d"/>
            </g>
            <g id="Grupo_37858" data-name="Grupo 37858" transform="translate(0.17 25.698)">
              <path id="Trazado_89360" data-name="Trazado 89360" d="M445.549,786.447l-2.83-1.629v-4.4l2.83,1.629Z" transform="translate(-442.719 -780.413)" fill="#00223d"/>
            </g>
            <g id="Grupo_37859" data-name="Grupo 37859" transform="translate(0.203 30.838)">
              <path id="Trazado_89361" data-name="Trazado 89361" d="M445.591,792.831l-2.83-1.629v-4.4l2.83,1.629Z" transform="translate(-442.76 -786.798)" fill="#00223d"/>
            </g>
            <g id="Grupo_37860" data-name="Grupo 37860" transform="translate(0.237 35.977)">
              <path id="Trazado_89362" data-name="Trazado 89362" d="M445.633,799.216l-2.83-1.629v-4.4l2.83,1.629Z" transform="translate(-442.803 -793.182)" fill="#00223d"/>
            </g>
            <g id="Grupo_37861" data-name="Grupo 37861" transform="translate(0.271 41.117)">
              <path id="Trazado_89363" data-name="Trazado 89363" d="M445.675,805.6l-2.83-1.629v-4.4l2.83,1.629Z" transform="translate(-442.845 -799.567)" fill="#00223d"/>
            </g>
            <g id="Grupo_37862" data-name="Grupo 37862" transform="translate(0.305 46.256)">
              <path id="Trazado_89364" data-name="Trazado 89364" d="M445.7,807.573l-2.818-1.622v4.4l2.818,1.622Z" transform="translate(-442.887 -805.951)" fill="#00223d"/>
            </g>
          </g>
        </g>
        <g id="Grupo_37887" data-name="Grupo 37887" transform="translate(26.524 35.271)">
          <g id="Grupo_37875" data-name="Grupo 37875">
            <g id="Grupo_37865" data-name="Grupo 37865">
              <path id="Trazado_89365" data-name="Trazado 89365" d="M454.816,691.318l.339.2v4.4l-2.83-1.629v-4.4Z" transform="translate(-452.324 -689.884)" fill="#00223d"/>
            </g>
            <g id="Grupo_37866" data-name="Grupo 37866" transform="translate(0.034 5.14)">
              <path id="Trazado_89366" data-name="Trazado 89366" d="M455.2,702.3l-2.83-1.629v-4.4l2.83,1.629Z" transform="translate(-452.366 -696.268)" fill="#00223d"/>
            </g>
            <g id="Grupo_37867" data-name="Grupo 37867" transform="translate(0.067 10.279)">
              <path id="Trazado_89367" data-name="Trazado 89367" d="M455.239,708.686l-2.831-1.629v-4.4l2.831,1.629Z" transform="translate(-452.408 -702.653)" fill="#00223d"/>
            </g>
            <g id="Grupo_37868" data-name="Grupo 37868" transform="translate(0.101 15.419)">
              <path id="Trazado_89368" data-name="Trazado 89368" d="M455.281,715.071l-2.831-1.629v-4.4l2.831,1.629Z" transform="translate(-452.45 -709.037)" fill="#00223d"/>
            </g>
            <g id="Grupo_37869" data-name="Grupo 37869" transform="translate(0.135 20.558)">
              <path id="Trazado_89369" data-name="Trazado 89369" d="M455.323,721.455l-2.83-1.629v-4.4l2.83,1.629Z" transform="translate(-452.492 -715.422)" fill="#00223d"/>
            </g>
            <g id="Grupo_37870" data-name="Grupo 37870" transform="translate(0.169 25.698)">
              <path id="Trazado_89370" data-name="Trazado 89370" d="M455.365,727.84l-2.83-1.629v-4.4l2.83,1.629Z" transform="translate(-452.534 -721.806)" fill="#00223d"/>
            </g>
            <g id="Grupo_37871" data-name="Grupo 37871" transform="translate(0.203 30.838)">
              <path id="Trazado_89371" data-name="Trazado 89371" d="M455.407,734.224l-2.83-1.629v-4.4l2.83,1.629Z" transform="translate(-452.577 -728.191)" fill="#00223d"/>
            </g>
            <g id="Grupo_37872" data-name="Grupo 37872" transform="translate(0.237 35.977)">
              <path id="Trazado_89372" data-name="Trazado 89372" d="M455.449,740.609l-2.83-1.63v-4.4l2.83,1.629Z" transform="translate(-452.619 -734.575)" fill="#00223d"/>
            </g>
            <g id="Grupo_37873" data-name="Grupo 37873" transform="translate(0.271 41.117)">
              <path id="Trazado_89373" data-name="Trazado 89373" d="M455.491,746.993l-2.83-1.629v-4.4l2.83,1.629Z" transform="translate(-452.661 -740.96)" fill="#00223d"/>
            </g>
            <g id="Grupo_37874" data-name="Grupo 37874" transform="translate(0.305 46.256)">
              <path id="Trazado_89374" data-name="Trazado 89374" d="M455.52,748.966l-2.818-1.622v4.4l2.818,1.622Z" transform="translate(-452.703 -747.344)" fill="#00223d"/>
            </g>
          </g>
          <g id="Grupo_37886" data-name="Grupo 37886" transform="translate(0.325 51.456)">
            <g id="Grupo_37876" data-name="Grupo 37876">
              <path id="Trazado_89375" data-name="Trazado 89375" d="M455.219,755.238l.339.195v4.4l-2.83-1.629v-4.4Z" transform="translate(-452.727 -753.804)" fill="#00223d"/>
            </g>
            <g id="Grupo_37877" data-name="Grupo 37877" transform="translate(0.034 5.14)">
              <path id="Trazado_89376" data-name="Trazado 89376" d="M455.6,766.222l-2.83-1.629v-4.4l2.83,1.629Z" transform="translate(-452.77 -760.188)" fill="#00223d"/>
            </g>
            <g id="Grupo_37878" data-name="Grupo 37878" transform="translate(0.068 10.279)">
              <path id="Trazado_89377" data-name="Trazado 89377" d="M455.642,772.606l-2.83-1.629v-4.4l2.83,1.629Z" transform="translate(-452.812 -766.573)" fill="#00223d"/>
            </g>
            <g id="Grupo_37879" data-name="Grupo 37879" transform="translate(0.102 15.419)">
              <path id="Trazado_89378" data-name="Trazado 89378" d="M455.684,778.991l-2.83-1.629v-4.4l2.83,1.629Z" transform="translate(-452.854 -772.957)" fill="#00223d"/>
            </g>
            <g id="Grupo_37880" data-name="Grupo 37880" transform="translate(0.135 20.558)">
              <path id="Trazado_89379" data-name="Trazado 89379" d="M455.726,785.375l-2.83-1.629v-4.4l2.83,1.629Z" transform="translate(-452.896 -779.342)" fill="#00223d"/>
            </g>
            <g id="Grupo_37881" data-name="Grupo 37881" transform="translate(0.169 25.698)">
              <path id="Trazado_89380" data-name="Trazado 89380" d="M455.768,791.76l-2.83-1.629v-4.4l2.83,1.63Z" transform="translate(-452.938 -785.726)" fill="#00223d"/>
            </g>
            <g id="Grupo_37882" data-name="Grupo 37882" transform="translate(0.203 30.838)">
              <path id="Trazado_89381" data-name="Trazado 89381" d="M455.81,798.144l-2.83-1.629v-4.4l2.83,1.629Z" transform="translate(-452.98 -792.111)" fill="#00223d"/>
            </g>
            <g id="Grupo_37883" data-name="Grupo 37883" transform="translate(0.237 35.977)">
              <path id="Trazado_89382" data-name="Trazado 89382" d="M455.852,804.529l-2.83-1.629v-4.4l2.83,1.629Z" transform="translate(-453.022 -798.495)" fill="#00223d"/>
            </g>
            <g id="Grupo_37884" data-name="Grupo 37884" transform="translate(0.271 41.117)">
              <path id="Trazado_89383" data-name="Trazado 89383" d="M455.894,806.509l-2.83-1.629v4.4l2.83,1.629Z" transform="translate(-453.064 -804.88)" fill="#00223d"/>
            </g>
            <g id="Grupo_37885" data-name="Grupo 37885" transform="translate(0.305 46.256)">
              <path id="Trazado_89384" data-name="Trazado 89384" d="M455.924,812.886l-2.818-1.622v4.4l2.818,1.622Z" transform="translate(-453.106 -811.264)" fill="#00223d"/>
            </g>
          </g>
        </g>
      </g>
    </g>
    <g id="Grupo_37533" data-name="Grupo 37533" transform="translate(570.765 8155.017)">
      <g id="Grupo_37532" data-name="Grupo 37532" transform="translate(8.853)">
        <path id="Trazado_88714" data-name="Trazado 88714" d="M775.366,275.281c-.673-1.009-1.763-1.555-2.436-1.218s-.672,1.426,0,2.435c7.78,11.669,7.78,24.328,0,28.216-.672.336-.672,1.426,0,2.435s1.763,1.554,2.435,1.218C784.489,303.806,784.487,288.964,775.366,275.281Z" transform="translate(-739.891 -260.862)" fill="#00223d"/>
        <path id="Trazado_88715" data-name="Trazado 88715" d="M769.465,278.23c-.672-1.008-1.763-1.554-2.436-1.218s-.672,1.427,0,2.436c4.254,6.379,4.254,13.3,0,15.425-.672.336-.672,1.426,0,2.435s1.764,1.554,2.436,1.218C775.06,295.729,775.06,286.624,769.465,278.23Z" transform="translate(-740.385 -260.615)" fill="#00223d"/>
        <path id="Trazado_88716" data-name="Trazado 88716" d="M759.485,280.057c-1.516.758-1.516,3.213,0,5.487s3.971,3.5,5.487,2.743,1.514-3.213,0-5.486S761,279.3,759.485,280.057Z" transform="translate(-741.069 -260.371)" fill="#00223d"/>
        <path id="Trazado_88717" data-name="Trazado 88717" d="M751.68,265.626c.672-.336.672-1.427,0-2.436s-1.763-1.553-2.436-1.217c-9.121,4.559-9.12,19.4,0,33.086.673,1.009,1.763,1.554,2.436,1.218s.672-1.427,0-2.436C743.9,282.171,743.9,269.514,751.68,265.626Z" transform="translate(-742.404 -261.873)" fill="#00223d"/>
        <path id="Trazado_88718" data-name="Trazado 88718" d="M757.378,272.044c-.673-1.009-1.765-1.555-2.436-1.218-5.595,2.8-5.595,11.9,0,20.3.672,1.009,1.763,1.554,2.436,1.218s.672-1.427,0-2.435c-4.254-6.38-4.254-13.3,0-15.425C758.05,274.143,758.05,273.051,757.378,272.044Z" transform="translate(-741.706 -261.133)" fill="#00223d"/>
      </g>
      <path id="Trazado_88719" data-name="Trazado 88719" d="M794.2,397.118l-3.3-12.533a1.52,1.52,0,0,0-.329-1.253L766.2,290.654c-.01-.035-.035-.06-.046-.093a1.516,1.516,0,0,0-.079-.2,1.439,1.439,0,0,0-.1-.173,1.553,1.553,0,0,0-.12-.16,1.572,1.572,0,0,0-.135-.137,1.556,1.556,0,0,0-.157-.121,1.5,1.5,0,0,0-.176-.106,1.4,1.4,0,0,0-.189-.076c-.036-.013-.062-.04-.1-.05a.829.829,0,0,0-.088-.005,1.506,1.506,0,0,0-.207-.028c-.035,0-.066-.021-.1-.021h-.012c-.038,0-.07.018-.107.022a1.467,1.467,0,0,0-.194.024c-.033.007-.064,0-.1.007s-.062.035-.1.046a1.6,1.6,0,0,0-.2.08,1.737,1.737,0,0,0-.167.1,1.508,1.508,0,0,0-.16.121,1.412,1.412,0,0,0-.14.139,1.442,1.442,0,0,0-.3.523c-.012.035-.038.06-.048.1l-25.032,92.687c-.007.02-.01.04-.016.061l-3.841,14.222a1.562,1.562,0,0,0,1.1,1.917,1.514,1.514,0,0,0,.409.054,1.561,1.561,0,0,0,1.507-1.156l2.973-11,22.058,11.554-.1,13.7a1.563,1.563,0,0,0,1.551,1.576h.012a1.564,1.564,0,0,0,1.564-1.552l.1-13.726,22.838-12,2.875,10.933a1.564,1.564,0,0,0,1.511,1.166,1.546,1.546,0,0,0,.4-.052A1.563,1.563,0,0,0,794.2,397.118Zm-33.8-25.4-12.72-6.662,14.96-7.483-.1,13.072Zm5.5-32.865,9.18,4.59-9.249,4.856Zm-3.2,9.656-9.506-4.979,9.577-4.79Zm3.1,3.339,11.643-6.116,4.342,16.5-16-8Zm.12-16.425.058-7.917,5.861-3.079,4.228,16.071Zm.083-11.463.031-4.192,4.073,2.036Zm-3.128,0-4.2-2.2,4.231-2.115Zm-5.62.586,5.594,2.93-.056,7.812-9.758,4.881Zm-5.832,21.593,11.247,5.892-.015,2.091-15.479,7.742Zm-5.777,21.391,11.3,5.917-14.907,7.455Zm20.017,3.221.1-13.083,14.625,7.315L767.585,371.7Zm17.4-3.646,3.741,14.22-15.783-7.894ZM766.167,302.82l4.107,15.615-4.206-2.1Zm-3.226,13.359-3.953,1.978,4.049-14.992Zm-.577,79.263-20.771-10.88,18.719-9.362,2.19,1.147Zm3.267-19.182,2.043-1.074,18.606,9.306-20.787,10.918Z" transform="translate(-734.235 -259.563)" fill="#00223d"/>
    </g>
    <g id="Grupo_55270" data-name="Grupo 55270" transform="translate(347.942 8274.043)">
      <g id="Grupo_54888" data-name="Grupo 54888" transform="translate(175.171 0)">
        <path id="Trazado_118638" data-name="Trazado 118638" d="M379.9,139.5a.779.779,0,0,1-.406-1.444l6.65-4.054a.779.779,0,0,1,.811,1.33L380.3,139.39A.791.791,0,0,1,379.9,139.5Zm13.3-8.108a.779.779,0,0,1-.406-1.444l6.65-4.054a.779.779,0,0,1,.811,1.33l-6.648,4.054A.791.791,0,0,1,393.194,131.4Zm13.3-8.108a.779.779,0,0,1-.4-1.444l6.648-4.054a.779.779,0,0,1,.813,1.33l-6.65,4.054A.791.791,0,0,1,406.491,123.288Zm13.3-8.108a.779.779,0,0,1-.4-1.444l6.647-4.052a.779.779,0,1,1,.813,1.328l-6.648,4.054A.791.791,0,0,1,419.787,115.181Zm13.3-8.108a.778.778,0,0,1-.4-1.442l6.647-4.054a.779.779,0,1,1,.813,1.328l-6.648,4.054A.776.776,0,0,1,433.084,107.073Zm13.3-8.108a.779.779,0,0,1-.406-1.444l.508-.31a4.9,4.9,0,0,0,2.364-4.206,5.162,5.162,0,0,0-.134-1.157.778.778,0,1,1,1.514-.358,6.61,6.61,0,0,1,.177,1.515,6.443,6.443,0,0,1-3.11,5.536l-.508.31A.771.771,0,0,1,446.382,98.966Zm-2.341-11.7a.785.785,0,0,1-.389-.1l-6.743-3.893a.779.779,0,0,1,.779-1.349l6.743,3.893a.779.779,0,0,1-.389,1.453Zm-13.488-7.787a.79.79,0,0,1-.389-.1l-6.743-3.893a.779.779,0,0,1,.779-1.349l6.743,3.893a.779.779,0,0,1-.389,1.453Zm-13.487-7.787a.785.785,0,0,1-.389-.1l-6.743-3.893a.779.779,0,0,1,.779-1.35l6.743,3.893a.78.78,0,0,1-.389,1.455Zm-13.409-7.9a.77.77,0,0,1-.526-.206,6.516,6.516,0,0,1-1.16-8.1.778.778,0,1,1,1.335.8,4.963,4.963,0,0,0,.878,6.153.778.778,0,0,1-.526,1.352Zm5.223-11.643a.779.779,0,0,1-.4-1.447l6.681-4a.779.779,0,0,1,.8,1.338l-6.681,4A.777.777,0,0,1,408.881,52.147Z" transform="translate(-379.119 -46.589)" fill="#12263f"/>
      </g>
      <g id="Grupo_54889" data-name="Grupo 54889" transform="translate(0 27.773)">
        <path id="Trazado_118639" data-name="Trazado 118639" d="M346.2,42.145a.785.785,0,0,1-.389-.1l-6.743-3.893a.779.779,0,0,1,.779-1.35l6.743,3.893a.78.78,0,0,1-.389,1.455ZM284.46,40.5a.779.779,0,0,1-.367-1.465l6.873-3.66a.779.779,0,0,1,.734,1.375l-6.873,3.66A.79.79,0,0,1,284.46,40.5Zm48.257-6.145a.786.786,0,0,1-.389-.1l-6.743-3.893a.779.779,0,0,1,.779-1.35l6.743,3.893a.78.78,0,0,1-.389,1.455Zm-34.512-1.174a.779.779,0,0,1-.368-1.467l6.874-3.66a.779.779,0,0,1,.732,1.375l-6.873,3.66A.773.773,0,0,1,298.205,33.184Zm21.026-6.612a.785.785,0,0,1-.389-.1l-1.389-.8a5.005,5.005,0,0,0-4.779-.083l-.358.19a.778.778,0,0,1-.729-1.375l.355-.19a6.582,6.582,0,0,1,6.29.109l1.389.8a.78.78,0,0,1-.389,1.455Z" transform="translate(-283.68 -23.461)" fill="#12263f"/>
      </g>
    </g>
  </g>
</svg>
