<svg xmlns="http://www.w3.org/2000/svg" xmlns:xlink="http://www.w3.org/1999/xlink" width="275.675" height="258.196" viewBox="0 0 275.675 258.196">
  <defs>
    <linearGradient id="linear-gradient" x1="0.5" x2="0.5" y2="1" gradientUnits="objectBoundingBox">
      <stop offset="0" stop-color="#fff"/>
      <stop offset="1" stop-color="#d2e6ee"/>
    </linearGradient>
  </defs>
  <g id="Grupo_4521" data-name="Grupo 4521" transform="translate(-490.583 -423.5)">
    <g id="Grupo_29278" data-name="Grupo 29278" transform="translate(490.583 423.5)">
      <g id="Shadow" transform="translate(141.912 178.912)">
        <path id="Shadow-2" data-name="Shadow" d="M252.543,345.882l43.656,25.1a2.011,2.011,0,0,0,1.823,0L375.3,326.368a.556.556,0,0,0,0-1.053l-43.656-25.1a2.011,2.011,0,0,0-1.823,0l-77.276,44.615A.556.556,0,0,0,252.543,345.882Z" transform="translate(-252.165 -299.996)" fill="#e0e0e0"/>
        <path id="Shadow-3" data-name="Shadow" d="M413.683,375.475c-.142-1.117-1.481-1.684-2.219-2.11L381.652,356.1a4.269,4.269,0,0,0-4.264-.03l-29.8,17.189c-.878.507-2.314,1.476-2.314,2.611s.784,1.385,2.229,2.219l29.592,17.1a4.873,4.873,0,0,0,4.875,0L412.5,377.7A2.286,2.286,0,0,0,413.683,375.475Z" transform="translate(-279.937 -316.557)" fill="#e0e0e0"/>
      </g>
      <g id="Servers" transform="translate(0 0)">
        <g id="Server" transform="translate(82.662)">
          <g id="Grupo_29191" data-name="Grupo 29191" transform="translate(82.661 135.071)">
            <path id="Trazado_69480" data-name="Trazado 69480" d="M297.728,256.014l7.032-4.06a3.36,3.36,0,0,1,3.038,0l44.087,25.454" transform="translate(-289.167 -241.716)" fill="none" stroke="#57cc98" stroke-miterlimit="10" stroke-width="1"/>
            <path id="Trazado_69481" data-name="Trazado 69481" d="M293.665,252.969l9.883-5.706a3.355,3.355,0,0,1,3.038,0l46.938,27.1" transform="translate(-287.955 -240.317)" fill="none" stroke="#57cc98" stroke-miterlimit="10" stroke-width="1"/>
            <path id="Trazado_69482" data-name="Trazado 69482" d="M355.163,271.318l-49.788-28.745a3.359,3.359,0,0,0-3.038,0L289.6,249.919" transform="translate(-286.744 -238.918)" fill="none" stroke="#57cc98" stroke-miterlimit="10" stroke-width="1"/>
            <path id="Trazado_69483" data-name="Trazado 69483" d="M356.8,268.273l-52.639-30.391a3.359,3.359,0,0,0-3.038,0l-15.593,9" transform="translate(-285.528 -237.519)" fill="none" stroke="#57cc98" stroke-miterlimit="10" stroke-width="1"/>
          </g>
          <g id="Grupo_29201" data-name="Grupo 29201" transform="translate(0 0.138)">
            <path id="Trazado_69484" data-name="Trazado 69484" d="M214.667,45.592,169.248,71.814a3.359,3.359,0,0,0-1.519,2.631V199.3a3.359,3.359,0,0,0,1.519,2.631l45.419,26.222a3.361,3.361,0,0,0,3.039,0l45.417-26.222a3.357,3.357,0,0,0,1.519-2.631V74.446a3.359,3.359,0,0,0-1.519-2.631L217.705,45.592A3.355,3.355,0,0,0,214.667,45.592Z" transform="translate(-167.729 -45.229)" fill="url(#linear-gradient)"/>
            <path id="Trazado_69485" data-name="Trazado 69485" d="M285.24,86.152V211.008a3.366,3.366,0,0,1-1.516,2.631L238.3,239.863a3.043,3.043,0,0,1-1.515.365V111.863a3.141,3.141,0,0,0,1.515-.365l45.422-26.223.415-.344.54-.449A3.149,3.149,0,0,1,285.24,86.152Z" transform="translate(-188.328 -56.937)" fill="url(#linear-gradient)"/>
            <g id="Grupo_29192" data-name="Grupo 29192" transform="translate(5.701 41.298)">
              <path id="Trazado_69486" data-name="Trazado 69486" d="M177.372,104.289l34.017,19.64a3.357,3.357,0,0,1,1.519,2.631v12.949c0,.968-.68,1.361-1.519.877l-34.016-19.64a3.359,3.359,0,0,1-1.519-2.631V105.166C175.853,104.2,176.533,103.8,177.372,104.289Z" transform="translate(-175.853 -104.081)" fill="#455a64"/>
              <path id="Trazado_69487" data-name="Trazado 69487" d="M179.915,112.088a3.257,3.257,0,0,0,1.519,2.523l28.316,16.349c.839.484,1.52.14,1.519-.768a3.258,3.258,0,0,0-1.519-2.523L181.434,111.32C180.6,110.835,179.915,111.179,179.915,112.088Z" transform="translate(-177.065 -106.175)" fill="#57cc98"/>
              <path id="Trazado_69488" data-name="Trazado 69488" d="M179.915,121.469a3.257,3.257,0,0,0,1.519,2.523L209.75,140.34c.839.484,1.52.14,1.519-.768a3.258,3.258,0,0,0-1.519-2.523L181.434,120.7C180.6,120.217,179.915,120.56,179.915,121.469Z" transform="translate(-177.065 -108.973)" fill="#263238"/>
              <path id="Trazado_69489" data-name="Trazado 69489" d="M181.434,120.7l15.583,9v3.291l-15.584-9a3.257,3.257,0,0,1-1.519-2.523C179.915,120.56,180.6,120.217,181.434,120.7Z" transform="translate(-177.065 -108.973)" fill="#57cc98"/>
            </g>
            <g id="Grupo_29193" data-name="Grupo 29193" transform="translate(5.701 64.337)">
              <path id="Trazado_69490" data-name="Trazado 69490" d="M177.372,137.122l34.017,19.64a3.357,3.357,0,0,1,1.519,2.631v12.949c0,.968-.68,1.361-1.519.877l-34.016-19.64a3.361,3.361,0,0,1-1.519-2.631V138C175.853,137.03,176.533,136.638,177.372,137.122Z" transform="translate(-175.853 -136.914)" fill="#455a64"/>
              <path id="Trazado_69491" data-name="Trazado 69491" d="M179.915,144.921a3.257,3.257,0,0,0,1.519,2.523l28.316,16.349c.839.484,1.52.14,1.519-.768a3.258,3.258,0,0,0-1.519-2.523l-28.316-16.348C180.6,143.669,179.915,144.012,179.915,144.921Z" transform="translate(-177.065 -139.008)" fill="#57cc98"/>
              <path id="Trazado_69492" data-name="Trazado 69492" d="M179.915,154.3a3.257,3.257,0,0,0,1.519,2.523l28.316,16.349c.839.484,1.52.14,1.519-.768a3.257,3.257,0,0,0-1.519-2.523l-28.316-16.349C180.6,153.05,179.915,153.393,179.915,154.3Z" transform="translate(-177.065 -141.806)" fill="#263238"/>
              <path id="Trazado_69493" data-name="Trazado 69493" d="M181.434,153.534l24.135,13.934v3.291l-24.135-13.934a3.257,3.257,0,0,1-1.519-2.523C179.915,153.393,180.6,153.05,181.434,153.534Z" transform="translate(-177.065 -141.806)" fill="#57cc98"/>
            </g>
            <g id="Grupo_29194" data-name="Grupo 29194" transform="translate(5.701 87.377)">
              <path id="Trazado_69494" data-name="Trazado 69494" d="M177.372,169.955l34.017,19.64a3.357,3.357,0,0,1,1.519,2.631v12.949c0,.968-.68,1.361-1.519.877l-34.016-19.64a3.361,3.361,0,0,1-1.519-2.631V170.832C175.853,169.863,176.533,169.471,177.372,169.955Z" transform="translate(-175.853 -169.747)" fill="#455a64"/>
              <path id="Trazado_69495" data-name="Trazado 69495" d="M179.915,177.754a3.257,3.257,0,0,0,1.519,2.523l28.316,16.349c.839.484,1.52.14,1.519-.768a3.256,3.256,0,0,0-1.519-2.523l-28.316-16.349C180.6,176.5,179.915,176.845,179.915,177.754Z" transform="translate(-177.065 -171.841)" fill="#57cc98"/>
              <path id="Trazado_69496" data-name="Trazado 69496" d="M179.915,187.135a3.256,3.256,0,0,0,1.519,2.523l28.316,16.349c.839.484,1.52.14,1.519-.768a3.257,3.257,0,0,0-1.519-2.523l-28.316-16.349C180.6,185.883,179.915,186.226,179.915,187.135Z" transform="translate(-177.065 -174.639)" fill="#263238"/>
              <path id="Trazado_69497" data-name="Trazado 69497" d="M181.434,186.367l9.882,5.706v3.291l-9.882-5.706a3.256,3.256,0,0,1-1.519-2.523C179.915,186.226,180.6,185.883,181.434,186.367Z" transform="translate(-177.065 -174.639)" fill="#57cc98"/>
            </g>
            <g id="Grupo_29195" data-name="Grupo 29195" transform="translate(5.701 110.416)">
              <path id="Trazado_69498" data-name="Trazado 69498" d="M177.372,202.788l34.017,19.64a3.358,3.358,0,0,1,1.519,2.631v12.949c0,.969-.68,1.361-1.519.877l-34.016-19.64a3.361,3.361,0,0,1-1.519-2.631V203.665C175.853,202.7,176.533,202.3,177.372,202.788Z" transform="translate(-175.853 -202.581)" fill="#455a64"/>
              <path id="Trazado_69499" data-name="Trazado 69499" d="M179.915,210.587a3.257,3.257,0,0,0,1.519,2.523l28.316,16.349c.839.484,1.52.14,1.519-.768a3.257,3.257,0,0,0-1.519-2.523l-28.316-16.349C180.6,209.335,179.915,209.678,179.915,210.587Z" transform="translate(-177.065 -204.674)" fill="#57cc98"/>
              <path id="Trazado_69500" data-name="Trazado 69500" d="M179.915,219.968a3.258,3.258,0,0,0,1.519,2.523l28.316,16.348c.839.484,1.52.14,1.519-.768a3.257,3.257,0,0,0-1.519-2.523L181.434,219.2C180.6,218.716,179.915,219.059,179.915,219.968Z" transform="translate(-177.065 -207.472)" fill="#263238"/>
              <path id="Trazado_69501" data-name="Trazado 69501" d="M181.434,219.2l15.583,9v3.291l-15.584-9a3.258,3.258,0,0,1-1.519-2.523C179.915,219.059,180.6,218.716,181.434,219.2Z" transform="translate(-177.065 -207.472)" fill="#57cc98"/>
            </g>
            <g id="Grupo_29196" data-name="Grupo 29196" transform="translate(5.701 133.456)">
              <path id="Trazado_69502" data-name="Trazado 69502" d="M177.372,235.621l34.017,19.64a3.358,3.358,0,0,1,1.519,2.631v12.949c0,.969-.68,1.361-1.519.877l-34.016-19.64a3.36,3.36,0,0,1-1.519-2.631V236.5C175.853,235.53,176.533,235.137,177.372,235.621Z" transform="translate(-175.853 -235.414)" fill="#455a64"/>
              <path id="Trazado_69503" data-name="Trazado 69503" d="M179.915,243.42a3.258,3.258,0,0,0,1.519,2.523l28.316,16.348c.839.484,1.52.14,1.519-.768A3.257,3.257,0,0,0,209.75,259l-28.316-16.349C180.6,242.168,179.915,242.511,179.915,243.42Z" transform="translate(-177.065 -237.507)" fill="#57cc98"/>
              <path id="Trazado_69504" data-name="Trazado 69504" d="M179.915,252.8a3.258,3.258,0,0,0,1.519,2.523l28.316,16.348c.839.485,1.52.14,1.519-.768a3.257,3.257,0,0,0-1.519-2.523l-28.316-16.349C180.6,251.549,179.915,251.892,179.915,252.8Z" transform="translate(-177.065 -240.305)" fill="#263238"/>
              <path id="Trazado_69505" data-name="Trazado 69505" d="M181.434,252.033l21.284,12.288v3.291l-21.284-12.288a3.258,3.258,0,0,1-1.519-2.523C179.915,251.892,180.6,251.549,181.434,252.033Z" transform="translate(-177.065 -240.305)" fill="#57cc98"/>
            </g>
            <g id="Grupo_29197" data-name="Grupo 29197" transform="translate(52.732 42.734)">
              <path id="Trazado_69506" data-name="Trazado 69506" d="M245.727,134.64c1.574-.912,2.85-.081,2.85,1.856v75.274a6.532,6.532,0,0,1-2.85,5.161c-1.574.913-2.85.082-2.85-1.856V139.8A6.535,6.535,0,0,1,245.727,134.64Z" transform="translate(-242.876 -114.522)" fill="#37474f"/>
              <path id="Trazado_69507" data-name="Trazado 69507" d="M246.333,216.038a3.258,3.258,0,0,0,1.425-2.577V137.976c0-.968-.639-1.386-1.426-.931a3.26,3.26,0,0,0-1.425,2.577v75.484C244.908,216.075,245.546,216.492,246.333,216.038Z" transform="translate(-243.482 -115.295)" fill="#263238"/>
              <path id="Trazado_69508" data-name="Trazado 69508" d="M246.333,233.258a3.258,3.258,0,0,0,1.425-2.577V194.591l-2.851,1.646v36.09C244.908,233.295,245.546,233.712,246.333,233.258Z" transform="translate(-243.482 -132.515)" fill="#57cc98"/>
              <path id="Trazado_69509" data-name="Trazado 69509" d="M257.913,127.6c1.574-.913,2.85-.081,2.85,1.856v75.274a6.535,6.535,0,0,1-2.85,5.161c-1.575.913-2.85.081-2.851-1.856V132.766A6.532,6.532,0,0,1,257.913,127.6Z" transform="translate(-246.511 -112.423)" fill="#37474f"/>
              <path id="Trazado_69510" data-name="Trazado 69510" d="M258.52,209a3.26,3.26,0,0,0,1.425-2.577V130.941c0-.969-.639-1.386-1.425-.931a3.255,3.255,0,0,0-1.425,2.577v75.484C257.094,209.04,257.733,209.457,258.52,209Z" transform="translate(-247.117 -113.197)" fill="#57cc98"/>
              <path id="Trazado_69511" data-name="Trazado 69511" d="M270.1,120.569c1.575-.912,2.85-.081,2.85,1.857V197.7a6.536,6.536,0,0,1-2.85,5.161c-1.575.912-2.85.081-2.85-1.857V125.73A6.536,6.536,0,0,1,270.1,120.569Z" transform="translate(-250.146 -110.325)" fill="#37474f"/>
              <path id="Trazado_69512" data-name="Trazado 69512" d="M270.706,201.967a3.258,3.258,0,0,0,1.425-2.577V123.906c0-.969-.638-1.386-1.425-.932a3.258,3.258,0,0,0-1.425,2.577v75.484C269.281,202,269.919,202.422,270.706,201.967Z" transform="translate(-250.752 -111.098)" fill="#263238"/>
              <path id="Trazado_69513" data-name="Trazado 69513" d="M270.706,209.743a3.258,3.258,0,0,0,1.425-2.577V148.859l-2.85,1.646v58.307C269.281,209.781,269.919,210.2,270.706,209.743Z" transform="translate(-250.752 -118.874)" fill="#57cc98"/>
              <path id="Trazado_69514" data-name="Trazado 69514" d="M282.285,113.534c1.575-.912,2.851-.081,2.851,1.856v75.274a6.532,6.532,0,0,1-2.85,5.161c-1.574.913-2.85.082-2.85-1.856V118.695A6.536,6.536,0,0,1,282.285,113.534Z" transform="translate(-253.781 -108.226)" fill="#37474f"/>
              <path id="Trazado_69515" data-name="Trazado 69515" d="M282.892,194.932a3.258,3.258,0,0,0,1.425-2.577V116.87c0-.968-.639-1.386-1.426-.931a3.259,3.259,0,0,0-1.425,2.577V194C281.467,194.969,282.1,195.386,282.892,194.932Z" transform="translate(-254.387 -108.999)" fill="#263238"/>
              <path id="Trazado_69516" data-name="Trazado 69516" d="M282.892,222.077a3.258,3.258,0,0,0,1.425-2.577V206.76l-2.851,1.646v12.74C281.467,222.114,282.1,222.532,282.892,222.077Z" transform="translate(-254.387 -136.145)" fill="#57cc98"/>
              <path id="Trazado_69517" data-name="Trazado 69517" d="M294.472,106.5c1.574-.913,2.85-.081,2.85,1.856v75.274a6.534,6.534,0,0,1-2.85,5.161c-1.574.912-2.85.081-2.85-1.856V111.66A6.53,6.53,0,0,1,294.472,106.5Z" transform="translate(-257.416 -106.128)" fill="#37474f"/>
              <path id="Trazado_69518" data-name="Trazado 69518" d="M295.078,187.9a3.258,3.258,0,0,0,1.425-2.577V109.835c0-.969-.639-1.386-1.425-.931a3.254,3.254,0,0,0-1.425,2.577v75.484C293.653,187.934,294.292,188.351,295.078,187.9Z" transform="translate(-258.022 -106.901)" fill="#263238"/>
              <path id="Trazado_69519" data-name="Trazado 69519" d="M295.078,203.717a3.258,3.258,0,0,0,1.425-2.577V161.758l-2.851,1.645v39.382C293.653,203.754,294.291,204.171,295.078,203.717Z" transform="translate(-258.022 -122.721)" fill="#57cc98"/>
            </g>
            <g id="Grupo_29200" data-name="Grupo 29200" transform="translate(52.733 132.499)">
              <path id="Trazado_69520" data-name="Trazado 69520" d="M244.092,255.852l37.475-21.636c.672-.387,1.215-.074,1.215.7v13.65a2.685,2.685,0,0,1-1.215,2.105L244.092,272.31c-.671.387-1.215.073-1.215-.7v-13.65A2.688,2.688,0,0,1,244.092,255.852Z" transform="translate(-242.877 -234.051)" fill="#37474f"/>
              <g id="Grupo_29198" data-name="Grupo 29198" transform="translate(2.756 4.999)">
                <path id="Trazado_69521" data-name="Trazado 69521" d="M246.805,262.025c0,.909.681,1.253,1.519.768l31.355-18.108a3.255,3.255,0,0,0,1.519-2.522c0-.909-.68-1.253-1.519-.769L248.324,259.5A3.255,3.255,0,0,0,246.805,262.025Z" transform="translate(-246.805 -241.174)" fill="#263238"/>
                <path id="Trazado_69522" data-name="Trazado 69522" d="M246.805,264.217c0,.909.68,1.253,1.519.768l22.8-13.172v-3.291l-22.8,13.172A3.254,3.254,0,0,0,246.805,264.217Z" transform="translate(-246.805 -243.366)" fill="#57cc98"/>
              </g>
              <g id="Grupo_29199" data-name="Grupo 29199" transform="translate(2.756 11.582)">
                <path id="Trazado_69523" data-name="Trazado 69523" d="M246.805,271.406c0,.909.681,1.253,1.519.768l31.355-18.108a3.258,3.258,0,0,0,1.519-2.523c0-.909-.68-1.253-1.519-.768l-31.355,18.108A3.254,3.254,0,0,0,246.805,271.406Z" transform="translate(-246.805 -250.556)" fill="#263238"/>
                <path id="Trazado_69524" data-name="Trazado 69524" d="M246.805,277.1c0,.909.681,1.253,1.519.768l8.551-4.937v-3.291l-8.553,4.937A3.255,3.255,0,0,0,246.805,277.1Z" transform="translate(-246.805 -256.248)" fill="#57cc98"/>
              </g>
            </g>
            <path id="Trazado_69525" data-name="Trazado 69525" d="M263.5,71.814,218.083,45.592a3.355,3.355,0,0,0-3.038,0L169.626,71.814a.926.926,0,0,0,0,1.754l45.419,26.222a3.357,3.357,0,0,0,3.039,0L263.5,73.568A.926.926,0,0,0,263.5,71.814Z" transform="translate(-168.107 -45.229)" fill="url(#linear-gradient)"/>
          </g>
          <g id="Grupo_29202" data-name="Grupo 29202" transform="translate(11.401 3.224)">
            <path id="Trazado_69526" data-name="Trazado 69526" d="M220.12,94.871,184.889,74.529a2.013,2.013,0,0,1-.912-1.579V71.765a2.013,2.013,0,0,1,.912-1.579L220.12,49.844a2.016,2.016,0,0,1,1.823,0l35.232,20.341a2.016,2.016,0,0,1,.912,1.579V72.95a2.015,2.015,0,0,1-.912,1.579L221.944,94.871A2.017,2.017,0,0,1,220.12,94.871Z" transform="translate(-183.976 -49.627)" fill="#263238"/>
            <path id="Trazado_69527" data-name="Trazado 69527" d="M185.115,71.537l35.232,20.341a2.017,2.017,0,0,0,1.824,0L257.4,71.537a.556.556,0,0,0,0-1.053L222.17,50.845a2.016,2.016,0,0,0-1.823,0L185.115,70.484A.555.555,0,0,0,185.115,71.537Z" transform="translate(-184.203 -49.925)" fill="url(#linear-gradient)"/>
            <path id="Trazado_69528" data-name="Trazado 69528" d="M221.034,100.586v3.291a1.845,1.845,0,0,1-.912-.218L184.888,83.316a2,2,0,0,1-.912-1.579V80.552a2.026,2.026,0,0,1,.744-1.46c-.33.288-.274.681.168.933l35.233,20.343A1.845,1.845,0,0,0,221.034,100.586Z" transform="translate(-183.976 -58.416)" fill="#37474f"/>
          </g>
          <g id="Grupo_29205" data-name="Grupo 29205" transform="translate(22.803)">
            <path id="Trazado_69529" data-name="Trazado 69529" d="M224.967,83.626l-23.83-13.759a2.016,2.016,0,0,1-.912-1.579V67.1a2.015,2.015,0,0,1,.912-1.579L216.416,56.7a6.071,6.071,0,0,0,1.539-1.372l7.3-9.83a1.209,1.209,0,0,1,1.539-.319l23.831,13.758a2.016,2.016,0,0,1,.911,1.579v7.769a2.016,2.016,0,0,1-.912,1.579l-23.83,13.759A2.017,2.017,0,0,1,224.967,83.626Z" transform="translate(-200.225 -45.032)" fill="#263238"/>
            <path id="Trazado_69530" data-name="Trazado 69530" d="M227.017,80.335,242.3,71.513a5.218,5.218,0,0,0,.8-.592,5.457,5.457,0,0,0,.742-.779l7.3-9.83a.916.916,0,0,0-.284-1.371L227.018,45.183a1.209,1.209,0,0,0-1.539.319l-7.3,9.83a5.773,5.773,0,0,1-1.413,1.427l-15.405,8.766a.556.556,0,0,0,0,1.053l23.83,13.759A2.016,2.016,0,0,0,227.017,80.335Z" transform="translate(-200.452 -45.032)" fill="#455a64"/>
            <path id="Trazado_69531" data-name="Trazado 69531" d="M257.841,58.941,234.01,45.183a1.209,1.209,0,0,0-1.539.319l-7.3,9.83a5.387,5.387,0,0,1-.746.777s25.648,14.818,25.656,14.811a5.435,5.435,0,0,0,.744-.777l7.3-9.83A.916.916,0,0,0,257.841,58.941Z" transform="translate(-207.444 -45.032)" fill="#37474f"/>
            <g id="Grupo_29203" data-name="Grupo 29203" transform="translate(6.251 14.926)">
              <path id="Trazado_69532" data-name="Trazado 69532" d="M209.576,74.47a2.361,2.361,0,0,1,2.137,0,.651.651,0,0,1,0,1.234,2.361,2.361,0,0,1-2.137,0A.651.651,0,0,1,209.576,74.47Z" transform="translate(-209.133 -68.662)" fill="#27debf"/>
              <path id="Trazado_69533" data-name="Trazado 69533" d="M215.669,77.988a2.365,2.365,0,0,1,2.137,0,.652.652,0,0,1,0,1.234,2.361,2.361,0,0,1-2.137,0A.651.651,0,0,1,215.669,77.988Z" transform="translate(-210.951 -69.712)" fill="#27debf"/>
              <path id="Trazado_69534" data-name="Trazado 69534" d="M221.762,81.505a2.361,2.361,0,0,1,2.137,0,.652.652,0,0,1,0,1.234,2.361,2.361,0,0,1-2.137,0A.651.651,0,0,1,221.762,81.505Z" transform="translate(-212.768 -70.761)" fill="#263238"/>
              <path id="Trazado_69535" data-name="Trazado 69535" d="M227.854,85.023a2.362,2.362,0,0,1,2.138,0,.652.652,0,0,1,0,1.234,2.366,2.366,0,0,1-2.138,0A.652.652,0,0,1,227.854,85.023Z" transform="translate(-214.585 -71.81)" fill="#263238"/>
              <ellipse id="Elipse_3371" data-name="Elipse 3371" cx="1.512" cy="0.873" rx="1.512" ry="0.873" transform="translate(3.206 3.701)" fill="#27debf"/>
              <path id="Trazado_69536" data-name="Trazado 69536" d="M220.238,75.349a2.362,2.362,0,0,1,2.138,0,.652.652,0,0,1,0,1.234,2.362,2.362,0,0,1-2.138,0A.652.652,0,0,1,220.238,75.349Z" transform="translate(-212.314 -68.925)" fill="#263238"/>
              <ellipse id="Elipse_3372" data-name="Elipse 3372" cx="1.512" cy="0.873" rx="1.512" ry="0.873" transform="translate(11.757 8.637)" fill="#27debf"/>
              <path id="Trazado_69537" data-name="Trazado 69537" d="M232.424,82.385a2.365,2.365,0,0,1,2.137,0,.651.651,0,0,1,0,1.234,2.361,2.361,0,0,1-2.137,0A.652.652,0,0,1,232.424,82.385Z" transform="translate(-215.948 -71.023)" fill="#263238"/>
              <path id="Trazado_69538" data-name="Trazado 69538" d="M218.715,69.193a2.361,2.361,0,0,1,2.137,0,.651.651,0,0,1,0,1.234,2.365,2.365,0,0,1-2.137,0A.651.651,0,0,1,218.715,69.193Z" transform="translate(-211.859 -67.088)" fill="#263238"/>
              <path id="Trazado_69539" data-name="Trazado 69539" d="M224.808,72.711a2.365,2.365,0,0,1,2.137,0,.652.652,0,0,1,0,1.234,2.361,2.361,0,0,1-2.137,0A.651.651,0,0,1,224.808,72.711Z" transform="translate(-213.676 -68.138)" fill="#27debf"/>
              <path id="Trazado_69540" data-name="Trazado 69540" d="M230.9,76.228a2.362,2.362,0,0,1,2.138,0,.652.652,0,0,1,0,1.234,2.362,2.362,0,0,1-2.138,0A.652.652,0,0,1,230.9,76.228Z" transform="translate(-215.494 -69.187)" fill="#263238"/>
              <path id="Trazado_69541" data-name="Trazado 69541" d="M233.982,88.47a2.361,2.361,0,0,1,2.137,0,.652.652,0,0,1,0,1.234,2.361,2.361,0,0,1-2.137,0A.651.651,0,0,1,233.982,88.47Z" transform="translate(-216.413 -72.838)" fill="#27debf"/>
              <ellipse id="Elipse_3373" data-name="Elipse 3373" cx="1.512" cy="0.873" rx="1.512" ry="0.873" transform="translate(20.332 13.525)" fill="#263238"/>
              <path id="Trazado_69542" data-name="Trazado 69542" d="M236.993,79.749a2.362,2.362,0,0,1,2.138,0,.652.652,0,0,1,0,1.234,2.366,2.366,0,0,1-2.138,0A.652.652,0,0,1,236.993,79.749Z" transform="translate(-217.311 -70.237)" fill="#263238"/>
              <path id="Trazado_69543" data-name="Trazado 69543" d="M223.284,66.558a2.366,2.366,0,0,1,2.138,0,.652.652,0,0,1,0,1.234,2.362,2.362,0,0,1-2.138,0A.652.652,0,0,1,223.284,66.558Z" transform="translate(-213.222 -66.302)" fill="#27debf"/>
              <ellipse id="Elipse_3374" data-name="Elipse 3374" cx="1.512" cy="0.873" rx="1.512" ry="0.873" transform="translate(13.895 2.468)" fill="#263238"/>
              <path id="Trazado_69544" data-name="Trazado 69544" d="M235.47,73.593a2.362,2.362,0,0,1,2.138,0,.652.652,0,0,1,0,1.234,2.366,2.366,0,0,1-2.138,0A.652.652,0,0,1,235.47,73.593Z" transform="translate(-216.857 -68.401)" fill="#27debf"/>
              <ellipse id="Elipse_3375" data-name="Elipse 3375" cx="1.512" cy="0.873" rx="1.512" ry="0.873" transform="translate(22.446 7.405)" fill="#263238"/>
              <path id="Trazado_69545" data-name="Trazado 69545" d="M243.121,83.2a2.361,2.361,0,0,1,2.137,0,.652.652,0,0,1,0,1.234,2.361,2.361,0,0,1-2.137,0A.651.651,0,0,1,243.121,83.2Z" transform="translate(-219.139 -71.265)" fill="#27debf"/>
              <path id="Trazado_69546" data-name="Trazado 69546" d="M247.69,80.558a2.362,2.362,0,0,1,2.138,0,.652.652,0,0,1,0,1.234,2.366,2.366,0,0,1-2.138,0A.652.652,0,0,1,247.69,80.558Z" transform="translate(-220.502 -70.478)" fill="#263238"/>
            </g>
            <path id="Trazado_69547" data-name="Trazado 69547" d="M225.93,89.313V92.6a1.881,1.881,0,0,1-.961-.211l-23.83-13.761a2,2,0,0,1-.912-1.579V75.862a2.026,2.026,0,0,1,.744-1.46c-.33.288-.274.681.168.933L224.969,89.1A1.884,1.884,0,0,0,225.93,89.313Z" transform="translate(-200.225 -53.793)" fill="#37474f"/>
            <g id="Grupo_29204" data-name="Grupo 29204" transform="translate(20.752 2.643)">
              <path id="Trazado_69548" data-name="Trazado 69548" d="M229.927,58.978l.021-.028a.8.8,0,0,1,1.025-.213L251.711,70.71a.61.61,0,0,1,.188.914l-.021.029a.808.808,0,0,1-1.027.211l-20.733-11.97A.613.613,0,0,1,229.927,58.978Z" transform="translate(-229.798 -51.733)" fill="#263238"/>
              <path id="Trazado_69549" data-name="Trazado 69549" d="M229.927,58.978l.021-.028a.8.8,0,0,1,1.025-.213l15.417,8.9-.86,1.154-15.412-8.9A.613.613,0,0,1,229.927,58.978Z" transform="translate(-229.798 -51.733)" fill="#27debf"/>
              <path id="Trazado_69550" data-name="Trazado 69550" d="M232.37,55.7l.022-.028a.8.8,0,0,1,1.025-.214l20.738,11.974a.608.608,0,0,1,.188.913l-.021.029a.808.808,0,0,1-1.027.211l-20.733-11.97A.613.613,0,0,1,232.37,55.7Z" transform="translate(-230.527 -50.754)" fill="#263238"/>
              <path id="Trazado_69551" data-name="Trazado 69551" d="M232.37,55.7l.022-.028a.8.8,0,0,1,1.025-.214l5.155,2.975-.86,1.154-5.15-2.971A.613.613,0,0,1,232.37,55.7Z" transform="translate(-230.527 -50.754)" fill="#27debf"/>
              <path id="Trazado_69552" data-name="Trazado 69552" d="M234.814,52.42l.021-.028a.8.8,0,0,1,1.025-.213L256.6,64.152a.609.609,0,0,1,.189.913l-.022.029a.808.808,0,0,1-1.027.211L235,53.335A.613.613,0,0,1,234.814,52.42Z" transform="translate(-231.255 -49.776)" fill="#263238"/>
              <path id="Trazado_69553" data-name="Trazado 69553" d="M234.814,52.419l.021-.028a.806.806,0,0,1,1.025-.215l10.8,6.217-.86,1.154L235,53.334A.611.611,0,0,1,234.814,52.419Z" transform="translate(-231.255 -49.776)" fill="#27debf"/>
              <path id="Trazado_69554" data-name="Trazado 69554" d="M237.257,49.141l.021-.028A.8.8,0,0,1,238.3,48.9L259.04,60.872a.609.609,0,0,1,.189.913l-.022.029a.807.807,0,0,1-1.027.211l-20.733-11.97A.613.613,0,0,1,237.257,49.141Z" transform="translate(-231.984 -48.798)" fill="#263238"/>
              <path id="Trazado_69555" data-name="Trazado 69555" d="M237.257,49.141l.021-.028A.8.8,0,0,1,238.3,48.9l18.825,10.868-.86,1.154-18.82-10.865A.613.613,0,0,1,237.257,49.141Z" transform="translate(-231.984 -48.798)" fill="#27debf"/>
            </g>
          </g>
        </g>
        <g id="Server-2" data-name="Server" transform="translate(0 47.717)">
          <g id="Grupo_29206" data-name="Grupo 29206" transform="translate(85.503 131.905)">
            <path id="Trazado_69556" data-name="Trazado 69556" d="M183.977,316.838l7.032-4.059a3.368,3.368,0,0,1,3.038,0l41.769,24.115a1.546,1.546,0,0,0,2.318-1.339V301.008" transform="translate(-175.416 -301.008)" fill="none" stroke="#57cc98" stroke-miterlimit="10" stroke-width="1"/>
            <path id="Trazado_69557" data-name="Trazado 69557" d="M179.915,315.193l9.882-5.706a3.372,3.372,0,0,1,3.038,0l44.619,25.761a1.546,1.546,0,0,0,2.318-1.338v-32.9" transform="translate(-174.204 -301.008)" fill="none" stroke="#57cc98" stroke-miterlimit="10" stroke-width="1"/>
            <path id="Trazado_69558" data-name="Trazado 69558" d="M175.854,313.625l12.732-7.346a3.37,3.37,0,0,1,3.038,0l47.47,27.406a1.546,1.546,0,0,0,2.318-1.339V301.288" transform="translate(-172.993 -301.092)" fill="none" stroke="#57cc98" stroke-miterlimit="10" stroke-width="1"/>
            <path id="Trazado_69559" data-name="Trazado 69559" d="M171.777,311.985l15.593-9a3.372,3.372,0,0,1,3.038,0l50.32,29.052a1.546,1.546,0,0,0,2.318-1.339V301.288" transform="translate(-171.777 -301.092)" fill="none" stroke="#57cc98" stroke-miterlimit="10" stroke-width="1"/>
          </g>
          <g id="Grupo_29216" data-name="Grupo 29216" transform="translate(0 0.138)">
            <path id="Trazado_69560" data-name="Trazado 69560" d="M96.867,113.593,51.448,139.815a3.357,3.357,0,0,0-1.519,2.631V267.3a3.357,3.357,0,0,0,1.519,2.631l45.419,26.222a3.359,3.359,0,0,0,3.038,0l45.417-26.222a3.357,3.357,0,0,0,1.519-2.631V142.447a3.357,3.357,0,0,0-1.519-2.631L99.905,113.593A3.359,3.359,0,0,0,96.867,113.593Z" transform="translate(-49.929 -113.23)" fill="url(#linear-gradient)"/>
            <path id="Trazado_69561" data-name="Trazado 69561" d="M167.439,154.152V279.008a3.365,3.365,0,0,1-1.516,2.631L120.5,307.863a3.048,3.048,0,0,1-1.516.365V179.863a3.143,3.143,0,0,0,1.516-.365l45.422-26.223.414-.344.54-.449A3.15,3.15,0,0,1,167.439,154.152Z" transform="translate(-70.528 -124.938)" fill="url(#linear-gradient)"/>
            <g id="Grupo_29207" data-name="Grupo 29207" transform="translate(5.701 41.297)">
              <path id="Trazado_69562" data-name="Trazado 69562" d="M59.572,172.289l34.017,19.64a3.359,3.359,0,0,1,1.519,2.631v12.949c0,.969-.681,1.361-1.52.877l-34.016-19.64a3.358,3.358,0,0,1-1.52-2.631V173.166C58.053,172.2,58.733,171.8,59.572,172.289Z" transform="translate(-58.053 -172.082)" fill="#455a64"/>
              <path id="Trazado_69563" data-name="Trazado 69563" d="M62.115,180.088a3.258,3.258,0,0,0,1.519,2.523l28.316,16.348c.839.485,1.519.14,1.519-.768a3.259,3.259,0,0,0-1.519-2.523L63.634,179.32C62.795,178.836,62.115,179.179,62.115,180.088Z" transform="translate(-59.265 -174.175)" fill="#57cc98"/>
              <path id="Trazado_69564" data-name="Trazado 69564" d="M62.115,189.47a3.258,3.258,0,0,0,1.519,2.523L91.951,208.34c.839.484,1.519.14,1.519-.768a3.259,3.259,0,0,0-1.519-2.523L63.634,188.7C62.795,188.217,62.115,188.56,62.115,189.47Z" transform="translate(-59.265 -176.973)" fill="#263238"/>
              <path id="Trazado_69565" data-name="Trazado 69565" d="M63.634,188.7l15.584,9v3.291l-15.584-9a3.258,3.258,0,0,1-1.519-2.523C62.115,188.56,62.795,188.217,63.634,188.7Z" transform="translate(-59.265 -176.973)" fill="#57cc98"/>
            </g>
            <g id="Grupo_29208" data-name="Grupo 29208" transform="translate(5.701 64.337)">
              <path id="Trazado_69566" data-name="Trazado 69566" d="M59.572,205.122l34.017,19.64a3.359,3.359,0,0,1,1.519,2.631v12.949c0,.969-.681,1.361-1.52.877l-34.016-19.64a3.358,3.358,0,0,1-1.52-2.631V206C58.053,205.031,58.733,204.638,59.572,205.122Z" transform="translate(-58.053 -204.915)" fill="#455a64"/>
              <path id="Trazado_69567" data-name="Trazado 69567" d="M62.115,212.922a3.258,3.258,0,0,0,1.519,2.523l28.316,16.348c.839.485,1.519.14,1.519-.768a3.259,3.259,0,0,0-1.519-2.523L63.634,212.153C62.795,211.669,62.115,212.012,62.115,212.922Z" transform="translate(-59.265 -207.008)" fill="#57cc98"/>
              <path id="Trazado_69568" data-name="Trazado 69568" d="M62.115,222.3a3.258,3.258,0,0,0,1.519,2.523l28.316,16.348c.839.485,1.519.14,1.519-.768a3.259,3.259,0,0,0-1.519-2.523L63.634,221.534C62.795,221.05,62.115,221.393,62.115,222.3Z" transform="translate(-59.265 -209.806)" fill="#263238"/>
              <path id="Trazado_69569" data-name="Trazado 69569" d="M63.634,221.534l24.135,13.935v3.291L63.634,224.826a3.258,3.258,0,0,1-1.519-2.523C62.115,221.393,62.795,221.05,63.634,221.534Z" transform="translate(-59.265 -209.806)" fill="#57cc98"/>
            </g>
            <g id="Grupo_29209" data-name="Grupo 29209" transform="translate(5.701 87.376)">
              <path id="Trazado_69570" data-name="Trazado 69570" d="M59.572,237.955l34.017,19.64a3.359,3.359,0,0,1,1.519,2.631v12.949c0,.969-.681,1.362-1.52.877l-34.016-19.64a3.358,3.358,0,0,1-1.52-2.631V238.832C58.053,237.864,58.733,237.471,59.572,237.955Z" transform="translate(-58.053 -237.748)" fill="#455a64"/>
              <path id="Trazado_69571" data-name="Trazado 69571" d="M62.115,245.755a3.258,3.258,0,0,0,1.519,2.523l28.316,16.348c.839.485,1.519.14,1.519-.768a3.259,3.259,0,0,0-1.519-2.523L63.634,244.986C62.795,244.5,62.115,244.845,62.115,245.755Z" transform="translate(-59.265 -239.841)" fill="#57cc98"/>
              <path id="Trazado_69572" data-name="Trazado 69572" d="M62.115,255.136a3.257,3.257,0,0,0,1.519,2.523l28.316,16.348c.839.485,1.519.14,1.519-.768a3.259,3.259,0,0,0-1.519-2.523L63.634,254.368C62.795,253.883,62.115,254.227,62.115,255.136Z" transform="translate(-59.265 -242.639)" fill="#263238"/>
              <path id="Trazado_69573" data-name="Trazado 69573" d="M63.634,254.368l9.882,5.7v3.291l-9.883-5.7a3.257,3.257,0,0,1-1.519-2.523C62.115,254.227,62.795,253.883,63.634,254.368Z" transform="translate(-59.265 -242.639)" fill="#57cc98"/>
            </g>
            <g id="Grupo_29210" data-name="Grupo 29210" transform="translate(5.701 110.416)">
              <path id="Trazado_69574" data-name="Trazado 69574" d="M59.572,270.789l34.017,19.639a3.359,3.359,0,0,1,1.519,2.631v12.949c0,.969-.681,1.362-1.52.877l-34.016-19.64a3.358,3.358,0,0,1-1.52-2.631V271.666C58.053,270.7,58.733,270.3,59.572,270.789Z" transform="translate(-58.053 -270.581)" fill="#455a64"/>
              <path id="Trazado_69575" data-name="Trazado 69575" d="M62.115,278.588a3.257,3.257,0,0,0,1.519,2.523l28.316,16.348c.839.485,1.519.14,1.519-.768a3.259,3.259,0,0,0-1.519-2.523L63.634,277.82C62.795,277.335,62.115,277.678,62.115,278.588Z" transform="translate(-59.265 -272.675)" fill="#57cc98"/>
              <path id="Trazado_69576" data-name="Trazado 69576" d="M62.115,287.969a3.257,3.257,0,0,0,1.519,2.523L91.951,306.84c.839.484,1.519.14,1.519-.769a3.259,3.259,0,0,0-1.519-2.523L63.634,287.2C62.795,286.716,62.115,287.06,62.115,287.969Z" transform="translate(-59.265 -275.473)" fill="#263238"/>
              <path id="Trazado_69577" data-name="Trazado 69577" d="M63.634,287.2l15.584,9v3.291l-15.584-9a3.257,3.257,0,0,1-1.519-2.523C62.115,287.06,62.795,286.716,63.634,287.2Z" transform="translate(-59.265 -275.473)" fill="#57cc98"/>
            </g>
            <g id="Grupo_29211" data-name="Grupo 29211" transform="translate(5.701 133.455)">
              <path id="Trazado_69578" data-name="Trazado 69578" d="M59.572,303.622l34.017,19.64a3.357,3.357,0,0,1,1.519,2.631v12.948c0,.969-.681,1.362-1.52.877l-34.016-19.64a3.357,3.357,0,0,1-1.52-2.631V304.5C58.053,303.53,58.733,303.137,59.572,303.622Z" transform="translate(-58.053 -303.414)" fill="#455a64"/>
              <path id="Trazado_69579" data-name="Trazado 69579" d="M62.115,311.421a3.257,3.257,0,0,0,1.519,2.523l28.316,16.349c.839.484,1.519.14,1.519-.769A3.259,3.259,0,0,0,91.951,327L63.634,310.653C62.795,310.168,62.115,310.512,62.115,311.421Z" transform="translate(-59.265 -305.508)" fill="#57cc98"/>
              <path id="Trazado_69580" data-name="Trazado 69580" d="M62.115,320.8a3.257,3.257,0,0,0,1.519,2.523l28.316,16.349c.839.484,1.519.14,1.519-.769a3.259,3.259,0,0,0-1.519-2.523L63.634,320.034C62.795,319.549,62.115,319.893,62.115,320.8Z" transform="translate(-59.265 -308.306)" fill="#263238"/>
              <path id="Trazado_69581" data-name="Trazado 69581" d="M63.634,320.034l21.284,12.288v3.291L63.634,323.325a3.257,3.257,0,0,1-1.519-2.523C62.115,319.893,62.795,319.549,63.634,320.034Z" transform="translate(-59.265 -308.306)" fill="#57cc98"/>
            </g>
            <g id="Grupo_29212" data-name="Grupo 29212" transform="translate(52.733 42.734)">
              <path id="Trazado_69582" data-name="Trazado 69582" d="M127.927,202.64c1.574-.913,2.85-.082,2.85,1.856V279.77a6.536,6.536,0,0,1-2.85,5.161c-1.575.912-2.851.081-2.851-1.856V207.8A6.531,6.531,0,0,1,127.927,202.64Z" transform="translate(-125.077 -182.522)" fill="#37474f"/>
              <path id="Trazado_69583" data-name="Trazado 69583" d="M128.533,284.038a3.254,3.254,0,0,0,1.425-2.577V205.977c0-.969-.638-1.386-1.425-.932a3.258,3.258,0,0,0-1.425,2.577v75.484C127.108,284.076,127.747,284.493,128.533,284.038Z" transform="translate(-125.683 -183.295)" fill="#263238"/>
              <path id="Trazado_69584" data-name="Trazado 69584" d="M128.533,301.258a3.255,3.255,0,0,0,1.425-2.577v-36.09l-2.85,1.646v36.09C127.108,301.3,127.747,301.712,128.533,301.258Z" transform="translate(-125.683 -200.515)" fill="#57cc98"/>
              <path id="Trazado_69585" data-name="Trazado 69585" d="M140.113,195.6c1.575-.912,2.85-.081,2.85,1.856v75.274a6.534,6.534,0,0,1-2.85,5.161c-1.575.913-2.85.082-2.85-1.856V200.766A6.536,6.536,0,0,1,140.113,195.6Z" transform="translate(-128.712 -180.424)" fill="#37474f"/>
              <path id="Trazado_69586" data-name="Trazado 69586" d="M140.72,277a3.26,3.26,0,0,0,1.425-2.577V198.942c0-.969-.638-1.387-1.425-.932a3.258,3.258,0,0,0-1.425,2.577v75.484C139.295,277.04,139.933,277.457,140.72,277Z" transform="translate(-129.318 -181.197)" fill="#57cc98"/>
              <path id="Trazado_69587" data-name="Trazado 69587" d="M152.3,188.569c1.575-.913,2.851-.081,2.851,1.856V265.7a6.534,6.534,0,0,1-2.85,5.161c-1.574.913-2.85.081-2.85-1.856V193.731A6.534,6.534,0,0,1,152.3,188.569Z" transform="translate(-132.347 -178.325)" fill="#37474f"/>
              <path id="Trazado_69588" data-name="Trazado 69588" d="M152.906,269.968a3.258,3.258,0,0,0,1.425-2.577V191.906c0-.969-.638-1.386-1.425-.931a3.258,3.258,0,0,0-1.425,2.577v75.484C151.481,270,152.119,270.422,152.906,269.968Z" transform="translate(-132.953 -179.098)" fill="#263238"/>
              <path id="Trazado_69589" data-name="Trazado 69589" d="M152.906,277.743a3.258,3.258,0,0,0,1.425-2.577V216.859l-2.85,1.646v58.307C151.481,277.781,152.119,278.2,152.906,277.743Z" transform="translate(-132.953 -186.874)" fill="#57cc98"/>
              <path id="Trazado_69590" data-name="Trazado 69590" d="M164.486,181.534c1.574-.913,2.85-.082,2.85,1.856v75.274a6.534,6.534,0,0,1-2.85,5.161c-1.574.912-2.85.081-2.85-1.856V186.695A6.531,6.531,0,0,1,164.486,181.534Z" transform="translate(-135.982 -176.227)" fill="#37474f"/>
              <path id="Trazado_69591" data-name="Trazado 69591" d="M165.092,262.932a3.257,3.257,0,0,0,1.425-2.577V184.871c0-.969-.639-1.386-1.425-.932a3.258,3.258,0,0,0-1.426,2.577V262C163.667,262.97,164.305,263.387,165.092,262.932Z" transform="translate(-136.588 -177)" fill="#263238"/>
              <path id="Trazado_69592" data-name="Trazado 69592" d="M165.092,290.077a3.257,3.257,0,0,0,1.425-2.577V274.76l-2.851,1.646v12.74C163.667,290.115,164.305,290.532,165.092,290.077Z" transform="translate(-136.588 -204.145)" fill="#57cc98"/>
              <path id="Trazado_69593" data-name="Trazado 69593" d="M176.672,174.5c1.575-.912,2.85-.081,2.85,1.856v75.274a6.534,6.534,0,0,1-2.85,5.161c-1.575.913-2.85.082-2.85-1.856V179.66A6.534,6.534,0,0,1,176.672,174.5Z" transform="translate(-139.617 -174.128)" fill="#37474f"/>
              <path id="Trazado_69594" data-name="Trazado 69594" d="M177.279,255.9a3.26,3.26,0,0,0,1.425-2.577V177.835c0-.968-.638-1.386-1.425-.931a3.258,3.258,0,0,0-1.425,2.577v75.485C175.854,255.934,176.492,256.351,177.279,255.9Z" transform="translate(-140.223 -174.901)" fill="#263238"/>
              <path id="Trazado_69595" data-name="Trazado 69595" d="M177.279,271.717a3.26,3.26,0,0,0,1.425-2.577V229.758l-2.85,1.646v39.382C175.854,271.754,176.492,272.172,177.279,271.717Z" transform="translate(-140.223 -190.722)" fill="#57cc98"/>
            </g>
            <g id="Grupo_29215" data-name="Grupo 29215" transform="translate(52.733 132.499)">
              <path id="Trazado_69596" data-name="Trazado 69596" d="M126.293,323.853l37.475-21.637c.671-.387,1.215-.073,1.215.7v13.65a2.689,2.689,0,0,1-1.215,2.105L126.293,340.31c-.672.387-1.215.073-1.215-.7v-13.65A2.685,2.685,0,0,1,126.293,323.853Z" transform="translate(-125.078 -302.051)" fill="#37474f"/>
              <g id="Grupo_29213" data-name="Grupo 29213" transform="translate(2.756 4.999)">
                <path id="Trazado_69597" data-name="Trazado 69597" d="M129.005,330.026c0,.909.681,1.253,1.52.768l31.354-18.109a3.257,3.257,0,0,0,1.519-2.523c0-.909-.68-1.253-1.519-.768L130.524,327.5A3.257,3.257,0,0,0,129.005,330.026Z" transform="translate(-129.005 -309.175)" fill="#263238"/>
                <path id="Trazado_69598" data-name="Trazado 69598" d="M129.005,332.217c0,.909.681,1.253,1.519.768l22.8-13.172v-3.291l-22.8,13.172A3.255,3.255,0,0,0,129.005,332.217Z" transform="translate(-129.005 -311.366)" fill="#57cc98"/>
              </g>
              <g id="Grupo_29214" data-name="Grupo 29214" transform="translate(2.756 11.582)">
                <path id="Trazado_69599" data-name="Trazado 69599" d="M129.005,339.407c0,.909.681,1.253,1.52.768l31.354-18.108a3.257,3.257,0,0,0,1.519-2.523c0-.909-.68-1.253-1.519-.768l-31.356,18.108A3.255,3.255,0,0,0,129.005,339.407Z" transform="translate(-129.005 -318.556)" fill="#263238"/>
                <path id="Trazado_69600" data-name="Trazado 69600" d="M129.005,345.1c0,.909.681,1.253,1.52.768l8.551-4.938v-3.291l-8.553,4.938A3.255,3.255,0,0,0,129.005,345.1Z" transform="translate(-129.005 -324.248)" fill="#57cc98"/>
              </g>
            </g>
            <path id="Trazado_69601" data-name="Trazado 69601" d="M145.7,139.815l-45.418-26.222a3.361,3.361,0,0,0-3.039,0L51.826,139.815a.926.926,0,0,0,0,1.754l45.419,26.222a3.359,3.359,0,0,0,3.038,0L145.7,141.569A.926.926,0,0,0,145.7,139.815Z" transform="translate(-50.307 -113.23)" fill="url(#linear-gradient)"/>
          </g>
          <g id="Grupo_29217" data-name="Grupo 29217" transform="translate(11.401 3.224)">
            <path id="Trazado_69602" data-name="Trazado 69602" d="M102.321,162.871,67.089,142.53a2.016,2.016,0,0,1-.912-1.579v-1.187a2.014,2.014,0,0,1,.912-1.579l35.232-20.341a2.017,2.017,0,0,1,1.824,0l35.232,20.342a2.013,2.013,0,0,1,.912,1.579v1.186a2.014,2.014,0,0,1-.912,1.579l-35.232,20.341A2.016,2.016,0,0,1,102.321,162.871Z" transform="translate(-66.176 -117.627)" fill="#263238"/>
            <path id="Trazado_69603" data-name="Trazado 69603" d="M67.315,139.537l35.232,20.341a2.011,2.011,0,0,0,1.823,0L139.6,139.538a.555.555,0,0,0,0-1.053l-35.232-19.64a2.017,2.017,0,0,0-1.824,0L67.315,138.484A.555.555,0,0,0,67.315,139.537Z" transform="translate(-66.403 -117.925)" fill="url(#linear-gradient)"/>
            <path id="Trazado_69604" data-name="Trazado 69604" d="M103.234,168.586v3.291a1.846,1.846,0,0,1-.912-.218L67.088,151.316a2,2,0,0,1-.912-1.579v-1.186a2.026,2.026,0,0,1,.744-1.46c-.33.288-.274.681.168.933l35.233,20.343A1.847,1.847,0,0,0,103.234,168.586Z" transform="translate(-66.176 -126.416)" fill="#37474f"/>
          </g>
          <g id="Grupo_29220" data-name="Grupo 29220" transform="translate(22.803)">
            <path id="Trazado_69605" data-name="Trazado 69605" d="M107.168,151.627,83.337,137.868a2.015,2.015,0,0,1-.912-1.579V135.1a2.016,2.016,0,0,1,.912-1.579L98.616,124.7a6.055,6.055,0,0,0,1.539-1.371l7.3-9.83a1.21,1.21,0,0,1,1.539-.319l23.831,13.758a2.015,2.015,0,0,1,.912,1.579v7.769a2.015,2.015,0,0,1-.912,1.579l-23.83,13.759A2.011,2.011,0,0,1,107.168,151.627Z" transform="translate(-82.425 -113.032)" fill="#263238"/>
            <path id="Trazado_69606" data-name="Trazado 69606" d="M109.218,148.335l15.279-8.821a5.341,5.341,0,0,0,.8-.592,5.456,5.456,0,0,0,.742-.78l7.3-9.83a.916.916,0,0,0-.284-1.372l-23.831-13.758a1.21,1.21,0,0,0-1.539.319l-7.3,9.83a5.746,5.746,0,0,1-1.413,1.427l-15.405,8.766a.556.556,0,0,0,0,1.053l23.831,13.759A2.016,2.016,0,0,0,109.218,148.335Z" transform="translate(-82.652 -113.032)" fill="#455a64"/>
            <path id="Trazado_69607" data-name="Trazado 69607" d="M140.041,126.941,116.21,113.183a1.21,1.21,0,0,0-1.539.319l-7.3,9.83a5.384,5.384,0,0,1-.746.776s25.649,14.818,25.657,14.812a5.462,5.462,0,0,0,.743-.778l7.3-9.83A.917.917,0,0,0,140.041,126.941Z" transform="translate(-89.644 -113.032)" fill="#37474f"/>
            <g id="Grupo_29218" data-name="Grupo 29218" transform="translate(6.251 14.925)">
              <path id="Trazado_69608" data-name="Trazado 69608" d="M91.776,142.47a2.362,2.362,0,0,1,2.138,0,.652.652,0,0,1,0,1.234,2.362,2.362,0,0,1-2.138,0A.652.652,0,0,1,91.776,142.47Z" transform="translate(-91.333 -136.662)" fill="#57cc98"/>
              <path id="Trazado_69609" data-name="Trazado 69609" d="M97.869,145.988a2.361,2.361,0,0,1,2.137,0,.651.651,0,0,1,0,1.234,2.36,2.36,0,0,1-2.137,0A.651.651,0,0,1,97.869,145.988Z" transform="translate(-93.151 -137.712)" fill="#57cc98"/>
              <path id="Trazado_69610" data-name="Trazado 69610" d="M103.962,149.506a2.365,2.365,0,0,1,2.137,0,.651.651,0,0,1,0,1.234,2.361,2.361,0,0,1-2.137,0A.651.651,0,0,1,103.962,149.506Z" transform="translate(-94.968 -138.761)" fill="#263238"/>
              <path id="Trazado_69611" data-name="Trazado 69611" d="M110.055,153.023a2.361,2.361,0,0,1,2.137,0,.652.652,0,0,1,0,1.234,2.361,2.361,0,0,1-2.137,0A.651.651,0,0,1,110.055,153.023Z" transform="translate(-96.785 -139.81)" fill="#263238"/>
              <path id="Trazado_69612" data-name="Trazado 69612" d="M96.345,139.832a2.362,2.362,0,0,1,2.138,0,.651.651,0,0,1,0,1.234,2.362,2.362,0,0,1-2.138,0A.651.651,0,0,1,96.345,139.832Z" transform="translate(-92.696 -135.876)" fill="#57cc98"/>
              <ellipse id="Elipse_3376" data-name="Elipse 3376" cx="1.512" cy="0.873" rx="1.512" ry="0.873" transform="translate(7.482 6.169)" fill="#263238"/>
              <path id="Trazado_69613" data-name="Trazado 69613" d="M108.531,146.867a2.362,2.362,0,0,1,2.138,0,.652.652,0,0,1,0,1.234,2.362,2.362,0,0,1-2.138,0A.652.652,0,0,1,108.531,146.867Z" transform="translate(-96.331 -137.974)" fill="#57cc98"/>
              <ellipse id="Elipse_3377" data-name="Elipse 3377" cx="1.512" cy="0.873" rx="1.512" ry="0.873" transform="translate(16.033 11.106)" fill="#263238"/>
              <path id="Trazado_69614" data-name="Trazado 69614" d="M100.915,137.193a2.362,2.362,0,0,1,2.138,0,.652.652,0,0,1,0,1.234,2.362,2.362,0,0,1-2.138,0A.652.652,0,0,1,100.915,137.193Z" transform="translate(-94.059 -135.088)" fill="#263238"/>
              <path id="Trazado_69615" data-name="Trazado 69615" d="M107.008,140.711a2.362,2.362,0,0,1,2.138,0,.652.652,0,0,1,0,1.234,2.362,2.362,0,0,1-2.138,0A.652.652,0,0,1,107.008,140.711Z" transform="translate(-95.877 -136.138)" fill="#57cc98"/>
              <path id="Trazado_69616" data-name="Trazado 69616" d="M113.1,144.229a2.361,2.361,0,0,1,2.137,0,.651.651,0,0,1,0,1.234,2.361,2.361,0,0,1-2.137,0A.651.651,0,0,1,113.1,144.229Z" transform="translate(-97.694 -137.187)" fill="#263238"/>
              <path id="Trazado_69617" data-name="Trazado 69617" d="M116.182,156.471a2.365,2.365,0,0,1,2.137,0,.651.651,0,0,1,0,1.234,2.361,2.361,0,0,1-2.137,0A.652.652,0,0,1,116.182,156.471Z" transform="translate(-98.613 -140.839)" fill="#57cc98"/>
              <path id="Trazado_69618" data-name="Trazado 69618" d="M120.751,153.832a2.362,2.362,0,0,1,2.138,0,.652.652,0,0,1,0,1.234,2.362,2.362,0,0,1-2.138,0A.652.652,0,0,1,120.751,153.832Z" transform="translate(-99.976 -140.052)" fill="#263238"/>
              <path id="Trazado_69619" data-name="Trazado 69619" d="M119.194,147.749a2.361,2.361,0,0,1,2.137,0,.652.652,0,0,1,0,1.234,2.361,2.361,0,0,1-2.137,0A.651.651,0,0,1,119.194,147.749Z" transform="translate(-99.511 -138.237)" fill="#263238"/>
              <ellipse id="Elipse_3378" data-name="Elipse 3378" cx="1.512" cy="0.873" rx="1.512" ry="0.873" transform="translate(9.619)" fill="#57cc98"/>
              <path id="Trazado_69620" data-name="Trazado 69620" d="M111.577,138.076a2.366,2.366,0,0,1,2.138,0,.652.652,0,0,1,0,1.234,2.362,2.362,0,0,1-2.138,0A.652.652,0,0,1,111.577,138.076Z" transform="translate(-97.24 -135.352)" fill="#263238"/>
              <ellipse id="Elipse_3379" data-name="Elipse 3379" cx="1.512" cy="0.873" rx="1.512" ry="0.873" transform="translate(18.17 4.937)" fill="#57cc98"/>
              <path id="Trazado_69621" data-name="Trazado 69621" d="M123.763,145.111a2.362,2.362,0,0,1,2.138,0,.652.652,0,0,1,0,1.234,2.366,2.366,0,0,1-2.138,0A.652.652,0,0,1,123.763,145.111Z" transform="translate(-100.874 -137.45)" fill="#263238"/>
              <path id="Trazado_69622" data-name="Trazado 69622" d="M125.321,151.2a2.361,2.361,0,0,1,2.137,0,.651.651,0,0,1,0,1.234,2.361,2.361,0,0,1-2.137,0A.651.651,0,0,1,125.321,151.2Z" transform="translate(-101.339 -139.266)" fill="#57cc98"/>
              <ellipse id="Elipse_3380" data-name="Elipse 3380" cx="1.512" cy="0.873" rx="1.512" ry="0.873" transform="translate(26.745 9.824)" fill="#263238"/>
            </g>
            <path id="Trazado_69623" data-name="Trazado 69623" d="M108.13,157.313V160.6a1.884,1.884,0,0,1-.961-.211l-23.83-13.761a2,2,0,0,1-.912-1.579v-1.186a2.026,2.026,0,0,1,.744-1.46c-.33.288-.274.681.168.933l23.83,13.761A1.887,1.887,0,0,0,108.13,157.313Z" transform="translate(-82.425 -121.793)" fill="#37474f"/>
            <g id="Grupo_29219" data-name="Grupo 29219" transform="translate(20.752 2.643)">
              <path id="Trazado_69624" data-name="Trazado 69624" d="M112.127,126.979l.022-.029a.8.8,0,0,1,1.024-.213l20.738,11.973a.609.609,0,0,1,.188.914l-.021.029a.809.809,0,0,1-1.027.212l-20.733-11.971A.612.612,0,0,1,112.127,126.979Z" transform="translate(-111.998 -119.733)" fill="#263238"/>
              <path id="Trazado_69625" data-name="Trazado 69625" d="M112.127,126.979l.022-.029a.8.8,0,0,1,1.024-.213l15.418,8.9-.86,1.154-15.413-8.9A.612.612,0,0,1,112.127,126.979Z" transform="translate(-111.998 -119.733)" fill="#57cc98"/>
              <path id="Trazado_69626" data-name="Trazado 69626" d="M114.571,123.7l.021-.029a.8.8,0,0,1,1.025-.213l20.738,11.973a.609.609,0,0,1,.189.914l-.022.029a.808.808,0,0,1-1.027.212l-20.733-11.971A.612.612,0,0,1,114.571,123.7Z" transform="translate(-112.727 -118.755)" fill="#263238"/>
              <path id="Trazado_69627" data-name="Trazado 69627" d="M114.571,123.7l.021-.029a.8.8,0,0,1,1.025-.213l5.155,2.975-.86,1.154-5.149-2.972A.612.612,0,0,1,114.571,123.7Z" transform="translate(-112.727 -118.755)" fill="#57cc98"/>
              <path id="Trazado_69628" data-name="Trazado 69628" d="M117.014,120.421l.021-.029a.8.8,0,0,1,1.025-.213L138.8,132.152a.61.61,0,0,1,.188.914l-.022.029a.808.808,0,0,1-1.027.212L117.2,121.336A.612.612,0,0,1,117.014,120.421Z" transform="translate(-113.455 -117.777)" fill="#263238"/>
              <path id="Trazado_69629" data-name="Trazado 69629" d="M117.014,120.42l.021-.029a.805.805,0,0,1,1.025-.214l10.8,6.217L128,127.548l-10.8-6.214A.612.612,0,0,1,117.014,120.42Z" transform="translate(-113.456 -117.777)" fill="#57cc98"/>
              <path id="Trazado_69630" data-name="Trazado 69630" d="M119.457,117.142l.021-.029a.8.8,0,0,1,1.025-.213l20.739,11.973a.61.61,0,0,1,.188.914l-.022.029a.808.808,0,0,1-1.027.212l-20.732-11.971A.612.612,0,0,1,119.457,117.142Z" transform="translate(-114.184 -116.799)" fill="#263238"/>
              <path id="Trazado_69631" data-name="Trazado 69631" d="M119.457,117.142l.021-.029a.8.8,0,0,1,1.025-.213l18.825,10.868-.86,1.154-18.819-10.865A.612.612,0,0,1,119.457,117.142Z" transform="translate(-114.184 -116.799)" fill="#57cc98"/>
            </g>
          </g>
        </g>
      </g>
      <g id="Desk" transform="translate(141.378 111.405)">
        <g id="Desk-2" data-name="Desk" transform="translate(0 0)">
          <g id="Desk-3" data-name="Desk" transform="translate(0 25.705)">
            <g id="Grupo_29223" data-name="Grupo 29223" transform="translate(3.592 47.455)">
              <g id="Grupo_29221" data-name="Grupo 29221">
                <path id="Trazado_69632" data-name="Trazado 69632" d="M256.523,308.578v38.431a1.007,1.007,0,0,0,.456.789l36.837,21.242a1.009,1.009,0,0,0,.912,0l1.226-.708a1.008,1.008,0,0,0,.455-.789V329.112a.526.526,0,0,0-.526-.526l-38.834-20.534A.527.527,0,0,0,256.523,308.578Z" transform="translate(-256.523 -308.052)" fill="#fafafa"/>
              </g>
              <g id="Grupo_29222" data-name="Grupo 29222" transform="translate(37.749 20.534)">
                <path id="Trazado_69633" data-name="Trazado 69633" d="M311.93,337.314h-1.086a.526.526,0,0,0-.526.526v39.665c0,.29.2.408.456.263l1.226-.708a1.008,1.008,0,0,0,.455-.789V337.84A.526.526,0,0,0,311.93,337.314Z" transform="translate(-310.318 -337.314)" fill="#f5f5f5"/>
              </g>
            </g>
            <g id="Grupo_29226" data-name="Grupo 29226" transform="translate(76.953 3.418)">
              <g id="Grupo_29224" data-name="Grupo 29224">
                <path id="Trazado_69634" data-name="Trazado 69634" d="M361.068,245.822v38.431a1.006,1.006,0,0,0,.456.789l38.292,22.09a1.008,1.008,0,0,0,.911,0l1.226-.708a1.007,1.007,0,0,0,.456-.789V267.2a.526.526,0,0,0-.526-.526L361.594,245.3A.527.527,0,0,0,361.068,245.822Z" transform="translate(-361.068 -245.296)" fill="#e0e0e0"/>
              </g>
              <g id="Grupo_29225" data-name="Grupo 29225" transform="translate(39.203 21.381)">
                <path id="Trazado_69635" data-name="Trazado 69635" d="M418.548,275.766h-1.086a.527.527,0,0,0-.526.526v39.665c0,.29.2.408.456.263l1.226-.708a1.007,1.007,0,0,0,.456-.789V276.292A.527.527,0,0,0,418.548,275.766Z" transform="translate(-416.936 -275.766)" fill="#ebebeb"/>
              </g>
            </g>
            <g id="Grupo_29230" data-name="Grupo 29230">
              <g id="Grupo_29227" data-name="Grupo 29227">
                <path id="Trazado_69636" data-name="Trazado 69636" d="M251.4,287.2v-.363a2.015,2.015,0,0,1,.912-1.579l77.276-44.615a2.016,2.016,0,0,1,1.823,0l40.933,23.632a2.016,2.016,0,0,1,.912,1.579v.364a2.015,2.015,0,0,1-.912,1.579l-77.276,44.615a2.015,2.015,0,0,1-1.823,0l-40.933-23.633A2.015,2.015,0,0,1,251.4,287.2Z" transform="translate(-251.404 -240.426)" fill="#f5f5f5"/>
              </g>
              <g id="Grupo_29228" data-name="Grupo 29228" transform="translate(0.001 44.953)">
                <path id="Trazado_69637" data-name="Trazado 69637" d="M294.161,329.272v2.47a1.925,1.925,0,0,1-.912-.218L252.317,307.89a2.015,2.015,0,0,1-.912-1.579v-.365a2.014,2.014,0,0,1,.744-1.46c-.33.281-.274.674.168.933l40.931,23.634A1.847,1.847,0,0,0,294.161,329.272Z" transform="translate(-251.405 -304.487)" fill="#ebebeb"/>
              </g>
              <g id="Grupo_29229" data-name="Grupo 29229" transform="translate(0.534)">
                <path id="Trazado_69638" data-name="Trazado 69638" d="M252.543,286.311l40.933,23.632a2.016,2.016,0,0,0,1.823,0l77.276-44.615a.556.556,0,0,0,0-1.053l-40.933-23.632a2.016,2.016,0,0,0-1.823,0l-77.276,44.615A.556.556,0,0,0,252.543,286.311Z" transform="translate(-252.165 -240.426)" fill="#fafafa"/>
              </g>
              <path id="Trazado_69639" data-name="Trazado 69639" d="M346.587,276.536l23.142-13.387a1.656,1.656,0,0,1,1.5,0l7.327,4.279a.456.456,0,0,1,0,.865L355.412,281.68a1.657,1.657,0,0,1-1.5,0l-7.327-4.279A.456.456,0,0,1,346.587,276.536Z" transform="translate(-279.703 -247.15)" fill="#ebebeb"/>
              <path id="Trazado_69640" data-name="Trazado 69640" d="M344.958,264.434l-.021-.011L342.485,263a.37.37,0,0,1,0-.7l19.23-11.1a.37.37,0,0,0,0-.7l-.2-.113a1.344,1.344,0,0,0-1.215,0l-18.687,10.789c-.336.194-.647.211-.657.034a1.351,1.351,0,0,1,.02-.32l1.06-5.486a1.048,1.048,0,0,0-.476-1.037l-.192-.11a.47.47,0,0,0-.741.34l-1.222,6.37a2.132,2.132,0,0,0-.011.707,1.021,1.021,0,0,1-.417,1.025l-11.665,6.735a.37.37,0,0,0,0,.7l.2.114a1.339,1.339,0,0,0,1.215,0l11.147-6.437a2.664,2.664,0,0,1,.655-.317.356.356,0,0,0,.048.032l3.791,2.189a1.347,1.347,0,0,0,1.216,0c1.663-.956,6.27-3.61,7.932-4.567.336-.194.446-.442.246-.554a1.289,1.289,0,0,0-.994.1l-7.16,3.445A7.15,7.15,0,0,1,344.958,264.434Z" transform="translate(-273.972 -243.352)" fill="#ebebeb"/>
            </g>
          </g>
          <g id="Device" transform="translate(52.744)">
            <g id="Keyboard" transform="translate(14.048 39.752)">
              <path id="Trazado_69641" data-name="Trazado 69641" d="M371.221,260.623l6.932,4a1.406,1.406,0,0,1,0,2.487l-22.385,12.924a1.656,1.656,0,0,1-1.5,0l-6.932-4a1.406,1.406,0,0,1,0-2.486l22.385-12.924A1.652,1.652,0,0,1,371.221,260.623Z" transform="translate(-346.589 -260.443)" fill="#37474f"/>
              <path id="Trazado_69642" data-name="Trazado 69642" d="M355.019,285.608a1.53,1.53,0,0,1-.749-.179l-6.932-4a1.406,1.406,0,0,1,0-2.486l.72-.416h6.96Z" transform="translate(-346.589 -265.836)" fill="#263238"/>
              <path id="Trazado_69643" data-name="Trazado 69643" d="M347.518,273.546,369.9,260.623a1.656,1.656,0,0,1,1.5,0l6.932,4a.456.456,0,0,1,0,.865l-22.385,12.924a1.656,1.656,0,0,1-1.5,0l-6.932-4A.457.457,0,0,1,347.518,273.546Z" transform="translate(-346.774 -260.444)" fill="#455a64"/>
              <path id="Trazado_69644" data-name="Trazado 69644" d="M368.442,266.913l.7-.407c.03-.018.028-.046,0-.065l-.815-.471a.124.124,0,0,0-.112,0l-.705.407c-.029.017-.028.046,0,.065l.815.471A.125.125,0,0,0,368.442,266.913Zm-1.391-1.617-.705.407c-.029.017-.028.046,0,.065l.815.471a.126.126,0,0,0,.113,0l.7-.407c.03-.018.028-.046,0-.065l-.815-.471A.124.124,0,0,0,367.051,265.3Zm-2.277,1.314-1.193.689c-.03.017-.028.046,0,.065l.815.471a.124.124,0,0,0,.112,0l1.193-.688c.03-.018.028-.046,0-.065l-.815-.47A.124.124,0,0,0,364.774,266.61Zm1.247-.72-.705.407c-.029.018-.028.046,0,.065l.815.47a.126.126,0,0,0,.113,0l.7-.407c.03-.018.028-.046,0-.065l-.815-.47A.124.124,0,0,0,366.021,265.89Zm-2.765,1.6-.7.407c-.03.018-.028.046,0,.065l.815.47a.124.124,0,0,0,.112,0l.705-.407c.03-.018.028-.046,0-.065l-.815-.47A.124.124,0,0,0,363.255,267.487Zm-1.03.6-.7.407c-.03.017-.028.046,0,.065l.815.471a.124.124,0,0,0,.112,0l.705-.407c.029-.017.028-.046,0-.065l-.815-.471A.124.124,0,0,0,362.225,268.082ZM365.431,270l.7-.407c.03-.018.028-.046,0-.065l-.815-.47a.122.122,0,0,0-.112,0l-.705.406c-.029.017-.028.046,0,.065l.815.47A.124.124,0,0,0,365.431,270Zm-1.03.594.7-.407c.03-.017.028-.046,0-.065l-.815-.471a.124.124,0,0,0-.112,0l-.705.407c-.029.017-.028.046,0,.065l.815.471A.126.126,0,0,0,364.4,270.59Zm-1.03.6.7-.407c.03-.018.028-.046,0-.065l-.815-.47a.122.122,0,0,0-.112,0l-.705.406c-.029.018-.028.046,0,.065l.815.47A.124.124,0,0,0,363.371,271.185Zm-1.03.594.7-.407c.03-.017.028-.046,0-.065l-.815-.471a.124.124,0,0,0-.112,0l-.705.407c-.029.018-.028.046,0,.065l.815.47A.124.124,0,0,0,362.341,271.779Zm5.071-4.272.7-.406c.03-.018.028-.046,0-.065l-.815-.471a.126.126,0,0,0-.112,0l-.705.407c-.029.018-.028.046,0,.065l.815.47A.122.122,0,0,0,367.412,267.507Zm-.95,1.893,1.572-.907c.03-.018.029-.046,0-.065l-1.979-1.143a.127.127,0,0,0-.112,0l-.813.469c-.03.018-.028.046,0,.065l1.048.6c.032.018.034.048,0,.065l-.651.375c-.029.017-.028.046,0,.065l.815.471A.124.124,0,0,0,366.461,269.4Zm-5.266-.724-.7.407c-.03.018-.028.046,0,.065l.815.47a.124.124,0,0,0,.112,0l.705-.407c.03-.018.028-.046,0-.065l-.815-.47A.126.126,0,0,0,361.2,268.676Zm-1.03.6-.7.407c-.03.018-.028.046,0,.065l.815.471a.124.124,0,0,0,.112,0l.705-.407c.03-.017.028-.046,0-.065l-.815-.471A.124.124,0,0,0,360.165,269.271Zm-5.147,6.669a.124.124,0,0,0,.112,0l.7-.407c.03-.017.028-.046,0-.065l-.815-.471a.124.124,0,0,0-.112,0l-.705.407c-.029.018-.028.046,0,.065Zm-3.094-1.911-.7.407c-.03.018-.028.046,0,.065l.815.47a.125.125,0,0,0,.112,0l.705-.407c.029-.017.028-.046,0-.065l-.815-.47A.126.126,0,0,0,351.924,274.029Zm1.658,1.4a.124.124,0,0,0,.112,0l.705-.407c.029-.017.028-.046,0-.065l-.815-.471a.124.124,0,0,0-.112,0l-.7.407c-.03.018-.028.046,0,.065Zm3.255.877.7-.407c.03-.018.028-.046,0-.065l-.815-.471a.124.124,0,0,0-.112,0l-.705.407c-.029.017-.028.046,0,.065l.815.471A.126.126,0,0,0,356.837,276.3Zm-1.143.592a.126.126,0,0,0,.113,0l.7-.407c.03-.018.028-.046,0-.065l-.815-.47a.124.124,0,0,0-.112,0l-.705.407c-.029.018-.028.046,0,.065Zm-2.74-3.459-.7.407c-.03.017-.028.046,0,.065l.815.471a.124.124,0,0,0,.112,0l.705-.407c.03-.018.028-.046,0-.065l-.815-.471A.124.124,0,0,0,352.954,273.435Zm5.151-2.974-.7.407c-.03.018-.028.046,0,.065l.815.47a.122.122,0,0,0,.112,0l.705-.407c.029-.017.028-.046,0-.065l-.815-.471A.124.124,0,0,0,358.1,270.461Zm-4.121,2.379-.7.407c-.03.018-.028.046,0,.065l.815.47a.124.124,0,0,0,.112,0l.705-.407c.029-.018.028-.046,0-.065l-.815-.47A.126.126,0,0,0,353.984,272.839Zm5.151-2.974-.7.408c-.03.017-.028.046,0,.065l.815.471a.127.127,0,0,0,.112,0l.705-.407c.029-.018.028-.046,0-.065l-.815-.47A.126.126,0,0,0,359.135,269.866Zm-2.06,1.19-.7.407c-.03.017-.028.046,0,.065l.815.471a.124.124,0,0,0,.112,0l.705-.407c.029-.017.028-.046,0-.065l-.815-.471A.124.124,0,0,0,357.075,271.056Zm-1.03.594-.7.407c-.03.018-.028.046,0,.065l.815.471a.122.122,0,0,0,.112,0l.705-.406c.029-.017.028-.046,0-.065l-.815-.471A.128.128,0,0,0,356.044,271.65Zm-1.03.6-.7.407c-.03.017-.028.046,0,.065l.815.471a.124.124,0,0,0,.112,0l.705-.407c.03-.017.028-.046,0-.065l-.815-.47A.126.126,0,0,0,355.014,272.245Zm5.266.724.7-.407c.03-.018.028-.047,0-.065l-.815-.47a.125.125,0,0,0-.112,0l-.705.407c-.029.018-.028.046,0,.065l.815.47A.124.124,0,0,0,360.281,272.969Zm9.047-8.988-.705.407c-.03.018-.028.046,0,.065l.815.47a.122.122,0,0,0,.112,0l.7-.406c.03-.018.028-.046,0-.065l-.815-.471A.126.126,0,0,0,369.328,263.981Zm-1.247.72-.705.407c-.029.018-.028.046,0,.065l.815.47a.126.126,0,0,0,.113,0l.7-.407c.03-.017.028-.047,0-.065l-.815-.471A.126.126,0,0,0,368.081,264.7Zm2.277-1.314-.705.407c-.029.017-.028.046,0,.065l.815.471a.126.126,0,0,0,.113,0l.7-.407c.03-.018.028-.046,0-.065l-.815-.471A.124.124,0,0,0,370.358,263.387Zm-5.332,5.5.705-.407c.029-.017.028-.046,0-.065l-.815-.471a.126.126,0,0,0-.113,0l-.7.407c-.03.018-.028.046,0,.065l.815.471A.125.125,0,0,0,365.026,268.885Zm6.475-6.091a.124.124,0,0,0-.112,0l-.705.407c-.029.018-.028.046,0,.065l.815.47a.122.122,0,0,0,.112,0l.7-.407c.03-.017.028-.046,0-.065Zm-10.19,9.581.7-.407c.03-.018.028-.046,0-.065l-.815-.47a.124.124,0,0,0-.112,0l-.705.407c-.029.017-.028.046,0,.065l.815.471A.128.128,0,0,0,361.311,272.374Zm12.632-7.294.705-.407c.029-.017.028-.046,0-.065l-.815-.471a.124.124,0,0,0-.112,0l-.7.407c-.03.017-.028.046,0,.065l.815.471A.124.124,0,0,0,373.943,265.081ZM371.749,265l.7-.407c.03-.018.028-.046,0-.065l-.815-.47a.122.122,0,0,0-.112,0l-.7.406c-.03.018-.029.047,0,.065l.815.471A.126.126,0,0,0,371.749,265Zm.916-1.537a.124.124,0,0,0-.112,0l-.7.407c-.03.017-.029.046,0,.065l.815.471a.124.124,0,0,0,.112,0l.7-.407c.03-.017.028-.046,0-.065Zm.217-.125,1.98,1.142a.124.124,0,0,0,.112,0l.7-.407c.03-.018.029-.046,0-.065l-1.98-1.142a.122.122,0,0,0-.112,0l-.705.406C372.848,263.293,372.849,263.322,372.881,263.341Zm-2.389,1.312-.7.407c-.03.018-.029.046,0,.065l.815.47a.122.122,0,0,0,.112,0l.7-.406c.03-.018.029-.047,0-.065l-.815-.471A.127.127,0,0,0,370.492,264.653Zm-7.753,4.476-.7.407c-.03.018-.028.046,0,.065l.815.471a.122.122,0,0,0,.112,0l.705-.406c.029-.018.028-.047,0-.065l-.815-.471A.126.126,0,0,0,362.739,269.129Zm10.062-3.456a.126.126,0,0,0,.112,0l.705-.407c.029-.018.028-.046,0-.065l-.815-.47a.122.122,0,0,0-.112,0l-.7.407c-.03.017-.028.046,0,.065Zm-9.032,2.862-.7.406c-.03.018-.028.047,0,.065l.815.471a.126.126,0,0,0,.112,0l.705-.407c.029-.018.028-.046,0-.065l-.815-.47A.123.123,0,0,0,363.769,268.535Zm-7.722,6.81a.126.126,0,0,0,.113,0l.7-.407c.03-.018.028-.046,0-.065l-.815-.47a.124.124,0,0,0-.112,0l-.705.407c-.029.018-.028.046,0,.065Zm-1.549-1.458-.7.407c-.03.017-.028.046,0,.065l.815.471a.126.126,0,0,0,.112,0l.705-.407c.029-.018.028-.046,0-.065l-.815-.47A.124.124,0,0,0,354.5,273.888Zm2.692.865.7-.407c.03-.017.028-.046,0-.065l-.815-.471a.124.124,0,0,0-.112,0l-.705.407c-.029.017-.028.046,0,.065l.815.471A.124.124,0,0,0,357.19,274.753Zm1.03-.594.7-.407c.03-.018.028-.046,0-.065l-.815-.47a.125.125,0,0,0-.112,0l-.705.407c-.029.017-.028.046,0,.065l.815.47A.124.124,0,0,0,358.22,274.159Zm1.03-.6.7-.407c.03-.018.028-.046,0-.065l-.815-.471a.124.124,0,0,0-.112,0l-.705.407c-.029.017-.028.046,0,.065l.815.471A.126.126,0,0,0,359.251,273.564Zm-3.723-.271-.7.407c-.03.017-.028.046,0,.065l.815.471a.125.125,0,0,0,.112,0l.705-.407c.03-.017.028-.046,0-.065l-.815-.471A.125.125,0,0,0,355.528,273.293Zm1.03-.6-.7.407c-.03.018-.028.046,0,.065l.815.47a.124.124,0,0,0,.112,0l.705-.407c.029-.018.028-.046,0-.065l-.815-.47A.124.124,0,0,0,356.558,272.7Zm4.121-2.379-.7.407c-.03.017-.028.046,0,.065l.815.47a.122.122,0,0,0,.112,0l.705-.406c.029-.018.028-.046,0-.065l-.815-.47A.122.122,0,0,0,360.679,270.319Zm-1.03.6-.7.407c-.03.017-.028.046,0,.065l.815.471a.124.124,0,0,0,.112,0l.705-.407c.029-.018.028-.046,0-.065l-.815-.471A.126.126,0,0,0,359.648,270.914Zm2.06-1.189-.7.407c-.03.017-.028.046,0,.065l.815.471a.125.125,0,0,0,.112,0l.705-.407c.029-.017.028-.046,0-.065l-.815-.471A.126.126,0,0,0,361.709,269.725Zm-4.12,2.379-.7.407c-.03.017-.028.046,0,.065l.815.471a.124.124,0,0,0,.112,0l.705-.407c.029-.018.028-.046,0-.065l-.815-.471A.126.126,0,0,0,357.588,272.1Zm1.03-.6-.7.407c-.03.018-.028.046,0,.065l.815.47a.124.124,0,0,0,.112,0l.705-.407c.029-.018.028-.046,0-.065l-.815-.47A.124.124,0,0,0,358.618,271.508Zm-.752,4.2.705-.407c.03-.018.028-.046,0-.065l-.815-.47a.124.124,0,0,0-.112,0l-.705.407c-.03.018-.028.046,0,.065l.815.47A.124.124,0,0,0,357.866,275.707Zm-6.045-.611-.815-.471a.124.124,0,0,0-.112,0l-.7.407c-.03.017-.028.046,0,.065l.815.471a.124.124,0,0,0,.112,0l.705-.407C351.855,275.145,351.854,275.115,351.822,275.1Zm1.544.453-.815-.471a.123.123,0,0,0-.113,0l-1.084.626c-.03.017-.028.046,0,.065l.815.471a.124.124,0,0,0,.112,0l1.085-.626C353.4,275.6,353.4,275.568,353.365,275.55Zm-2.794-1.363-.815-.47a.123.123,0,0,0-.113,0l-.867.5c-.029.018-.028.046,0,.065l.815.47a.124.124,0,0,0,.112,0l.868-.5C350.6,274.234,350.6,274.206,350.571,274.187Zm.665-.384a.124.124,0,0,0,.112,0l.7-.407c.03-.018.029-.046,0-.065l-.815-.47a.124.124,0,0,0-.112,0l-.7.407c-.03.018-.028.046,0,.065Zm3.564,2.262-.815-.47a.122.122,0,0,0-.112,0l-1.356.782c-.029.017-.028.046,0,.065l.815.471a.124.124,0,0,0,.112,0l1.356-.782C354.835,276.113,354.833,276.084,354.8,276.065Zm.677.954-.815-.471a.124.124,0,0,0-.112,0l-.868.5c-.029.017-.028.046,0,.065l.815.471a.126.126,0,0,0,.113,0l.867-.5C355.511,277.067,355.509,277.038,355.477,277.02Zm3.419-7.638a.124.124,0,0,0,.112,0l.7-.407c.03-.018.028-.046,0-.065l-.815-.471a.122.122,0,0,0-.112,0l-.705.406c-.03.018-.028.046,0,.065Zm-2.06,1.189a.127.127,0,0,0,.112,0l.7-.407c.03-.018.028-.046,0-.065l-.815-.47a.122.122,0,0,0-.112,0l-.705.407c-.029.017-.028.046,0,.065Zm-4.569,2.638a.124.124,0,0,0,.112,0l.7-.407c.03-.018.029-.046,0-.065l-.815-.47a.122.122,0,0,0-.112,0l-.7.407c-.03.017-.029.046,0,.065Zm5.6-3.233a.124.124,0,0,0,.113,0l.7-.406c.03-.018.028-.047,0-.065l-.815-.471a.126.126,0,0,0-.112,0l-.705.407c-.03.017-.028.046,0,.065Zm-2.06,1.189a.124.124,0,0,0,.113,0l.7-.406c.03-.018.028-.046,0-.065l-.815-.47a.124.124,0,0,0-.112,0l-.705.407c-.029.017-.028.046,0,.065Zm.239,5.931a.124.124,0,0,0-.112,0l-1.084.627c-.03.017-.028.046,0,.065l.815.471a.124.124,0,0,0,.112,0l1.084-.626c.03-.018.028-.046,0-.065Zm-1.716-5.078a.124.124,0,0,0,.112,0l.7-.407c.03-.018.028-.046,0-.065l-.815-.47a.122.122,0,0,0-.112,0l-.7.406c-.03.018-.029.046,0,.065Zm-1.03.6a.125.125,0,0,0,.112,0l.7-.407c.03-.017.029-.046,0-.065l-.815-.471a.126.126,0,0,0-.112,0l-.7.407c-.03.018-.028.046,0,.065Zm21.831-6.536a.126.126,0,0,0-.113,0l-1.735,1c-.03.017-.028.046,0,.065l.815.471a.124.124,0,0,0,.112,0l1.735-1c.03-.018.028-.046,0-.065Zm-2.277,1.314a.124.124,0,0,0-.112,0l-.705.407c-.03.017-.028.046,0,.065l.815.471a.124.124,0,0,0,.112,0l.705-.407c.029-.017.028-.046,0-.065Zm-13.954,7.72.7-.407c.03-.018.028-.046,0-.065l-.815-.47a.124.124,0,0,0-.112,0l-.705.407c-.03.017-.028.046,0,.065l.815.471A.125.125,0,0,0,358.9,275.112Zm11.893-6.531a.126.126,0,0,0-.113,0l-.7.407c-.03.018-.028.046,0,.065l.815.47a.124.124,0,0,0,.112,0l.705-.407c.03-.017.028-.046,0-.065Zm5.367-3.1a.124.124,0,0,0-.112,0l-.705.407c-.029.017-.028.046,0,.065l.815.471a.124.124,0,0,0,.112,0l.705-.407c.029-.018.028-.046,0-.065Zm1.845-.124-1.979-1.142a.124.124,0,0,0-.112,0l-.7.407c-.03.018-.028.046,0,.065l1.979,1.142a.124.124,0,0,0,.112,0l.705-.407C378.037,265.406,378.035,265.377,378,265.358ZM366.941,270.8a.124.124,0,0,0-.112,0l-.867.5c-.03.017-.029.046,0,.065l.815.47a.124.124,0,0,0,.112,0l.867-.5c.03-.018.028-.047,0-.065Zm2.6-1.5a.126.126,0,0,0-.113,0l-1.084.626c-.03.018-.028.046,0,.065l.815.47a.126.126,0,0,0,.113,0l1.084-.627c.03-.017.028-.046,0-.065Zm-4.988,2.88a.126.126,0,0,0-.113,0l-5.8,3.349c-.03.018-.028.046,0,.065l.815.471a.122.122,0,0,0,.112,0l5.8-3.349c.029-.017.028-.046,0-.065Zm-6.127,3.537a.123.123,0,0,0-.113,0l-.867.5c-.03.018-.028.046,0,.065l.815.47a.125.125,0,0,0,.112,0l.868-.5c.029-.017.028-.046,0-.065Zm7.319-4.226a.122.122,0,0,0-.112,0l-.867.5c-.03.018-.028.046,0,.065l.815.47a.125.125,0,0,0,.112,0l.867-.5c.03-.018.028-.046,0-.065Zm-8.512,4.914a.124.124,0,0,0-.112,0l-.868.5c-.029.017-.028.046,0,.065l.815.471a.124.124,0,0,0,.112,0l.867-.5c.03-.017.028-.046,0-.065Zm10.9-6.292a.124.124,0,0,0-.112,0l-.868.5c-.03.017-.028.046,0,.065l.815.471a.126.126,0,0,0,.113,0l.867-.5c.03-.017.028-.046,0-.065Zm3.687-2.128a.124.124,0,0,0-.113,0l-.7.406c-.03.017-.028.046,0,.065l.815.47a.125.125,0,0,0,.112,0l.705-.407c.03-.018.028-.046,0-.065Zm2.257-1.639.705-.407c.029-.018.028-.046,0-.065l-.815-.47a.124.124,0,0,0-.113,0l-.7.406c-.03.018-.028.046,0,.065l.815.47A.125.125,0,0,0,374.077,266.348Zm-4.605-.03.7-.406c.03-.018.028-.047,0-.065l-.815-.47a.122.122,0,0,0-.112,0l-.7.407c-.03.018-.029.046,0,.065l.815.47A.122.122,0,0,0,369.472,266.318Zm-2.334,4.037,2.06-1.19c.029-.017.028-.046,0-.065l-.815-.471a.124.124,0,0,0-.112,0l-2.06,1.189c-.029.018-.028.046,0,.065l.815.47A.126.126,0,0,0,367.138,270.355Zm5.8-3.415a.124.124,0,0,0,.112,0l.705-.407c.03-.017.028-.046,0-.065l-.815-.471a.126.126,0,0,0-.113,0l-.7.407c-.03.018-.028.046,0,.065Zm-1.052-.67.705-.407c.03-.017.028-.046,0-.065l-.815-.471a.124.124,0,0,0-.112,0l-.7.407c-.03.018-.029.046,0,.065l.815.471A.122.122,0,0,0,371.883,266.27Zm-5.775,4.679.7-.407c.03-.018.028-.046,0-.065l-.815-.471a.124.124,0,0,0-.112,0l-.705.407c-.03.017-.028.046,0,.065l.815.471A.126.126,0,0,0,366.108,270.949Zm4.55-2.694a.124.124,0,0,0,.112,0l.705-.407c.029-.018.028-.046,0-.065l-.815-.47a.123.123,0,0,0-.113,0l-.7.406c-.03.018-.028.047,0,.065Zm-9.7,5.668.7-.407c.03-.018.028-.046,0-.065l-.815-.471a.122.122,0,0,0-.112,0l-.705.407c-.03.017-.028.046,0,.065l.815.471A.126.126,0,0,0,360.957,273.923Zm1.03-.6.7-.407c.03-.017.028-.046,0-.065l-.815-.471a.124.124,0,0,0-.112,0l-.705.407c-.029.017-.028.046,0,.065l.815.471A.125.125,0,0,0,361.987,273.328Zm-2.06,1.189.7-.407c.03-.017.028-.046,0-.065l-.815-.471a.126.126,0,0,0-.112,0l-.705.407c-.029.018-.028.046,0,.065l.815.47A.125.125,0,0,0,359.927,274.517Zm4.12-2.379.7-.407c.03-.017.028-.046,0-.065l-.815-.471a.124.124,0,0,0-.112,0l-.705.407c-.029.017-.028.046,0,.065l.815.471A.126.126,0,0,0,364.047,272.138Zm-1.031.6.705-.407c.03-.018.028-.046,0-.065l-.815-.47a.122.122,0,0,0-.112,0l-.705.406c-.029.018-.028.047,0,.065l.815.471A.127.127,0,0,0,363.017,272.734Zm2.06-1.189.705-.407c.03-.018.028-.046,0-.065l-.815-.47a.124.124,0,0,0-.112,0l-.705.407c-.029.018-.028.046,0,.065l.815.47A.124.124,0,0,0,365.077,271.544Zm4.713-8.8a.124.124,0,0,0,.112,0l.7-.407c.03-.018.028-.046,0-.065l-.218-.125a.122.122,0,0,0-.112,0l-.7.407c-.03.017-.028.046,0,.064Zm-5.068,3.272a.124.124,0,0,0,.112,0l.7-.407c.03-.018.028-.046,0-.065l-.815-.471a.124.124,0,0,0-.112,0l-.7.407c-.03.017-.029.046,0,.065Zm2.06-1.189a.127.127,0,0,0,.112,0l.7-.407c.03-.018.028-.046,0-.065l-.815-.47a.122.122,0,0,0-.112,0l-.7.407c-.03.017-.029.046,0,.065Zm-3.318,1.916a.124.124,0,0,0,.112,0l.705-.407c.03-.017.028-.046,0-.065l-.815-.47a.122.122,0,0,0-.112,0l-.705.406c-.03.018-.028.047,0,.065Zm2.288-1.321a.122.122,0,0,0,.112,0l.7-.406c.03-.018.029-.047,0-.065l-.815-.47a.122.122,0,0,0-.112,0l-.7.407c-.03.018-.029.046,0,.065Zm-4.349,2.511a.124.124,0,0,0,.112,0l.705-.407c.03-.018.028-.046,0-.065l-.815-.47a.124.124,0,0,0-.112,0l-.705.407c-.03.017-.028.046,0,.065Zm1.03-.6a.122.122,0,0,0,.112,0l.705-.406c.03-.018.028-.047,0-.065l-.815-.471a.126.126,0,0,0-.112,0l-.705.407c-.03.018-.028.046,0,.065Zm5.3-3.4a.126.126,0,0,0,.112,0l.7-.407c.03-.018.028-.046,0-.065l-.218-.125a.122.122,0,0,0-.112,0l-.7.407c-.03.017-.028.046,0,.065Zm3.09-1.784a.124.124,0,0,0,.112,0l.7-.407c.03-.017.028-.046,0-.065l-.218-.126a.124.124,0,0,0-.112,0l-.7.407c-.03.017-.028.046,0,.065Zm1.711.989a.128.128,0,0,0,.113,0l.7-.407c.03-.018.028-.046,0-.065l-.815-.47a.122.122,0,0,0-.112,0l-.705.407c-.029.017-.028.046,0,.065Zm2.575,2.613.705-.407c.029-.017.028-.046,0-.065l-.815-.471a.126.126,0,0,0-.113,0l-.7.407c-.03.017-.028.046,0,.065l.815.471A.124.124,0,0,0,375.107,265.753Zm-6.347-2.413a.124.124,0,0,0,.112,0l.7-.407c.03-.017.028-.046,0-.065l-.218-.126a.124.124,0,0,0-.112,0l-.7.407c-.03.018-.028.046,0,.064Zm-8.387,5.187a.124.124,0,0,0,.112,0l.705-.407c.03-.018.028-.046,0-.065l-.815-.47a.126.126,0,0,0-.113,0l-.7.407c-.03.018-.028.046,0,.065Z" transform="translate(-347.235 -260.771)" fill="#57cc98"/>
            </g>
            <g id="Computer">
              <g id="Grupo_29231" data-name="Grupo 29231" transform="translate(12.655 30.576)">
                <path id="Trazado_69645" data-name="Trazado 69645" d="M359.307,257.913l-8.422,4.864-.042-.022-3.179-1.839a1.727,1.727,0,0,1-.779-1.7l1.193-6.175,7.017-5.677,1.4.814-1.186,6.175a1.722,1.722,0,0,0,.772,1.7Z" transform="translate(-345.277 -247.367)" fill="#455a64"/>
                <path id="Trazado_69646" data-name="Trazado 69646" d="M350.211,264.848v1.62l-4.4-2.54a2.587,2.587,0,0,1-1.172-2.561l1.354-7.059,1.411.807-1.193,6.175a1.727,1.727,0,0,0,.779,1.7l3.179,1.838Z" transform="translate(-344.604 -249.437)" fill="#263238"/>
                <path id="Trazado_69647" data-name="Trazado 69647" d="M361.017,262.4,352.6,267.26v1.624l8.423-4.867Z" transform="translate(-346.987 -251.85)" fill="#37474f"/>
              </g>
              <g id="Grupo_29232" data-name="Grupo 29232">
                <path id="Trazado_69648" data-name="Trazado 69648" d="M360.989,203.954a1.608,1.608,0,0,1,.7,1.27v25.848a1.653,1.653,0,0,1-.749,1.3l-32.219,18.6a1.407,1.407,0,0,1-2.154-1.243V223.88a1.657,1.657,0,0,1,.749-1.3l32.219-18.6A1.608,1.608,0,0,1,360.989,203.954Z" transform="translate(-326.569 -203.793)" fill="#455a64"/>
                <path id="Trazado_69649" data-name="Trazado 69649" d="M328.723,259.2a1.407,1.407,0,0,1-2.154-1.243V232.1a1.532,1.532,0,0,1,.22-.738l25.068,14.473Z" transform="translate(-326.569 -212.018)" fill="#263238"/>
                <path id="Trazado_69650" data-name="Trazado 69650" d="M362.288,231.453V205.6c0-.477-.335-.671-.749-.432l-32.219,18.6a1.655,1.655,0,0,0-.749,1.3V250.92c0,.478.335.672.749.432l32.219-18.6A1.653,1.653,0,0,0,362.288,231.453Z" transform="translate(-327.166 -204.174)" fill="#37474f"/>
                <path id="Trazado_69651" data-name="Trazado 69651" d="M360.752,207.239l-30.581,17.65a1.324,1.324,0,0,0-.6,1.038v22.95c0,.382.268.537.6.346l30.581-17.65a1.325,1.325,0,0,0,.6-1.037v-22.95C361.351,207.2,361.083,207.048,360.752,207.239Z" transform="translate(-327.465 -204.797)" fill="#fff"/>
              </g>
            </g>
          </g>
          <g id="Box" transform="translate(24.224 54.09)">
            <path id="Trazado_69652" data-name="Trazado 69652" d="M304.981,312.951l-18.137-10.464a2.012,2.012,0,0,1-.912-1.578l0-11.062a2.015,2.015,0,0,1,.912-1.578l12.432-7.175a2.015,2.015,0,0,1,1.823,0l18.125,10.465a2.015,2.015,0,0,1,.912,1.579l.006,11.06a2.011,2.011,0,0,1-.911,1.579L306.8,312.951A2.016,2.016,0,0,1,304.981,312.951Z" transform="translate(-285.926 -280.875)" fill="#263238"/>
            <path id="Trazado_69653" data-name="Trazado 69653" d="M307.025,299.786l12.424-7.176a.556.556,0,0,0,0-1.053l-18.125-10.465a2.015,2.015,0,0,0-1.823,0l-12.432,7.175a.555.555,0,0,0,0,1.052L305.2,299.786A2.014,2.014,0,0,0,307.025,299.786Z" transform="translate(-286.154 -280.875)" fill="#455a64"/>
            <path id="Trazado_69654" data-name="Trazado 69654" d="M305.889,303.223v13.164a1.925,1.925,0,0,1-.912-.218l-18.132-10.463a2.016,2.016,0,0,1-.912-1.579l-.007-11.066a2.041,2.041,0,0,1,.693-1.4c-.256.283-.187.638.219.872l18.139,10.47A1.9,1.9,0,0,0,305.889,303.223Z" transform="translate(-285.925 -284.094)" fill="#37474f"/>
            <g id="Grupo_29234" data-name="Grupo 29234" transform="translate(5.218 2.696)">
              <path id="Trazado_69655" data-name="Trazado 69655" d="M293.6,292.3a1.308,1.308,0,0,1,1.2,0l13.037,7.527c.335.194.344.506.018.7a1.314,1.314,0,0,1-1.2,0L293.618,293C293.282,292.807,293.274,292.495,293.6,292.3Z" transform="translate(-293.361 -286.938)" fill="#37474f"/>
              <path id="Trazado_69656" data-name="Trazado 69656" d="M293.6,292.3a1.31,1.31,0,0,1,1.2,0l7.937,4.583-1.18.695L293.618,293C293.282,292.807,293.274,292.495,293.6,292.3Z" transform="translate(-293.361 -286.938)" fill="#57cc98"/>
              <path id="Trazado_69657" data-name="Trazado 69657" d="M296.822,290.442a1.312,1.312,0,0,1,1.2,0l13.037,7.527c.335.194.344.507.018.7a1.312,1.312,0,0,1-1.2,0l-13.036-7.527C296.5,290.947,296.5,290.634,296.822,290.442Z" transform="translate(-294.322 -286.383)" fill="#37474f"/>
              <path id="Trazado_69658" data-name="Trazado 69658" d="M296.822,290.442a1.314,1.314,0,0,1,1.2,0l1.064.612-1.18.695-1.063-.612C296.5,290.946,296.5,290.634,296.822,290.442Z" transform="translate(-294.322 -286.383)" fill="#57cc98"/>
              <path id="Trazado_69659" data-name="Trazado 69659" d="M300.043,288.582a1.312,1.312,0,0,1,1.2,0l13.037,7.527c.335.194.344.506.018.7a1.314,1.314,0,0,1-1.2,0l-13.036-7.527C299.726,289.086,299.718,288.774,300.043,288.582Z" transform="translate(-295.283 -285.828)" fill="#37474f"/>
              <path id="Trazado_69660" data-name="Trazado 69660" d="M300.043,288.582a1.312,1.312,0,0,1,1.2,0l4.61,2.661-1.179.695-4.61-2.662C299.726,289.086,299.718,288.774,300.043,288.582Z" transform="translate(-295.283 -285.828)" fill="#57cc98"/>
              <g id="Grupo_29233" data-name="Grupo 29233" transform="translate(6.784)">
                <path id="Trazado_69661" data-name="Trazado 69661" d="M303.267,286.721a1.312,1.312,0,0,1,1.2,0l13.036,7.527c.335.194.344.507.018.7a1.312,1.312,0,0,1-1.2,0l-13.036-7.527C302.95,287.226,302.942,286.913,303.267,286.721Z" transform="translate(-303.028 -285.273)" fill="#37474f"/>
                <path id="Trazado_69662" data-name="Trazado 69662" d="M303.267,286.721a1.312,1.312,0,0,1,1.2,0l9.336,5.39-1.18.695-9.336-5.39C302.95,287.226,302.942,286.913,303.267,286.721Z" transform="translate(-303.028 -285.273)" fill="#57cc98"/>
                <path id="Trazado_69663" data-name="Trazado 69663" d="M306.489,284.86a1.312,1.312,0,0,1,1.2,0l13.037,7.527c.335.194.344.506.018.7a1.312,1.312,0,0,1-1.2,0l-13.036-7.527C306.172,285.365,306.164,285.053,306.489,284.86Z" transform="translate(-303.989 -284.718)" fill="#37474f"/>
                <path id="Trazado_69664" data-name="Trazado 69664" d="M306.489,284.86a1.314,1.314,0,0,1,1.2,0l11.743,6.776-1.18.695-11.742-6.776C306.171,285.365,306.164,285.053,306.489,284.86Z" transform="translate(-303.989 -284.718)" fill="#57cc98"/>
              </g>
            </g>
            <g id="Grupo_29237" data-name="Grupo 29237" transform="translate(21.386 23.402)">
              <g id="Grupo_29235" data-name="Grupo 29235" transform="translate(0 1.291)">
                <path id="Trazado_69665" data-name="Trazado 69665" d="M316.4,319.848v-2.241a1.826,1.826,0,0,1,.713-1.464c.394-.227.712.06.712.641v2.241a1.824,1.824,0,0,1-.712,1.464C316.72,320.716,316.4,320.429,316.4,319.848Z" transform="translate(-316.401 -316.065)" fill="#37474f"/>
                <path id="Trazado_69666" data-name="Trazado 69666" d="M317.265,316.629a1.043,1.043,0,0,0-.473.818c0,.3.212.423.472.272a1.043,1.043,0,0,0,.473-.818C317.737,316.6,317.525,316.478,317.265,316.629Z" transform="translate(-316.518 -316.213)" fill="#57cc98"/>
              </g>
              <g id="Grupo_29236" data-name="Grupo 29236" transform="translate(2.25)">
                <path id="Trazado_69667" data-name="Trazado 69667" d="M319.607,318.008v-2.241a1.827,1.827,0,0,1,.712-1.464c.394-.227.713.06.713.641v2.241a1.825,1.825,0,0,1-.713,1.464C319.926,318.877,319.607,318.59,319.607,318.008Z" transform="translate(-319.607 -314.225)" fill="#37474f"/>
                <path id="Trazado_69668" data-name="Trazado 69668" d="M320.421,318.468a1.046,1.046,0,0,0-.472.818c0,.3.212.423.472.273a1.044,1.044,0,0,0,.472-.818C320.894,318.44,320.682,318.318,320.421,318.468Z" transform="translate(-319.709 -315.471)" fill="#57cc98"/>
              </g>
            </g>
          </g>
        </g>
      </g>
      <g id="Character" transform="translate(200.803 143.629)">
        <g id="Grupo_29277" data-name="Grupo 29277" transform="translate(0 0)">
          <g id="Legs" transform="translate(0 48.058)">
            <g id="Grupo_29241" data-name="Grupo 29241" transform="translate(11.669)">
              <g id="Grupo_29238" data-name="Grupo 29238" transform="translate(0 25.799)">
                <path id="Trazado_69669" data-name="Trazado 69669" d="M371.493,357.847a9.569,9.569,0,0,1,.586,2.278,5.065,5.065,0,0,1,.181,2.505,4.99,4.99,0,0,1-2.829,2.212,6.335,6.335,0,0,1-4.989-.966c-1.737-1.038-3.048-2.3-5.521-3a12.566,12.566,0,0,1-4.882-2.215c-1.372-1.1-2.256-2.75.367-3.454,2.645-.71,7.384.388,12.573.613Z" transform="translate(-352.718 -354.967)" fill="#263238"/>
              </g>
              <g id="Grupo_29239" data-name="Grupo 29239" transform="translate(13.084 25.435)">
                <path id="Trazado_69670" data-name="Trazado 69670" d="M377.055,354.448v3.888s-.534,1.293-2.751,1.375a3.348,3.348,0,0,1-2.941-1.408v-3.855Z" transform="translate(-371.363 -354.448)" fill="#ffa8a7"/>
              </g>
              <g id="Grupo_29240" data-name="Grupo 29240" transform="translate(11.349)">
                <path id="Trazado_69671" data-name="Trazado 69671" d="M368.892,318.2c-.027,4.837,1.358,27.139,1.358,27.139s1.977,2.5,6.274,0l1.458-24.747Z" transform="translate(-368.892 -318.201)" fill="#37474f"/>
              </g>
            </g>
            <g id="Grupo_29245" data-name="Grupo 29245" transform="translate(0 7.602)">
              <g id="Grupo_29242" data-name="Grupo 29242" transform="translate(0 25.799)">
                <path id="Trazado_69672" data-name="Trazado 69672" d="M354.864,368.681a9.571,9.571,0,0,1,.586,2.278,5.056,5.056,0,0,1,.181,2.505,4.984,4.984,0,0,1-2.829,2.211,6.335,6.335,0,0,1-4.989-.965c-1.737-1.039-3.048-2.3-5.52-3a12.569,12.569,0,0,1-4.882-2.216c-1.372-1.1-2.256-2.749.368-3.453,2.645-.71,7.383.387,12.573.613Z" transform="translate(-336.089 -365.801)" fill="#263238"/>
              </g>
              <g id="Grupo_29243" data-name="Grupo 29243" transform="translate(13.084 25.434)">
                <path id="Trazado_69673" data-name="Trazado 69673" d="M360.426,365.281v3.888s-.534,1.293-2.751,1.375a3.349,3.349,0,0,1-2.941-1.408v-3.854Z" transform="translate(-354.734 -365.281)" fill="#ffa8a7"/>
              </g>
              <g id="Grupo_29244" data-name="Grupo 29244" transform="translate(11.35)">
                <path id="Trazado_69674" data-name="Trazado 69674" d="M352.264,329.035c-.028,4.836,1.358,27.138,1.358,27.138s1.977,2.5,6.274,0l1.458-24.747Z" transform="translate(-352.263 -329.035)" fill="#37474f"/>
              </g>
            </g>
          </g>
          <g id="Chair" transform="translate(18.152 48.148)">
            <g id="Grupo_29259" data-name="Grupo 29259">
              <g id="Grupo_29258" data-name="Grupo 29258">
                <g id="Grupo_29256" data-name="Grupo 29256" transform="translate(6.729 13.645)">
                  <g id="Grupo_29255" data-name="Grupo 29255" transform="translate(0 18.066)">
                    <g id="Grupo_29246" data-name="Grupo 29246" transform="translate(0 16.967)">
                      <path id="Trazado_69675" data-name="Trazado 69675" d="M373.692,392.8a2.577,2.577,0,0,0,.058.542,1.249,1.249,0,0,0,.49.759l.018.012a1.433,1.433,0,0,0,1.506-.117,4.574,4.574,0,0,0,2.072-3.589,1.468,1.468,0,0,0-.583-1.313l.006-.006-.1-.058h-.006a1.284,1.284,0,0,0-.881-.035,2.4,2.4,0,0,0-.508.222A4.573,4.573,0,0,0,373.692,392.8Z" transform="translate(-372.186 -388.068)" fill="#455a64"/>
                      <path id="Trazado_69676" data-name="Trazado 69676" d="M373.618,387.979a1.9,1.9,0,0,1,.922-.28,1.1,1.1,0,0,1,.584.164l.053.029,1.336.77a1.283,1.283,0,0,0-.881-.035,2.4,2.4,0,0,0-.508.222,4.573,4.573,0,0,0-2.071,3.584,2.576,2.576,0,0,0,.058.542,1.25,1.25,0,0,0,.49.759l-1.371-.794-.023-.011-.117-.07a.126.126,0,0,1-.034-.024,1.523,1.523,0,0,1-.508-1.272A4.573,4.573,0,0,1,373.618,387.979Z" transform="translate(-371.546 -387.699)" fill="#263238"/>
                    </g>
                    <g id="Grupo_29247" data-name="Grupo 29247" transform="translate(22.412 4.916)">
                      <path id="Trazado_69677" data-name="Trazado 69677" d="M405.63,375.626a2.621,2.621,0,0,0,.058.543,1.254,1.254,0,0,0,.491.759l.017.012a1.432,1.432,0,0,0,1.506-.117,4.573,4.573,0,0,0,2.071-3.589,1.471,1.471,0,0,0-.583-1.314l.006-.006-.1-.058h-.006a1.285,1.285,0,0,0-.881-.035,2.355,2.355,0,0,0-.507.222A4.574,4.574,0,0,0,405.63,375.626Z" transform="translate(-404.125 -370.894)" fill="#455a64"/>
                      <path id="Trazado_69678" data-name="Trazado 69678" d="M405.556,370.805a1.9,1.9,0,0,1,.922-.28,1.1,1.1,0,0,1,.584.164l.052.029,1.337.771a1.285,1.285,0,0,0-.881-.035,2.356,2.356,0,0,0-.507.222,4.574,4.574,0,0,0-2.072,3.583,2.618,2.618,0,0,0,.058.543,1.254,1.254,0,0,0,.49.759l-1.371-.794-.023-.012-.117-.07a.139.139,0,0,1-.035-.024,1.526,1.526,0,0,1-.507-1.272A4.573,4.573,0,0,1,405.556,370.805Z" transform="translate(-403.485 -370.525)" fill="#263238"/>
                    </g>
                    <g id="Grupo_29248" data-name="Grupo 29248" transform="translate(15.777 21.673)">
                      <path id="Trazado_69679" data-name="Trazado 69679" d="M398.172,399.507a2.575,2.575,0,0,1-.058.542,1.249,1.249,0,0,1-.49.759l-.017.012a1.433,1.433,0,0,1-1.506-.117,4.574,4.574,0,0,1-2.071-3.589,1.468,1.468,0,0,1,.583-1.313l-.006-.006.1-.058h.006a1.282,1.282,0,0,1,.881-.035,2.39,2.39,0,0,1,.508.222A4.573,4.573,0,0,1,398.172,399.507Z" transform="translate(-394.029 -394.774)" fill="#455a64"/>
                      <path id="Trazado_69680" data-name="Trazado 69680" d="M397.9,394.685a1.9,1.9,0,0,0-.922-.28,1.1,1.1,0,0,0-.584.163l-.053.029-1.336.77a1.284,1.284,0,0,1,.881-.035,2.4,2.4,0,0,1,.508.222,4.573,4.573,0,0,1,2.071,3.584,2.574,2.574,0,0,1-.058.542,1.25,1.25,0,0,1-.49.759l1.372-.794.023-.012.117-.069a.126.126,0,0,0,.034-.024,1.524,1.524,0,0,0,.508-1.272A4.573,4.573,0,0,0,397.9,394.685Z" transform="translate(-394.319 -394.405)" fill="#263238"/>
                    </g>
                    <g id="Grupo_29249" data-name="Grupo 29249" transform="translate(30.325 14.547)">
                      <path id="Trazado_69681" data-name="Trazado 69681" d="M418.9,389.351a2.575,2.575,0,0,1-.059.543,1.251,1.251,0,0,1-.49.759l-.018.011a1.432,1.432,0,0,1-1.506-.116,4.575,4.575,0,0,1-2.071-3.589,1.469,1.469,0,0,1,.584-1.313l-.006-.006.1-.058h.006a1.285,1.285,0,0,1,.881-.035,2.338,2.338,0,0,1,.507.222A4.573,4.573,0,0,1,418.9,389.351Z" transform="translate(-414.761 -384.618)" fill="#455a64"/>
                      <path id="Trazado_69682" data-name="Trazado 69682" d="M418.629,384.53a1.9,1.9,0,0,0-.922-.281,1.1,1.1,0,0,0-.584.164l-.053.03-1.336.77a1.285,1.285,0,0,1,.881-.035,2.342,2.342,0,0,1,.507.222,4.574,4.574,0,0,1,2.072,3.583,2.575,2.575,0,0,1-.059.543,1.25,1.25,0,0,1-.49.759l1.371-.794.024-.012.117-.07a.121.121,0,0,0,.035-.023,1.527,1.527,0,0,0,.507-1.272A4.572,4.572,0,0,0,418.629,384.53Z" transform="translate(-415.051 -384.249)" fill="#263238"/>
                    </g>
                    <g id="Grupo_29250" data-name="Grupo 29250" transform="translate(2.203 5.807)">
                      <path id="Trazado_69683" data-name="Trazado 69683" d="M378.829,376.9a2.573,2.573,0,0,1-.058.542,1.254,1.254,0,0,1-.491.759l-.018.011a1.432,1.432,0,0,1-1.505-.116,4.575,4.575,0,0,1-2.072-3.589,1.469,1.469,0,0,1,.584-1.313l-.006-.006.1-.058h.006a1.282,1.282,0,0,1,.881-.034,2.358,2.358,0,0,1,.508.221A4.573,4.573,0,0,1,378.829,376.9Z" transform="translate(-374.685 -372.163)" fill="#455a64"/>
                      <path id="Trazado_69684" data-name="Trazado 69684" d="M378.553,372.074a1.892,1.892,0,0,0-.922-.28,1.1,1.1,0,0,0-.583.164l-.053.029-1.337.77a1.282,1.282,0,0,1,.881-.034,2.355,2.355,0,0,1,.508.221,4.573,4.573,0,0,1,2.071,3.584,2.568,2.568,0,0,1-.058.542,1.254,1.254,0,0,1-.491.759l1.372-.794.023-.011.117-.07a.12.12,0,0,0,.035-.023,1.527,1.527,0,0,0,.508-1.272A4.574,4.574,0,0,0,378.553,372.074Z" transform="translate(-374.975 -371.794)" fill="#263238"/>
                    </g>
                    <g id="Grupo_29251" data-name="Grupo 29251" transform="translate(17.984 3.687)">
                      <path id="Trazado_69685" data-name="Trazado 69685" d="M398.214,371.4l7.4-2.121v1.579l-7.4,4.267Z" transform="translate(-397.485 -368.923)" fill="#f5f5f5"/>
                      <path id="Trazado_69686" data-name="Trazado 69686" d="M397.9,371.247l-.73-.447,7.419-2.027.707.354Z" transform="translate(-397.175 -368.773)" fill="#fafafa"/>
                    </g>
                    <g id="Grupo_29252" data-name="Grupo 29252" transform="translate(5.027 5.144)">
                      <path id="Trazado_69687" data-name="Trazado 69687" d="M389.2,376.667l-10.487-3.929v-1.6l10.487.937Z" transform="translate(-378.711 -370.935)" fill="#f5f5f5"/>
                      <path id="Trazado_69688" data-name="Trazado 69688" d="M378.711,371.053l.771-.2,10.339.668-.623.473Z" transform="translate(-378.711 -370.849)" fill="#fafafa"/>
                    </g>
                    <path id="Trazado_69689" data-name="Trazado 69689" d="M393.254,373.889c0,1.187,3.648,1.187,3.648,0v-10.37h-3.648Z" transform="translate(-378.021 -363.519)" fill="#fafafa"/>
                    <g id="Grupo_29253" data-name="Grupo 29253" transform="translate(16.725 7.672)">
                      <path id="Trazado_69690" data-name="Trazado 69690" d="M396.622,374.452l2.006,13.021h-1.371l-1.876-13.021A2.251,2.251,0,0,0,396.622,374.452Z" transform="translate(-395.381 -374.452)" fill="#fafafa"/>
                      <path id="Trazado_69691" data-name="Trazado 69691" d="M395.381,374.452v3.576l1.876,11.65v-2.2Z" transform="translate(-395.381 -374.452)" fill="#f5f5f5"/>
                      <rect id="Rectngulo_26594" data-name="Rectngulo 26594" width="1.371" height="2.204" transform="translate(1.876 13.021)" fill="#ebebeb"/>
                    </g>
                    <g id="Grupo_29254" data-name="Grupo 29254" transform="translate(1.735 7.289)">
                      <path id="Trazado_69692" data-name="Trazado 69692" d="M388.743,377.926l-13.522,7.089v-2.183l13.522-8.365Z" transform="translate(-374.377 -374.073)" fill="#f5f5f5"/>
                      <path id="Trazado_69693" data-name="Trazado 69693" d="M388.384,374.3a1.505,1.505,0,0,1-.868-.393l-13.5,8.188.844.57Z" transform="translate(-374.018 -373.906)" fill="#fafafa"/>
                      <path id="Trazado_69694" data-name="Trazado 69694" d="M374.862,388.328v-2.183l-.844-.57v2.116Z" transform="translate(-374.018 -377.387)" fill="#ebebeb"/>
                    </g>
                    <path id="Trazado_69695" data-name="Trazado 69695" d="M412.645,382.448,398.2,377.5v-3.245l14.447,6.009Z" transform="translate(-379.496 -366.722)" fill="#f5f5f5"/>
                    <path id="Trazado_69696" data-name="Trazado 69696" d="M398.2,374.019c.117-.032.168-.242.178-.561l14.7,6.393-.427.176Z" transform="translate(-379.496 -366.484)" fill="#fafafa"/>
                    <path id="Trazado_69697" data-name="Trazado 69697" d="M419.213,382.569v2.112l-.427.247v-2.182Z" transform="translate(-385.637 -369.201)" fill="#ebebeb"/>
                  </g>
                  <path id="Trazado_69698" data-name="Trazado 69698" d="M397.629,337.774h-6.177v21.388c0,1.775,6.177,1.775,6.177,0Z" transform="translate(-377.484 -337.774)" fill="#f0f0f0"/>
                </g>
                <g id="Grupo_29257" data-name="Grupo 29257">
                  <path id="Trazado_69699" data-name="Trazado 69699" d="M361.957,333.892h0a3.086,3.086,0,0,1,1.543-2.673l21.609-12.476a3.088,3.088,0,0,1,3.087,0L409.8,331.219a3.088,3.088,0,0,1,1.543,2.673h0l-24.695,14.259Z" transform="translate(-361.957 -318.329)" fill="#37a3a5"/>
                  <path id="Trazado_69700" data-name="Trazado 69700" d="M361.957,340.506v1.785l23.169,13.376a3.056,3.056,0,0,0,3.052,0l23.168-13.376v-1.785l-23.168,13.375a3.02,3.02,0,0,1-3.052,0Z" transform="translate(-361.957 -324.944)" fill="#fafafa"/>
                  <path id="Trazado_69701" data-name="Trazado 69701" d="M361.957,340.506v1.785l23.169,13.376a3.026,3.026,0,0,0,1.523.408V354.3a3.032,3.032,0,0,1-1.523-.414Z" transform="translate(-361.957 -324.944)" fill="#f5f5f5"/>
                </g>
              </g>
              <path id="Trazado_69702" data-name="Trazado 69702" d="M361.957,339.921a3.074,3.074,0,0,1,.331-1.376l23.344,13.478a2.033,2.033,0,0,0,2.034,0l23.353-13.472a3.079,3.079,0,0,1,.328,1.37l-24.695,14.259-24.7-14.259Z" transform="translate(-361.957 -324.359)" opacity="0.1"/>
            </g>
          </g>
          <g id="Character-2" data-name="Character" transform="translate(3.241)">
            <g id="Grupo_29270" data-name="Grupo 29270" transform="translate(8.097)">
              <g id="Grupo_29260" data-name="Grupo 29260" transform="translate(9.935 45.043)">
                <path id="Trazado_69703" data-name="Trazado 69703" d="M405.2,322.845s-20.045-6.049-23.529-7-10.17-2.561-12.123-1.686-2.945,1.89-3.125,4.708c-.036.529,0,3.108,0,3.108s9.689,3,17.626,3S405.2,322.845,405.2,322.845Z" transform="translate(-366.405 -313.904)" fill="#263238"/>
              </g>
              <g id="Grupo_29261" data-name="Grupo 29261" transform="translate(31.596 18.033)">
                <path id="Trazado_69704" data-name="Trazado 69704" d="M397.273,277.295l1.333,7.188,7.369.85-1.063-9.919Z" transform="translate(-397.273 -275.413)" fill="#ffa8a7"/>
              </g>
              <g id="Grupo_29266" data-name="Grupo 29266" transform="translate(22.994)">
                <g id="Grupo_29262" data-name="Grupo 29262" transform="translate(0.995 14.176)">
                  <path id="Trazado_69705" data-name="Trazado 69705" d="M387.161,269.917s-.967,2.965-.672,3.147a5.2,5.2,0,0,0,1.612.094Z" transform="translate(-386.433 -269.917)" fill="#f28f8f"/>
                </g>
                <g id="Grupo_29263" data-name="Grupo 29263" transform="translate(1.549 2.33)">
                  <path id="Trazado_69706" data-name="Trazado 69706" d="M389.294,255.379c-1.269,1.335-2.475,3.572-1.944,9.235.583,6.206,2.438,7.861,3.22,8.224,1.168.544,5.141-.408,6.433-1.359,1.617-1.192,4.662-4.158,5.456-7.814.932-4.3-.261-9.188-3.4-10.176A10.746,10.746,0,0,0,389.294,255.379Z" transform="translate(-387.222 -253.035)" fill="#ffa8a7"/>
                </g>
                <g id="Grupo_29264" data-name="Grupo 29264">
                  <path id="Trazado_69707" data-name="Trazado 69707" d="M385.74,257.443c.753,1.421,2.177,4.956,6.21,5.958,0,0,.223-2.41,2.22-2.433s2.678,2.435,1.686,4.154-2.238,1.323-2.238,1.323.2,3.384,2.644,4.593a6.322,6.322,0,0,0,5.61-.372c1.2-.769,2.6-4.1,3.315-6.775,1.52-5.659,1.249-9.991-2.349-10.871-.756-2.372-1.975-3.135-4.238-3.285-4.872-.321-8.021,3.285-12.071,3.285C384.414,253.02,384.879,255.819,385.74,257.443Z" transform="translate(-385.015 -249.715)" fill="#263238"/>
                </g>
                <g id="Grupo_29265" data-name="Grupo 29265" transform="translate(17.625 1.859)">
                  <path id="Trazado_69708" data-name="Trazado 69708" d="M410.239,254.213l2.438-1.044a1.326,1.326,0,1,0-2.438,1.044Z" transform="translate(-410.132 -252.364)" fill="#263238"/>
                </g>
              </g>
              <g id="Grupo_29267" data-name="Grupo 29267" transform="translate(0 50.208)">
                <path id="Trazado_69709" data-name="Trazado 69709" d="M400.926,322.631c-.007,3.85.361,7.857-1.243,10.679-1.551,2.727-8.879,8.628-17.071,7.249-5.351-.9-22.644-7.491-22.644-7.491s-7.654-2.831-7.688-4.844c-.008-.493-.053-1-.021-1.538.161-2.678,1.244-5.565,6.846-5.417,6.118.162,24.272,3.135,24.272,3.135Z" transform="translate(-352.247 -321.265)" fill="#37474f"/>
              </g>
              <g id="Grupo_29268" data-name="Grupo 29268" transform="translate(24.912 22.891)">
                <path id="Trazado_69710" data-name="Trazado 69710" d="M410.091,286.128c-.662-2.011-3.213-4.2-5.767-3.725-4.691.871-9.822,2.391-11.182,2.792h0s.611,10.336-4.693,13.465l-.7,13.164a11.277,11.277,0,0,0,3.338,3.909,15.54,15.54,0,0,0,10.748,3.024,13.554,13.554,0,0,0,9.73-5.327s-.059-12.438-.269-18.005A38.9,38.9,0,0,0,410.091,286.128Z" transform="translate(-387.748 -282.337)" fill="#455a64"/>
              </g>
              <g id="Grupo_29269" data-name="Grupo 29269" transform="translate(25.422 35.552)">
                <path id="Trazado_69711" data-name="Trazado 69711" d="M388.529,306.591a17.564,17.564,0,0,0,3.746-6.211s0,4.881-3.8,7.518Z" transform="translate(-388.475 -300.38)" fill="#37474f"/>
              </g>
            </g>
            <g id="Grupo_29273" data-name="Grupo 29273" transform="translate(18.648 25.748)">
              <g id="Grupo_29271" data-name="Grupo 29271">
                <path id="Trazado_69712" data-name="Trazado 69712" d="M387.036,286.408c-2.9.869-4.659,1.026-7.858,5.948s-10.206,14.683-10.9,15.856c-.966,1.631-1.381,3.575-.548,5.074.778,1.4,3.043.786,6.218-2,3.07-2.693,9.152-10.312,9.152-10.312A52.442,52.442,0,0,0,387.036,286.408Z" transform="translate(-367.283 -286.408)" fill="#ffa8a7"/>
              </g>
              <g id="Grupo_29272" data-name="Grupo 29272" transform="translate(6.95)">
                <path id="Trazado_69713" data-name="Trazado 69713" d="M389.991,286.408a22.162,22.162,0,0,0-4.186,1.326,6.679,6.679,0,0,0-3.165,2.6c-2.238,3.718-5.438,9.011-5.438,9.011s-.547,4.61,5.052,6.217l2.977-3.213a16.675,16.675,0,0,0,2.967-4.419C389.459,295.158,390.9,290.757,389.991,286.408Z" transform="translate(-377.187 -286.408)" fill="#455a64"/>
              </g>
            </g>
            <path id="Trazado_69714" data-name="Trazado 69714" d="M360.778,314.911c-2.678-.325-8.68-8.55-10.682-11.166a17.913,17.913,0,0,0-5.48-5.156,7.224,7.224,0,0,1-3.857-5.7c-.458-2.933,2.276-4.8,4.511-1.854,1.42,1.872,2.852,3.055,2.927,2.743s-.441-1.617-.429-2.975c.015-1.634,1.16-.56,1.5.013a20.382,20.382,0,0,1,1.208,2.7c.571,1.462.335,2.943,1.03,3.94s10.027,9.938,10.027,9.938Z" transform="translate(-340.708 -261.596)" fill="#ffa8a7"/>
          </g>
          <g id="Grupo_29276" data-name="Grupo 29276" transform="translate(44.838 26.952)">
            <path id="Trazado_69715" data-name="Trazado 69715" d="M424.737,289.7v27.6l-21.91,12.7V302.407Z" transform="translate(-400.834 -288.593)" fill="#27debf"/>
            <path id="Trazado_69716" data-name="Trazado 69716" d="M424.737,289.7v27.6l-21.91,12.7V302.407Z" transform="translate(-400.834 -288.593)" fill="#37a3a5" opacity="0.1"/>
            <path id="Trazado_69717" data-name="Trazado 69717" d="M399.987,328.373l1.992,1.15v-25.3c0-1.2.364-1.794.844-2.059,1.669-1.028,3.877,1.156,3.877,1.156l.007-1.838,21.166-12.257c-1.992-1.15-3.3-1.9-7.317.376s-15.812,9.1-17.677,10.249c-1.5.922-2.892,2-2.892,4.5C399.988,308.7,399.987,328.373,399.987,328.373Z" transform="translate(-399.987 -288.124)" fill="#37a3a5"/>
            <path id="Trazado_69718" data-name="Trazado 69718" d="M404.109,299.852c1.839-1.194,13.659-7.969,17.677-10.249s5.325-1.526,7.317-.376l-21.166,12.257A5.311,5.311,0,0,0,404.109,299.852Z" transform="translate(-401.217 -288.124)" fill="#21587b" opacity="0.4"/>
            <path id="Trazado_69719" data-name="Trazado 69719" d="M409.554,303.79l21.173-12.3V289.7l-21.166,12.257Z" transform="translate(-402.841 -288.593)" fill="#27debf"/>
            <path id="Trazado_69720" data-name="Trazado 69720" d="M409.554,303.79l21.173-12.3V289.7l-21.166,12.257Z" transform="translate(-402.841 -288.593)" fill="#57cc98" opacity="0.2"/>
            <g id="Grupo_29274" data-name="Grupo 29274" transform="translate(3.957 32.802)">
              <path id="Trazado_69721" data-name="Trazado 69721" d="M408.7,352.247a1.923,1.923,0,0,0,1.917-1.919V335.85a.981.981,0,1,0-1.961,0v14.4l-1.559-.9a.981.981,0,0,0-.981,1.7l1.627.939A1.911,1.911,0,0,0,408.7,352.247Z" transform="translate(-405.625 -334.869)" fill="#e6e6e6"/>
            </g>
            <g id="Grupo_29275" data-name="Grupo 29275" transform="translate(15.935 25.821)">
              <path id="Trazado_69722" data-name="Trazado 69722" d="M425.771,342.3a1.916,1.916,0,0,0,.959-.26,1.9,1.9,0,0,0,.958-1.66V325.9a.981.981,0,0,0-1.961,0v14.4l-1.56-.9a.981.981,0,0,0-.98,1.7l1.626.939A1.92,1.92,0,0,0,425.771,342.3Z" transform="translate(-422.696 -324.921)" fill="#e6e6e6"/>
            </g>
          </g>
        </g>
      </g>
    </g>
  </g>
</svg>
