<svg xmlns="http://www.w3.org/2000/svg" xmlns:xlink="http://www.w3.org/1999/xlink" width="261.022" height="296.201" viewBox="0 0 261.022 296.201">
  <defs>
    <linearGradient id="linear-gradient" x1="0.5" x2="0.5" y2="1" gradientUnits="objectBoundingBox">
      <stop offset="0" stop-color="#fff"/>
      <stop offset="1" stop-color="#d2e6ee"/>
    </linearGradient>
  </defs>
  <g id="Grupo_54588" data-name="Grupo 54588" transform="translate(-777 -6413.194)">
    <g id="Grupo_39387" data-name="Grupo 39387" transform="translate(777 6413.194)">
      <g id="Shadows" transform="translate(0 143.296)">
        <path id="Shadow" d="M159.527,381.393,64.5,326.491c-3.707-2.14-3.707-5.642,0-7.783l153.864-88.9a6.158,6.158,0,0,1,5.551,0l97.359,56.253a2.937,2.937,0,0,1,0,5.088l-156.2,90.242A6.157,6.157,0,0,1,159.527,381.393Z" transform="translate(-61.72 -229.149)" fill="#e0e0e0"/>
      </g>
      <g id="Device" transform="translate(2.074 0)">
        <g id="Laptop" transform="translate(0)">
          <g id="Grupo_39336" data-name="Grupo 39336" transform="translate(5.55 137.098)">
            <path id="Trazado_92041" data-name="Trazado 92041" d="M73.1,313.322a8.335,8.335,0,0,0,3.887,6.454l84.628,48.87a8.594,8.594,0,0,0,7.774,0l149.02-86.038a7.3,7.3,0,0,0,0-12.909L233.782,220.83a8.59,8.59,0,0,0-7.774,0L76.986,306.867A8.334,8.334,0,0,0,73.1,313.322Z" transform="translate(-73.098 -219.901)" fill="url(#linear-gradient)"/>
            <path id="Trazado_92042" data-name="Trazado 92042" d="M367.787,300.913a8.334,8.334,0,0,1-3.889,6.453L214.874,393.407a8.011,8.011,0,0,1-3.881.927v-8.418a7.94,7.94,0,0,0,3.881-.933L363.9,298.948c1.88-1.084,2.115-2.76.705-3.994A8.341,8.341,0,0,1,367.787,300.913Z" transform="translate(-118.585 -244.659)" fill="#00223d"/>
            <path id="Trazado_92043" data-name="Trazado 92043" d="M165.5,404.1v8.411a7.918,7.918,0,0,1-3.887-.925L76.984,362.71a7.28,7.28,0,0,1-.395-12.657c-1.742,1.248-1.607,3.079.395,4.237l84.632,48.872A7.922,7.922,0,0,0,165.5,404.1Z" transform="translate(-73.097 -262.834)" fill="#00223d"/>
          </g>
          <g id="Grupo_39337" data-name="Grupo 39337">
            <path id="Trazado_92044" data-name="Trazado 92044" d="M66.72,239.52c-1.9-1.34-1.9-3.126-1.9-5.6V108.684a8.593,8.593,0,0,1,3.887-6.733L217.723,15.914c2.146-1.239,4.127-.341,6.141.822s3.3,2.166,3.3,4.645V146.612a8.593,8.593,0,0,1-3.887,6.733L74.253,239.381C71,241.572,68.788,240.979,66.72,239.52Z" transform="translate(-64.815 -15.316)" fill="url(#linear-gradient)"/>
            <path id="Trazado_92045" data-name="Trazado 92045" d="M74.254,283.46c-3.249,2.187-5.468,1.6-7.533.135-1.9-1.338-1.9-3.127-1.9-5.6V152.763a8.006,8.006,0,0,1,1.132-3.827l5.552,3.229a7.88,7.88,0,0,0-1.133,3.814V281.215C70.368,283.691,72.105,284.695,74.254,283.46Z" transform="translate(-64.816 -59.393)" fill="#00223d"/>
            <path id="Trazado_92046" data-name="Trazado 92046" d="M227.722,21.376c0-2.474-1.742-3.477-3.888-2.244L74.81,105.174a7.891,7.891,0,0,0-2.746,2.906l-5.547-3.226H66.51a7.979,7.979,0,0,1,2.753-2.906L218.28,15.913c2.146-1.24,4.126-.343,6.14.821S227.722,18.9,227.722,21.376Z" transform="translate(-65.374 -15.316)" fill="#00223d"/>
          </g>
          <g id="Grupo_39338" data-name="Grupo 39338" transform="translate(9.197 11.093)">
            <path id="Trazado_92047" data-name="Trazado 92047" d="M80.871,115.117l143.676-82.93c1.288-.744,2.333-.141,2.333,1.347V148.4a5.156,5.156,0,0,1-2.333,4.04L80.871,235.365c-1.288.744-2.332.141-2.332-1.346V119.156A5.155,5.155,0,0,1,80.871,115.117Z" transform="translate(-78.539 -31.869)" fill="#00223d"/>
            <path id="Trazado_92048" data-name="Trazado 92048" d="M80.871,115.514a5.155,5.155,0,0,0-2.332,4.04v114.17l142.83-82.44a5.155,5.155,0,0,0,2.333-4.04V33.072Z" transform="translate(-78.539 -32.266)" fill="url(#linear-gradient)"/>
          </g>
          <path id="Trazado_92050" data-name="Trazado 92050" d="M94.555,310.479l138.324-79.861a4.3,4.3,0,0,1,3.887,0l4.024,2.114a1.185,1.185,0,0,1,0,2.244L102.445,314.825a4.3,4.3,0,0,1-3.887,0l-4-2.1A1.185,1.185,0,0,1,94.555,310.479Z" transform="translate(-74.36 -86.185)" fill="#37474f"/>
          <g id="Grupo_39339" data-name="Grupo 39339" transform="translate(30.131 150.356)">
            <path id="Trazado_92051" data-name="Trazado 92051" d="M110.692,320.074l138.322-79.861a3.964,3.964,0,0,1,3.552-.194l36,20.787c.888.513.738,1.431-.336,2.051L150.072,342.61a3.985,3.985,0,0,1-3.556.2L110.36,322.12C109.47,321.61,109.618,320.694,110.692,320.074Z" transform="translate(-109.778 -239.685)" fill="#263238"/>
            <path id="Trazado_92052" data-name="Trazado 92052" d="M230.981,274.958l4.331-2.5c.184-.107.211-.263.06-.35l-3.82-2.206a.677.677,0,0,0-.606.035l-4.331,2.5c-.184.106-.211.263-.06.35l3.82,2.205A.677.677,0,0,0,230.981,274.958Zm-6.043-8.49-4.331,2.5c-.184.107-.21.263-.06.351l3.82,2.205a.677.677,0,0,0,.606-.035l4.331-2.5c.184-.107.212-.263.061-.35l-3.821-2.206A.677.677,0,0,0,224.937,266.468Zm-13.992,8.078-7.329,4.232c-.184.106-.21.263-.06.349l3.821,2.206a.678.678,0,0,0,.606-.035l7.329-4.231c.184-.107.211-.263.06-.351l-3.82-2.205A.677.677,0,0,0,210.945,274.546Zm7.663-4.424-4.332,2.5c-.184.106-.21.263-.06.35l3.82,2.205a.675.675,0,0,0,.606-.035l4.331-2.5c.184-.107.211-.263.06-.35l-3.82-2.205A.675.675,0,0,0,218.608,270.122Zm-16.99,9.809-4.331,2.5c-.184.106-.211.263-.06.35l3.82,2.206a.679.679,0,0,0,.606-.035l4.331-2.5c.184-.106.211-.263.06-.35l-3.82-2.205A.677.677,0,0,0,201.618,279.931Zm-6.33,3.655-4.331,2.5c-.184.107-.21.263-.06.35l3.82,2.206a.679.679,0,0,0,.606-.035l4.33-2.5c.184-.106.211-.263.06-.35l-3.82-2.205A.678.678,0,0,0,195.288,283.586Zm16.049,9.651,4.331-2.5c.184-.107.211-.263.06-.35l-3.82-2.205a.675.675,0,0,0-.606.035l-4.331,2.5c-.184.107-.211.263-.06.35l3.82,2.205A.675.675,0,0,0,211.337,293.237Zm-6.329,3.654,4.331-2.5c.184-.106.21-.263.06-.35l-3.82-2.205a.677.677,0,0,0-.606.035l-4.33,2.5c-.184.106-.211.263-.061.35l3.82,2.206A.679.679,0,0,0,205.007,296.891Zm-6.33,3.655,4.331-2.5c.184-.107.211-.263.06-.35l-3.82-2.206a.678.678,0,0,0-.606.035l-4.331,2.5c-.184.107-.211.263-.06.35l3.82,2.205A.677.677,0,0,0,198.677,300.546Zm-6.33,3.654,4.331-2.5c.184-.106.211-.263.06-.35l-3.82-2.205a.676.676,0,0,0-.606.035l-4.331,2.5c-.184.106-.211.263-.06.35l3.82,2.205A.675.675,0,0,0,192.347,304.2Zm32.3-25.587,4.33-2.5c.184-.106.211-.263.06-.35l-3.82-2.205a.676.676,0,0,0-.605.035l-4.331,2.5c-.184.106-.212.263-.061.35l3.82,2.206A.679.679,0,0,0,224.651,278.612Zm-6.985,10.97L227.328,284c.184-.107.21-.263.06-.35l-9.828-5.675a.68.68,0,0,0-.606.035l-5,2.886c-.184.106-.21.263-.06.35l5.463,3.154c.15.087.123.244-.061.35l-4,2.308c-.184.107-.211.263-.06.35l3.82,2.206A.678.678,0,0,0,217.667,289.582Zm-28.708-2.342-4.332,2.5c-.184.106-.21.263-.06.35l3.82,2.205a.677.677,0,0,0,.606-.035l4.331-2.5c.184-.106.21-.263.06-.35l-3.82-2.206A.679.679,0,0,0,188.958,287.24Zm-6.33,3.655-4.331,2.5c-.184.107-.211.263-.06.35l3.82,2.206a.677.677,0,0,0,.606-.035l4.331-2.5c.184-.106.211-.263.06-.35l-3.82-2.205A.677.677,0,0,0,182.628,290.9Zm-35.2,38.922a.678.678,0,0,0,.606-.035l4.331-2.5c.184-.106.21-.263.06-.35l-3.82-2.205a.677.677,0,0,0-.606.035l-4.33,2.5c-.184.107-.211.263-.061.35Zm-15.444-9.686-4.33,2.5c-.184.106-.211.263-.06.35l3.82,2.205a.675.675,0,0,0,.606-.035l4.331-2.5c.184-.107.211-.263.06-.35L132.6,320.1A.678.678,0,0,0,131.989,320.131Zm7.769,7.178a.677.677,0,0,0,.606-.034l4.331-2.5c.184-.106.211-.263.06-.35l-3.82-2.205a.677.677,0,0,0-.606.035l-4.331,2.5c-.184.107-.211.263-.06.35Zm17.62,4.018,4.33-2.5c.184-.106.211-.263.061-.35l-3.82-2.205a.677.677,0,0,0-.606.035l-4.331,2.5c-.183.106-.21.263-.06.35l3.82,2.205A.676.676,0,0,0,157.378,331.327Zm-6.936,3.689a.675.675,0,0,0,.606-.035l4.331-2.5c.184-.106.211-.262.06-.349l-3.82-2.206a.677.677,0,0,0-.606.035l-4.331,2.5c-.184.106-.211.263-.06.35Zm-12.123-18.54-4.33,2.5c-.185.106-.211.263-.06.35l3.82,2.206a.679.679,0,0,0,.606-.035l4.33-2.5c.184-.106.211-.263.06-.349l-3.82-2.206A.677.677,0,0,0,138.319,316.477ZM169.968,298.2l-4.331,2.5c-.184.107-.21.263-.06.35l3.82,2.206a.677.677,0,0,0,.606-.035l4.332-2.5c.184-.106.21-.263.06-.35l-3.82-2.205A.677.677,0,0,0,169.968,298.2Zm-25.319,14.618-4.331,2.5c-.184.106-.211.263-.06.35l3.82,2.205a.677.677,0,0,0,.606-.035l4.33-2.5c.184-.106.211-.263.06-.35l-3.82-2.206A.679.679,0,0,0,144.649,312.822ZM176.3,294.549l-4.331,2.5c-.184.106-.211.263-.06.35l3.82,2.205a.677.677,0,0,0,.606-.035l4.33-2.5c.184-.107.211-.263.061-.35l-3.82-2.206A.679.679,0,0,0,176.3,294.549Zm-12.659,7.309-4.331,2.5c-.184.107-.211.263-.06.35l3.82,2.205a.677.677,0,0,0,.606-.035l4.33-2.5c.184-.107.211-.263.06-.35l-3.82-2.205A.675.675,0,0,0,163.639,301.859Zm-6.33,3.654-4.33,2.5c-.184.106-.212.263-.061.35l3.82,2.206a.679.679,0,0,0,.606-.036l4.331-2.5c.184-.107.21-.263.06-.35l-3.82-2.205A.679.679,0,0,0,157.309,305.513Zm-6.329,3.655-4.331,2.5c-.184.107-.211.263-.06.35l3.82,2.205a.677.677,0,0,0,.606-.035l4.331-2.5c.184-.107.211-.263.06-.35l-3.82-2.205A.678.678,0,0,0,150.979,309.168Zm28.708,2.342,4.331-2.5c.184-.106.211-.263.06-.35l-3.82-2.205a.677.677,0,0,0-.606.035l-4.33,2.5c-.184.107-.211.263-.06.35l3.82,2.206A.678.678,0,0,0,179.688,311.51Zm59.242-53.12-4.331,2.5c-.184.107-.21.263-.06.35l3.82,2.206a.679.679,0,0,0,.606-.035l4.33-2.5c.184-.107.211-.263.06-.35l-3.82-2.206A.678.678,0,0,0,238.93,258.389Zm-7.662,4.424-4.331,2.5c-.184.106-.211.263-.06.35l3.82,2.205a.675.675,0,0,0,.606-.035l4.331-2.5c.184-.106.211-.263.06-.35l-3.82-2.206A.678.678,0,0,0,231.267,262.813Zm13.992-8.078-4.33,2.5c-.184.106-.211.263-.06.35l3.82,2.205a.675.675,0,0,0,.606-.035l4.331-2.5c.184-.106.211-.263.06-.35l-3.82-2.206A.679.679,0,0,0,245.259,254.735Zm-35.266,32.34,4.33-2.5c.184-.107.211-.263.06-.35l-3.82-2.205a.677.677,0,0,0-.606.035l-4.331,2.5c-.184.106-.21.263-.06.35l3.82,2.206A.681.681,0,0,0,209.993,287.075Zm42.2-36.03a.679.679,0,0,0-.606.035l-4.33,2.5c-.184.107-.211.263-.06.35l3.82,2.206a.674.674,0,0,0,.605-.035l4.331-2.5c.184-.106.212-.262.061-.349Zm-66.178,56.809,4.33-2.5c.184-.107.211-.263.06-.35l-3.82-2.206a.679.679,0,0,0-.606.035l-4.331,2.5c-.184.106-.21.263-.06.349l3.82,2.206A.679.679,0,0,0,186.018,307.855Zm77.623-44.816,4.331-2.5c.184-.106.21-.263.06-.35l-3.821-2.205a.676.676,0,0,0-.606.035l-4.331,2.5c-.183.106-.211.263-.06.35l3.82,2.206A.679.679,0,0,0,263.641,263.039Zm-12.338.186,4.331-2.5c.184-.106.21-.262.06-.349l-3.82-2.206a.675.675,0,0,0-.606.035l-4.33,2.5c-.184.107-.212.263-.061.35l3.821,2.206A.678.678,0,0,0,251.3,263.225Zm6.9-8.71a.675.675,0,0,0-.606.034l-4.331,2.5c-.184.106-.211.263-.06.35l3.82,2.205a.679.679,0,0,0,.606-.034l4.331-2.5c.184-.107.211-.263.06-.35Zm1.333-.769,9.828,5.674a.677.677,0,0,0,.606-.035l4.331-2.5c.184-.107.211-.263.061-.35l-9.829-5.675a.679.679,0,0,0-.606.035l-4.33,2.5C259.412,253.5,259.385,253.658,259.536,253.745Zm-14.6,8.113-4.331,2.5c-.184.106-.211.263-.06.35l3.82,2.205a.675.675,0,0,0,.606-.035l4.331-2.5c.184-.107.211-.263.06-.35l-3.82-2.206A.678.678,0,0,0,244.938,261.859Zm-47.64,27.5-4.331,2.5c-.184.106-.211.263-.06.35l3.82,2.205a.675.675,0,0,0,.606-.035l4.331-2.5c.184-.107.211-.263.06-.35l-3.82-2.205A.677.677,0,0,0,197.3,289.363ZM256.7,266.728a.679.679,0,0,0,.607-.035l4.331-2.5c.184-.107.21-.263.06-.35l-3.82-2.206a.677.677,0,0,0-.606.035l-4.331,2.5c-.184.106-.211.263-.06.349Zm-53.077,18.98-4.33,2.5c-.184.107-.211.263-.06.35l3.82,2.205a.676.676,0,0,0,.606-.035l4.331-2.5c.184-.107.211-.263.06-.35l-3.82-2.206A.678.678,0,0,0,203.627,285.708Zm-49.865,40.454a.679.679,0,0,0,.606-.035l4.331-2.5c.184-.107.21-.263.06-.35l-3.82-2.206a.678.678,0,0,0-.606.035l-4.331,2.5c-.184.106-.21.263-.06.349Zm-7.1-7.563-4.331,2.5c-.184.106-.211.263-.06.349l3.82,2.206a.677.677,0,0,0,.606-.035l4.331-2.5c.184-.107.211-.263.06-.35l-3.82-2.205A.678.678,0,0,0,146.66,318.6Zm14.039,3.874,4.331-2.5c.184-.106.211-.263.06-.35l-3.82-2.205a.677.677,0,0,0-.606.035l-4.33,2.5c-.184.107-.211.263-.06.35l3.82,2.205A.677.677,0,0,0,160.7,322.473Zm6.329-3.654,4.331-2.5c.184-.107.212-.263.061-.35l-3.821-2.206a.68.68,0,0,0-.606.035l-4.331,2.5c-.184.107-.211.263-.06.35l3.82,2.205A.676.676,0,0,0,167.028,318.819Zm6.33-3.655,4.331-2.5c.184-.107.211-.263.06-.35l-3.82-2.205a.675.675,0,0,0-.606.035l-4.331,2.5c-.184.107-.211.263-.06.35l3.82,2.206A.678.678,0,0,0,173.358,315.164Zm-20.369-.219-4.33,2.5c-.184.106-.211.263-.061.35L152.419,320a.676.676,0,0,0,.606-.035l4.331-2.5c.184-.106.211-.263.06-.35l-3.82-2.205A.677.677,0,0,0,152.989,314.945Zm6.33-3.655-4.33,2.5c-.184.106-.212.263-.061.35l3.82,2.205a.677.677,0,0,0,.606-.035l4.33-2.5c.184-.107.211-.263.06-.35l-3.82-2.206A.677.677,0,0,0,159.319,311.29Zm25.319-14.618-4.331,2.5c-.184.107-.211.263-.06.35l3.82,2.205a.675.675,0,0,0,.606-.035l4.331-2.5c.184-.106.211-.263.06-.35l-3.82-2.205A.675.675,0,0,0,184.639,296.672Zm-6.33,3.654-4.331,2.5c-.184.107-.211.263-.06.35l3.82,2.206a.679.679,0,0,0,.606-.035l4.331-2.5c.184-.107.211-.263.06-.35l-3.82-2.205A.675.675,0,0,0,178.309,300.327Zm12.659-7.309-4.331,2.5c-.184.106-.21.263-.06.35l3.82,2.206a.679.679,0,0,0,.606-.035l4.331-2.5c.184-.106.21-.263.06-.349l-3.82-2.206A.677.677,0,0,0,190.968,293.018Zm-25.319,14.618-4.331,2.5c-.184.107-.211.263-.06.35l3.82,2.205a.677.677,0,0,0,.606-.034l4.331-2.5c.184-.107.211-.263.06-.35l-3.82-2.205A.677.677,0,0,0,165.649,307.635Zm6.329-3.654-4.331,2.5c-.184.106-.211.263-.06.35l3.82,2.205a.677.677,0,0,0,.606-.034l4.33-2.5c.184-.106.212-.263.061-.35l-3.821-2.205A.675.675,0,0,0,171.979,303.981Zm-8.271,23.692,4.331-2.5c.184-.106.211-.263.061-.35l-3.821-2.206a.679.679,0,0,0-.606.035l-4.331,2.5c-.184.107-.211.263-.06.351l3.82,2.206A.677.677,0,0,0,163.708,327.672Zm-33.622-1.716-3.82-2.205a.675.675,0,0,0-.606.035l-4.331,2.5c-.184.107-.211.263-.06.35l3.82,2.206a.677.677,0,0,0,.606-.035l4.331-2.5C130.21,326.2,130.237,326.043,130.086,325.956Zm8.34,2.122-3.821-2.205a.678.678,0,0,0-.606.035l-6.662,3.847c-.184.107-.211.263-.06.35l3.82,2.205a.678.678,0,0,0,.606-.035l6.663-3.847C138.55,328.323,138.577,328.166,138.427,328.079Zm-13.965-6.524-3.82-2.205a.679.679,0,0,0-.606.035l-5.33,3.078c-.184.106-.211.263-.06.35l3.82,2.205a.678.678,0,0,0,.606-.035L124.4,321.9C124.586,321.8,124.613,321.642,124.462,321.555Zm4.087-2.359a.678.678,0,0,0,.606-.035l4.33-2.5c.184-.106.212-.263.061-.349l-3.82-2.206a.679.679,0,0,0-.606.035l-4.33,2.5c-.184.107-.211.263-.061.35Zm17.551,11.39-3.82-2.206a.678.678,0,0,0-.606.036l-8.329,4.808c-.184.107-.211.263-.06.35l3.82,2.205a.677.677,0,0,0,.606-.034l8.329-4.809C146.224,330.829,146.251,330.673,146.1,330.586Zm3.01,5.2-3.82-2.205a.676.676,0,0,0-.605.034l-5.331,3.078c-.184.107-.211.263-.06.35l3.82,2.206a.679.679,0,0,0,.606-.035l5.331-3.078C149.234,336.03,149.261,335.873,149.11,335.786Zm26.5-43.761a.677.677,0,0,0,.606-.034l4.33-2.5c.184-.107.212-.263.061-.35l-3.82-2.205a.676.676,0,0,0-.606.034l-4.33,2.5c-.184.107-.211.263-.06.35Zm-12.66,7.309a.679.679,0,0,0,.606-.035l4.331-2.5c.184-.106.21-.262.06-.349l-3.82-2.206a.679.679,0,0,0-.606.035l-4.33,2.5c-.184.107-.211.263-.061.35Zm-28.073,16.208a.675.675,0,0,0,.606-.035l4.331-2.5c.184-.106.211-.263.06-.35l-3.82-2.206a.678.678,0,0,0-.606.036l-4.331,2.5c-.184.106-.211.263-.06.35Zm34.4-19.863a.675.675,0,0,0,.606-.035l4.331-2.5c.184-.106.211-.263.06-.35l-3.82-2.205a.675.675,0,0,0-.606.035l-4.331,2.5c-.184.106-.211.263-.06.35Zm-12.659,7.31a.677.677,0,0,0,.606-.036l4.331-2.5c.184-.106.211-.263.06-.35L157.8,297.9a.675.675,0,0,0-.606.035l-4.331,2.5c-.184.106-.211.263-.06.35Zm-3.991,33.291a.677.677,0,0,0-.606.035l-6.662,3.847c-.184.107-.211.263-.06.35l3.82,2.205a.677.677,0,0,0,.606-.035l6.663-3.847c.184-.106.21-.263.06-.35Zm-5.093-28.047a.681.681,0,0,0,.607-.035l4.33-2.5c.184-.107.211-.263.06-.35l-3.82-2.205a.677.677,0,0,0-.606.035l-4.33,2.5c-.184.106-.211.263-.06.35Zm-6.329,3.654a.675.675,0,0,0,.606-.035l4.331-2.5c.184-.107.211-.263.06-.35l-3.82-2.206a.677.677,0,0,0-.606.035l-4.331,2.5c-.184.107-.211.263-.06.35ZM269.9,268.575a.676.676,0,0,0-.606.035l-10.66,6.154c-.184.107-.211.263-.061.35l3.821,2.205a.676.676,0,0,0,.606-.035l10.66-6.155c.184-.106.211-.263.06-.35Zm-13.992,8.078a.675.675,0,0,0-.606.035l-4.331,2.5c-.184.107-.21.263-.06.35l3.82,2.206a.679.679,0,0,0,.606-.035l4.331-2.5c.184-.106.21-.263.06-.35Zm-85.868,47.365,4.331-2.5c.184-.107.211-.263.06-.35l-3.82-2.205A.675.675,0,0,0,170,319l-4.331,2.5c-.184.107-.211.263-.06.35l3.82,2.206A.677.677,0,0,0,170.038,324.018Zm73.208-40.056a.675.675,0,0,0-.606.035l-4.331,2.5c-.184.107-.211.263-.06.35l3.82,2.206a.679.679,0,0,0,.606-.035l4.331-2.5c.184-.106.211-.263.06-.35Zm32.982-19.042a.678.678,0,0,0-.606.035l-4.331,2.5c-.184.106-.211.263-.06.35l3.82,2.205a.675.675,0,0,0,.606-.035l4.331-2.5c.184-.107.211-.263.06-.35Zm10.15-1.448-9.829-5.675a.68.68,0,0,0-.606.035l-4.331,2.5c-.184.106-.211.263-.06.35l9.828,5.675a.678.678,0,0,0,.606-.035l4.332-2.5C286.5,263.715,286.528,263.559,286.378,263.472Zm-66.786,34.146a.677.677,0,0,0-.606.035l-5.33,3.078c-.184.106-.211.263-.06.35l3.82,2.205a.676.676,0,0,0,.606-.035l5.33-3.077c.184-.107.211-.263.06-.35Zm15.991-9.232a.677.677,0,0,0-.606.035l-6.663,3.847c-.184.106-.211.263-.06.35l3.82,2.205a.678.678,0,0,0,.606-.035l6.662-3.847c.184-.106.211-.262.06-.35Zm-30.649,17.7a.679.679,0,0,0-.606.035L168.682,326.7c-.184.106-.212.263-.061.349l3.82,2.206a.677.677,0,0,0,.606-.035l35.646-20.58c.184-.107.211-.263.06-.35Zm-37.646,21.735a.676.676,0,0,0-.606.035l-5.331,3.077c-.184.106-.211.263-.06.35l3.82,2.206a.68.68,0,0,0,.606-.035l5.331-3.078c.184-.106.21-.263.06-.35Zm44.974-25.966a.675.675,0,0,0-.606.035l-5.33,3.077c-.184.107-.211.263-.06.35l3.82,2.205a.675.675,0,0,0,.606-.034l5.33-3.078c.184-.106.211-.263.06-.35Zm-52.3,30.2a.679.679,0,0,0-.606.035l-5.33,3.078c-.184.106-.211.263-.06.35l3.82,2.205a.677.677,0,0,0,.606-.034l5.33-3.078c.184-.107.211-.263.061-.35Zm66.962-38.66a.675.675,0,0,0-.606.035l-5.33,3.077c-.184.107-.211.263-.06.35l3.82,2.205a.677.677,0,0,0,.606-.034l5.331-3.078c.184-.106.21-.263.06-.35Zm22.654-13.08a.679.679,0,0,0-.606.035l-4.33,2.5c-.184.107-.211.263-.06.35l3.82,2.206a.677.677,0,0,0,.606-.035l4.331-2.5c.184-.107.21-.263.06-.35Zm13.743-10.146,4.33-2.5c.184-.107.212-.263.061-.35l-3.82-2.205a.677.677,0,0,0-.606.035l-4.33,2.5c-.184.106-.211.263-.06.35l3.82,2.205A.675.675,0,0,0,263.319,270.162ZM237.311,271.3l4.331-2.5c.184-.106.21-.263.06-.35l-3.82-2.205a.677.677,0,0,0-.606.035l-4.33,2.5c-.184.107-.211.263-.06.35l3.82,2.205A.678.678,0,0,0,237.311,271.3Zm-16.635,23.479,12.66-7.309c.184-.106.21-.263.06-.35l-3.82-2.205a.677.677,0,0,0-.606.035l-12.659,7.309c-.184.106-.211.263-.06.35l3.82,2.205A.675.675,0,0,0,220.676,294.782Zm35.707-20.93a.678.678,0,0,0,.606-.035l4.331-2.5c.184-.107.211-.263.06-.35l-3.82-2.205a.675.675,0,0,0-.606.035l-4.331,2.5c-.184.107-.211.263-.06.35Zm-5.4-3.5,4.331-2.5c.184-.106.211-.263.06-.35l-3.82-2.205a.679.679,0,0,0-.606.034l-4.33,2.5c-.184.107-.212.263-.061.35l3.821,2.205A.677.677,0,0,0,250.981,270.348Zm-36.635,28.088,4.331-2.5c.184-.106.211-.263.06-.349l-3.82-2.206a.675.675,0,0,0-.606.035l-4.331,2.5c-.184.107-.211.263-.06.35l3.82,2.206A.68.68,0,0,0,214.346,298.437Zm28.045-16.507A.679.679,0,0,0,243,281.9l4.33-2.5c.184-.106.211-.263.06-.349l-3.82-2.206a.675.675,0,0,0-.606.035l-4.331,2.5c-.184.107-.211.263-.06.35ZM182.7,316.709l4.331-2.5c.184-.106.211-.262.06-.349l-3.82-2.206a.676.676,0,0,0-.606.035l-4.331,2.5c-.184.107-.21.263-.06.35l3.82,2.206A.677.677,0,0,0,182.7,316.709Zm6.33-3.655,4.331-2.5c.184-.107.211-.263.06-.35L189.6,308a.677.677,0,0,0-.606.036l-4.331,2.5c-.184.106-.211.263-.06.35l3.82,2.205A.675.675,0,0,0,189.027,313.054Zm-12.659,7.309,4.331-2.5c.184-.106.211-.263.06-.35l-3.82-2.205a.678.678,0,0,0-.606.034l-4.33,2.5c-.184.106-.211.263-.061.35l3.82,2.206A.679.679,0,0,0,176.368,320.363Zm25.319-14.618,4.331-2.5c.184-.107.211-.263.06-.35l-3.82-2.205a.675.675,0,0,0-.606.035l-4.331,2.5c-.184.106-.211.263-.06.35l3.82,2.206A.68.68,0,0,0,201.687,305.746Zm-6.329,3.654,4.33-2.5c.184-.106.211-.263.061-.35l-3.821-2.206a.678.678,0,0,0-.606.035l-4.331,2.5c-.184.107-.211.263-.06.35l3.82,2.205A.675.675,0,0,0,195.357,309.4Zm12.659-7.309,4.331-2.5c.184-.106.211-.263.06-.35l-3.82-2.205a.675.675,0,0,0-.606.034l-4.332,2.5c-.184.107-.21.263-.06.35l3.82,2.206A.679.679,0,0,0,208.017,302.091ZM242.993,251.5a.679.679,0,0,0,.606-.035l4.331-2.5c.184-.106.21-.262.06-.349l-1.017-.588a.677.677,0,0,0-.606.035l-4.332,2.5c-.183.106-.21.263-.06.35Zm-31.579,19.851a.677.677,0,0,0,.606-.034l4.331-2.5c.184-.106.211-.263.06-.35l-3.82-2.205a.673.673,0,0,0-.606.035l-4.331,2.5c-.184.107-.211.263-.06.35Zm12.659-7.308a.677.677,0,0,0,.606-.035l4.331-2.5c.184-.107.21-.263.06-.35l-3.82-2.205a.675.675,0,0,0-.606.035l-4.331,2.5c-.184.106-.211.263-.06.35Zm-20.389,11.771a.68.68,0,0,0,.606-.035l4.331-2.5c.184-.106.211-.263.06-.35l-3.82-2.205a.676.676,0,0,0-.606.035l-4.331,2.5c-.184.107-.211.263-.06.35Zm14.059-8.117a.677.677,0,0,0,.606-.035l4.331-2.5c.184-.107.21-.263.06-.35l-3.82-2.205a.675.675,0,0,0-.606.034l-4.33,2.5c-.184.106-.212.263-.061.35Zm-26.719,15.426a.679.679,0,0,0,.606-.036l4.331-2.5c.184-.106.21-.263.06-.35l-3.82-2.205a.677.677,0,0,0-.606.035l-4.33,2.5c-.184.107-.211.263-.06.35Zm6.33-3.655a.677.677,0,0,0,.606-.035l4.331-2.5c.184-.106.21-.263.06-.35l-3.82-2.206a.678.678,0,0,0-.606.035l-4.33,2.5c-.184.107-.211.263-.06.35Zm32.979-20.659a.681.681,0,0,0,.606-.035l4.331-2.5c.184-.106.21-.263.06-.35l-1.017-.587a.679.679,0,0,0-.606.034l-4.331,2.5c-.184.107-.211.263-.06.35Zm18.989-10.964a.679.679,0,0,0,.607-.034l4.331-2.5c.184-.107.21-.263.06-.35l-1.017-.587a.677.677,0,0,0-.606.035l-4.331,2.5c-.184.106-.21.263-.06.35Zm8.025,4.633a.677.677,0,0,0,.606-.034l4.331-2.5c.184-.106.211-.263.06-.35l-3.82-2.205a.675.675,0,0,0-.606.034l-4.331,2.5c-.184.107-.211.263-.06.35Zm12.3,14.026,4.331-2.5c.184-.106.212-.263.06-.349l-3.82-2.206a.679.679,0,0,0-.606.035l-4.331,2.5c-.184.107-.21.263-.06.35l3.82,2.206A.677.677,0,0,0,269.648,266.508Zm-32.985-11.351a.675.675,0,0,0,.606-.035l4.331-2.5c.184-.106.211-.263.06-.35l-1.017-.587a.675.675,0,0,0-.606.035l-4.331,2.5c-.184.107-.211.263-.06.35ZM184.695,286.78a.675.675,0,0,0,.606-.035l4.331-2.5c.184-.107.211-.263.06-.35l-3.82-2.206a.678.678,0,0,0-.606.035l-4.331,2.5c-.184.106-.211.262-.06.349Z" transform="translate(-111.352 -241.214)" fill="#455a64"/>
          </g>
          <g id="Grupo_39340" data-name="Grupo 39340" transform="translate(122.854 203.894)">
            <path id="Trazado_92053" data-name="Trazado 92053" d="M248.145,344.292l.888.512,23.586,13.615L314.565,334.2l.873-.5-24.474-14.127Z" transform="translate(-248.145 -319.577)" fill="#263238"/>
            <path id="Trazado_92054" data-name="Trazado 92054" d="M314.8,335.146l-23.21-13.39-41.54,23.993,23.2,13.39Z" transform="translate(-248.774 -320.296)" fill="#37474f"/>
          </g>
        </g>
      </g>
      <g id="Browser" transform="translate(32.812 23.735)">
        <g id="Www">
          <g id="www-2" data-name="www" transform="translate(61.83)">
            <g id="Grupo_39341" data-name="Grupo 39341">
              <path id="Trazado_92055" data-name="Trazado 92055" d="M325.762,59.237a3.926,3.926,0,0,0-1.614-3.6c-1.009-.594-6.855-3.966-7.871-4.544a3.924,3.924,0,0,0-3.926.4l-109.4,63.164v36.207l7.84,4.525,109.4-63.163a12.314,12.314,0,0,0,5.571-9.649Z" transform="translate(-202.95 -50.735)" fill="#80eb9a"/>
              <path id="Trazado_92056" data-name="Trazado 92056" d="M325.762,59.237a3.926,3.926,0,0,0-1.614-3.6c-1.009-.594-6.855-3.966-7.871-4.544a3.924,3.924,0,0,0-3.926.4l-109.4,63.164v36.207l7.84,4.525,109.4-63.163a12.314,12.314,0,0,0,5.571-9.649Z" transform="translate(-202.95 -50.735)" fill="#21587b" opacity="0.15"/>
              <path id="Trazado_92057" data-name="Trazado 92057" d="M324.051,58.249c3.077-1.776,5.571-.336,5.571,3.217V84.807a12.314,12.314,0,0,1-5.571,9.649l-109.4,63.163V121.412Z" transform="translate(-206.809 -52.962)" fill="#00926e"/>
              <path id="Trazado_92058" data-name="Trazado 92058" d="M324.012,93.449a8.331,8.331,0,0,0,3.755-6.5V65.382c0-1.7-1.2-2.4-2.676-1.545L217.935,125.748v28.989Z" transform="translate(-207.893 -54.937)" fill="#fafafa"/>
            </g>
            <g id="Grupo_39342" data-name="Grupo 39342" transform="translate(20.887 25.238)">
              <path id="Trazado_92059" data-name="Trazado 92059" d="M241.95,166.937a1.147,1.147,0,0,1-.118.5.743.743,0,0,1-.279.343l-1.851,1.068a.212.212,0,0,1-.279-.02.482.482,0,0,1-.117-.361v-5.723a2.356,2.356,0,0,0-.308-1.383q-.309-.409-.97-.027a2.209,2.209,0,0,0-.962,1.143,4.7,4.7,0,0,0-.3,1.735v5.723a1.152,1.152,0,0,1-.117.5.744.744,0,0,1-.279.342l-1.852,1.068a.211.211,0,0,1-.279-.019.478.478,0,0,1-.118-.361V156.62a1.143,1.143,0,0,1,.118-.5.745.745,0,0,1,.279-.343l1.852-1.068a.213.213,0,0,1,.279.02.482.482,0,0,1,.117.361v4.818a6.861,6.861,0,0,1,.779-1.365,3.89,3.89,0,0,1,1.22-1.145,2.977,2.977,0,0,1,1.293-.441,1.309,1.309,0,0,1,1.007.358,2.624,2.624,0,0,1,.653,1.228,8.237,8.237,0,0,1,.236,2.172Z" transform="translate(-234.119 -110.257)" fill="#455a64"/>
              <path id="Trazado_92060" data-name="Trazado 92060" d="M251.357,157.1a1.272,1.272,0,0,0,.147.718q.148.2.486,0l1.175-.679a.215.215,0,0,1,.279.019.488.488,0,0,1,.117.363v2.284a1.163,1.163,0,0,1-.117.5.744.744,0,0,1-.279.342l-1.4.806a2.774,2.774,0,0,1-1.257.419,1.326,1.326,0,0,1-.963-.326,2.264,2.264,0,0,1-.616-1.045,5.887,5.887,0,0,1-.22-1.739v-3.8l-1.087.629a.214.214,0,0,1-.279-.02.487.487,0,0,1-.117-.363v-2.284a1.161,1.161,0,0,1,.117-.5.754.754,0,0,1,.279-.343l1.087-.627v-3.687a1.166,1.166,0,0,1,.117-.5.751.751,0,0,1,.279-.342l1.852-1.068a.214.214,0,0,1,.279.019.487.487,0,0,1,.117.361v3.687l1.661-.958a.215.215,0,0,1,.279.019.487.487,0,0,1,.117.362v2.284a1.159,1.159,0,0,1-.117.5.749.749,0,0,1-.279.342l-1.661.959Z" transform="translate(-238.444 -107.339)" fill="#455a64"/>
              <path id="Trazado_92061" data-name="Trazado 92061" d="M261.749,151.1a1.265,1.265,0,0,0,.147.718c.1.131.26.132.485,0l1.175-.679a.215.215,0,0,1,.279.019.486.486,0,0,1,.117.363v2.285a1.147,1.147,0,0,1-.117.5.742.742,0,0,1-.279.342l-1.4.806a2.759,2.759,0,0,1-1.257.419,1.327,1.327,0,0,1-.962-.326,2.258,2.258,0,0,1-.616-1.045,5.87,5.87,0,0,1-.22-1.74v-3.8l-1.087.628a.213.213,0,0,1-.279-.02.484.484,0,0,1-.117-.362v-2.284a1.166,1.166,0,0,1,.117-.5.752.752,0,0,1,.279-.342l1.087-.627v-3.687a1.161,1.161,0,0,1,.117-.5.745.745,0,0,1,.28-.342l1.851-1.069a.215.215,0,0,1,.279.019.488.488,0,0,1,.117.362v3.687l1.661-.958a.215.215,0,0,1,.279.02.485.485,0,0,1,.117.362v2.284a1.163,1.163,0,0,1-.117.5.758.758,0,0,1-.279.342l-1.661.958Z" transform="translate(-241.872 -105.36)" fill="#455a64"/>
              <path id="Trazado_92062" data-name="Trazado 92062" d="M273.545,150.678a2.254,2.254,0,0,1-.749.3,1.293,1.293,0,0,1-.558-.017,1.017,1.017,0,0,1-.4-.212,1.745,1.745,0,0,1-.263-.288v4.818a1.164,1.164,0,0,1-.118.5.748.748,0,0,1-.279.342l-1.852,1.07a.212.212,0,0,1-.279-.021.48.48,0,0,1-.118-.361V141.964a1.159,1.159,0,0,1,.118-.5.746.746,0,0,1,.279-.342l1.778-1.027a.213.213,0,0,1,.279.02.481.481,0,0,1,.117.361V141c.088-.2.184-.415.287-.639a4.084,4.084,0,0,1,.381-.662,4.373,4.373,0,0,1,.558-.639,4.3,4.3,0,0,1,.816-.6,2.868,2.868,0,0,1,1.25-.416,1.378,1.378,0,0,1,1.028.357,2.72,2.72,0,0,1,.712,1.206,7.421,7.421,0,0,1,.3,2.133q.015.331.015.907c0,.385-.005.692-.015.925a11.668,11.668,0,0,1-.3,2.481,9.787,9.787,0,0,1-.712,2.029,6.808,6.808,0,0,1-1.028,1.555A5.154,5.154,0,0,1,273.545,150.678Zm.662-5.856a9.488,9.488,0,0,0,0-1.266,2.281,2.281,0,0,0-.338-1.185q-.294-.417-.984-.019a1.969,1.969,0,0,0-.558.481,2.863,2.863,0,0,0-.389.643,4.086,4.086,0,0,0-.243.717,4.659,4.659,0,0,0-.117.723c-.021.238-.029.507-.029.809s.009.56.029.774a2.574,2.574,0,0,0,.117.589,1.2,1.2,0,0,0,.243.436.575.575,0,0,0,.389.194.972.972,0,0,0,.558-.163,2.226,2.226,0,0,0,.984-1.156A5.08,5.08,0,0,0,274.207,144.822Z" transform="translate(-245.603 -104.773)" fill="#455a64"/>
              <path id="Trazado_92063" data-name="Trazado 92063" d="M285.483,135.814a1.152,1.152,0,0,1-.117.5.751.751,0,0,1-.28.343l-1.924,1.11a.212.212,0,0,1-.279-.021.479.479,0,0,1-.117-.361V134.42a1.161,1.161,0,0,1,.117-.5.731.731,0,0,1,.279-.342l1.924-1.111a.214.214,0,0,1,.28.019.486.486,0,0,1,.117.362Zm0,7.917a1.149,1.149,0,0,1-.117.5.738.738,0,0,1-.28.342l-1.924,1.111a.212.212,0,0,1-.279-.019.483.483,0,0,1-.117-.362v-2.963a1.159,1.159,0,0,1,.117-.5.745.745,0,0,1,.279-.342l1.924-1.111a.215.215,0,0,1,.28.019.485.485,0,0,1,.117.363Z" transform="translate(-250.166 -102.92)" fill="#455a64"/>
              <path id="Trazado_92064" data-name="Trazado 92064" d="M293.5,118.37a3.047,3.047,0,0,1,.22-.59,1.058,1.058,0,0,1,.427-.461l1.821-1.052a.174.174,0,0,1,.228.016.4.4,0,0,1,.1.3,1,1,0,0,1-.029.22l-4.95,21.157a2.911,2.911,0,0,1-.206.571,1.072,1.072,0,0,1-.441.48l-1.793,1.035a.174.174,0,0,1-.228-.015.391.391,0,0,1-.1-.295,1.043,1.043,0,0,1,.029-.221Z" transform="translate(-252.076 -97.578)" fill="#455a64"/>
              <path id="Trazado_92065" data-name="Trazado 92065" d="M301.025,114.028a3.009,3.009,0,0,1,.22-.59,1.052,1.052,0,0,1,.426-.461l1.821-1.051a.173.173,0,0,1,.228.015.4.4,0,0,1,.1.3,1,1,0,0,1-.03.22l-4.95,21.157a2.877,2.877,0,0,1-.206.571,1.075,1.075,0,0,1-.441.48L296.4,135.7a.173.173,0,0,1-.227-.015.394.394,0,0,1-.1-.3,1.008,1.008,0,0,1,.029-.221Z" transform="translate(-254.556 -96.146)" fill="#455a64"/>
              <path id="Trazado_92066" data-name="Trazado 92066" d="M314.64,113.241c.147-.084.259-.088.338-.013a.6.6,0,0,1,.162.269L316.227,118l1.088-5.762a2.063,2.063,0,0,1,.162-.456.83.83,0,0,1,.338-.376l1.821-1.052a.191.191,0,0,1,.25.015.434.434,0,0,1,.1.325,1.246,1.246,0,0,1-.014.189l-2.336,11.822a2.129,2.129,0,0,1-.154.472.794.794,0,0,1-.331.373l-1.675.966c-.147.084-.255.087-.324.005a.919.919,0,0,1-.162-.292l-1.043-4.147-1.043,5.352a3.245,3.245,0,0,1-.161.477.759.759,0,0,1-.324.369l-1.675.966q-.219.128-.33.01a.653.653,0,0,1-.153-.3l-2.337-9.124a1.015,1.015,0,0,1-.015-.172,1.038,1.038,0,0,1,.1-.444.656.656,0,0,1,.249-.3l1.822-1.052c.147-.084.259-.088.338-.013a.589.589,0,0,1,.161.269l1.087,4.507,1.088-5.762a2.11,2.11,0,0,1,.162-.455.834.834,0,0,1,.337-.377Z" transform="translate(-258.461 -95.627)" fill="#455a64"/>
              <path id="Trazado_92067" data-name="Trazado 92067" d="M333.626,102.28c.147-.085.259-.089.338-.014a.593.593,0,0,1,.161.269l1.088,4.506,1.088-5.762a2.059,2.059,0,0,1,.162-.455.828.828,0,0,1,.338-.377l1.821-1.051a.19.19,0,0,1,.25.014.438.438,0,0,1,.1.325,1.335,1.335,0,0,1-.014.189l-2.336,11.822a2.144,2.144,0,0,1-.154.473.792.792,0,0,1-.331.373l-1.675.966c-.146.085-.254.087-.322.005a.886.886,0,0,1-.161-.291l-1.043-4.147-1.043,5.352a3.059,3.059,0,0,1-.162.478.751.751,0,0,1-.323.368l-1.675.967c-.147.085-.257.088-.33.009a.639.639,0,0,1-.155-.295l-2.336-9.124a1,1,0,0,1,.089-.617.645.645,0,0,1,.249-.3l1.821-1.052c.147-.085.259-.089.338-.014a.588.588,0,0,1,.162.269l1.087,4.506,1.088-5.762a2.07,2.07,0,0,1,.161-.455.826.826,0,0,1,.338-.377Z" transform="translate(-264.724 -92.011)" fill="#455a64"/>
              <path id="Trazado_92068" data-name="Trazado 92068" d="M352.612,91.319c.146-.085.259-.089.338-.015a.606.606,0,0,1,.162.269l1.087,4.507,1.088-5.763a2.055,2.055,0,0,1,.161-.455.826.826,0,0,1,.338-.376l1.821-1.052a.191.191,0,0,1,.25.014.439.439,0,0,1,.1.326,1.318,1.318,0,0,1-.014.188l-2.337,11.822a2.163,2.163,0,0,1-.154.474.794.794,0,0,1-.331.372l-1.675.967c-.147.085-.255.086-.324.005a.933.933,0,0,1-.161-.291l-1.043-4.147-1.042,5.352a3.165,3.165,0,0,1-.162.478.755.755,0,0,1-.324.368l-1.675.967q-.22.127-.33.009a.653.653,0,0,1-.154-.295L345.9,95.919a.945.945,0,0,1-.015-.172,1.031,1.031,0,0,1,.1-.444.661.661,0,0,1,.249-.3l1.822-1.051c.147-.085.259-.089.339-.015a.6.6,0,0,1,.161.269l1.087,4.507,1.088-5.762a2.114,2.114,0,0,1,.161-.455.83.83,0,0,1,.338-.376Z" transform="translate(-270.987 -88.395)" fill="#455a64"/>
              <path id="Trazado_92069" data-name="Trazado 92069" d="M367.412,100.326a1.155,1.155,0,0,1-.118.5.738.738,0,0,1-.279.342l-1.925,1.111a.213.213,0,0,1-.279-.019.483.483,0,0,1-.117-.362V98.932a1.159,1.159,0,0,1,.117-.5.746.746,0,0,1,.279-.342l1.925-1.111a.212.212,0,0,1,.279.02.483.483,0,0,1,.118.362Z" transform="translate(-277.192 -91.214)" fill="#455a64"/>
            </g>
          </g>
          <g id="World" transform="translate(0 47.623)">
            <g id="Check">
              <g id="Circle">
                <path id="Trazado_92070" data-name="Trazado 92070" d="M175.526,132.089v0l-.052-.032-.005,0-13.407-7.959-.012-.007-.074-.046v0c-5.9-3.56-13.784-3-22.258,2.534-17.025,11.117-30,38.079-28.976,60.222.509,11.037,4.4,18.792,10.283,22.419v0l.052.031.006,0,13.409,7.961.005,0,.062.038v0c5.906,3.57,13.792,3.012,22.273-2.526,17.025-11.116,30-38.079,28.977-60.222C185.3,143.47,181.408,135.716,175.526,132.089Z" transform="translate(-110.684 -121.8)" fill="#37474f"/>
                <path id="Trazado_92071" data-name="Trazado 92071" d="M134.06,233.745l-12.975-7.688h-.009l-.057-.04c-5.879-3.636-9.768-11.391-10.277-22.412-.456-9.876,1.877-20.7,6.1-30.651l.085-.218,13.326,8.177c-4.232,9.948-6.556,20.776-6.1,30.651C124.65,222.363,128.388,230.018,134.06,233.745Z" transform="translate(-110.684 -138.602)" fill="#263238"/>
                <path id="Trazado_92072" data-name="Trazado 92072" d="M163.435,218.649c17.025-11.116,30-38.079,28.976-60.222s-15.651-31.082-32.676-19.965-30,38.078-28.976,60.222S146.411,229.765,163.435,218.649Z" transform="translate(-117.287 -125.72)" fill="#455a64"/>
              </g>
            </g>
            <g id="Grupo_39350" data-name="Grupo 39350" transform="translate(21.753 18.873)">
              <g id="Grupo_39343" data-name="Grupo 39343">
                <path id="Trazado_92073" data-name="Trazado 92073" d="M157.931,218.172a12.577,12.577,0,0,1-6.347-1.659c-5.363-3.085-8.44-10.158-8.44-19.4,0-17.013,10.343-36.87,23.055-44.265,5.781-3.363,11.428-3.8,15.9-1.222,5.363,3.084,8.44,10.157,8.44,19.4,0,17.012-10.343,36.868-23.054,44.264A19.193,19.193,0,0,1,157.931,218.172Zm17.822-65.638a16.667,16.667,0,0,0-8.265,2.526c-12.009,6.985-21.78,25.849-21.78,42.049,0,8.3,2.608,14.568,7.154,17.183,3.648,2.1,8.384,1.667,13.338-1.216,12.009-6.987,21.779-25.85,21.779-42.049,0-8.306-2.607-14.568-7.154-17.183A10.048,10.048,0,0,0,175.753,152.534Z" transform="translate(-143.145 -149.964)" fill="#00926e"/>
              </g>
              <g id="Grupo_39346" data-name="Grupo 39346" transform="translate(6.866 3.25)">
                <g id="Grupo_39344" data-name="Grupo 39344" transform="translate(0.262)">
                  <path id="Trazado_92074" data-name="Trazado 92074" d="M161.437,177.232a12.167,12.167,0,0,1-7.655-2.634l1.186-1.513c3.916,3.069,9.21,2.936,14.9-.376,5.9-3.432,11.441-9.788,15.606-17.9l1.711.878c-4.332,8.432-10.138,15.066-16.35,18.68A18.9,18.9,0,0,1,161.437,177.232Z" transform="translate(-153.782 -154.814)" fill="#00926e"/>
                </g>
                <g id="Grupo_39345" data-name="Grupo 39345" transform="translate(0 39.29)">
                  <path id="Trazado_92075" data-name="Trazado 92075" d="M155.1,235.862l-1.711-.879c4.33-8.431,10.137-15.064,16.35-18.679,6.421-3.734,12.476-3.814,17.054-.228l-1.185,1.513c-3.918-3.068-9.21-2.934-14.9.377C164.809,221.4,159.266,227.753,155.1,235.862Z" transform="translate(-153.391 -213.444)" fill="#00926e"/>
                </g>
              </g>
              <g id="Grupo_39347" data-name="Grupo 39347" transform="translate(11.297 2.293)">
                <path id="Trazado_92076" data-name="Trazado 92076" d="M169.924,217.007a5.156,5.156,0,0,1-2.6-.718c-4.518-2.6-7.324-11.962-7.324-24.437,0-17.2,5.235-33.714,11.919-37.6a5.3,5.3,0,0,1,5.562-.146c4.517,2.6,7.323,11.962,7.323,24.438,0,17.2-5.235,33.714-11.918,37.6A5.884,5.884,0,0,1,169.924,217.007Zm4.959-61.7a3.961,3.961,0,0,0-1.994.6c-5.943,3.457-10.963,19.915-10.963,35.94,0,13.2,3.194,20.95,6.359,22.77a3.393,3.393,0,0,0,3.637-.141c5.943-3.457,10.963-19.916,10.963-35.94,0-13.2-3.194-20.95-6.36-22.771A3.258,3.258,0,0,0,174.883,155.308Z" transform="translate(-160.003 -153.385)" fill="#00926e"/>
              </g>
              <g id="Grupo_39348" data-name="Grupo 39348" transform="translate(22.738 3.988)">
                <rect id="Rect치ngulo_27586" data-name="Rect치ngulo 27586" width="1.923" height="60.232" fill="#00926e"/>
              </g>
              <g id="Grupo_39349" data-name="Grupo 39349" transform="translate(0.8 20.23)">
                <rect id="Rect치ngulo_27587" data-name="Rect치ngulo 27587" width="51.868" height="1.923" transform="translate(0 26.087) rotate(-30.195)" fill="#00926e"/>
              </g>
            </g>
          </g>
        </g>
      </g>
      <g id="Cursor" transform="translate(205.215 70.594)">
        <g id="Cursor-2" data-name="Cursor">
          <g id="Grupo_39351" data-name="Grupo 39351" transform="translate(0)">
            <path id="Trazado_92077" data-name="Trazado 92077" d="M397.866,131.933a2.068,2.068,0,0,0-.8-.933h0l-2-1.153v.005a2.561,2.561,0,0,0-2.493.34l-1.246-.72h0c-1.513-.913-3.615,1-4.086,1.456l-.539-.311h0a2.729,2.729,0,0,0-2.538.276v-7.261a1.822,1.822,0,0,0-.716-1.636h0l-.021-.012-.034-.019-1.96-1.134,0,0-.013-.008h0a1.809,1.809,0,0,0-1.8.187,5.667,5.667,0,0,0-2.564,4.441v22.243q-.153-.074-.306-.142c-1.752-1.235-3.591-1.969-5.216-1.68a5.537,5.537,0,0,0-3.337,2.3c-.848,1.494.552,2.433,2.354,4.494,1.786,2.043,3.362,4.5,4.989,6.02a8.794,8.794,0,0,0,2.807,1.913v2.91l1.98,1.143,15.064-8.7v-2.91s1.87-7.452,2.467-10.567S399.015,134.322,397.866,131.933Z" transform="translate(-367.952 -120.659)" fill="#27debf"/>
            <path id="Trazado_92078" data-name="Trazado 92078" d="M397.866,131.933a2.068,2.068,0,0,0-.8-.933h0l-2-1.153v.005a2.561,2.561,0,0,0-2.493.34l-1.246-.72h0c-1.513-.913-3.615,1-4.086,1.456l-.539-.311h0a2.729,2.729,0,0,0-2.538.276v-7.261a1.822,1.822,0,0,0-.716-1.636h0l-.021-.012-.034-.019-1.96-1.134,0,0-.013-.008h0a1.809,1.809,0,0,0-1.8.187,5.667,5.667,0,0,0-2.564,4.441v22.243q-.153-.074-.306-.142c-1.752-1.235-3.591-1.969-5.216-1.68a5.537,5.537,0,0,0-3.337,2.3c-.848,1.494.552,2.433,2.354,4.494,1.786,2.043,3.362,4.5,4.989,6.02a8.794,8.794,0,0,0,2.807,1.913v2.91l1.98,1.143,15.064-8.7v-2.91s1.87-7.452,2.467-10.567S399.015,134.322,397.866,131.933Z" transform="translate(-367.952 -120.659)" fill="#fff" opacity="0.8"/>
          </g>
          <path id="Trazado_92079" data-name="Trazado 92079" d="M384.172,133.276v2.463l0,0a10.788,10.788,0,0,1,1.935-1.323Zm9.1-1.071a4.368,4.368,0,0,0-.69.345l.639.372a2.274,2.274,0,0,1,.947,1.039,4.63,4.63,0,0,1,1.14-.639Zm-4.687.023a8.473,8.473,0,0,0-1.338,1.057l1.305.759a.574.574,0,0,1,.073.041,1.469,1.469,0,0,1,.506.442l0,0a8.467,8.467,0,0,1,1.388-1.126Zm-11.522-4.421v22.244a12.749,12.749,0,0,1,1.98,1.222V128.952Zm7.1,5.465.009,0v-.023Zm-6.636,28.916c-1.626-1.517-3.2-3.975-4.986-6.02-1.691-1.935-3.033-2.882-2.481-4.228l-1.981-1.145c-.551,1.346.786,2.293,2.482,4.233,1.787,2.041,3.359,4.5,4.986,6.02a8.857,8.857,0,0,0,2.808,1.912v2.909l1.981,1.145V164.1A8.78,8.78,0,0,1,377.527,162.188Z" transform="translate(-367.952 -123.017)" fill="#27debf" opacity="0.2"/>
          <path id="Trazado_92080" data-name="Trazado 92080" d="M384.172,133.276v2.463l0,0a10.788,10.788,0,0,1,1.935-1.323Zm9.1-1.071a4.368,4.368,0,0,0-.69.345l.639.372a2.274,2.274,0,0,1,.947,1.039,4.63,4.63,0,0,1,1.14-.639Zm-4.687.023a8.473,8.473,0,0,0-1.338,1.057l1.305.759a.574.574,0,0,1,.073.041,1.469,1.469,0,0,1,.506.442l0,0a8.467,8.467,0,0,1,1.388-1.126Zm-11.522-4.421v22.244a12.749,12.749,0,0,1,1.98,1.222V128.952Zm7.1,5.465.009,0v-.023Zm-6.636,28.916c-1.626-1.517-3.2-3.975-4.986-6.02-1.691-1.935-3.033-2.882-2.481-4.228l-1.981-1.145c-.551,1.346.786,2.293,2.482,4.233,1.787,2.041,3.359,4.5,4.986,6.02a8.857,8.857,0,0,0,2.808,1.912v2.909l1.981,1.145V164.1A8.78,8.78,0,0,1,377.527,162.188Z" transform="translate(-367.952 -123.017)" opacity="0.1"/>
          <g id="Grupo_39352" data-name="Grupo 39352" transform="translate(1.98 1.142)">
            <path id="Trazado_92081" data-name="Trazado 92081" d="M381.309,165.216v-2.91a8.793,8.793,0,0,1-2.806-1.913c-1.627-1.518-3.2-3.978-4.989-6.021-1.8-2.061-3.2-3-2.353-4.493a5.536,5.536,0,0,1,3.336-2.3c1.719-.306,3.678.533,5.521,1.9V127.154a5.667,5.667,0,0,1,2.564-4.44h0c1.416-.818,2.564-.155,2.564,1.48v9.749s3.532-3.137,4.96-1.213c0,0,3.471-3.636,5.038-.565,0,0,2.548-2.058,3.7.33s.6,7.432,0,10.546-2.467,10.567-2.467,10.567v2.91Z" transform="translate(-370.907 -122.363)" fill="#00223d"/>
          </g>
          <g id="Grupo_39353" data-name="Grupo 39353" transform="translate(16.211 10.306)" opacity="0.1">
            <path id="Trazado_92083" data-name="Trazado 92083" d="M392.151,143.18s.322-4.448,1.956-5.506l-.058.017a10.692,10.692,0,0,0-1.9,1.3v-.084a.1.1,0,0,0,0,.084Z" transform="translate(-392.143 -136.578)"/>
            <path id="Trazado_92084" data-name="Trazado 92084" d="M399.557,137.278v4.07s.451-4.184,1.389-5.2A8.386,8.386,0,0,0,399.557,137.278Z" transform="translate(-394.589 -136.076)"/>
            <path id="Trazado_92085" data-name="Trazado 92085" d="M407.075,136.675h0v4.084s.249-4.115,1.135-4.722A4.6,4.6,0,0,0,407.075,136.675Z" transform="translate(-397.069 -136.038)"/>
          </g>
        </g>
      </g>
      <g id="Character" transform="translate(153.821 113.079)">
        <g id="Character-2" data-name="Character">
          <path id="Shadow-2" data-name="Shadow" d="M329.963,310.275c-11.574,5.768-16.828,11.827-10.836,16.072s22.3,9.994,22.3,9.994l2.138,7.186,23.686-13.675v-8.135s-14.614-10.075-20.321-12.016S336.746,306.895,329.963,310.275Z" transform="translate(-299.629 -224.94)" opacity="0.15"/>
          <g id="Character-3" data-name="Character">
            <g id="Grupo_39362" data-name="Grupo 39362" transform="translate(12.103 71.879)">
              <g id="Grupo_39356" data-name="Grupo 39356" transform="translate(34.477 48.09)">
                <path id="Trazado_92086" data-name="Trazado 92086" d="M378.885,365.125s-3.577,8.768-3.759,12.226c-.19,3.6-1.062,4.8-.45,8.718.133.854.582,2.565.693,3.259a1.022,1.022,0,0,1-.925,1.278c-1.564.324-4.162-2.613-5.4-5.811a94.526,94.526,0,0,1-3.1-11.27,4.93,4.93,0,0,1,.495-2.523,7.546,7.546,0,0,1,.719-1.306c.517-1.569.765-4.552,1.2-6.615Z" transform="translate(-362.471 -363.081)" fill="#ffa8a7"/>
                <g id="Grupo_39355" data-name="Grupo 39355" transform="translate(0 6.612)">
                  <path id="Trazado_92087" data-name="Trazado 92087" d="M361.19,383.568a3.712,3.712,0,0,0-.419,1.181c-.038.718,1.586,3.087,2.223,3.95a5.771,5.771,0,0,1,1.172,4.1,9.962,9.962,0,0,0,2.409,6.414,15.815,15.815,0,0,0,7.861,5.145c3.8,1.169,5.135-.734,5.135-.734s1.177-1.832.469-2.583S361.19,383.568,361.19,383.568Z" transform="translate(-360.77 -376.451)" fill="#263238"/>
                  <path id="Trazado_92088" data-name="Trazado 92088" d="M365.668,372.951c-.116,0-.32-.037-.617.322-.113.135-.806,1.843-1.38,2.739-.615.96-2.082,2.6-2.275,4.054.879,2.815,3.519,4.773,3.915,7.43s.442,5.742,4.525,8.993,8.282,3.588,9.791,2.727,1.37-2.477-.733-5.557c-2.232-3.268-3.736-10.349-3.737-10.352a23.445,23.445,0,0,1-.395-3.012,19.818,19.818,0,0,1,.281-2.981,2.211,2.211,0,0,0-.19-1.35,2.287,2.287,0,0,0-1.123-.777,9.947,9.947,0,0,0-2.1-.711,3.337,3.337,0,0,0-2.162.262c-.471.253-.856.657-1.35.862a1.936,1.936,0,0,1-2.006-.359,1.657,1.657,0,0,1-.542-1.843A4.188,4.188,0,0,1,365.668,372.951Z" transform="translate(-360.977 -372.948)" fill="#455a64"/>
                  <path id="Trazado_92089" data-name="Trazado 92089" d="M370.429,402.61a6.506,6.506,0,0,1,5.918-3.2c4.336.017,5.837,2.223,6.5,3.521.785,1.545,1.6,4.346-.186,5.149-1.933.868-4.172.6-7.692-1.165A9.39,9.39,0,0,1,370.429,402.61Z" transform="translate(-363.956 -381.677)" fill="#fafafa"/>
                  <g id="Grupo_39354" data-name="Grupo 39354" transform="translate(7.004 6.593)">
                    <path id="Trazado_92090" data-name="Trazado 92090" d="M371.48,384.065a.445.445,0,0,0,.4,0c.67-.342,4.214-1.083,6.278.832.267-.214.212-.607-.129-1.159a7.954,7.954,0,0,0-6.579-.437.412.412,0,0,0-.168.576A.455.455,0,0,0,371.48,384.065Z" transform="translate(-371.221 -382.786)" fill="#fafafa"/>
                    <path id="Trazado_92091" data-name="Trazado 92091" d="M378.909,388.741a1.341,1.341,0,0,0-.25-1.191,8.108,8.108,0,0,0-6.274-.252.412.412,0,0,0-.168.576.458.458,0,0,0,.6.187C373.465,387.73,376.827,387.03,378.909,388.741Z" transform="translate(-371.531 -384.104)" fill="#fafafa"/>
                    <path id="Trazado_92092" data-name="Trazado 92092" d="M381.3,397.239a2.466,2.466,0,0,0-.554-1.569,8.019,8.019,0,0,0-6.481-.374.411.411,0,0,0-.168.576.456.456,0,0,0,.6.187C375.4,395.7,379.305,394.895,381.3,397.239Z" transform="translate(-372.15 -386.743)" fill="#fafafa"/>
                    <path id="Trazado_92093" data-name="Trazado 92093" d="M373.357,392.062a.449.449,0,0,0,.4,0c.662-.338,4.133-1.061,6.206.773a1.518,1.518,0,0,0-.362-1.284,8.108,8.108,0,0,0-6.274-.252.413.413,0,0,0-.168.576A.462.462,0,0,0,373.357,392.062Z" transform="translate(-371.84 -385.423)" fill="#fafafa"/>
                  </g>
                </g>
              </g>
              <g id="Grupo_39359" data-name="Grupo 39359" transform="translate(45.841 60.901)">
                <path id="Trazado_92094" data-name="Trazado 92094" d="M386.63,382.2s1.773,10.694,3.745,14.844,2.985,6.153,5.7,9.292c.591.684,1.939,1.954,2.422,2.508a1.069,1.069,0,0,1-.113,1.647c-1.208,1.155-6.329,1.429-9.2-.722s-5.483-6.734-7.194-8.465c-.643-.651-1.248-1.315-1.824-2.022-.555-.68-.4-1.327-.452-2.089-.023-.369.029-1.374.029-1.374-.392-1.8-1.455-4.627-2.019-6.382Z" transform="translate(-377.727 -382.199)" fill="#ffa8a7"/>
                <g id="Grupo_39358" data-name="Grupo 39358" transform="translate(0.842 11.564)">
                  <path id="Trazado_92095" data-name="Trazado 92095" d="M379.228,414.579a3.9,3.9,0,0,0,.131,1.3c.286.7,2.88,2.213,3.868,2.745a6.037,6.037,0,0,1,2.939,3.353,10.423,10.423,0,0,0,5.145,4.995,16.547,16.547,0,0,0,9.736,1.356c4.115-.59,4.531-2.988,4.531-2.988s.3-2.26-.71-2.654S379.228,414.579,379.228,414.579Z" transform="translate(-379.062 -404.445)" fill="#263238"/>
                  <path id="Trazado_92096" data-name="Trazado 92096" d="M380.014,400.95c-.111.047-.318.107-.44.58-.046.179.062,2.1-.082,3.209-.153,1.182-.81,3.388-.342,4.852,2.089,2.27,5.462,2.945,7.024,5.282s2.982,5.236,8.3,6.489,9.44-.3,10.484-1.793.19-2.957-3.175-4.931c-3.573-2.1-8.159-8.124-8.161-8.127a24.669,24.669,0,0,1-1.719-2.674,20.867,20.867,0,0,1-1.065-2.947,2.312,2.312,0,0,0-.783-1.192,2.392,2.392,0,0,0-1.409-.233,10.436,10.436,0,0,0-2.3.264,3.493,3.493,0,0,0-1.929,1.214,16.617,16.617,0,0,1-.893,1.419,2.022,2.022,0,0,1-2.057.556,1.734,1.734,0,0,1-1.337-1.5A4.436,4.436,0,0,1,380.014,400.95Z" transform="translate(-378.984 -399.456)" fill="#455a64"/>
                  <path id="Trazado_92097" data-name="Trazado 92097" d="M396.989,426.792a6.805,6.805,0,0,1,4.17-5.672c4.111-1.921,6.516-.5,7.72.43,1.433,1.111,3.459,3.4,2.124,4.956-1.441,1.685-3.68,2.43-7.8,2.333A9.822,9.822,0,0,1,396.989,426.792Z" transform="translate(-384.923 -406.287)" fill="#fafafa"/>
                  <g id="Grupo_39357" data-name="Grupo 39357" transform="translate(6.514 4.516)">
                    <path id="Trazado_92098" data-name="Trazado 92098" d="M389.169,409.471a.467.467,0,0,0,.373-.178c.482-.623,3.5-2.907,6.313-2.017.157-.322-.07-.669-.64-1.039a8.325,8.325,0,0,0-6.42,2.525.431.431,0,0,0,.1.621A.472.472,0,0,0,389.169,409.471Z" transform="translate(-388.704 -406.195)" fill="#fafafa"/>
                    <path id="Trazado_92099" data-name="Trazado 92099" d="M398.288,410.575a1.4,1.4,0,0,0-.769-1.016,8.488,8.488,0,0,0-6.05,2.565.433.433,0,0,0,.1.621.482.482,0,0,0,.276.088.47.47,0,0,0,.373-.179C392.684,412.05,395.553,409.887,398.288,410.575Z" transform="translate(-389.586 -407.302)" fill="#fafafa"/>
                    <path id="Trazado_92100" data-name="Trazado 92100" d="M404.342,417.551a2.578,2.578,0,0,0-1.226-1.237,8.39,8.39,0,0,0-6.3,2.541.432.432,0,0,0,.1.62.48.48,0,0,0,.276.088.466.466,0,0,0,.373-.179C398.072,418.728,401.411,416.222,404.342,417.551Z" transform="translate(-391.351 -409.523)" fill="#fafafa"/>
                    <path id="Trazado_92101" data-name="Trazado 92101" d="M394.517,416.2a.468.468,0,0,0,.373-.179c.477-.615,3.438-2.849,6.218-2.041a1.588,1.588,0,0,0-.916-1.053,8.479,8.479,0,0,0-6.05,2.565.432.432,0,0,0,.1.62A.482.482,0,0,0,394.517,416.2Z" transform="translate(-390.469 -408.412)" fill="#fafafa"/>
                  </g>
                </g>
              </g>
              <g id="Grupo_39360" data-name="Grupo 39360" transform="translate(27.148)">
                <path id="Trazado_92102" data-name="Trazado 92102" d="M353.833,291.319c4.385,3.213,19.655,12.029,25.856,17.768,1.791,1.658,2.381,3.84,1.94,8.6-.6,6.456-5.671,28.458-5.671,28.458-.7,1.242-1.928-1.114-1.928-1.114l-24.2-30.719Z" transform="translate(-349.832 -291.319)" fill="#37a3a5"/>
                <path id="Trazado_92104" data-name="Trazado 92104" d="M375.591,341.977c-5.6-4.678-23.684-33.214-23.684-33.214l.009-.009c2.463-2.081,3.733-9.3,3.733-9.3.976,2.784-.055,6.982-.813,8.516,1.424,1.233,9.471,7.851,15.06,12.275a7.99,7.99,0,0,1,3.315,5.005C374.364,331.307,375.723,340.753,375.591,341.977Z" transform="translate(-350.516 -294.004)" opacity="0.3"/>
              </g>
              <g id="Grupo_39361" data-name="Grupo 39361">
                <path id="Trazado_92105" data-name="Trazado 92105" d="M340.469,291.319h0l-31.148,6.9c1.521,5.718,1.955,8.67,3.542,11.681s3.357,6.242,11.459,10.231c7.8,3.841,17.328,7.8,19.233,8.7,1.436.684,2.121,3.556,2.771,7.28.68,3.906.742,6.963,4.606,15.16,3.783,8.027,4.556,9.761,4.556,9.761s5.854.609,9.739-2.809c0,0-5.3-27.52-6.431-32.474-.631-2.768-.645-4.226-4.08-7.267-2.946-2.607-16.1-12.564-16.1-12.564S343.841,298.9,340.469,291.319Z" transform="translate(-309.321 -291.319)" fill="#37a3a5"/>
              </g>
            </g>
            <g id="Grupo_39363" data-name="Grupo 39363" transform="translate(38.368 19.523)">
              <path id="Trazado_92107" data-name="Trazado 92107" d="M389.5,213.8a2.982,2.982,0,0,0-1.543.31,9.688,9.688,0,0,0-1.579,1.029q-1.162.855-2.383,1.626a6.615,6.615,0,0,1-2.349,1.11c-.289.048-.9.058-.589-.381a12.363,12.363,0,0,0,1.177-1.747,2.533,2.533,0,0,0,.174-2.039.866.866,0,0,0-.4-.474c-.273-.125-.411.02-.568.2a5.719,5.719,0,0,1-.549.515c-.389.343-.777.688-1.161,1.036-2.241,2.035-4.966,3.8-5.925,6.741a18.112,18.112,0,0,0-.794,5.594c-.02,3.229-.211,14.468-.211,14.468s-8.926-7.507-12.8-10.743c-1.866-1.56-4.475-3.454-7.35-3.727-2.034-.193-3.221-.181-3.221-.181L355.52,241.9s11.511,8.564,17.031,11.513c4.981,2.661,7.4.744,8.005-.652,1-2.315,2.022-3.4.617-16.319-.1-1-.225-3.86-.337-4.858-.145-2.085.091-4.2.9-4.657a24.526,24.526,0,0,0,4.223-2.865,12.766,12.766,0,0,0,2.232-2.509,3.929,3.929,0,0,0,.764-1.441c.05-.486-.163-1-.016-1.48.1-.327.321-.594.4-.944a5.515,5.515,0,0,1,.56-2.146c.249-.339.663-.645.606-1.061a.869.869,0,0,0-.716-.624A2.045,2.045,0,0,0,389.5,213.8Z" transform="translate(-348.817 -213.191)" fill="#ffa8a7"/>
              <path id="Trazado_92108" data-name="Trazado 92108" d="M394.494,222.47a9.354,9.354,0,0,1-2.327,4.648,5.474,5.474,0,0,0,1.978-2.005A3.094,3.094,0,0,0,394.494,222.47Z" transform="translate(-362.915 -216.252)" fill="#f28f8f"/>
              <path id="Trazado_92109" data-name="Trazado 92109" d="M348.515,233.559c3.107.135,5.529.2,8.178,1.734s14.479,11.432,14.479,11.432.117-5.041.419-7.7c.21-1.841.515-2.42,1.09-2.329,0,0,1.026,1.573,3.933,1.791s3.884-.988,3.884-.988.848-.2,1.153.988.853,14.067.323,17.778-2.193,5.435-4.422,5.958-7.4-2.6-13.6-6.774-12.942-8.062-12.942-8.062Z" transform="translate(-348.515 -219.91)" fill="#00223d"/>
              <path id="Trazado_92111" data-name="Trazado 92111" d="M381.612,252.631a24.471,24.471,0,0,0,.255,7.23s-2.269-4.384-1.57-8.4Z" transform="translate(-358.955 -225.816)" opacity="0.1"/>
            </g>
            <g id="Grupo_39369" data-name="Grupo 39369" transform="translate(10.24)">
              <path id="Trazado_92112" data-name="Trazado 92112" d="M309.126,236.148c-.513,2.715-5.671,28.513.2,47.752,10.564,1.246,29.117-3.6,31.9-10.6,0,0-1.874-6.634-2.687-9.878.172-5.322,0-15.479-.109-18.623-.213-6.228-1.185-11.046-4.275-11.5,0,0-6.2-.245-9.959-.092-3.243.133-5.681.168-5.681.168Z" transform="translate(-306.54 -200.255)" fill="#fafafa"/>
              <path id="Trazado_92113" data-name="Trazado 92113" d="M324.642,280.144c-.682-1.514-13.222-9.256-13.222-9.256s.191-3.586.937-10.185.968-14.506-1.411-18.481l-2.4.093c-1.356,8-4.113,28.557.772,44.574,5.632.664,13.535-.4,20.108-2.607C328.217,283.469,325.186,281.35,324.642,280.144Z" transform="translate(-306.54 -203.244)" fill="#f0f0f0"/>
              <g id="Grupo_39368" data-name="Grupo 39368" transform="translate(5.643)">
                <path id="Trazado_92114" data-name="Trazado 92114" d="M320.332,211.672c.021-1.335-2.538-5.323-3.7-8.476-1.937-5.275-2.106-10.01,2.674-12.065,0,0,2.988-5.153,10.523-5.41s13.326,6.1,10.823,14.607Z" transform="translate(-315.094 -184.604)" fill="#455a64"/>
                <g id="Grupo_39366" data-name="Grupo 39366" transform="translate(0 8.862)">
                  <g id="Grupo_39364" data-name="Grupo 39364">
                    <path id="Trazado_92115" data-name="Trazado 92115" d="M322.062,207.34c-.984,0-1.342-1.413-2.017-2.171a2.913,2.913,0,0,0-4.5.56c-1.392,2.015-.039,4.919,1.48,6.043a2.382,2.382,0,0,0,3.233.05l-.173,10.648s.339,2.361,4.688,3.731c5.023,1.583,9.112-1.061,6.12-4.376l.111-2.805a14.45,14.45,0,0,0,4.856.271c1.676-.255,3.018-1.516,3.879-4.1,1.681-5.043,1.214-11.768-.521-17.908-1.657,1.311-9.328,3.769-16.236,1.332C323.226,202.855,323.023,207.34,322.062,207.34Z" transform="translate(-314.961 -197.282)" fill="#ffa8a7"/>
                    <path id="Trazado_92116" data-name="Trazado 92116" d="M320.869,216.889a.623.623,0,1,1-.623-.623A.623.623,0,0,1,320.869,216.889Z" transform="translate(-316.499 -203.544)" fill="#263238"/>
                    <path id="Trazado_92117" data-name="Trazado 92117" d="M334.756,227.1a28.007,28.007,0,0,1-5.846-2.384,8.052,8.052,0,0,1-2.571-2.933,10.76,10.76,0,0,0,1.771,3.547c2,2.274,6.591,3.324,6.591,3.324Z" transform="translate(-318.715 -205.365)" fill="#f28f8f"/>
                  </g>
                  <g id="Grupo_39365" data-name="Grupo 39365" transform="translate(12.17 4.75)">
                    <path id="Trazado_92118" data-name="Trazado 92118" d="M337.369,211.679a1.044,1.044,0,1,1-1.064-1.068A1.062,1.062,0,0,1,337.369,211.679Z" transform="translate(-333.835 -206.429)" fill="#263238"/>
                    <path id="Trazado_92119" data-name="Trazado 92119" d="M335.516,206.54l-2.256,1.189a1.338,1.338,0,0,1,.554-1.767A1.244,1.244,0,0,1,335.516,206.54Z" transform="translate(-333.122 -204.848)" fill="#263238"/>
                    <path id="Trazado_92120" data-name="Trazado 92120" d="M337.852,220.39l3.589,1.144a1.976,1.976,0,0,1-2.435,1.246A1.837,1.837,0,0,1,337.852,220.39Z" transform="translate(-334.646 -209.655)" fill="#f28f8f"/>
                    <path id="Trazado_92121" data-name="Trazado 92121" d="M349.885,206.017l-2.478-.679a1.233,1.233,0,0,1,1.535-.922A1.35,1.35,0,0,1,349.885,206.017Z" transform="translate(-337.834 -204.37)" fill="#263238"/>
                    <path id="Trazado_92122" data-name="Trazado 92122" d="M349.121,210.45a1.044,1.044,0,1,1-1.064-1.068A1.061,1.061,0,0,1,349.121,210.45Z" transform="translate(-337.711 -206.024)" fill="#263238"/>
                  </g>
                </g>
                <path id="Trazado_92123" data-name="Trazado 92123" d="M341.771,192.92c2.316-1.651,3.605-3.859,2.99-6.9-.9.908-3.438,1.07-5.655.013a17.353,17.353,0,0,0-11.363-1.644c-4.092.792-6.49,3.9-6.49,6.194.8,1.638,1.9,2.511,3.8,3.668a15.172,15.172,0,0,0,9.878,2.843,9.755,9.755,0,0,0,5.816-2.1,6.3,6.3,0,0,1-3.141-.477A11.064,11.064,0,0,0,341.771,192.92Z" transform="translate(-317.037 -184.058)" fill="#37474f"/>
                <g id="Grupo_39367" data-name="Grupo 39367" transform="translate(18.204 15.928)">
                  <path id="Trazado_92124" data-name="Trazado 92124" d="M343.014,214.915l3.2-1.459-4.084-5.631Z" transform="translate(-342.126 -207.826)" fill="#f28f8f"/>
                </g>
              </g>
            </g>
            <g id="Laptop-2" data-name="Laptop" transform="translate(0 35.893)">
              <path id="Trazado_92125" data-name="Trazado 92125" d="M373.779,313.17a6.123,6.123,0,0,0-.971-1.14c-3.725-3.448-10.72-8-16.665-11.791L329.1,315.855a.249.249,0,0,0,0,.431l19.64,11.341Z" transform="translate(-303.701 -258.276)" opacity="0.15"/>
              <g id="Grupo_39386" data-name="Grupo 39386">
                <g id="Grupo_39379" data-name="Grupo 39379" transform="translate(26.102 36.046)">
                  <g id="Grupo_39370" data-name="Grupo 39370" transform="translate(0 10.908)">
                    <path id="Trazado_92126" data-name="Trazado 92126" d="M382.386,307.686v.438a1.8,1.8,0,0,1-.9,1.557l-31.443,18.153a1.776,1.776,0,0,1-.9.238,1.809,1.809,0,0,1-.9-.239l-17.139-9.864a1.8,1.8,0,0,1-.9-1.557v-.605h0v.006a.225.225,0,0,0,.114.2L349.15,326.88Z" transform="translate(-330.21 -307.686)" fill="#37474f"/>
                  </g>
                  <g id="Grupo_39371" data-name="Grupo 39371" transform="translate(18.938 10.906)">
                    <path id="Trazado_92127" data-name="Trazado 92127" d="M358.47,326.876v1.2a1.794,1.794,0,0,0,.9-.239l31.444-18.153a1.8,1.8,0,0,0,.9-1.558v-.438Z" transform="translate(-358.47 -307.684)" fill="#263238"/>
                  </g>
                  <g id="Grupo_39372" data-name="Grupo 39372" transform="translate(0)">
                    <path id="Trazado_92128" data-name="Trazado 92128" d="M382.389,302.315l-18.644-10.763a1.073,1.073,0,0,0-1.071,0l-32.344,18.677a.238.238,0,0,0,0,.413l18.819,10.867Z" transform="translate(-330.21 -291.409)" fill="#455a64"/>
                  </g>
                  <g id="Grupo_39375" data-name="Grupo 39375" transform="translate(8.71 5.74)">
                    <g id="Grupo_39373" data-name="Grupo 39373" transform="translate(0 0.001)">
                      <path id="Trazado_92129" data-name="Trazado 92129" d="M353.264,322.751l-10.056-5.8,29.4-16.976,10.108,5.769Z" transform="translate(-343.208 -299.975)" fill="#37474f"/>
                    </g>
                    <g id="Grupo_39374" data-name="Grupo 39374" transform="translate(0.002)">
                      <path id="Trazado_92130" data-name="Trazado 92130" d="M382.72,305.744l-.384.221-9.725-5.549-29.017,16.757-.384-.221,29.4-16.978Z" transform="translate(-343.211 -299.974)" fill="#263238"/>
                    </g>
                  </g>
                  <g id="Grupo_39378" data-name="Grupo 39378" transform="translate(13.824 7.218)">
                    <g id="Grupo_39376" data-name="Grupo 39376">
                      <path id="Trazado_92131" data-name="Trazado 92131" d="M350.839,307.345l.186.107,4.929,2.845,8.765-5.061.182-.1-5.114-2.952Z" transform="translate(-350.839 -302.18)" fill="#263238"/>
                    </g>
                    <g id="Grupo_39377" data-name="Grupo 39377" transform="translate(0.186 0.211)">
                      <path id="Trazado_92132" data-name="Trazado 92132" d="M351.115,307.555l4.928,2.845,8.765-5.061-4.932-2.845Z" transform="translate(-351.115 -302.495)" fill="#37474f"/>
                    </g>
                  </g>
                </g>
                <g id="Arm">
                  <path id="Trazado_92133" data-name="Trazado 92133" d="M352.169,310.987c-1.41-1.4-3.456-3.337-5.175-3.907a9.628,9.628,0,0,0-1.208-.376,13.694,13.694,0,0,0,1.766-.353,3.119,3.119,0,0,0,1.492-.989c.149-.193.255-.5.066-.654a.407.407,0,0,0-.245-.09c-1.288-.039-2.3-.239-3.473-.324a4.874,4.874,0,0,0-1.577.029c-.48.131-.958.27-1.429.433a11.384,11.384,0,0,1-7.109.7l-5.443-2.9s-1.163-.291-2.877,2.612-.712,4.5-.712,4.5l6.114,2.111h0l.088.034a20.193,20.193,0,0,0,2.885,1.271c1.905.585,4.342-.107,6-.2a17.541,17.541,0,0,1,6,1.3c1.535.623,3.379-1.742,4.149-1.457S353.58,312.385,352.169,310.987Z" transform="translate(-302.705 -259.036)" fill="#ffa8a7"/>
                  <path id="Trazado_92134" data-name="Trazado 92134" d="M353.33,307.26a5.793,5.793,0,0,0-2.343.379,12.766,12.766,0,0,1,3.056.532,13.672,13.672,0,0,0,1.766-.352,3.256,3.256,0,0,0,1.355-.828C356.239,307.619,354.444,307.373,353.33,307.26Z" transform="translate(-310.962 -260.502)" fill="#f28f8f"/>
                  <g id="Grupo_39380" data-name="Grupo 39380">
                    <path id="Trazado_92135" data-name="Trazado 92135" d="M304.085,237.619c1.549.612,3.564,7.068,2.322,13.28l-2.883,19.424s3.532,2.091,8.487,5.16c3.434,2.126,6.378,4.076,6.38,5.652-2.249.808-4.27,4.949-3.589,7.107-1.536,1.82-15.715-6.041-20.672-9.431-2.3-1.572-3.457-2.192-2.573-9.289.978-7.855,1.649-16.581,3.179-22.4C296.333,241.043,298.111,238.683,304.085,237.619Z" transform="translate(-291.26 -237.619)" fill="#00223d"/>
                  </g>
                </g>
                <g id="Grupo_39385" data-name="Grupo 39385" transform="translate(45.04 24.074)">
                  <g id="Grupo_39381" data-name="Grupo 39381" transform="translate(0.507 0.33)">
                    <path id="Trazado_92137" data-name="Trazado 92137" d="M359.226,316.042a2.126,2.126,0,0,0,1.835-.141l31.306-18.075a2.129,2.129,0,0,0,1.035-1.488l3.427-20.438a2.1,2.1,0,0,0,.028-.349,2.131,2.131,0,0,0-.629-1.514L363.7,292.822a1.579,1.579,0,0,0-.765,1.1Z" transform="translate(-359.226 -274.036)" fill="#37474f"/>
                  </g>
                  <g id="Grupo_39382" data-name="Grupo 39382">
                    <path id="Trazado_92138" data-name="Trazado 92138" d="M358.47,315.615l.214.123a2.49,2.49,0,0,0,.292.141l3.7-22.118a1.579,1.579,0,0,1,.765-1.1l32.533-18.786a2.174,2.174,0,0,0-.434-.33l-32.6,18.821a1.579,1.579,0,0,0-.765,1.1Z" transform="translate(-358.47 -273.543)" fill="#455a64"/>
                  </g>
                  <g id="Grupo_39383" data-name="Grupo 39383" transform="translate(0 19.241)">
                    <path id="Trazado_92139" data-name="Trazado 92139" d="M362.983,302.548l-.5-.291a1.58,1.58,0,0,0-.3.68l-3.711,22.15.214.123a2.49,2.49,0,0,0,.292.141l3.7-22.118A1.567,1.567,0,0,1,362.983,302.548Z" transform="translate(-358.47 -302.256)" fill="#263238"/>
                  </g>
                  <g id="Grupo_39384" data-name="Grupo 39384" transform="translate(18.107 18.947)">
                    <path id="Trazado_92140" data-name="Trazado 92140" d="M385.521,306.339a6.915,6.915,0,0,1,3.155-4.06c1.514-.874,2.554-.472,2.325.9a6.919,6.919,0,0,1-3.156,4.06C386.332,308.108,385.292,307.707,385.521,306.339Z" transform="translate(-385.49 -301.817)" fill="#00926e"/>
                  </g>
                </g>
              </g>
            </g>
          </g>
        </g>
      </g>
    </g>
  </g>
</svg>
