<svg xmlns="http://www.w3.org/2000/svg" width="573.198" height="329.424" viewBox="0 0 573.198 329.424">
  <g id="Grupo_54327" data-name="Grupo 54327" transform="translate(-1837.277 -563.794)">
    <path id="Trazado_119520" data-name="Trazado 119520" d="M4.823,0H1.6V-15.641H4.823Zm5.64-11.623.1,1.343A4.058,4.058,0,0,1,13.9-11.838a3.372,3.372,0,0,1,2.75,1.085,5.062,5.062,0,0,1,.924,3.244V0h-3.1V-7.434a2.014,2.014,0,0,0-.43-1.434,1.924,1.924,0,0,0-1.429-.446A2.136,2.136,0,0,0,10.646-8.2V0h-3.1V-11.623ZM23.644-14.48v2.857h1.987v2.277H23.644v5.8a1.385,1.385,0,0,0,.247.924,1.241,1.241,0,0,0,.945.279,4.951,4.951,0,0,0,.913-.075V-.064a6.391,6.391,0,0,1-1.88.279q-3.266,0-3.33-3.3V-9.346h-1.7v-2.277h1.7V-14.48ZM32.71.215a5.706,5.706,0,0,1-4.163-1.568,5.575,5.575,0,0,1-1.606-4.179v-.3a7.021,7.021,0,0,1,.677-3.131,4.967,4.967,0,0,1,1.917-2.127,5.382,5.382,0,0,1,2.831-.747,4.824,4.824,0,0,1,3.754,1.5,6.111,6.111,0,0,1,1.37,4.265V-4.8h-7.4A2.884,2.884,0,0,0,31-2.976a2.744,2.744,0,0,0,1.917.688,3.351,3.351,0,0,0,2.8-1.3L37.243-1.88A4.66,4.66,0,0,1,35.353-.338,6.2,6.2,0,0,1,32.71.215Zm-.354-9.55a1.94,1.94,0,0,0-1.5.626,3.241,3.241,0,0,0-.736,1.791h4.318v-.248a2.311,2.311,0,0,0-.559-1.6A2,2,0,0,0,32.355-9.335Zm13.428.623A8.434,8.434,0,0,0,44.666-8.8a2.274,2.274,0,0,0-2.31,1.192V0h-3.1V-11.623h2.933l.086,1.386a2.877,2.877,0,0,1,2.589-1.6,3.253,3.253,0,0,1,.967.14Zm4.351-2.911.1,1.343a4.058,4.058,0,0,1,3.341-1.558,3.372,3.372,0,0,1,2.75,1.085,5.062,5.062,0,0,1,.924,3.244V0h-3.1V-7.434a2.014,2.014,0,0,0-.43-1.434,1.924,1.924,0,0,0-1.429-.446A2.136,2.136,0,0,0,50.316-8.2V0h-3.1V-11.623ZM64.947.215a5.706,5.706,0,0,1-4.163-1.568,5.575,5.575,0,0,1-1.606-4.179v-.3a7.021,7.021,0,0,1,.677-3.131,4.967,4.967,0,0,1,1.917-2.127,5.382,5.382,0,0,1,2.831-.747,4.824,4.824,0,0,1,3.754,1.5,6.111,6.111,0,0,1,1.37,4.265V-4.8h-7.4a2.884,2.884,0,0,0,.908,1.826,2.744,2.744,0,0,0,1.917.688,3.351,3.351,0,0,0,2.8-1.3L69.48-1.88A4.66,4.66,0,0,1,67.59-.338,6.2,6.2,0,0,1,64.947.215Zm-.354-9.55a1.94,1.94,0,0,0-1.5.626,3.241,3.241,0,0,0-.736,1.791h4.318v-.248a2.311,2.311,0,0,0-.559-1.6A2,2,0,0,0,64.593-9.335ZM75.206-14.48v2.857h1.987v2.277H75.206v5.8a1.385,1.385,0,0,0,.247.924,1.241,1.241,0,0,0,.945.279,4.951,4.951,0,0,0,.913-.075V-.064a6.391,6.391,0,0,1-1.88.279q-3.266,0-3.33-3.3V-9.346H70.4v-2.277h1.7V-14.48Z" transform="translate(2177.881 725.482)" fill="#37a3a5"/>
    <g id="Hvd5pn" transform="translate(2050.346 634.24)">
      <g id="Grupo_54321" data-name="Grupo 54321" transform="translate(0)">
        <path id="Trazado_100260" data-name="Trazado 100260" d="M2072.295,674.1q0-9.424,0-18.848,0-3.672,0-7.342a6.237,6.237,0,0,1,4.577-6.149,6.866,6.866,0,0,1,1.9-.248q9.495-.029,18.991-.011c2.508,0,5.018-.04,7.524.049a6.231,6.231,0,0,1,5.647,5.174,8.412,8.412,0,0,1,.09,1.194q.01,9.405.006,18.812,0,7.22,0,14.44,0,9.586,0,19.172a6.236,6.236,0,0,1-4.591,6.171,6.58,6.58,0,0,1-1.791.243c-2.426.022-4.851-.005-7.278,0q-5.31,0-10.622.015-4.02,0-8.04,0a6.3,6.3,0,0,1-6.285-5.062,7.648,7.648,0,0,1-.122-1.481Q2072.289,687.163,2072.295,674.1Zm1.871.037h0q0,13.1.005,26.2a5.1,5.1,0,0,0,.139,1.223,4.435,4.435,0,0,0,4.395,3.348q5.075,0,10.15,0,7.82,0,15.643,0a5.11,5.11,0,0,0,1.012-.084,4.409,4.409,0,0,0,3.644-4.51q0-20.391,0-40.78c0-3.844.007-7.689-.011-11.533a5.052,5.052,0,0,0-.229-1.57,4.4,4.4,0,0,0-4.319-3.053q-4.365,0-8.729,0-8.568,0-17.135.009a4.988,4.988,0,0,0-1.5.229,4.369,4.369,0,0,0-3.064,4.267q-.01,8.8-.006,17.6Z" transform="translate(-2072.293 -641.496)" fill="#12263f"/>
        <path id="Trazado_100261" data-name="Trazado 100261" d="M2092.1,698.174h-13.75c-.989,0-1.259-.261-1.261-1.238q-.007-2.491,0-4.984,0-2.381,0-4.762,0-10.73,0-21.46,0-6.887,0-13.773c0-.762.352-1.093,1.125-1.092q7.949,0,15.9.008,5.948,0,11.9-.007c.743,0,1.111.346,1.113,1.073q.01,3.219.009,6.44c0,1.356-.005,2.712-.005,4.068q0,11.513,0,23.025c0,3.851,0,7.7-.011,11.553a1.325,1.325,0,0,1-.224.8,1.126,1.126,0,0,1-.753.326c-1.211.034-2.425.017-3.637.017Zm-13.123-45.424c-.009.157-.023.276-.023.394q0,5.324,0,10.65-.011,10.75-.024,21.5c0,1.951.017,3.9.022,5.851,0,1.563,0,3.126,0,4.689,0,.482,0,.482.466.482h7.528q8.949,0,17.9.007c.343,0,.424-.1.423-.432-.012-2.944-.006-5.888-.006-8.832q0-10.913,0-21.826c0-2.217.024-4.434.024-6.651,0-1.807-.017-3.614-.027-5.42,0-.13-.012-.259-.019-.415Z" transform="translate(-2072.74 -642.371)" fill="#12263f"/>
        <path id="Trazado_100262" data-name="Trazado 100262" d="M2092.977,707.666a1.98,1.98,0,0,1-.35.064q-1.437.008-2.875,0a.906.906,0,0,1-1-.908.925.925,0,0,1,.995-.968c1.622-.007,3.245,0,4.868,0,.448,0,.9-.007,1.343,0a.961.961,0,0,1,1.01.965.935.935,0,0,1-1.007.915c-.606,0-1.213.005-1.819,0a1.978,1.978,0,0,1-.348-.069l-.411-.373Z" transform="translate(-2073.83 -647.506)" fill="#12263f"/>
        <path id="Trazado_100263" data-name="Trazado 100263" d="M2093.223,647.858c-1.064,0-2.129.015-3.193-.005a.905.905,0,0,1-.847-1.223.939.939,0,0,1,.888-.632c1.861,0,3.724.02,5.585.028.241,0,.482-.028.722-.021a.928.928,0,0,1,.957.93.909.909,0,0,1-.956.925c-1.052.01-2.1,0-3.157,0Z" transform="translate(-2073.865 -641.916)" fill="#12263f"/>
        <path id="Trazado_100264" data-name="Trazado 100264" d="M2104.555,707.733c-.459,0-.92,0-1.381,0a.935.935,0,0,1-.076-1.867c.967-.029,1.937-.03,2.906,0a.934.934,0,0,1-.068,1.868c-.23,0-.461,0-.69,0Z" transform="translate(-2075.089 -647.505)" fill="#12263f"/>
        <path id="Trazado_100265" data-name="Trazado 100265" d="M2082.264,707.732c-.459,0-.92.005-1.38,0a.921.921,0,0,1-.948-.818.942.942,0,0,1,.8-1.041.924.924,0,0,1,.18-.02c.908,0,1.816-.009,2.724,0a.957.957,0,0,1,.944.708.922.922,0,0,1-.488,1.068,1.24,1.24,0,0,1-.452.1c-.229.015-.459,0-.69,0h-.69Z" transform="translate(-2073.006 -647.506)" fill="#12263f"/>
        <path id="Trazado_100266" data-name="Trazado 100266" d="M2093.412,707.814l.405-.375.411.373Z" transform="translate(-2074.265 -647.654)" fill="#12263f"/>
      </g>
    </g>
    <g id="DeCHh8" transform="translate(2090.397 789.025)">
      <g id="Grupo_54322" data-name="Grupo 54322" transform="translate(0)">
        <path id="Trazado_100267" data-name="Trazado 100267" d="M2160.092,859.935c.231,2.675,1.053,4.92,3.317,6.388a3.108,3.108,0,0,0,1.456.422c1.071.062,2.148.015,3.222.018,1.5.005,2.171.579,2.18,1.863.009,1.337-.657,1.935-2.2,1.936q-17.644.006-35.287,0c-.319,0-.64.018-.958,0a1.767,1.767,0,0,1-1.914-2.048c.014-1.106.675-1.719,1.932-1.749.928-.023,1.861-.052,2.787.009a2.211,2.211,0,0,0,1.783-.681,9.86,9.86,0,0,0,3.044-6.114c-.306-.016-.6-.046-.9-.046-5.663,0-11.33-.1-16.989.048a5.313,5.313,0,0,1-5.073-4.77c-.027-.376-.019-.755-.019-1.132q0-18.035,0-36.071c0-3.562,2.192-5.782,5.741-5.783q27.619-.007,55.239,0a5.389,5.389,0,0,1,5.75,5.786q0,18.253,0,36.507a5.2,5.2,0,0,1-2.627,4.794,4.479,4.479,0,0,1-2.126.594c-5.751.047-11.5.027-17.251.027Zm-41.918-11.886h63.32v-1.01q0-14.5,0-29.01c0-2.645-1.447-4.084-4.1-4.085q-27.485,0-54.971,0c-2.867,0-4.245,1.392-4.246,4.284q0,14.461,0,28.923Zm.02,3.215c0,1.347-.018,2.595.005,3.84a3.6,3.6,0,0,0,3.33,3.153c18.85-.06,37.7-.037,56.553-.037a3.028,3.028,0,0,0,3.165-2.319,34.667,34.667,0,0,0,.325-4.637Zm50.27,17.495.013-.279c-1.257,0-2.517.063-3.767-.025a4.888,4.888,0,0,1-2.036-.567,8.564,8.564,0,0,1-4.011-5.945c-.143-.643-.217-1.3-.323-1.956h-17.115a12.079,12.079,0,0,1-3.4,7.132,3.817,3.817,0,0,1-3.366,1.38,22.5,22.5,0,0,0-2.766-.021l.006.28Z" transform="translate(-2116.469 -812.224)" fill="#12263f"/>
        <path id="Trazado_100268" data-name="Trazado 100268" d="M2149.95,858.754a3.089,3.089,0,1,1,3.051,3.152A3.144,3.144,0,0,1,2149.95,858.754Zm3.07-1.377a1.4,1.4,0,1,0,.085,2.8,1.431,1.431,0,0,0,1.326-1.446A1.411,1.411,0,0,0,2153.02,857.377Z" transform="translate(-2119.595 -816.28)" fill="#12263f"/>
      </g>
    </g>
    <g id="_55zGaA.tif" data-name="55zGaA.tif" transform="translate(2267.618 780.315)">
      <g id="Grupo_54323" data-name="Grupo 54323">
        <path id="Trazado_100269" data-name="Trazado 100269" d="M2312.553,875.7a6.924,6.924,0,0,1-.545-1.835c-.042-5.662-.122-11.325,0-16.984.141-6.356,3.218-10.916,9-13.551,2.634-1.2,5.341-2.244,8.04-3.292a2.761,2.761,0,0,0,1.784-1.986,6.006,6.006,0,0,0-.751-5.809c-1.792-2.554-2.367-5.645-2.727-8.761-.227-1.967-.981-3.874-1.2-5.841a18.68,18.68,0,0,1,.09-5.372,6.691,6.691,0,0,1,5.609-5.557,2.4,2.4,0,0,0,1.32-.631,8.7,8.7,0,0,1,8.472-3.357,26.489,26.489,0,0,1,7.355,2.039c4.5,2.046,6.591,6.487,5.944,11.885-.186,1.549-.673,3.058-.958,4.6-.25,1.347-.407,2.711-.611,4.066a19.35,19.35,0,0,1-3.23,8.3,3.233,3.233,0,0,0-.457,2.494,5.032,5.032,0,0,0,4.1,4.723,52.55,52.55,0,0,1,5.815,2.324,14.726,14.726,0,0,1,9.409,14.018c.019,5.519.024,11.038-.021,16.557a7.915,7.915,0,0,1-.544,1.978h-1.141a7.919,7.919,0,0,1-.544-1.977c-.045-5.613.015-11.227-.042-16.84a12.224,12.224,0,0,0-5.342-10.2,14.634,14.634,0,0,0-1.3-.76c-.1.246-.168.326-.168.408-.011,2.378.01,4.757-.034,7.134a1.534,1.534,0,0,0,.948,1.644,4.431,4.431,0,0,1,1.217,7.106,4.265,4.265,0,0,1-4.695,1.2,4.342,4.342,0,0,1-3.119-3.878,4.3,4.3,0,0,1,2.331-4.387c.585-.336,1.105-.523,1.08-1.416-.077-2.709-.01-5.422-.051-8.133a1.307,1.307,0,0,0-.5-1c-1.354-.63-2.759-1.152-4.422-1.824.879,2.513,1.631,4.746,2.445,6.956.365.991.215,1.791-.844,2.011-2.7.562-3.523,2.3-3.31,4.827a2.44,2.44,0,0,1-.141,1.125,6.543,6.543,0,0,1-1.175,2.264c-2.542,2.361-5.22,4.572-7.787,6.907-.959.873-1.682.95-2.67.038a86.088,86.088,0,0,0-6.669-5.8,5.576,5.576,0,0,1-2.528-5.178,3.4,3.4,0,0,0-2.8-4c-1.737-.5-1.772-.875-1.148-2.646.732-2.078,1.466-4.156,2.284-6.477-1.294.519-2.281.975-3.308,1.307a1.714,1.714,0,0,0-1.422,2.042,19.253,19.253,0,0,1-.006,4.557c-.509,3.336.475,5.744,3.62,7.244a2.549,2.549,0,0,1,.938,1.855c.135,1.558.047,3.135.042,4.705-.006,1.869-.966,2.594-2.745,2a1.336,1.336,0,0,1-.82-.844c-.036-.383.232-1.065.517-1.156.815-.262.691-.82.788-1.428.393-2.435-.38-4.221-2.686-5.258a6.124,6.124,0,0,1-.811-.519c-2.378,1.184-4.4,2.579-3.595,5.7.146.568.588,1.062.722,1.629.12.513.165,1.468-.038,1.553a3.548,3.548,0,0,1-2.147.239c-.378-.1-.756-.916-.794-1.434-.107-1.467.052-2.954-.064-4.419a2.784,2.784,0,0,1,1.615-3.139c2.733-1.238,3.685-3.3,3.261-6.258a41.052,41.052,0,0,1-.045-5.547c-4.614,2.616-6.992,6.269-7.066,11.258-.084,5.612,0,11.227-.046,16.84a7.89,7.89,0,0,1-.545,1.977Zm22.507-59.235a13.714,13.714,0,0,1-4.656,6.286,1.981,1.981,0,0,0-.619,1.515,17.734,17.734,0,0,0,6.431,11.845c2.972,2.505,5.706,2.472,8.7-.053a17.916,17.916,0,0,0,6.375-12.184,3.654,3.654,0,0,0-2.941-4.358,24.909,24.909,0,0,0-3.923-.654C2341.23,818.53,2337.948,818.606,2335.06,816.462ZM2352.1,819.1l.474-.111a58.636,58.636,0,0,0-.046-6.316,7.261,7.261,0,0,0-3.966-5.608,16.089,16.089,0,0,0-8.186-2.092,6.325,6.325,0,0,0-5.751,3.082,2.372,2.372,0,0,1-1.612.821,4.846,4.846,0,0,0-4.7,4.364,15.813,15.813,0,0,0,1,7.561c2.361-1.989,3.966-4.111,3.8-7.244-.025-.476.5-.98.775-1.471.458.254,1.2.411,1.324.779a4.842,4.842,0,0,0,3.955,3.108,47.7,47.7,0,0,0,5.074.643C2347.02,816.923,2349.864,817.017,2352.1,819.1ZM2340.5,863.476l8.666-21.862c-2.667,2.445-5.114,5.015-7.513,7.627-.822.895-1.531,1-2.365.063-.632-.707-1.295-1.392-1.984-2.043-1.793-1.7-3.608-3.374-5.294-4.947Zm6.9-26.608c-4.586,4.576-9.262,4.65-13.871.024-.793,1.529-.8,2.725.617,3.82a35.294,35.294,0,0,1,2.805,2.825c1.209,1.176,2.458,2.312,3.714,3.489,2.046-2.183,4.051-4.471,6.227-6.584A2.533,2.533,0,0,0,2347.4,836.868Zm-17.107,7.208-2.041,5.789c.8.358,1.461.727,2.171.962a2.082,2.082,0,0,1,1.6,2.2,40.585,40.585,0,0,0,.373,4.105,1.961,1.961,0,0,0,.424,1.146c1.44,1.333,2.941,2.6,4.422,3.893l.231-.165C2335.129,856.14,2332.781,850.279,2330.3,844.076Zm20.406.063-7.119,17.876a10.946,10.946,0,0,0,1.851-1.261c2.362-1.588,3.766-3.64,3.448-6.623-.225-2.111.868-3.243,2.819-3.737a5.363,5.363,0,0,0,1.037-.529Zm10.324,14.963a2.273,2.273,0,1,0-2.2,2.312A2.3,2.3,0,0,0,2361.027,859.1Z" transform="translate(-2311.944 -802.617)" fill="#12263f"/>
        <path id="Trazado_100270" data-name="Trazado 100270" d="M2321.357,882.526c-1.113-1.959-.457-4.062-.43-6.1,0-.248.688-.654,1.074-.676.311-.018.929.431.931.675.016,2.042.677,4.143-.436,6.1Z" transform="translate(-2312.763 -809.447)" fill="#12263f"/>
        <path id="Trazado_100271" data-name="Trazado 100271" d="M2364.138,882.526c-1.112-1.959-.456-4.062-.429-6.1,0-.248.687-.654,1.074-.676.311-.018.929.431.931.675.015,2.042.676,4.143-.435,6.1Z" transform="translate(-2316.758 -809.447)" fill="#12263f"/>
      </g>
    </g>
    <g id="Df2Dv6.tif" transform="translate(2354.387 688.151)">
      <g id="Grupo_54324" data-name="Grupo 54324">
        <path id="Trazado_100272" data-name="Trazado 100272" d="M2454.289,760.5c-.617-.189-1.239-.364-1.849-.571a11.217,11.217,0,1,1,14.533-13.046c.055.238.155.466.234.7v3.285c-.073.241-.162.479-.219.723a10.9,10.9,0,0,1-5.744,7.587,27.857,27.857,0,0,1-3.671,1.325Zm-7.229-11.2a8.945,8.945,0,1,0,8.978-8.951A8.966,8.966,0,0,0,2447.06,749.3Z" transform="translate(-2411.119 -704.426)" fill="#12263f"/>
        <path id="Trazado_100273" data-name="Trazado 100273" d="M2409.965,739.916c0,1.652-.117,3.468.035,5.261a5.324,5.324,0,0,0,2.444,3.62,22.005,22.005,0,0,0,8.981,3.821,45.7,45.7,0,0,0,17.933.331c.144-.025.288-.053.433-.066.687-.065,1.277.092,1.411.865a1.066,1.066,0,0,1-1.087,1.333c-2.862.3-5.724.763-8.591.8-6.142.071-12.175-.732-17.712-3.617a19.637,19.637,0,0,1-4.264-3.177,6.368,6.368,0,0,1-1.873-4.86c.026-10.327.068-20.655-.022-30.982a8.171,8.171,0,0,1,3.53-7.005,25.721,25.721,0,0,1,11.285-4.452,45.823,45.823,0,0,1,22.9,1.4,17.845,17.845,0,0,1,7.055,4.047,7.379,7.379,0,0,1,2.362,5.56c-.05,5.875-.017,11.751-.017,17.626,0,.219.007.439,0,.657-.038.7-.325,1.221-1.1,1.228s-1.093-.492-1.106-1.209c-.015-.835,0-1.671,0-2.674-6.326,5.018-13.7,6.144-21.279,6.15s-14.975-1.117-21.257-6.065c0,2.285-.123,4.533.042,6.761.113,1.533,1.269,2.586,2.45,3.487a22.652,22.652,0,0,0,9.1,3.811,45.64,45.64,0,0,0,14.472.745,3.678,3.678,0,0,1,.545-.04c.694.032,1.335.328,1.223,1.065a1.6,1.6,0,0,1-1.034,1.1,65.159,65.159,0,0,1-7.1.337,36.954,36.954,0,0,1-14.182-2.79C2413.6,742.137,2411.808,740.945,2409.965,739.916Zm21.369-36.72c-5.261.11-10.346.7-15.16,2.749a12.73,12.73,0,0,0-5.1,3.479c-1.546,1.891-1.594,3.856.112,5.606a15.218,15.218,0,0,0,3.739,2.781,31.52,31.52,0,0,0,12.845,3.208,40.616,40.616,0,0,0,18.363-2.525,12.653,12.653,0,0,0,5.355-3.667c1.363-1.714,1.486-3.568.01-5.173a14.685,14.685,0,0,0-3.922-3.055C2442.474,703.938,2436.9,703.337,2431.333,703.2Zm21.177,13.926a19.9,19.9,0,0,1-7.055,4.039,45.571,45.571,0,0,1-21.7,1.657c-4.947-.725-9.675-2.139-13.6-5.471-.031-.026-.127.024-.244.051,0,1.774.028,3.558-.008,5.34a4.686,4.686,0,0,0,1.787,4.048,20.147,20.147,0,0,0,4.6,2.858c9.209,3.572,18.57,3.561,27.967.758a15.682,15.682,0,0,0,6.547-3.6,4.659,4.659,0,0,0,1.689-3.208C2452.552,721.518,2452.51,719.447,2452.51,717.122Z" transform="translate(-2407.652 -700.96)" fill="#12263f"/>
        <path id="Trazado_100274" data-name="Trazado 100274" d="M2462.1,751h-4.342v4.365h-2.221v-4.31h-4.49v-2.276h4.407v-4.447h2.235v4.416h4.411Z" transform="translate(-2411.704 -705.011)" fill="#12263f"/>
      </g>
    </g>
    <g id="Grupo_54325" data-name="Grupo 54325" transform="translate(2283.928 575.823)">
      <path id="Trazado_100275" data-name="Trazado 100275" d="M2336.454,607.663c-.041-.058-.119-.118-.115-.173.035-.588.079-1.174.128-1.761.148-1.771.331-3.541.441-5.315a9.554,9.554,0,0,1,1.59-5.13,8.193,8.193,0,0,1,5.577-3.519,24.92,24.92,0,0,1,3.275-.157c1.19-.024,2.382,0,3.573,0h.848c0-.159,0-.276,0-.393.019-1.163-.034-2.333.076-3.488a4.215,4.215,0,0,1,4.188-3.568,4.261,4.261,0,0,1,4.2,4.329c-.017.877.021,1.754-.013,2.63-.015.411.116.5.508.5q8.822-.019,17.647-.01,8.5,0,17,0a3.169,3.169,0,0,1,3.184,3.156q.012,4,0,8.009a2.155,2.155,0,0,1-.1.446l-1.925,1.931a2.979,2.979,0,0,1-.067-.443c0-3.208-.025-6.414.011-9.621a1.25,1.25,0,0,0-1.431-1.412c-6.151.025-12.3.014-18.452.014q-7.935,0-15.868-.01c-.394,0-.51.092-.507.5.016,3.321.009,6.642.009,9.964v8.48c0,3.652,0,7.3-.009,10.956,0,.375.1.483.481.481,3.037-.014,6.075-.006,9.112-.005h.427v2.08h-.524c-3.012,0-6.022.006-9.034-.009-.37,0-.473.114-.462.468.023.693.007,1.387.008,2.081,0,.515,0,.517.519.517q4.046,0,8.092,0c.177,0,.354.019.539.03v1.995H2353.71V617.458h-11.658v3.782h-2.091c0-1.4-.043-2.769.01-4.138.1-2.614.257-5.226.393-7.838.156-3,.3-6.007.473-9.01a5.094,5.094,0,0,1,4.926-4.733c1.02-.016,2.042.018,3.062.016,2.238,0,4.475-.015,6.712-.023.14,0,.279.012.449.02,0,.167,0,.3,0,.424-.017,2.3-.042,4.607-.053,6.911q-.061,12.919-.115,25.839a1.461,1.461,0,0,1,0,.157c-.032.244.088.324.316.32.51-.007,1.022-.025,1.531.005.378.023.484-.1.483-.481q-.016-7.558-.006-15.116,0-9.676,0-19.354c0-.177-.014-.354-.023-.541-.161-.007-.277-.017-.394-.017q-4.1-.012-8.2-.022c-1.112,0-2.226.044-3.337.015a7.352,7.352,0,0,0-2.626.338,6.132,6.132,0,0,0-4.375,5.024c-.321,1.982-.383,4.005-.575,6.01a3.029,3.029,0,0,1-.209.639Zm17.3,7.665c.052-5.916.1-11.8.154-17.726a10.421,10.421,0,0,1-2.2-.034c-.69-.154-1.413.358-1.983-.112a2.605,2.605,0,0,1-.549.138c-1.034.012-2.07.038-3.1,0a3.079,3.079,0,0,0-3.167,2.878c-.069,1.791-.193,3.579-.291,5.368q-.182,3.33-.361,6.662c-.048.925-.084,1.85-.129,2.826Zm4.39-23.742c0-.471,0-.923,0-1.375,0-.654.013-1.307-.012-1.96a2.094,2.094,0,0,0-2.107-2,2.135,2.135,0,0,0-2.153,1.927c-.05,1.017-.014,2.038-.014,3.057,0,.1.009.206.015.353Z" transform="translate(-2330.533 -577.725)" fill="#12263f"/>
      <path id="Trazado_100276" data-name="Trazado 100276" d="M2377.736,599.351c1.833,0,3.667.009,5.5-.008.353,0,.439.108.437.446-.014,1.806.007,3.613-.017,5.419-.005.413.129.5.512.5,1.807-.018,3.614,0,5.42-.015.346,0,.442.1.44.446q-.026,2.709,0,5.42c0,.377-.1.486-.482.482-1.82-.02-3.64,0-5.46-.016-.324,0-.428.091-.425.42.014,1.845,0,3.691.012,5.537,0,.3-.082.408-.4.405q-2.789-.019-5.578,0c-.292,0-.382-.087-.38-.381.013-1.636.006-3.273,0-4.909v-1.037c-.147-.007-.261-.019-.375-.019q-2.769,0-5.539,0c-.262,0-.44-.013-.437-.368.018-1.78.009-3.56.015-5.341,0-.524.1-.62.617-.621q2.474,0,4.948,0h.774v-6.325C2377.5,599.363,2377.62,599.351,2377.736,599.351Zm10.158,8.41h-.516c-1.781,0-3.561-.009-5.342.007-.348,0-.445-.1-.443-.442.016-1.793.008-3.587.008-5.38,0-.523,0-.524-.541-.524-.393,0-.787.022-1.178-.006-.367-.026-.492.083-.488.472.021,1.793.009,3.587.009,5.38v.471c-.181.008-.332.021-.483.021-1.807,0-3.614.01-5.42-.007-.365,0-.482.108-.461.467a12.824,12.824,0,0,1,0,1.374c-.014.3.1.378.386.376,1.821-.009,3.64,0,5.46,0h.515v.461c0,1.82.01,3.639-.008,5.459,0,.355.113.458.448.44a11.47,11.47,0,0,1,1.3,0c.352.021.477-.079.473-.454-.02-1.793-.009-3.588-.009-5.381,0-.52,0-.521.5-.521h5.787Z" transform="translate(-2333.767 -579.143)" fill="#12263f"/>
      <path id="Trazado_100277" data-name="Trazado 100277" d="M2335.767,634.1a7.957,7.957,0,1,1,7.919,7.936A7.947,7.947,0,0,1,2335.767,634.1Zm2.084-.03a5.872,5.872,0,1,0,5.893-5.747A5.87,5.87,0,0,0,2337.851,634.068Z" transform="translate(-2330.479 -581.654)" fill="#12263f"/>
      <path id="Trazado_100278" data-name="Trazado 100278" d="M2374.5,634.079a7.96,7.96,0,1,1,7.941,7.956A7.892,7.892,0,0,1,2374.5,634.079Zm7.941,5.894a5.862,5.862,0,0,0,5.883-5.881,5.631,5.631,0,0,0-1.568-3.9,5.867,5.867,0,0,0-10.168,3.959A5.856,5.856,0,0,0,2382.436,639.973Z" transform="translate(-2334.096 -581.657)" fill="#12263f"/>
      <path id="Trazado_100279" data-name="Trazado 100279" d="M2337.8,607.907l-1.941,1.974a5.007,5.007,0,0,0-.223.851c-.153,1.732-.282,3.466-.421,5.2a4.815,4.815,0,0,1-.857,3.035,5.012,5.012,0,0,1-1.246,1.05,5.749,5.749,0,0,0-3.169,5.3c-.013,2.566,0,5.131,0,7.7v.418h3.441c0-.617.006-1.228-.011-1.837,0-.063-.147-.169-.233-.177a6.111,6.111,0,0,0-.785-.009c-.224.007-.33-.062-.327-.312q.019-1.217,0-2.434c0-.239.081-.32.318-.316.718.012,1.437,0,2.191,0v-2.057h-2.429a3.851,3.851,0,0,1,1.9-4.381,5.892,5.892,0,0,0,3.219-5.043c.164-2.111.351-4.22.526-6.33.063-.769.128-1.539.175-2.308C2337.935,608.126,2337.844,608.015,2337.8,607.907Z" transform="translate(-2329.935 -579.943)" fill="#12263f"/>
      <path id="Trazado_100280" data-name="Trazado 100280" d="M2401.853,614.792a3.9,3.9,0,0,0-.06.489c0,4.8-.025,9.606.012,14.408a2.227,2.227,0,0,1-2.343,2.36c-1.9,0-3.8.008-5.693-.007-.357,0-.485.092-.462.461.033.507.008,1.017.008,1.573.159.011.3.028.433.028,1.964,0,3.927.009,5.889,0a4.2,4.2,0,0,0,4.25-4.258q0-6.281,0-12.562a3.032,3.032,0,0,0-.108-.558Z" transform="translate(-2335.852 -580.586)" fill="#12263f"/>
      <path id="Trazado_100281" data-name="Trazado 100281" d="M2402.726,613.894l1.923,1.934a1.161,1.161,0,0,0,.108-.333q.009-4.989,0-9.979a1.215,1.215,0,0,0-.1-.337l-1.925,1.931a2.2,2.2,0,0,0-.067.378q-.006,3.014,0,6.027A2.468,2.468,0,0,0,2402.726,613.894Z" transform="translate(-2336.726 -579.688)" fill="#12263f"/>
      <path id="Trazado_100282" data-name="Trazado 100282" d="M2398.478,630.211c0-.626.012-1.225-.014-1.821,0-.082-.2-.218-.3-.221-.718-.02-1.436-.012-2.155-.012-1.215,0-2.43.009-3.645,0-.27,0-.369.073-.36.352.019.558.005,1.117.005,1.705Z" transform="translate(-2335.731 -581.834)" fill="#12263f"/>
      <path id="Trazado_100283" data-name="Trazado 100283" d="M2351.988,584.059l-3.679-2.119-1.047,1.792,3.683,2.129Z" transform="translate(-2331.553 -577.518)" fill="#12263f"/>
      <path id="Trazado_100284" data-name="Trazado 100284" d="M2362.668,578.054l-2.119,3.675,1.793,1.053,2.127-3.684Z" transform="translate(-2332.794 -577.155)" fill="#12263f"/>
      <path id="Trazado_100285" data-name="Trazado 100285" d="M2363.549,584.058c.315.55.605,1.073.918,1.581a.326.326,0,0,0,.3.1c1.157-.652,2.3-1.32,3.5-2.011l-1.042-1.8Z" transform="translate(-2333.074 -577.518)" fill="#12263f"/>
      <path id="Trazado_100286" data-name="Trazado 100286" d="M2352.948,578.058l-1.8,1.037,2.122,3.683,1.8-1.042Z" transform="translate(-2331.915 -577.156)" fill="#12263f"/>
      <path id="Trazado_100287" data-name="Trazado 100287" d="M2350.516,589.719v-2.014h-4.242v2.014Z" transform="translate(-2331.46 -578.056)" fill="#12263f"/>
      <path id="Trazado_100288" data-name="Trazado 100288" d="M2369.324,587.691h-4.26c0,.627-.008,1.238.012,1.847,0,.072.163.2.252.2,1.229.011,2.457.011,3.685-.008.105,0,.294-.149.3-.236C2369.337,588.908,2369.324,588.321,2369.324,587.691Z" transform="translate(-2333.215 -578.055)" fill="#12263f"/>
      <path id="Trazado_100289" data-name="Trazado 100289" d="M2356.942,581.291h1.959v-4.228c-.621,0-1.242-.006-1.862.009-.056,0-.158.14-.158.214,0,1.307,0,2.614.012,3.921C2356.893,581.23,2356.917,581.251,2356.942,581.291Z" transform="translate(-2332.451 -577.063)" fill="#12263f"/>
      <path id="Trazado_100290" data-name="Trazado 100290" d="M2349.743,623.684h3.926v-2.023h-3.926Z" transform="translate(-2331.784 -581.227)" fill="#12263f"/>
      <path id="Trazado_100291" data-name="Trazado 100291" d="M2347.871,634.537a3.708,3.708,0,0,1-7.415.08,3.708,3.708,0,0,1,7.415-.08Zm-2.094.029a1.573,1.573,0,0,0-1.648-1.574,1.593,1.593,0,0,0-1.6,1.635,1.624,1.624,0,0,0,3.247-.061Z" transform="translate(-2330.917 -582.09)" fill="#12263f"/>
      <path id="Trazado_100292" data-name="Trazado 100292" d="M2386.585,634.512a3.7,3.7,0,0,1-7.4.2,3.7,3.7,0,0,1,7.4-.2Zm-5.317.066a1.614,1.614,0,0,0,1.636,1.6,1.634,1.634,0,0,0,1.6-1.6,1.62,1.62,0,0,0-3.239,0Z" transform="translate(-2334.534 -582.093)" fill="#12263f"/>
    </g>
    <path id="Trazado_100293" data-name="Trazado 100293" d="M2311.675,703.342c12.231,6.4,18.5,19.984,15.207,32.929a29.275,29.275,0,0,1-28.7,22.2q-48.264.015-96.527-.041a31.549,31.549,0,0,1-8.083-1.043,29.069,29.069,0,0,1-.115-56.07c2.353-.675,3.255-1.677,3.753-4.131,3.4-16.731,13.141-28.338,29.365-33.681,16.249-5.351,30.974-1.743,43.563,9.8,3.227,2.958,5.775,6.659,8.647,10.034,12.883-7.384,29.759.985,29.632,18.413C2309.5,702.278,2310.6,702.78,2311.675,703.342Zm-13.586,50.248c11.815-.02,21.9-8.051,24.144-19.149a24.147,24.147,0,0,0-14.66-27.607c-3.2-1.322-4.362-3.284-4.306-6.722a14.415,14.415,0,0,0-21.089-12.895c-4.409,2.259-6.059,1.749-8.733-2.352-8.511-13.052-20.624-19.729-36.146-18.561-16.038,1.207-27.271,9.862-33.4,24.795a41.366,41.366,0,0,0-2.254,9.1c-.508,3.155-2.1,4.742-5.209,5.383a24.005,24.005,0,0,0-17.126,33.815c4.278,9.172,11.787,14.031,21.907,14.146,16.294.187,32.594.051,48.89.051Q2274.1,753.6,2298.089,753.59Z" transform="translate(-31.27 -9.085)" fill="#37a3a5"/>
    <line id="Línea_1500" data-name="Línea 1500" x2="49.65" y2="24.129" transform="translate(2097.68 666.598)" stroke="#000" stroke-miterlimit="10" stroke-width="2"/>
    <line id="Línea_1501" data-name="Línea 1501" x2="45.692" transform="translate(2300.98 713.875)" stroke="#000" stroke-miterlimit="10" stroke-width="2"/>
    <line id="Línea_1502" data-name="Línea 1502" y1="30.539" x2="33.987" transform="translate(2278.528 644.619)" stroke="#000" stroke-miterlimit="10" stroke-width="2"/>
    <line id="Línea_1503" data-name="Línea 1503" y1="31.073" x2="26.578" transform="translate(2122.565 754.837)" stroke="#000" stroke-miterlimit="10" stroke-width="2"/>
    <line id="Línea_1504" data-name="Línea 1504" x1="22.575" y1="23.566" transform="translate(2266.094 752.263)" stroke="#000" stroke-miterlimit="10" stroke-width="2"/>
    <g id="oHkCii" transform="translate(1837.277 563.794)">
      <g id="Grupo_54326" data-name="Grupo 54326">
        <path id="Trazado_100294" data-name="Trazado 100294" d="M1962.079,600.346a29.593,29.593,0,0,0,1.783,2.462c2.67,3.015,5.358,6.014,8.094,8.968,1.375,1.484,1.485,3,.372,5.175-1.195-1.425-2.207-2.6-3.184-3.811a20.313,20.313,0,0,0-1.962-2.506,10.75,10.75,0,0,0-3.366-2.209c-.309-.111-1.208,1.481-1.861,2.268-1.893,2.284-1.609,3.141.907,4.851a55.813,55.813,0,0,1,8.266,6.352c8.349,8.354,16.513,16.895,24.68,25.429a29.988,29.988,0,0,1,4,5.248,6.144,6.144,0,0,1,.82,3.671,156.939,156.939,0,0,1-2.662,17.134c-1.836,7.529-4.494,14.856-6.5,22.349a22.846,22.846,0,0,0-.9,8.937,30.924,30.924,0,0,1-.25,11.091c-.376,1.772-.583,3.745-3.132,3.8-.256.005-.568.439-.741.739-1.345,2.33-1.791,2.461-4.194,1.091-.094.293-.1.661-.286.825-.721.637-1.5,1.211-2.255,1.808a10.119,10.119,0,0,1-1.3-2.129,12.03,12.03,0,0,1-.254-2.651c-.47,4.044-1.143,8.074-.853,12.034.191,2.6.119,4.755-1.452,6.83a1.969,1.969,0,0,0-.332,1.487c1.058,3.876,1.787,7.908,3.388,11.553,3.447,7.846,6.61,15.8,7.887,24.261,1.83,12.126,7.8,20.652,19.359,25.285,8.122,3.256,14.478,8.9,19.635,15.936a61.241,61.241,0,0,0,4.11,5.2c4.829,5.282,9.724,10.5,14.632,15.715a4.943,4.943,0,0,0,5.129,1.547,25.452,25.452,0,0,1,8.325-.76c2.19.256,4.152.509,6.153-.5,1.59-.8,2.676-.093,3.313,1.344a7.986,7.986,0,0,1,.862,3.045c.013,4.111,0,8.23-.264,12.331-.413,6.521-.893,13.045-1.6,19.539a36.319,36.319,0,0,1-5.533,16.507c-1.062,1.593-2.532,3.07-4.733,2.5-2.408-.626-3.19-2.43-3.217-4.86-.044-4.062.657-8.289-2.019-11.925-.114-.155.016-.472-.07-.669-1.48-3.367-2.031-7.324-6.182-8.942-.841-.328-1.957-1.792-1.8-2.478.4-1.816-.349-2.468-1.767-3.059a11.583,11.583,0,0,1-2.119-1.34c-1.2-.85-1.166-1.863-.29-2.924.381-.461.81-.882,1.372-1.487-6.449-6.868-12.434-14.054-20.445-19.213-7.553-4.863-14.949-9.976-22.322-15.112a79.979,79.979,0,0,0-17.675-9.44c-2.7-1.015-5.706-2.478-7.424-4.647-8.316-10.5-16.886-20.853-22.9-32.978-2.943-5.934-6.208-11.707-9.146-17.644-1.065-2.154-2.125-2.713-4.556-2.018-8.488,2.425-17.06,4.559-25.606,6.782-5.448,1.418-10.977,2.571-16.339,4.263-4.422,1.4-4.338,1.668-4.089,6.2.042.761.137,1.519.166,2.28.355,9.425,1.984,18.892.066,28.266a141,141,0,0,0-3.2,26.5c-.06,4.839-1.922,10.189,2.41,14.368.433,3.364,1.327,6.753,1.13,10.08-.12,2.018-.621,3.886.169,5.9.766,1.953-.057,3.385-2.13,3.666a35.976,35.976,0,0,1-7.49.5c-9.642-.744-19.286-1.543-28.891-2.647-4.538-.522-8.984-1.83-12.622-4.894-2.457-2.07-2.595-5.281-.032-7.039a7.282,7.282,0,0,1,4.523-.949c3.77.376,7.4.318,10.886-1.354a23.941,23.941,0,0,0,7.462-4.883l-2.227-.865,5.312-2.635-3.923-3.384c2.748,1.414,5.35,2.36,7.421-.989a1.076,1.076,0,0,1,.563-.377,2.558,2.558,0,0,0,1.753-2.852c-.129-6.768-.044-13.55-.463-20.3-.668-10.784-1.738-21.543-2.5-32.322-.3-4.172.567-8.588-.5-12.51-1.787-6.573-.341-11.372,4.284-16.327,4.313-4.622,8.628-9.011,14.135-12.111,10.288-5.79,20.612-11.516,30.914-17.282.79-.442,1.876-.809,2.224-1.51,1.923-3.864,4.032-7.757,3.65-12.268-.417-4.932-1.033-9.85-1.675-14.761a7.492,7.492,0,0,0-1.191-3.6c-5.52-6.9-11.214-13.664-16.761-20.544-3.071-3.809-7.046-6.1-11.506-7.9-2.282-.925-4.272-2.6-6.332-4.02-.4-.279-.523-.973-.773-1.475.593-.117,1.183-.257,1.781-.343a5.267,5.267,0,0,1,.95.05,3.979,3.979,0,0,0-.245-.739c-1.8-2.946-4.982-5.45-3.045-9.586.025-.054-.032-.144-.044-.219-.313-1.907-.659-3.81-.909-5.725-.06-.456.129-1.319.331-1.36a2.108,2.108,0,0,1,1.6.313,25.179,25.179,0,0,1,2.34,2.5c2.351,2.645,4.875,5.073,8.353,6.159.641.2,1.694.267,2.04-.1a2.462,2.462,0,0,0,.2-2.081c-.481-1.436-1.277-2.762-1.805-4.186-.519-1.4-1.049-2.888.624-4.247.538.494,1.24.849,1.481,1.4,2.536,5.869,7.056,10.887,7.566,17.636a4.724,4.724,0,0,0,.857,2.329c2.165,2.931,4.409,5.806,6.674,8.662a7,7,0,0,0,1.494,1.1,4.644,4.644,0,0,0-.809-2.219,13.6,13.6,0,0,1-2.022-10.476c.75-4.108,1.268-8.257,1.984-12.371.865-4.967,2.625-9.306,7.609-11.735,1.79-.871,3.243-2.491,4.731-3.9a2.732,2.732,0,0,0,.816-1.978,65.206,65.206,0,0,0-1.418-9.218c-.954-3.612-1.893-3.912-5.671-4.343a14.869,14.869,0,0,1-5.758-1.908c-.632-.375-.341-2.3-.475-3.524-.016-.15-.069-.295-.091-.443-.326-2.23-.607-4.467-1-6.684a2.952,2.952,0,0,0-.861-1.747c-1.937-1.458-1.548-2.788-.138-4.366,1-1.118,2.523-2.483,2.478-3.687a21.012,21.012,0,0,1,2.327-11.266c-1.907-1.933-1.84-4.113.325-5.94,3.635-3.065,7.451-5.836,12.664-5.238,1.582.182,3.2.032,4.8.1,7.407.332,13.474,3.086,17.154,9.846,1.237,2.272,3.417,2.984,5.515,3.742,4.563,1.648,7.962,8.082,6.043,12.592-.923,2.169.085,2.782,1.48,3.483,2.108,1.061,4.308,1.936,6.414,3,1.724.87,3.367,1.9,5.047,2.859l-.277.654c-2.383-.6-4.793-1.122-7.145-1.832-2.507-.757-3.187-.258-2.7,2.363l-3.06-1.053Zm15.971,102.64a4.28,4.28,0,0,0,.829-1.847c1.4-6.694,2.891-13.372,4.049-20.107.55-3.2.4-6.527.626-9.791.282-4.023.7-8.036.9-12.062a3.487,3.487,0,0,0-.977-2.674c-5.171-3.48-10.454-6.791-15.708-10.148a6.994,6.994,0,0,0-.978-.374c-.364,1.561-.724,3.06-1.06,4.564-2,8.969-4.346,17.88-5.875,26.93-1.178,6.966-1.361,13.953,3.483,20.237,2.792,3.622,4.535,8.052,6.759,12.113.175.321.413.608.876,1.281C1973.478,708.247,1975.8,705.645,1978.05,702.986Z" transform="translate(-1837.277 -563.794)" fill="#12263f"/>
      </g>
    </g>
  </g>
</svg>
