<svg xmlns="http://www.w3.org/2000/svg" width="626.699" height="503.767" viewBox="0 0 626.699 503.767">
  <g id="Grupo_54402" data-name="Grupo 54402" transform="translate(-655.893 -9024.854)">
    <line id="Línea_1542" data-name="Línea 1542" x2="604.737" transform="translate(669.667 9394.01)" fill="none" stroke="#12263f" stroke-miterlimit="10" stroke-width="2"/>
    <line id="Línea_1547" data-name="Línea 1547" x2="604.737" transform="translate(669.667 9527.598)" fill="none" stroke="#12263f" stroke-miterlimit="10" stroke-width="2"/>
    <line id="Línea_1546" data-name="Línea 1546" x2="604.737" transform="translate(669.667 9245.01)" fill="none" stroke="#12263f" stroke-miterlimit="10" stroke-width="2"/>
    <line id="Línea_1543" data-name="Línea 1543" y1="60.492" transform="translate(972.035 9359.914)" fill="none" stroke="#12263f" stroke-miterlimit="10" stroke-width="2"/>
    <line id="Línea_1544" data-name="Línea 1544" y1="380.823" transform="translate(705.035 9147.797)" fill="none" stroke="#12263f" stroke-miterlimit="10" stroke-width="2"/>
    <line id="Línea_1545" data-name="Línea 1545" y1="380.823" transform="translate(1239.035 9147.797)" fill="none" stroke="#12263f" stroke-miterlimit="10" stroke-width="2"/>
    <path id="Trazado_117223" data-name="Trazado 117223" d="M-8578.375-2597.383l313.758-136.672,312.141,136.672" transform="translate(9234.667 11760)" fill="none" stroke="#12263f" stroke-width="2"/>
    <g id="sG6ua8.tif" transform="translate(762.777 9162.617)">
      <g id="Grupo_54390" data-name="Grupo 54390">
        <path id="Trazado_117140" data-name="Trazado 117140" d="M249.554,1030.01V995.974c0-2.034.524-2.551,2.583-2.551q9.263,0,18.524,0c1.876,0,2.48.6,2.48,2.478q0,34.039,0,68.075c0,1.905-.564,2.471-2.459,2.473q-9.365,0-18.733,0c-1.856,0-2.393-.54-2.393-2.4Q249.553,1047.03,249.554,1030.01Zm3.944-9.052a2.059,2.059,0,0,0-1.007.1,1.335,1.335,0,0,0-.643.893c0,.3.364.681.665.883a1.793,1.793,0,0,0,.906.089q3.923.008,7.849,0h3c1.755,0,3.511-.007,5.268,0,.684,0,1.315-.162,1.337-.949.024-.862-.641-1.033-1.362-1.028-.1,0-.207,0-.31,0m-16.014-3.446c-.7,0-1.393.068-1.371.984.021.892.705.967,1.407.967q4.028-.008,8.054,0c2.72,0,5.439-.007,8.159.005.718,0,1.4-.12,1.435-.96.037-.874-.65-.994-1.369-.993m-8.235,8.878q2.683,0,5.369,0a27.518,27.518,0,0,0,3.2-.049c.383-.045.709-.568,1.062-.871a8.645,8.645,0,0,0-1.085-1c-.19-.127-.536-.024-.812-.024q-7.382,0-14.766,0a4.716,4.716,0,0,0-1.532.054c-.364.131-.829.6-.832.93s.495.684.846.921c.192.129.535.042.81.042m7.755-10.421c2.72,0,5.439-.009,8.159.005.716,0,1.4-.1,1.435-.946.031-.867-.637-1-1.367-.994q-8.158.018-16.317,0c-.712,0-1.386.078-1.371.98s.7.958,1.407.956m-.409-14.952c-.329,0-.658.286-.986.437.322.157.644.446.968.449,2.828.037,5.656.021,8.484.021,2.863,0,5.726.016,8.587-.019a2.913,2.913,0,0,0,1-.437c-.327-.157-.653-.449-.982-.451M252.8,998.133c-.326,0-.648.3-.97.456.327.152.653.435.982.437q8.534.042,17.071,0c.327,0,.655-.3.984-.456-.333-.151-.663-.433-1-.437-2.828-.036-5.656-.021-8.484-.021m-.019,55.292a2.14,2.14,0,1,0-2.173-2.154A2.16,2.16,0,0,0,261.364,1053.4Zm.139,3.509-.484.025a3.894,3.894,0,0,0-.684,1.254.827.827,0,0,0,1.038.949,1.546,1.546,0,0,0,.951-1.066C262.352,1057.711,261.8,1057.3,261.5,1056.913Z" transform="translate(-175.997 -993.422)" fill="#12263f"/>
        <path id="Trazado_117141" data-name="Trazado 117141" d="M237.13,1045.284V1040.2h-1.254q-12.053,0-24.107,0c-2.28,0-2.95-.676-2.95-2.964V996.383c0-2.241.723-2.96,2.978-2.96h60.94c2.274,0,2.94.674,2.94,2.973v40.854c0,2.313-.634,2.952-2.934,2.952q-12,0-24,0h-1.32v5.08c1.231,0,2.494-.051,3.749.012a2.927,2.927,0,0,1,2.9,3.117H230.423a2.978,2.978,0,0,1,2.926-3.115C234.578,1045.232,235.815,1045.284,237.13,1045.284Zm5.163-49.9q-14.9,0-29.808,0c-1.574,0-1.707.132-1.707,1.721q0,17.8,0,35.591c0,1.581.134,1.715,1.714,1.715H272c1.611,0,1.778-.167,1.778-1.773V997.152c0-1.607-.162-1.766-1.785-1.766Q257.144,995.384,242.293,995.385Zm29.051,41.68c-.529-.348-.859-.726-1.08-.672-.3.075-.529.477-.789.738.249.242.5.672.749.676C270.518,1037.81,270.816,1037.437,271.344,1037.064Z" transform="translate(-206.2 -993.421)" fill="#12263f"/>
        <path id="Trazado_117142" data-name="Trazado 117142" d="M207.352,1040.823c.129-.322.223-.608.352-.874,2.06-4.246,4.134-8.483,6.177-12.735a1.19,1.19,0,0,1,1.24-.8q28.245.029,56.492.038a1.368,1.368,0,0,1,1.045.54c2.267,4.561,4.484,9.146,6.766,13.836Zm2.624-1.348h66.6c.005-.12.033-.2.009-.251-1.768-3.659-3.525-7.321-5.336-10.957a1.275,1.275,0,0,0-.984-.481q-26.9-.034-53.8-.035a1.119,1.119,0,0,0-1.175.754c-.691,1.5-1.43,2.979-2.152,4.467C212.1,1035.1,211.07,1037.225,209.976,1039.475Z" transform="translate(-207.288 -968.963)" fill="#12263f"/>
        <path id="Trazado_117143" data-name="Trazado 117143" d="M207.315,1036.045v-.963H279.4l.071.963Z" transform="translate(-207.315 -962.533)" fill="#37a3a5"/>
        <path id="Trazado_117144" data-name="Trazado 117144" d="M216.933,1034.126c.035-1.053.522-1.3,1.456-1.3q17.883.047,35.766,0c.935,0,1.435.228,1.409,1.3Z" transform="translate(-200.184 -964.206)" fill="#12263f"/>
        <path id="Trazado_117145" data-name="Trazado 117145" d="M230.3,1030.183a11.416,11.416,0,0,1,2.316.049c.327.07.54.677.806,1.042l-.23.286c-.606,0-1.212,0-1.818,0C230.144,1031.553,230.139,1031.546,230.3,1030.183Z" transform="translate(-190.326 -966.193)" fill="#12263f"/>
        <path id="Trazado_117146" data-name="Trazado 117146" d="M230.15,1030.129l-.07-1.255H233l.178,1.255Z" transform="translate(-190.436 -967.136)" fill="#12263f"/>
        <path id="Trazado_117147" data-name="Trazado 117147" d="M230.074,1030.2v1.261H227.2V1030.2Z" transform="translate(-192.572 -966.151)" fill="#12263f"/>
        <path id="Trazado_117148" data-name="Trazado 117148" d="M230.062,1030.148h-2.856v-1.28h2.856Z" transform="translate(-192.567 -967.14)" fill="#12263f"/>
        <path id="Trazado_117149" data-name="Trazado 117149" d="M230.074,1027.546v1.28h-2.866v-1.28Z" transform="translate(-192.566 -968.12)" fill="#12263f"/>
        <path id="Trazado_117150" data-name="Trazado 117150" d="M230.057,1028.814l-.106-1.247h2.9l.2,1.247Z" transform="translate(-190.532 -968.105)" fill="#12263f"/>
        <path id="Trazado_117151" data-name="Trazado 117151" d="M232.826,1027.538a10.638,10.638,0,0,1,2.335.049c.387.089.655.693.977,1.064l-.228.271a10.653,10.653,0,0,1-2.337-.05c-.385-.087-.651-.691-.972-1.062Z" transform="translate(-188.567 -968.158)" fill="#12263f"/>
        <path id="Trazado_117152" data-name="Trazado 117152" d="M238.834,1028.923a10.466,10.466,0,0,1-2.351-.05c-.4-.1-.688-.705-1.026-1.083l.226-.25a10.438,10.438,0,0,1,2.347.05c.4.094.681.7,1.017,1.076Z" transform="translate(-186.449 -968.158)" fill="#12263f"/>
        <path id="Trazado_117153" data-name="Trazado 117153" d="M241.629,1028.939a10.823,10.823,0,0,1-2.346-.047c-.423-.1-.738-.665-1.216-1.13C240.678,1027.186,241.321,1027.416,241.629,1028.939Z" transform="translate(-184.513 -968.175)" fill="#12263f"/>
        <path id="Trazado_117154" data-name="Trazado 117154" d="M241.016,1027.61c3.349-.186,2.839-.26,3.288,1.215C240.976,1029.015,241.458,1029.085,241.016,1027.61Z" transform="translate(-182.328 -968.146)" fill="#12263f"/>
        <path id="Trazado_117155" data-name="Trazado 117155" d="M212.5,1030.2c.486-1.482.949-1.639,3.333-1.207C215.408,1030.463,215.408,1030.463,212.5,1030.2Z" transform="translate(-203.474 -967.202)" fill="#12263f"/>
        <path id="Trazado_117156" data-name="Trazado 117156" d="M236.549,1030.184a10.456,10.456,0,0,1,2.327.05c.4.093.672.692,1,1.063l-.214.261a11.6,11.6,0,0,1-2.339-.045c-.387-.082-.674-.639-1-.98Z" transform="translate(-185.809 -966.195)" fill="#12263f"/>
        <path id="Trazado_117157" data-name="Trazado 117157" d="M233.689,1031.507l-.287-1.1c1.956-.618,2.943-.292,3.206,1.1Z" transform="translate(-187.973 -966.219)" fill="#12263f"/>
        <path id="Trazado_117158" data-name="Trazado 117158" d="M218.24,1030.349c-.477,1.416-.754,1.507-3.283,1.142C215.237,1030.061,215.8,1029.859,218.24,1030.349Z" transform="translate(-201.649 -966.22)" fill="#12263f"/>
        <path id="Trazado_117159" data-name="Trazado 117159" d="M227.287,1028.881l-.167,1.257h-2.835v-1.257Z" transform="translate(-194.733 -967.131)" fill="#12263f"/>
        <path id="Trazado_117160" data-name="Trazado 117160" d="M224.359,1028.791l.106-1.238h2.985l-.148,1.238Z" transform="translate(-194.678 -968.115)" fill="#12263f"/>
        <path id="Trazado_117161" data-name="Trazado 117161" d="M236.614,1030.175c-.578.04-.78.065-.982.066-.719.005-1.437,0-2.238,0l-.38-1.386a11.443,11.443,0,0,1,2.471.051C235.873,1029,236.138,1029.615,236.614,1030.175Z" transform="translate(-188.261 -967.18)" fill="#12263f"/>
        <path id="Trazado_117162" data-name="Trazado 117162" d="M221.882,1027.534c-.371,1.531.265,1.484-3.2,1.315-.038-.963.308-1.463,1.371-1.327A15.055,15.055,0,0,0,221.882,1027.534Z" transform="translate(-198.887 -968.155)" fill="#12263f"/>
        <path id="Trazado_117163" data-name="Trazado 117163" d="M241.959,1030.215c-2.872.261-2.872.261-3.192-1.142C240.756,1028.444,241.738,1028.8,241.959,1030.215Z" transform="translate(-183.995 -967.211)" fill="#12263f"/>
        <path id="Trazado_117164" data-name="Trazado 117164" d="M244.966,1030.18c-3.328.192-2.879.26-3.3-1.2C244.238,1028.581,244.546,1028.692,244.966,1030.18Z" transform="translate(-181.847 -967.203)" fill="#12263f"/>
        <path id="Trazado_117165" data-name="Trazado 117165" d="M224.7,1027.532c.031,1.144-.441,1.539-1.451,1.4a12.968,12.968,0,0,0-1.691-.012c0-.909.153-1.531,1.242-1.4A16.771,16.771,0,0,0,224.7,1027.532Z" transform="translate(-196.756 -968.153)" fill="#12263f"/>
        <path id="Trazado_117166" data-name="Trazado 117166" d="M211.853,1031.523c.467-1.489.831-1.616,3.291-1.214C214.838,1031.738,214.81,1031.748,211.853,1031.523Z" transform="translate(-203.95 -966.217)" fill="#12263f"/>
        <path id="Trazado_117167" data-name="Trazado 117167" d="M221.2,1030.241c-.037-1.094.354-1.532,1.353-1.4a13.8,13.8,0,0,0,1.764.014c.064,1.047-.28,1.538-1.339,1.4A14.325,14.325,0,0,0,221.2,1030.241Z" transform="translate(-197.023 -967.178)" fill="#12263f"/>
        <path id="Trazado_117168" data-name="Trazado 117168" d="M217.819,1031.558c-.044-1.1.411-1.513,1.424-1.391a14.973,14.973,0,0,0,1.726.01c0,1.028-.308,1.531-1.329,1.4A13.819,13.819,0,0,0,217.819,1031.558Z" transform="translate(-199.529 -966.192)" fill="#12263f"/>
        <path id="Trazado_117169" data-name="Trazado 117169" d="M215.966,1028.921c.028-1.083.46-1.529,1.468-1.4a14.305,14.305,0,0,0,1.754.012c-.04,1-.371,1.541-1.428,1.4A14.243,14.243,0,0,0,215.966,1028.921Z" transform="translate(-200.901 -968.155)" fill="#12263f"/>
        <path id="Trazado_117170" data-name="Trazado 117170" d="M213.138,1028.945c.456-1.578.738-1.679,3.377-1.28-.181.846-.5,1.437-1.545,1.294A13.939,13.939,0,0,0,213.138,1028.945Z" transform="translate(-202.998 -968.178)" fill="#12263f"/>
        <path id="Trazado_117171" data-name="Trazado 117171" d="M218.217,1030.23c.348-1.51-.266-1.489,3.2-1.318.016.94-.291,1.477-1.369,1.332A14.452,14.452,0,0,0,218.217,1030.23Z" transform="translate(-199.232 -967.166)" fill="#12263f"/>
        <path id="Trazado_117172" data-name="Trazado 117172" d="M215.444,1030.23c.373-1.524-.115-1.482,3.255-1.32-.016,1.028-.495,1.463-1.538,1.332A14.72,14.72,0,0,0,215.444,1030.23Z" transform="translate(-201.288 -967.166)" fill="#12263f"/>
        <path id="Trazado_117173" data-name="Trazado 117173" d="M239.245,1030.316c2.666-.415,3.021-.279,3.22,1.186C239.834,1031.836,239.654,1031.773,239.245,1030.316Z" transform="translate(-183.641 -966.218)" fill="#12263f"/>
        <path id="Trazado_117174" data-name="Trazado 117174" d="M245.583,1031.479c-2.407.413-2.832.272-3.284-1.1C244.319,1029.8,245.252,1030.112,245.583,1031.479Z" transform="translate(-181.376 -966.225)" fill="#12263f"/>
        <path id="Trazado_117175" data-name="Trazado 117175" d="M240.361,1032.855a12.118,12.118,0,0,1,2.426.049c.376.08.643.677.96,1.042l-.171.268a11.684,11.684,0,0,1-2.424-.049c-.381-.083-.651-.691-.972-1.062Z" transform="translate(-182.948 -964.212)" fill="#12263f"/>
        <path id="Trazado_117176" data-name="Trazado 117176" d="M239.207,1030.267a15.116,15.116,0,0,0-1.806.014c-.965.122-1.4-.268-1.384-1.214C237.933,1028.467,238.908,1028.792,239.207,1030.267Z" transform="translate(-186.034 -967.204)" fill="#12263f"/>
        <path id="Trazado_117177" data-name="Trazado 117177" d="M224.038,1030.177c-.341,1.561-.6,1.653-3.19,1.291-.068-1,.359-1.425,1.381-1.3A16.271,16.271,0,0,0,224.038,1030.177Z" transform="translate(-197.286 -966.192)" fill="#12263f"/>
        <path id="Trazado_117178" data-name="Trazado 117178" d="M246.933,1034.167c-2.748.3-2.826.273-3.338-1.113C245.54,1032.484,246.5,1032.786,246.933,1034.167Z" transform="translate(-180.416 -964.238)" fill="#12263f"/>
        <path id="Trazado_117179" data-name="Trazado 117179" d="M217.2,1032.851c-.4,1.534-.742,1.653-3.255,1.261.014-.967.448-1.4,1.451-1.273A15.852,15.852,0,0,0,217.2,1032.851Z" transform="translate(-202.402 -964.211)" fill="#12263f"/>
        <path id="Trazado_117180" data-name="Trazado 117180" d="M213.84,1033c-.364,1.381-1,1.6-3.27,1.111C210.983,1032.722,211.47,1032.556,213.84,1033Z" transform="translate(-204.902 -964.239)" fill="#12263f"/>
        <path id="Trazado_117181" data-name="Trazado 117181" d="M224.159,1030.2h2.992l-.158,1.266h-2.833Z" transform="translate(-194.826 -966.149)" fill="#12263f"/>
        <path id="Trazado_117182" data-name="Trazado 117182" d="M230.453,1032.783l-.136-1.257a14.741,14.741,0,0,1,2.5.047c.3.052.5.636.918,1.21Z" transform="translate(-190.26 -965.192)" fill="#12263f"/>
        <path id="Trazado_117183" data-name="Trazado 117183" d="M227.209,1031.592a3.689,3.689,0,0,1,.509-.077c.747-.009,1.5,0,2.321,0v1.271a4.065,4.065,0,0,1-.5.064c-.747.007-1.5,0-2.328,0Z" transform="translate(-192.565 -965.181)" fill="#12263f"/>
        <path id="Trazado_117184" data-name="Trazado 117184" d="M214.433,1032.855c.315-1.449-.111-1.465,3.218-1.252,0,.918-.367,1.372-1.357,1.264A17.5,17.5,0,0,0,214.433,1032.855Z" transform="translate(-202.037 -965.185)" fill="#12263f"/>
        <path id="Trazado_117185" data-name="Trazado 117185" d="M240,1032.864a17,17,0,0,0-1.835.012c-.949.1-1.317-.324-1.283-1.348a12.848,12.848,0,0,1,2.417.047c.354.07.6.653.9,1Z" transform="translate(-185.394 -965.194)" fill="#12263f"/>
        <path id="Trazado_117186" data-name="Trazado 117186" d="M239.761,1031.621c2.833-.3,2.927-.266,3.227,1.125C240.778,1033.237,240.109,1033.012,239.761,1031.621Z" transform="translate(-183.258 -965.212)" fill="#12263f"/>
        <path id="Trazado_117187" data-name="Trazado 117187" d="M220.463,1032.89c.263-1.479.806-1.661,3.155-1.224.056.958-.369,1.353-1.343,1.236A15.985,15.985,0,0,0,220.463,1032.89Z" transform="translate(-197.567 -965.22)" fill="#12263f"/>
        <path id="Trazado_117188" data-name="Trazado 117188" d="M217.376,1032.887c.249-1.5.576-1.62,3.166-1.243.016.912-.341,1.374-1.336,1.255A16.026,16.026,0,0,0,217.376,1032.887Z" transform="translate(-199.855 -965.217)" fill="#12263f"/>
        <path id="Trazado_117189" data-name="Trazado 117189" d="M237.03,1032.881a11.9,11.9,0,0,1-2.342-.045c-.371-.075-.648-.625-1.062-1.061C236.04,1031.151,236.868,1031.44,237.03,1032.881Z" transform="translate(-187.808 -965.215)" fill="#12263f"/>
        <path id="Trazado_117190" data-name="Trazado 117190" d="M242.947,1031.622c2.767-.3,2.877-.263,3.312,1.128C244.016,1033.217,243.382,1033.011,242.947,1031.622Z" transform="translate(-180.896 -965.211)" fill="#12263f"/>
        <path id="Trazado_117191" data-name="Trazado 117191" d="M211.224,1032.788c.374-1.4.771-1.536,3.279-1.137C214.13,1033.041,213.713,1033.185,211.224,1032.788Z" transform="translate(-204.417 -965.221)" fill="#12263f"/>
        <path id="Trazado_117192" data-name="Trazado 117192" d="M227.016,1031.548l-.1,1.208h-2.922l.091-1.208Z" transform="translate(-194.951 -965.153)" fill="#12263f"/>
      </g>
    </g>
    <g id="Group_54360" data-name="Group 54360" transform="translate(921.712 9424.406)">
      <path id="Path_116867" data-name="Path 116867" d="M289.76,951.334h3.7a1.762,1.762,0,0,1,1.836,1.684c0,.043,0,.087,0,.13.012,1.163,0,2.328,0,3.5v.408h6.534a3.553,3.553,0,0,1,3.732,3.368,3.314,3.314,0,0,1,0,.348v22.562a3.558,3.558,0,0,1-3.453,3.661c-.066,0-.132,0-.2,0h-1.553v4.538q-.018,3.033-.049,6.066a1.746,1.746,0,0,1-1.724,1.766H290a1.74,1.74,0,0,1-1.809-1.667c0-.054,0-.11,0-.166v-3.9H223.355c0,.138-.017.261-.017.385v3.425a1.793,1.793,0,0,1-1.66,1.916,2.083,2.083,0,0,1-.256,0h-8.331a1.769,1.769,0,0,1-1.914-1.607,1.859,1.859,0,0,1,0-.279v-10.5h-.96a15.65,15.65,0,0,1-2.663-.146,3.4,3.4,0,0,1-2.623-3.38V960.821a3.56,3.56,0,0,1,3.34-3.769,3.609,3.609,0,0,1,.413,0H215.7v-3.878a1.75,1.75,0,0,1,1.658-1.837c.061,0,.122,0,.183,0h4.378V902.945a1.753,1.753,0,0,1,1.618-1.875,1.775,1.775,0,0,1,1.91,1.625.949.949,0,0,1,.005.1c.016.447,0,.9,0,1.341v47.209h4.1a1.763,1.763,0,0,1,1.825,1.7c0,.044,0,.085,0,.129v3.866h49.2c0-.125.017-.251.017-.376,0-1.094.024-2.187,0-3.283a1.878,1.878,0,0,1,1.694-2.043,1.9,1.9,0,0,1,.329,0c1.139.052,2.283,0,3.424,0a.971.971,0,0,0,.12-.028V902.95a1.794,1.794,0,0,1,2.389-1.8,1.868,1.868,0,0,1,1.188,1.9v14.367c0,1.031-.037,2.06-.045,3.091,0,.327.042.658.042.986v29.472Zm-81.242,32.088h93.474V960.649H208.518ZM296.778,987h-82v3.072h82Zm-77.5-32.105v2.128h8.563V954.9Zm72.451,0H284.2v2.128h7.53Zm-76.963,40.894h5v-2.144h-5Zm81.992-2.142h-4.993v2.147h4.993Z" transform="translate(-204.924 -901.05)" fill="#12263f"/>
      <path id="Path_116868" data-name="Path 116868" d="M243.876,902.276a31.741,31.741,0,0,1,15.274,3.883,32.56,32.56,0,0,1,7.163,5.32,1.788,1.788,0,0,1-.615,3.1,1.738,1.738,0,0,1-1.811-.486,28.809,28.809,0,0,0-5.708-4.4,27.9,27.9,0,0,0-10.283-3.589,28.326,28.326,0,0,0-23.936,7.875,1.848,1.848,0,0,1-2.208.495,1.768,1.768,0,0,1-.465-2.854,30.263,30.263,0,0,1,4.169-3.523,31.4,31.4,0,0,1,10.43-4.834A31.943,31.943,0,0,1,243.876,902.276Z" transform="translate(-193.187 -900.142)" fill="#37a3a5"/>
      <path id="Path_116869" data-name="Path 116869" d="M241.465,907.99a25.417,25.417,0,0,1,11.333,2.555,25.119,25.119,0,0,1,6.611,4.693,1.788,1.788,0,0,1,.136,2.525c-.028.031-.057.061-.087.091a1.813,1.813,0,0,1-2.565-.1h0a21.483,21.483,0,0,0-30.223,0,1.784,1.784,0,1,1-2.63-2.412,1.912,1.912,0,0,1,.146-.143,25.089,25.089,0,0,1,5.493-4.1,24.6,24.6,0,0,1,10.3-3.034C240.556,908.02,241.143,907.99,241.465,907.99Z" transform="translate(-191.101 -895.905)" fill="#37a3a5"/>
      <path id="Path_116870" data-name="Path 116870" d="M252.69,922.186a1.776,1.776,0,0,1-1.266-.529,15.99,15.99,0,0,0-22.438-.122,1.86,1.86,0,0,1-2.083.526,1.742,1.742,0,0,1-.536-2.929,26.361,26.361,0,0,1,3.028-2.464,18.561,18.561,0,0,1,9.508-3.194,19.194,19.194,0,0,1,13.972,4.683c.367.312.73.639,1.066.975a1.8,1.8,0,0,1,.378,2.02A1.726,1.726,0,0,1,252.69,922.186Z" transform="translate(-189.46 -891.875)" fill="#37a3a5"/>
      <path id="Path_116876" data-name="Path 116876" d="M253.731,952.354H224.4a1.792,1.792,0,0,1-1.916-1.323,2.024,2.024,0,0,1-.054-.522v-9.74c0-.691.01-1.383.024-2.074A1.722,1.722,0,0,1,224,937.2l55.4-.031h3.589a1.852,1.852,0,0,1,2.064,1.614,1.82,1.82,0,0,1,0,.456v11.081a1.816,1.816,0,0,1-2.02,2.034H253.744Zm27.745-11.607H225.989v8.026h55.486Z" transform="translate(-191.943 -874.279)" fill="#12263f"/>
      <path id="Path_116877" data-name="Path 116877" d="M221.638,944.757v5.714a1.8,1.8,0,0,1-1.722,1.881l-.061,0a1.778,1.778,0,0,1-1.759-1.8v-.061c0-1.658.023-3.317.023-4.975,0-2.165-.017-4.326-.023-6.49a1.774,1.774,0,0,1,3.542-.193,1.683,1.683,0,0,1,0,.209c0,1.433-.017,2.868-.023,4.3v1.409Z" transform="translate(-195.16 -874.278)" fill="#12263f"/>
      <path id="Path_116878" data-name="Path 116878" d="M218.232,944.764v5.747a1.769,1.769,0,1,1-3.537.087h0V938.991a1.771,1.771,0,0,1,3.539-.132c0,.038,0,.077,0,.117C218.25,940.908,218.232,942.836,218.232,944.764Z" transform="translate(-197.68 -874.281)" fill="#12263f"/>
      <path id="Path_116880" data-name="Path 116880" d="M235.409,940.482a8.306,8.306,0,0,1,1.391.145,1.717,1.717,0,0,1,1.221,1.865,1.748,1.748,0,0,1-1.642,1.56c-.679.031-1.364.033-2.043,0a1.72,1.72,0,0,1-1.606-1.828v-.005a1.741,1.741,0,0,1,1.691-1.691h.986Z" transform="translate(-184.31 -871.814)" fill="#12263f"/>
      <path id="Path_116881" data-name="Path 116881" d="M245.539,940.49a8.668,8.668,0,0,1,1.325.106,1.737,1.737,0,0,1,1.3,1.884,1.756,1.756,0,0,1-1.672,1.571,13.141,13.141,0,0,1-2.313-.078,1.659,1.659,0,0,1-1.306-1.916,1.762,1.762,0,0,1,1.7-1.527h.951Z" transform="translate(-176.805 -871.808)" fill="#12263f"/>
      <path id="Path_116882" data-name="Path 116882" d="M230.3,944.048c-.317,0-.639.012-.953,0a1.771,1.771,0,0,1,.085-3.54h1.726a1.77,1.77,0,0,1,.092,3.537c-.317.016-.639,0-.951,0Z" transform="translate(-188.061 -871.795)" fill="#12263f"/>
      <path id="Path_116883" data-name="Path 116883" d="M240.466,940.51h.881a1.776,1.776,0,0,1,1.759,1.674,1.752,1.752,0,0,1-1.576,1.844,15.672,15.672,0,0,1-2.215,0,1.731,1.731,0,0,1-1.524-1.811,1.768,1.768,0,0,1,1.691-1.7h.986Z" transform="translate(-180.557 -871.793)" fill="#12263f"/>
      <path id="Path_116884" data-name="Path 116884" d="M250.564,940.49a9.149,9.149,0,0,1,1.362.108,1.759,1.759,0,0,1,1.3,1.7,1.741,1.741,0,0,1-1.661,1.719c-.639.03-1.263.043-1.893.031a1.769,1.769,0,1,1,.045-3.537h.852Z" transform="translate(-173.041 -871.808)" fill="#12263f"/>
    </g>
    <g id="RNGu9o" transform="translate(1069.645 9316.748)">
      <g id="Grupo_54379" data-name="Grupo 54379">
        <path id="Trazado_117001" data-name="Trazado 117001" d="M437.649,704.908H396.474c-1.137,0-1.657-.5-1.657-1.631q0-21.02.007-42.044c0-2.108-.047-4.222.124-6.319a6.793,6.793,0,0,1,3.488-5.313,7.13,7.13,0,0,1,3.849-1.047q35.383,0,70.762.011a7.018,7.018,0,0,1,6.788,4.345,7.425,7.425,0,0,1,.668,2.99q.059,23.715.025,47.429c0,1.085-.526,1.585-1.633,1.585H437.649Zm40.155-2.776v-.952q0-19.608,0-39.214c0-1.926.074-3.852.04-5.779a4.712,4.712,0,0,0-1.193-3.346,5.042,5.042,0,0,0-3.743-1.545q-35.181.03-70.36.014a8.068,8.068,0,0,0-.807.016,4.55,4.55,0,0,0-4.16,4.156c-.128,2.251-.036,4.515-.036,6.774v39.875Z" transform="translate(-388.298 -648.549)" fill="#12263f"/>
        <path id="Trazado_117002" data-name="Trazado 117002" d="M450.193,684.539c.331-2.005,1.33-2.859,3.232-2.859q10.953,0,21.9,0h12.786c1.45,0,1.8.4,1.777,1.845-.031,1.68-.052,3.364.023,5.042a4.963,4.963,0,0,1-4.945,4.923c-.338.007-.674,0-1.012,0H396.616c-2.744,0-4.792-1.491-5.3-3.948a12.36,12.36,0,0,1-.131-2.409c-.005-1.3.029-2.6.052-3.9.02-1.134.428-1.551,1.554-1.547,3.053.011,6.107.049,9.16.047,8.154-.009,16.308-.041,24.462-.032a5.131,5.131,0,0,1,2.005.4,2.3,2.3,0,0,1,1.344,1.966c.041.388.217.492.559.491q2.423-.014,4.846-.016,3.4,0,6.794.007Zm-23.177-.136H399.87q-2.552,0-5.1,0c-.866,0-.884,0-.891.891-.007.92.108,1.847.023,2.756a2.5,2.5,0,0,0,2.688,2.7q43.908-.051,87.818-.025c.2,0,.4,0,.606-.005a2.063,2.063,0,0,0,2.111-1.728c.131-1.5.032-3.015.032-4.648-1.515,0-2.99-.006-4.463,0-2.934.014-5.87.048-8.806.054q-8.9.014-17.792,0c-.853,0-1.709.009-2.562,0-.329-.005-.514.047-.589.446a2.69,2.69,0,0,1-2.862,2.393q-10.042.016-20.083,0a2.738,2.738,0,0,1-2.911-2.51C427.068,684.646,427.048,684.559,427.016,684.4Z" transform="translate(-391.189 -622.151)" fill="#12263f"/>
        <path id="Trazado_117003" data-name="Trazado 117003" d="M434.927,693.884q-17.589,0-35.18,0c-1.276,0-1.788-.485-1.786-1.719q0-16.948.009-33.893c0-1.526.023-3.053.029-4.578a1.446,1.446,0,0,1,1.337-1.565,4.5,4.5,0,0,1,.6-.022q11.794,0,23.589,0c2.87,0,5.737.05,8.607.05,3.161,0,6.323-.048,9.484-.05q14.282-.008,28.56,0a1.5,1.5,0,0,1,1.653,1.664q0,19.2,0,38.4c0,1.258-.494,1.711-1.86,1.711Q452.45,693.885,434.927,693.884Zm34.136-39.045H400.746v36.236h68.317Z" transform="translate(-385.792 -645.717)" fill="#12263f"/>
        <path id="Trazado_117004" data-name="Trazado 117004" d="M442.405,664.256a5.194,5.194,0,0,1-.9,1.055,1.356,1.356,0,0,1-1.509-.142,36.9,36.9,0,0,0-4.986-2.758c-8.127-3.141-15.747-2.048-22.8,3.056-.217.158-.413.345-.634.5a1.36,1.36,0,0,1-1.924-.225,1.3,1.3,0,0,1,.246-1.912,33.4,33.4,0,0,1,4.548-2.975c9.361-4.523,18.39-3.878,27.012,1.982A1.846,1.846,0,0,1,442.405,664.256Z" transform="translate(-376.718 -641.108)" fill="#37a3a5"/>
        <path id="Trazado_117005" data-name="Trazado 117005" d="M437.524,666.209a5.023,5.023,0,0,1-.88,1.078,1.245,1.245,0,0,1-1.506-.133,16.648,16.648,0,0,0-5.466-2.693,17.551,17.551,0,0,0-15.905,3.116,2.352,2.352,0,0,1-1.272.453,1.147,1.147,0,0,1-1.1-.931,1.325,1.325,0,0,1,.492-1.495,18.958,18.958,0,0,1,5.82-3.321,20.11,20.11,0,0,1,18.633,2.359A2.225,2.225,0,0,1,437.524,666.209Z" transform="translate(-375.143 -638.625)" fill="#37a3a5"/>
        <path id="Trazado_117006" data-name="Trazado 117006" d="M422.611,663.881a15.641,15.641,0,0,1,9.228,2.629c.147.1.293.2.433.32a1.362,1.362,0,1,1-1.614,2.194,12.465,12.465,0,0,0-15.152.332,1.433,1.433,0,0,1-1.8.135,1.311,1.311,0,0,1-.462-1.558,2.156,2.156,0,0,1,.624-.765A14.541,14.541,0,0,1,422.611,663.881Z" transform="translate(-373.693 -636.332)" fill="#37a3a5"/>
        <path id="Trazado_117007" data-name="Trazado 117007" d="M421.909,666.647a9.934,9.934,0,0,1,5.863,1.861,1.381,1.381,0,1,1-1.542,2.271,7.4,7.4,0,0,0-8.961.2,1.39,1.39,0,0,1-2.083-.124,1.434,1.434,0,0,1,.467-2.093A10.11,10.11,0,0,1,421.909,666.647Z" transform="translate(-372.292 -634.129)" fill="#37a3a5"/>
      </g>
    </g>
    <g id="Grupo_54398" data-name="Grupo 54398" transform="translate(-640.974 8250.254)">
      <path id="Trazado_117224" data-name="Trazado 117224" d="M1388.717,1042.455a1.423,1.423,0,0,1,.778,1.464q-.02,15.694-.01,31.388a3.07,3.07,0,0,1-2.19,3.091,3.106,3.106,0,0,1-.865.128q-7.8.011-15.609,0a3.036,3.036,0,0,1-3.045-2.861c-.011-.164-.016-.328-.016-.493q0-15.676-.009-31.352a1.3,1.3,0,0,1,.809-1.369h.564a1.307,1.307,0,0,1,.79,1.379c-.025,2.324-.01,4.648-.01,6.972v.313c2.927-.1,5.813-.047,8.7-.044s5.79-.072,8.717.055v-.375c0-2.277.016-4.554-.01-6.831a1.436,1.436,0,0,1,.775-1.468Zm-1.4,22.374q0-5.23,0-10.46c0-.81-.323-1.136-1.121-1.137h-15.147c-.8,0-1.144.342-1.144,1.129q0,10.443,0,20.885c0,.8.331,1.132,1.136,1.132q7.574,0,15.147,0c.825,0,1.13-.307,1.13-1.124Q1387.318,1070.042,1387.318,1064.829Z" fill="#12263f"/>
      <path id="Trazado_117225" data-name="Trazado 117225" d="M1806.191,1198.5a12.141,12.141,0,0,1-3.535,8.622,1.05,1.05,0,0,1-1.113.334,1.034,1.034,0,0,1-.764-.835,1.108,1.108,0,0,1,.376-1.042,9.638,9.638,0,0,0,2.594-4.676,9.971,9.971,0,0,0-2.522-9.4,1.231,1.231,0,0,1-.449-1.12,1.078,1.078,0,0,1,1.853-.529,12.141,12.141,0,0,1,3.106,5.315A11.86,11.86,0,0,1,1806.191,1198.5Z" transform="translate(-402.441 -136.659)" fill="#37a3a5"/>
      <path id="Trazado_117226" data-name="Trazado 117226" d="M1763.614,1237.375a8.084,8.084,0,0,1-2.3,5.41,1.078,1.078,0,1,1-1.562-1.475,5.984,5.984,0,0,0,0-8.385,1.08,1.08,0,1,1,1.558-1.486A8.17,8.17,0,0,1,1763.614,1237.375Z" transform="translate(-364.008 -175.275)" fill="#37a3a5"/>
      <path id="Trazado_117227" data-name="Trazado 117227" d="M1719.9,1276.241a3.976,3.976,0,0,1-1.133,2.752,1.067,1.067,0,0,1-1.492.081,1.025,1.025,0,0,1-.1-1.508,1.885,1.885,0,0,0-.007-2.655,1.024,1.024,0,0,1,.09-1.483,1.056,1.056,0,0,1,1.491.051A3.93,3.93,0,0,1,1719.9,1276.241Z" transform="translate(-324.491 -214.405)" fill="#37a3a5"/>
      <path id="Trazado_117228" data-name="Trazado 117228" d="M1417.2,1215.121a3.261,3.261,0,0,1,2.041-3,3.216,3.216,0,0,1,3.625.621,1.075,1.075,0,1,1-1.434,1.6,1.207,1.207,0,1,0-1.709,1.7,1.1,1.1,0,0,1-.062,1.572,1.077,1.077,0,0,1-1.563-.158A3.469,3.469,0,0,1,1417.2,1215.121Z" transform="translate(-45.96 -157.406)" fill="#12263f"/>
      <path id="Trazado_117229" data-name="Trazado 117229" d="M1600.511,1388.155a3.757,3.757,0,0,1,.1-.653,1.029,1.029,0,0,1,1.126-.7,1.018,1.018,0,0,1,.919.876,3.77,3.77,0,0,1,0,.978,1.051,1.051,0,0,1-1.133.883,1.088,1.088,0,0,1-.979-1.061c0-.105,0-.211,0-.317Z" transform="translate(-216.33 -320.032)" fill="#12263f"/>
      <path id="Trazado_117230" data-name="Trazado 117230" d="M1600.742,1444.115a1.093,1.093,0,0,1,.674-1.235,1.042,1.042,0,0,1,1.433.766,3.418,3.418,0,0,1,.022.944,1.042,1.042,0,0,1-1.142.95,1.059,1.059,0,0,1-.985-1.081C1600.741,1444.365,1600.742,1444.271,1600.742,1444.115Z" transform="translate(-216.535 -372.083)" fill="#12263f"/>
      <path id="Trazado_117231" data-name="Trazado 117231" d="M1469.9,1262.788a1.359,1.359,0,0,1,1.247,1.32,1.055,1.055,0,0,1-1.111,1.021,1.38,1.38,0,0,1-1.231-1.3A1.053,1.053,0,0,1,1469.9,1262.788Z" transform="translate(-93.919 -204.78)" fill="#12263f"/>
    </g>
    <g id="Grupo_54399" data-name="Grupo 54399" transform="translate(-901.864 8216.055)">
      <path id="Trazado_117232" data-name="Trazado 117232" d="M1888.5,1130.947c4.013,1.029,4.455,1.626,4.455,5.78q0,3.186,0,6.372c0,3.964-.523,4.651-4.2,5.5-.323,6.185-.59,12.378-.993,18.562-.2,3.055-.626,6.1-.993,9.138-.292,2.43-2.22,1.371-3.523,1.557-1.436.205-1.65-.7-1.639-1.895.04-4.225.016-8.45.016-12.806h-136.79c0,3.889.073,7.643-.039,11.393-.039,1.31.993,3.352-1.844,3.359-3.008.007-3.175.053-3.408-3.313-.565-8.15-1.037-16.307-1.541-24.461-.029-.463,0-.929,0-1.563-3.392-.367-4.454-2.4-4.295-5.534.119-2.344-.2-4.707-.21-7.062-.022-3.4.975-4.43,4.587-4.771v-29.991c4.158-1.157,6.381-.631,7.085,1.673H1881.04c.564-.745,1.013-1.923,1.587-1.987a21.532,21.532,0,0,1,5.364.192c.264.037.486,1.375.489,2.112.034,8.338.021,16.677.021,25.015Zm-135.326,1.927v22.75h120.149v-22.75Zm128.277-1.642v-26.6c-.777-.047-1.392-.117-2.008-.117q-66.19-.008-132.381-.041c-1.761,0-2.3.493-2.269,2.262.1,5.978.045,11.958.048,17.937q0,3.251,0,6.5h17.847c-.567-3.809-.954-7.374-1.654-10.877-.839-4.2-.931-4.161,3.451-4.135q15.335.092,30.671.1c2.6,0,5.19-.095,7.786-.1,1.58,0,2.36.652,1.864,2.373a26.785,26.785,0,0,0-.878,3.9c-.378,2.894-.644,5.8-.959,8.74h20.843c-.644-3.982-1.157-7.75-1.886-11.476-.64-3.268-.483-3.552,2.838-3.547,12.189.02,24.379.048,36.569.019,5.022-.012,4.914-.094,3.943,4.839-.653,3.32-.948,6.712-1.424,10.224Zm-130.05,17.257h-6.458v12.894h136.483v-12.9h-6.4c0,2.113-.154,4.083.04,6.017.236,2.347-.7,2.831-2.908,2.827q-58.886-.1-117.771-.047a7.617,7.617,0,0,0-.943,0c-1.515.189-2.141-.409-2.07-1.984C1751.476,1153.108,1751.4,1150.905,1751.4,1148.489Zm110.815-17.288c.659-4.684,1.274-9.048,1.882-13.366h-40.714l1.965,13.366Zm-99.874-13.366c.679,4.526,1.336,8.905,2,13.336h36.768c.683-4.562,1.34-8.95,1.992-13.336Zm112.8,29c4.825,0,9.368.013,13.912-.007a2.16,2.16,0,0,0,2.391-2.325c.048-3.138.126-6.285-.071-9.411-.048-.765-1.089-2.077-1.712-2.1-4.824-.176-9.657-.1-14.52-.1Zm-123.849-14.146c-4.517,0-8.811-.028-13.1.012-2.2.02-3.212,1.072-3.09,3.409.147,2.813-.132,5.652.067,8.458.055.778,1.129,2.1,1.776,2.121,4.742.182,9.494.1,14.35.1Zm-8.043-1.362v-28.711h-3.684v28.711Zm140.033-28.792v28.646h3.482v-28.646Zm-.07,45.873v27.553c1.438.571,2.085.2,2.213-1.32.4-4.774,1.026-9.533,1.289-14.312.217-3.958.044-7.937.044-11.921Zm-144.142,0c.688,9.031,1.327,17.771,2.088,26.5.048.543,1.064,1,1.968,1.795v-28.3Z" transform="translate(-59.38)" fill="#12263f"/>
      <path id="Trazado_117233" data-name="Trazado 117233" d="M1625.492,1135.055c-.336-.252-.394-.331-.457-.337-4.215-.382-4.16-.378-3.913-4.681.075-1.293.614-1.566,1.746-1.565q24.194.028,48.386-.015c1.5,0,1.835.578,1.853,1.952.051,4.009.1,4.008-4.141,4.371a3.42,3.42,0,0,0-.216.828c-.108,8.415-.279,16.829-.277,25.244q0,14.623.29,29.245c.037,2.016-.667,2.529-2.579,2.519q-19.118-.1-38.237.005c-2.029.013-2.5-.713-2.49-2.608.059-17.47.034-34.941.033-52.411Zm1.8,17.258H1667V1134.76h-39.712Zm39.6,19.163V1154h-39.576v17.474Zm.054,1.9h-39.594v17.41h39.594Zm4.5-43.271h-48.626v2.826h48.626Z" transform="translate(0 -14.701)" fill="#12263f"/>
      <path id="Trazado_117234" data-name="Trazado 117234" d="M1672.838,1160.4c-.762-.985-2-1.892-2.176-2.973-.269-1.635.883-2.782,2.676-2.777a2.346,2.346,0,0,1,2.6,2.633c-.149,1.1-1.307,2.063-2.015,3.087Z" transform="translate(-26.186 -28.532)" fill="#12263f"/>
      <path id="Trazado_117235" data-name="Trazado 117235" d="M1672.824,1200.225c-.756-.984-1.978-1.891-2.158-2.971-.276-1.649.864-2.757,2.676-2.751,1.705.006,2.8,1.092,2.593,2.611-.153,1.1-1.3,2.061-2,3.083Z" transform="translate(-26.187 -49.574)" fill="#12263f"/>
      <path id="Trazado_117236" data-name="Trazado 117236" d="M1676.353,1237.417c-1.027.712-1.977,1.823-3.1,2.042-1.593.311-2.569-.916-2.76-2.489-.173-1.432,1.414-3.156,2.767-2.762,1.141.333,2.068,1.4,3.091,2.136Z" transform="translate(-26.11 -70.509)" fill="#12263f"/>
    </g>
    <g id="Grupo_54400" data-name="Grupo 54400" transform="translate(1138.471 9143.855)">
      <path id="Trazado_117224-2" data-name="Trazado 117224" d="M1368.571,1042.455a1.407,1.407,0,0,0-.82,1.464q.021,15.694.01,31.387a3.088,3.088,0,0,0,2.308,3.091,3.436,3.436,0,0,0,.911.128q8.224.011,16.449,0a3.134,3.134,0,0,0,3.209-2.861c.011-.164.016-.328.016-.492q0-15.676.009-31.352a1.291,1.291,0,0,0-.852-1.369h-.594a1.3,1.3,0,0,0-.833,1.379c.027,2.324.01,4.648.01,6.972v.313c-3.085-.1-6.125-.047-9.165-.044s-6.1-.072-9.186.055v-.375c0-2.277-.017-4.554.011-6.831a1.42,1.42,0,0,0-.817-1.468Zm1.474,22.374q0-5.23,0-10.46c0-.81.34-1.136,1.182-1.137h15.962c.839,0,1.206.342,1.206,1.129q0,10.443,0,20.885c0,.8-.349,1.132-1.2,1.132q-7.981,0-15.962,0c-.869,0-1.19-.307-1.191-1.124Q1370.044,1070.042,1370.045,1064.829Z" transform="translate(-1352.727 -1042.455)" fill="#12263f"/>
      <path id="Trazado_117225-2" data-name="Trazado 117225" d="M1800.757,1198.5a11.831,11.831,0,0,0,3.725,8.622,1.144,1.144,0,0,0,1.173.334,1.057,1.057,0,0,0,.8-.835,1.077,1.077,0,0,0-.4-1.042,9.515,9.515,0,0,1-2.733-4.676,9.625,9.625,0,0,1,2.658-9.4,1.2,1.2,0,0,0,.473-1.12,1.056,1.056,0,0,0-.8-.836,1.13,1.13,0,0,0-1.148.307,12.02,12.02,0,0,0-3.274,5.315A11.292,11.292,0,0,0,1800.757,1198.5Z" transform="translate(-1800.756 -1179.114)" fill="#37a3a5"/>
      <path id="Trazado_117226-2" data-name="Trazado 117226" d="M1759.417,1237.375a7.886,7.886,0,0,0,2.42,5.41,1.185,1.185,0,0,0,1.679.1,1.052,1.052,0,0,0-.033-1.572,5.768,5.768,0,0,1,0-8.385,1.058,1.058,0,0,0,.013-1.6,1.2,1.2,0,0,0-1.655.112A7.944,7.944,0,0,0,1759.417,1237.375Z" transform="translate(-1755.049 -1217.73)" fill="#37a3a5"/>
      <path id="Trazado_117227-2" data-name="Trazado 117227" d="M1716.886,1276.241a3.875,3.875,0,0,0,1.194,2.752,1.168,1.168,0,0,0,1.572.081.991.991,0,0,0,.105-1.508,1.817,1.817,0,0,1,.008-2.655.989.989,0,0,0-.095-1.483,1.156,1.156,0,0,0-1.572.051A3.831,3.831,0,0,0,1716.886,1276.241Z" transform="translate(-1708.093 -1256.86)" fill="#37a3a5"/>
      <path id="Trazado_117228-2" data-name="Trazado 117228" d="M1423.594,1215.121a3.267,3.267,0,0,0-2.151-3,3.526,3.526,0,0,0-3.82.621,1.033,1.033,0,0,0-.142,1.538,1.171,1.171,0,0,0,1.653.061,1.327,1.327,0,0,1,1.8,0,1.164,1.164,0,0,1,0,1.707,1.057,1.057,0,0,0,.065,1.572,1.176,1.176,0,0,0,1.647-.158A3.372,3.372,0,0,0,1423.594,1215.121Z" transform="translate(-1389.336 -1199.861)" fill="#12263f"/>
      <path id="Trazado_117229-2" data-name="Trazado 117229" d="M1602.8,1388.155a3.583,3.583,0,0,0-.1-.653,1.089,1.089,0,0,0-1.186-.7,1.05,1.05,0,0,0-.968.876,3.576,3.576,0,0,0,0,.978,1.1,1.1,0,0,0,1.194.883,1.113,1.113,0,0,0,1.031-1.061c0-.105,0-.211,0-.317Z" transform="translate(-1582.177 -1362.487)" fill="#12263f"/>
      <path id="Trazado_117230-2" data-name="Trazado 117230" d="M1603,1444.115a1.083,1.083,0,0,0-.71-1.235,1.106,1.106,0,0,0-1.51.766,3.247,3.247,0,0,0-.023.944,1.128,1.128,0,0,0,2.242-.131C1603,1444.365,1603,1444.271,1603,1444.115Z" transform="translate(-1582.403 -1414.538)" fill="#12263f"/>
      <path id="Trazado_117231-2" data-name="Trazado 117231" d="M1470.118,1262.788a1.392,1.392,0,0,0-1.314,1.32,1.09,1.09,0,0,0,1.171,1.021,1.413,1.413,0,0,0,1.3-1.3A1.086,1.086,0,0,0,1470.118,1262.788Z" transform="translate(-1440.852 -1247.235)" fill="#12263f"/>
    </g>
    <g id="Grupo_54401" data-name="Grupo 54401" transform="translate(960.448 9167.816)">
      <path id="Trazado_117232-2" data-name="Trazado 117232" d="M1738.184,1130.947c-4.229,1.029-4.694,1.626-4.695,5.78q0,3.186,0,6.372c0,3.964.552,4.651,4.43,5.5.341,6.185.622,12.378,1.047,18.562.209,3.055.659,6.1,1.046,9.138.308,2.429,2.34,1.37,3.713,1.557,1.513.205,1.739-.7,1.727-1.895-.042-4.225-.016-8.45-.016-12.806h144.148c0,3.889-.076,7.643.041,11.393.041,1.31-1.047,3.352,1.943,3.359,3.17.007,3.346.053,3.592-3.313.6-8.15,1.093-16.307,1.624-24.461.03-.463,0-.929,0-1.563,3.574-.367,4.694-2.4,4.526-5.534-.125-2.344.206-4.707.222-7.062.023-3.4-1.028-4.43-4.834-4.771v-29.991c-4.382-1.157-6.725-.631-7.466,1.673H1746.047c-.594-.745-1.068-1.923-1.673-1.987a23.9,23.9,0,0,0-5.653.192c-.278.037-.512,1.375-.515,2.112-.036,8.338-.022,16.677-.022,25.015Zm142.606,1.927v22.75H1754.178v-22.75Zm-135.177-1.642v-26.6c.819-.047,1.467-.117,2.116-.117q69.751-.008,139.5-.041c1.856,0,2.423.493,2.391,2.262-.108,5.978-.047,11.958-.05,17.937q0,3.251,0,6.5h-18.807c.6-3.809,1.005-7.374,1.743-10.877.885-4.2.981-4.161-3.636-4.135q-16.16.092-32.321.1c-2.735,0-5.47-.095-8.2-.1-1.665,0-2.487.652-1.964,2.373a25.63,25.63,0,0,1,.925,3.9c.4,2.894.679,5.8,1.011,8.74h-21.964c.679-3.982,1.219-7.75,1.988-11.476.674-3.268.509-3.552-2.991-3.547q-19.268.03-38.536.019c-5.292-.012-5.178-.094-4.155,4.839.688,3.32,1,6.712,1.5,10.224Zm137.045,17.257h6.806v12.894H1745.639v-12.9h6.74a58.745,58.745,0,0,1-.042,6.017c-.248,2.347.741,2.831,3.065,2.827q62.053-.1,124.107-.047a8.458,8.458,0,0,1,.994,0c1.6.189,2.256-.409,2.181-1.984C1882.58,1153.108,1882.658,1150.905,1882.658,1148.489ZM1765.883,1131.2c-.695-4.684-1.342-9.048-1.983-13.366h42.9c-.691,4.46-1.371,8.851-2.071,13.366Zm105.247-13.366c-.715,4.526-1.408,8.905-2.107,13.336h-38.746c-.719-4.562-1.412-8.95-2.1-13.336Zm-118.867,29c-5.085,0-9.872.013-14.66-.007a2.224,2.224,0,0,1-2.519-2.325c-.051-3.138-.133-6.285.075-9.411.051-.765,1.148-2.077,1.8-2.1,5.084-.176,10.177-.1,15.3-.1Zm130.512-14.146c4.76,0,9.284-.028,13.808.012,2.315.02,3.385,1.072,3.256,3.409-.155,2.813.14,5.652-.07,8.458-.058.778-1.19,2.1-1.872,2.121-5,.182-10,.1-15.122.1Zm8.476-1.362v-28.711h3.882v28.711Zm-147.566-28.792v28.646h-3.669v-28.646Zm.074,45.873v27.553c-1.515.571-2.2.2-2.332-1.32-.424-4.774-1.081-9.533-1.358-14.312-.229-3.958-.047-7.937-.047-11.921Zm151.9,0c-.725,9.031-1.4,17.771-2.2,26.5-.05.543-1.121,1-2.074,1.795v-28.3Z" transform="translate(-1733.489 -1100.616)" fill="#12263f"/>
      <path id="Trazado_117233-2" data-name="Trazado 117233" d="M1671.217,1135.055c.354-.252.415-.331.482-.337,4.442-.382,4.384-.378,4.123-4.681-.079-1.293-.646-1.566-1.84-1.565q-25.5.028-50.989-.015c-1.581,0-1.933.578-1.952,1.952-.054,4.009-.111,4.008,4.363,4.371a3.283,3.283,0,0,1,.227.828c.113,8.415.294,16.829.292,25.244q0,14.623-.306,29.245c-.039,2.016.7,2.529,2.717,2.519q20.147-.1,40.294.005c2.138.013,2.631-.713,2.624-2.608-.062-17.47-.036-34.941-.035-52.411Zm-1.9,17.258h-41.848V1134.76h41.848Zm-41.733,19.163V1154h41.705v17.474Zm-.057,1.9h41.723v17.41h-41.723Zm-4.743-43.271h51.242v2.826h-51.242Z" transform="translate(-1451.94 -1115.317)" fill="#12263f"/>
      <path id="Trazado_117234-2" data-name="Trazado 117234" d="M1673.912,1160.4c.8-.985,2.106-1.892,2.293-2.973.283-1.635-.931-2.782-2.819-2.777-1.773.005-2.953,1.123-2.737,2.633.157,1.1,1.377,2.063,2.123,3.087Z" transform="translate(-1476.933 -1129.148)" fill="#12263f"/>
      <path id="Trazado_117235-2" data-name="Trazado 117235" d="M1673.93,1200.225c.8-.984,2.084-1.891,2.274-2.971.291-1.649-.91-2.757-2.819-2.751-1.8.006-2.956,1.092-2.733,2.611.161,1.1,1.37,2.061,2.112,3.083Z" transform="translate(-1476.935 -1150.19)" fill="#12263f"/>
      <path id="Trazado_117236-2" data-name="Trazado 117236" d="M1670.479,1237.417c1.082.712,2.083,1.823,3.267,2.042,1.679.311,2.708-.916,2.908-2.489.183-1.432-1.49-3.156-2.915-2.762-1.2.333-2.18,1.4-3.257,2.136Z" transform="translate(-1477.283 -1171.125)" fill="#12263f"/>
    </g>
  </g>
</svg>
