<svg xmlns="http://www.w3.org/2000/svg" xmlns:xlink="http://www.w3.org/1999/xlink" width="256.505" height="194.16" viewBox="0 0 256.505 194.16">
  <defs>
    <linearGradient id="linear-gradient" x1="0.5" x2="0.5" y2="1" gradientUnits="objectBoundingBox">
      <stop offset="0" stop-color="#fff"/>
      <stop offset="1" stop-color="#d2e6ee"/>
    </linearGradient>
  </defs>
  <g id="Grupo_54411" data-name="Grupo 54411" transform="translate(-23.909 -73.61)">
    <path id="Trazado_95347" data-name="Trazado 95347" d="M310.1,200.92l16.541-9.55a12.122,12.122,0,0,1,10.968,0l7.119,4.318,57.456,33.173c3.03,1.748,3.029,4.583,0,6.331l-50.178,28.97" transform="translate(-125.544 -51.082)" fill="none" stroke="#00223d" stroke-linecap="round" stroke-linejoin="round" stroke-width="3"/>
    <path id="Trazado_95348" data-name="Trazado 95348" d="M118.68,171.428l32.134-18.553a12.123,12.123,0,0,1,10.967,0l7.12,4.318,36.307,20.961" transform="translate(-41.573 -34.196)" fill="none" stroke="#00223d" stroke-linecap="round" stroke-linejoin="round" stroke-width="3"/>
    <path id="Trazado_95349" data-name="Trazado 95349" d="M87.107,299.767,37.615,271.193c-3.029-1.749-3.029-4.584,0-6.332L91.19,233.928" transform="translate(-5.016 -70.326)" fill="none" stroke="#00223d" stroke-linecap="round" stroke-linejoin="round" stroke-width="3"/>
    <line id="Línea_335" data-name="Línea 335" x1="38.153" y2="22.561" transform="translate(77.107 200.298)" fill="none" stroke="#00223d" stroke-linecap="round" stroke-linejoin="round" stroke-width="3"/>
    <line id="Línea_336" data-name="Línea 336" x1="63.059" y2="36.619" transform="translate(115.375 159.272)" fill="none" stroke="#00223d" stroke-linecap="round" stroke-linejoin="round" stroke-width="3"/>
    <path id="Trazado_95350" data-name="Trazado 95350" d="M239.461,351.661l-58.393,33.714a12.124,12.124,0,0,1-10.967,0l-46.466-26.827" transform="translate(-43.747 -121.972)" fill="none" stroke="#00223d" stroke-linecap="round" stroke-linejoin="round" stroke-width="3"/>
    <path id="Trazado_95351" data-name="Trazado 95351" d="M292.776,200.361,243.25,171.767a.923.923,0,0,0-.925,0l-22.882,13.21a.925.925,0,0,0,0,1.6l49.526,28.593a.921.921,0,0,0,.925,0l22.882-13.21a.925.925,0,0,0,0-1.6Z" transform="translate(-85.572 -43.004)" opacity="0.2" style="mix-blend-mode: multiply;isolation: isolate"/>
    <g id="Grupo_41938" data-name="Grupo 41938" transform="translate(134.334 73.611)">
      <path id="Trazado_95352" data-name="Trazado 95352" d="M331.74,179.844l-22.881,13.21V137.417l22.881-13.21Z" transform="translate(-259.332 -95.806)" fill="url(#linear-gradient)"/>
      <path id="Trazado_95353" data-name="Trazado 95353" d="M331.74,142.625l-22.881,13.21v-1.381l22.881-13.211Z" transform="translate(-259.332 -103.279)" fill="#00223d"/>
      <path id="Trazado_95354" data-name="Trazado 95354" d="M331.74,162.665l-22.881,13.21v-1.381l22.881-13.211Z" transform="translate(-259.332 -112.07)" fill="#00223d"/>
      <path id="Trazado_95355" data-name="Trazado 95355" d="M331.74,182.706l-22.881,13.21v-1.381l22.881-13.211Z" transform="translate(-259.332 -120.862)" fill="#00223d"/>
      <path id="Trazado_95356" data-name="Trazado 95356" d="M331.74,202.747l-22.881,13.211v-1.381l22.881-13.211Z" transform="translate(-259.332 -129.653)" fill="#00223d"/>
      <path id="Trazado_95357" data-name="Trazado 95357" d="M329.585,222.786a3.486,3.486,0,0,1-1.577,2.731c-.871.5-1.577.1-1.577-.91a3.485,3.485,0,0,1,1.577-2.731C328.878,221.373,329.585,221.78,329.585,222.786Z" transform="translate(-267.041 -138.555)" fill="#00223d"/>
      <g id="Grupo_41937" data-name="Grupo 41937" transform="translate(53.358 79.401)">
        <path id="Trazado_95358" data-name="Trazado 95358" d="M317.263,228.078a3.489,3.489,0,0,0-1.577,2.731c0,1.006.707,1.413,1.577.91a3.48,3.48,0,0,0,1.578-2.731C318.841,227.983,318.136,227.575,317.263,228.078Z" transform="translate(-315.686 -220.677)" fill="#37a3a5"/>
        <path id="Trazado_95359" data-name="Trazado 95359" d="M339.434,215.277a3.491,3.491,0,0,0-1.578,2.733c0,1.005.707,1.413,1.578.91a3.485,3.485,0,0,0,1.577-2.733C341.011,215.182,340.306,214.775,339.434,215.277Z" transform="translate(-325.411 -215.062)" fill="#37a3a5"/>
      </g>
      <path id="Trazado_95360" data-name="Trazado 95360" d="M270.154,181.033l-49.525-28.593V96.8L270.155,125.4Z" transform="translate(-220.629 -83.784)" fill="url(#linear-gradient)"/>
      <path id="Trazado_95361" data-name="Trazado 95361" d="M270.154,115.415,220.629,86.822l22.882-13.211L293.036,102.2Z" transform="translate(-220.629 -73.611)" fill="#d2e1f1"/>
      <path id="Trazado_95362" data-name="Trazado 95362" d="M270.154,143.814l-49.525-28.594V113.84l49.525,28.594Z" transform="translate(-220.629 -91.258)" fill="#21587b"/>
      <path id="Trazado_95363" data-name="Trazado 95363" d="M270.155,163.855l-49.526-28.593V133.88l49.526,28.594Z" transform="translate(-220.629 -100.049)" fill="#21587b"/>
      <path id="Trazado_95364" data-name="Trazado 95364" d="M270.155,183.9,220.629,155.3v-1.381l49.526,28.594Z" transform="translate(-220.629 -108.84)" fill="#21587b"/>
      <path id="Trazado_95365" data-name="Trazado 95365" d="M270.154,203.936l-49.525-28.594v-1.381l49.526,28.593Z" transform="translate(-220.629 -117.632)" fill="#21587b"/>
    </g>
    <path id="Trazado_95366" data-name="Trazado 95366" d="M222.649,301.7l-46.2-26.674a4.906,4.906,0,0,0-4.541,0L144.67,290.75a2.037,2.037,0,0,0,0,3.733l46.2,26.674a4.906,4.906,0,0,0,4.54,0l27.238-15.726a2.037,2.037,0,0,0,0-3.733Z" transform="translate(-52.439 -88.109)" opacity="0.2" style="mix-blend-mode: multiply;isolation: isolate"/>
    <g id="Grupo_41939" data-name="Grupo 41939" transform="translate(91.973 184.346)">
      <path id="Trazado_95367" data-name="Trazado 95367" d="M223.66,299.2v-.179a1.25,1.25,0,0,0-.739-1.041l-46.2-26.674a3.954,3.954,0,0,0-3.577,0l-27.237,15.725a1.254,1.254,0,0,0-.74,1.041v.39a.127.127,0,0,0,0,.015v.051a.136.136,0,0,0,0,.015v.7a.126.126,0,0,0,0,.015v1.249a1.251,1.251,0,0,0,.74,1.041l46.2,26.674a3.957,3.957,0,0,0,3.577,0L222.921,302.5a1.25,1.25,0,0,0,.739-1.041V299.2Z" transform="translate(-145.165 -270.883)" fill="#00223d"/>
      <path id="Trazado_95368" data-name="Trazado 95368" d="M222.92,297.985a1.091,1.091,0,0,1,0,2.066l-27.237,15.725a3.954,3.954,0,0,1-3.577,0l-46.2-26.673a1.091,1.091,0,0,1,0-2.067l27.237-15.725a3.954,3.954,0,0,1,3.577,0Z" transform="translate(-145.164 -270.883)" fill="url(#linear-gradient)"/>
      <path id="Trazado_95369" data-name="Trazado 95369" d="M218.326,299.041a.863.863,0,0,1,0,1.635l-21.559,12.449a3.136,3.136,0,0,1-2.832,0l-34.173-19.73a.863.863,0,0,1,0-1.635l21.56-12.448a3.127,3.127,0,0,1,2.832,0Z" transform="translate(-151.311 -274.432)" fill="#00223d"/>
      <path id="Trazado_95370" data-name="Trazado 95370" d="M217.951,299.88c.742.428.758,1.114.035,1.532l-19.944,11.514a2.935,2.935,0,0,1-2.653-.018l-32.425-18.722c-.743-.429-.757-1.114-.034-1.532l19.943-11.515a2.935,2.935,0,0,1,2.654.02Z" transform="translate(-152.724 -275.247)" fill="#a6e4ff"/>
      <path id="Trazado_95371" data-name="Trazado 95371" d="M162.963,296.273l3.266,1.886q6.279-6.281,12.55-12.569l-15.85,9.151C162.207,295.16,162.221,295.844,162.963,296.273Z" transform="translate(-152.724 -277.335)" fill="#bfecff"/>
      <path id="Trazado_95372" data-name="Trazado 95372" d="M217.9,297.125l-5.91-3.412L195.476,310.23l5.91,3.412Z" transform="translate(-167.235 -280.898)" fill="#bfecff"/>
      <path id="Trazado_95373" data-name="Trazado 95373" d="M221.3,324.451l16.082-16.082-3.323-1.918L217.54,322.969l2.038,1.178A2.909,2.909,0,0,0,221.3,324.451Z" transform="translate(-176.913 -286.486)" fill="#bfecff"/>
      <path id="Trazado_95374" data-name="Trazado 95374" d="M199.062,286.233l-1.815-1.048q-8.234,8.277-16.487,16.535l1.784,1.03Z" transform="translate(-160.779 -277.157)" fill="#bfecff"/>
      <path id="Trazado_95375" data-name="Trazado 95375" d="M176.629,283.576a.481.481,0,0,1,0,.912l-7.9,4.563a1.752,1.752,0,0,1-1.581,0h0a.482.482,0,0,1,0-.912l7.9-4.562a1.743,1.743,0,0,1,1.581,0Z" transform="translate(-154.664 -276.368)" fill="#00223d"/>
      <path id="Trazado_95376" data-name="Trazado 95376" d="M251.891,329.664c1.357.784,1.357,2.055,0,2.839a5.439,5.439,0,0,1-4.917,0c-1.357-.784-1.357-2.054,0-2.839A5.437,5.437,0,0,1,251.891,329.664Z" transform="translate(-189.379 -296.411)" fill="#fff"/>
      <path id="Trazado_95377" data-name="Trazado 95377" d="M251.99,330.8a.928.928,0,0,1,0,1.759,3.366,3.366,0,0,1-3.046,0,.929.929,0,0,1,0-1.759A3.373,3.373,0,0,1,251.99,330.8Z" transform="translate(-190.413 -297.008)" fill="#66797a"/>
      <path id="Trazado_95378" data-name="Trazado 95378" d="M237.951,337.134a.376.376,0,0,1,0,.711l-6.5,3.75a1.356,1.356,0,0,1-1.229,0h0a.374.374,0,0,1,0-.708l6.5-3.752a1.359,1.359,0,0,1,1.229,0Z" transform="translate(-182.366 -299.881)" fill="#00223d"/>
      <path id="Trazado_95379" data-name="Trazado 95379" d="M267.64,319.992a.375.375,0,0,1,0,.71l-6.5,3.751a1.365,1.365,0,0,1-1.23,0h0a.374.374,0,0,1,0-.709l6.5-3.752a1.359,1.359,0,0,1,1.229,0Z" transform="translate(-195.39 -292.361)" fill="#00223d"/>
    </g>
    <path id="Trazado_95380" data-name="Trazado 95380" d="M128.635,180.1,88.854,157.131a7.691,7.691,0,0,0-3.736-.99,4.979,4.979,0,0,0-2.483.589L25.381,189.785a2.764,2.764,0,0,0-1.472,2.409,3.787,3.787,0,0,0,2.167,3.132l39.782,22.967a7.688,7.688,0,0,0,3.736.99,4.976,4.976,0,0,0,2.484-.59l57.252-33.054a2.763,2.763,0,0,0,1.473-2.409A3.785,3.785,0,0,0,128.635,180.1Z" transform="translate(0 -36.203)" opacity="0.2" style="mix-blend-mode: multiply;isolation: isolate"/>
    <g id="Grupo_41940" data-name="Grupo 41940" transform="translate(25.598 118.697)">
      <path id="Trazado_95381" data-name="Trazado 95381" d="M130.431,180.478c0-.007,0-.014,0-.02s0-.014,0-.021,0-.013,0-.021,0-.014,0-.021,0-.014,0-.021,0-.013,0-.02v-.021c0-.007,0-.014,0-.021s0-.014,0-.021,0-.013,0-.02,0-.014,0-.021,0-.013,0-.02,0-.014,0-.021,0-.014,0-.021,0-.013,0-.021,0-.013,0-.02,0-.015,0-.021,0-.014,0-.021,0-.013,0-.02,0-.014,0-.022,0-.014,0-.021,0-.013,0-.019V180c0-.007,0-.014,0-.021s0-.014,0-.021,0-.014,0-.02,0-.014,0-.021,0-.014,0-.02,0-.014,0-.021,0-.014,0-.021,0-.013,0-.021,0-.013,0-.021,0-.013,0-.02,0-.014,0-.021,0-.014,0-.021,0-.013,0-.021,0-.013,0-.021,0-.013,0-.02,0-.014,0-.021,0-.014,0-.021,0-.013,0-.019,0-.016,0-.025,0-.012,0-.019,0-.014,0-.021,0-.014,0-.021,0-.014,0-.021,0-.014,0-.02,0-.014,0-.021,0-.014,0-.021,0-.013,0-.02,0-.026,0-.039c.043-.567-.417-1.221-1.321-1.744L89.329,154.7a5.142,5.142,0,0,0-4.531-.4L27.546,187.35a1.108,1.108,0,0,0-.626.893c0,.021,0,.042,0,.063s0,.015,0,.022,0,.013,0,.021,0,.013,0,.02,0,.014,0,.021,0,.014,0,.021,0,.014,0,.021,0,.014,0,.021,0,.013,0,.019,0,.015,0,.021,0,.014,0,.021,0,.014,0,.021,0,.014,0,.021,0,.013,0,.02,0,.014,0,.021,0,.014,0,.021,0,.014,0,.021,0,.014,0,.021,0,.014,0,.02,0,.014,0,.021,0,.013,0,.02,0,.015,0,.021,0,.013,0,.02,0,.014,0,.021,0,.014,0,.021,0,.014,0,.02,0,.014,0,.021,0,.013,0,.02,0,.015,0,.021,0,.014,0,.02,0,.014,0,.021,0,.014,0,.02,0,.015,0,.021,0,.014,0,.021,0,.013,0,.021,0,.013,0,.02,0,.014,0,.021,0,.013,0,.02,0,.014,0,.021,0,.013,0,.021,0,.013,0,.021,0,.013,0,.021,0,.013,0,.019,0,.015,0,.022,0,.014,0,.021,0,.013,0,.02,0,.014,0,.021,0,.014,0,.021,0,.014,0,.021,0,.014,0,.021,0,.013,0,.02,0,.014,0,.021,0,.014,0,.021,0,.014,0,.021,0,.013,0,.021,0,.014,0,.021,0,.013,0,.02,0,.015,0,.021,0,.014,0,.021,0,.014,0,.021,0,.014,0,.02,0,.014,0,.021,0,.013,0,.021,0,.013,0,.02,0,.014,0,.021,0,.014,0,.021,0,.013,0,.02,0,.013,0,.02,0,.015,0,.022,0,.014,0,.021,0,.013,0,.02,0,.013,0,.021,0,.013,0,.02,0,.014,0,.021,0,.014,0,.021,0,.014,0,.021,0,.014,0,.021,0,.013,0,.02,0,.014,0,.021,0,.014,0,.021,0,.014,0,.021,0,.013,0,.021,0,.013,0,.021,0,.013,0,.021,0,.013,0,.02,0,.014,0,.021,0,.014,0,.021,0,.013,0,.02,0,.014,0,.021,0,.013,0,.02,0,.014,0,.021,0,.014,0,.021,0,.013,0,.021,0,.014,0,.021,0,.013,0,.02,0,.014,0,.021,0,.013,0,.021,0,.014,0,.021,0,.013,0,.021,0,.013,0,.021,0,.014,0,.021,0,.013,0,.02,0,.014,0,.021,0,.013,0,.021,0,.013,0,.02,0,.015,0,.021,0,.014,0,.021,0,.014,0,.021,0,.013,0,.02,0,.014,0,.021,0,.014,0,.021,0,.014,0,.021,0,.014,0,.021,0,.013,0,.021,0,.014,0,.021,0,.013,0,.02,0,.014,0,.021,0,.014,0,.021,0,.013,0,.02,0,.013,0,.021,0,.014,0,.02,0,.015,0,.021,0,.014,0,.021,0,.014,0,.021,0,.014,0,.02,0,.014,0,.021,0,.014,0,.021,0,.013,0,.02,0,.014,0,.021,0,.013,0,.02,0,.014,0,.021,0,.013,0,.021,0,.013,0,.021,0,.013,0,.02,0,.013,0,.021,0,.013,0,.021,0,.013,0,.02,0,.015,0,.021,0,.014,0,.021,0,.014,0,.021,0,.014,0,.02,0,.014,0,.021,0,.014,0,.021,0,.014,0,.021,0,.014,0,.021,0,.013,0,.021,0,.013,0,.02,0,.015,0,.021c-.042.566.418,1.219,1.32,1.741l39.782,22.967a5.142,5.142,0,0,0,4.531.4L129.805,183.4a1.109,1.109,0,0,0,.626-.9c0-.007,0-.014,0-.021s0-.014,0-.02,0-.014,0-.021,0-.014,0-.021,0-.013,0-.02,0-.014,0-.021,0-.013,0-.02,0-.015,0-.021,0-.014,0-.021,0-.014,0-.021,0-.013,0-.021,0-.013,0-.021,0-.013,0-.02,0-.014,0-.021,0-.013,0-.02,0-.014,0-.021,0-.014,0-.02,0-.014,0-.021,0-.013,0-.021,0-.013,0-.02,0-.014,0-.021,0-.013,0-.021,0-.013,0-.021,0-.014,0-.02,0-.014,0-.021,0-.014,0-.021,0-.014,0-.021,0-.013,0-.021,0-.013,0-.02,0-.014,0-.021,0-.013,0-.02,0-.014,0-.021,0-.014,0-.021,0-.014,0-.02,0-.014,0-.021,0-.013,0-.02,0-.014,0-.021,0-.013,0-.021,0-.013,0-.021,0-.013,0-.02,0-.014,0-.021,0-.014,0-.021,0-.014,0-.021,0-.013,0-.021,0-.013,0-.021,0-.013,0-.02,0-.014,0-.021,0-.014,0-.021,0-.013,0-.021,0-.014,0-.021,0-.013,0-.02,0-.014,0-.021,0-.013,0-.02,0-.014,0-.021,0-.014,0-.021,0-.013,0-.021,0-.013,0-.02,0-.014,0-.021,0-.014,0-.021,0-.013,0-.021,0-.013,0-.021,0-.013,0-.02,0-.014,0-.021,0-.014,0-.021,0-.014,0-.02,0-.014,0-.021,0-.014,0-.021,0-.014,0-.021,0-.014,0-.021,0-.014,0-.021,0-.014,0-.021,0-.013,0-.02,0-.014,0-.021,0-.014,0-.021,0-.014,0-.021,0-.014,0-.021,0-.013,0-.02,0-.015,0-.022,0-.013,0-.02,0-.013,0-.02,0-.013,0-.02,0-.015,0-.022,0-.014,0-.021,0-.013,0-.019,0-.014,0-.021,0-.013,0-.02,0-.014,0-.021,0-.014,0-.02,0-.014,0-.021,0-.014,0-.021,0-.013,0-.021,0-.014,0-.021,0-.013,0-.02,0-.014,0-.021,0-.014,0-.021,0-.013,0-.02,0-.013,0-.02S130.431,180.485,130.431,180.478Z" transform="translate(-26.917 -153.932)" fill="#00223d"/>
      <path id="Trazado_95382" data-name="Trazado 95382" d="M72.553,213.334a5.14,5.14,0,0,1-4.531-.4L28.24,189.966c-1.443-.834-1.754-2-.694-2.616L84.8,154.295a5.142,5.142,0,0,1,4.531.4l39.781,22.967c1.443.834,1.754,2,.695,2.616Z" transform="translate(-26.917 -153.932)" fill="url(#linear-gradient)"/>
      <path id="Trazado_95383" data-name="Trazado 95383" d="M86.353,210.661a4.642,4.642,0,0,1-4.112-.325l-35.6-20.554c-1.29-.745-1.543-1.808-.563-2.374l44.256-25.551a4.64,4.64,0,0,1,4.112.325l35.6,20.554c1.291.745,1.543,1.808.564,2.374Z" transform="translate(-35.06 -157.257)" fill="#00223d"/>
      <path id="Trazado_95384" data-name="Trazado 95384" d="M87.988,210.341a4.325,4.325,0,0,1-3.847-.276L51.21,191.051c-1.194-.689-1.409-1.683-.479-2.221L92.8,164.543a4.324,4.324,0,0,1,3.846.277l32.932,19.013c1.194.689,1.409,1.684.479,2.221Z" transform="translate(-37.11 -158.44)" fill="#1e2729"/>
      <path id="Trazado_95385" data-name="Trazado 95385" d="M51.21,206.829l.345.2,6.853-6.852-7.677,4.432C49.8,205.145,50.016,206.14,51.21,206.829Z" transform="translate(-37.11 -174.218)" fill="#2b383b"/>
      <path id="Trazado_95386" data-name="Trazado 95386" d="M100.213,164.231a3.326,3.326,0,0,0-1.881.314l-13.2,7.623L62.766,194.531l4.53,2.616Z" transform="translate(-42.643 -158.442)" fill="#2b383b"/>
      <path id="Trazado_95387" data-name="Trazado 95387" d="M133.466,180.585l-5.253-3.033L94.951,210.813l5.253,3.033Z" transform="translate(-56.761 -164.293)" fill="#2b383b"/>
      <path id="Trazado_95388" data-name="Trazado 95388" d="M152.517,191.306l-4.35-2.511-32.644,32.644a2.776,2.776,0,0,0,1.141-.313l14.274-8.241Z" transform="translate(-65.786 -169.225)" fill="#2b383b"/>
      <path id="Trazado_95389" data-name="Trazado 95389" d="M186.857,199.142l-.058-.034q-3.033,3.035-6.068,6.068l6.606-3.814C188.266,200.826,188.052,199.831,186.857,199.142Z" transform="translate(-94.391 -173.749)" fill="#2b383b"/>
      <path id="Trazado_95390" data-name="Trazado 95390" d="M116.393,170.728l-2.182-1.259L80.951,202.73l2.181,1.259Z" transform="translate(-50.62 -160.747)" fill="#2b383b"/>
      <path id="Trazado_95391" data-name="Trazado 95391" d="M169.89,178.822a1.871,1.871,0,0,1-1.695,0l-8.473-4.891a.517.517,0,0,1,0-.978h0a1.872,1.872,0,0,1,1.695,0l8.473,4.892a.516.516,0,0,1,0,.978Z" transform="translate(-85.021 -162.187)" fill="#324245"/>
      <path id="Trazado_95392" data-name="Trazado 95392" d="M71.893,234.116a5.828,5.828,0,0,1-5.272,0c-1.457-.84-1.457-2.2,0-3.044a5.826,5.826,0,0,1,5.272,0C73.349,231.912,73.349,233.275,71.893,234.116Z" transform="translate(-43.855 -187.494)" fill="#00223d"/>
      <path id="Trazado_95393" data-name="Trazado 95393" d="M72,234.177a3.613,3.613,0,0,1-3.266,0,1,1,0,0,1,0-1.886,3.608,3.608,0,0,1,3.266,0A1,1,0,0,1,72,234.177Z" transform="translate(-44.963 -188.134)" fill="#4b6366"/>
      <path id="Trazado_95394" data-name="Trazado 95394" d="M53.288,223.374a1.457,1.457,0,0,1-1.319,0l-11.462-6.617c-.5-.286-.6-.688-.238-.9h0a1.766,1.766,0,0,1,1.557.138l11.462,6.618a.4.4,0,0,1,0,.761Z" transform="translate(-32.679 -181.042)" fill="#00223d"/>
      <path id="Trazado_95395" data-name="Trazado 95395" d="M93.515,246.6a1.766,1.766,0,0,1-1.557-.137L80.5,239.844a.4.4,0,0,1,0-.761h0a1.458,1.458,0,0,1,1.318,0L93.276,245.7c.5.286.6.689.239.9Z" transform="translate(-50.301 -191.216)" fill="#00223d"/>
    </g>
    <path id="Trazado_95396" data-name="Trazado 95396" d="M389.477,325.024l-25.547-14.749a6.786,6.786,0,0,0-6.263,0l-62.806,36.262a2.689,2.689,0,0,0,0,4.948l25.547,14.75a6.787,6.787,0,0,0,6.263,0l62.806-36.262a2.689,2.689,0,0,0,0-4.948Z" transform="translate(-118.141 -103.481)" opacity="0.2" style="mix-blend-mode: multiply;isolation: isolate"/>
    <path id="Trazado_95397" data-name="Trazado 95397" d="M183.178,396.769a6.638,6.638,0,0,1-6.006,0c-1.659-.957-1.659-2.51,0-3.467a6.634,6.634,0,0,1,6.006,0C184.837,394.259,184.837,395.812,183.178,396.769Z" transform="translate(-66.686 -139.923)" fill="#00223d"/>
    <path id="Trazado_95398" data-name="Trazado 95398" d="M74.965,320.469a6.638,6.638,0,0,1-6.006,0c-1.659-.957-1.659-2.51,0-3.467a6.63,6.63,0,0,1,6.006,0C76.624,317.959,76.624,319.512,74.965,320.469Z" transform="translate(-19.216 -106.453)" fill="#00223d"/>
    <path id="Trazado_95399" data-name="Trazado 95399" d="M143.775,324.056a6.638,6.638,0,0,1-6.006,0c-1.659-.957-1.659-2.51,0-3.467a6.634,6.634,0,0,1,6.006,0C145.433,321.545,145.433,323.1,143.775,324.056Z" transform="translate(-49.401 -108.026)" fill="#00223d"/>
    <path id="Trazado_95400" data-name="Trazado 95400" d="M256.119,250.246a6.636,6.636,0,0,1-6.006,0c-1.659-.958-1.659-2.51,0-3.467a6.633,6.633,0,0,1,6.006,0C257.778,247.735,257.778,249.288,256.119,250.246Z" transform="translate(-98.683 -75.648)" fill="#00223d"/>
    <path id="Trazado_95401" data-name="Trazado 95401" d="M409.478,221.461a6.638,6.638,0,0,1-6.006,0c-1.658-.957-1.658-2.51,0-3.467a6.634,6.634,0,0,1,6.006,0C411.138,218.951,411.138,220.5,409.478,221.461Z" transform="translate(-165.957 -63.021)" fill="#00223d"/>
    <path id="Trazado_95402" data-name="Trazado 95402" d="M177.6,153.749a6.639,6.639,0,0,1-6.007,0c-1.659-.957-1.659-2.51,0-3.467a6.639,6.639,0,0,1,6.007,0C179.254,151.239,179.254,152.792,177.6,153.749Z" transform="translate(-64.237 -33.318)" fill="#00223d"/>
    <path id="Trazado_95403" data-name="Trazado 95403" d="M121.829,363.312,90.538,345.247a6.39,6.39,0,0,0-5.887,0L53.36,363.314a2.447,2.447,0,0,0,0,4.515L84.652,385.9a6.39,6.39,0,0,0,5.886,0l31.291-18.067a2.448,2.448,0,0,0,0-4.517Z" transform="translate(-12.26 -118.844)" opacity="0.2" style="mix-blend-mode: multiply;isolation: isolate"/>
    <g id="Grupo_41943" data-name="Grupo 41943" transform="translate(40.565 199.275)">
      <path id="Trazado_95404" data-name="Trazado 95404" d="M87.333,384.325,56.041,366.259a4.97,4.97,0,0,1-1.664-1.712,2.035,2.035,0,0,1-.795.233v6.336a5.438,5.438,0,0,0,2.459,4.259l31.292,18.066c1.358.784,2.459-.236,2.459-1.8v-8.731C89.791,384.474,88.69,385.11,87.333,384.325Z" transform="translate(-53.582 -326.9)" fill="url(#linear-gradient)"/>
      <path id="Trazado_95405" data-name="Trazado 95405" d="M149.148,364.935h-.674a5.047,5.047,0,0,1-1.765,1.884L115.416,383.8c-1.358.784-2.459,1.23-2.459-.338v8.725c0,1.568,1.1,2.2,2.459,1.42l31.292-18.066a5.437,5.437,0,0,0,2.459-4.259v-6.353Z" transform="translate(-79.628 -327.069)" fill="#e1eef2"/>
      <path id="Trazado_95406" data-name="Trazado 95406" d="M148.039,378.665l-25.886,14.945v-4.6l25.885-14.945Z" transform="translate(-83.662 -331.073)" fill="#00223d"/>
      <g id="Grupo_41941" data-name="Grupo 41941" transform="translate(39.347 44.179)">
        <path id="Trazado_95407" data-name="Trazado 95407" d="M123.678,402.573l.7-.4.054.544,1.015-.584.054-.607.7-.4v-2.91l-2.52,1.454Z" transform="translate(-123.678 -385.845)" fill="url(#linear-gradient)"/>
        <path id="Trazado_95408" data-name="Trazado 95408" d="M130.037,398.9l.7-.4.054.545,1.014-.586.055-.607.7-.4V394.54l-2.519,1.453Z" transform="translate(-126.467 -384.235)" fill="url(#linear-gradient)"/>
        <path id="Trazado_95409" data-name="Trazado 95409" d="M136.4,395.232l.7-.4.055.544,1.014-.586.054-.607.7-.4v-2.909l-2.519,1.454Z" transform="translate(-129.257 -382.625)" fill="url(#linear-gradient)"/>
        <path id="Trazado_95410" data-name="Trazado 95410" d="M142.754,391.56l.7-.4.055.544,1.014-.586.054-.607.7-.4V387.2l-2.519,1.455Z" transform="translate(-132.046 -381.014)" fill="url(#linear-gradient)"/>
        <path id="Trazado_95411" data-name="Trazado 95411" d="M149.113,387.889l.7-.4.054.545,1.014-.585.054-.607.7-.4v-2.91l-2.519,1.455Z" transform="translate(-134.836 -379.403)" fill="url(#linear-gradient)"/>
        <path id="Trazado_95412" data-name="Trazado 95412" d="M155.471,384.219l.7-.4.054.544,1.015-.585.054-.607.7-.4v-2.909l-2.519,1.454Z" transform="translate(-137.625 -377.793)" fill="url(#linear-gradient)"/>
        <path id="Trazado_95413" data-name="Trazado 95413" d="M161.83,377.637v2.91l.7-.4.053.544,1.015-.585.054-.607.7-.4v-2.91Z" transform="translate(-140.414 -376.183)" fill="url(#linear-gradient)"/>
      </g>
      <path id="Trazado_95414" data-name="Trazado 95414" d="M63.269,328.591,60.1,316.314c-.085-.328-.53-.512-1-.427s-.821.415-.784.752l1.374,12.6a3.531,3.531,0,0,0,.126.62l2.229,12.217a1.805,1.805,0,0,0,3.552-.648l-2.23-12.217A3.655,3.655,0,0,0,63.269,328.591Z" transform="translate(-55.659 -305.545)" fill="url(#linear-gradient)"/>
      <g id="Grupo_41942" data-name="Grupo 41942" transform="translate(4.012 22.926)">
        <path id="Trazado_95415" data-name="Trazado 95415" d="M67.211,339.016a3.594,3.594,0,0,0-.1-.575l-.031-.12Z" transform="translate(-63.517 -338.321)" fill="#cfdade"/>
        <path id="Trazado_95416" data-name="Trazado 95416" d="M66.659,351.725l-1.44-7.893a1.8,1.8,0,0,1-3.554.618l-.934-5.118.022.2a3.53,3.53,0,0,0,.126.62l2.229,12.217a1.805,1.805,0,0,0,3.552-.648Z" transform="translate(-60.73 -338.764)" fill="#cfdade"/>
      </g>
      <path id="Trazado_95417" data-name="Trazado 95417" d="M74.576,313.761l-3.787-15.677a.92.92,0,0,0-1.783.326l1.995,16a5.75,5.75,0,0,0,.157.791L74,330.761a1.858,1.858,0,1,0,3.552-.648l-2.839-15.557A5.854,5.854,0,0,0,74.576,313.761Z" transform="translate(-60.345 -297.479)" fill="url(#linear-gradient)"/>
      <path id="Trazado_95418" data-name="Trazado 95418" d="M79,342.452l-1.4-7.679a1.957,1.957,0,0,1-1.406,2.054A2.1,2.1,0,0,1,74,334.889l-1.694-9.281.143,1.145a5.75,5.75,0,0,0,.157.791L75.448,343.1A1.858,1.858,0,1,0,79,342.452Z" transform="translate(-61.797 -309.818)" fill="#cfdade"/>
      <path id="Trazado_95419" data-name="Trazado 95419" d="M89.266,322.062,86.1,309.786c-.085-.329-.531-.512-1-.427s-.821.415-.784.753l1.374,12.6a3.616,3.616,0,0,0,.126.62l2.229,12.216A1.805,1.805,0,1,0,91.6,334.9l-2.23-12.217A3.632,3.632,0,0,0,89.266,322.062Z" transform="translate(-67.063 -302.681)" fill="url(#linear-gradient)"/>
      <path id="Trazado_95420" data-name="Trazado 95420" d="M92.565,344.361,90.583,333.5a1.8,1.8,0,0,1-3.564.138l-.5-2.741.139,1.274a3.618,3.618,0,0,0,.126.62l2.229,12.216a1.805,1.805,0,1,0,3.552-.648Z" transform="translate(-68.03 -312.139)" fill="#cfdade"/>
      <path id="Trazado_95421" data-name="Trazado 95421" d="M90.81,368.431a5.435,5.435,0,0,1-4.917,0L54.6,350.365c-1.358-.785-1.358-2.056,0-2.839l31.292-18.066a5.433,5.433,0,0,1,4.917,0L122.1,347.525c1.359.784,1.359,2.055,0,2.84Z" transform="translate(-53.582 -311.25)" fill="url(#linear-gradient)"/>
      <path id="Trazado_95422" data-name="Trazado 95422" d="M93.259,365.743a4.9,4.9,0,0,1-4.431,0L60.636,349.466a1.351,1.351,0,0,1,0-2.559l28.192-16.277a4.9,4.9,0,0,1,4.431,0l28.192,16.276a1.35,1.35,0,0,1,0,2.558Z" transform="translate(-56.274 -311.789)" fill="#e1eef2"/>
      <path id="Trazado_95423" data-name="Trazado 95423" d="M60.636,352.327l4.509,2.6q9.122-9.162,18.259-18.307L60.635,349.768A1.351,1.351,0,0,0,60.636,352.327Z" transform="translate(-56.274 -314.65)" fill="#e6f3f7"/>
      <path id="Trazado_95424" data-name="Trazado 95424" d="M109.183,335.868l-4.351-2.513q-11.937,11.938-23.853,23.9l4.322,2.5Z" transform="translate(-65.6 -313.217)" fill="#e6f3f7"/>
      <path id="Trazado_95425" data-name="Trazado 95425" d="M128.515,347.042l-4.353-2.513L100.28,368.41l4.353,2.513Z" transform="translate(-74.067 -318.118)" fill="#e6f3f7"/>
      <path id="Trazado_95426" data-name="Trazado 95426" d="M152.663,358.139l-4.217-2.434-17.575,17.575L152.663,360.7A1.35,1.35,0,0,0,152.663,358.139Z" transform="translate(-87.486 -323.02)" fill="#e6f3f7"/>
    </g>
    <g id="Grupo_41945" data-name="Grupo 41945" transform="translate(121.663 115.947)">
      <path id="Trazado_95427" data-name="Trazado 95427" d="M209.355,200.325l-11.3-6.522c.025,14.51,4.642,25.559,11.933,31.024l6.456,3.728Z" transform="translate(-198.057 -168.672)" fill="#22979a"/>
      <path id="Trazado_95428" data-name="Trazado 95428" d="M245.769,151.6l-4.453-2.57c-.438.272-.876.543-1.318.8-7.376,4.26-14.277,5.6-20.169,4.411-5.891,7.993-12.79,14.619-20.169,18.878-.538.311-1.073.6-1.6.881v.047c0,.039,0,.078,0,.117l11.3,6.522Z" transform="translate(-198.056 -149.032)" fill="#22979a"/>
      <path id="Trazado_95429" data-name="Trazado 95429" d="M248.065,163.358l14.72-11.756-4.452-2.57c-.438.272-.876.543-1.318.8-7.376,4.26-14.277,5.6-20.169,4.411l4.165,2.707Z" transform="translate(-215.072 -149.032)" fill="#22979a"/>
      <path id="Trazado_95430" data-name="Trazado 95430" d="M247.418,154.515c-7.377,4.26-14.277,5.6-20.169,4.412-5.891,7.992-12.792,14.618-20.169,18.878-.538.31-1.073.6-1.6.881,0,.016,0,.031,0,.047,0,20.386,8.811,33.02,21.775,34.567,12.963-16.515,21.774-39.324,21.774-59.71v-.046C248.491,153.878,247.957,154.2,247.418,154.515Z" transform="translate(-201.311 -151.01)" fill="#37a3a5"/>
      <g id="Grupo_41944" data-name="Grupo 41944" transform="translate(12.242 14.065)">
        <path id="Trazado_95431" data-name="Trazado 95431" d="M226.916,206.1l-7.05-4.071c.016,9.056,2.9,15.952,7.447,19.362l4.029,2.326Z" transform="translate(-219.865 -186.345)" fill="#205173"/>
        <path id="Trazado_95432" data-name="Trazado 95432" d="M249.643,175.692l-2.779-1.6c-.273.17-.547.339-.822.5-4.6,2.658-8.912,3.5-12.588,2.752a42.806,42.806,0,0,1-12.588,11.782c-.336.194-.67.375-1,.55v.029c0,.024,0,.048,0,.073l7.05,4.071Z" transform="translate(-219.865 -174.088)" fill="#3d7293"/>
        <path id="Trazado_95433" data-name="Trazado 95433" d="M251.973,182.312l8.29-6.62-2.779-1.6c-.273.17-.547.339-.822.5-4.6,2.658-8.912,3.5-12.588,2.752l2.6,1.69Z" transform="translate(-230.485 -174.088)" fill="#21587b"/>
        <path id="Trazado_95434" data-name="Trazado 95434" d="M250.671,177.511c-4.6,2.658-8.911,3.5-12.588,2.753A42.808,42.808,0,0,1,225.5,192.045c-.335.194-.67.376-1,.55v.029c0,12.723,5.5,20.608,13.589,21.574,8.091-10.307,13.59-24.542,13.59-37.265V176.9C251.341,177.113,251.007,177.317,250.671,177.511Z" transform="translate(-221.896 -175.323)" fill="#21587b"/>
        <path id="Trazado_95435" data-name="Trazado 95435" d="M248.7,214.2c8.091-10.307,13.59-24.542,13.59-37.265V176.9c-.332.209-.666.413-1,.607-4.6,2.658-8.911,3.5-12.588,2.753C248.7,180.264,252.786,192.931,248.7,214.2Z" transform="translate(-232.515 -175.323)" fill="#3d7293"/>
      </g>
    </g>
    <g id="Grupo_41951" data-name="Grupo 41951" transform="translate(170.353 154.917)">
      <path id="Trazado_95436" data-name="Trazado 95436" d="M350.658,218.877l-64.574,36.568c-1.412.814-1.412,2.135,0,2.949l3.539,2.679c-1.411-.814-1.411-2.136,0-2.95l62.807-36.263c1.411-.814,2.058-.274,2.977-.87,0,0,.528-.163.1-1.056C354.8,218.441,352.068,218.062,350.658,218.877Z" transform="translate(-284.896 -218.457)" fill="#00223d"/>
      <path id="Trazado_95437" data-name="Trazado 95437" d="M288.163,332.2V289.081c0-1.629,1.143-2.29,2.556-1.475l-3.367-2.578c-1.411-.815-2.555-.155-2.555,1.475v43.114a5.335,5.335,0,0,0,2.555,4.426c2.482,1.183,1.61.3,1.61.3C289.38,334.341,289,333.556,288.163,332.2Z" transform="translate(-284.796 -247.506)" fill="#00223d"/>
      <path id="Trazado_95438" data-name="Trazado 95438" d="M358.122,265.049a5.648,5.648,0,0,1-2.556,4.426L292.76,305.737c-1.412.815-2.556.155-2.556-1.475V261.147a5.647,5.647,0,0,1,2.556-4.425l62.807-36.262c1.411-.815,2.556-.154,2.556,1.475Z" transform="translate(-287.168 -219.182)" fill="url(#linear-gradient)"/>
      <path id="Trazado_95439" data-name="Trazado 95439" d="M357.555,267.345a5.091,5.091,0,0,1-2.361,3.952l-58.009,33.492c-1.3.752-2.361.2-2.359-1.228l0-37.845a5.1,5.1,0,0,1,2.361-3.952l58.01-33.491c1.3-.753,2.36-.2,2.36,1.227Z" transform="translate(-289.195 -222.615)" fill="#1e2729"/>
      <path id="Trazado_95440" data-name="Trazado 95440" d="M298.07,287.718l-.469.271a5.033,5.033,0,0,0-1.828,2.027Z" transform="translate(-289.611 -248.839)" fill="#2b383b"/>
      <path id="Trazado_95441" data-name="Trazado 95441" d="M294.827,281.8v7.572l43.9-43.9-17.917,10.344Z" transform="translate(-289.196 -230.311)" fill="#2b383b"/>
      <path id="Trazado_95442" data-name="Trazado 95442" d="M357.556,230.592V230.2a2.2,2.2,0,0,0-.1-.67q-31.316,31.318-62.633,62.634v1.16Z" transform="translate(-289.196 -223.313)" fill="#2b383b"/>
      <path id="Trazado_95443" data-name="Trazado 95443" d="M295.291,311.121a3.923,3.923,0,0,1-.464.392v1.225a1.507,1.507,0,0,0,.676,1.424q31.027-31.025,62.053-62.051v-3.255Z" transform="translate(-289.196 -231.792)" fill="#2b383b"/>
      <path id="Trazado_95444" data-name="Trazado 95444" d="M374.744,275.693v-3.607l-40.736,40.735,8.536-4.929Q358.644,291.794,374.744,275.693Z" transform="translate(-306.384 -241.982)" fill="#2b383b"/>
      <g id="Grupo_41950" data-name="Grupo 41950" transform="translate(5.922 48.805)">
        <path id="Trazado_95445" data-name="Trazado 95445" d="M390.928,324.963v-2.715a1.793,1.793,0,0,0-1.059-1.486l-25.546-14.749a5.647,5.647,0,0,0-5.111,0L296.4,342.276a1.786,1.786,0,0,0-1.057,1.485v3.016a1.789,1.789,0,0,0,1.057,1.485l25.547,14.75a5.651,5.651,0,0,0,5.111,0l62.807-36.262a1.791,1.791,0,0,0,1.059-1.486v-.3Z" transform="translate(-295.347 -305.402)" fill="#00223d"/>
        <path id="Trazado_95446" data-name="Trazado 95446" d="M389.868,320.762c1.412.815,1.412,2.136,0,2.951l-62.807,36.261a5.647,5.647,0,0,1-5.111,0L296.4,345.226c-1.411-.815-1.411-2.136,0-2.95l62.808-36.263a5.647,5.647,0,0,1,5.111,0Z" transform="translate(-295.346 -305.402)" fill="url(#linear-gradient)"/>
        <path id="Trazado_95447" data-name="Trazado 95447" d="M312.026,371.933a.311.311,0,0,1,0,.589l-3.724,2.149a1.124,1.124,0,0,1-1.022,0l-3.722-2.149a.311.311,0,0,1,0-.59l3.722-2.149a1.124,1.124,0,0,1,1.022,0Z" transform="translate(-298.855 -333.59)" fill="#00223d"/>
        <g id="Grupo_41946" data-name="Grupo 41946" transform="translate(14.393 3.199)">
          <path id="Trazado_95448" data-name="Trazado 95448" d="M324.921,359.6l-3.723,2.149a.311.311,0,0,0,0,.59l3.723,2.149a1.126,1.126,0,0,0,1.022,0l3.723-2.149a.312.312,0,0,0,0-.591l-3.723-2.149A1.127,1.127,0,0,0,324.921,359.6Z" transform="translate(-320.986 -332.321)" fill="#00223d"/>
          <path id="Trazado_95449" data-name="Trazado 95449" d="M335.4,353.551l-3.723,2.15a.311.311,0,0,0,0,.589l3.722,2.15a1.131,1.131,0,0,0,1.022,0l3.723-2.15a.311.311,0,0,0,0-.589l-3.723-2.15A1.126,1.126,0,0,0,335.4,353.551Z" transform="translate(-325.581 -329.668)" fill="#00223d"/>
          <path id="Trazado_95450" data-name="Trazado 95450" d="M345.869,347.5l-3.723,2.149a.311.311,0,0,0,0,.589l3.723,2.151a1.127,1.127,0,0,0,1.022,0l3.723-2.151a.311.311,0,0,0,0-.589l-3.723-2.149A1.131,1.131,0,0,0,345.869,347.5Z" transform="translate(-330.175 -327.016)" fill="#00223d"/>
          <path id="Trazado_95451" data-name="Trazado 95451" d="M356.343,341.458l-3.724,2.149a.313.313,0,0,0,0,.591l3.723,2.149a1.131,1.131,0,0,0,1.022,0l3.723-2.148a.312.312,0,0,0,0-.591l-3.723-2.149A1.126,1.126,0,0,0,356.343,341.458Z" transform="translate(-334.77 -324.364)" fill="#00223d"/>
          <path id="Trazado_95452" data-name="Trazado 95452" d="M366.817,335.41l-3.723,2.15a.311.311,0,0,0,0,.589l3.723,2.15a1.133,1.133,0,0,0,1.022,0l3.723-2.15a.311.311,0,0,0,0-.589l-3.724-2.15A1.128,1.128,0,0,0,366.817,335.41Z" transform="translate(-339.365 -321.711)" fill="#00223d"/>
          <path id="Trazado_95453" data-name="Trazado 95453" d="M377.29,329.364l-3.723,2.149a.312.312,0,0,0,0,.59l3.723,2.149a1.124,1.124,0,0,0,1.022,0l3.722-2.149a.311.311,0,0,0,0-.59l-3.722-2.149A1.131,1.131,0,0,0,377.29,329.364Z" transform="translate(-343.959 -319.058)" fill="#00223d"/>
          <path id="Trazado_95454" data-name="Trazado 95454" d="M387.764,323.316l-3.723,2.15a.312.312,0,0,0,0,.591l3.723,2.149a1.13,1.13,0,0,0,1.022,0l3.723-2.149a.312.312,0,0,0,0-.591l-3.723-2.15A1.131,1.131,0,0,0,387.764,323.316Z" transform="translate(-348.554 -316.405)" fill="#00223d"/>
          <path id="Trazado_95455" data-name="Trazado 95455" d="M398.238,317.268l-3.723,2.149a.312.312,0,0,0,0,.59l3.723,2.15a1.131,1.131,0,0,0,1.022,0l3.724-2.15a.312.312,0,0,0,0-.59l-3.724-2.149A1.129,1.129,0,0,0,398.238,317.268Z" transform="translate(-353.148 -313.753)" fill="#00223d"/>
          <path id="Trazado_95456" data-name="Trazado 95456" d="M408.711,311.223l-3.723,2.149a.311.311,0,0,0,0,.59l3.723,2.15a1.134,1.134,0,0,0,1.022,0l3.723-2.15a.312.312,0,0,0,0-.59l-3.723-2.149A1.131,1.131,0,0,0,408.711,311.223Z" transform="translate(-357.742 -311.101)" fill="#00223d"/>
        </g>
        <g id="Grupo_41947" data-name="Grupo 41947" transform="translate(10.27 6.682)">
          <path id="Trazado_95457" data-name="Trazado 95457" d="M327.734,365.8l-13.88,8.014a.312.312,0,0,0,0,.59l3.722,2.15a1.132,1.132,0,0,0,1.023,0l13.879-8.015a.311.311,0,0,0,0-.589l-3.722-2.15A1.131,1.131,0,0,0,327.734,365.8Z" transform="translate(-313.642 -338.527)" fill="#00223d"/>
          <path id="Trazado_95458" data-name="Trazado 95458" d="M346.145,359.758l-3.723,2.15a.311.311,0,0,0,0,.59l3.723,2.148a1.124,1.124,0,0,0,1.023,0l3.722-2.148a.311.311,0,0,0,0-.59l-3.722-2.15A1.132,1.132,0,0,0,346.145,359.758Z" transform="translate(-326.174 -335.874)" fill="#00223d"/>
          <path id="Trazado_95459" data-name="Trazado 95459" d="M356.619,353.71l-3.723,2.15a.311.311,0,0,0,0,.589l3.723,2.151a1.131,1.131,0,0,0,1.022,0l3.722-2.151a.311.311,0,0,0,0-.589l-3.722-2.15A1.134,1.134,0,0,0,356.619,353.71Z" transform="translate(-330.768 -333.221)" fill="#00223d"/>
          <path id="Trazado_95460" data-name="Trazado 95460" d="M367.092,347.664l-3.723,2.149a.311.311,0,0,0,0,.59l3.723,2.15a1.13,1.13,0,0,0,1.022,0l3.723-2.15a.311.311,0,0,0,0-.59l-3.722-2.149A1.125,1.125,0,0,0,367.092,347.664Z" transform="translate(-335.363 -330.569)" fill="#00223d"/>
          <path id="Trazado_95461" data-name="Trazado 95461" d="M377.567,341.617l-3.723,2.149a.311.311,0,0,0,0,.59l3.723,2.149a1.129,1.129,0,0,0,1.022,0l3.723-2.149a.312.312,0,0,0,0-.59l-3.723-2.149A1.126,1.126,0,0,0,377.567,341.617Z" transform="translate(-339.957 -327.916)" fill="#00223d"/>
          <path id="Trazado_95462" data-name="Trazado 95462" d="M388.039,335.569l-3.723,2.149a.312.312,0,0,0,0,.59l3.723,2.15a1.132,1.132,0,0,0,1.023,0l3.722-2.149a.312.312,0,0,0,0-.591l-3.722-2.149A1.131,1.131,0,0,0,388.039,335.569Z" transform="translate(-344.552 -325.263)" fill="#00223d"/>
          <path id="Trazado_95463" data-name="Trazado 95463" d="M398.514,329.522l-3.723,2.15a.312.312,0,0,0,0,.59l3.723,2.149a1.13,1.13,0,0,0,1.022,0l3.724-2.149a.312.312,0,0,0,0-.59l-3.724-2.15A1.126,1.126,0,0,0,398.514,329.522Z" transform="translate(-349.147 -322.611)" fill="#00223d"/>
          <path id="Trazado_95464" data-name="Trazado 95464" d="M408.989,323.476l-3.723,2.149a.312.312,0,0,0,0,.591l3.723,2.149a1.129,1.129,0,0,0,1.022,0l3.723-2.149a.311.311,0,0,0,0-.59l-3.723-2.149A1.13,1.13,0,0,0,408.989,323.476Z" transform="translate(-353.742 -319.958)" fill="#00223d"/>
          <path id="Trazado_95465" data-name="Trazado 95465" d="M419.461,317.427l-3.722,2.15a.311.311,0,0,0,0,.59l3.722,2.149a1.123,1.123,0,0,0,1.022,0l3.723-2.149a.311.311,0,0,0,0-.59l-3.723-2.15A1.128,1.128,0,0,0,419.461,317.427Z" transform="translate(-358.336 -317.305)" fill="#00223d"/>
        </g>
        <g id="Grupo_41948" data-name="Grupo 41948" transform="translate(22.827 13.931)">
          <path id="Trazado_95466" data-name="Trazado 95466" d="M350.1,378.719l-13.881,8.013a.312.312,0,0,0,0,.59l3.723,2.15a1.128,1.128,0,0,0,1.021,0l13.881-8.015a.311.311,0,0,0,0-.59l-3.723-2.149A1.125,1.125,0,0,0,350.1,378.719Z" transform="translate(-336.01 -351.441)" fill="#00223d"/>
          <path id="Trazado_95467" data-name="Trazado 95467" d="M368.513,372.673l-3.723,2.15a.311.311,0,0,0,0,.589l3.723,2.15a1.131,1.131,0,0,0,1.022,0l3.723-2.15a.311.311,0,0,0,0-.589l-3.724-2.15A1.131,1.131,0,0,0,368.513,372.673Z" transform="translate(-348.543 -348.789)" fill="#00223d"/>
          <path id="Trazado_95468" data-name="Trazado 95468" d="M396.625,348.484l-21.361,12.332a.312.312,0,0,0,0,.59l3.723,2.149a1.13,1.13,0,0,0,1.022,0l21.361-12.332a.312.312,0,0,0,0-.591l-3.723-2.149A1.127,1.127,0,0,0,396.625,348.484Z" transform="translate(-353.137 -338.178)" fill="#00223d"/>
          <path id="Trazado_95469" data-name="Trazado 95469" d="M420.882,342.437l-3.723,2.149a.312.312,0,0,0,0,.591l3.723,2.149a1.124,1.124,0,0,0,1.021,0l3.724-2.149a.312.312,0,0,0,0-.591l-3.724-2.149A1.127,1.127,0,0,0,420.882,342.437Z" transform="translate(-371.515 -335.525)" fill="#00223d"/>
          <path id="Trazado_95470" data-name="Trazado 95470" d="M437.234,330.342l-9.6,5.544a.312.312,0,0,0,0,.591l3.723,2.149a1.126,1.126,0,0,0,1.022,0l9.6-5.543a.311.311,0,0,0,0-.589l-3.723-2.15A1.13,1.13,0,0,0,437.234,330.342Z" transform="translate(-376.11 -330.22)" fill="#00223d"/>
        </g>
        <g id="Grupo_41949" data-name="Grupo 41949" transform="translate(16.47 10.262)">
          <path id="Trazado_95471" data-name="Trazado 95471" d="M332.863,378.266l-7.965,4.6a.311.311,0,0,0,0,.589l3.724,2.15a1.127,1.127,0,0,0,1.022,0l7.964-4.6a.312.312,0,0,0,0-.591l-3.722-2.149A1.133,1.133,0,0,0,332.863,378.266Z" transform="translate(-324.686 -347.573)" fill="#00223d"/>
          <path id="Trazado_95472" data-name="Trazado 95472" d="M357.19,366.135l-3.722,2.149a.311.311,0,0,0,0,.589l3.722,2.15a1.131,1.131,0,0,0,1.022,0l3.723-2.15a.311.311,0,0,0,0-.589l-3.723-2.149A1.127,1.127,0,0,0,357.19,366.135Z" transform="translate(-337.219 -342.252)" fill="#00223d"/>
          <path id="Trazado_95473" data-name="Trazado 95473" d="M346.717,372.181l-3.722,2.149a.311.311,0,0,0,0,.59l3.722,2.15a1.13,1.13,0,0,0,1.022,0l3.723-2.15a.312.312,0,0,0,0-.59l-3.724-2.149A1.126,1.126,0,0,0,346.717,372.181Z" transform="translate(-332.624 -344.904)" fill="#00223d"/>
          <path id="Trazado_95474" data-name="Trazado 95474" d="M367.664,360.089l-3.723,2.149a.312.312,0,0,0,0,.591l3.723,2.149a1.132,1.132,0,0,0,1.023,0l3.722-2.149a.312.312,0,0,0,0-.591l-3.723-2.149A1.132,1.132,0,0,0,367.664,360.089Z" transform="translate(-341.813 -339.6)" fill="#00223d"/>
          <path id="Trazado_95475" data-name="Trazado 95475" d="M378.137,354.041l-3.722,2.15a.311.311,0,0,0,0,.59l3.723,2.149a1.126,1.126,0,0,0,1.022,0l3.722-2.149a.311.311,0,0,0,0-.59l-3.722-2.15A1.132,1.132,0,0,0,378.137,354.041Z" transform="translate(-346.407 -336.946)" fill="#00223d"/>
          <path id="Trazado_95476" data-name="Trazado 95476" d="M388.612,347.994l-3.723,2.15a.312.312,0,0,0,0,.591l3.723,2.149a1.13,1.13,0,0,0,1.022,0l3.724-2.149a.312.312,0,0,0,0-.591l-3.722-2.15A1.133,1.133,0,0,0,388.612,347.994Z" transform="translate(-351.002 -334.294)" fill="#00223d"/>
          <path id="Trazado_95477" data-name="Trazado 95477" d="M399.085,341.947l-3.723,2.149a.311.311,0,0,0,0,.59l3.723,2.149a1.126,1.126,0,0,0,1.022,0l3.723-2.149a.312.312,0,0,0,0-.59l-3.723-2.149A1.13,1.13,0,0,0,399.085,341.947Z" transform="translate(-355.596 -331.641)" fill="#00223d"/>
          <path id="Trazado_95478" data-name="Trazado 95478" d="M409.56,335.9l-3.724,2.149a.311.311,0,0,0,0,.59l3.723,2.15a1.131,1.131,0,0,0,1.022,0l3.722-2.15a.311.311,0,0,0,0-.59l-3.722-2.149A1.127,1.127,0,0,0,409.56,335.9Z" transform="translate(-360.191 -328.988)" fill="#00223d"/>
          <path id="Trazado_95479" data-name="Trazado 95479" d="M420.033,329.853,416.311,332a.311.311,0,0,0,0,.59l3.723,2.15a1.131,1.131,0,0,0,1.022,0l3.722-2.149a.311.311,0,0,0,0-.59l-3.722-2.149A1.131,1.131,0,0,0,420.033,329.853Z" transform="translate(-364.786 -326.336)" fill="#00223d"/>
          <path id="Trazado_95480" data-name="Trazado 95480" d="M430.507,323.805l-3.723,2.149a.311.311,0,0,0,0,.59l3.723,2.15a1.126,1.126,0,0,0,1.022,0l3.724-2.15a.312.312,0,0,0,0-.59l-3.724-2.149A1.128,1.128,0,0,0,430.507,323.805Z" transform="translate(-369.38 -323.683)" fill="#00223d"/>
        </g>
      </g>
    </g>
  </g>
</svg>
