<svg xmlns="http://www.w3.org/2000/svg" xmlns:xlink="http://www.w3.org/1999/xlink" width="91.927" height="91.928" viewBox="0 0 91.927 91.928">
  <defs>
    <radialGradient id="radial-gradient" cx="0.076" cy="0.019" r="1.465" gradientTransform="translate(0.001)" gradientUnits="objectBoundingBox">
      <stop offset="0" stop-color="#f6f6f7"/>
      <stop offset="0.477" stop-color="#f9f9fa"/>
      <stop offset="0.715" stop-color="#fff"/>
    </radialGradient>
  </defs>
  <g id="Grupo_54431" data-name="Grupo 54431" transform="translate(-217 -741.333)">
    <g id="Grupo_42274" data-name="Grupo 42274" transform="translate(142 768.333)">
      <g id="Grupo_18423" data-name="Grupo 18423" transform="translate(75 -27)">
        <g id="Grupo_18421" data-name="Grupo 18421">
          <g id="Grupo_18420" data-name="Grupo 18420">
            <g id="Grupo_18419" data-name="Grupo 18419">
              <path id="Trazado_40936" data-name="Trazado 40936" d="M286.55,2191.684a45.964,45.964,0,1,1-45.963-45.962A45.963,45.963,0,0,1,286.55,2191.684Z" transform="translate(-194.623 -2145.721)" fill="#fff"/>
            </g>
          </g>
        </g>
        <path id="Trazado_40937" data-name="Trazado 40937" d="M286.23,2191.334a45.963,45.963,0,1,0-45.963,45.965A45.782,45.782,0,0,0,286.23,2191.334Z" transform="translate(-194.303 -2145.372)" fill="url(#radial-gradient)"/>
        <path id="Trazado_40938" data-name="Trazado 40938" d="M272.56,2188.562a35.084,35.084,0,1,0-35.084,35.084A34.953,34.953,0,0,0,272.56,2188.562Z" transform="translate(-191.373 -2142.446)" fill="none" stroke="#37a3a5" stroke-miterlimit="10" stroke-width="4"/>
        <g id="Grupo_18422" data-name="Grupo 18422" transform="translate(8.143 25.805)">
          <path id="Trazado_40939" data-name="Trazado 40939" d="M279.682,2164.488a45.969,45.969,0,0,1-79.137,45.773,45.823,45.823,0,0,0,79.137-45.773Z" transform="translate(-200.545 -2164.488)" fill="#eceef0"/>
        </g>
      </g>
    </g>
    <g id="Grupo_54438" data-name="Grupo 54438" transform="translate(-1122.024 -275.586)">
      <path id="Trazado_117224" data-name="Trazado 117224" d="M1391.493,1042.455a1.611,1.611,0,0,1,.881,1.658q-.023,17.772-.011,35.544a3.477,3.477,0,0,1-2.481,3.5,3.514,3.514,0,0,1-.979.145q-8.838.013-17.676,0a3.439,3.439,0,0,1-3.448-3.24c-.012-.186-.018-.372-.018-.558q0-17.752-.01-35.5a1.468,1.468,0,0,1,.916-1.55h.639a1.48,1.48,0,0,1,.895,1.562c-.029,2.632-.011,5.264-.011,7.9v.354c3.315-.118,6.583-.053,9.849-.05s6.557-.082,9.871.062v-.425c0-2.579.019-5.158-.012-7.736a1.626,1.626,0,0,1,.878-1.662Zm-1.584,25.337q0-5.923,0-11.845c0-.917-.366-1.287-1.27-1.287h-17.153c-.9,0-1.3.387-1.3,1.278q0,11.826,0,23.651c0,.906.375,1.281,1.286,1.282q8.577,0,17.153,0c.934,0,1.279-.347,1.279-1.273Q1389.91,1073.7,1389.909,1067.792Z" fill="#12263f"/>
      <path id="Trazado_117225" data-name="Trazado 117225" d="M1806.911,1199.691a13.749,13.749,0,0,1-4,9.764,1.189,1.189,0,0,1-1.26.378,1.171,1.171,0,0,1-.865-.946,1.255,1.255,0,0,1,.426-1.18,10.916,10.916,0,0,0,2.938-5.3,11.292,11.292,0,0,0-2.856-10.648,1.394,1.394,0,0,1-.509-1.268,1.221,1.221,0,0,1,2.1-.6,13.75,13.75,0,0,1,3.518,6.019A13.428,13.428,0,0,1,1806.911,1199.691Z" transform="translate(-398.393 -135.284)" fill="#12263f"/>
      <path id="Trazado_117226" data-name="Trazado 117226" d="M1764.171,1238.213a9.155,9.155,0,0,1-2.6,6.126,1.22,1.22,0,1,1-1.769-1.671,6.776,6.776,0,0,0,0-9.5,1.223,1.223,0,1,1,1.764-1.683A9.252,9.252,0,0,1,1764.171,1238.213Z" transform="translate(-360.346 -173.512)" fill="#12263f"/>
      <path id="Trazado_117227" data-name="Trazado 117227" d="M1720.3,1276.651a4.5,4.5,0,0,1-1.284,3.116,1.208,1.208,0,0,1-1.689.091,1.161,1.161,0,0,1-.113-1.708,2.134,2.134,0,0,0-.008-3.007,1.16,1.16,0,0,1,.1-1.679,1.2,1.2,0,0,1,1.689.058A4.451,4.451,0,0,1,1720.3,1276.651Z" transform="translate(-321.227 -212.248)" fill="#12263f"/>
      <path id="Trazado_117228" data-name="Trazado 117228" d="M1417.2,1215.559a3.693,3.693,0,0,1,2.311-3.4,3.642,3.642,0,0,1,4.1.7,1.217,1.217,0,1,1-1.623,1.811,1.367,1.367,0,1,0-1.936,1.931,1.24,1.24,0,0,1-.07,1.781,1.219,1.219,0,0,1-1.77-.179A3.929,3.929,0,0,1,1417.2,1215.559Z" transform="translate(-45.498 -155.823)" fill="#12263f"/>
      <path id="Trazado_117229" data-name="Trazado 117229" d="M1600.511,1388.335a4.258,4.258,0,0,1,.109-.74,1.165,1.165,0,0,1,1.275-.8,1.153,1.153,0,0,1,1.04.992,4.265,4.265,0,0,1,0,1.108,1.19,1.19,0,0,1-1.283,1,1.233,1.233,0,0,1-1.108-1.2c0-.12,0-.239,0-.359Z" transform="translate(-214.154 -316.813)" fill="#12263f"/>
      <path id="Trazado_117230" data-name="Trazado 117230" d="M1600.744,1444.29a1.238,1.238,0,0,1,.763-1.4,1.18,1.18,0,0,1,1.623.867,3.869,3.869,0,0,1,.025,1.069,1.18,1.18,0,0,1-1.294,1.076,1.2,1.2,0,0,1-1.116-1.224C1600.742,1444.573,1600.744,1444.467,1600.744,1444.29Z" transform="translate(-214.357 -368.341)" fill="#12263f"/>
      <path id="Trazado_117231" data-name="Trazado 117231" d="M1470.043,1262.788a1.539,1.539,0,0,1,1.412,1.495,1.194,1.194,0,0,1-1.258,1.157,1.563,1.563,0,0,1-1.395-1.476A1.192,1.192,0,0,1,1470.043,1262.788Z" transform="translate(-92.974 -202.72)" fill="#12263f"/>
    </g>
  </g>
</svg>
