<svg xmlns="http://www.w3.org/2000/svg" xmlns:xlink="http://www.w3.org/1999/xlink" width="91.927" height="91.928" viewBox="0 0 91.927 91.928">
  <defs>
    <radialGradient id="radial-gradient" cx="0.076" cy="0.019" r="1.465" gradientTransform="translate(0.001)" gradientUnits="objectBoundingBox">
      <stop offset="0" stop-color="#f6f6f7"/>
      <stop offset="0.477" stop-color="#f9f9fa"/>
      <stop offset="0.715" stop-color="#fff"/>
    </radialGradient>
  </defs>
  <g id="Grupo_54434" data-name="Grupo 54434" transform="translate(-217 -741.333)">
    <g id="Grupo_42274" data-name="Grupo 42274" transform="translate(142 768.333)">
      <g id="Grupo_18423" data-name="Grupo 18423" transform="translate(75 -27)">
        <g id="Grupo_18421" data-name="Grupo 18421">
          <g id="Grupo_18420" data-name="Grupo 18420">
            <g id="Grupo_18419" data-name="Grupo 18419">
              <path id="Trazado_40936" data-name="Trazado 40936" d="M286.55,2191.684a45.964,45.964,0,1,1-45.963-45.962A45.963,45.963,0,0,1,286.55,2191.684Z" transform="translate(-194.623 -2145.721)" fill="#fff"/>
            </g>
          </g>
        </g>
        <path id="Trazado_40937" data-name="Trazado 40937" d="M286.23,2191.334a45.963,45.963,0,1,0-45.963,45.965A45.782,45.782,0,0,0,286.23,2191.334Z" transform="translate(-194.303 -2145.372)" fill="url(#radial-gradient)"/>
        <path id="Trazado_40938" data-name="Trazado 40938" d="M272.56,2188.562a35.084,35.084,0,1,0-35.084,35.084A34.953,34.953,0,0,0,272.56,2188.562Z" transform="translate(-191.373 -2142.446)" fill="none" stroke="#37a3a5" stroke-miterlimit="10" stroke-width="4"/>
        <g id="Grupo_18422" data-name="Grupo 18422" transform="translate(8.143 25.805)">
          <path id="Trazado_40939" data-name="Trazado 40939" d="M279.682,2164.488a45.969,45.969,0,0,1-79.137,45.773,45.823,45.823,0,0,0,79.137-45.773Z" transform="translate(-200.545 -2164.488)" fill="#eceef0"/>
        </g>
      </g>
    </g>
    <g id="Grupo_54440" data-name="Grupo 54440" transform="translate(2316.822 279.817)">
      <path id="Trazado_117310" data-name="Trazado 117310" d="M-2067.969,494.084c.814.04,1.627.1,2.442.117a3.981,3.981,0,0,0,3.973-2.926c.27-.955.505-1.92.782-2.873a1.894,1.894,0,0,1,1.445-1.5,2.092,2.092,0,0,1,1.753.565c.729.576,1.444,1.17,2.167,1.754a4.006,4.006,0,0,0,5.094,0c.725-.581,1.439-1.176,2.166-1.755,1.375-1.1,2.744-.662,3.225,1.029.267.939.5,1.889.763,2.828a3.982,3.982,0,0,0,3.91,2.881c.994-.025,1.986-.094,2.979-.134,1.751-.071,2.593,1.085,1.985,2.737-.326.886-.68,1.761-1.018,2.642a4.015,4.015,0,0,0,1.5,4.75c.852.573,1.733,1.1,2.576,1.686a1.731,1.731,0,0,1,.7,2.443,3.409,3.409,0,0,1-.894.88c-.746.524-1.53.994-2.293,1.493a4.025,4.025,0,0,0-1.586,4.8c.29.777.605,1.546.9,2.322a6.023,6.023,0,0,1,.273.884,1.7,1.7,0,0,1-1.687,2.161c-1.09.017-2.181-.069-3.272-.11a3.977,3.977,0,0,0-4.1,3.007c-.25.91-.477,1.827-.742,2.732a1.836,1.836,0,0,1-3.166,1.021c-.732-.571-1.444-1.169-2.166-1.754a4.016,4.016,0,0,0-5.17-.01c-.709.575-1.41,1.16-2.126,1.726-1.391,1.1-2.732.68-3.226-1.014-.269-.922-.5-1.854-.754-2.78a3.981,3.981,0,0,0-3.967-2.932c-.977.034-1.953.1-2.931.129-1.8.053-2.605-1.082-1.98-2.774.316-.855.659-1.7.983-2.552a4.011,4.011,0,0,0-1.592-4.879c-.766-.5-1.535-.987-2.3-1.488-1.488-.977-1.5-2.43-.013-3.419.772-.515,1.561-1.007,2.337-1.516a4.024,4.024,0,0,0,1.571-4.848c-.313-.821-.632-1.64-.942-2.463-.693-1.837.1-2.94,2.068-2.881.114,0,.228,0,.342,0Zm1.077,23.6c4.7-.356,7.58,1.758,8.672,6.307,3.6-3.065,7.158-3.049,10.723,0,1.1-4.574,3.985-6.657,8.724-6.3a7.539,7.539,0,0,1-.533-5.806,7.417,7.417,0,0,1,3.854-4.363c-4.067-2.511-5.141-5.9-3.384-10.228-4.692.335-7.571-1.756-8.664-6.308q-5.372,4.578-10.725,0-1.646,6.845-8.668,6.315c1.766,4.372.655,7.75-3.314,10.2C-2066.206,509.952-2065.128,513.341-2066.892,517.679Z" transform="translate(0)" fill="#12263f"/>
      <path id="Trazado_117312" data-name="Trazado 117312" d="M-1917.668,662.879c1.374.058,2.726.045,4.06.2a1.978,1.978,0,0,1,1.845,1.638,2.2,2.2,0,0,1-1,2.458c-.068.045-.133.093-.2.142a.607.607,0,0,0-.061.083l2.263,3.332c-.816,0-1.552.011-2.287-.013-.1,0-.215-.172-.288-.287-.433-.69-.868-1.379-1.275-2.084a.567.567,0,0,0-.764-.3v2.67h-2.3Zm2.313,3.566c.559.021,1.127.063,1.354-.495a1.418,1.418,0,0,0-.034-1.093c-.27-.475-.814-.418-1.32-.345Z" transform="translate(-141.416 -158.763)" fill="#12263f"/>
      <path id="Trazado_117313" data-name="Trazado 117313" d="M-1777.885,663.647h4.615v1.9h-2.285v1.2h2.285v1.539h-2.286v1.589h2.284V671.4h-4.614Z" transform="translate(-267.499 -159.456)" fill="#12263f"/>
      <path id="Trazado_117314" data-name="Trazado 117314" d="M-1833.09,671.544h-4.6V663.8h4.6v1.879h-2.674v1.2h2.281v1.539h-2.281v1.591h2.673Z" transform="translate(-213.559 -159.592)" fill="#12263f"/>
      <path id="Trazado_117315" data-name="Trazado 117315" d="M-1975.253,671.42h-2.3v-7.753h4.6v1.886h-2.274v1.2h2.274v1.93h-2.3Z" transform="translate(-87.397 -159.474)" fill="#12263f"/>
    </g>
  </g>
</svg>
