<svg xmlns="http://www.w3.org/2000/svg" width="488.826" height="583.623" viewBox="0 0 488.826 583.623">
  <g id="Grupo_41974" data-name="Grupo 41974" transform="translate(-1682.208 -220.717)">
    <ellipse id="Elipse_3405" data-name="Elipse 3405" cx="244.413" cy="14.169" rx="244.413" ry="14.169" transform="translate(1682.208 776.003)" fill="#fff"/>
    <g id="Grupo_33123" data-name="Grupo 33123" transform="translate(1695.486 289.259)">
      <g id="Grupo_33119" data-name="Grupo 33119" transform="translate(79.37 433.347)">
        <path id="Trazado_81544" data-name="Trazado 81544" d="M1808.965,923.351l-2.982-47.045,17-.895-2.39,49.321Z" transform="translate(-1803.746 -875.412)" fill="#fac5c2"/>
        <g id="Grupo_33118" data-name="Grupo 33118" transform="translate(0 41.189)">
          <path id="Trazado_81545" data-name="Trazado 81545" d="M1808.238,931.692s-6.561,11.807-4.635,20.983l51.291,1.019s3.358-9.774-8.187-12.463-27.481-10.961-27.481-10.961S1812.629,936,1808.238,931.692Z" transform="translate(-1803.108 -929.405)" fill="#37a3a5"/>
          <path id="Trazado_81546" data-name="Trazado 81546" d="M1803.546,957.924l51.29,1.019a10.8,10.8,0,0,0,.248-5.149l-52.019-1.033A24.982,24.982,0,0,0,1803.546,957.924Z" transform="translate(-1803.065 -934.654)" fill="#f7ead5"/>
          <path id="Trazado_81547" data-name="Trazado 81547" d="M1823.234,932.9a7.116,7.116,0,0,1,1.719-2.3,7.358,7.358,0,0,1,3.875-1.28,31.3,31.3,0,0,1,3.6-.182,7.745,7.745,0,0,1,4.492,1.078,1.25,1.25,0,0,1,.655,1.176,1.16,1.16,0,0,1-.729.723,5.843,5.843,0,0,1-3.342.09q-4.04-.711-8-1.792a16.475,16.475,0,0,1,.421,4.4,8.9,8.9,0,0,1-.975,4.012,3.306,3.306,0,0,1-1.193,1.3,1.75,1.75,0,0,1-1.707.063,1.846,1.846,0,0,1-.823-1.495,4.752,4.752,0,0,1,.3-1.74A24.834,24.834,0,0,1,1823.234,932.9Z" transform="translate(-1807.301 -929.142)" fill="none" stroke="#fff" stroke-linecap="round" stroke-linejoin="round" stroke-width="0.917"/>
        </g>
      </g>
      <g id="Grupo_33121" data-name="Grupo 33121" transform="translate(18.647 432.335)">
        <path id="Trazado_81548" data-name="Trazado 81548" d="M1729.752,922.031l-2.982-47.045,17-.895-2.389,49.321Z" transform="translate(-1724.534 -874.092)" fill="#fac5c2"/>
        <g id="Grupo_33120" data-name="Grupo 33120" transform="translate(0 41.19)">
          <path id="Trazado_81549" data-name="Trazado 81549" d="M1729.026,930.372s-6.561,11.807-4.635,20.983l51.291,1.02s3.357-9.774-8.187-12.463-27.481-10.962-27.481-10.962S1733.417,934.679,1729.026,930.372Z" transform="translate(-1723.896 -928.085)" fill="#37a3a5"/>
          <path id="Trazado_81550" data-name="Trazado 81550" d="M1724.334,956.6l51.29,1.019a10.8,10.8,0,0,0,.248-5.149l-52.019-1.033A24.95,24.95,0,0,0,1724.334,956.6Z" transform="translate(-1723.853 -933.335)" fill="#f7ead5"/>
          <path id="Trazado_81551" data-name="Trazado 81551" d="M1744.022,931.582a7.112,7.112,0,0,1,1.719-2.3,7.357,7.357,0,0,1,3.874-1.28,31.357,31.357,0,0,1,3.6-.182,7.743,7.743,0,0,1,4.492,1.078,1.251,1.251,0,0,1,.656,1.176,1.164,1.164,0,0,1-.729.723,5.844,5.844,0,0,1-3.343.09q-4.039-.712-8-1.792a16.5,16.5,0,0,1,.42,4.4,8.879,8.879,0,0,1-.975,4.011,3.307,3.307,0,0,1-1.193,1.3,1.752,1.752,0,0,1-1.707.063,1.849,1.849,0,0,1-.823-1.495,4.753,4.753,0,0,1,.3-1.74A24.854,24.854,0,0,1,1744.022,931.582Z" transform="translate(-1728.089 -927.822)" fill="none" stroke="#fff" stroke-linecap="round" stroke-linejoin="round" stroke-width="0.917"/>
        </g>
      </g>
      <path id="Trazado_81552" data-name="Trazado 81552" d="M1839.077,464.074l7.422,50.6,33.271,52.332-8.982,5.018-39.808-39.47-10.8-45.88Z" transform="translate(-1727.69 -346.058)" fill="#fac5c2"/>
      <path id="Trazado_81553" data-name="Trazado 81553" d="M1807.9,610.633l1.631,19.94-.3,215.938-27.472.886-8.271-195.26-4.431-.3L1748.679,847.1H1719.73l4.431-110.775L1722.98,617.28l18.315-12.7Z" transform="translate(-1704.244 -378.852)" fill="#00223d"/>
      <path id="Trazado_81554" data-name="Trazado 81554" d="M1726.281,637.072l22.45-23.632,24.518.3" transform="translate(-1705.773 -380.921)" fill="none" stroke="#356493" stroke-linecap="round" stroke-linejoin="round" stroke-width="1.156"/>
      <path id="Trazado_81555" data-name="Trazado 81555" d="M1789.862,654.3l1.772-3.545.3-36.925,22.155.591,11.816,18.315" transform="translate(-1720.613 -381.011)" fill="none" stroke="#356493" stroke-linecap="round" stroke-linejoin="round" stroke-width="1.156"/>
      <path id="Trazado_81556" data-name="Trazado 81556" d="M1792.032,544.153a2.289,2.289,0,1,0-2.289,2.289A2.289,2.289,0,0,0,1792.032,544.153Z" transform="translate(-1720.051 -364.215)" fill="none" stroke="#356493" stroke-linecap="round" stroke-linejoin="round" stroke-width="1.156"/>
      <path id="Trazado_81557" data-name="Trazado 81557" d="M1748,405.1s-21.858,8.331-24.855,9.783c-21.591,10.458-23.615,61.061-23.615,61.061h18.218l-2.4,98s51.969,10.8,91.44-.675l-5.018-89.484s15-.253,26.187-6.325c0,0-17.879-51.278-25.774-57.35s-38.154-11.47-38.154-11.47Z" transform="translate(-1699.529 -332.295)" fill="#37a3a5"/>
      <path id="Trazado_81558" data-name="Trazado 81558" d="M1770.92,373.729,1763,400.769s-1.369,14.346,14.673,17.374c15.555,2.935,15.167-11.723,15.167-11.723l-1.022-4.862,1.489-16.171Z" transform="translate(-1714.337 -324.972)" fill="#fac5c2"/>
      <path id="Trazado_81559" data-name="Trazado 81559" d="M1771.553,378.655l1.133-3.87,6.98,2.7,6.6,3.434,8.654,9.008-.811,8.814C1789.538,398.084,1773.729,394.654,1771.553,378.655Z" transform="translate(-1716.339 -325.218)" fill="#d88080"/>
      <g id="Grupo_33122" data-name="Grupo 33122" transform="translate(49.823 0)">
        <path id="Trazado_81560" data-name="Trazado 81560" d="M1811.326,345.749c-1.554,12.386-7.727,36.728-20.184,35.955-13.108-.813-19.29-8.3-20.672-20.617,0,0-6.671,2.137-5.884-6.761.347-3.925,4.654-1.676,4.654-1.676s-6.322-32.559,14.175-34.466S1813.453,328.8,1811.326,345.749Z" transform="translate(-1764.522 -311.963)" fill="#fac5c2"/>
        <path id="Trazado_81561" data-name="Trazado 81561" d="M1793.778,353.211a3.714,3.714,0,0,0,1.108.567,1.011,1.011,0,0,0,1.1-.419,1.98,1.98,0,0,0-.21-2,4.774,4.774,0,0,0-3.1-1.778,10.189,10.189,0,0,0-3.542-.4,4.533,4.533,0,0,0-3.2,1.8.856.856,0,0,0-.2.464.544.544,0,0,0,.366.525,1.158,1.158,0,0,0,.6-.035A9.346,9.346,0,0,1,1793.778,353.211Z" transform="translate(-1769.472 -319.233)" fill="#242638"/>
        <path id="Trazado_81562" data-name="Trazado 81562" d="M1811.559,355.982a3.179,3.179,0,0,1-1.1.266.854.854,0,0,1-.819-.679,2.194,2.194,0,0,1,.738-1.872,4.129,4.129,0,0,1,3.136-.927,8.035,8.035,0,0,1,3.123.505,3.956,3.956,0,0,1,2.217,2.533.918.918,0,0,1,.039.5.543.543,0,0,1-.458.412.914.914,0,0,1-.5-.184A7.494,7.494,0,0,0,1811.559,355.982Z" transform="translate(-1775.045 -320.08)" fill="#242638"/>
        <path id="Trazado_81563" data-name="Trazado 81563" d="M1803.391,365.251c-.619,2.829.2,5.75.98,8.538a1.108,1.108,0,0,1,.007.842.955.955,0,0,1-.26.267,3.471,3.471,0,0,1-1.837.69c-.945.067-2.045-.212-2.736.438" transform="translate(-1772.697 -322.993)" fill="none" stroke="#242638" stroke-miterlimit="10" stroke-width="0.679"/>
        <path id="Trazado_81564" data-name="Trazado 81564" d="M1814.65,365.229c.286-2.091-.353-3.906-1.427-4.053s-2.176,1.43-2.462,3.522.354,3.906,1.427,4.053S1814.364,367.321,1814.65,365.229Z" transform="translate(-1775.298 -322.04)" fill="#242638"/>
        <path id="Trazado_81565" data-name="Trazado 81565" d="M1793.142,361.974c.286-2.091-.354-3.906-1.428-4.053s-2.176,1.431-2.462,3.522.354,3.907,1.428,4.053S1792.856,364.066,1793.142,361.974Z" transform="translate(-1770.278 -321.28)" fill="#242638"/>
        <path id="Trazado_81566" data-name="Trazado 81566" d="M1804.934,383.73s-8.281,1.223-15.823-1.745c0,0,2.405,6.4,7.563,6.7S1804.934,383.73,1804.934,383.73Z" transform="translate(-1770.261 -326.899)" fill="#fff"/>
        <path id="Trazado_81567" data-name="Trazado 81567" d="M1816.814,334.075c1.132-.647,2.546-1.3,2.728-2.587.176-1.246-.958-2.283-2.083-2.847s-2.423-.969-3.148-2c2.621-.184,3.99-3.562,3.163-6.056a8.612,8.612,0,0,0-4.649-4.831,21.077,21.077,0,0,0-6.673-1.6,79.977,79.977,0,0,0-12.938-.4c-3.621.182-7.635.5-10.478-1.752a8.113,8.113,0,0,0-2.508-1.779c-1.585-.465-3.269.757-3.906,2.28a10.248,10.248,0,0,0-.354,4.891c-1.68-.675-3.677-1.053-5.239-.139s-2.021,3.574-.444,4.463c.512.289,1.207.409,1.434.952.255.607-.278,1.233-.741,1.7a20.014,20.014,0,0,0,.061,28.3c1.73-4.384,4.15-8.463,6.042-12.78s3.266-9.024,2.72-13.705c7.859,6.1,18.357,7.91,28.28,7.185a3.04,3.04,0,0,1,2.172.376,2.979,2.979,0,0,1,.775,2.206l.578,8.88A10.86,10.86,0,0,1,1816.814,334.075Z" transform="translate(-1764.668 -310.127)" fill="#242638"/>
        <path id="Trazado_81568" data-name="Trazado 81568" d="M1771.9,354.338a96.715,96.715,0,0,0,8.166-27.767c-.116.983,3.647,2.517,4.317,2.859a37.221,37.221,0,0,0,7.785,2.942c7.149,1.8,14.324,1.346,21.6,1.54a4.941,4.941,0,0,1,2.872.69,1.763,1.763,0,0,1,.367,2.593" transform="translate(-1766.243 -313.965)" fill="none" stroke="#fff" stroke-linecap="round" stroke-linejoin="round" stroke-width="0.69"/>
        <path id="Trazado_81569" data-name="Trazado 81569" d="M1818.981,329.377c-3.662-2.182-8.226-1.855-12.481-1.618-6.256.349-12.77.307-18.458-2.32" transform="translate(-1770.011 -313.701)" fill="none" stroke="#fff" stroke-linecap="round" stroke-linejoin="round" stroke-width="0.69"/>
      </g>
      <rect id="Rectángulo_26606" data-name="Rectángulo 26606" width="12.208" height="10.816" rx="1.976" transform="translate(76.199 46.755) rotate(-169.629)" fill="none" stroke="#242638" stroke-miterlimit="10" stroke-width="0.855"/>
      <rect id="Rectángulo_26607" data-name="Rectángulo 26607" width="11.322" height="10.816" rx="1.903" transform="translate(92.439 49.727) rotate(-169.629)" fill="none" stroke="#242638" stroke-miterlimit="10" stroke-width="0.823"/>
      <line id="Línea_268" data-name="Línea 268" x2="8.071" y2="0.877" transform="translate(56.689 39.519)" fill="none" stroke="#242638" stroke-miterlimit="10" stroke-width="0.66"/>
      <path id="Trazado_81570" data-name="Trazado 81570" d="M1799.912,365.408s4.061-1.283,5.187,1.174" transform="translate(-1722.958 -322.952)" fill="none" stroke="#242638" stroke-miterlimit="10" stroke-width="0.66"/>
      <line id="Línea_269" data-name="Línea 269" x2="1.056" y2="0.322" transform="translate(93.343 45.37)" fill="none" stroke="#242638" stroke-miterlimit="10" stroke-width="0.66"/>
      <line id="Línea_270" data-name="Línea 270" x1="1.982" y1="27.747" transform="translate(100.254 123.75)" fill="none" stroke="#242638" stroke-linecap="round" stroke-linejoin="round" stroke-width="1.32"/>
      <path id="Trazado_81571" data-name="Trazado 81571" d="M1735.451,497.079l5.061,29.012,47.9,37.11,22.94,1.349,11.133,4.386-5.061,5.4h-37.109l-63.047-30.38a4.435,4.435,0,0,1-2.447-3.25l-7.375-43.286Z" transform="translate(-1701.378 -353.762)" fill="#fac5c2"/>
      <path id="Trazado_81572" data-name="Trazado 81572" d="M1743.976,489.273l3.711.675.675-26.314" transform="translate(-1709.903 -345.956)" fill="none" stroke="#242638" stroke-linecap="round" stroke-linejoin="round" stroke-width="1.32"/>
    </g>
    <g id="Grupo_33139" data-name="Grupo 33139" transform="translate(1911.056 220.717)">
      <rect id="Rectángulo_26608" data-name="Rectángulo 26608" width="222.654" height="566.755" fill="#d4dee8"/>
      <rect id="Rectángulo_26609" data-name="Rectángulo 26609" width="199.818" height="462.175" transform="translate(11.418 14.169)" fill="none" stroke="#242638" stroke-miterlimit="10" stroke-width="2.25"/>
      <g id="Grupo_33124" data-name="Grupo 33124" transform="translate(16.556 21.928)">
        <rect id="Rectángulo_26610" data-name="Rectángulo 26610" width="187.829" height="19.229" fill="#242638"/>
        <rect id="Rectángulo_26611" data-name="Rectángulo 26611" width="5.073" height="14.338" transform="translate(178.759 2.024)" fill="#37a3a5"/>
        <rect id="Rectángulo_26612" data-name="Rectángulo 26612" width="5.073" height="14.338" transform="translate(172.417 2.024)" fill="#37a3a5"/>
        <rect id="Rectángulo_26613" data-name="Rectángulo 26613" width="5.073" height="14.338" transform="translate(165.991 2.024)" fill="#37a3a5"/>
        <rect id="Rectángulo_26614" data-name="Rectángulo 26614" width="5.073" height="14.338" transform="translate(159.569 2.024)" fill="#37a3a5"/>
        <rect id="Rectángulo_26615" data-name="Rectángulo 26615" width="5.073" height="14.338" transform="translate(153.007 2.024)" fill="#37a3a5"/>
        <rect id="Rectángulo_26616" data-name="Rectángulo 26616" width="5.073" height="14.338" transform="translate(146.58 2.024)" fill="#37a3a5"/>
        <rect id="Rectángulo_26617" data-name="Rectángulo 26617" width="5.073" height="14.338" transform="translate(140.158 2.024)" fill="#37a3a5"/>
        <rect id="Rectángulo_26618" data-name="Rectángulo 26618" width="40.035" height="5.313" rx="2.657" transform="translate(72.22 4.048)" fill="#fff"/>
        <path id="Trazado_81573" data-name="Trazado 81573" d="M2054.7,260.866c0-2.609-1.789-4.723-4-4.723s-4,2.114-4,4.723,1.789,4.723,4,4.723S2054.7,263.474,2054.7,260.866Z" transform="translate(-2012.687 -250.914)" fill="#21587b"/>
        <path id="Trazado_81574" data-name="Trazado 81574" d="M2039.679,260.866c0-2.609-1.789-4.723-4-4.723s-4,2.114-4,4.723,1.789,4.723,4,4.723S2039.679,263.474,2039.679,260.866Z" transform="translate(-2009.18 -250.914)" fill="#21587b"/>
        <path id="Trazado_81575" data-name="Trazado 81575" d="M2024.657,260.866c0-2.609-1.789-4.723-4-4.723s-4,2.114-4,4.723,1.79,4.723,4,4.723S2024.657,263.474,2024.657,260.866Z" transform="translate(-2005.674 -250.914)" fill="#21587b"/>
      </g>
      <g id="Grupo_33125" data-name="Grupo 33125" transform="translate(16.556 46.724)">
        <rect id="Rectángulo_26619" data-name="Rectángulo 26619" width="187.829" height="19.229" fill="#242638"/>
        <rect id="Rectángulo_26620" data-name="Rectángulo 26620" width="5.073" height="14.338" transform="translate(178.759 2.024)" fill="#37a3a5"/>
        <rect id="Rectángulo_26621" data-name="Rectángulo 26621" width="5.073" height="14.338" transform="translate(172.417 2.024)" fill="#37a3a5"/>
        <rect id="Rectángulo_26622" data-name="Rectángulo 26622" width="5.073" height="14.338" transform="translate(165.991 2.024)" fill="#37a3a5"/>
        <rect id="Rectángulo_26623" data-name="Rectángulo 26623" width="5.073" height="14.338" transform="translate(159.569 2.024)" fill="#37a3a5"/>
        <rect id="Rectángulo_26624" data-name="Rectángulo 26624" width="5.073" height="14.338" transform="translate(153.007 2.024)" fill="#37a3a5"/>
        <rect id="Rectángulo_26625" data-name="Rectángulo 26625" width="40.035" height="5.313" rx="2.657" transform="translate(72.22 4.048)" fill="#fff"/>
        <ellipse id="Elipse_3406" data-name="Elipse 3406" cx="3.996" cy="4.723" rx="3.996" ry="4.723" transform="translate(34.022 5.229)" fill="#21587b"/>
        <ellipse id="Elipse_3407" data-name="Elipse 3407" cx="3.996" cy="4.723" rx="3.996" ry="4.723" transform="translate(22.506 5.229)" fill="#21587b"/>
        <ellipse id="Elipse_3408" data-name="Elipse 3408" cx="3.996" cy="4.723" rx="3.996" ry="4.723" transform="translate(10.99 5.229)" fill="#21587b"/>
      </g>
      <g id="Grupo_33126" data-name="Grupo 33126" transform="translate(16.556 70.76)">
        <rect id="Rectángulo_26626" data-name="Rectángulo 26626" width="187.829" height="19.229" fill="#242638"/>
        <rect id="Rectángulo_26627" data-name="Rectángulo 26627" width="5.073" height="14.338" transform="translate(178.759 2.024)" fill="#37a3a5"/>
        <rect id="Rectángulo_26628" data-name="Rectángulo 26628" width="5.073" height="14.338" transform="translate(172.417 2.024)" fill="#37a3a5"/>
        <rect id="Rectángulo_26629" data-name="Rectángulo 26629" width="5.073" height="14.338" transform="translate(165.991 2.024)" fill="#37a3a5"/>
        <rect id="Rectángulo_26630" data-name="Rectángulo 26630" width="40.035" height="5.313" rx="2.657" transform="translate(72.22 4.048)" fill="#fff"/>
        <ellipse id="Elipse_3409" data-name="Elipse 3409" cx="3.996" cy="4.723" rx="3.996" ry="4.723" transform="translate(34.022 5.229)" fill="#21587b"/>
        <ellipse id="Elipse_3410" data-name="Elipse 3410" cx="3.996" cy="4.723" rx="3.996" ry="4.723" transform="translate(22.506 5.229)" fill="#21587b"/>
        <ellipse id="Elipse_3411" data-name="Elipse 3411" cx="3.996" cy="4.723" rx="3.996" ry="4.723" transform="translate(10.99 5.229)" fill="#21587b"/>
      </g>
      <g id="Grupo_33127" data-name="Grupo 33127" transform="translate(16.556 181.159)">
        <rect id="Rectángulo_26631" data-name="Rectángulo 26631" width="187.829" height="19.229" fill="#242638"/>
        <rect id="Rectángulo_26632" data-name="Rectángulo 26632" width="5.073" height="14.338" transform="translate(178.759 2.024)" fill="#37a3a5"/>
        <rect id="Rectángulo_26633" data-name="Rectángulo 26633" width="5.073" height="14.338" transform="translate(172.417 2.024)" fill="#37a3a5"/>
        <rect id="Rectángulo_26634" data-name="Rectángulo 26634" width="5.073" height="14.338" transform="translate(165.991 2.024)" fill="#37a3a5"/>
        <rect id="Rectángulo_26635" data-name="Rectángulo 26635" width="5.073" height="14.338" transform="translate(159.569 2.024)" fill="#37a3a5"/>
        <rect id="Rectángulo_26636" data-name="Rectángulo 26636" width="5.073" height="14.338" transform="translate(153.007 2.024)" fill="#37a3a5"/>
        <rect id="Rectángulo_26637" data-name="Rectángulo 26637" width="5.073" height="14.338" transform="translate(146.58 2.024)" fill="#37a3a5"/>
        <rect id="Rectángulo_26638" data-name="Rectángulo 26638" width="5.073" height="14.338" transform="translate(140.158 2.024)" fill="#37a3a5"/>
        <rect id="Rectángulo_26639" data-name="Rectángulo 26639" width="40.035" height="5.313" rx="2.657" transform="translate(72.22 4.048)" fill="#fff"/>
        <ellipse id="Elipse_3412" data-name="Elipse 3412" cx="3.996" cy="4.723" rx="3.996" ry="4.723" transform="translate(34.022 5.229)" fill="#21587b"/>
        <ellipse id="Elipse_3413" data-name="Elipse 3413" cx="3.996" cy="4.723" rx="3.996" ry="4.723" transform="translate(22.506 5.229)" fill="#356493"/>
        <ellipse id="Elipse_3414" data-name="Elipse 3414" cx="3.996" cy="4.723" rx="3.996" ry="4.723" transform="translate(10.99 5.229)" fill="#21587b"/>
      </g>
      <g id="Grupo_33128" data-name="Grupo 33128" transform="translate(16.556 205.955)">
        <rect id="Rectángulo_26640" data-name="Rectángulo 26640" width="187.829" height="19.229" fill="#242638"/>
        <rect id="Rectángulo_26641" data-name="Rectángulo 26641" width="5.073" height="14.338" transform="translate(178.759 2.024)" fill="#37a3a5"/>
        <rect id="Rectángulo_26642" data-name="Rectángulo 26642" width="5.073" height="14.338" transform="translate(172.417 2.024)" fill="#37a3a5"/>
        <rect id="Rectángulo_26643" data-name="Rectángulo 26643" width="5.073" height="14.338" transform="translate(165.991 2.024)" fill="#37a3a5"/>
        <rect id="Rectángulo_26644" data-name="Rectángulo 26644" width="5.073" height="14.338" transform="translate(159.569 2.024)" fill="#37a3a5"/>
        <rect id="Rectángulo_26645" data-name="Rectángulo 26645" width="5.073" height="14.338" transform="translate(153.007 2.024)" fill="#37a3a5"/>
        <rect id="Rectángulo_26646" data-name="Rectángulo 26646" width="40.035" height="5.313" rx="2.657" transform="translate(72.22 4.048)" fill="#fff"/>
        <ellipse id="Elipse_3415" data-name="Elipse 3415" cx="3.996" cy="4.723" rx="3.996" ry="4.723" transform="translate(34.022 5.229)" fill="#21587b"/>
        <ellipse id="Elipse_3416" data-name="Elipse 3416" cx="3.996" cy="4.723" rx="3.996" ry="4.723" transform="translate(22.506 5.229)" fill="#356493"/>
        <ellipse id="Elipse_3417" data-name="Elipse 3417" cx="3.996" cy="4.723" rx="3.996" ry="4.723" transform="translate(10.99 5.229)" fill="#21587b"/>
      </g>
      <g id="Grupo_33129" data-name="Grupo 33129" transform="translate(16.556 229.991)">
        <rect id="Rectángulo_26647" data-name="Rectángulo 26647" width="187.829" height="19.229" fill="#242638"/>
        <rect id="Rectángulo_26648" data-name="Rectángulo 26648" width="5.073" height="14.338" transform="translate(178.759 2.024)" fill="#37a3a5"/>
        <rect id="Rectángulo_26649" data-name="Rectángulo 26649" width="5.073" height="14.338" transform="translate(172.417 2.024)" fill="#37a3a5"/>
        <rect id="Rectángulo_26650" data-name="Rectángulo 26650" width="5.073" height="14.338" transform="translate(165.991 2.024)" fill="#37a3a5"/>
        <rect id="Rectángulo_26651" data-name="Rectángulo 26651" width="40.035" height="5.313" rx="2.657" transform="translate(72.22 4.048)" fill="#fff"/>
        <path id="Trazado_81576" data-name="Trazado 81576" d="M2054.7,532.276c0-2.608-1.789-4.723-4-4.723s-4,2.115-4,4.723,1.789,4.723,4,4.723S2054.7,534.885,2054.7,532.276Z" transform="translate(-2012.687 -522.324)" fill="#21587b"/>
        <path id="Trazado_81577" data-name="Trazado 81577" d="M2039.679,532.276c0-2.608-1.789-4.723-4-4.723s-4,2.115-4,4.723,1.789,4.723,4,4.723S2039.679,534.885,2039.679,532.276Z" transform="translate(-2009.18 -522.324)" fill="#21587b"/>
        <path id="Trazado_81578" data-name="Trazado 81578" d="M2024.657,532.276c0-2.608-1.789-4.723-4-4.723s-4,2.115-4,4.723,1.79,4.723,4,4.723S2024.657,534.885,2024.657,532.276Z" transform="translate(-2005.674 -522.324)" fill="#21587b"/>
      </g>
      <g id="Grupo_33130" data-name="Grupo 33130" transform="translate(16.556 317.45)">
        <rect id="Rectángulo_26652" data-name="Rectángulo 26652" width="187.829" height="19.229" fill="#242638"/>
        <rect id="Rectángulo_26653" data-name="Rectángulo 26653" width="5.073" height="14.338" transform="translate(178.759 2.024)" fill="#37a3a5"/>
        <rect id="Rectángulo_26654" data-name="Rectángulo 26654" width="5.073" height="14.338" transform="translate(172.417 2.024)" fill="#37a3a5"/>
        <rect id="Rectángulo_26655" data-name="Rectángulo 26655" width="5.073" height="14.338" transform="translate(165.991 2.024)" fill="#37a3a5"/>
        <rect id="Rectángulo_26656" data-name="Rectángulo 26656" width="5.073" height="14.338" transform="translate(159.569 2.024)" fill="#37a3a5"/>
        <rect id="Rectángulo_26657" data-name="Rectángulo 26657" width="5.073" height="14.338" transform="translate(153.007 2.024)" fill="#37a3a5"/>
        <rect id="Rectángulo_26658" data-name="Rectángulo 26658" width="5.073" height="14.338" transform="translate(146.58 2.024)" fill="#37a3a5"/>
        <rect id="Rectángulo_26659" data-name="Rectángulo 26659" width="5.073" height="14.338" transform="translate(140.158 2.024)" fill="#37a3a5"/>
        <rect id="Rectángulo_26660" data-name="Rectángulo 26660" width="40.035" height="5.313" rx="2.657" transform="translate(72.22 4.048)" fill="#fff"/>
        <ellipse id="Elipse_3418" data-name="Elipse 3418" cx="3.996" cy="4.723" rx="3.996" ry="4.723" transform="translate(34.022 5.229)" fill="#21587b"/>
        <ellipse id="Elipse_3419" data-name="Elipse 3419" cx="3.996" cy="4.723" rx="3.996" ry="4.723" transform="translate(22.506 5.229)" fill="#21587b"/>
        <ellipse id="Elipse_3420" data-name="Elipse 3420" cx="3.996" cy="4.723" rx="3.996" ry="4.723" transform="translate(10.99 5.229)" fill="#21587b"/>
      </g>
      <g id="Grupo_33131" data-name="Grupo 33131" transform="translate(16.556 342.246)">
        <rect id="Rectángulo_26661" data-name="Rectángulo 26661" width="187.829" height="19.229" fill="#242638"/>
        <rect id="Rectángulo_26662" data-name="Rectángulo 26662" width="5.073" height="14.338" transform="translate(178.759 2.024)" fill="#37a3a5"/>
        <rect id="Rectángulo_26663" data-name="Rectángulo 26663" width="5.073" height="14.338" transform="translate(172.417 2.024)" fill="#37a3a5"/>
        <rect id="Rectángulo_26664" data-name="Rectángulo 26664" width="5.073" height="14.338" transform="translate(165.991 2.024)" fill="#37a3a5"/>
        <rect id="Rectángulo_26665" data-name="Rectángulo 26665" width="5.073" height="14.338" transform="translate(159.569 2.024)" fill="#37a3a5"/>
        <rect id="Rectángulo_26666" data-name="Rectángulo 26666" width="5.073" height="14.338" transform="translate(153.007 2.024)" fill="#37a3a5"/>
        <rect id="Rectángulo_26667" data-name="Rectángulo 26667" width="40.035" height="5.313" rx="2.657" transform="translate(72.22 4.048)" fill="#fff"/>
        <path id="Trazado_81579" data-name="Trazado 81579" d="M2054.7,678.708c0-2.608-1.789-4.723-4-4.723s-4,2.115-4,4.723,1.789,4.723,4,4.723S2054.7,681.317,2054.7,678.708Z" transform="translate(-2012.687 -668.756)" fill="#21587b"/>
        <path id="Trazado_81580" data-name="Trazado 81580" d="M2039.679,678.708c0-2.608-1.789-4.723-4-4.723s-4,2.115-4,4.723,1.789,4.723,4,4.723S2039.679,681.317,2039.679,678.708Z" transform="translate(-2009.18 -668.756)" fill="#21587b"/>
        <path id="Trazado_81581" data-name="Trazado 81581" d="M2024.657,678.708c0-2.608-1.789-4.723-4-4.723s-4,2.115-4,4.723,1.79,4.723,4,4.723S2024.657,681.317,2024.657,678.708Z" transform="translate(-2005.674 -668.756)" fill="#21587b"/>
      </g>
      <g id="Grupo_33132" data-name="Grupo 33132" transform="translate(16.556 366.282)">
        <rect id="Rectángulo_26668" data-name="Rectángulo 26668" width="187.829" height="19.229" fill="#242638"/>
        <rect id="Rectángulo_26669" data-name="Rectángulo 26669" width="5.073" height="14.338" transform="translate(178.759 2.024)" fill="#37a3a5"/>
        <rect id="Rectángulo_26670" data-name="Rectángulo 26670" width="5.073" height="14.338" transform="translate(172.417 2.024)" fill="#37a3a5"/>
        <rect id="Rectángulo_26671" data-name="Rectángulo 26671" width="5.073" height="14.338" transform="translate(165.991 2.024)" fill="#37a3a5"/>
        <rect id="Rectángulo_26672" data-name="Rectángulo 26672" width="40.035" height="5.313" rx="2.657" transform="translate(72.22 4.048)" fill="#fff"/>
        <path id="Trazado_81582" data-name="Trazado 81582" d="M2054.7,710.063c0-2.609-1.789-4.723-4-4.723s-4,2.114-4,4.723,1.789,4.723,4,4.723S2054.7,712.671,2054.7,710.063Z" transform="translate(-2012.687 -700.111)" fill="#21587b"/>
        <path id="Trazado_81583" data-name="Trazado 81583" d="M2039.679,710.063c0-2.609-1.789-4.723-4-4.723s-4,2.114-4,4.723,1.789,4.723,4,4.723S2039.679,712.671,2039.679,710.063Z" transform="translate(-2009.18 -700.111)" fill="#21587b"/>
        <path id="Trazado_81584" data-name="Trazado 81584" d="M2024.657,710.063c0-2.609-1.789-4.723-4-4.723s-4,2.114-4,4.723,1.79,4.723,4,4.723S2024.657,712.671,2024.657,710.063Z" transform="translate(-2005.674 -700.111)" fill="#37a3a5"/>
      </g>
      <g id="Grupo_33133" data-name="Grupo 33133" transform="translate(16.556 109.64)">
        <rect id="Rectángulo_26673" data-name="Rectángulo 26673" width="187.829" height="41.832" fill="#242638"/>
      </g>
      <g id="Grupo_33134" data-name="Grupo 33134" transform="translate(16.556 262.124)">
        <rect id="Rectángulo_26674" data-name="Rectángulo 26674" width="187.829" height="41.832" fill="#242638"/>
      </g>
      <g id="Grupo_33135" data-name="Grupo 33135" transform="translate(16.556 403.138)">
        <rect id="Rectángulo_26675" data-name="Rectángulo 26675" width="187.829" height="41.832" fill="#242638"/>
      </g>
      <g id="Grupo_33136" data-name="Grupo 33136" transform="translate(169.702 494.561)">
        <rect id="Rectángulo_26676" data-name="Rectángulo 26676" width="36.824" height="4.554" rx="2.277" fill="#242638"/>
        <rect id="Rectángulo_26677" data-name="Rectángulo 26677" width="36.824" height="4.554" rx="2.277" transform="translate(0 9.362)" fill="#242638"/>
        <rect id="Rectángulo_26678" data-name="Rectángulo 26678" width="36.824" height="4.554" rx="2.277" transform="translate(0 23.53)" fill="#242638"/>
        <rect id="Rectángulo_26679" data-name="Rectángulo 26679" width="36.824" height="4.554" rx="2.277" transform="translate(0 32.892)" fill="#242638"/>
        <rect id="Rectángulo_26680" data-name="Rectángulo 26680" width="36.824" height="4.554" rx="2.277" transform="translate(0 47.82)" fill="#242638"/>
        <rect id="Rectángulo_26681" data-name="Rectángulo 26681" width="36.824" height="4.554" rx="2.277" transform="translate(0 57.182)" fill="#242638"/>
      </g>
      <g id="Grupo_33137" data-name="Grupo 33137" transform="translate(93.272 494.561)">
        <path id="Rectángulo_26682" data-name="Rectángulo 26682" d="M2.277,0H34.546a2.277,2.277,0,0,1,2.277,2.277v0a2.277,2.277,0,0,1-2.277,2.277H2.277A2.277,2.277,0,0,1,0,2.277v0A2.277,2.277,0,0,1,2.277,0Z" fill="#242638"/>
        <path id="Rectángulo_26683" data-name="Rectángulo 26683" d="M2.277,0H34.546a2.277,2.277,0,0,1,2.277,2.277v0a2.277,2.277,0,0,1-2.277,2.277H2.277A2.277,2.277,0,0,1,0,2.277v0A2.277,2.277,0,0,1,2.277,0Z" transform="translate(0 9.362)" fill="#242638"/>
        <path id="Rectángulo_26684" data-name="Rectángulo 26684" d="M2.277,0H34.546a2.277,2.277,0,0,1,2.277,2.277v0a2.277,2.277,0,0,1-2.277,2.277H2.277A2.277,2.277,0,0,1,0,2.277v0A2.277,2.277,0,0,1,2.277,0Z" transform="translate(0 23.53)" fill="#242638"/>
        <path id="Rectángulo_26685" data-name="Rectángulo 26685" d="M2.277,0H34.546a2.277,2.277,0,0,1,2.277,2.277v0a2.277,2.277,0,0,1-2.277,2.277H2.277A2.277,2.277,0,0,1,0,2.277v0A2.277,2.277,0,0,1,2.277,0Z" transform="translate(0 32.892)" fill="#242638"/>
        <path id="Rectángulo_26686" data-name="Rectángulo 26686" d="M2.277,0H34.546a2.277,2.277,0,0,1,2.277,2.277v0a2.277,2.277,0,0,1-2.277,2.277H2.277A2.277,2.277,0,0,1,0,2.277v0A2.277,2.277,0,0,1,2.277,0Z" transform="translate(0 47.82)" fill="#242638"/>
        <path id="Rectángulo_26687" data-name="Rectángulo 26687" d="M2.277,0H34.546a2.277,2.277,0,0,1,2.277,2.277v0a2.277,2.277,0,0,1-2.277,2.277H2.277A2.277,2.277,0,0,1,0,2.277v0A2.277,2.277,0,0,1,2.277,0Z" transform="translate(0 57.182)" fill="#242638"/>
      </g>
      <g id="Grupo_33138" data-name="Grupo 33138" transform="translate(17.27 494.561)">
        <path id="Rectángulo_26688" data-name="Rectángulo 26688" d="M2.277,0H34.546a2.277,2.277,0,0,1,2.277,2.277v0a2.277,2.277,0,0,1-2.277,2.277H2.277A2.277,2.277,0,0,1,0,2.277v0A2.277,2.277,0,0,1,2.277,0Z" fill="#242638"/>
        <path id="Rectángulo_26689" data-name="Rectángulo 26689" d="M2.277,0H34.546a2.277,2.277,0,0,1,2.277,2.277v0a2.277,2.277,0,0,1-2.277,2.277H2.277A2.277,2.277,0,0,1,0,2.277v0A2.277,2.277,0,0,1,2.277,0Z" transform="translate(0 9.362)" fill="#242638"/>
        <path id="Rectángulo_26690" data-name="Rectángulo 26690" d="M2.277,0H34.546a2.277,2.277,0,0,1,2.277,2.277v0a2.277,2.277,0,0,1-2.277,2.277H2.277A2.277,2.277,0,0,1,0,2.277v0A2.277,2.277,0,0,1,2.277,0Z" transform="translate(0 23.53)" fill="#242638"/>
        <path id="Rectángulo_26691" data-name="Rectángulo 26691" d="M2.277,0H34.546a2.277,2.277,0,0,1,2.277,2.277v0a2.277,2.277,0,0,1-2.277,2.277H2.277A2.277,2.277,0,0,1,0,2.277v0A2.277,2.277,0,0,1,2.277,0Z" transform="translate(0 32.892)" fill="#242638"/>
        <path id="Rectángulo_26692" data-name="Rectángulo 26692" d="M2.277,0H34.546a2.277,2.277,0,0,1,2.277,2.277v0a2.277,2.277,0,0,1-2.277,2.277H2.277A2.277,2.277,0,0,1,0,2.277v0A2.277,2.277,0,0,1,2.277,0Z" transform="translate(0 47.82)" fill="#242638"/>
        <path id="Rectángulo_26693" data-name="Rectángulo 26693" d="M2.277,0H34.546a2.277,2.277,0,0,1,2.277,2.277v0a2.277,2.277,0,0,1-2.277,2.277H2.277A2.277,2.277,0,0,1,0,2.277v0A2.277,2.277,0,0,1,2.277,0Z" transform="translate(0 57.182)" fill="#242638"/>
      </g>
    </g>
    <path id="Trazado_81585" data-name="Trazado 81585" d="M1936.725,724.78c9.783,0,28.337-1.35,28.337,23.952s-3.036,68.146,13.157,68.146,15.518-23.278,15.518-65.447,1.349-40.483,6.747-40.483" transform="translate(-59.404 -114.418)" fill="none" stroke="#37a3a5" stroke-miterlimit="10" stroke-width="2.64"/>
    <rect id="Rectángulo_26694" data-name="Rectángulo 26694" width="12.145" height="273.932" transform="translate(1888.116 513.204)" fill="#d4dee8"/>
    <path id="Trazado_81586" data-name="Trazado 81586" d="M1936.725,732.879c7.759,0,20.916.337,20.916,14.844s-11.47,131.906,18.892,131.906,30.7-36.434,30.7-80.291-3.374-88.387,5.061-88.387" transform="translate(-59.404 -114.421)" fill="none" stroke="#21587b" stroke-miterlimit="10" stroke-width="2.64"/>
    <rect id="Rectángulo_26695" data-name="Rectángulo 26695" width="12.145" height="273.932" transform="translate(1764.981 513.204)" fill="#d4dee8"/>
    <rect id="Rectángulo_26696" data-name="Rectángulo 26696" width="23.615" height="144.388" transform="translate(1903.634 509.83) rotate(90)" fill="#d4dee8"/>
    <path id="Trazado_81587" data-name="Trazado 81587" d="M1955.389,591.913c14.674,0,12.145,12.65,12.145,44.531s-7.253,43.771-33.23,43.771" transform="translate(-58.839 -86.637)" fill="none" stroke="#37a3a5" stroke-miterlimit="10" stroke-width="2.64"/>
    <rect id="Rectángulo_26697" data-name="Rectángulo 26697" width="12.482" height="129.544" transform="translate(1896.55 630.266) rotate(90)" fill="#d4dee8"/>
    <g id="Grupo_33141" data-name="Grupo 33141" transform="translate(1759.282 434.165)">
      <g id="Grupo_33140" data-name="Grupo 33140">
        <path id="Trazado_81588" data-name="Trazado 81588" d="M1951.273,499.152l-102.6,1.408-13.19,74.984,101.919-.4Z" transform="translate(-1795.057 -499.152)" fill="#242638"/>
        <rect id="Rectángulo_26698" data-name="Rectángulo 26698" width="65.369" height="6.491" transform="translate(0 69.992) rotate(-0.786)" fill="#242638"/>
      </g>
      <path id="Trazado_81589" data-name="Trazado 81589" d="M1923.083,539.238a8.808,8.808,0,1,0-8.686,8.929A8.809,8.809,0,0,0,1923.083,539.238Z" transform="translate(-1811.391 -506.48)" fill="#fff"/>
    </g>
    <g id="Grupo_33142" data-name="Grupo 33142" transform="translate(1786.741 605.47)">
      <rect id="Rectángulo_26699" data-name="Rectángulo 26699" width="94.628" height="24.796" fill="#a9bdd2"/>
      <path id="Trazado_81590" data-name="Trazado 81590" d="M1903.922,743.009h-74.387a4.822,4.822,0,0,1-4.807-4.807h0a4.822,4.822,0,0,1,4.807-4.807h74.387a4.821,4.821,0,0,1,4.807,4.807h0A4.821,4.821,0,0,1,1903.922,743.009Z" transform="translate(-1820.005 -725.129)" fill="#242638"/>
      <circle id="Elipse_3421" data-name="Elipse 3421" cx="3.205" cy="3.205" r="3.205" transform="translate(78.899 9.952)" fill="#21587b"/>
      <circle id="Elipse_3422" data-name="Elipse 3422" cx="3.205" cy="3.205" r="3.205" transform="translate(70.676 9.952)" fill="#21587b"/>
      <path id="Trazado_81591" data-name="Trazado 81591" d="M1906.114,738.8a3.205,3.205,0,1,0-3.205,3.205A3.2,3.2,0,0,0,1906.114,738.8Z" transform="translate(-1837.504 -725.643)" fill="#21587b"/>
      <path id="Trazado_81592" data-name="Trazado 81592" d="M1895.388,738.8a3.2,3.2,0,1,0-3.205,3.205A3.2,3.2,0,0,0,1895.388,738.8Z" transform="translate(-1835.001 -725.643)" fill="#21587b"/>
      <circle id="Elipse_3423" data-name="Elipse 3423" cx="3.205" cy="3.205" r="3.205" transform="translate(45.627 9.952)" fill="#21587b"/>
      <circle id="Elipse_3424" data-name="Elipse 3424" cx="3.205" cy="3.205" r="3.205" transform="translate(37.404 9.952)" fill="#21587b"/>
    </g>
    <g id="Grupo_33143" data-name="Grupo 33143" transform="translate(1786.872 579.494)">
      <rect id="Rectángulo_26700" data-name="Rectángulo 26700" width="94.628" height="24.796" fill="#a9bdd2"/>
      <path id="Trazado_81593" data-name="Trazado 81593" d="M1904.094,709.124h-74.386a4.821,4.821,0,0,1-4.807-4.807h0a4.822,4.822,0,0,1,4.807-4.807h74.386a4.821,4.821,0,0,1,4.807,4.807h0A4.821,4.821,0,0,1,1904.094,709.124Z" transform="translate(-1820.177 -691.244)" fill="#242638"/>
      <path id="Trazado_81594" data-name="Trazado 81594" d="M1928.069,704.914a3.205,3.205,0,1,0-3.205,3.205A3.205,3.205,0,0,0,1928.069,704.914Z" transform="translate(-1842.76 -691.757)" fill="#37a3a5"/>
      <circle id="Elipse_3425" data-name="Elipse 3425" cx="3.205" cy="3.205" r="3.205" transform="translate(70.676 9.952)" fill="#37a3a5"/>
      <path id="Trazado_81595" data-name="Trazado 81595" d="M1906.286,704.914a3.2,3.2,0,1,0-3.2,3.205A3.2,3.2,0,0,0,1906.286,704.914Z" transform="translate(-1837.676 -691.757)" fill="#37a3a5"/>
      <path id="Trazado_81596" data-name="Trazado 81596" d="M1895.559,704.914a3.205,3.205,0,1,0-3.205,3.205A3.205,3.205,0,0,0,1895.559,704.914Z" transform="translate(-1835.172 -691.757)" fill="#37a3a5"/>
      <circle id="Elipse_3426" data-name="Elipse 3426" cx="3.205" cy="3.205" r="3.205" transform="translate(45.627 9.952)" fill="#37a3a5"/>
      <circle id="Elipse_3427" data-name="Elipse 3427" cx="3.205" cy="3.205" r="3.205" transform="translate(37.404 9.952)" fill="#37a3a5"/>
    </g>
    <line id="Línea_271" data-name="Línea 271" x2="94.628" transform="translate(1786.741 605.301)" fill="none" stroke="#242638" stroke-miterlimit="10" stroke-width="2.64"/>
  </g>
</svg>
