<svg xmlns="http://www.w3.org/2000/svg" xmlns:xlink="http://www.w3.org/1999/xlink" width="91.927" height="91.928" viewBox="0 0 91.927 91.928">
  <defs>
    <radialGradient id="radial-gradient" cx="0.076" cy="0.019" r="1.465" gradientTransform="translate(0.001)" gradientUnits="objectBoundingBox">
      <stop offset="0" stop-color="#f6f6f7"/>
      <stop offset="0.477" stop-color="#f9f9fa"/>
      <stop offset="0.715" stop-color="#fff"/>
    </radialGradient>
  </defs>
  <g id="Grupo_54484" data-name="Grupo 54484" transform="translate(-217 -741.334)">
    <g id="Grupo_42274" data-name="Grupo 42274" transform="translate(142 768.333)">
      <g id="Grupo_18423" data-name="Grupo 18423" transform="translate(75 -27)">
        <g id="Grupo_18421" data-name="Grupo 18421">
          <g id="Grupo_18420" data-name="Grupo 18420">
            <g id="Grupo_18419" data-name="Grupo 18419">
              <path id="Trazado_40936" data-name="Trazado 40936" d="M286.55,2191.684a45.964,45.964,0,1,1-45.963-45.962A45.963,45.963,0,0,1,286.55,2191.684Z" transform="translate(-194.623 -2145.721)" fill="#fff"/>
            </g>
          </g>
        </g>
        <path id="Trazado_40937" data-name="Trazado 40937" d="M286.23,2191.334a45.963,45.963,0,1,0-45.963,45.965A45.782,45.782,0,0,0,286.23,2191.334Z" transform="translate(-194.303 -2145.372)" fill="url(#radial-gradient)"/>
        <path id="Trazado_40938" data-name="Trazado 40938" d="M272.56,2188.562a35.084,35.084,0,1,0-35.084,35.084A34.953,34.953,0,0,0,272.56,2188.562Z" transform="translate(-191.373 -2142.446)" fill="none" stroke="#37a3a5" stroke-miterlimit="10" stroke-width="4"/>
        <g id="Grupo_18422" data-name="Grupo 18422" transform="translate(8.143 25.805)">
          <path id="Trazado_40939" data-name="Trazado 40939" d="M279.682,2164.488a45.969,45.969,0,0,1-79.137,45.773,45.823,45.823,0,0,0,79.137-45.773Z" transform="translate(-200.545 -2164.488)" fill="#eceef0"/>
        </g>
      </g>
    </g>
    <g id="Grupo_54496" data-name="Grupo 54496" transform="translate(2194.744 935.218)">
      <path id="Trazado_117659" data-name="Trazado 117659" d="M-1910.831-129.191a2.106,2.106,0,0,1,.052.329c0,5.862,0,11.725.012,17.587a4.613,4.613,0,0,1-1.208,3.389,4.18,4.18,0,0,1-3.133,1.347q-5.564,0-11.128,0h-.451c.238.424.438.791.648,1.153q1.389,2.4,2.782,4.806,1.047,1.81,2.091,3.622c.169.294.351.581.5.884a1.054,1.054,0,0,1-.615,1.493,1.07,1.07,0,0,1-1.147-.476q-1.418-2.481-2.843-4.957-1.513-2.646-3.021-5.295c-.189-.331-.395-.654-.571-.992a.4.4,0,0,0-.393-.254c-.412.006-.824,0-1.283,0v.416q0,6.188,0,12.375a1.045,1.045,0,0,1-.576,1.05,1.007,1.007,0,0,1-1.453-.83c-.015-.2-.006-.4-.006-.607q0-5.964,0-11.928v-.461c-.477,0-.93-.008-1.381.008-.068,0-.151.1-.195.178q-1.681,2.9-3.355,5.8c-.752,1.3-1.516,2.587-2.27,3.883-.3.523-.6,1.052-.893,1.579a1.036,1.036,0,0,1-1.007.543c-.453-.09-.95-.567-.9-.984a2.733,2.733,0,0,1,.395-.956q2.233-3.923,4.486-7.834c.355-.618.716-1.232,1.073-1.849.057-.1.1-.2.191-.369h-.425c-3.688,0-7.376,0-11.064,0a4.245,4.245,0,0,1-3.269-1.408,4.271,4.271,0,0,1-1.145-3q0-9.114,0-18.227,0-3.2,0-6.39c0-.074-.008-.148-.014-.261-.115-.007-.227-.017-.34-.02a1.012,1.012,0,0,1-1.062-1,1,1,0,0,1,1.018-1.042c1.1-.014,2.2,0,3.293,0h2.037q4.621,0,9.241,0a3.043,3.043,0,0,1,.4.053l1.911,1.914a2.483,2.483,0,0,1-.419.071q-6.8.006-13.592,0c-.436,0-.436,0-.436.433q0,4.3,0,8.6c0,5.264.011,10.528-.007,15.792a2.4,2.4,0,0,0,2.42,2.443c5.636-.034,11.271-.016,16.907-.015l15.35,0c.224,0,.448,0,.671-.006a2.2,2.2,0,0,0,2.073-1.953c.059-.9.046-1.808.047-2.712q.006-6.828.006-13.655a1.9,1.9,0,0,1,.072-.367Z" transform="translate(0 -28.125)" fill="#12263f"/>
      <path id="Trazado_117660" data-name="Trazado 117660" d="M-1676.755-157.317l-1.913,1.917a1.753,1.753,0,0,1-.073-.353q-.006-3.933,0-7.865c0-.226-.031-.349-.308-.349q-7.081,0-14.163-.007c-2.739,0-5.477.009-8.216.01a1.615,1.615,0,0,1-.335-.071l-1.911-1.914a2.093,2.093,0,0,1,.33-.052q2.238-.006,4.476,0h.375c0-.315,0-.589,0-.863a1,1,0,0,1,1.025-1.062,1,1,0,0,1,1.005,1.051c0,.275,0,.551,0,.874h.424q8.053,0,16.106,0a3.478,3.478,0,0,1,.437.054l2.738,2.744a1.82,1.82,0,0,1,.053.309q0,2.635,0,5.271A1.814,1.814,0,0,1-1676.755-157.317Z" transform="translate(-234.076 0)" fill="#12263f"/>
      <path id="Trazado_117661" data-name="Trazado 117661" d="M-1322.906-135.091l-2.738-2.744a.575.575,0,0,1,.168-.055c1.009,0,2.018-.014,3.027,0a1.009,1.009,0,0,1,.883,1.522.952.952,0,0,1-.795.509c-.146.013-.294,0-.45,0Z" transform="translate(-587.925 -28.113)" fill="#12263f"/>
      <path id="Trazado_117662" data-name="Trazado 117662" d="M-1694.249,43.12c-2.8,0-5.607-.013-8.411.009a1.029,1.029,0,0,1-.945-1.487.952.952,0,0,1,.872-.551c3.464,0,6.928,0,10.391,0q3.228,0,6.456-.017a1.1,1.1,0,0,1,.836.323.957.957,0,0,1,.224,1.087.981.981,0,0,1-.949.632q-2.51,0-5.021,0Z" transform="translate(-234.031 -195.639)" fill="#12263f"/>
      <path id="Trazado_117663" data-name="Trazado 117663" d="M-1694.176,213.883q4.186,0,8.372,0a.981.981,0,0,1,1.052.665,1.044,1.044,0,0,1-.922,1.374c-.085.006-.17,0-.256,0h-15.72c-.319,0-.638.005-.957,0a1.039,1.039,0,0,1-1.053-1.017.991.991,0,0,1,1.047-1.021Q-1698.394,213.877-1694.176,213.883Z" transform="translate(-234.089 -357.39)" fill="#12263f"/>
      <path id="Trazado_117664" data-name="Trazado 117664" d="M-1694.253,130q-4.221,0-8.442,0a1.069,1.069,0,0,1-1.037-.828,1.017,1.017,0,0,1,.681-1.159,1.328,1.328,0,0,1,.408-.052q6.971,0,13.942,0c.937,0,1.874.037,2.81.016a1.033,1.033,0,0,1,.965,1.5.961.961,0,0,1-.919.52c-1.651.006-3.3,0-4.954,0Z" transform="translate(-234.005 -276.966)" fill="#12263f"/>
      <path id="Trazado_117665" data-name="Trazado 117665" d="M-1670.342-86.575h-13.352l-.256,0c-.438-.006-.678-.186-.671-.5s.26-.505.69-.5c2.453,0,4.906.015,7.36.014q6.871,0,13.742-.015c.581,0,.745.174.742.765-.009,1.748,0,3.5-.015,5.243a.805.805,0,0,1-.165.515.529.529,0,0,1-.476.1c-.143-.061-.236-.261-.324-.416-.037-.064-.008-.167-.008-.252,0-1.524-.009-3.048.007-4.571,0-.318-.1-.387-.4-.385C-1665.76-86.57-1668.051-86.576-1670.342-86.575Z" transform="translate(-251.91 -75.207)" fill="#12263f"/>
      <path id="Trazado_117666" data-name="Trazado 117666" d="M-1804.182,3.572c.362-.549.7-1.063,1.039-1.576.117-.178.229-.36.357-.529a.975.975,0,0,1,1.354-.265.984.984,0,0,1,.32,1.395c-.44.7-.907,1.391-1.363,2.086-.239.365-.479.729-.716,1.1a1.06,1.06,0,0,1-1.972.006c-.306-.474-.625-.94-.932-1.413a1,1,0,0,1,.272-1.45,1.02,1.02,0,0,1,1.424.329C-1804.335,3.344-1804.272,3.439-1804.182,3.572Z" transform="translate(-138.021 -158.156)" fill="#12263f"/>
      <path id="Trazado_117667" data-name="Trazado 117667" d="M-1804.2,176.384c.4-.61.786-1.2,1.167-1.784.242-.374.488-.726,1.005-.727a.961.961,0,0,1,.891.457.949.949,0,0,1,.019,1.057c-.431.683-.881,1.355-1.324,2.031-.3.453-.594.907-.9,1.357a1.008,1.008,0,0,1-.757.473.989.989,0,0,1-.958-.453q-.544-.786-1.063-1.59a1.018,1.018,0,0,1,.22-1.442,1.044,1.044,0,0,1,1.477.316Z" transform="translate(-137.999 -319.942)" fill="#12263f"/>
      <path id="Trazado_117668" data-name="Trazado 117668" d="M-1804.109,90.377c.506-.773.978-1.5,1.453-2.22a1.094,1.094,0,0,1,1.045-.317.98.98,0,0,1,.712.889,1.458,1.458,0,0,1-.194.718c-.664,1.051-1.355,2.086-2.042,3.122-.37.557-.781.747-1.277.572a1.035,1.035,0,0,1-.464-.312c-.256-.334-.47-.7-.7-1.053-.161-.248-.329-.491-.479-.745a.94.94,0,0,1,.257-1.314.983.983,0,0,1,1.366.21C-1804.326,90.056-1804.236,90.2-1804.109,90.377Z" transform="translate(-138.092 -239.384)" fill="#12263f"/>
    </g>
  </g>
</svg>
