<svg xmlns="http://www.w3.org/2000/svg" xmlns:xlink="http://www.w3.org/1999/xlink" width="91.927" height="91.928" viewBox="0 0 91.927 91.928">
  <defs>
    <radialGradient id="radial-gradient" cx="0.076" cy="0.019" r="1.465" gradientTransform="translate(0.001)" gradientUnits="objectBoundingBox">
      <stop offset="0" stop-color="#f6f6f7"/>
      <stop offset="0.477" stop-color="#f9f9fa"/>
      <stop offset="0.715" stop-color="#fff"/>
    </radialGradient>
  </defs>
  <g id="Grupo_54487" data-name="Grupo 54487" transform="translate(-217 -741.334)">
    <g id="Grupo_42274" data-name="Grupo 42274" transform="translate(142 768.333)">
      <g id="Grupo_18423" data-name="Grupo 18423" transform="translate(75 -27)">
        <g id="Grupo_18421" data-name="Grupo 18421">
          <g id="Grupo_18420" data-name="Grupo 18420">
            <g id="Grupo_18419" data-name="Grupo 18419">
              <path id="Trazado_40936" data-name="Trazado 40936" d="M286.55,2191.684a45.964,45.964,0,1,1-45.963-45.962A45.963,45.963,0,0,1,286.55,2191.684Z" transform="translate(-194.623 -2145.721)" fill="#fff"/>
            </g>
          </g>
        </g>
        <path id="Trazado_40937" data-name="Trazado 40937" d="M286.23,2191.334a45.963,45.963,0,1,0-45.963,45.965A45.782,45.782,0,0,0,286.23,2191.334Z" transform="translate(-194.303 -2145.372)" fill="url(#radial-gradient)"/>
        <path id="Trazado_40938" data-name="Trazado 40938" d="M272.56,2188.562a35.084,35.084,0,1,0-35.084,35.084A34.953,34.953,0,0,0,272.56,2188.562Z" transform="translate(-191.373 -2142.446)" fill="none" stroke="#37a3a5" stroke-miterlimit="10" stroke-width="4"/>
        <g id="Grupo_18422" data-name="Grupo 18422" transform="translate(8.143 25.805)">
          <path id="Trazado_40939" data-name="Trazado 40939" d="M279.682,2164.488a45.969,45.969,0,0,1-79.137,45.773,45.823,45.823,0,0,0,79.137-45.773Z" transform="translate(-200.545 -2164.488)" fill="#eceef0"/>
        </g>
      </g>
    </g>
    <g id="CnZhEU.tif" transform="translate(2467.213 1090.218)">
      <g id="Grupo_54497" data-name="Grupo 54497" transform="translate(-2224.15 -327.079)">
        <path id="Trazado_117669" data-name="Trazado 117669" d="M-2191.328-278.764h-25.845a1.461,1.461,0,0,1-.731-1.455c.027-1.194,0-2.39.01-3.585a1.116,1.116,0,0,1,1.273-1.274q2.405,0,4.81,0h1.238c.01-.152.009-.259.026-.364a.642.642,0,0,0-.549-.841,8.162,8.162,0,0,1-1.473-.615c-7.189-3.558-11.028-9.38-11.546-17.353a18.127,18.127,0,0,1,1.805-9,19.516,19.516,0,0,1,11.917-10.619c.976-.324,1.988-.54,3.018-.816,0-.424-.011-.863,0-1.3a1.011,1.011,0,0,1,1.1-1.082q2.028-.01,4.055,0a1.066,1.066,0,0,1,1.155,1.14c.013.422,0,.845,0,1.284.165.042.3.084.434.108a18.2,18.2,0,0,1,4.563,1.43A19.644,19.644,0,0,1-2184.98-310a1.082,1.082,0,0,1-.327,1.234,1.042,1.042,0,0,1-1.667-.532c-.161-.481-.3-.972-.446-1.47-.155.058-.243.088-.328.123q-5.236,2.167-10.471,4.335c-.844.349-.844.345-.822,1.246a1.946,1.946,0,0,1-.018.47c-.1.461.067.673.517.854,2.776,1.12,5.536,2.282,8.3,3.428.935.388,1.873.77,2.817,1.158a1.731,1.731,0,0,0,.068-.18c.277-1.238.556-2.475.826-3.714a1.027,1.027,0,0,1,1.117-.912c.683.036,1.064.6.947,1.442a20.039,20.039,0,0,1-1.643,5.769,19.7,19.7,0,0,1-11.07,10.4c-.781.3-.784.3-.741,1.148,0,.027.027.052.063.118h.488q2.759,0,5.517,0c.873,0,1.273.4,1.274,1.258,0,1.227-.022,2.454.01,3.679A1.313,1.313,0,0,1-2191.328-278.764Zm-5.076-42.174c-.049.037-.067.044-.072.056q-2.364,5.685-4.716,11.375a.51.51,0,0,0,.135.413c.272.3.617.544.857.867.215.289.386.3.694.169,2.789-1.167,5.585-2.317,8.378-3.474.965-.4,1.927-.806,2.908-1.217A17.749,17.749,0,0,0-2196.4-320.938Zm-.044,31.991a17.744,17.744,0,0,0,8.19-8.206,1.014,1.014,0,0,0-.133-.1q-5.623-2.331-11.244-4.665c-.244-.1-.354-.035-.506.15a4.5,4.5,0,0,1-.824.834c-.306.217-.292.4-.167.7,1.01,2.414,2.007,4.834,3.009,7.252C-2197.571-291.648-2197.019-290.321-2196.448-288.946Zm-15.557-32.032a17.794,17.794,0,0,0-8.216,8.24l11.5,4.766,1.486-1.494Zm-9.043,10.19a17.893,17.893,0,0,0,.016,11.645l11.642-4.827v-1.985Zm22.623,22.64c-.083-.216-.142-.377-.207-.535-1.451-3.5-2.917-7-4.339-10.517-.211-.522-.455-.7-.989-.586a2.308,2.308,0,0,1-.8-.019.5.5,0,0,0-.629.374c-.966,2.382-1.955,4.755-2.937,7.13-.569,1.374-1.139,2.747-1.726,4.163A17.933,17.933,0,0,0-2198.426-288.148Zm-21.81-9.031a17.81,17.81,0,0,0,8.237,8.216l4.744-11.456c-.381-.479-.705-.847-.981-1.247a.505.505,0,0,0-.736-.2c-1.8.768-3.616,1.509-5.426,2.26Zm11.824,11.689c0,.434,0,.794,0,1.153,0,1.012-.378,1.389-1.4,1.39q-2.71,0-5.421,0c-.166,0-.333.014-.51.023v2.024h23.024v-2.047h-.529c-1.838,0-3.677,0-5.515,0-.878,0-1.257-.39-1.269-1.267,0-.405,0-.81,0-1.276A20.141,20.141,0,0,1-2208.411-285.491Zm7.352-36.994c0,1.592-.006,3.1,0,4.607a1.471,1.471,0,0,1-.457,1.139c-.622.6-1.222,1.223-1.837,1.83a1.084,1.084,0,0,1-1.756,0c-.616-.606-1.218-1.228-1.837-1.831a1.358,1.358,0,0,1-.437-1.048c.013-1.383,0-2.767,0-4.15v-.583l-2.678.722c1.6,3.872,3.175,7.667,4.761,11.455a.556.556,0,0,0,.419.216c.389.022.79-.061,1.169,0a.467.467,0,0,0,.617-.349c1.084-2.657,2.188-5.3,3.285-7.956.459-1.108.919-2.216,1.392-3.356-.421-.131-.79-.26-1.167-.358C-2200.045-322.267-2200.52-322.362-2201.059-322.485Zm-6.236,17.526a3.063,3.063,0,0,0,3.084,3.08,3.11,3.11,0,0,0,3.073-3.11,3.083,3.083,0,0,0-3.081-3.043A3.035,3.035,0,0,0-2207.3-304.959Zm3.075-11.98a4.768,4.768,0,0,1,.53-.613,1.373,1.373,0,0,0,.506-1.225c-.031-1.883-.012-3.768-.012-5.651v-.507h-2.083c0,2.252,0,4.464.006,6.677a.554.554,0,0,0,.141.326C-2204.867-317.625-2204.584-317.332-2204.221-316.938Z" transform="translate(2224.15 327.078)" fill="#12263f"/>
        <path id="Trazado_117670" data-name="Trazado 117670" d="M-1823.582-115.724c-.354.665-.753.927-1.259.825a1.1,1.1,0,0,1-.87-.984,1.082,1.082,0,0,1,.708-1.057,1.048,1.048,0,0,1,1.234.427c.068.1.125.212.187.318Z" transform="translate(1863.385 136.863)" fill="#12263f"/>
      </g>
    </g>
  </g>
</svg>
