<svg xmlns="http://www.w3.org/2000/svg" xmlns:xlink="http://www.w3.org/1999/xlink" width="91.927" height="91.928" viewBox="0 0 91.927 91.928">
  <defs>
    <radialGradient id="radial-gradient" cx="0.076" cy="0.019" r="1.465" gradientTransform="translate(0.001)" gradientUnits="objectBoundingBox">
      <stop offset="0" stop-color="#f6f6f7"/>
      <stop offset="0.477" stop-color="#f9f9fa"/>
      <stop offset="0.715" stop-color="#fff"/>
    </radialGradient>
  </defs>
  <g id="Grupo_54493" data-name="Grupo 54493" transform="translate(-217 -741.334)">
    <g id="Grupo_42274" data-name="Grupo 42274" transform="translate(142 768.333)">
      <g id="Grupo_18423" data-name="Grupo 18423" transform="translate(75 -27)">
        <g id="Grupo_18421" data-name="Grupo 18421">
          <g id="Grupo_18420" data-name="Grupo 18420">
            <g id="Grupo_18419" data-name="Grupo 18419">
              <path id="Trazado_40936" data-name="Trazado 40936" d="M286.55,2191.684a45.964,45.964,0,1,1-45.963-45.962A45.963,45.963,0,0,1,286.55,2191.684Z" transform="translate(-194.623 -2145.721)" fill="#fff"/>
            </g>
          </g>
        </g>
        <path id="Trazado_40937" data-name="Trazado 40937" d="M286.23,2191.334a45.963,45.963,0,1,0-45.963,45.965A45.782,45.782,0,0,0,286.23,2191.334Z" transform="translate(-194.303 -2145.372)" fill="url(#radial-gradient)"/>
        <path id="Trazado_40938" data-name="Trazado 40938" d="M272.56,2188.562a35.084,35.084,0,1,0-35.084,35.084A34.953,34.953,0,0,0,272.56,2188.562Z" transform="translate(-191.373 -2142.446)" fill="none" stroke="#37a3a5" stroke-miterlimit="10" stroke-width="4"/>
        <g id="Grupo_18422" data-name="Grupo 18422" transform="translate(8.143 25.805)">
          <path id="Trazado_40939" data-name="Trazado 40939" d="M279.682,2164.488a45.969,45.969,0,0,1-79.137,45.773,45.823,45.823,0,0,0,79.137-45.773Z" transform="translate(-200.545 -2164.488)" fill="#eceef0"/>
        </g>
      </g>
    </g>
    <g id="WA1uJb.tif" transform="translate(2886.588 901.93)">
      <g id="Grupo_54498" data-name="Grupo 54498" transform="translate(-2646.378 -137.542)">
        <path id="Trazado_117671" data-name="Trazado 117671" d="M-2646.378-42.9c1.04-1.474,2.15-2.906,3.1-4.438a2.539,2.539,0,0,1,2.437-1.373c4.914.043,9.828,0,14.742.051.51.006,1.014.455,1.521.7a5.027,5.027,0,0,1-1.629.647c-4.618.052-9.237.066-13.854.005a2.339,2.339,0,0,0-2.427,1.311c-.658,1.229-1.478,2.371-2.345,3.736h42.449c-1.067-1.649-1.979-3.2-3.055-4.621-.26-.344-1.061-.38-1.615-.384-4.5-.029-9-.015-13.5-.018a5.472,5.472,0,0,1-1.412-.06c-.274-.074-.468-.439-.7-.673a3.06,3.06,0,0,1,.71-.62,2.307,2.307,0,0,1,.878-.051c4.855,0,9.71.024,14.565-.02a2.574,2.574,0,0,1,2.586,1.427c.8,1.445,1.811,2.774,2.656,4.2.835,1.407.348,2.3-1.285,2.3q-21.048.029-42.1-.018a5.3,5.3,0,0,1-1.724-.67Z" transform="translate(2646.378 80.593)" fill="#12263f"/>
        <path id="Trazado_117672" data-name="Trazado 117672" d="M-2594.324-137.542c1.9,2.928,3.823,5.839,5.671,8.8a2.476,2.476,0,0,1,.453,1.889c-.2.428-1.148.686-1.774.7q-4.706.1-9.415,0c-.625-.014-1.569-.273-1.771-.7a2.486,2.486,0,0,1,.457-1.888c1.848-2.959,3.771-5.87,5.669-8.8Zm-.352,1.991-5.1,7.905h10.189Z" transform="translate(2617.436 137.542)" fill="#12263f"/>
        <path id="Trazado_117673" data-name="Trazado 117673" d="M-2613.863-67.452c-5.037,0-10.074.023-15.11-.026-.645-.006-1.68-.227-1.835-.622a3.291,3.291,0,0,1,.394-2.062c1.715-4.222,4.631-5.763,9.362-5.369,6.238.519,12.552.174,18.832.093a2.962,2.962,0,0,1,3,1.667c.712,1.294,1.6,2.491,2.372,3.752,1.059,1.723.637,2.545-1.376,2.557C-2603.434-67.431-2608.648-67.453-2613.863-67.452ZM-2629.511-69h31.641c-.956-1.506-1.7-2.84-2.62-4.047a2.45,2.45,0,0,0-1.656-.919c-7.7-.06-15.4-.049-23.1-.018a1.871,1.871,0,0,0-1.351.515C-2627.592-72.1-2628.461-70.643-2629.511-69Z" transform="translate(2636.441 97.828)" fill="#12263f"/>
        <path id="Trazado_117674" data-name="Trazado 117674" d="M-2593.869-94.886c-1.136-1.774-2.032-3.281-3.058-4.693a1.958,1.958,0,0,0-1.4-.477q-6.131-.055-12.262,0a1.947,1.947,0,0,0-1.4.487c-1.027,1.41-1.924,2.915-3.061,4.683,3.014,0,5.655-.033,8.294.031.457.011.905.431,1.357.663-.475.228-.944.641-1.424.654-2.6.065-5.212.055-7.819.023-1.857-.023-2.3-.878-1.362-2.483,3.23-5.5,3.23-5.5,9.592-5.5,2.784,0,5.574-.1,8.349.061a3.817,3.817,0,0,1,2.419,1.293,33.69,33.69,0,0,1,2.822,4.3c.838,1.4.353,2.293-1.277,2.322-2.665.047-5.332.047-8-.018-.478-.011-.946-.43-1.418-.66.454-.229.9-.645,1.364-.657C-2599.511-94.919-2596.872-94.886-2593.869-94.886Z" transform="translate(2627.212 114.453)" fill="#12263f"/>
      </g>
    </g>
  </g>
</svg>
