<svg xmlns="http://www.w3.org/2000/svg" width="530.15" height="218.025" viewBox="0 0 530.15 218.025">
  <g id="Grupo_55349" data-name="Grupo 55349" transform="translate(-185.845 -23091.018)">
    <path id="Trazado_119536" data-name="Trazado 119536" d="M0,0H83.376V62.234H0Z" transform="translate(200.054 23124.041)" fill="#37a3a5"/>
    <path id="Trazado_119537" data-name="Trazado 119537" d="M0,0H251.289" transform="translate(283.429 23136.143)" fill="none" stroke="#12263f" stroke-width="6"/>
    <path id="Trazado_119538" data-name="Trazado 119538" d="M0,0H251.289" transform="translate(283.429 23172.445)" fill="none" stroke="#12263f" stroke-width="6"/>
    <path id="Trazado_119539" data-name="Trazado 119539" d="M8.644,0A8.644,8.644,0,1,1,0,8.644,8.644,8.644,0,0,1,8.644,0Z" transform="translate(527.947 23127.498)" fill="#12263f"/>
    <path id="Trazado_119540" data-name="Trazado 119540" d="M8.644,0A8.644,8.644,0,1,1,0,8.644,8.644,8.644,0,0,1,8.644,0Z" transform="translate(527.947 23163.803)" fill="#12263f"/>
    <path id="Trazado_119541" data-name="Trazado 119541" d="M0,43.218,35.583,0" transform="translate(536.591 23092.924)" fill="none" stroke="#12263f" stroke-width="6"/>
    <path id="Trazado_119542" data-name="Trazado 119542" d="M35.583,43.218,0,0" transform="translate(536.591 23172.301)" fill="none" stroke="#12263f" stroke-width="6"/>
    <path id="Trazado_117686" data-name="Trazado 117686" d="M-1064.451,176.976a14.5,14.5,0,0,1-2.945-2.51c-.928-1.347-.421-2.8.4-4.218,2.661-4.6,5.814-9.027,7.711-13.935,8.776-22.716,5.721-44.013-8.545-63.721-.441-.608-.964-1.158-1.393-1.774a3.806,3.806,0,0,1,.63-5.381,3.639,3.639,0,0,1,5.343.69c2.918,4.141,6.131,8.187,8.318,12.714,12.638,26.162,10.834,51.4-5.54,75.5A5.166,5.166,0,0,1-1064.451,176.976Z" transform="translate(1655.521 23022.219)" fill="#37a3a5"/>
    <path id="Trazado_117687" data-name="Trazado 117687" d="M-1069.307,161.433a14.113,14.113,0,0,1-3.013-2.463c-.934-1.327-.608-2.866.372-4.21a46.528,46.528,0,0,0,7.53-15.276c4.4-16.234,1.4-31.034-8.707-44.457a6.486,6.486,0,0,1-1.267-3.553,3.2,3.2,0,0,1,2.6-3.085,3.71,3.71,0,0,1,4.182,1.374,52.9,52.9,0,0,1,9.276,16.27q9.591,27.648-6.591,52.077C-1066.417,160.352-1067.462,161.042-1069.307,161.433Z" transform="translate(1647.978 23028.521)" fill="#37a3a5"/>
    <path id="Trazado_117688" data-name="Trazado 117688" d="M-1062.091,118c-.027,10.732-2.513,18.626-7.346,25.795-.279.416-.577.821-.893,1.21-1.541,1.889-3.7,2.225-5.466.865a3.766,3.766,0,0,1-.671-5.373,34.546,34.546,0,0,0,5.994-13.48,34.478,34.478,0,0,0-6.919-28.869c-1.322-1.711-1.451-3.547-.381-5.028a3.662,3.662,0,0,1,4.355-1.292,6.042,6.042,0,0,1,2.141,1.744C-1065.154,101.337-1062.121,110.186-1062.091,118Z" transform="translate(1640.862 23034.324)" fill="#37a3a5"/>
    <path id="Trazado_117689" data-name="Trazado 117689" d="M-1069.176,114.351a27.738,27.738,0,0,1-5.2,16.39c-1.568,2.209-3.753,2.707-5.658,1.344-1.842-1.319-2.1-3.46-.687-5.655,5.441-8.436,5.25-16.937-.561-25.042-1.612-2.25-1.484-4.412.348-5.825s4.179-.906,5.854,1.306A28.259,28.259,0,0,1-1069.176,114.351Z" transform="translate(1634.053 23039.928)" fill="#37a3a5"/>
    <path id="Trazado_119543" data-name="Trazado 119543" d="M13.351-1.846A5.787,5.787,0,0,1,10.92-.359,10.482,10.482,0,0,1,7.414.205,6.253,6.253,0,0,1,2.728-1.589,7.264,7.264,0,0,1,.851-6.583L.841-7.875a8.91,8.91,0,0,1,.779-3.85,5.787,5.787,0,0,1,2.23-2.533,6.309,6.309,0,0,1,3.358-.887,6.614,6.614,0,0,1,4.332,1.277,5.409,5.409,0,0,1,1.8,3.809H9.875a2.831,2.831,0,0,0-.8-1.784,2.581,2.581,0,0,0-1.743-.533A2.348,2.348,0,0,0,5.24-11.228a6.132,6.132,0,0,0-.749,3.281v.9a6,6,0,0,0,.764,3.358,2.7,2.7,0,0,0,2.4,1.123,3.024,3.024,0,0,0,2.092-.625V-5.506H7.25V-7.978h6.1Zm7.3,2.051a5.7,5.7,0,0,1-4.132-1.523A5.258,5.258,0,0,1,14.94-5.281v-.287a6.814,6.814,0,0,1,.631-3,4.614,4.614,0,0,1,1.841-2.015,5.556,5.556,0,0,1,2.871-.713,4.8,4.8,0,0,1,3.691,1.451A5.7,5.7,0,0,1,25.327-5.8V-4.46h-6.87a2.491,2.491,0,0,0,.81,1.466,2.41,2.41,0,0,0,1.62.533,3.106,3.106,0,0,0,2.563-1.148L25.03-1.743A4.414,4.414,0,0,1,23.2-.323,6.185,6.185,0,0,1,20.651.205Zm-.39-8.839q-1.518,0-1.8,2.01h3.486v-.267a1.712,1.712,0,0,0-.42-1.287A1.673,1.673,0,0,0,20.262-8.634Zm9.628-2.461L30-9.792A3.762,3.762,0,0,1,33.171-11.3a3.165,3.165,0,0,1,2.589,1.036,4.93,4.93,0,0,1,.887,3.117V0H33.182V-7a1.872,1.872,0,0,0-.338-1.236,1.565,1.565,0,0,0-1.23-.395,1.648,1.648,0,0,0-1.507.8V0H26.65V-11.095ZM43.928.205A5.7,5.7,0,0,1,39.8-1.318a5.258,5.258,0,0,1-1.579-3.963v-.287a6.814,6.814,0,0,1,.631-3,4.614,4.614,0,0,1,1.841-2.015,5.556,5.556,0,0,1,2.871-.713A4.8,4.8,0,0,1,47.25-9.849,5.7,5.7,0,0,1,48.6-5.8V-4.46h-6.87a2.491,2.491,0,0,0,.81,1.466,2.41,2.41,0,0,0,1.62.533,3.106,3.106,0,0,0,2.563-1.148l1.579,1.866a4.414,4.414,0,0,1-1.83,1.42A6.185,6.185,0,0,1,43.928.205Zm-.39-8.839q-1.518,0-1.8,2.01H45.22v-.267a1.712,1.712,0,0,0-.42-1.287A1.673,1.673,0,0,0,43.538-8.634ZM56.7-7.967l-1.138-.082a2.044,2.044,0,0,0-2.092,1.025V0H50.019V-11.095h3.24l.113,1.425A2.676,2.676,0,0,1,55.8-11.3a3.37,3.37,0,0,1,.964.123ZM63.892,0a3.9,3.9,0,0,1-.328-.995A3.213,3.213,0,0,1,60.9.205a3.936,3.936,0,0,1-2.666-.948,3.019,3.019,0,0,1-1.1-2.384,3.1,3.1,0,0,1,1.333-2.728,6.791,6.791,0,0,1,3.876-.923H63.41v-.587q0-1.535-1.323-1.535a1.081,1.081,0,0,0-1.23,1.216H57.4A3.1,3.1,0,0,1,58.77-10.3a5.753,5.753,0,0,1,3.491-1,5.044,5.044,0,0,1,3.353,1.036,3.6,3.6,0,0,1,1.261,2.84v4.912a5.03,5.03,0,0,0,.472,2.338V0ZM61.729-2.256A1.928,1.928,0,0,0,62.8-2.533a1.735,1.735,0,0,0,.61-.625V-4.932h-1q-1.8,0-1.8,1.62a.989.989,0,0,0,.318.764A1.15,1.15,0,0,0,61.729-2.256Zm6.624-3.374a6.777,6.777,0,0,1,1.138-4.153A3.746,3.746,0,0,1,72.669-11.3a3.186,3.186,0,0,1,2.5,1.169V-15.75h3.466V0H75.53l-.174-1.189A3.272,3.272,0,0,1,72.649.205a3.74,3.74,0,0,1-3.138-1.518A6.992,6.992,0,0,1,68.353-5.629Zm3.456.215q0,2.953,1.723,2.953a1.7,1.7,0,0,0,1.641-.964V-7.649a1.655,1.655,0,0,0-1.62-.984q-1.6,0-1.733,2.584Zm8.357-.236a6.548,6.548,0,0,1,.646-2.958A4.62,4.62,0,0,1,82.667-10.6a5.59,5.59,0,0,1,2.84-.7,5.1,5.1,0,0,1,3.927,1.543,5.922,5.922,0,0,1,1.436,4.2v.123a5.746,5.746,0,0,1-1.441,4.117,5.115,5.115,0,0,1-3.9,1.523,5.173,5.173,0,0,1-3.8-1.42,5.555,5.555,0,0,1-1.548-3.85Zm3.456.215A4.128,4.128,0,0,0,84.1-3.179a1.606,1.606,0,0,0,1.425.718q1.846,0,1.887-2.84V-5.65q0-2.984-1.907-2.984-1.733,0-1.876,2.574ZM99.1-7.967l-1.138-.082a2.044,2.044,0,0,0-2.092,1.025V0H92.418V-11.095h3.24l.113,1.425A2.676,2.676,0,0,1,98.2-11.3a3.37,3.37,0,0,1,.964.123Z" transform="translate(185.004 23304.676)" fill="#12263f"/>
    <path id="Trazado_117690" data-name="Trazado 117690" d="M-1194.757,200.1c.011-.192.027-.383.027-.572,0-7.563,0-47.968,0-55.531v-.684h-9.862l17.868-27.829,17.841,27.785h-9.791c-.019.227-.041.391-.041.558,0,7.694,0,48.234,0,55.931,0,.112.016.227.025.342Z" transform="translate(1421.808 23075.904)" fill="#12263f"/>
    <path id="Trazado_119544" data-name="Trazado 119544" d="M13.771-7.157a8.8,8.8,0,0,1-.81,3.866A5.987,5.987,0,0,1,10.659-.7a6.41,6.41,0,0,1-3.4.907A6.5,6.5,0,0,1,3.876-.672a5.977,5.977,0,0,1-2.3-2.507A8.551,8.551,0,0,1,.708-6.921v-.841a8.843,8.843,0,0,1,.8-3.871A5.972,5.972,0,0,1,3.82-14.222a6.455,6.455,0,0,1,3.42-.913,6.392,6.392,0,0,1,3.384.9,6.08,6.08,0,0,1,2.312,2.569,8.589,8.589,0,0,1,.836,3.82ZM10.11-7.783a6.278,6.278,0,0,0-.743-3.379,2.385,2.385,0,0,0-2.128-1.154q-2.707,0-2.861,4.061l-.01,1.1A6.457,6.457,0,0,0,5.1-3.784,2.381,2.381,0,0,0,7.26-2.6a2.352,2.352,0,0,0,2.1-1.159A6.281,6.281,0,0,0,10.11-7.1Zm8.531-3.312.113,1.3A3.762,3.762,0,0,1,21.923-11.3a3.165,3.165,0,0,1,2.589,1.036A4.93,4.93,0,0,1,25.4-7.147V0H21.933V-7a1.872,1.872,0,0,0-.338-1.236,1.565,1.565,0,0,0-1.23-.395,1.648,1.648,0,0,0-1.507.8V0H15.4V-11.095Zm8.234,5.465a6.777,6.777,0,0,1,1.138-4.153A3.746,3.746,0,0,1,31.192-11.3a3.186,3.186,0,0,1,2.5,1.169V-15.75H37.16V0H34.053l-.174-1.189A3.272,3.272,0,0,1,31.172.205a3.74,3.74,0,0,1-3.138-1.518A6.992,6.992,0,0,1,26.875-5.629Zm3.456.215q0,2.953,1.723,2.953a1.7,1.7,0,0,0,1.641-.964V-7.649a1.655,1.655,0,0,0-1.62-.984q-1.6,0-1.733,2.584ZM45.374,0a3.9,3.9,0,0,1-.328-.995,3.213,3.213,0,0,1-2.666,1.2,3.936,3.936,0,0,1-2.666-.948,3.019,3.019,0,0,1-1.1-2.384,3.1,3.1,0,0,1,1.333-2.728,6.791,6.791,0,0,1,3.876-.923h1.066v-.587q0-1.535-1.323-1.535a1.081,1.081,0,0,0-1.23,1.216H38.883A3.1,3.1,0,0,1,40.252-10.3a5.753,5.753,0,0,1,3.491-1A5.044,5.044,0,0,1,47.1-10.264a3.6,3.6,0,0,1,1.261,2.84v4.912a5.03,5.03,0,0,0,.472,2.338V0ZM43.21-2.256a1.928,1.928,0,0,0,1.072-.277,1.735,1.735,0,0,0,.61-.625V-4.932h-1q-1.8,0-1.8,1.62a.989.989,0,0,0,.318.764A1.15,1.15,0,0,0,43.21-2.256Zm12.869-.861a.8.8,0,0,0-.461-.708,7.019,7.019,0,0,0-1.753-.554,8,8,0,0,1-2.133-.754,3.573,3.573,0,0,1-1.282-1.133,2.706,2.706,0,0,1-.441-1.528A3.066,3.066,0,0,1,51.27-10.31a5.2,5.2,0,0,1,3.3-.99,5.756,5.756,0,0,1,3.527.995A3.11,3.11,0,0,1,59.432-7.69H55.966q0-1.333-1.4-1.333a1.393,1.393,0,0,0-.913.3.937.937,0,0,0-.369.754.86.86,0,0,0,.451.749,4.263,4.263,0,0,0,1.441.472,12.45,12.45,0,0,1,1.738.441q2.5.861,2.5,3.086A2.906,2.906,0,0,1,58.063-.749a5.913,5.913,0,0,1-3.491.954,6.034,6.034,0,0,1-2.543-.513A4.252,4.252,0,0,1,50.285-1.7a3.158,3.158,0,0,1-.625-1.856h3.23A1.335,1.335,0,0,0,53.4-2.435a2.109,2.109,0,0,0,1.261.354,1.659,1.659,0,0,0,1.061-.287A.918.918,0,0,0,56.079-3.117Zm9.772-2.512A7.491,7.491,0,0,1,66.4-8.6,4.458,4.458,0,0,1,67.994-10.6a4.19,4.19,0,0,1,2.41-.7,3.331,3.331,0,0,1,2.707,1.169l.123-.964h3.138V-.42a4.678,4.678,0,0,1-.682,2.548,4.375,4.375,0,0,1-1.974,1.661,7.255,7.255,0,0,1-2.994.579,6.259,6.259,0,0,1-2.364-.461,4.266,4.266,0,0,1-1.748-1.2L68.055.677A3.169,3.169,0,0,0,70.6,1.815,2.058,2.058,0,0,0,72.9-.543V-.892a3.245,3.245,0,0,1-2.512,1.1A4.01,4.01,0,0,1,67.1-1.348a6.436,6.436,0,0,1-1.251-4.158Zm3.466.215a3.947,3.947,0,0,0,.513,2.158,1.618,1.618,0,0,0,1.436.795,1.835,1.835,0,0,0,1.63-.749V-7.875a1.789,1.789,0,0,0-1.61-.759,1.628,1.628,0,0,0-1.446.825A4.5,4.5,0,0,0,69.316-5.414ZM84.943-1.2A3.563,3.563,0,0,1,81.98.205,3.494,3.494,0,0,1,79.217-.856a4.463,4.463,0,0,1-.938-3.051v-7.188h3.456v7.208a1.242,1.242,0,0,0,1.384,1.425,1.806,1.806,0,0,0,1.692-.851v-7.783h3.476V0h-3.24ZM93.823,0H90.357V-11.095h3.466ZM90.152-13.956a1.542,1.542,0,0,1,.533-1.21,2.012,2.012,0,0,1,1.384-.472,2.012,2.012,0,0,1,1.384.472,1.542,1.542,0,0,1,.533,1.21,1.542,1.542,0,0,1-.533,1.21,2.012,2.012,0,0,1-1.384.472,2.012,2.012,0,0,1-1.384-.472A1.542,1.542,0,0,1,90.152-13.956ZM102.2,0a3.9,3.9,0,0,1-.328-.995,3.213,3.213,0,0,1-2.666,1.2,3.936,3.936,0,0,1-2.666-.948,3.019,3.019,0,0,1-1.1-2.384,3.1,3.1,0,0,1,1.333-2.728,6.791,6.791,0,0,1,3.876-.923h1.066v-.587q0-1.535-1.323-1.535a1.081,1.081,0,0,0-1.23,1.216H95.71A3.1,3.1,0,0,1,97.079-10.3a5.753,5.753,0,0,1,3.491-1,5.044,5.044,0,0,1,3.353,1.036,3.6,3.6,0,0,1,1.261,2.84v4.912a5.03,5.03,0,0,0,.472,2.338V0Zm-2.164-2.256a1.928,1.928,0,0,0,1.072-.277,1.735,1.735,0,0,0,.61-.625V-4.932h-1q-1.8,0-1.8,1.62a.989.989,0,0,0,.318.764A1.15,1.15,0,0,0,100.037-2.256Zm6.624-3.374A6.777,6.777,0,0,1,107.8-9.782a3.746,3.746,0,0,1,3.179-1.518,3.186,3.186,0,0,1,2.5,1.169V-15.75h3.466V0h-3.107l-.174-1.189A3.272,3.272,0,0,1,110.958.205a3.74,3.74,0,0,1-3.138-1.518A6.992,6.992,0,0,1,106.661-5.629Zm3.456.215q0,2.953,1.723,2.953a1.7,1.7,0,0,0,1.641-.964V-7.649a1.655,1.655,0,0,0-1.62-.984q-1.6,0-1.733,2.584ZM125.159,0a3.9,3.9,0,0,1-.328-.995,3.213,3.213,0,0,1-2.666,1.2A3.936,3.936,0,0,1,119.5-.743a3.019,3.019,0,0,1-1.1-2.384,3.1,3.1,0,0,1,1.333-2.728,6.791,6.791,0,0,1,3.876-.923h1.066v-.587q0-1.535-1.323-1.535a1.081,1.081,0,0,0-1.23,1.216h-3.456a3.1,3.1,0,0,1,1.369-2.612,5.753,5.753,0,0,1,3.491-1,5.044,5.044,0,0,1,3.353,1.036,3.6,3.6,0,0,1,1.261,2.84v4.912a5.03,5.03,0,0,0,.472,2.338V0ZM123-2.256a1.928,1.928,0,0,0,1.072-.277,1.735,1.735,0,0,0,.61-.625V-4.932h-1q-1.8,0-1.8,1.62a.989.989,0,0,0,.318.764A1.15,1.15,0,0,0,123-2.256Z" transform="translate(326.183 23304.676)" fill="#12263f"/>
    <path id="Trazado_117691" data-name="Trazado 117691" d="M-1137.178,200.1c.011-.192.028-.383.028-.572,0-7.563,0-47.968,0-55.531v-.684h-9.862l17.868-27.829,17.841,27.785h-9.791c-.019.227-.041.391-.041.558,0,7.694,0,48.234,0,55.931,0,.112.019.227.027.342Z" transform="translate(1521.831 23075.904)" fill="#12263f"/>
    <path id="Trazado_119545" data-name="Trazado 119545" d="M9.608-2.789H4.676L3.814,0H-.031L5.445-14.93H8.829L14.345,0H10.479ZM5.537-5.568H8.747l-1.61-5.178Zm12.417-5.527.113,1.3A3.762,3.762,0,0,1,21.236-11.3a3.165,3.165,0,0,1,2.589,1.036,4.93,4.93,0,0,1,.887,3.117V0H21.246V-7a1.872,1.872,0,0,0-.338-1.236,1.565,1.565,0,0,0-1.23-.395,1.648,1.648,0,0,0-1.507.8V0H14.714V-11.095Zm12.694-2.758v2.758h1.825v2.4H30.649V-3.62a1.3,1.3,0,0,0,.226.872,1.21,1.21,0,0,0,.892.246,5.069,5.069,0,0,0,.861-.062V-.092a6.377,6.377,0,0,1-1.948.3,3.62,3.62,0,0,1-2.635-.841,3.446,3.446,0,0,1-.851-2.553V-8.7H25.778v-2.4h1.415v-2.758ZM39.2.205a5.7,5.7,0,0,1-4.132-1.523,5.258,5.258,0,0,1-1.579-3.963v-.287a6.814,6.814,0,0,1,.631-3,4.614,4.614,0,0,1,1.841-2.015,5.556,5.556,0,0,1,2.871-.713,4.8,4.8,0,0,1,3.691,1.451A5.7,5.7,0,0,1,43.876-5.8V-4.46h-6.87a2.491,2.491,0,0,0,.81,1.466,2.41,2.41,0,0,0,1.62.533A3.106,3.106,0,0,0,42-3.609l1.579,1.866a4.414,4.414,0,0,1-1.83,1.42A6.185,6.185,0,0,1,39.2.205Zm-.39-8.839q-1.518,0-1.8,2.01h3.486v-.267a1.712,1.712,0,0,0-.42-1.287A1.673,1.673,0,0,0,38.811-8.634Zm9.628-2.461.113,1.3A3.762,3.762,0,0,1,51.721-11.3a3.165,3.165,0,0,1,2.589,1.036A4.93,4.93,0,0,1,55.2-7.147V0H51.731V-7a1.872,1.872,0,0,0-.338-1.236,1.565,1.565,0,0,0-1.23-.395,1.648,1.648,0,0,0-1.507.8V0H45.2V-11.095ZM63.359,0a3.9,3.9,0,0,1-.328-.995,3.213,3.213,0,0,1-2.666,1.2A3.936,3.936,0,0,1,57.7-.743a3.019,3.019,0,0,1-1.1-2.384,3.1,3.1,0,0,1,1.333-2.728,6.791,6.791,0,0,1,3.876-.923h1.066v-.587q0-1.535-1.323-1.535a1.081,1.081,0,0,0-1.23,1.216H56.868A3.1,3.1,0,0,1,58.237-10.3a5.753,5.753,0,0,1,3.491-1,5.044,5.044,0,0,1,3.353,1.036,3.6,3.6,0,0,1,1.261,2.84v4.912a5.03,5.03,0,0,0,.472,2.338V0ZM61.2-2.256a1.928,1.928,0,0,0,1.072-.277,1.735,1.735,0,0,0,.61-.625V-4.932h-1q-1.8,0-1.8,1.62a.989.989,0,0,0,.318.764A1.15,1.15,0,0,0,61.2-2.256Z" transform="translate(510.872 23304.676)" fill="#12263f"/>
    <path id="Trazado_117692" data-name="Trazado 117692" d="M-1081.7,200.1c.011-.192.027-.383.027-.572,0-7.563,0-47.968,0-55.531v-.684h-9.862l17.868-27.829,17.84,27.785h-9.791c-.016.227-.041.391-.041.558,0,7.694,0,48.234,0,55.931,0,.112.017.227.028.342Z" transform="translate(1618.199 23075.904)" fill="#12263f"/>
    <path id="Trazado_119546" data-name="Trazado 119546" d="M13.771-7.157a8.8,8.8,0,0,1-.81,3.866A5.987,5.987,0,0,1,10.659-.7a6.41,6.41,0,0,1-3.4.907A6.5,6.5,0,0,1,3.876-.672a5.977,5.977,0,0,1-2.3-2.507A8.551,8.551,0,0,1,.708-6.921v-.841a8.843,8.843,0,0,1,.8-3.871A5.972,5.972,0,0,1,3.82-14.222a6.455,6.455,0,0,1,3.42-.913,6.392,6.392,0,0,1,3.384.9,6.08,6.08,0,0,1,2.312,2.569,8.589,8.589,0,0,1,.836,3.82ZM10.11-7.783a6.278,6.278,0,0,0-.743-3.379,2.385,2.385,0,0,0-2.128-1.154q-2.707,0-2.861,4.061l-.01,1.1A6.457,6.457,0,0,0,5.1-3.784,2.381,2.381,0,0,0,7.26-2.6a2.352,2.352,0,0,0,2.1-1.159A6.281,6.281,0,0,0,10.11-7.1Zm8.531-3.312.113,1.3A3.762,3.762,0,0,1,21.923-11.3a3.165,3.165,0,0,1,2.589,1.036A4.93,4.93,0,0,1,25.4-7.147V0H21.933V-7a1.872,1.872,0,0,0-.338-1.236,1.565,1.565,0,0,0-1.23-.395,1.648,1.648,0,0,0-1.507.8V0H15.4V-11.095Zm8.234,5.465a6.777,6.777,0,0,1,1.138-4.153A3.746,3.746,0,0,1,31.192-11.3a3.186,3.186,0,0,1,2.5,1.169V-15.75H37.16V0H34.053l-.174-1.189A3.272,3.272,0,0,1,31.172.205a3.74,3.74,0,0,1-3.138-1.518A6.992,6.992,0,0,1,26.875-5.629Zm3.456.215q0,2.953,1.723,2.953a1.7,1.7,0,0,0,1.641-.964V-7.649a1.655,1.655,0,0,0-1.62-.984q-1.6,0-1.733,2.584ZM45.374,0a3.9,3.9,0,0,1-.328-.995,3.213,3.213,0,0,1-2.666,1.2,3.936,3.936,0,0,1-2.666-.948,3.019,3.019,0,0,1-1.1-2.384,3.1,3.1,0,0,1,1.333-2.728,6.791,6.791,0,0,1,3.876-.923h1.066v-.587q0-1.535-1.323-1.535a1.081,1.081,0,0,0-1.23,1.216H38.883A3.1,3.1,0,0,1,40.252-10.3a5.753,5.753,0,0,1,3.491-1A5.044,5.044,0,0,1,47.1-10.264a3.6,3.6,0,0,1,1.261,2.84v4.912a5.03,5.03,0,0,0,.472,2.338V0ZM43.21-2.256a1.928,1.928,0,0,0,1.072-.277,1.735,1.735,0,0,0,.61-.625V-4.932h-1q-1.8,0-1.8,1.62a.989.989,0,0,0,.318.764A1.15,1.15,0,0,0,43.21-2.256ZM59.145,0H55.679V-15.75h3.466Zm5.773,0H61.452V-11.095h3.466ZM61.247-13.956a1.542,1.542,0,0,1,.533-1.21,2.012,2.012,0,0,1,1.384-.472,2.012,2.012,0,0,1,1.384.472,1.542,1.542,0,0,1,.533,1.21,1.542,1.542,0,0,1-.533,1.21,2.012,2.012,0,0,1-1.384.472,2.012,2.012,0,0,1-1.384-.472A1.542,1.542,0,0,1,61.247-13.956Zm16.1,8.5a6.762,6.762,0,0,1-1.128,4.194A3.778,3.778,0,0,1,73.039.205a3.278,3.278,0,0,1-2.728-1.343L70.167,0h-3.1V-15.75h3.456V-10.2a3.163,3.163,0,0,1,2.492-1.1,3.779,3.779,0,0,1,3.2,1.487,6.8,6.8,0,0,1,1.128,4.184Zm-3.466-.22a4.51,4.51,0,0,0-.426-2.278,1.434,1.434,0,0,0-1.307-.681,1.655,1.655,0,0,0-1.62.891v4.4a1.664,1.664,0,0,0,1.641.88,1.467,1.467,0,0,0,1.548-1.188A8.527,8.527,0,0,0,73.879-5.675Zm11.7-2.292-1.138-.082a2.044,2.044,0,0,0-2.092,1.025V0H78.894V-11.095h3.24l.113,1.425a2.676,2.676,0,0,1,2.43-1.63,3.37,3.37,0,0,1,.964.123ZM92.193.205a5.7,5.7,0,0,1-4.132-1.523,5.258,5.258,0,0,1-1.579-3.963v-.287a6.814,6.814,0,0,1,.631-3,4.614,4.614,0,0,1,1.841-2.015,5.556,5.556,0,0,1,2.871-.713,4.8,4.8,0,0,1,3.691,1.451A5.7,5.7,0,0,1,96.869-5.8V-4.46H90a2.491,2.491,0,0,0,.81,1.466,2.41,2.41,0,0,0,1.62.533,3.106,3.106,0,0,0,2.563-1.148l1.579,1.866a4.414,4.414,0,0,1-1.83,1.42A6.185,6.185,0,0,1,92.193.205ZM91.8-8.634q-1.518,0-1.8,2.01h3.486v-.267a1.712,1.712,0,0,0-.42-1.287A1.673,1.673,0,0,0,91.8-8.634Z" transform="translate(619.126 23154.998)" fill="#12263f"/>
  </g>
</svg>
