<svg xmlns="http://www.w3.org/2000/svg" width="250.313" height="250.314" viewBox="0 0 250.313 250.314">
  <g id="Grupo_55350" data-name="Grupo 55350" transform="translate(-989.125 -22954.998)">
    <path id="Trazado_119547" data-name="Trazado 119547" d="M13.033-10.31h-3.8V0H2.2V-29.148H13.673q5.185,0,8.108,2.3a7.792,7.792,0,0,1,2.923,6.5,9.464,9.464,0,0,1-1.231,5.04,8.739,8.739,0,0,1-3.854,3.24L25.705-.3V0H18.178Zm-3.8-5.405h4.444a3.989,3.989,0,0,0,3.013-1.054,4.073,4.073,0,0,0,1.011-2.94,4.121,4.121,0,0,0-1.021-2.96,3.952,3.952,0,0,0-3-1.074H9.229Z" transform="translate(1030.401 23153.672)" fill="#12263f"/>
    <path id="Trazado_119548" data-name="Trazado 119548" d="M122.157,0A122.157,122.157,0,1,1,0,122.157,122.157,122.157,0,0,1,122.157,0Z" transform="translate(992.125 22957.998)" fill="none" stroke="#12263f" stroke-width="6"/>
    <path id="Trazado_119549" data-name="Trazado 119549" d="M6.118,0A6.118,6.118,0,1,1,0,6.118,6.118,6.118,0,0,1,6.118,0Z" transform="translate(1106.088 23084.199)" fill="#12263f"/>
    <path id="Trazado_119550" data-name="Trazado 119550" d="M4.326,0A4.326,4.326,0,1,1,0,4.326,4.326,4.326,0,0,1,4.326,0Z" transform="translate(1054.251 23166.07)" fill="#12263f"/>
    <path id="Trazado_119551" data-name="Trazado 119551" d="M53.63,0,0,80.079" transform="translate(1058.577 23090.318)" fill="none" stroke="#12263f" stroke-width="4"/>
    <path id="Trazado_119552" data-name="Trazado 119552" d="M4.326,0A4.326,4.326,0,1,1,0,4.326,4.326,4.326,0,0,1,4.326,0Z" transform="translate(1118.239 23059.471)" fill="#12263f"/>
    <path id="Trazado_119553" data-name="Trazado 119553" d="M0,24.127,9.3,0" transform="translate(1113.27 23063.797)" fill="none" stroke="#12263f" stroke-width="4"/>
    <path id="Trazado_119554" data-name="Trazado 119554" d="M4.326,0A4.326,4.326,0,1,1,0,4.326,4.326,4.326,0,0,1,4.326,0Z" transform="translate(1090.117 23062.826)" fill="#12263f"/>
    <path id="Trazado_119555" data-name="Trazado 119555" d="M15.883,20.4,0,0" transform="translate(1094.444 23067.152)" fill="none" stroke="#12263f" stroke-width="4"/>
    <path id="Trazado_119556" data-name="Trazado 119556" d="M4.326,0A4.326,4.326,0,1,1,0,4.326,4.326,4.326,0,0,1,4.326,0Z" transform="translate(1136.495 23081.164)" fill="#12263f"/>
    <path id="Trazado_119557" data-name="Trazado 119557" d="M0,5.543,25.255,0" transform="translate(1115.566 23085.49)" fill="none" stroke="#12263f" stroke-width="4"/>
    <path id="Trazado_119558" data-name="Trazado 119558" d="M4.326,0A4.326,4.326,0,1,1,0,4.326,4.326,4.326,0,0,1,4.326,0Z" transform="translate(1126.386 23108.664)" fill="#12263f"/>
    <path id="Trazado_119559" data-name="Trazado 119559" d="M0,0,15.883,20.4" transform="translate(1114.829 23092.588)" fill="none" stroke="#12263f" stroke-width="4"/>
    <path id="Trazado_119560" data-name="Trazado 119560" d="M4.326,0A4.326,4.326,0,1,1,0,4.326,4.326,4.326,0,0,1,4.326,0Z" transform="translate(1080.009 23090.326)" fill="#12263f"/>
    <path id="Trazado_119561" data-name="Trazado 119561" d="M25.255,0,0,5.543" transform="translate(1084.335 23089.109)" fill="none" stroke="#12263f" stroke-width="4"/>
    <path id="Trazado_119562" data-name="Trazado 119562" d="M1.238,0V-6.211H.088V-7.925h1.15v-.63a2.738,2.738,0,0,1,.8-2.1A3.154,3.154,0,0,1,4.277-11.4a4.908,4.908,0,0,1,1.157.154l.007,1.816A2.255,2.255,0,0,0,4.834-9.5q-1.121,0-1.121.967v.608H5.259v1.714H3.713V0Zm9.609-.857a2.545,2.545,0,0,1-2.117,1A2.5,2.5,0,0,1,6.757-.612a3.188,3.188,0,0,1-.67-2.179V-7.925H8.555v5.149a.887.887,0,0,0,.989,1.018,1.29,1.29,0,0,0,1.208-.608V-7.925h2.483V0H10.92Zm7.573,1A4.074,4.074,0,0,1,15.469-.941a3.756,3.756,0,0,1-1.128-2.831v-.205a4.867,4.867,0,0,1,.45-2.146,3.3,3.3,0,0,1,1.315-1.439,3.969,3.969,0,0,1,2.051-.509,3.43,3.43,0,0,1,2.637,1.036,4.073,4.073,0,0,1,.967,2.889v.959H16.853a1.779,1.779,0,0,0,.579,1.047,1.722,1.722,0,0,0,1.157.381,2.218,2.218,0,0,0,1.831-.82l1.128,1.333A3.153,3.153,0,0,1,20.24-.231,4.418,4.418,0,0,1,18.42.146Zm-.278-6.313q-1.084,0-1.289,1.436h2.49v-.19a1.223,1.223,0,0,0-.3-.919A1.2,1.2,0,0,0,18.142-6.167ZM25.02-7.925l.081.93a2.687,2.687,0,0,1,2.263-1.077,2.261,2.261,0,0,1,1.849.74A3.522,3.522,0,0,1,29.846-5.1V0H27.371V-5a1.337,1.337,0,0,0-.242-.883,1.118,1.118,0,0,0-.879-.282,1.177,1.177,0,0,0-1.077.571V0H22.705V-7.925ZM34.087-9.9v1.97h1.3v1.714h-1.3v3.625a.926.926,0,0,0,.161.623.864.864,0,0,0,.637.176,3.621,3.621,0,0,0,.615-.044V-.066a4.555,4.555,0,0,1-1.392.212,2.586,2.586,0,0,1-1.882-.6,2.462,2.462,0,0,1-.608-1.824V-6.211H30.608V-7.925h1.011V-9.9ZM40.2.146A4.074,4.074,0,0,1,37.244-.941a3.756,3.756,0,0,1-1.128-2.831v-.205a4.867,4.867,0,0,1,.45-2.146,3.3,3.3,0,0,1,1.315-1.439,3.969,3.969,0,0,1,2.051-.509,3.43,3.43,0,0,1,2.637,1.036,4.073,4.073,0,0,1,.967,2.889v.959H38.628a1.779,1.779,0,0,0,.579,1.047,1.722,1.722,0,0,0,1.157.381,2.218,2.218,0,0,0,1.831-.82l1.128,1.333A3.153,3.153,0,0,1,42.015-.231,4.418,4.418,0,0,1,40.2.146Zm-.278-6.313q-1.084,0-1.289,1.436h2.49v-.19a1.223,1.223,0,0,0-.3-.919A1.2,1.2,0,0,0,39.917-6.167Z" transform="translate(1142.843 23106.49)" fill="#12263f"/>
  </g>
</svg>
