<svg id="Grupo_54511" data-name="Grupo 54511" xmlns="http://www.w3.org/2000/svg" xmlns:xlink="http://www.w3.org/1999/xlink" width="123.833" height="123.832" viewBox="0 0 123.833 123.832">
  <defs>
    <radialGradient id="radial-gradient" cx="0.076" cy="0.019" r="1.465" gradientTransform="translate(0.001)" gradientUnits="objectBoundingBox">
      <stop offset="0" stop-color="#f6f6f7"/>
      <stop offset="0.477" stop-color="#f9f9fa"/>
      <stop offset="0.715" stop-color="#fff"/>
    </radialGradient>
  </defs>
  <g id="Grupo_42274" data-name="Grupo 42274" transform="translate(0 0)">
    <g id="Grupo_18423" data-name="Grupo 18423">
      <g id="Grupo_18421" data-name="Grupo 18421">
        <g id="Grupo_18420" data-name="Grupo 18420">
          <g id="Grupo_18419" data-name="Grupo 18419">
            <path id="Trazado_40936" data-name="Trazado 40936" d="M318.456,2207.635a61.916,61.916,0,1,1-61.915-61.915A61.915,61.915,0,0,1,318.456,2207.635Z" transform="translate(-194.623 -2145.721)" fill="#fff"/>
          </g>
        </g>
      </g>
      <path id="Trazado_40937" data-name="Trazado 40937" d="M317.728,2206.843a61.915,61.915,0,1,0-61.915,61.918A61.672,61.672,0,0,0,317.728,2206.843Z" transform="translate(-193.895 -2144.928)" fill="url(#radial-gradient)"/>
      <path id="Trazado_40938" data-name="Trazado 40938" d="M296.6,2200.4a47.26,47.26,0,1,0-47.26,47.26A47.084,47.084,0,0,0,296.6,2200.4Z" transform="translate(-187.238 -2138.278)" fill="none" stroke="#12263f" stroke-miterlimit="10" stroke-width="4"/>
      <g id="Grupo_18422" data-name="Grupo 18422" transform="translate(10.969 34.762)">
        <path id="Trazado_40939" data-name="Trazado 40939" d="M307.148,2164.488a61.924,61.924,0,0,1-106.6,61.66,61.727,61.727,0,0,0,106.6-61.66Z" transform="translate(-200.545 -2164.488)" fill="#eceef0"/>
      </g>
    </g>
  </g>
  <g id="Grupo_54517" data-name="Grupo 54517" transform="translate(-3328.378 -2314.068)">
    <path id="Trazado_69063" data-name="Trazado 69063" d="M3384.823,2351.216l.894.741c-.032.051-.064.1-.1.15.749,0,1.5,0,2.245,0,1.019,0,1.3.281,1.294,1.314q-.006,3.992-.027,7.984c0,.329.04.512.407.65a.958.958,0,0,1,.487.723c.035,2.679.021,5.358.021,8.082h-2.958c-1.08,0-2.161-.008-3.241.007a.828.828,0,0,0-.91.8.866.866,0,0,0,.768.948,4.02,4.02,0,0,0,.729.032c1.846,0,3.692,0,5.578,0v1.779h-.547q-2.719,0-5.437,0c-.727,0-1.1.307-1.1.887.006.562.406.888,1.112.889,1.812,0,3.623,0,5.494,0-.192.611-.372,1.181-.56,1.778-1.685,0-3.355,0-5.028,0-.416,0-.808.12-.922.524a1.136,1.136,0,0,0,.12.9,1.252,1.252,0,0,0,.861.342c1.445.033,2.89.015,4.413.015-.166.57-.3,1.1-.486,1.61-.035.1-.282.158-.432.16-1.133.013-2.265,0-3.4.011a2.105,2.105,0,0,0-.562.08.8.8,0,0,0-.6.956.822.822,0,0,0,.863.735c.976.011,1.952,0,2.928,0h.617c-.318,1.025-.61,2-.925,2.966a.841.841,0,0,1-.873.609h-1.769c0,1.213-.011,2.358,0,3.5a41.972,41.972,0,0,0,.107,4.382,5.294,5.294,0,0,0,5.252,4.635q5.8.028,11.6-.018a5.451,5.451,0,0,0,5.375-5.593c-.033-7.458-.011-14.917-.011-22.376q0-9.463,0-18.926c0-.607.1-1.115.787-1.283h3.869a1.119,1.119,0,0,1,.722,1.191q-.006,20.765-.01,41.529a10.655,10.655,0,0,1-7.384,10.26,21.352,21.352,0,0,1-2.949.558h-12.549a11.073,11.073,0,0,1-4.418-1.246,10.162,10.162,0,0,1-5.591-8.212c-.228-2.505-.1-5.043-.134-7.567,0-.258,0-.517,0-.841-.6,0-1.173-.006-1.742,0a.822.822,0,0,1-.858-.556c-.335-.979-.629-1.974-.956-3.017,1.163,0,2.257,0,3.352,0,.694,0,1.056-.292,1.071-.854s-.391-.911-1.088-.918c-1.1-.01-2.2-.024-3.292.005-.426.012-.67-.084-.759-.534-.079-.4-.229-.791-.368-1.253h2.964c.523,0,1.045,0,1.568,0a.871.871,0,0,0,.975-.854.881.881,0,0,0-.972-.919c-1.585-.011-3.171,0-4.756,0h-.327l-.547-1.777c1.847,0,3.655.013,5.463-.013a1.276,1.276,0,0,0,.885-.306,1.043,1.043,0,0,0,.153-.934,1.168,1.168,0,0,0-.863-.5c-1.846-.045-3.693-.022-5.541-.022h-.593v-1.784h.529c1.811,0,3.623.007,5.435,0,.745,0,1.15-.35,1.131-.927-.017-.539-.349-.849-.964-.853-1.655-.01-3.31,0-4.965,0h-1.171c-.01-.214-.024-.383-.024-.552q0-3.554,0-7.108c0-.826.131-1.018.925-1.333v-4.362c0-1.428,0-2.856,0-4.285,0-.8.284-1.1,1.1-1.11s1.6,0,2.174,0l1.02-.892Zm-2.823,10.69c0-.855-.007-1.656,0-2.457a.985.985,0,0,1,1.089-1.108c.218-.008.437,0,.649,0v-5.321h-5.268v5.3c.179.008.332.019.485.021.99.013,1.265.289,1.265,1.276v2.291Zm4.358,1.8c-.457,0-.875.024-1.291-.007-.368-.027-.533.1-.666.458a3.512,3.512,0,0,1-4.055,2.123,3.572,3.572,0,0,1-2.684-2.537h-1.772a5.307,5.307,0,0,0,10.467-.038Zm-.762-9.805c-.012.188-.029.341-.029.495q0,2.318.007,4.637c0,.762-.3,1.073-1.06,1.089-.235.005-.472,0-.691,0v1.761h3.5V2353.9H3385.6Zm-7.173,6.222c-.19,0-.343,0-.5,0-1.014-.01-1.259-.256-1.26-1.26v-4.913h-1.749v7.944h3.5Z" transform="translate(0 0)" fill="#12263f"/>
    <path id="Trazado_69064" data-name="Trazado 69064" d="M3435.85,2377.349h-1.777v-2.291c0-.987-.275-1.263-1.265-1.276-.153,0-.307-.013-.485-.021v-5.3h5.269v5.321c-.213,0-.432-.007-.649,0a.985.985,0,0,0-1.09,1.108C3435.845,2375.693,3435.85,2376.493,3435.85,2377.349Z" transform="translate(-53.851 -15.442)" fill="#37a3a5"/>
    <path id="Trazado_69065" data-name="Trazado 69065" d="M3418.1,2470.606a5.307,5.307,0,0,1-10.467.038h1.772a3.576,3.576,0,0,0,2.684,2.537,3.514,3.514,0,0,0,4.055-2.124c.134-.355.3-.485.667-.458C3417.228,2470.63,3417.646,2470.606,3418.1,2470.606Z" transform="translate(-31.746 -106.897)" fill="#37a3a5"/>
    <path id="Trazado_69066" data-name="Trazado 69066" d="M3485.272,2376.925H3487v7.982h-3.5v-1.761c.221,0,.456,0,.693,0,.762-.017,1.061-.327,1.058-1.088q-.005-2.319-.006-4.637C3485.244,2377.267,3485.26,2377.114,3485.272,2376.925Z" transform="translate(-99.676 -23.021)" fill="#37a3a5"/>
    <path id="Trazado_69067" data-name="Trazado 69067" d="M3401.843,2383.562v1.772h-3.5v-7.945h1.748v1.257q0,1.827,0,3.656c0,1,.247,1.25,1.26,1.26C3401.5,2383.564,3401.652,2383.562,3401.843,2383.562Z" transform="translate(-23.421 -23.436)" fill="#37a3a5"/>
  </g>
</svg>
