<svg id="Grupo_54514" data-name="Grupo 54514" xmlns="http://www.w3.org/2000/svg" xmlns:xlink="http://www.w3.org/1999/xlink" width="123.833" height="123.832" viewBox="0 0 123.833 123.832">
  <defs>
    <radialGradient id="radial-gradient" cx="0.076" cy="0.019" r="1.465" gradientTransform="translate(0.001)" gradientUnits="objectBoundingBox">
      <stop offset="0" stop-color="#f6f6f7"/>
      <stop offset="0.477" stop-color="#f9f9fa"/>
      <stop offset="0.715" stop-color="#fff"/>
    </radialGradient>
  </defs>
  <g id="Grupo_42274" data-name="Grupo 42274" transform="translate(0 0)">
    <g id="Grupo_18423" data-name="Grupo 18423">
      <g id="Grupo_18421" data-name="Grupo 18421">
        <g id="Grupo_18420" data-name="Grupo 18420">
          <g id="Grupo_18419" data-name="Grupo 18419">
            <path id="Trazado_40936" data-name="Trazado 40936" d="M318.456,2207.635a61.916,61.916,0,1,1-61.915-61.915A61.915,61.915,0,0,1,318.456,2207.635Z" transform="translate(-194.623 -2145.721)" fill="#fff"/>
          </g>
        </g>
      </g>
      <path id="Trazado_40937" data-name="Trazado 40937" d="M317.728,2206.843a61.915,61.915,0,1,0-61.915,61.918A61.672,61.672,0,0,0,317.728,2206.843Z" transform="translate(-193.895 -2144.928)" fill="url(#radial-gradient)"/>
      <path id="Trazado_40938" data-name="Trazado 40938" d="M296.6,2200.4a47.26,47.26,0,1,0-47.26,47.26A47.084,47.084,0,0,0,296.6,2200.4Z" transform="translate(-187.238 -2138.278)" fill="none" stroke="#12263f" stroke-miterlimit="10" stroke-width="4"/>
      <g id="Grupo_18422" data-name="Grupo 18422" transform="translate(10.969 34.762)">
        <path id="Trazado_40939" data-name="Trazado 40939" d="M307.148,2164.488a61.924,61.924,0,0,1-106.6,61.66,61.727,61.727,0,0,0,106.6-61.66Z" transform="translate(-200.545 -2164.488)" fill="#eceef0"/>
      </g>
    </g>
  </g>
  <g id="Grupo_54518" data-name="Grupo 54518" transform="translate(-5046.09 -2901.115)">
    <path id="Trazado_69079" data-name="Trazado 69079" d="M5103.214,2956.945v2.879h.271c1.03,0,2.059,0,3.088,0a1.751,1.751,0,0,1,1.751.922,1.97,1.97,0,0,1,.194.787c.027.673.009,1.349.009,2.063h28.366a1.785,1.785,0,0,1,1.78,1.493,10.838,10.838,0,0,1,0,2.279,1.736,1.736,0,0,1-1.7,1.511c-.574.025-1.15,0-1.752,0v19.1a1.849,1.849,0,0,1-1.933,1.944q-3.89,0-7.779,0h-31.963c-2.033,0-4.066-.026-6.1.01a1.962,1.962,0,0,1-2.005-2c.023-6.207.011-12.415.011-18.622v-.421c-.507,0-.993-.02-1.479,0a1.912,1.912,0,0,1-2.038-2.045c.03-.583-.015-1.176.061-1.752a1.8,1.8,0,0,1,1.778-1.5c1.7,0,3.392,0,5.088,0h.254v-.265c0-.577,0-1.154,0-1.731a1.692,1.692,0,0,1,1.753-1.771c.753-.009,1.506.016,2.26.022.424,0,.849,0,1.29,0v-2.9h-.3l-8.711,0a1.323,1.323,0,0,1-1.4-1.4q0-7.326,0-14.652a2.9,2.9,0,0,1,2.874-2.865c2.744-.012,5.488,0,8.231,0,.409,0,.817-.006,1.225,0,.157,0,.219-.043.269-.207a2.3,2.3,0,0,1,3.759-1.1,2.068,2.068,0,0,1,.677,1.09c.046.186.126.211.29.211q4.635-.006,9.271,0a2.933,2.933,0,0,1,3.008,2.5,2.524,2.524,0,0,1,.028.451c0,4.822-.01,9.644.013,14.465a1.464,1.464,0,0,1-1.526,1.519c-2.858-.029-5.717-.01-8.575-.01Zm30.3,17.668v-5.325c0-.389-.01-.4-.406-.4h-45.556c-.386,0-.4.011-.4.382v18.515c0,.43,0,.43.442.43h45.553c.361,0,.363,0,.363-.351q0-3.01,0-6.021c0-.085-.009-.17-.015-.271h-6.862a2.707,2.707,0,0,1-.345-.015.77.77,0,0,1-.686-.546.832.832,0,0,1,.171-.868,1.1,1.1,0,0,1,.906-.281h6.819v-3.54h-.376q-5.687-.005-11.375-.01c-1.074,0-2.148.005-3.222.01a.9.9,0,0,1-.738-.3.81.81,0,0,1-.139-.9.826.826,0,0,1,.825-.514q3,0,5.991,0h9.046Zm-23.178-7.436h25.785c.2,0,.409-.009.613,0s.3-.076.3-.295c-.01-.409,0-.817,0-1.226,0-.342-.021-.362-.364-.362q-9.789,0-19.58,0l-24.321,0H5084c-.337,0-.357.021-.359.367s0,.711,0,1.066c0,.447,0,.448.434.448h26.263Zm1.59-11.949c.006-.11.012-.189.012-.268q0-6.965,0-13.93a1.225,1.225,0,0,0-1.3-1.3q-4.835,0-9.668.005a.477.477,0,0,0-.324.156,2.321,2.321,0,0,1-3.619.008.422.422,0,0,0-.376-.173c-.949.006-1.9,0-2.848,0h-6.686a1.255,1.255,0,0,0-1.414,1.428q0,6.858,0,13.717v.356Zm-10.428,1.827h-5.355v4.486h-5.3v1.977H5106.8v-1.989h-5.3Zm-2.077-18.592a.6.6,0,1,0-.6.582A.583.583,0,0,0,5099.425,2938.464Z" fill="#00223d"/>
    <path id="Trazado_69081" data-name="Trazado 69081" d="M5140.678,3485.3h-26.263c-.437,0-.436,0-.434-.448,0-.354,0-.71,0-1.065s.022-.367.359-.367h8.765q12.16,0,24.321,0,9.79,0,19.58,0c.343,0,.363.019.363.362,0,.409-.007.817,0,1.226.005.219-.081.306-.3.294s-.409,0-.613,0h-25.785Z" transform="translate(-30.339 -518.123)" fill="#37a3a5"/>
    <path id="Trazado_69083" data-name="Trazado 69083" d="M5259.812,3328.8v4.474h5.3v1.989h-15.957v-1.977h5.3V3328.8Z" transform="translate(-158.311 -371.745)" fill="#fff"/>
    <path id="Trazado_69084" data-name="Trazado 69084" d="M5388.98,2968.97a.6.6,0,0,1-1.194-.022.6.6,0,1,1,1.194.022Z" transform="translate(-289.555 -30.507)" fill="#37a3a5"/>
    <path id="Trazado_69085" data-name="Trazado 69085" d="M5184.047,3038.963h-11.08c-.707,0-1.018-.311-1.019-1.021q0-5.66,0-11.321a.843.843,0,0,1,.913-.91c1.757,0,3.515.018,5.271.018,2.761,0,5.52-.012,8.28-.015,2.9,0,5.806.008,8.71-.009a.954.954,0,0,1,1.024,1.034c-.019,3.756-.008,7.512-.008,11.268a.87.87,0,0,1-.959.954Zm10.389-11.535h-20.777v9.813h20.777Z" transform="translate(-85.218 -84.801)" fill="#00223d"/>
  </g>
</svg>
