<svg xmlns="http://www.w3.org/2000/svg" xmlns:xlink="http://www.w3.org/1999/xlink" width="91.927" height="91.927" viewBox="0 0 91.927 91.927">
  <defs>
    <radialGradient id="radial-gradient" cx="0.076" cy="0.019" r="1.465" gradientTransform="translate(0.001)" gradientUnits="objectBoundingBox">
      <stop offset="0" stop-color="#f6f6f7"/>
      <stop offset="0.477" stop-color="#f9f9fa"/>
      <stop offset="0.715" stop-color="#fff"/>
    </radialGradient>
  </defs>
  <g id="Grupo_46263" data-name="Grupo 46263" transform="translate(-217 -741.333)">
    <g id="Grupo_42274" data-name="Grupo 42274" transform="translate(142 768.333)">
      <g id="Grupo_18423" data-name="Grupo 18423" transform="translate(75 -27)">
        <g id="Grupo_18421" data-name="Grupo 18421">
          <g id="Grupo_18420" data-name="Grupo 18420">
            <g id="Grupo_18419" data-name="Grupo 18419">
              <path id="Trazado_40936" data-name="Trazado 40936" d="M286.55,2191.684a45.964,45.964,0,1,1-45.963-45.962A45.963,45.963,0,0,1,286.55,2191.684Z" transform="translate(-194.623 -2145.721)" fill="#fff"/>
            </g>
          </g>
        </g>
        <path id="Trazado_40937" data-name="Trazado 40937" d="M286.23,2191.334a45.963,45.963,0,1,0-45.963,45.965A45.782,45.782,0,0,0,286.23,2191.334Z" transform="translate(-194.303 -2145.372)" fill="url(#radial-gradient)"/>
        <path id="Trazado_40938" data-name="Trazado 40938" d="M272.56,2188.562a35.084,35.084,0,1,0-35.084,35.084A34.953,34.953,0,0,0,272.56,2188.562Z" transform="translate(-191.373 -2142.446)" fill="none" stroke="#37a3a5" stroke-miterlimit="10" stroke-width="4"/>
        <g id="Grupo_18422" data-name="Grupo 18422" transform="translate(8.143 25.805)">
          <path id="Trazado_40939" data-name="Trazado 40939" d="M279.682,2164.488a45.969,45.969,0,0,1-79.137,45.773,45.823,45.823,0,0,0,79.137-45.773Z" transform="translate(-200.545 -2164.488)" fill="#eceef0"/>
        </g>
      </g>
    </g>
    <g id="vWZNXU.tif" transform="translate(-1872.134 31.062)">
      <g id="Grupo_54359" data-name="Grupo 54359" transform="translate(2118.56 732.228)">
        <path id="Trazado_116862" data-name="Trazado 116862" d="M2118.56,832.515V829.83h3.116c.916-2.38,1.82-4.723,2.721-7.068q4.476-11.641,8.958-23.279a.6.6,0,0,0-.136-.773,3.925,3.925,0,0,1-.792-4.478,4.041,4.041,0,0,1,7.611.8,3.837,3.837,0,0,1-1.056,3.675.582.582,0,0,0-.159.731q3.34,8.641,6.658,17.29,2.423,6.3,4.844,12.6c.059.153.125.3.2.478h3.114v2.7Zm29.052-2.715c-.309-.8-.617-1.526-.871-2.274a.529.529,0,0,0-.611-.414c-3.432.013-6.864.008-10.3.008q-4.9,0-9.8.01c-.161,0-.418.075-.466.186-.346.807-.651,1.633-.98,2.484Zm-16.937-15.754c1.724,1.077,3.416,2.123,5.093,3.192a.536.536,0,0,0,.677-.016c1.441-.914,2.892-1.811,4.339-2.715.239-.149.475-.3.726-.465-.381-1.05-.746-2.076-1.135-3.094a.441.441,0,0,0-.338-.186c-.539-.02-1.078-.009-1.617-.009h-6.54Zm11.467,10.351c-2.021-1.264-3.933-2.466-5.858-3.649a.553.553,0,0,0-.468.055c-1.81,1.116-3.61,2.246-5.413,3.373-.083.052-.16.114-.31.221Zm-14.866-1.566.067.075,6.207-3.88-3.866-2.413Zm15.232-6.22-3.861,2.417,6.205,3.877.069-.064Zm-4.286-11.265-2.127-5.487-2.12,5.487Z" transform="translate(-2118.56 -786.502)" fill="#12263f"/>
        <path id="Trazado_116863" data-name="Trazado 116863" d="M2416.488,751.523l-1.99-1.75a12.055,12.055,0,0,0,3.01-7.8,11.79,11.79,0,0,0-2.8-7.92l2.024-1.7A14.59,14.59,0,0,1,2416.488,751.523Z" transform="translate(-2387.84 -732.348)" fill="#12263f"/>
        <path id="Trazado_116864" data-name="Trazado 116864" d="M2152.224,732.228l1.977,1.681c-3.892,5.258-3.729,10.459.064,15.706l-1.925,1.677A14.448,14.448,0,0,1,2152.224,732.228Z" transform="translate(-2145.975 -732.228)" fill="#12263f"/>
        <path id="Trazado_116865" data-name="Trazado 116865" d="M2212.7,781.565l-2.029,1.634a9.23,9.23,0,0,1-.006-11.75l2.039,1.636A6.857,6.857,0,0,0,2212.7,781.565Z" transform="translate(-2200.451 -767.916)" fill="#12263f"/>
        <path id="Trazado_116866" data-name="Trazado 116866" d="M2373.745,783.724l-2.05-1.669a6.856,6.856,0,0,0,.046-8.472l2.053-1.629A9.33,9.33,0,0,1,2373.745,783.724Z" transform="translate(-2348.892 -768.375)" fill="#12263f"/>
      </g>
    </g>
  </g>
</svg>
