<?xml version="1.0" encoding="utf-8"?>
<!-- Generator: Adobe Illustrator 25.2.3, SVG Export Plug-In . SVG Version: 6.00 Build 0)  -->
<svg version="1.1" id="Capa_1" xmlns="http://www.w3.org/2000/svg" xmlns:xlink="http://www.w3.org/1999/xlink" x="0px" y="0px"
	 viewBox="0 0 123.8 123.8" style="enable-background:new 0 0 123.8 123.8;" xml:space="preserve">
<style type="text/css">
	.st0{fill:#FFFFFF;}
	.st1{fill:url(#SVGID_1_);}
	.st2{fill:none;stroke:#12263F;stroke-width:4;stroke-miterlimit:10;}
	.st3{fill:#ECEEF0;}
	.st4{fill:#37A3A5;}
</style>
<g transform="translate(0 0)">
	<path class="st0" d="M123.8,61.9c0,34.2-27.7,61.9-61.9,61.9S0,96.1,0,61.9S27.7,0,61.9,0c0,0,0,0,0,0
		C96.1,0,123.8,27.7,123.8,61.9L123.8,61.9z"/>
	
		<radialGradient id="SVGID_1_" cx="-240.9616" cy="456.2918" r="1.465" gradientTransform="matrix(123.8305 0 0 -123.8308 29847.9316 56505.3438)" gradientUnits="userSpaceOnUse">
		<stop  offset="0" style="stop-color:#F6F6F7"/>
		<stop  offset="0.477" style="stop-color:#F9F9FA"/>
		<stop  offset="0.715" style="stop-color:#FFFFFF"/>
	</radialGradient>
	<path class="st1" d="M123.8,61.9C123.8,27.7,96.1,0,61.9,0C27.7,0,0,27.7,0,61.9c0,34.2,27.7,61.9,61.9,61.9
		c34.1,0.1,61.8-27.4,61.9-61.4C123.8,62.2,123.8,62.1,123.8,61.9z"/>
	<path class="st2" d="M109.4,62.1c0-26.1-21.2-47.3-47.3-47.3S14.8,36,14.8,62.1c0,26.1,21.2,47.3,47.3,47.3
		c26,0.1,47.2-20.9,47.3-46.9C109.4,62.4,109.4,62.2,109.4,62.1z"/>
	<g transform="translate(10.969 34.762)">
		<path class="st3" d="M106.6,0c13.9,31.3-0.2,67.8-31.5,81.7C48.5,93.6,17.2,85.2,0,61.7c19.1,28.2,57.5,35.6,85.7,16.5
			C111.2,61,120.1,27.6,106.6,0z"/>
	</g>
</g>
<path class="st4" d="M69.8,56.1c0,1.2-0.3,2.3-0.9,3.2c-0.6,0.9-1.4,1.7-2.5,2.2c1.2,0.6,2.2,1.4,2.9,2.4c0.7,1,1.1,2.2,1.1,3.6
	c0,2.2-0.8,4-2.3,5.2c-1.5,1.3-3.5,1.9-6.1,1.9c-2.6,0-4.6-0.6-6.2-1.9c-1.5-1.3-2.3-3-2.3-5.2c0-1.4,0.4-2.6,1.1-3.6
	c0.7-1,1.7-1.8,2.9-2.4c-1.1-0.6-1.9-1.3-2.5-2.2c-0.6-0.9-0.9-2-0.9-3.2c0-2.1,0.7-3.8,2.1-5.1c1.4-1.3,3.3-1.9,5.8-1.9
	c2.4,0,4.3,0.6,5.8,1.9C69.1,52.3,69.8,53.9,69.8,56.1z M65.4,67.2c0-1.1-0.3-1.9-0.9-2.6c-0.6-0.6-1.5-1-2.5-1c-1,0-1.9,0.3-2.5,1
	c-0.6,0.6-0.9,1.5-0.9,2.6c0,1.1,0.3,1.9,0.9,2.6s1.5,1,2.6,1c1.1,0,1.9-0.3,2.5-0.9C65.1,69.2,65.4,68.3,65.4,67.2z M64.9,56.3
	c0-1-0.3-1.7-0.8-2.3c-0.5-0.6-1.2-0.9-2.2-0.9c-0.9,0-1.6,0.3-2.2,0.9c-0.5,0.6-0.8,1.4-0.8,2.4c0,1,0.3,1.8,0.8,2.4
	c0.5,0.6,1.2,0.9,2.2,0.9c0.9,0,1.7-0.3,2.2-0.9C64.6,58.1,64.9,57.3,64.9,56.3z"/>
</svg>
