<svg xmlns="http://www.w3.org/2000/svg" xmlns:xlink="http://www.w3.org/1999/xlink" width="91.927" height="91.927" viewBox="0 0 91.927 91.927">
  <defs>
    <radialGradient id="radial-gradient" cx="0.076" cy="0.019" r="1.465" gradientTransform="translate(0.001)" gradientUnits="objectBoundingBox">
      <stop offset="0" stop-color="#f6f6f7"/>
      <stop offset="0.477" stop-color="#f9f9fa"/>
      <stop offset="0.715" stop-color="#fff"/>
    </radialGradient>
  </defs>
  <g id="Grupo_54349" data-name="Grupo 54349" transform="translate(-217 -741.333)">
    <g id="Grupo_42274" data-name="Grupo 42274" transform="translate(142 768.333)">
      <g id="Grupo_18423" data-name="Grupo 18423" transform="translate(75 -27)">
        <g id="Grupo_18421" data-name="Grupo 18421">
          <g id="Grupo_18420" data-name="Grupo 18420">
            <g id="Grupo_18419" data-name="Grupo 18419">
              <path id="Trazado_40936" data-name="Trazado 40936" d="M286.55,2191.684a45.964,45.964,0,1,1-45.963-45.962A45.963,45.963,0,0,1,286.55,2191.684Z" transform="translate(-194.623 -2145.721)" fill="#fff"/>
            </g>
          </g>
        </g>
        <path id="Trazado_40937" data-name="Trazado 40937" d="M286.23,2191.334a45.963,45.963,0,1,0-45.963,45.965A45.782,45.782,0,0,0,286.23,2191.334Z" transform="translate(-194.303 -2145.372)" fill="url(#radial-gradient)"/>
        <path id="Trazado_40938" data-name="Trazado 40938" d="M272.56,2188.562a35.084,35.084,0,1,0-35.084,35.084A34.953,34.953,0,0,0,272.56,2188.562Z" transform="translate(-191.373 -2142.446)" fill="none" stroke="#37a3a5" stroke-miterlimit="10" stroke-width="4"/>
        <g id="Grupo_18422" data-name="Grupo 18422" transform="translate(8.143 25.805)">
          <path id="Trazado_40939" data-name="Trazado 40939" d="M279.682,2164.488a45.969,45.969,0,0,1-79.137,45.773,45.823,45.823,0,0,0,79.137-45.773Z" transform="translate(-200.545 -2164.488)" fill="#eceef0"/>
        </g>
      </g>
    </g>
    <g id="Fa5Iuu.tif" transform="translate(-2293.479 -952.086)">
      <g id="Grupo_54362" data-name="Grupo 54362" transform="translate(2530.482 1718.057)">
        <path id="Trazado_116885" data-name="Trazado 116885" d="M2578.4,1873.884c-.349.829-.51.937-1.372.938q-1.495,0-2.99,0c-.9,0-1.054-.1-1.423-.925h-31.757c-.187.82-.784.967-1.542.935-.976-.041-1.954-.008-2.931-.01-.773,0-.967-.141-1.274-.938-1.106,0-2.235,0-3.364,0-.968,0-1.269-.3-1.27-1.25q0-8.591,0-17.182c0-.992.289-1.273,1.3-1.273h47.138c1,0,1.994-.006,2.99,0,.763.006,1.1.348,1.1,1.118q.006,8.738,0,17.475c0,.765-.346,1.1-1.116,1.108C2580.732,1873.889,2579.561,1873.884,2578.4,1873.884Zm2.7-1.9V1856.1h-48.708v15.88Z" transform="translate(-2530.482 -1838.184)" fill="#12263f"/>
        <path id="Trazado_116886" data-name="Trazado 116886" d="M2660.116,1723.279c-.271.368-.409.745-.655.84a1.4,1.4,0,0,1-1.025-.056c-.676-.342-1.273-.837-1.945-1.189q-12.144-6.363-23.7,1.039c-.115.073-.221.163-.341.227a.928.928,0,0,1-1.248-.262.906.906,0,0,1,.229-1.294,22.582,22.582,0,0,1,2.38-1.489q13.077-6.662,25.432,1.284A5.773,5.773,0,0,1,2660.116,1723.279Z" transform="translate(-2619.217 -1718.057)" fill="#12263f"/>
        <path id="Trazado_116887" data-name="Trazado 116887" d="M2675.939,1766.28a18.665,18.665,0,0,1,9.786,2.791c.538.332.716.751.52,1.216a.887.887,0,0,1-1.09.564,1.706,1.706,0,0,1-.473-.222,16.65,16.65,0,0,0-17.532,0c-.648.369-1.176.314-1.491-.18s-.127-1.036.537-1.438A18.74,18.74,0,0,1,2675.939,1766.28Z" transform="translate(-2649.644 -1760.615)" fill="#12263f"/>
        <path id="Trazado_116888" data-name="Trazado 116888" d="M2706.936,1814.275a13.262,13.262,0,0,1,5.509,1.2c.672.308.923.8.7,1.333s-.762.692-1.445.389a11.241,11.241,0,0,0-9.479-.009c-.687.3-1.217.166-1.456-.36s.008-1.038.67-1.342A13.238,13.238,0,0,1,2706.936,1814.275Z" transform="translate(-2680.675 -1802.971)" fill="#12263f"/>
        <path id="Trazado_116889" data-name="Trazado 116889" d="M2572.224,1911.869a2.026,2.026,0,0,0,.03-.3c-.115-1.235.279-1.647,1.591-1.582.915.046,1.834.008,2.752.009,1,0,1.281.283,1.289,1.288,0,.172,0,.345,0,.59.33,0,.616-.011.9,0a.913.913,0,0,1,.968.953q.024,2.811,0,5.623a.9.9,0,0,1-.94.922q-3.748.018-7.5,0a.885.885,0,0,1-.931-.927q-.026-2.811,0-5.623a.91.91,0,0,1,.975-.945C2571.634,1911.859,2571.9,1911.869,2572.224,1911.869Zm5.61,5.615V1913.9c-.562-.164-1.215-.169-1.53-.5s-.292-.982-.418-1.5h-1.6c-.159.563-.159,1.215-.485,1.533s-.978.3-1.5.438v3.612Z" transform="translate(-2565.689 -1887.428)" fill="#12263f"/>
        <path id="Trazado_116890" data-name="Trazado 116890" d="M2668.065,1911.961c.012-.172.022-.267.025-.362.039-1.347.2-1.514,1.532-1.517.937,0,1.874,0,2.81,0,1,0,1.283.284,1.29,1.286,0,.172,0,.344,0,.591.329,0,.615-.012.9,0a.915.915,0,0,1,.97.953q.023,2.811,0,5.622a.888.888,0,0,1-.937.922q-3.747.02-7.495,0a.9.9,0,0,1-.936-.981q-.019-2.753,0-5.505a.929.929,0,0,1,1.031-1.01C2667.5,1911.954,2667.756,1911.961,2668.065,1911.961Zm5.613,5.6v-3.589c-.562-.152-1.2-.142-1.506-.456-.32-.333-.319-.975-.478-1.555h-1.558c-.179.609-.186,1.261-.516,1.576s-.981.293-1.494.419v3.606Z" transform="translate(-2650.267 -1887.521)" fill="#12263f"/>
        <path id="Trazado_116891" data-name="Trazado 116891" d="M2763.881,1911.857a1.435,1.435,0,0,0,.04-.251c-.112-1.268.2-1.713,1.714-1.635.876.045,1.756,0,2.635.008,1,.005,1.279.29,1.287,1.293,0,.171,0,.343,0,.586.332,0,.619-.012.9,0a.914.914,0,0,1,.962.959q.022,2.782,0,5.564a.911.911,0,0,1-1.006.974q-3.689.015-7.378,0a.911.911,0,0,1-.986-.994q-.018-2.752,0-5.505a.921.921,0,0,1,.983-1C2763.307,1911.846,2763.578,1911.857,2763.881,1911.857Zm5.636,5.6v-3.57c-.569-.165-1.221-.169-1.538-.5s-.3-.98-.427-1.5h-1.6c-.157.56-.155,1.212-.481,1.532s-.977.308-1.5.445v3.593Z" transform="translate(-2734.84 -1887.417)" fill="#12263f"/>
        <path id="Trazado_116892" data-name="Trazado 116892" d="M2859.718,1911.981c.012-.168.023-.262.026-.357.032-1.365.193-1.52,1.583-1.521q1.376,0,2.752,0c1,0,1.287.283,1.294,1.282,0,.173,0,.346,0,.6.325,0,.61-.011.9,0a.913.913,0,0,1,.974.948q.024,2.811,0,5.623a.883.883,0,0,1-.933.925q-3.748.022-7.5,0a.909.909,0,0,1-.94-.983q-.018-2.753,0-5.505a.93.93,0,0,1,1.031-1.011C2859.155,1911.974,2859.407,1911.981,2859.718,1911.981Zm3.753.048h-1.812c-.14,1.618-.14,1.618-1.879,1.893v3.689h5.548v-3.728C2863.593,1913.864,2863.5,1913.7,2863.471,1912.029Z" transform="translate(-2819.401 -1887.541)" fill="#12263f"/>
        <path id="Trazado_116893" data-name="Trazado 116893" d="M2858.847,1878.154a.936.936,0,1,1-.022,1.872.936.936,0,0,1,.022-1.872Z" transform="translate(-2819.445 -1859.345)" fill="#12263f"/>
        <path id="Trazado_116894" data-name="Trazado 116894" d="M2883.761,1879.134a.934.934,0,1,1-.893-.96A.938.938,0,0,1,2883.761,1879.134Z" transform="translate(-2840.607 -1859.362)" fill="#12263f"/>
        <path id="Trazado_116895" data-name="Trazado 116895" d="M2906.8,1878.281a.929.929,0,1,1-.034,1.858.929.929,0,1,1,.034-1.858Z" transform="translate(-2861.749 -1859.457)" fill="#12263f"/>
        <path id="Trazado_116896" data-name="Trazado 116896" d="M2930.737,1880.141a.938.938,0,0,1-.927-.936.934.934,0,0,1,1.868.008A.945.945,0,0,1,2930.737,1880.141Z" transform="translate(-2882.895 -1859.459)" fill="#12263f"/>
      </g>
    </g>
  </g>
</svg>
