<svg xmlns="http://www.w3.org/2000/svg" xmlns:xlink="http://www.w3.org/1999/xlink" width="317.51" height="238.675" viewBox="0 0 317.51 238.675">
  <defs>
    <linearGradient id="linear-gradient" x1="0.5" x2="0.5" y2="1" gradientUnits="objectBoundingBox">
      <stop offset="0" stop-color="#fff"/>
      <stop offset="1" stop-color="#d2e6ee"/>
    </linearGradient>
  </defs>
  <g id="Grupo_54887" data-name="Grupo 54887" transform="translate(-262.304 -15.018)">
    <g id="Grupo_54880" data-name="Grupo 54880" transform="translate(349.838 35.886)">
      <g id="Grupo_54845" data-name="Grupo 54845" transform="translate(7.777 0)">
        <g id="Grupo_54844" data-name="Grupo 54844" transform="translate(0.361 0.685)">
          <g id="Grupo_54837" data-name="Grupo 54837" transform="translate(4.306 20.278)">
            <path id="Trazado_118577" data-name="Trazado 118577" d="M315.192,73.9a.591.591,0,0,1-.591-.591V37.49a.591.591,0,1,1,1.181,0V73.308A.591.591,0,0,1,315.192,73.9Z" transform="translate(-314.601 -36.899)" fill="#12263f"/>
          </g>
          <g id="Grupo_54838" data-name="Grupo 54838" transform="translate(6.036)">
            <path id="Trazado_118578" data-name="Trazado 118578" d="M316.1,43.3a.591.591,0,0,1-.277-1.113l29.966-15.825a.59.59,0,0,1,.551,1.044L316.372,43.23A.586.586,0,0,1,316.1,43.3Z" transform="translate(-315.506 -26.292)" fill="#12263f"/>
          </g>
          <g id="Grupo_54839" data-name="Grupo 54839" transform="translate(5.845 18.752)">
            <path id="Trazado_118579" data-name="Trazado 118579" d="M342.222,57.3a.6.6,0,0,1-.359-.12L315.637,37.162a.592.592,0,0,1,.719-.941l26.225,20.021a.591.591,0,0,1,.109.828A.584.584,0,0,1,342.222,57.3Z" transform="translate(-315.406 -36.101)" fill="#12263f"/>
          </g>
          <g id="Grupo_54843" data-name="Grupo 54843" transform="translate(0 12.383)" style="isolation: isolate">
            <g id="Grupo_54840" data-name="Grupo 54840">
              <path id="Trazado_118580" data-name="Trazado 118580" d="M316.51,38.417l-4.162,2.419.016-5.647,4.162-2.419Z" transform="translate(-312.349 -32.77)" fill="#12263f"/>
            </g>
            <g id="Grupo_54841" data-name="Grupo 54841" transform="translate(0 5.647)">
              <path id="Trazado_118581" data-name="Trazado 118581" d="M321.425,38.561l-4.162,2.419-4.914-2.837,4.162-2.419Z" transform="translate(-312.349 -35.723)" fill="#12263f"/>
            </g>
            <g id="Grupo_54842" data-name="Grupo 54842" transform="translate(4.162)">
              <path id="Trazado_118582" data-name="Trazado 118582" d="M314.526,38.417l.016-5.647,4.914,2.837-.016,5.647Z" transform="translate(-314.526 -32.77)" fill="#12263f"/>
            </g>
          </g>
        </g>
        <path id="Trazado_118583" data-name="Trazado 118583" d="M325.777,87.654A20.016,20.016,0,0,0,333.3,85.83c18.138-5.857,28.049-20.756,26.842-40.932.04-.661.061-1.319.061-1.969a22.759,22.759,0,0,0-1.839-9.528c-3.615-7.88-12.185-9.941-22.184-4.169-13.267,7.66-24.021,26.21-24.021,41.435C312.16,81.615,317.719,87.859,325.777,87.654Z" transform="translate(-312.16 -25.934)" fill="#37a3a5"/>
      </g>
      <g id="Grupo_54846" data-name="Grupo 54846" transform="translate(56.569 30.863)">
        <path id="Trazado_118584" data-name="Trazado 118584" d="M337.683,50.351V52.4l32.478,18.751V69.1Z" transform="translate(-337.683 -34.536)" fill="#2b2b2b"/>
        <path id="Trazado_118585" data-name="Trazado 118585" d="M337.683,42.078v2.046l32.478,18.751V60.829Z" transform="translate(-337.683 -42.078)" fill="#2b2b2b"/>
      </g>
      <g id="Grupo_54865" data-name="Grupo 54865" transform="translate(0 31.619)">
        <g id="Grupo_54855" data-name="Grupo 54855" transform="translate(0 2.242)">
          <g id="Grupo_54854" data-name="Grupo 54854">
            <g id="Grupo_54847" data-name="Grupo 54847">
              <path id="Trazado_118586" data-name="Trazado 118586" d="M380.166,227.592l.013-.065-.055.036-70.55-45.749-1.482-4.559L373.765,43.646l4.2,2.726,4.879,179.359Zm-66.778-49.036,64.9,42.086L373.805,55.621Z" transform="translate(-308.092 -43.646)" fill="#12263f"/>
            </g>
            <g id="Grupo_54848" data-name="Grupo 54848" transform="translate(36.41 62.485)">
              <path id="Trazado_118587" data-name="Trazado 118587" d="M362.587,132.7l-2.171.26-.135-.228-18.515-31.365-1.6-2.7L328.823,79.446l-1.686-2.855,2.171-.26Z" transform="translate(-327.138 -76.331)" fill="#12263f"/>
            </g>
            <g id="Grupo_54849" data-name="Grupo 54849" transform="translate(24.065 82.436)">
              <path id="Trazado_118588" data-name="Trazado 118588" d="M367.559,89.47l-2.293.275L349.825,91.6l-2.171.26-25.195,3.02-.184.022-1.6-2.7,45.283-5.429Z" transform="translate(-320.68 -86.767)" fill="#12263f"/>
            </g>
            <g id="Grupo_54850" data-name="Grupo 54850" transform="translate(24.065 87.604)">
              <path id="Trazado_118589" data-name="Trazado 118589" d="M367.463,168.981,320.68,89.731l2.171-.261.584.99,0,.021,1.015,1.692L341.5,121.085l1.6,2.682,24.268,41.109Z" transform="translate(-320.68 -89.471)" fill="#12263f"/>
            </g>
            <g id="Grupo_54851" data-name="Grupo 54851" transform="translate(8.2 116.155)">
              <path id="Trazado_118590" data-name="Trazado 118590" d="M374.445,104.406l1.6,2.7-63.659,7.631,1.493-3.073,33.022-3.959,2.167-.239,23.211-2.8,1.372-.144,0-.021Z" transform="translate(-312.382 -104.406)" fill="#12263f"/>
            </g>
            <g id="Grupo_54852" data-name="Grupo 54852" transform="translate(46.729 45.915)">
              <path id="Trazado_118591" data-name="Trazado 118591" d="M355.154,104.184l1.6,2.7-2.171.26-.135-.228-1.46-2.474L341.546,85.07l-9.011-15.264,1.043-2.142,8.539,14.464,1.6,2.682,10.606,17.966,0,.021Z" transform="translate(-332.536 -67.664)" fill="#12263f"/>
            </g>
            <g id="Grupo_54853" data-name="Grupo 54853" transform="translate(36.41 58.986)">
              <path id="Trazado_118592" data-name="Trazado 118592" d="M358.729,77.366l-12.261,1.47L330.9,80.7l-1.987.238-.183.022-1.6-2.7,2.171-.26,1.131-.136,14.432-1.73,2.167-.239L358.658,74.5Z" transform="translate(-327.138 -74.501)" fill="#12263f"/>
            </g>
          </g>
        </g>
        <g id="Grupo_54864" data-name="Grupo 54864" transform="translate(69.967 4.606)">
          <g id="Grupo_54863" data-name="Grupo 54863">
            <g id="Grupo_54856" data-name="Grupo 54856">
              <path id="Trazado_118593" data-name="Trazado 118593" d="M348.922,224.271,344.691,47.137l4.078-2.254,72.645,139.309-1.252,4.359-68.417,37.825-.057-.044.017.067Zm.415-167.53,3.9,162.974,62.938-34.8Z" transform="translate(-344.691 -44.883)" fill="#12263f"/>
            </g>
            <g id="Grupo_54857" data-name="Grupo 54857" transform="translate(3.919 64.767)">
              <path id="Trazado_118594" data-name="Trazado 118594" d="M346.741,131.066l2.19.488.124-.212,16.97-29.1,1.462-2.507,10.4-17.835,1.545-2.649-2.19-.488Z" transform="translate(-346.741 -78.762)" fill="#12263f"/>
            </g>
            <g id="Grupo_54858" data-name="Grupo 54858" transform="translate(3.123 81.262)">
              <path id="Trazado_118595" data-name="Trazado 118595" d="M346.324,89.9l2.313.516,15.577,3.472,2.19.488,25.417,5.666.185.041,1.462-2.507L347.787,87.39Z" transform="translate(-346.324 -87.39)" fill="#12263f"/>
            </g>
            <g id="Grupo_54859" data-name="Grupo 54859" transform="translate(7.278 90.957)">
              <path id="Trazado_118596" data-name="Trazado 118596" d="M348.608,166.479,391.487,92.95l-2.19-.488-.535.918.005.021-.932,1.568L372.208,121.8l-1.467,2.486L348.5,162.424Z" transform="translate(-348.498 -92.462)" fill="#12263f"/>
            </g>
            <g id="Grupo_54860" data-name="Grupo 54860" transform="translate(3.919 114.563)">
              <path id="Trazado_118597" data-name="Trazado 118597" d="M348.2,104.81l-1.462,2.508,64.22,14.316-1.653-3.2-33.313-7.426-2.185-.467-23.417-5.24-1.383-.288-.005-.021Z" transform="translate(-346.741 -104.81)" fill="#12263f"/>
            </g>
            <g id="Grupo_54861" data-name="Grupo 54861" transform="translate(3.123 47.379)">
              <path id="Trazado_118598" data-name="Trazado 118598" d="M347.787,103.549l-1.462,2.507,2.19.488.124-.212,1.339-2.3L360.46,86.061,368.718,71.9l-1.155-2.233-7.826,13.42-1.467,2.486-9.721,16.67.005.021Z" transform="translate(-346.324 -69.667)" fill="#12263f"/>
            </g>
            <g id="Grupo_54862" data-name="Grupo 54862" transform="translate(4.814 58.186)">
              <path id="Trazado_118599" data-name="Trazado 118599" d="M347.284,78.15l12.369,2.757,15.7,3.5,2.005.447.185.041,1.462-2.508-2.19-.488-1.141-.254L361.115,78.4l-2.185-.467L347.209,75.32Z" transform="translate(-347.209 -75.32)" fill="#12263f"/>
            </g>
          </g>
        </g>
        <path id="Trazado_118600" data-name="Trazado 118600" d="M347.84,50.048l-6.58-3.8,6.539-3.775,6.58,3.8Z" transform="translate(-277.852 -42.473)" fill="#12263f"/>
      </g>
      <g id="Grupo_54867" data-name="Grupo 54867" transform="translate(31.884 29.418)">
        <g id="Grupo_54866" data-name="Grupo 54866" style="isolation: isolate">
          <path id="Trazado_118601" data-name="Trazado 118601" d="M373.343,62.666l-18.671-10.78v2.046l17.341,10.012-.039,13.747-17.3-9.989v2.046l17.74,10.242,1.329-.765.045-15.789Z" transform="translate(-297.508 -31.69)" fill="#12263f"/>
          <path id="Trazado_118602" data-name="Trazado 118602" d="M337.428,57.367l.039-13.747,2.065,1.192V42.767l-2.5-1.445-1.329.765-.045,15.789.443.769,3.434,1.982V58.582Z" transform="translate(-314.846 -41.322)" fill="#12263f"/>
          <path id="Trazado_118603" data-name="Trazado 118603" d="M374.13,57.526,353.321,69.62l-.442.763-.044,15.789,1.331.769,20.809-12.094.442-.763.044-15.789Zm-.484,16.043L354.609,84.632l.04-13.738,19.035-11.061Z" transform="translate(-299.183 -26.549)" fill="#12263f"/>
          <path id="Trazado_118604" data-name="Trazado 118604" d="M400.35,80.557,381.724,69.8v2.046l16.416,9.478L379.1,92.394,327.213,62.439l19.044-11.067,2.989,1.726V51.052L346.7,49.581h-.888L325,61.675l0,1.533,53.652,30.976h.888l20.81-12.093Z" transform="translate(-324.56 -33.792)" fill="#12263f"/>
          <path id="Trazado_118605" data-name="Trazado 118605" d="M326.1,70.737l-1.331-.769.044-15.789.442-.763,20.809-12.094,1.331.769-.044,15.789-.442.763Zm.484-16.045-.038,13.738,19.035-11.063.038-13.736Z" transform="translate(-324.77 -41.321)" fill="#12263f"/>
          <path id="Trazado_118606" data-name="Trazado 118606" d="M400.373,72.3,381.7,61.518v2.046l16.461,9.5L379.119,84.134,327.236,54.18,346.28,43.113l2.945,1.7V42.767l-2.5-1.445h-.888L325.024,53.416l0,1.533,53.652,30.976h.888l20.809-12.093Z" transform="translate(-324.539 -41.322)" fill="#12263f"/>
          <path id="Trazado_118607" data-name="Trazado 118607" d="M379.8,78.624,326.143,47.648l-1.329.765L324.77,64.2l.444.769,53.65,30.977,1.329-.765.046-15.791Zm-1.369,15.024L326.542,63.693l.04-13.747L378.464,79.9Z" transform="translate(-324.77 -35.554)" fill="#12263f"/>
        </g>
      </g>
      <g id="Grupo_54876" data-name="Grupo 54876" transform="translate(83.68 46.173)">
        <path id="Trazado_118608" data-name="Trazado 118608" d="M399.945,67.081c0,15.223-10.753,33.774-24.023,41.433-10,5.773-18.569,3.713-22.182-4.169a64.64,64.64,0,0,1-1.778-11.5c-1.208-20.174,8.7-35.072,26.841-40.93a53,53,0,0,1,7.525-1.826C394.384,49.889,399.945,56.132,399.945,67.081Z" transform="translate(-351.864 -50.087)" fill="#37a3a5"/>
        <path id="Trazado_118609" data-name="Trazado 118609" d="M399.928,67.081c0,15.223-10.753,33.774-24.023,41.433-10,5.773-18.569,3.713-22.182-4.169a22.742,22.742,0,0,1-1.841-9.526c0-.65.021-1.31.063-1.971.862-14.818,11.26-32.132,23.96-39.464a29.707,29.707,0,0,1,2.881-1.466,20.059,20.059,0,0,1,7.525-1.826C394.367,49.889,399.928,56.132,399.928,67.081Z" transform="translate(-351.847 -50.087)" fill="#12263f"/>
        <path id="Trazado_118610" data-name="Trazado 118610" d="M364.562,110.069a10.914,10.914,0,0,1-10.329-6.779,21.584,21.584,0,0,1-1.732-9.035c0-.627.021-1.266.059-1.9.845-14.521,11.111-31.436,23.373-38.515a29.011,29.011,0,0,1,2.766-1.409,18.839,18.839,0,0,1,7.077-1.724c.119,0,.235-.006.352-.006,7.437,0,12.055,6.06,12.055,15.814,0,14.825-10.511,32.952-23.432,40.41A20.929,20.929,0,0,1,364.562,110.069Z" transform="translate(-351.284 -49.524)" fill="#eceff0"/>
        <g id="Grupo_54875" data-name="Grupo 54875" transform="translate(4.926 0.812)">
          <g id="Grupo_54868" data-name="Grupo 54868" transform="translate(31.696)">
            <path id="Trazado_118611" data-name="Trazado 118611" d="M371.612,87.51a.591.591,0,0,1-.591-.589V51.1a.591.591,0,0,1,1.181,0v35.82A.589.589,0,0,1,371.612,87.51Z" transform="translate(-371.021 -50.511)" fill="#12263f"/>
          </g>
          <g id="Grupo_54869" data-name="Grupo 54869" transform="translate(0 40.271)">
            <path id="Trazado_118612" data-name="Trazado 118612" d="M355.032,88.582a.59.59,0,0,1-.275-1.113l29.966-15.825a.59.59,0,0,1,.551,1.044L355.307,88.515A.591.591,0,0,1,355.032,88.582Z" transform="translate(-354.441 -71.576)" fill="#12263f"/>
          </g>
          <g id="Grupo_54870" data-name="Grupo 54870" transform="translate(3.933 17.323)">
            <path id="Trazado_118613" data-name="Trazado 118613" d="M383.313,80.775a.592.592,0,0,1-.357-.12L356.731,60.633a.591.591,0,0,1,.717-.939l26.225,20.021a.59.59,0,0,1,.109.828A.582.582,0,0,1,383.313,80.775Z" transform="translate(-356.498 -59.572)" fill="#12263f"/>
          </g>
          <g id="Grupo_54874" data-name="Grupo 54874" transform="translate(28.091 33.991)" style="isolation: isolate">
            <g id="Grupo_54871" data-name="Grupo 54871" transform="translate(4.914 2.837)">
              <path id="Trazado_118614" data-name="Trazado 118614" d="M371.722,72.194l4.162-2.419-.016,5.647-4.162,2.419Z" transform="translate(-371.706 -69.776)" fill="#12263f"/>
            </g>
            <g id="Grupo_54872" data-name="Grupo 54872" transform="translate(0.016)">
              <path id="Trazado_118615" data-name="Trazado 118615" d="M369.144,70.71l4.162-2.419,4.914,2.837-4.162,2.419Z" transform="translate(-369.144 -68.291)" fill="#12263f"/>
            </g>
            <g id="Grupo_54873" data-name="Grupo 54873" transform="translate(0 2.419)">
              <path id="Trazado_118616" data-name="Trazado 118616" d="M374.066,72.394l-.016,5.647L369.135,75.2l.016-5.647Z" transform="translate(-369.135 -69.557)" fill="#12263f"/>
            </g>
          </g>
        </g>
      </g>
      <g id="Grupo_54879" data-name="Grupo 54879" transform="translate(35.738 32.368)">
        <g id="Grupo_54877" data-name="Grupo 54877" transform="translate(32.205 18.593)" style="isolation: isolate">
          <path id="Trazado_118617" data-name="Trazado 118617" d="M356.823,60.2c0-.044,0-.09-.008-.136s-.006-.094-.01-.14l0-.031,0-.017-.011-.1c-.006-.048-.011-.094-.019-.143s-.017-.1-.027-.149l-.01-.048-.006-.023-.015-.082c-.011-.052-.025-.105-.036-.157s-.029-.107-.044-.162l-.011-.042-.008-.025-.027-.094c-.017-.055-.034-.109-.054-.163s-.036-.109-.055-.164l-.013-.032-.008-.021-.04-.107c-.021-.054-.042-.107-.065-.161s-.046-.111-.071-.164l-.011-.027-.01-.019-.057-.126c-.029-.061-.057-.12-.086-.18s-.048-.09-.071-.134l-.023-.048L356,57.458c-.065-.12-.132-.241-.2-.359l-.015-.025c-.1-.168-.206-.335-.319-.5l0,0c-.08-.12-.166-.241-.252-.357l-.054-.069-.052-.067c-.029-.038-.057-.078-.088-.117q-.092-.118-.189-.235l-.036-.042-.04-.046c-.038-.044-.075-.09-.113-.132-.067-.076-.134-.151-.2-.224l-.031-.033-.042-.046-.141-.147c-.075-.076-.151-.151-.228-.226l-.008-.006-.017-.015c-.073-.071-.145-.14-.22-.206-.052-.046-.105-.092-.159-.138l-.057-.05-.036-.033c-.084-.071-.17-.14-.256-.208-.033-.027-.065-.05-.1-.075l-.073-.055-.088-.067c-.084-.061-.168-.122-.254-.182l-.061-.04-.063-.042c-.044-.029-.086-.057-.13-.084q-.126-.08-.252-.155l-.059-.034-.094-.055c-.063-.036-.128-.071-.191-.105l-.05-.027-.105-.055-.09-.046-.069-.033-.105-.05-.065-.031L351.3,53l-.1-.042-.046-.019-.115-.044-.092-.034-.025-.01-.151-.05-.071-.023-.011,0c-.078-.023-.155-.044-.231-.063h0l-.034-.01c-.065-.015-.13-.029-.193-.042l-.012,0-.1-.017-.122-.019-.015,0c-.04-.006-.08-.008-.12-.011s-.067-.01-.1-.011h-.011c-.057,0-.111-.006-.166-.006l-.061,0h-.006a2.323,2.323,0,0,0-.233.011h-.008l-.04.006c-.067.008-.134.015-.2.027l-.034.006-.031.008a2.6,2.6,0,0,0-.279.076h0l-.008,0a2.021,2.021,0,0,0-.325.151L344.192,55.3a1.861,1.861,0,0,1,.325-.149l.011-.006a2.215,2.215,0,0,1,.279-.075l.065-.013c.063-.013.13-.021.2-.029l.048-.006a2.327,2.327,0,0,1,.233-.011l.067,0c.055,0,.109,0,.166.006.036,0,.075.008.113.011s.08.006.122.011.09.015.134.021l.1.017c.067.013.136.029.2.046l.036.008c.08.019.163.042.245.067l.071.023c.057.019.117.038.176.059l.092.034c.054.021.107.04.161.063l.1.042c.052.023.1.046.155.071l.105.048c.054.027.105.052.159.08l.105.054c.08.042.161.086.241.134l.094.054q.224.129.442.275l.063.042c.136.092.271.187.4.287l.073.055q.2.152.39.315l.057.05c.128.111.254.226.379.342l.017.017c.128.122.254.25.377.38l.042.044c.118.126.233.256.346.388l.04.046c.109.13.212.26.315.394l.05.067c.107.141.21.285.308.428.113.166.218.333.319.5.084.143.166.289.243.432l.023.048c.076.145.149.292.214.44l.01.021c.069.153.13.306.187.457l.008.023c.055.151.105.3.149.451l.008.025c.042.149.078.3.107.444l.006.025c.029.145.052.291.067.434l0,.017a4.2,4.2,0,0,1,.023.434L352.571,95.1q0,.172-.017.333l0,.029c-.011.1-.027.2-.046.291l0,.025a2.638,2.638,0,0,1-.073.256l-.013.042a2.461,2.461,0,0,1-.1.227c-.015.031-.032.057-.048.086q-.04.075-.086.143c-.015.023-.032.046-.05.069a1.361,1.361,0,0,1-.1.128c-.019.021-.038.044-.059.065-.038.04-.08.076-.122.113-.019.015-.038.032-.057.05a2.159,2.159,0,0,1-.2.136l4.162-2.418a1.851,1.851,0,0,0,.2-.138l.057-.048c.042-.036.084-.075.122-.113l.061-.065c.034-.042.069-.084.1-.128l.052-.069.023-.034c.023-.034.04-.073.061-.109s.032-.055.048-.086l.012-.021c.027-.055.05-.113.073-.17l.011-.036.013-.042c.01-.029.019-.055.029-.082.013-.05.027-.1.038-.151l.006-.025,0-.025c.008-.031.013-.061.019-.092.008-.046.015-.092.021-.14l.006-.057,0-.029.006-.052c0-.044.006-.088.008-.134s0-.092,0-.14V92.68l.092-32.356C356.825,60.282,356.823,60.24,356.823,60.2Z" transform="translate(-343.121 -52.591)" fill="#eceff0"/>
          <path id="Trazado_118618" data-name="Trazado 118618" d="M348.507,54.706c2.583,1.491,4.672,4.575,4.666,6.882l-.092,32.356c-.008,2.311-2.107,2.975-4.689,1.484l-.094-.055c-2.583-1.491-4.672-4.571-4.667-6.882l.092-32.356c.008-2.309,2.107-2.973,4.689-1.482Z" transform="translate(-343.632 -51.437)" fill="url(#linear-gradient)"/>
        </g>
        <g id="Grupo_54878" data-name="Grupo 54878" style="isolation: isolate">
          <path id="Trazado_118619" data-name="Trazado 118619" d="M339.975,50.47c0-.046,0-.092-.008-.138s-.006-.094-.011-.14l0-.031,0-.017-.011-.1c-.006-.046-.013-.094-.021-.143s-.015-.1-.025-.149l-.01-.046-.006-.025-.015-.082c-.011-.052-.025-.105-.038-.157s-.027-.107-.042-.162l-.011-.042-.008-.025-.029-.1c-.015-.054-.033-.107-.052-.162s-.036-.107-.057-.162l-.011-.031-.008-.021-.04-.109c-.021-.054-.042-.107-.065-.161s-.046-.111-.071-.164l-.011-.025-.01-.021-.057-.126c-.029-.061-.057-.12-.088-.18-.021-.044-.044-.09-.067-.134l-.025-.048-.025-.048c-.065-.12-.132-.241-.2-.359l-.015-.023c-.1-.168-.206-.336-.317-.5l0,0c-.082-.12-.166-.239-.254-.357l-.052-.069-.052-.065c-.029-.04-.057-.078-.088-.117-.063-.078-.126-.157-.191-.235l-.036-.042-.038-.048-.115-.132c-.065-.075-.134-.149-.2-.224l-.031-.032-.042-.044c-.048-.05-.094-.1-.141-.147-.076-.076-.151-.153-.229-.226l-.006-.008-.017-.013c-.073-.071-.145-.14-.222-.206-.052-.048-.105-.094-.157-.138l-.057-.05-.036-.032c-.084-.071-.17-.141-.256-.208-.032-.027-.067-.05-.1-.076l-.071-.054-.088-.067c-.084-.061-.168-.122-.254-.182l-.061-.04-.063-.042-.13-.086c-.084-.052-.168-.1-.252-.153l-.059-.034-.094-.055-.191-.107-.05-.025-.107-.055-.088-.046-.069-.033-.105-.05-.067-.031-.088-.038-.1-.044-.046-.019-.115-.042-.092-.034-.027-.01c-.05-.019-.1-.034-.149-.05l-.073-.023-.011,0c-.077-.025-.155-.046-.229-.065h0l-.031-.006c-.067-.017-.134-.032-.2-.044l-.011,0c-.034-.008-.067-.011-.1-.017s-.082-.015-.122-.019l-.013,0c-.042-.006-.082-.01-.122-.013s-.067-.008-.1-.01H332.9q-.083-.006-.166-.006l-.061,0h0c-.08,0-.159,0-.235.01l-.01,0-.038,0c-.067.008-.132.017-.2.029l-.033.006-.032.008a2.561,2.561,0,0,0-.277.075l0,0-.008,0a1.861,1.861,0,0,0-.325.149l-4.162,2.418a2.01,2.01,0,0,1,.325-.149l.011,0a2.2,2.2,0,0,1,.277-.076l.065-.013c.065-.011.13-.021.2-.027l.048-.006q.115-.011.235-.011l.065,0q.083,0,.166.006c.038,0,.075.006.113.01s.08.008.122.013.09.013.136.021l.1.017c.069.013.138.029.208.046l.031.006c.08.021.161.044.243.069l.073.023c.057.019.117.038.176.059l.092.034c.052.019.105.04.159.063l.1.042.157.069.105.05.157.078.107.055q.12.063.241.132l.094.055c.149.086.3.178.442.273l.063.042c.136.092.27.189.4.289l.075.055q.2.152.39.315l.055.048c.13.113.256.227.38.346l.017.013c.128.124.254.252.377.382l.042.042c.119.128.233.258.346.39l.038.046c.109.128.214.26.315.394l.052.065c.105.141.208.285.308.43.111.164.216.333.317.5.084.143.166.287.243.432l.023.046c.076.147.149.294.214.44l.009.021c.069.153.13.306.187.459l.008.021c.055.151.105.3.149.451l.008.027c.042.147.078.3.107.442l.006.025c.029.147.052.292.067.436l0,.017a3.716,3.716,0,0,1,.021.434l-.092,32.356c0,.115-.006.226-.015.333l0,.027c-.012.1-.027.2-.046.291l0,.025c-.021.09-.046.176-.073.258l-.013.042a2.189,2.189,0,0,1-.1.227c-.013.029-.031.057-.046.086-.027.048-.055.1-.086.143-.015.023-.032.046-.05.069-.033.044-.067.088-.1.128-.019.021-.038.042-.059.063-.038.04-.08.078-.122.115l-.057.048a2.074,2.074,0,0,1-.2.138l4.162-2.42a1.764,1.764,0,0,0,.2-.136c.019-.015.038-.032.057-.05a1.363,1.363,0,0,0,.122-.113l.059-.065q.054-.06.1-.126c.017-.023.034-.046.05-.071l.025-.034c.023-.033.04-.071.061-.107s.033-.057.048-.086l.011-.023c.025-.054.05-.111.071-.17l.013-.034.013-.042c.01-.029.019-.055.027-.084q.023-.072.04-.149l.006-.025,0-.025c.008-.031.013-.061.019-.094s.015-.092.021-.138l.006-.059,0-.029,0-.052c0-.044.008-.088.01-.134s0-.092,0-.138v-.01l.092-32.354C339.977,50.554,339.975,50.512,339.975,50.47Z" transform="translate(-326.275 -42.865)" fill="#eceff0"/>
          <path id="Trazado_118620" data-name="Trazado 118620" d="M331.661,44.981c2.583,1.491,4.67,4.573,4.663,6.882l-.092,32.356c-.006,2.311-2.1,2.975-4.686,1.483l-.1-.055c-2.583-1.491-4.67-4.571-4.665-6.882l.092-32.356c.008-2.309,2.1-2.975,4.689-1.483Z" transform="translate(-326.786 -41.712)" fill="url(#linear-gradient)"/>
        </g>
      </g>
    </g>
    <g id="Grupo_54883" data-name="Grupo 54883" transform="translate(497.287 15.018)">
      <g id="Grupo_54881" data-name="Grupo 54881">
        <path id="Trazado_118621" data-name="Trazado 118621" d="M386.9,26.372l5.2-3.426h0c2.334-1.468,5.632-1.321,9.287.79.2.119.409.243.612.371a13.716,13.716,0,0,1,2.483-5.265l-2.569,1.072,4.7-3.091c3.736-2.611,9.15-2.483,15.175,1,8.381,4.839,15.579,14.793,18.721,24.9,2.69-.8,6.045-.254,9.685,1.849,8.846,5.106,16.018,17.475,16.018,27.626,0,4.951-1.707,8.457-4.479,10.161h0l-6.028,3.776,1.642-2.606a14.622,14.622,0,0,1-7.156-2.2L401.385,53.144c-7.077-4.087-12.814-13.982-12.814-22.1a12.138,12.138,0,0,1,1-5.121Z" transform="translate(-383.688 -15.018)" fill="#00223d"/>
        <path id="Trazado_118622" data-name="Trazado 118622" d="M398.035,25.416c.2.119.409.243.612.371,2.22-8.9,10.239-11.807,19.8-6.288,8.381,4.839,15.579,14.793,18.719,24.9,2.69-.8,6.045-.254,9.685,1.849,8.847,5.106,16.018,17.477,16.018,27.626s-7.171,14.24-16.018,9.132L398.035,54.824c-7.077-4.087-12.814-13.982-12.814-22.1S390.958,21.329,398.035,25.416Z" transform="translate(-385.221 -13.486)" fill="url(#linear-gradient)"/>
      </g>
      <g id="Grupo_54882" data-name="Grupo 54882" transform="translate(4.074 29.193)">
        <path id="Trazado_118623" data-name="Trazado 118623" d="M388.471,36.306l2.684-1.43.052-.027h0c1.367-.7,3.216-.549,5.25.627.122.071.245.143.365.22a8.458,8.458,0,0,1,1.216-2.78l-.725-.392,2.42-1.271a5.757,5.757,0,0,1,.942-.5h0c2.126-.876,4.9-.551,7.926,1.2,4.986,2.879,9.27,8.8,11.14,14.816a7.445,7.445,0,0,1,5.762,1.1c5.265,3.04,9.532,10.4,9.532,16.441,0,2.847-.948,4.892-2.5,5.94h0v0a4.561,4.561,0,0,1-.8.428l-2.2,1.185-.243-.832a9.172,9.172,0,0,1-3.791-1.288L396.456,52.974a16.8,16.8,0,0,1-7.624-13.151,7.315,7.315,0,0,1,.552-2.957Z" transform="translate(-386.332 -30.288)" fill="#00223d"/>
        <path id="Trazado_118624" data-name="Trazado 118624" d="M394.976,36.168c.122.071.245.145.365.222,1.319-5.294,6.093-7.026,11.778-3.743,4.988,2.881,9.272,8.8,11.141,14.818a7.437,7.437,0,0,1,5.762,1.1c5.265,3.04,9.532,10.4,9.532,16.441s-4.267,8.473-9.532,5.433l-29.047-16.77a16.806,16.806,0,0,1-7.624-13.153C387.352,35.684,390.766,33.736,394.976,36.168Z" transform="translate(-387.352 -29.657)" fill="#37a3a5"/>
      </g>
    </g>
    <g id="Grupo_54886" data-name="Grupo 54886" transform="translate(262.304 33.476)">
      <g id="Grupo_54884" data-name="Grupo 54884">
        <path id="Trazado_118625" data-name="Trazado 118625" d="M276.144,51.96a11.269,11.269,0,0,0,5.116,8.823c2.826,1.633,5.116.327,5.116-2.915a11.275,11.275,0,0,0-5.116-8.824C278.434,47.412,276.144,48.718,276.144,51.96Z" transform="translate(-249.686 -3.094)" fill="#00223d"/>
        <path id="Trazado_118626" data-name="Trazado 118626" d="M296.323,60.1c-4.512-7.779-14.519-10.48-19.029-7.909h0l-5.771-9.954.14-.078c7.628-4.349,19.995,2.791,27.622,15.948l.14.241-3.1,1.753Z" transform="translate(-253.9 -9.892)" fill="#00223d"/>
        <path id="Trazado_118627" data-name="Trazado 118627" d="M307.114,61.106c-8.54-14.73-25.1-21.262-33.644-16.393h0l-5.77-9.954.212-.12c11.623-6.628,30.469,4.252,42.092,24.3l.212.365-3.1,1.8Z" transform="translate(-257.384 -17.358)" fill="#00223d"/>
        <path id="Trazado_118628" data-name="Trazado 118628" d="M317.768,61.967c-12.516-21.591-35.552-31.859-48.07-24.722h0l-5.771-9.954c15.7-8.951,41.245,5.8,56.944,32.878h0l-3.1,1.8Z" transform="translate(-260.825 -24.673)" fill="#00223d"/>
        <path id="Trazado_118629" data-name="Trazado 118629" d="M278.348,48.514l-2.973,1.738,3.218.652Z" transform="translate(-250.387 -2.936)" fill="#eceff0"/>
        <path id="Trazado_118630" data-name="Trazado 118630" d="M282.1,55.494l-3.009,1.752.388-2.644Z" transform="translate(-247.003 2.614)" fill="#eceff0"/>
        <path id="Trazado_118631" data-name="Trazado 118631" d="M273,41.593l-3.1,1.8,3.965-1.29Z" transform="translate(-255.379 -9.246)" fill="#eceff0"/>
        <path id="Trazado_118632" data-name="Trazado 118632" d="M269.179,33.775l-3.1,1.8,4.018-.9Z" transform="translate(-258.864 -16.374)" fill="#eceff0"/>
        <path id="Trazado_118633" data-name="Trazado 118633" d="M265.406,26.042l-3.1,1.8,4.516-.9Z" transform="translate(-262.304 -23.424)" fill="#eceff0"/>
      </g>
      <g id="Grupo_54885" data-name="Grupo 54885" transform="translate(0 1.8)">
        <path id="Trazado_118634" data-name="Trazado 118634" d="M274.521,52.9a11.275,11.275,0,0,0,5.116,8.825c2.826,1.631,5.116.325,5.116-2.917a11.268,11.268,0,0,0-5.116-8.823C276.811,48.354,274.521,49.66,274.521,52.9Z" transform="translate(-251.166 -4.035)" fill="url(#linear-gradient)"/>
        <path id="Trazado_118635" data-name="Trazado 118635" d="M292.03,62.579c-4.51-7.779-11.849-12.017-16.361-9.446h0l-5.77-9.954.14-.078c7.628-4.349,19.995,2.791,27.622,15.948l.14.241-5.771,3.29Z" transform="translate(-255.379 -10.834)" fill="url(#linear-gradient)"/>
        <path id="Trazado_118636" data-name="Trazado 118636" d="M302.824,63.538c-8.542-14.73-22.436-22.753-30.976-17.884h0L266.077,35.7l.212-.12c11.623-6.628,30.469,4.254,42.092,24.3l.212.367-5.77,3.29Z" transform="translate(-258.864 -18.3)" fill="url(#linear-gradient)"/>
        <path id="Trazado_118637" data-name="Trazado 118637" d="M313.477,64.4c-12.518-21.591-32.885-33.35-45.4-26.213h0L262.3,28.233c15.7-8.953,41.243,5.8,56.942,32.876h0l-5.77,3.29Z" transform="translate(-262.304 -25.614)" fill="url(#linear-gradient)"/>
      </g>
    </g>
    <g id="Grupo_54890" data-name="Grupo 54890" transform="translate(29.506 36.568)">
      <g id="Grupo_54888" data-name="Grupo 54888" transform="translate(451.088 40.033)">
        <path id="Trazado_118638" data-name="Trazado 118638" d="M379.823,130.612a.7.7,0,0,1-.368-1.306l6.014-3.666a.7.7,0,0,1,.734,1.2l-6.012,3.666A.715.715,0,0,1,379.823,130.612Zm12.024-7.332a.7.7,0,0,1-.368-1.306l6.013-3.666a.7.7,0,0,1,.734,1.2l-6.012,3.666A.715.715,0,0,1,391.847,123.28Zm12.024-7.332a.7.7,0,0,1-.366-1.305l6.012-3.666a.7.7,0,0,1,.735,1.2l-6.014,3.666A.715.715,0,0,1,403.872,115.949Zm12.024-7.332a.7.7,0,0,1-.366-1.306l6.011-3.664a.7.7,0,1,1,.735,1.2l-6.012,3.666A.715.715,0,0,1,415.9,108.617Zm12.024-7.332a.7.7,0,0,1-.366-1.3l6.011-3.666a.7.7,0,1,1,.735,1.2l-6.012,3.666A.7.7,0,0,1,427.92,101.285Zm12.026-7.332a.7.7,0,0,1-.368-1.306l.459-.28a4.428,4.428,0,0,0,2.138-3.8,4.669,4.669,0,0,0-.121-1.046.7.7,0,1,1,1.369-.324,5.977,5.977,0,0,1,.161,1.37,5.826,5.826,0,0,1-2.812,5.007l-.459.28A.7.7,0,0,1,439.945,93.953Zm-2.117-10.581a.71.71,0,0,1-.352-.094l-6.1-3.521a.7.7,0,0,1,.7-1.22l6.1,3.521a.7.7,0,0,1-.352,1.314Zm-12.2-7.042a.715.715,0,0,1-.352-.094l-6.1-3.521a.7.7,0,0,1,.7-1.22l6.1,3.521a.7.7,0,0,1-.352,1.314Zm-12.2-7.042a.71.71,0,0,1-.352-.094l-6.1-3.521a.7.7,0,0,1,.7-1.221l6.1,3.521a.7.7,0,0,1-.352,1.315ZM401.31,62.144a.7.7,0,0,1-.476-.186,5.892,5.892,0,0,1-1.049-7.325.7.7,0,1,1,1.207.724,4.488,4.488,0,0,0,.794,5.564.7.7,0,0,1-.476,1.222Zm4.723-10.529a.7.7,0,0,1-.361-1.308l6.042-3.618a.7.7,0,0,1,.722,1.21L406.4,51.515A.7.7,0,0,1,406.033,51.615Z" transform="translate(-379.119 -46.589)" fill="#12263f"/>
      </g>
      <g id="Grupo_54889" data-name="Grupo 54889" transform="translate(272.68 -7.539)">
        <path id="Trazado_118639" data-name="Trazado 118639" d="M340.221,40.357a.71.71,0,0,1-.352-.094l-6.1-3.521a.7.7,0,0,1,.7-1.221l6.1,3.521a.7.7,0,0,1-.352,1.315Zm-55.836-1.484a.7.7,0,0,1-.332-1.325l6.215-3.31a.7.7,0,0,1,.663,1.244l-6.215,3.31A.714.714,0,0,1,284.385,38.872Zm43.639-5.557a.71.71,0,0,1-.352-.094l-6.1-3.521a.7.7,0,0,1,.7-1.221l6.1,3.521a.7.7,0,0,1-.352,1.315Zm-31.21-1.062a.7.7,0,0,1-.332-1.327l6.216-3.31a.7.7,0,0,1,.662,1.244l-6.215,3.31A.7.7,0,0,1,296.815,32.253Zm19.014-5.98a.71.71,0,0,1-.352-.094l-1.256-.725a4.526,4.526,0,0,0-4.322-.075l-.324.172a.7.7,0,0,1-.659-1.244l.321-.172a5.953,5.953,0,0,1,5.688.1l1.256.724a.705.705,0,0,1-.352,1.315Z" transform="translate(-283.68 -23.461)" fill="#12263f"/>
      </g>
    </g>
  </g>
</svg>
