<svg xmlns="http://www.w3.org/2000/svg" xmlns:xlink="http://www.w3.org/1999/xlink" width="314.641" height="308.661" viewBox="0 0 314.641 308.661">
  <defs>
    <linearGradient id="linear-gradient" x1="0.5" x2="0.5" y2="1" gradientUnits="objectBoundingBox">
      <stop offset="0" stop-color="#fff"/>
      <stop offset="1" stop-color="#d2e6ee"/>
    </linearGradient>
  </defs>
  <g id="Grupo_55007" data-name="Grupo 55007" transform="translate(-21.174 -18.851)">
    <g id="Grupo_54894" data-name="Grupo 54894" transform="translate(24.115 18.85)">
      <g id="Grupo_54891" data-name="Grupo 54891" transform="translate(87.669)">
        <path id="Trazado_118640" data-name="Trazado 118640" d="M235.828,69.684a.9.9,0,0,1-.445-.12L227.639,65.1a.893.893,0,0,1,.892-1.548l7.744,4.462a.895.895,0,0,1-.447,1.67ZM72.756,62.925a.894.894,0,0,1-.45-1.666l7.726-4.494a.894.894,0,1,1,.9,1.545L73.2,62.8A.892.892,0,0,1,72.756,62.925ZM220.34,60.756a.9.9,0,0,1-.445-.118l-7.744-4.464a.893.893,0,0,1,.892-1.548l7.744,4.462a.893.893,0,0,1-.447,1.668ZM88.208,53.938a.894.894,0,0,1-.45-1.666l7.728-4.494a.894.894,0,0,1,.9,1.545l-7.728,4.494A.887.887,0,0,1,88.208,53.938ZM204.852,51.83a.872.872,0,0,1-.445-.12l-7.744-4.462a.893.893,0,1,1,.892-1.548l7.744,4.462a.894.894,0,0,1-.447,1.668ZM103.663,44.951a.894.894,0,0,1-.45-1.666l7.726-4.494a.894.894,0,0,1,.9,1.546l-7.726,4.492A.892.892,0,0,1,103.663,44.951Zm85.7-2.047a.872.872,0,0,1-.445-.12l-7.744-4.462a.893.893,0,1,1,.892-1.548l7.744,4.462a.894.894,0,0,1-.447,1.668Zm-70.248-6.94a.894.894,0,0,1-.451-1.666l7.728-4.494a.894.894,0,1,1,.9,1.545l-7.728,4.494A.887.887,0,0,1,119.115,35.965Zm54.758-1.984a.9.9,0,0,1-.445-.12L165.684,29.4a.893.893,0,0,1,.892-1.548l7.744,4.462a.895.895,0,0,1-.447,1.67Zm-39.3-7a.894.894,0,0,1-.451-1.666l7.728-4.494a.894.894,0,0,1,.9,1.545l-7.728,4.494A.887.887,0,0,1,134.57,26.978Zm23.815-1.925a.882.882,0,0,1-.445-.12l-7.015-4.042a5.661,5.661,0,0,0-.652-.322.894.894,0,0,1,.688-1.65,7.616,7.616,0,0,1,.856.424l7.015,4.042a.893.893,0,0,1-.447,1.668Z" transform="translate(-71.86 -18.85)" fill="#12263f"/>
      </g>
      <g id="Grupo_54892" data-name="Grupo 54892" transform="translate(161.433 264.261)">
        <path id="Trazado_118641" data-name="Trazado 118641" d="M160.7,199.046a.893.893,0,0,1-.191-1.766,5.678,5.678,0,0,0,1.579-.6l6.067-3.439a.894.894,0,1,1,.881,1.555l-6.067,3.439a7.462,7.462,0,0,1-2.076.794A.9.9,0,0,1,160.7,199.046Zm-8.2-2.807a.908.908,0,0,1-.454-.123l-7.7-4.546a.894.894,0,1,1,.91-1.539l7.7,4.544a.895.895,0,0,1-.456,1.664Zm23.876-5.74a.893.893,0,0,1-.442-1.671l7.775-4.407a.894.894,0,0,1,.883,1.555l-7.776,4.408A.912.912,0,0,1,176.375,190.5Zm-39.27-3.35a.914.914,0,0,1-.454-.123l-7.7-4.546a.894.894,0,1,1,.91-1.539l7.7,4.544a.895.895,0,0,1-.456,1.664Zm54.822-5.465a.894.894,0,0,1-.443-1.671l7.776-4.407a.894.894,0,1,1,.881,1.555l-7.775,4.407A.9.9,0,0,1,191.927,181.684Zm-70.216-3.625a.913.913,0,0,1-.454-.123l-7.7-4.546a.894.894,0,1,1,.91-1.539l7.7,4.544a.895.895,0,0,1-.456,1.664Zm85.767-5.19a.894.894,0,0,1-.442-1.671l7.776-4.407a.894.894,0,0,1,.881,1.555l-7.776,4.407A.89.89,0,0,1,207.478,172.869Z" transform="translate(-113.123 -166.675)" fill="#12263f"/>
      </g>
      <g id="Grupo_54893" data-name="Grupo 54893" transform="translate(0 183.903)">
        <path id="Trazado_118642" data-name="Trazado 118642" d="M64.9,186.622a.894.894,0,0,1-.4-1.695l8-3.981a.894.894,0,0,1,.8,1.6l-8,3.981A.91.91,0,0,1,64.9,186.622Zm15.5-8.647a.891.891,0,0,1-.738-1.394,5.665,5.665,0,0,0,.965-3.186,5.576,5.576,0,0,0-1.577-3.924.894.894,0,0,1,1.28-1.25,7.364,7.364,0,0,1,2.084,5.174,7.443,7.443,0,0,1-1.273,4.188A.9.9,0,0,1,80.4,177.975Zm-8.3-12.918a.89.89,0,0,1-.449-.12l-7.732-4.483a.893.893,0,0,1,.9-1.546l7.733,4.483a.893.893,0,0,1-.449,1.666Zm-15.467-8.965a.885.885,0,0,1-.447-.122l-7.733-4.483a.894.894,0,0,1,.9-1.546l7.733,4.483a.895.895,0,0,1-.45,1.668Zm-15.465-8.967a.883.883,0,0,1-.447-.12l-7.733-4.485a.894.894,0,0,1,.9-1.546l7.732,4.485a.893.893,0,0,1-.449,1.666Zm-15.374-9.1a.893.893,0,0,1-.606-.236,7.484,7.484,0,0,1-1.309-9.3.895.895,0,1,1,1.534.922,5.691,5.691,0,0,0,.987,7.067.893.893,0,0,1-.606,1.55Zm6.083-13.261a.894.894,0,0,1-.443-1.67l2.193-1.253a.894.894,0,1,1,.887,1.552l-2.193,1.253A.887.887,0,0,1,31.877,124.765Z" transform="translate(-22.819 -121.724)" fill="#12263f"/>
      </g>
    </g>
    <g id="Grupo_55006" data-name="Grupo 55006" transform="translate(21.174 27.145)">
      <g id="Grupo_54912" data-name="Grupo 54912" transform="translate(254.186)">
        <g id="Grupo_54911" data-name="Grupo 54911" style="isolation: isolate">
          <g id="Grupo_54906" data-name="Grupo 54906" transform="translate(3.815 23.263)">
            <g id="Grupo_54905" data-name="Grupo 54905" transform="translate(0.002)">
              <g id="Grupo_54896" data-name="Grupo 54896" transform="translate(0 11.104)">
                <path id="Trazado_118644" data-name="Trazado 118644" d="M173.2,49.208l-.011,4.09L165.5,48.857l.018-6.142,6.843,3.953A9.281,9.281,0,0,0,173.2,49.208Z" transform="translate(-165.498 -42.715)" fill="#00223d"/>
              </g>
              <g id="Grupo_54897" data-name="Grupo 54897" transform="translate(0.052 18.509)">
                <path id="Trazado_118645" data-name="Trazado 118645" d="M175.976,49.2l1.04.6L177,55.942l-8.853-5.111a6,6,0,0,1-2.621-3.974l8.6,4.963.012-4.328A6.513,6.513,0,0,0,175.976,49.2Z" transform="translate(-165.527 -46.857)" fill="#00223d"/>
              </g>
              <g id="Grupo_54898" data-name="Grupo 54898" transform="translate(0.021 3.734)">
                <path id="Trazado_118646" data-name="Trazado 118646" d="M172.239,48.517v.1l-6.729-3.886.016-6.142,7.691,4.439-.009,2.86A3.376,3.376,0,0,0,172.239,48.517Z" transform="translate(-165.51 -38.592)" fill="#00223d"/>
              </g>
              <g id="Grupo_54899" data-name="Grupo 54899" transform="translate(0.041)">
                <path id="Trazado_118647" data-name="Trazado 118647" d="M174.164,47.1l.009-3.1-8.652-5,0-.6c.005-1.7,1.21-2.388,2.692-1.534l8.853,5.111-.018,6.144-1.042-.6A2.837,2.837,0,0,0,174.164,47.1Z" transform="translate(-165.521 -36.503)" fill="#00223d"/>
              </g>
              <g id="Grupo_54900" data-name="Grupo 54900" transform="translate(15.381 21.028)">
                <path id="Trazado_118648" data-name="Trazado 118648" d="M174.111,50.268a2.286,2.286,0,0,0,1.816-2l6.843,3.953-.018,6.142L174.1,53.366Z" transform="translate(-174.102 -48.266)" fill="#00223d"/>
              </g>
              <g id="Grupo_54901" data-name="Grupo 54901" transform="translate(15.413 12.613)">
                <path id="Trazado_118649" data-name="Trazado 118649" d="M174.12,45.431l.005-1.872,8.652,4.995L182.76,54.7l-6.729-3.886v-.1A9.116,9.116,0,0,0,174.12,45.431Z" transform="translate(-174.12 -43.559)" fill="#00223d"/>
              </g>
              <g id="Grupo_54902" data-name="Grupo 54902" transform="translate(7.71 11.901)">
                <path id="Trazado_118650" data-name="Trazado 118650" d="M169.811,45.473c.007-1.975,1.269-2.857,2.814-1.963l3.044,1.757a6.524,6.524,0,0,1,2.794,5.2v.206c-.007,1.975-1.267,2.858-2.814,1.965l-3.044-1.757a6.535,6.535,0,0,1-2.794-5.2Z" transform="translate(-169.811 -43.161)" fill="#00223d"/>
              </g>
              <g id="Grupo_54903" data-name="Grupo 54903" transform="translate(12.485 22.005)">
                <path id="Trazado_118651" data-name="Trazado 118651" d="M174.423,49.777a3.638,3.638,0,0,1-.881-.363l-1.042-.6-.018,6.142,8.854,5.113c1.294.747,2.378.316,2.633-.94l-9.557-5.519Z" transform="translate(-172.482 -48.813)" fill="#00223d"/>
              </g>
              <g id="Grupo_54904" data-name="Grupo 54904" transform="translate(12.532 6.034)">
                <path id="Trazado_118652" data-name="Trazado 118652" d="M181.378,44.99a5.9,5.9,0,0,1,2.674,4.632l0,.6-9.614-5.551-.007,2.606a5.412,5.412,0,0,0-.881-.656l-1.04-.6.016-6.142Z" transform="translate(-172.508 -39.879)" fill="#00223d"/>
              </g>
            </g>
          </g>
          <g id="Grupo_54910" data-name="Grupo 54910">
            <g id="Grupo_54907" data-name="Grupo 54907" transform="translate(0 1.533)">
              <path id="Trazado_118653" data-name="Trazado 118653" d="M190.339,46.313l-5.123-9.426L163.5,24.348l-.105,37.323-.027,9.616,31.606,18.249.1-34.522Zm.915,16.144,0,1.228-.018,6.144,0,1.228-.018,6.142-.059,1.2c-.256,1.257-1.339,1.688-2.633.94L169.852,68.561a6.258,6.258,0,0,1-2.676-4.006l0-.626.045-15.95c.005-1.7,1.21-2.388,2.692-1.534l8.853,5.111.96.556,8.854,5.111a5.9,5.9,0,0,1,2.674,4.632l0,.6Z" transform="translate(-163.363 -24.348)" fill="#37a3a5"/>
            </g>
            <g id="Grupo_54908" data-name="Grupo 54908" transform="translate(31.607 30.667)">
              <path id="Trazado_118654" data-name="Trazado 118654" d="M181.141,42.177l2.637-1.533-.1,34.52L181.043,76.7Z" transform="translate(-181.043 -40.645)" fill="#00223d"/>
            </g>
            <g id="Grupo_54909" data-name="Grupo 54909" transform="translate(0.133)">
              <path id="Trazado_118655" data-name="Trazado 118655" d="M163.438,25.023l2.637-1.532,21.72,12.54-2.637,1.532Z" transform="translate(-163.438 -23.49)" fill="#00223d"/>
            </g>
            <path id="Trazado_118656" data-name="Trazado 118656" d="M183.347,39.931l-5.123-9.426-2.637,1.532,5.123,9.426,4.729,8.7,2.637-1.533Z" transform="translate(-153.734 -17.965)" fill="#00223d"/>
          </g>
        </g>
      </g>
      <g id="Grupo_54930" data-name="Grupo 54930" transform="translate(15.495 1.913)">
        <g id="Grupo_54917" data-name="Grupo 54917" transform="translate(21.515 39.592)">
          <g id="Grupo_54916" data-name="Grupo 54916" style="isolation: isolate">
            <g id="Grupo_54913" data-name="Grupo 54913" transform="translate(0.001 4.079)">
              <path id="Trazado_118657" data-name="Trazado 118657" d="M41.877,66.708l2.609-1.516,38.53-16.2-2.609,1.516Z" transform="translate(-41.877 -48.99)" fill="#00223d"/>
            </g>
            <g id="Grupo_54914" data-name="Grupo 54914" transform="translate(0 5.595)">
              <path id="Trazado_118658" data-name="Trazado 118658" d="M80.408,49.838a3.892,3.892,0,0,0,.252.592,4.145,4.145,0,0,0,.372.6L42.5,67.23l-.624-1.191Z" transform="translate(-41.877 -49.838)" fill="#00223d"/>
            </g>
            <path id="Trazado_118659" data-name="Trazado 118659" d="M73.8,49.96l0-.059v-.08l0-.08-.007-.082-.005-.055,0-.007,0-.021-.013-.084-.014-.086-.018-.088-.021-.089,0-.016,0-.007-.018-.066-.027-.089-.027-.086-.03-.086-.027-.075,0,0,0-.005-.034-.082-.034-.08-.038-.082-.043-.091-.038-.073-.023-.043-.011-.02-.08-.145-.021-.032c-.023-.041-.05-.08-.075-.12l-.046-.075-.027-.036-.032-.046-.041-.059-.07-.091-.016-.02-.013-.014-.036-.045-.064-.075-.046-.052-.011-.011-.009-.011-.07-.073-.072-.072-.009-.007-.009-.009-.057-.054-.077-.066-.023-.02-.016-.013L72.4,47.15l-.075-.057-.048-.036-.011-.007-.014-.009-.072-.048-.071-.043L72.1,46.94l-.052-.03-.07-.036-.068-.032-.066-.029-.034-.013-.007,0-.027-.011-.068-.023-.07-.018-.07-.016-.045-.007-.007,0-.021,0-.075-.007c-.025,0-.052,0-.079,0s-.057,0-.086.005h-.007l-.007,0a.62.62,0,0,0-.08.011,1.1,1.1,0,0,0-.116.032l-.052.02-4.669,1.965a.664.664,0,0,0-.095.046L63.616,50.3a.6.6,0,0,1,.1-.046l4.669-1.965a.832.832,0,0,1,.248-.063h.007a1.115,1.115,0,0,1,.266.007l.009,0a1.41,1.41,0,0,1,.279.075l.007,0a1.771,1.771,0,0,1,.29.138c.057.032.114.07.172.109l.011.009c.054.038.107.077.159.12l.016.014c.054.043.105.089.157.138l.011.009c.054.052.107.105.159.163l.009.011c.05.054.1.111.147.172l.013.014c.045.055.086.113.127.17l.034.046c.025.036.048.075.073.113l.075.118c.038.064.075.129.111.2l.023.043a4.045,4.045,0,0,1,.189.415v0a3.758,3.758,0,0,1,.129.4l0,.005a3.214,3.214,0,0,1,.073.384v.007a2.449,2.449,0,0,1,.016.358v.007a1.864,1.864,0,0,1-.039.324l0,.005a1.361,1.361,0,0,1-.093.281l0,0a.948.948,0,0,1-.123.191c-.016.02-.03.039-.046.057a.787.787,0,0,1-.184.152h0l2.608-1.516a.844.844,0,0,0,.186-.152.7.7,0,0,0,.045-.057c.02-.025.043-.046.059-.072a1.214,1.214,0,0,0,.064-.116l0,0v0c.014-.03.027-.061.039-.093s.021-.059.03-.091.016-.057.023-.088l0-.009V50.29l.014-.068.013-.082.007-.08.005-.079V49.96Z" transform="translate(-24.754 -46.708)" fill="#00223d"/>
            <g id="Grupo_54915" data-name="Grupo 54915" transform="translate(38.374 1.517)">
              <path id="Trazado_118660" data-name="Trazado 118660" d="M69.7,47.788a3.5,3.5,0,0,1,1.273,1.4l.023.043c.61,1.164.531,2.345-.175,2.642l-4.668,1.965a1.265,1.265,0,0,1-1.108-.164,3.2,3.2,0,0,1-.924-.851,3.971,3.971,0,0,1-.349-.552l-.023-.045a3.891,3.891,0,0,1-.252-.592c-.311-.946-.159-1.8.427-2.045L68.6,47.625A1.255,1.255,0,0,1,69.7,47.788Z" transform="translate(-63.343 -47.557)" fill="#00223d"/>
            </g>
          </g>
        </g>
        <circle id="Elipse_4004" data-name="Elipse 4004" cx="20.586" cy="20.586" r="20.586" transform="translate(36.829 17.983) rotate(-25.898)" fill="#37a3a5"/>
        <g id="Grupo_54918" data-name="Grupo 54918" transform="translate(79.43 26.702)">
          <path id="Trazado_118661" data-name="Trazado 118661" d="M75.352,44.9a1.121,1.121,0,0,1-.229-.025,1.077,1.077,0,0,1-.824-1.282,15.6,15.6,0,0,0,.356-3.037A1.079,1.079,0,0,1,75.733,39.5l.02,0a1.075,1.075,0,0,1,1.057,1.1A17.79,17.79,0,0,1,76.4,44.05,1.076,1.076,0,0,1,75.352,44.9Z" transform="translate(-74.274 -39.497)" fill="#fff"/>
        </g>
        <g id="Grupo_54919" data-name="Grupo 54919" transform="translate(71.189 11.9)">
          <path id="Trazado_118662" data-name="Trazado 118662" d="M78.225,41.866a1.08,1.08,0,0,1-1-.683,15.639,15.639,0,0,0-3.894-5.71,15.372,15.372,0,0,0-3.1-2.233,1.077,1.077,0,1,1,1.031-1.891,17.517,17.517,0,0,1,3.536,2.546,17.832,17.832,0,0,1,4.433,6.5,1.078,1.078,0,0,1-.608,1.4A1.061,1.061,0,0,1,78.225,41.866Z" transform="translate(-69.664 -31.217)" fill="#fff"/>
        </g>
        <g id="Grupo_54924" data-name="Grupo 54924" transform="translate(2.515 5.347)">
          <g id="Grupo_54923" data-name="Grupo 54923" style="isolation: isolate">
            <g id="Grupo_54920" data-name="Grupo 54920">
              <path id="Trazado_118663" data-name="Trazado 118663" d="M31.249,29.068l2.609-1.516L80.27,30.086,77.661,31.6Z" transform="translate(-31.249 -27.551)" fill="#00223d"/>
            </g>
            <g id="Grupo_54921" data-name="Grupo 54921" transform="translate(46.393 2.552)">
              <path id="Trazado_118664" data-name="Trazado 118664" d="M64.52,29.517a3.725,3.725,0,0,1,1.532,2.025l.014.043c.383,1.2.005,2.133-.844,2.086L59.6,33.366a1.609,1.609,0,0,1-.7-.229,3.542,3.542,0,0,1-1.287-1.432,3.694,3.694,0,0,1-.247-.6l-.014-.043a3.246,3.246,0,0,1-.132-.59c-.109-.9.272-1.534.976-1.5l5.624.309A1.6,1.6,0,0,1,64.52,29.517Z" transform="translate(-57.201 -28.979)" fill="#00223d"/>
            </g>
            <g id="Grupo_54922" data-name="Grupo 54922" transform="translate(0 1.517)">
              <path id="Trazado_118665" data-name="Trazado 118665" d="M77.66,30.933a3.246,3.246,0,0,0,.132.59,3.907,3.907,0,0,0,.261.638L31.64,29.623,31.249,28.4Z" transform="translate(-31.249 -28.4)" fill="#00223d"/>
            </g>
            <path id="Trazado_118666" data-name="Trazado 118666" d="M62.194,31.987l2.61-1.516a1,1,0,0,1-.064.114L62.131,32.1c.021-.038.043-.075.063-.116Z" transform="translate(-6.924 -25.252)" fill="#00223d"/>
            <path id="Trazado_118667" data-name="Trazado 118667" d="M68.607,31.692v-.139l0-.08L68.6,31.4l0,0v0l-.009-.084-.013-.084-.014-.086-.011-.055,0-.011,0-.021-.021-.089L68.5,30.87l-.027-.091-.013-.041-.014-.043-.016-.05-.03-.088-.03-.082-.034-.082-.007-.018-.005-.009-.021-.052-.038-.082-.041-.086-.043-.084,0,0,0-.007c-.027-.05-.055-.1-.084-.148a.9.9,0,0,0-.055-.088l-.05-.082-.032-.05c-.032-.046-.064-.093-.1-.138l-.034-.045-.013-.016-.025-.034-.066-.08-.064-.077-.041-.046-.009-.009-.016-.018-.07-.073-.073-.072-.055-.052-.007-.007-.013-.011-.075-.066-.077-.063-.063-.046-.005,0-.005-.005-.073-.052L67,28.721l-.07-.043-.016-.009-.052-.029-.068-.036-.052-.023-.007,0-.009-.005-.066-.027-.068-.027-.025-.007-.013,0-.03-.011-.068-.02-.068-.014h0l0,0-.073-.011c-.025,0-.052-.007-.077-.009h-.02l-5.624-.309c-.021,0-.043,0-.064,0s-.059,0-.088,0a.9.9,0,0,0-.1.014l-.016,0-.018.005c-.029.007-.055.014-.082.023a.737.737,0,0,0-.138.063L57.477,29.76a.816.816,0,0,1,.22-.086l.018,0a.9.9,0,0,1,.263-.021l5.624.309a.939.939,0,0,1,.172.021h0a1.563,1.563,0,0,1,.168.045l.013,0a1.609,1.609,0,0,1,.166.066l.009,0c.057.025.114.055.172.088a2.574,2.574,0,0,1,.236.157l.005,0a2.7,2.7,0,0,1,.225.186l.009.007c.072.068.143.139.213.215l.009.011c.068.073.134.154.2.236l.013.016c.055.075.111.154.163.232l.052.082c.048.079.1.159.141.243l0,.005c.052.1.1.2.143.3l0,.009a3.255,3.255,0,0,1,.118.32l.014.043a3.336,3.336,0,0,1,.089.334l0,.011a2.536,2.536,0,0,1,.048.315v0a2.345,2.345,0,0,1,.009.293v.007a1.737,1.737,0,0,1-.029.265l0,.009a1.3,1.3,0,0,1-.063.232l0,.005a1.065,1.065,0,0,1-.189.324c-.016.018-.029.038-.045.054a.788.788,0,0,1-.163.125l2.61-1.516a.84.84,0,0,0,.163-.125.655.655,0,0,0,.043-.055.818.818,0,0,0,.084-.1l0,0c.021-.036.039-.075.059-.113l.009-.005c.014-.032.029-.064.041-.1l0,0,0-.005a.632.632,0,0,0,.027-.082c.009-.029.016-.057.023-.086l.013-.064,0-.009,0-.011.013-.082.007-.079.005-.08,0-.013Z" transform="translate(-10.59 -27.095)" fill="#00223d"/>
          </g>
        </g>
        <g id="Grupo_54929" data-name="Grupo 54929" transform="translate(0 32.853)">
          <g id="Grupo_54928" data-name="Grupo 54928" style="isolation: isolate">
            <g id="Grupo_54925" data-name="Grupo 54925" transform="translate(0 2.641)">
              <path id="Trazado_118668" data-name="Trazado 118668" d="M29.842,52.836l2.609-1.516,42.917-6.9-2.609,1.516Z" transform="translate(-29.842 -44.416)" fill="#00223d"/>
            </g>
            <g id="Grupo_54926" data-name="Grupo 54926" transform="translate(42.846 1.516)">
              <path id="Trazado_118669" data-name="Trazado 118669" d="M60.7,44.016a3.632,3.632,0,0,1,1.419,1.713l.02.043c.5,1.192.27,2.263-.517,2.388l-5.2.838a1.416,1.416,0,0,1-.912-.218,3.381,3.381,0,0,1-1.117-1.132,4.06,4.06,0,0,1-.3-.581l-.018-.043a3.5,3.5,0,0,1-.193-.6c-.215-.935.055-1.688.708-1.791l5.2-.838A1.414,1.414,0,0,1,60.7,44.016Z" transform="translate(-53.81 -43.786)" fill="#00223d"/>
            </g>
            <g id="Grupo_54927" data-name="Grupo 54927" transform="translate(0 4.158)">
              <path id="Trazado_118670" data-name="Trazado 118670" d="M72.76,45.264a3.5,3.5,0,0,0,.193.6,4.206,4.206,0,0,0,.32.624l-42.918,6.9-.513-1.221Z" transform="translate(-29.842 -45.264)" fill="#00223d"/>
            </g>
            <path id="Trazado_118671" data-name="Trazado 118671" d="M64.8,46.05l0-.029v-.011l0-.041-.007-.08-.009-.084-.013-.084-.007-.045,0-.009-.005-.032-.018-.088-.021-.088-.023-.091-.018-.059,0-.009-.005-.021-.029-.088L64.6,45.1l-.032-.082-.032-.084-.007-.014-.018-.043-.029-.068-.039-.082-.041-.086-.018-.036-.009-.016-.021-.045c-.027-.05-.055-.1-.084-.148l-.021-.036-.055-.086c-.02-.032-.039-.064-.059-.095l-.05-.072-.029-.039-.023-.034-.07-.091-.064-.079-.007-.009-.005-.005-.052-.061-.066-.073-.066-.07,0,0,0,0-.073-.072-.075-.07-.039-.036L63.5,43.46l-.021-.02-.077-.063-.075-.057-.02-.014L63.3,43.3l-.043-.03-.072-.048-.07-.043-.016-.009-.054-.03-.068-.034-.068-.032-.041-.018-.007,0-.02-.007-.066-.025L62.7,43l-.07-.02h-.005l0,0-.061-.013-.073-.013-.075-.007-.011,0H62.4l-.061,0c-.03,0-.059,0-.088,0l-.064.009-5.2.838-.034.005a.963.963,0,0,0-.114.032h-.005a.814.814,0,0,0-.113.054l-.023.011-2.608,1.516a.862.862,0,0,1,.136-.064h0a.8.8,0,0,1,.15-.038l5.2-.838a1.055,1.055,0,0,1,.213-.011l.009,0a1.206,1.206,0,0,1,.222.032l0,0a1.686,1.686,0,0,1,.227.075l.009,0a2.1,2.1,0,0,1,.229.114c.068.039.134.082.2.13l.011.007c.064.048.129.1.193.154l.013.011c.064.055.129.116.191.179v0c.064.064.125.132.186.2l.005.007c.055.066.111.138.163.211l.029.039c.038.054.075.109.111.166l.054.086c.045.075.088.15.129.229l.007.016c.046.088.088.179.127.272l.02.043c.054.129.1.254.136.377l0,.009a3.118,3.118,0,0,1,.084.358l0,.009a2.513,2.513,0,0,1,.038.336l0,.009a2.472,2.472,0,0,1-.009.307l0,.011a1.62,1.62,0,0,1-.054.277v0a1.135,1.135,0,0,1-.093.229l-.016.029a.867.867,0,0,1-.1.138.5.5,0,0,1-.046.057.8.8,0,0,1-.172.138l2.61-1.516a.841.841,0,0,0,.172-.138c.016-.018.03-.038.046-.057s.048-.054.07-.086l.029-.052.016-.029.02-.036c.014-.032.029-.064.041-.1s.021-.061.03-.093l0,0v0l.021-.08.016-.082.013-.084,0-.03v-.011l.005-.038,0-.08,0-.08Z" transform="translate(-10.747 -42.938)" fill="#00223d"/>
          </g>
        </g>
      </g>
      <g id="Grupo_54935" data-name="Grupo 54935" transform="translate(29.559 224.254)">
        <g id="Grupo_54934" data-name="Grupo 54934">
          <g id="Grupo_54933" data-name="Grupo 54933">
            <path id="Trazado_118672" data-name="Trazado 118672" d="M68.237,164.346,42.126,149.255a1.74,1.74,0,0,0-1.632-.193h0L38.12,150.39l1.462.454c0,.045-.005.088-.005.132v52.77a5.855,5.855,0,0,0,2.53,4.643l25.816,14.9-.4,1.65,2.576-1.382-.021-.032a2.189,2.189,0,0,0,.658-1.77v-52.77A5.825,5.825,0,0,0,68.237,164.346Z" transform="translate(-37.385 -148.935)" fill="#00223d"/>
            <g id="Grupo_54932" data-name="Grupo 54932" transform="translate(0 1.249)">
              <g id="Grupo_54931" data-name="Grupo 54931">
                <path id="Trazado_118673" data-name="Trazado 118673" d="M66.306,224.178,40.2,209.086a5.82,5.82,0,0,1-2.492-4.641v-52.77c0-1.757,1.078-2.528,2.474-1.721l26.15,15.091a5.857,5.857,0,0,1,2.538,4.641v52.77C68.872,224.214,67.7,224.984,66.306,224.178Z" transform="translate(-37.709 -149.634)" fill="url(#linear-gradient)"/>
                <path id="Trazado_118674" data-name="Trazado 118674" d="M65.471,212.152,38.935,196.846V152.121l26.537,15.306Z" transform="translate(-36.744 -147.675)" fill="#21587b"/>
                <path id="Trazado_118675" data-name="Trazado 118675" d="M53.553,160.174l-9.6-5.551a1.167,1.167,0,0,1-.522-.924v-.013c0-.34.2-.476.5-.306l9.646,5.551a1.22,1.22,0,0,1,.568.924v.013C54.141,160.208,53.848,160.344,53.553,160.174Z" transform="translate(-33.204 -146.74)" fill="#00223d"/>
                <path id="Trazado_118676" data-name="Trazado 118676" d="M48.256,188.85l-1.528-.858a3.617,3.617,0,0,1-1.664-2.8v-1.707c0-1.028.742-1.443,1.638-.926l1.548.86a3.641,3.641,0,0,1,1.684,2.8v1.707C49.933,188.953,49.151,189.368,48.256,188.85Z" transform="translate(-31.916 -123.875)" fill="#00223d"/>
              </g>
            </g>
          </g>
        </g>
      </g>
      <g id="Grupo_54941" data-name="Grupo 54941" transform="translate(0 135.272)">
        <g id="Grupo_54938" data-name="Grupo 54938">
          <g id="Grupo_54937" data-name="Grupo 54937">
            <g id="Grupo_54936" data-name="Grupo 54936">
              <path id="Trazado_118677" data-name="Trazado 118677" d="M54.8,126.054c-.127-8.493-7.49-19.427-16.452-24.427-4.625-2.581-8.772-3.073-11.684-1.775h0a6.872,6.872,0,0,0-1.192.683l-2,1.144.939-.191a9.22,9.22,0,0,0-2.045,6.464c.118,8.49,7.481,19.423,16.443,24.423.429.238.851.452,1.271.656l-.007.005,6,8.157-.892,2.889,2.117-1.225,4.19-9.246-.007,0C53.606,132.2,54.851,129.636,54.8,126.054ZM31.38,115.941a5.175,5.175,0,0,1-2.6-3.867c-.025-1.346,1.11-1.791,2.533-1a5.185,5.185,0,0,1,2.6,3.867C33.931,116.284,32.8,116.733,31.38,115.941Zm7.238,4.044a5.211,5.211,0,0,1-2.6-3.867c-.025-1.348,1.112-1.8,2.533-1.01a5.211,5.211,0,0,1,2.6,3.867C41.177,120.323,40.04,120.777,38.619,119.985Zm7.245,4.038a5.192,5.192,0,0,1-2.608-3.872c-.018-1.343,1.11-1.791,2.533-1a5.211,5.211,0,0,1,2.608,3.872C48.413,124.366,47.278,124.81,45.864,124.023Z" transform="translate(-20.241 -99.16)" fill="#00223d"/>
              <path id="Trazado_118678" data-name="Trazado 118678" d="M30.2,116.628c1.421.792,2.549.341,2.533-1a5.2,5.2,0,0,0-2.6-3.867c-1.423-.792-2.558-.347-2.533,1A5.176,5.176,0,0,0,30.2,116.628Zm7.236,4.042c1.421.794,2.558.338,2.533-1.008a5.214,5.214,0,0,0-2.6-3.869c-1.421-.792-2.558-.336-2.533,1.01A5.208,5.208,0,0,0,37.435,120.67Zm4.637.166a5.2,5.2,0,0,0,2.608,3.872c1.414.788,2.549.343,2.533-1a5.211,5.211,0,0,0-2.608-3.872C43.182,119.045,42.054,119.5,42.072,120.836Zm11.545,5.9c.05,3.582-1.194,6.146-3.323,7.553l.007.005-4.19,9.244-7.228-9.821.007-.005c-.42-.2-.84-.418-1.271-.656-8.962-5-16.325-15.933-16.443-24.421s7.036-11.321,15.989-6.327S53.491,118.247,53.617,126.74Z" transform="translate(-21.174 -98.62)" fill="#37a3a5"/>
              <path id="Trazado_118679" data-name="Trazado 118679" d="M38.005,115.072c.016,1.343-1.119,1.788-2.533,1a5.2,5.2,0,0,1-2.608-3.872c-.018-1.341,1.11-1.791,2.533-1A5.211,5.211,0,0,1,38.005,115.072Z" transform="translate(-11.966 -89.984)" fill="#ffcd02"/>
              <path id="Trazado_118680" data-name="Trazado 118680" d="M33.949,112.806c.025,1.346-1.112,1.8-2.533,1.008a5.208,5.208,0,0,1-2.6-3.867c-.025-1.346,1.112-1.8,2.533-1.01A5.214,5.214,0,0,1,33.949,112.806Z" transform="translate(-15.156 -91.765)" fill="#ffcd02"/>
              <path id="Trazado_118681" data-name="Trazado 118681" d="M29.9,110.549c.016,1.343-1.112,1.793-2.533,1a5.176,5.176,0,0,1-2.6-3.868c-.025-1.346,1.11-1.791,2.533-1A5.2,5.2,0,0,1,29.9,110.549Z" transform="translate(-18.344 -93.543)" fill="#ffcd02"/>
            </g>
          </g>
        </g>
        <g id="Grupo_54940" data-name="Grupo 54940" transform="translate(0.877 23.078)">
          <g id="Grupo_54939" data-name="Grupo 54939">
            <path id="Trazado_118682" data-name="Trazado 118682" d="M38.862,125.825c-.064-4.344-3.831-9.936-8.415-12.492-2.365-1.321-4.487-1.573-5.974-.908h0a3.473,3.473,0,0,0-.61.349l-1.024.586.479-.1a4.71,4.71,0,0,0-1.046,3.305c.061,4.34,3.826,9.932,8.409,12.49.22.122.434.231.651.334l-.005,0,3.071,4.172-.456,1.477,1.082-.626,2.143-4.728,0,0A4.288,4.288,0,0,0,38.862,125.825Zm-11.977-5.172a2.652,2.652,0,0,1-1.33-1.979c-.013-.688.568-.915,1.3-.511a2.66,2.66,0,0,1,1.33,1.979C28.188,120.828,27.612,121.057,26.884,120.653Zm3.7,2.067a2.666,2.666,0,0,1-1.33-1.977c-.013-.688.568-.921,1.3-.517a2.669,2.669,0,0,1,1.33,1.977C31.893,122.893,31.312,123.125,30.585,122.719Zm3.706,2.065a2.653,2.653,0,0,1-1.334-1.979c-.009-.686.567-.917,1.294-.511a2.667,2.667,0,0,1,1.335,1.979C35.6,124.959,35.015,125.188,34.291,124.784Z" transform="translate(-21.188 -112.07)" fill="#eceff0"/>
            <path id="Trazado_118683" data-name="Trazado 118683" d="M26.279,121c.726.406,1.3.175,1.294-.511a2.652,2.652,0,0,0-1.33-1.977c-.728-.406-1.309-.177-1.294.511A2.649,2.649,0,0,0,26.279,121Zm3.7,2.068c.728.4,1.309.172,1.3-.517a2.666,2.666,0,0,0-1.33-1.977c-.728-.406-1.309-.173-1.3.515A2.669,2.669,0,0,0,29.98,123.071Zm2.37.084a2.662,2.662,0,0,0,1.335,1.981c.722.4,1.3.175,1.294-.511a2.666,2.666,0,0,0-1.334-1.981C32.919,122.24,32.341,122.468,32.35,123.155Zm5.9,3.019a4.28,4.28,0,0,1-1.7,3.863l.005,0-2.143,4.728-3.7-5.023,0,0c-.215-.105-.429-.215-.649-.336-4.584-2.556-8.348-8.148-8.409-12.489s3.6-5.79,8.177-3.236S38.191,121.83,38.255,126.174Z" transform="translate(-21.665 -111.793)" fill="#fff"/>
            <path id="Trazado_118684" data-name="Trazado 118684" d="M30.272,120.208c.009.686-.572.913-1.294.511a2.662,2.662,0,0,1-1.335-1.981c-.009-.686.568-.915,1.3-.511A2.666,2.666,0,0,1,30.272,120.208Z" transform="translate(-16.956 -107.377)" fill="#34495e"/>
            <path id="Trazado_118685" data-name="Trazado 118685" d="M28.2,119.048c.013.688-.568.921-1.3.517a2.669,2.669,0,0,1-1.33-1.979c-.013-.688.568-.921,1.3-.515A2.666,2.666,0,0,1,28.2,119.048Z" transform="translate(-18.587 -108.287)" fill="#34495e"/>
            <path id="Trazado_118686" data-name="Trazado 118686" d="M26.126,117.895c.009.686-.568.917-1.294.511a2.649,2.649,0,0,1-1.33-1.977c-.014-.688.567-.917,1.294-.511A2.652,2.652,0,0,1,26.126,117.895Z" transform="translate(-20.217 -109.197)" fill="#34495e"/>
          </g>
        </g>
      </g>
      <g id="Grupo_54956" data-name="Grupo 54956" transform="translate(259.312 194.481)">
        <g id="Grupo_54946" data-name="Grupo 54946" transform="translate(0 19.048)">
          <g id="Grupo_54945" data-name="Grupo 54945" transform="translate(0 9.862)">
            <g id="Grupo_54944" data-name="Grupo 54944" style="isolation: isolate">
              <path id="Trazado_118687" data-name="Trazado 118687" d="M191.144,164.136l-1.213-12.524-15.777,9.169,1.213,12.525,2.94,30.412,15.777-9.169Z" transform="translate(-159.989 -145.964)" fill="#00223d"/>
              <g id="Grupo_54942" data-name="Grupo 54942" transform="translate(4.382)">
                <path id="Trazado_118688" data-name="Trazado 118688" d="M168.682,157.621l15.777-9.169,9.782,5.648-15.777,9.169Z" transform="translate(-168.682 -148.453)" fill="url(#linear-gradient)"/>
              </g>
              <g id="Grupo_54943" data-name="Grupo 54943" transform="translate(0 9.169)">
                <path id="Trazado_118689" data-name="Trazado 118689" d="M180.394,159.229l1.213,12.525,2.94,30.412L166.23,191.591l1.368-11.854,3.015-26.155Z" transform="translate(-166.23 -153.581)" fill="#00223d"/>
              </g>
            </g>
          </g>
          <path id="Trazado_118690" data-name="Trazado 118690" d="M191.237,153.826a10.89,10.89,0,1,1-10.89-10.89A10.889,10.889,0,0,1,191.237,153.826Z" transform="translate(-163.689 -142.936)" fill="#00223d"/>
        </g>
        <g id="Grupo_54955" data-name="Grupo 54955" transform="translate(12.042)">
          <path id="Trazado_118691" data-name="Trazado 118691" d="M211.385,143.567c5.958,13.785,3.481,34.792-5.536,46.919-6.795,9.139-15.363,10.628-21.718,4.905a63.735,63.735,0,0,1-6.108-9.714c-8.99-17.8-5.846-35.167,8.286-47.568a52.025,52.025,0,0,1,6.1-4.6C199.622,130.174,207.1,133.652,211.385,143.567Z" transform="translate(-172.966 -132.281)" fill="#37a3a5"/>
          <path id="Trazado_118692" data-name="Trazado 118692" d="M210.272,143.567c5.958,13.785,3.481,34.792-5.536,46.919-6.795,9.139-15.363,10.628-21.718,4.905a22.447,22.447,0,0,1-5.4-7.907c-.254-.588-.493-1.192-.713-1.807-5.02-13.756-2.379-33.5,6.251-45.112a29,29,0,0,1,2.034-2.456,19.73,19.73,0,0,1,6.1-4.6C198.509,130.174,205.988,133.652,210.272,143.567Z" transform="translate(-171.853 -132.281)" fill="#00223d"/>
          <path id="Trazado_118693" data-name="Trazado 118693" d="M195.287,196.109a10.767,10.767,0,0,1-12-2.1,21.3,21.3,0,0,1-5.106-7.5c-.245-.567-.476-1.153-.686-1.739-4.918-13.479-2.242-32.814,6.091-44.021a27.832,27.832,0,0,1,1.954-2.36,18.6,18.6,0,0,1,5.731-4.331c.107-.048.213-.1.318-.141,6.732-2.91,13.288.769,17.1,9.6,5.8,13.424,3.377,33.951-5.4,45.761A20.662,20.662,0,0,1,195.287,196.109Z" transform="translate(-171.339 -131.766)" fill="#eceff0"/>
          <g id="Grupo_54954" data-name="Grupo 54954" transform="translate(3.532 0.838)">
            <g id="Grupo_54947" data-name="Grupo 54947" transform="translate(18.362)">
              <path id="Trazado_118694" data-name="Trazado 118694" d="M199.814,166.35a.587.587,0,0,1-.536-.352l-14.017-32.435a.582.582,0,1,1,1.069-.461l14.019,32.435a.583.583,0,0,1-.535.813Z" transform="translate(-185.213 -132.749)" fill="#00223d"/>
            </g>
            <g id="Grupo_54948" data-name="Grupo 54948" transform="translate(11.613 37.143)">
              <path id="Trazado_118695" data-name="Trazado 118695" d="M182.021,180.75a.583.583,0,0,1-.454-.947l20.941-26.059a.583.583,0,0,1,.908.731l-20.941,26.057A.582.582,0,0,1,182.021,180.75Z" transform="translate(-181.438 -153.527)" fill="#00223d"/>
            </g>
            <g id="Grupo_54949" data-name="Grupo 54949" transform="translate(0 26.55)">
              <path id="Trazado_118696" data-name="Trazado 118696" d="M207.107,156.634a.546.546,0,0,1-.141-.018l-31.583-7.868a.582.582,0,0,1,.282-1.13l31.581,7.868a.582.582,0,0,1-.139,1.148Z" transform="translate(-174.942 -147.601)" fill="#00223d"/>
            </g>
            <g id="Grupo_54953" data-name="Grupo 54953" transform="translate(29.177 30.834)" style="isolation: isolate">
              <g id="Grupo_54950" data-name="Grupo 54950" transform="translate(5.56 0.646)">
                <path id="Trazado_118697" data-name="Trazado 118697" d="M194.374,154.178l2.822-3.819,2.2,5.12-2.822,3.819Z" transform="translate(-194.374 -150.359)" fill="#00223d"/>
              </g>
              <g id="Grupo_54951" data-name="Grupo 54951">
                <path id="Trazado_118698" data-name="Trazado 118698" d="M191.263,153.816,194.085,150l5.561.646-2.822,3.819Z" transform="translate(-191.263 -149.998)" fill="#00223d"/>
              </g>
              <g id="Grupo_54952" data-name="Grupo 54952" transform="translate(0 3.819)">
                <path id="Trazado_118699" data-name="Trazado 118699" d="M196.824,152.78l2.2,5.12-5.561-.646-2.2-5.12Z" transform="translate(-191.263 -152.134)" fill="#00223d"/>
              </g>
            </g>
          </g>
        </g>
      </g>
      <g id="Grupo_54959" data-name="Grupo 54959" transform="translate(144.703 236.409)">
        <g id="Grupo_54957" data-name="Grupo 54957">
          <path id="Trazado_118700" data-name="Trazado 118700" d="M132.745,171.5l-13.67-7.893-13.359-7.714a1.174,1.174,0,0,0-1.092-.041l0-.009-.048.03c-.038.02-.073.043-.109.066l-1.986,1.223,1.45.173-.018,6.151-.055,19.924c.565.894,11.323,17.857,15.108,20.042,3.082,1.781,7.773-.44,10.851-1.616l2.3.307s2.008-1.2,2.016-1.208l.059-19.966.02-6.924A2.931,2.931,0,0,0,132.745,171.5Z" transform="translate(-101.836 -155.735)" fill="#21587b"/>
          <path id="Trazado_118701" data-name="Trazado 118701" d="M131.008,172.2a2.929,2.929,0,0,1,1.466,2.546l-.02,6.924-.057,19.925c-.568.236-11.386,4.744-15.17,2.56S102.684,185,102.119,184.109l.055-19.924.02-6.566a1.19,1.19,0,0,1,1.786-1.026l13.359,7.712Z" transform="translate(-102.119 -155.186)" fill="#00223d"/>
          <path id="Trazado_118702" data-name="Trazado 118702" d="M118.877,199.882a3.241,3.241,0,0,1-1.487-.225c-1.775-1.024-7.624-8.9-13.72-18.447l.059-20.969a1.15,1.15,0,0,1,1.725-.992l21.069,12.165a3.912,3.912,0,0,1,1.956,3.4l-.066,22.795C125.6,198.652,121.565,199.882,118.877,199.882Z" transform="translate(-100.898 -153.089)" fill="url(#linear-gradient)"/>
        </g>
        <g id="Grupo_54958" data-name="Grupo 54958" transform="translate(6.139 13.557)">
          <path id="Trazado_118703" data-name="Trazado 118703" d="M109.969,171.274a3.483,3.483,0,0,1,1.58,2.735c0,.62-.274,1.012-.686,1.1l-.011,3.672-1.807-1.044.011-3.672a3.365,3.365,0,0,1-.678-1.888C108.38,171.171,109.093,170.768,109.969,171.274Z" transform="translate(-103.328 -157.223)" fill="#2c3e50"/>
          <path id="Trazado_118704" data-name="Trazado 118704" d="M108.1,166.515l.011-.052a3.43,3.43,0,0,1,.095-.372l.021-.064a3.265,3.265,0,0,1,.127-.322l.013-.03a2.824,2.824,0,0,1,.179-.325l.03-.041a2.414,2.414,0,0,1,.172-.225c.021-.027.045-.052.068-.077a2.04,2.04,0,0,1,.168-.161c.023-.021.046-.043.072-.063a2.162,2.162,0,0,1,.259-.181h0l-1.223.71a2.3,2.3,0,0,0-.257.181c-.025.02-.048.041-.073.063a2.031,2.031,0,0,0-.166.163q-.035.035-.07.075a2.41,2.41,0,0,0-.172.225l-.029.041-.007.009a3.127,3.127,0,0,0-.168.306l0,.011-.014.032c-.03.068-.061.138-.089.211-.013.036-.023.073-.036.109l-.021.066-.02.059c-.021.075-.043.15-.061.229l-.016.082-.011.052-.016.082c-.013.07-.023.141-.032.213-.005.039-.007.08-.012.122l0,.041-.005.052c-.005.07-.011.139-.012.209s-.005.143-.005.216v.013l-.009,3.141L108,170.6l.009-3.141c0-.17.009-.332.023-.49l.005-.041C108.052,166.787,108.071,166.649,108.1,166.515Z" transform="translate(-104.587 -162.307)" fill="#21587b"/>
          <path id="Trazado_118705" data-name="Trazado 118705" d="M115.043,175.98l0-.086-.005-.114-.005-.12c0-.064-.011-.129-.016-.191l-.007-.093,0-.038c-.011-.107-.023-.216-.038-.325l0-.034-.014-.091c-.009-.068-.018-.136-.029-.206l-.02-.113-.021-.125-.018-.1c-.013-.073-.029-.147-.045-.22l-.018-.093-.007-.03q-.038-.174-.08-.349l-.009-.03-.025-.1c-.02-.075-.038-.148-.059-.222l-.027-.095-.041-.136c-.011-.039-.021-.08-.034-.122-.027-.086-.055-.173-.082-.259l-1.223.71c.043.127.08.254.118.381l.039.136q.046.158.086.316l.027.1c.034.136.066.274.095.409l.02.093c.021.107.043.215.063.322l.021.123c.018.107.034.213.048.318l.013.091c.018.134.032.266.045.4l.007.091c.009.105.016.209.021.313l.005.114c.005.129.007.259.007.386,0,.252-.013.493-.034.728l-.007.063c-.021.215-.052.42-.089.619l-.016.079a5.529,5.529,0,0,1-.143.552l-.032.1a4.926,4.926,0,0,1-.184.474l-.021.052a3.908,3.908,0,0,1-.268.483c-.013.02-.027.038-.039.057a4.126,4.126,0,0,1-.257.34c-.034.039-.068.075-.1.113-.08.084-.163.164-.25.241-.036.03-.07.063-.105.091a3.29,3.29,0,0,1-.384.268l1.221-.71a3.294,3.294,0,0,0,.384-.268c.036-.029.072-.061.107-.093a3.154,3.154,0,0,0,.248-.241c.034-.036.07-.072.1-.111a3.761,3.761,0,0,0,.257-.34c.012-.02.029-.038.041-.057l.009-.013a4.42,4.42,0,0,0,.25-.454l.007-.016.021-.052c.046-.1.091-.2.131-.309.02-.054.036-.109.054-.164l.032-.1c.011-.03.021-.059.03-.088.032-.111.061-.223.088-.34.009-.039.016-.082.025-.125l.016-.079c.007-.041.018-.079.025-.12.018-.1.032-.209.046-.316.007-.061.012-.122.018-.182l.007-.063.007-.075c.009-.1.016-.207.02-.313s.007-.213.009-.32v-.02Q115.048,176.13,115.043,175.98Z" transform="translate(-100.561 -155.937)" fill="#00223d"/>
          <path id="Trazado_118706" data-name="Trazado 118706" d="M110.266,177.342l.011-3.672c-.039-.052-.075-.107-.111-.163l-.064-.1c-.034-.057-.068-.114-.1-.173l-.005-.011c-.041-.075-.077-.152-.113-.229l0-.009c-.036-.077-.066-.156-.1-.234v0c-.03-.08-.055-.159-.079-.24V172.5c-.023-.079-.041-.157-.057-.236l0-.009c-.014-.079-.027-.157-.034-.234l0-.007c-.007-.079-.011-.156-.011-.232a1.692,1.692,0,0,1,.032-.341l0-.007.009,0,.009,0c.05.018.1.038.15.061l.011.005c.052.023.1.052.157.082l1.221-.71-.05-.029-.064-.034-.041-.02-.013-.005-.011-.005-.064-.027-.064-.025-.011,0-.009,0-.045-.014-.064-.018-.03-.007-.014,0-.021-.005-.07-.011-.041,0-.014,0-.014,0a.527.527,0,0,0-.075,0h-.03l-.025,0-.027,0a.8.8,0,0,0-.091.013h0l-.018.005a.762.762,0,0,0-.091.025l-.007,0a1.059,1.059,0,0,0-.122.055h0l-1.221.71h0a.778.778,0,0,0-.173.143.649.649,0,0,0-.043.055.539.539,0,0,0-.057.07.809.809,0,0,0-.061.109l0,.005,0,0c-.013.027-.023.052-.034.08s-.02.055-.029.084-.014.054-.02.08l-.007.034,0,.011-.007.032-.011.077-.009.075,0,.075,0,.077v.005h0v.072l0,.077.007.077v.007l0,.007.005.063.013.079.013.08,0,.013,0,.009.013.061.02.084.021.084,0,.007,0,.005.021.07.025.084.029.08,0,0,0,.007.025.068.032.077.032.075.007.014,0,.009.023.052.039.08.046.093,0,0,.005.011c.021.043.045.084.07.125l.03.048.064.1.039.063c.023.034.046.068.072.1l-.011,3.672,1.807,1.044,1.221-.71Z" transform="translate(-103.328 -157.536)" fill="#2b2b2b"/>
          <path id="Trazado_118707" data-name="Trazado 118707" d="M118.2,176.949a11.507,11.507,0,0,1,.615,3.591c-.011,4.208-2.991,5.906-6.654,3.792a14.569,14.569,0,0,1-6.611-11.45,6.1,6.1,0,0,1,.633-2.871,3.4,3.4,0,0,1,1.559-1.518,4.861,4.861,0,0,1,4.462.6,13.309,13.309,0,0,1,4.451,4.55A15.656,15.656,0,0,1,118.2,176.949Zm-5.115.425c.413-.089.685-.481.686-1.1a3.483,3.483,0,0,0-1.58-2.735c-.876-.506-1.589-.1-1.591.9a3.365,3.365,0,0,0,.678,1.888L111.27,180l1.807,1.044.011-3.672Z" transform="translate(-105.553 -159.487)" fill="#37a3a5"/>
          <path id="Trazado_118708" data-name="Trazado 118708" d="M116.678,175.571l.005.013q.185.4.347.8l.021.054c.107.273.209.549.3.826l1.223-.71-.029-.086c-.038-.113-.077-.223-.118-.336s-.08-.218-.122-.325l-.032-.079-.021-.054-.075-.188c-.045-.105-.089-.209-.136-.315s-.089-.2-.134-.3l-.005-.013-.005-.011c-.054-.113-.107-.225-.163-.336-.064-.129-.131-.259-.2-.386l-.029-.052c-.023-.041-.046-.082-.07-.125-.068-.125-.136-.25-.207-.372s-.132-.225-.2-.336c-.127-.2-.257-.408-.393-.606l-.038-.054c-.038-.055-.077-.107-.114-.163-.075-.1-.147-.211-.223-.313-.046-.063-.095-.123-.141-.186l-.07-.093-.066-.084c-.084-.107-.17-.213-.256-.318l-.141-.163-.054-.063-.059-.07c-.084-.1-.17-.191-.257-.286-.059-.064-.12-.127-.181-.189l-.048-.05-.041-.043c-.093-.095-.188-.188-.282-.279-.066-.064-.134-.127-.2-.188l-.05-.046-.039-.036c-.1-.089-.2-.175-.295-.259-.072-.061-.145-.118-.216-.177l-.045-.036-.036-.029c-.095-.075-.193-.15-.291-.222s-.179-.131-.27-.193l-.011-.007-.005,0c-.095-.064-.188-.127-.282-.188s-.186-.114-.279-.17l-.066-.038c-.07-.041-.141-.08-.211-.12-.091-.048-.181-.095-.272-.139-.041-.021-.082-.039-.123-.059l-.055-.025-.088-.043c-.089-.039-.179-.077-.266-.113l-.222-.084-.025-.009-.02-.007c-.089-.03-.179-.061-.266-.088s-.182-.052-.272-.073l-.023-.007-.032-.007c-.073-.016-.148-.034-.22-.048-.1-.018-.191-.034-.284-.046l-.036,0-.05-.005c-.07-.009-.141-.018-.211-.021-.1-.007-.2-.011-.3-.011h-.014c-.114,0-.227.005-.338.014-.038,0-.075.013-.113.016s-.093.013-.139.021-.086.009-.127.018-.1.029-.154.041c-.075.018-.148.038-.222.061-.029.009-.059.013-.088.023-.1.034-.2.075-.293.118s-.173.086-.256.134l-1.223.71q.126-.072.257-.134a3.336,3.336,0,0,1,.381-.141c.072-.023.147-.043.222-.061a2.775,2.775,0,0,1,.281-.059c.046-.009.093-.014.139-.02a3.762,3.762,0,0,1,.454-.032h.009a4.56,4.56,0,0,1,.511.032l.05.005a5.08,5.08,0,0,1,.54.1l.032.007c.189.046.384.1.581.173l.023.009c.189.07.383.148.577.24l.055.025c.2.095.4.2.606.318s.425.256.633.4l.011.007c.2.139.4.288.6.443l.045.036q.282.225.552.472l.05.047c.177.163.354.334.526.511l.046.048c.17.177.336.358.5.545l.054.063c.157.184.313.374.461.567l.072.091c.123.163.245.331.363.5.039.055.077.107.114.163.148.216.293.436.431.66s.277.47.409.708c.021.043.046.084.07.125C116.422,175.045,116.555,175.307,116.678,175.571Z" transform="translate(-104.701 -159.8)" fill="#00223d"/>
          <path id="Trazado_118709" data-name="Trazado 118709" d="M111.951,164.537a13.22,13.22,0,0,1,5.989,10.376l-.016,5.554a15.656,15.656,0,0,0-1.545-3.309l.009-3.141a9.806,9.806,0,0,0-4.442-7.7c-2.458-1.419-4.464-.275-4.471,2.551l-.009,3.141a3.4,3.4,0,0,0-1.559,1.518l.016-5.554C105.934,164.165,108.639,162.624,111.951,164.537Z" transform="translate(-105.274 -163.005)" fill="#00223d"/>
          <path id="Trazado_118710" data-name="Trazado 118710" d="M118.377,174.246c0-.1-.007-.193-.013-.29l-.011-.136-.005-.057-.007-.1c-.009-.1-.021-.195-.034-.293s-.027-.2-.041-.3l0-.011,0-.014q-.021-.139-.048-.279c-.02-.1-.041-.209-.063-.313l-.027-.114-.016-.064c-.011-.046-.02-.091-.03-.136-.027-.107-.055-.213-.084-.32l-.07-.236-.013-.041-.011-.039c-.032-.1-.066-.207-.1-.311s-.07-.206-.107-.307l-.021-.059-.018-.046c-.023-.063-.046-.125-.072-.188-.038-.1-.077-.2-.116-.293l-.091-.213-.016-.034-.016-.041c-.043-.1-.088-.193-.134-.291s-.1-.211-.154-.316l-.023-.048-.032-.063c-.043-.084-.086-.168-.13-.25-.055-.1-.114-.206-.173-.309-.029-.052-.057-.105-.088-.157l-.036-.064c-.052-.088-.109-.17-.163-.257-.08-.132-.161-.265-.247-.393l-.039-.064c-.116-.173-.236-.341-.358-.509l-.021-.029,0,0c-.088-.118-.177-.234-.266-.349-.072-.091-.145-.181-.218-.27l-.009-.011-.005-.007c-.075-.091-.154-.182-.232-.272s-.154-.173-.234-.259l-.036-.038-.039-.041c-.055-.059-.113-.12-.17-.179-.084-.084-.168-.168-.252-.25l-.077-.07-.059-.055c-.043-.041-.086-.08-.129-.12-.088-.079-.177-.157-.266-.232l-.116-.095-.061-.05c-.03-.023-.059-.048-.089-.073-.088-.068-.175-.136-.265-.2-.063-.046-.125-.091-.189-.134l-.036-.027-.034-.025c-.084-.057-.17-.113-.254-.168s-.168-.1-.254-.154l-.059-.034c-.063-.038-.127-.073-.189-.107l-.073-.038-.1-.05-.075-.039-.123-.057-.084-.041-.036-.016c-.08-.036-.159-.07-.24-.1h0l-.011,0c-.077-.03-.154-.061-.231-.088l-.032-.009-.089-.03-.118-.039-.063-.016-.107-.03-.079-.021-.086-.02-.105-.023-.055-.011c-.034-.007-.066-.011-.1-.018s-.08-.013-.12-.02l-.043-.007-.1-.009c-.045-.005-.088-.011-.13-.014l-.036,0c-.03,0-.057,0-.088,0-.052,0-.1-.005-.154-.005l-.041,0c-.023,0-.045,0-.066,0-.064,0-.127,0-.189.009l-.057,0-.041.007c-.095.009-.188.021-.279.039l-.027,0,0,0a2.939,2.939,0,0,0-.383.105l-.034.009-.027.011c-.054.02-.107.043-.159.066-.025.011-.052.02-.077.032-.077.036-.152.075-.225.116l-1.221.711q.11-.064.225-.118c.025-.013.05-.021.077-.032.052-.023.1-.046.159-.066l.061-.02a2.988,2.988,0,0,1,.381-.105l.032-.005c.091-.016.184-.03.279-.039l.1-.009c.063-.005.125-.007.189-.009.036,0,.07,0,.107,0s.1,0,.154.005l.123.005c.043,0,.086.009.129.014s.095.009.143.016l.122.021c.05.007.1.018.154.027.036.007.072.016.105.025.055.013.111.025.166.041l.107.029c.059.018.12.036.181.057l.088.029c.088.029.175.061.265.1l.009,0c.091.038.184.077.275.118l.086.041q.1.046.2.1l.1.05c.088.046.175.093.263.145.2.116.4.245.6.381l.036.027c.184.127.365.265.543.409l.061.048c.173.143.343.291.509.447l.061.055c.17.159.336.327.5.5l.039.041q.26.279.508.576l.009.011q.249.3.486.622l.018.027c.138.188.272.381.4.576.086.129.164.261.247.393.066.107.134.213.2.322.029.052.057.105.088.157.1.184.207.372.3.56l.032.063c.116.231.225.463.329.7l.014.034c.1.231.193.461.281.694l.018.046c.088.24.166.477.24.717l.013.041c.068.231.13.461.184.692l.014.064c.055.236.1.472.139.706l0,.014c.038.236.066.472.086.706l0,.055c.02.234.029.467.029.7l-.016,5.554,1.223-.71.014-5.554C118.382,174.427,118.38,174.335,118.377,174.246Z" transform="translate(-104.494 -163.318)" fill="#21587b"/>
        </g>
      </g>
      <g id="Grupo_55005" data-name="Grupo 55005" transform="translate(51.961 62.672)">
        <g id="Grupo_54995" data-name="Grupo 54995">
          <g id="Grupo_54964" data-name="Grupo 54964" transform="translate(86.111 59.718)">
            <g id="Grupo_54963" data-name="Grupo 54963" style="isolation: isolate">
              <g id="Grupo_54960" data-name="Grupo 54960" transform="translate(0 2.694)">
                <path id="Trazado_118711" data-name="Trazado 118711" d="M98.41,93.46l.008,2.89,80.828,46.972-.008-2.89Z" transform="translate(-98.41 -93.46)" fill="#1d1d1d"/>
              </g>
              <g id="Grupo_54961" data-name="Grupo 54961" transform="translate(80.828 46.972)">
                <path id="Trazado_118712" data-name="Trazado 118712" d="M143.624,120.923l.008,2.89,4.665-2.694-.008-2.89Z" transform="translate(-143.624 -118.229)" fill="#141414"/>
              </g>
              <g id="Grupo_54962" data-name="Grupo 54962">
                <path id="Trazado_118713" data-name="Trazado 118713" d="M98.41,94.647l80.828,46.972,4.665-2.694L103.076,91.954Z" transform="translate(-98.41 -91.954)" fill="#212121"/>
              </g>
            </g>
          </g>
          <g id="Grupo_54989" data-name="Grupo 54989">
            <g id="Grupo_54968" data-name="Grupo 54968" transform="translate(73.466)" style="isolation: isolate">
              <g id="Grupo_54965" data-name="Grupo 54965" transform="translate(0 18.75)">
                <path id="Trazado_118714" data-name="Trazado 118714" d="M91.336,69.037l.01,3.5,32.263,18.749-.01-3.5Z" transform="translate(-91.336 -69.037)" fill="#00223d"/>
              </g>
              <g id="Grupo_54966" data-name="Grupo 54966" transform="translate(32.263 18.749)">
                <path id="Trazado_118715" data-name="Trazado 118715" d="M109.384,87.787l.01,3.5,32.477-18.75-.01-3.5Z" transform="translate(-109.384 -69.036)" fill="#00223d"/>
              </g>
              <g id="Grupo_54967" data-name="Grupo 54967">
                <path id="Trazado_118716" data-name="Trazado 118716" d="M91.336,77.3,123.6,96.048,156.076,77.3,123.813,58.548Z" transform="translate(-91.336 -58.548)" fill="url(#linear-gradient)"/>
              </g>
            </g>
            <g id="Grupo_54972" data-name="Grupo 54972" transform="translate(36.733 21.209)" style="isolation: isolate">
              <g id="Grupo_54969" data-name="Grupo 54969" transform="translate(0.43 18.501)">
                <path id="Trazado_118717" data-name="Trazado 118717" d="M71.029,80.762l.01,3.5,63.882,0-.01-3.5Z" transform="translate(-71.029 -80.762)" fill="#246a99"/>
              </g>
              <g id="Grupo_54970" data-name="Grupo 54970" transform="translate(0 18.749)">
                <path id="Trazado_118718" data-name="Trazado 118718" d="M70.788,80.9l.01,3.5,32.263,18.749-.01-3.5Z" transform="translate(-70.788 -80.9)" fill="#00223d"/>
              </g>
              <g id="Grupo_54971" data-name="Grupo 54971" transform="translate(32.263 18.749)">
                <path id="Trazado_118719" data-name="Trazado 118719" d="M88.836,99.649l.01,3.5L121.32,84.4l-.01-3.5Z" transform="translate(-88.836 -80.9)" fill="#00223d"/>
              </g>
              <path id="Trazado_118720" data-name="Trazado 118720" d="M71.218,88.913l32.044-18.5,31.839,18.5.425.247L103.051,107.91,70.788,89.161Z" transform="translate(-70.788 -70.412)" fill="url(#linear-gradient)"/>
            </g>
            <g id="Grupo_54976" data-name="Grupo 54976" transform="translate(0 42.417)" style="isolation: isolate">
              <g id="Grupo_54973" data-name="Grupo 54973" transform="translate(0 18.749)">
                <path id="Trazado_118721" data-name="Trazado 118721" d="M50.241,92.764l.01,3.5L82.513,115.01l-.01-3.5Z" transform="translate(-50.241 -92.764)" fill="#00223d"/>
              </g>
              <g id="Grupo_54974" data-name="Grupo 54974" transform="translate(32.263 18.749)">
                <path id="Trazado_118722" data-name="Trazado 118722" d="M68.288,111.513l.01,3.5,32.474-18.749-.01-3.5Z" transform="translate(-68.288 -92.764)" fill="#00223d"/>
              </g>
              <g id="Grupo_54975" data-name="Grupo 54975">
                <path id="Trazado_118723" data-name="Trazado 118723" d="M50.241,101.025,82.5,119.774l32.474-18.749L82.714,82.276Z" transform="translate(-50.241 -82.276)" fill="url(#linear-gradient)"/>
              </g>
            </g>
            <g id="Grupo_54980" data-name="Grupo 54980" transform="translate(181.443 62.75)" style="isolation: isolate">
              <g id="Grupo_54977" data-name="Grupo 54977" transform="translate(0 18.75)">
                <path id="Trazado_118724" data-name="Trazado 118724" d="M151.738,104.138l.01,3.5,32.263,18.749-.01-3.5Z" transform="translate(-151.738 -104.138)" fill="#00223d"/>
              </g>
              <g id="Grupo_54978" data-name="Grupo 54978" transform="translate(32.263 18.749)">
                <path id="Trazado_118725" data-name="Trazado 118725" d="M169.785,122.888l.01,3.5,32.477-18.75-.01-3.5Z" transform="translate(-169.785 -104.138)" fill="#00223d"/>
              </g>
              <g id="Grupo_54979" data-name="Grupo 54979">
                <path id="Trazado_118726" data-name="Trazado 118726" d="M151.738,112.4,184,131.149l32.477-18.75L184.214,93.65Z" transform="translate(-151.738 -93.65)" fill="url(#linear-gradient)"/>
              </g>
            </g>
            <g id="Grupo_54984" data-name="Grupo 54984" transform="translate(144.71 83.959)" style="isolation: isolate">
              <g id="Grupo_54981" data-name="Grupo 54981" transform="translate(0.43 18.501)">
                <path id="Trazado_118727" data-name="Trazado 118727" d="M131.43,115.863l.01,3.5h63.88l-.01-3.5Z" transform="translate(-131.43 -115.863)" fill="#246a99"/>
              </g>
              <g id="Grupo_54982" data-name="Grupo 54982" transform="translate(0 18.749)">
                <path id="Trazado_118728" data-name="Trazado 118728" d="M131.19,116l.01,3.5,32.263,18.749-.01-3.5Z" transform="translate(-131.19 -116.002)" fill="#00223d"/>
              </g>
              <g id="Grupo_54983" data-name="Grupo 54983" transform="translate(32.263 18.749)">
                <path id="Trazado_118729" data-name="Trazado 118729" d="M149.237,134.751l.01,3.5L181.721,119.5l-.01-3.5Z" transform="translate(-149.237 -116.002)" fill="#00223d"/>
              </g>
              <path id="Trazado_118730" data-name="Trazado 118730" d="M131.62,124.014l32.044-18.5,31.836,18.5.427.248-32.474,18.749L131.19,124.263Z" transform="translate(-131.19 -105.514)" fill="url(#linear-gradient)"/>
            </g>
            <g id="Grupo_54988" data-name="Grupo 54988" transform="translate(107.977 105.167)" style="isolation: isolate">
              <g id="Grupo_54985" data-name="Grupo 54985" transform="translate(0 18.749)">
                <path id="Trazado_118731" data-name="Trazado 118731" d="M110.642,127.865l.01,3.5,32.263,18.749-.01-3.5Z" transform="translate(-110.642 -127.865)" fill="#00223d"/>
              </g>
              <g id="Grupo_54986" data-name="Grupo 54986" transform="translate(32.263 18.749)">
                <path id="Trazado_118732" data-name="Trazado 118732" d="M128.689,146.614l.01,3.5,32.474-18.749-.01-3.5Z" transform="translate(-128.689 -127.865)" fill="#00223d"/>
              </g>
              <g id="Grupo_54987" data-name="Grupo 54987">
                <path id="Trazado_118733" data-name="Trazado 118733" d="M110.642,136.126,142.9,154.875l32.474-18.749-32.263-18.749Z" transform="translate(-110.642 -117.377)" fill="url(#linear-gradient)"/>
              </g>
            </g>
          </g>
          <g id="Grupo_54994" data-name="Grupo 54994" transform="translate(59.859 16.85)">
            <g id="Grupo_54991" data-name="Grupo 54991" transform="translate(105.978 6.776)">
              <path id="Trazado_118734" data-name="Trazado 118734" d="M150.372,78.287l-.166-.072c-.147-.061-.293-.114-.438-.166l-.105-.039c-.181-.063-.358-.116-.533-.164-.1-.029-.206-.052-.307-.077-.048-.011-.1-.025-.145-.034-.15-.034-.3-.061-.447-.084l-.014,0q-.2-.03-.4-.048c-.045-.005-.088-.007-.131-.009-.082-.007-.163-.011-.243-.014-.195-.007-.386-.005-.572.005-.034,0-.066.005-.1.009-.152.011-.3.029-.445.052l-.138.021c-.166.032-.333.068-.493.114l-.021.007a4.683,4.683,0,0,0-.445.157c-.041.016-.084.036-.125.054q-.188.08-.365.177l-.118.063h0l9.995-5.808.054-.03c.021-.013.045-.02.064-.032q.177-.1.365-.177l.068-.034c.018-.007.039-.013.059-.021.143-.057.291-.111.443-.156l.02-.007h0a4.917,4.917,0,0,1,.492-.114c.02,0,.039-.011.059-.013s.052-.005.079-.011c.147-.021.295-.039.445-.052.025,0,.048-.007.072-.007a.134.134,0,0,1,.027,0,5.535,5.535,0,0,1,.572-.005c.018,0,.036,0,.055,0,.063,0,.125.009.188.013.043,0,.086.005.13.011.132.013.268.027.4.048l.013,0h0c.147.023.295.05.445.082.048.011.1.025.145.036.093.021.186.043.279.068l.029.009c.175.048.352.1.533.164.034.011.07.027.105.038.145.052.291.107.44.168l.057.021c.036.014.072.034.107.05q.233.1.472.215c.059.029.118.057.177.088.207.1.417.215.627.336.261.152.52.316.778.488.043.029.088.057.13.088.245.166.488.343.728.527.046.036.091.072.138.109.243.191.484.388.722.6l.061.055c.227.2.452.413.674.629.023.021.046.041.068.063l.041.043c.17.168.338.34.5.517l.021.025c.159.168.315.341.468.517l.043.048c.02.021.036.045.055.066q.373.432.726.885l.021.025.052.072q.282.367.551.745l.054.075.025.036q.255.367.5.745l.048.072c.023.036.045.073.068.111.13.206.257.415.383.626.02.034.041.066.059.1l.021.039q.212.362.409.733l.034.059c.021.041.041.082.063.123.1.2.2.4.3.594.02.041.043.082.063.123l.034.075c.12.25.236.5.347.758l.011.025.034.08c.1.231.193.461.282.694.014.036.032.073.046.111l.034.095q.156.41.295.822l.005.014.014.05c.095.284.181.567.261.851.009.036.021.072.032.105l.014.059q.134.493.241.987c.007.029.016.059.021.088s.016.086.025.129c.027.129.05.257.075.386.016.089.032.179.046.268.021.134.041.266.061.4.009.061.02.123.029.186l0,.048c.036.284.064.567.084.847,0,.061.007.12.011.179.016.288.029.576.027.858-.009,3.114-1.108,5.306-2.88,6.335l-10,5.808c1.773-1.03,2.873-3.221,2.882-6.335,0-.282-.011-.568-.027-.856l-.011-.181c-.021-.281-.048-.563-.084-.847-.011-.077-.021-.156-.032-.234-.02-.134-.039-.266-.061-.4-.014-.089-.032-.177-.048-.266-.023-.129-.048-.259-.073-.388-.016-.072-.03-.145-.046-.216q-.107-.493-.243-.987c-.014-.055-.03-.109-.046-.164-.08-.282-.166-.567-.259-.849l-.021-.066c-.091-.275-.191-.549-.295-.822-.025-.07-.052-.138-.079-.206-.091-.232-.184-.463-.282-.692l-.045-.105c-.111-.256-.227-.508-.347-.76-.032-.066-.064-.132-.1-.2-.1-.2-.2-.4-.3-.6-.032-.061-.063-.122-.095-.182q-.2-.37-.409-.733c-.027-.046-.054-.091-.082-.138-.123-.211-.25-.418-.381-.626l-.116-.182q-.244-.378-.5-.745l-.08-.111q-.268-.378-.549-.745l-.073-.1c-.236-.3-.479-.6-.726-.883-.034-.039-.066-.079-.1-.116-.152-.175-.309-.349-.467-.517l-.021-.025c-.166-.175-.334-.347-.5-.517-.036-.036-.073-.07-.109-.1-.222-.218-.447-.427-.676-.631l-.061-.054c-.236-.207-.477-.406-.72-.6-.046-.036-.091-.073-.138-.109-.24-.184-.483-.361-.728-.527-.043-.03-.088-.057-.131-.088-.257-.172-.517-.336-.778-.488-.211-.122-.42-.231-.627-.336-.059-.03-.118-.057-.179-.088C150.685,78.425,150.527,78.353,150.372,78.287Z" transform="translate(-141.739 -71.764)" fill="#eceff0"/>
              <g id="Grupo_54990" data-name="Grupo 54990" transform="translate(0 5.806)">
                <path id="Trazado_118735" data-name="Trazado 118735" d="M152.917,76.367c-5.456-3.148-9.891-.622-9.909,5.645s4.389,13.9,9.845,17.051,9.888.62,9.905-5.649S158.369,79.517,152.917,76.367Z" transform="translate(-143.008 -75.012)" fill="#b7b9ba"/>
              </g>
            </g>
            <g id="Grupo_54992" data-name="Grupo 54992" transform="translate(89.165 3.945)">
              <path id="Trazado_118736" data-name="Trazado 118736" d="M164.941,106.01c-.011-.215-.023-.431-.039-.647l-.027-.333c-.02-.215-.041-.427-.066-.644-.011-.1-.021-.206-.036-.309-.018-.15-.041-.3-.063-.452-.032-.225-.064-.451-.1-.676-.025-.152-.054-.3-.08-.456-.039-.218-.082-.438-.127-.658-.036-.173-.073-.349-.113-.524-.032-.147-.064-.293-.1-.438-.045-.193-.093-.384-.143-.576-.038-.145-.073-.29-.113-.434-.064-.231-.129-.461-.2-.692-.027-.088-.05-.173-.077-.261-.1-.316-.2-.635-.3-.951-.156-.467-.325-.931-.5-1.4-.045-.116-.089-.232-.136-.349-.154-.393-.313-.785-.481-1.176-.025-.059-.048-.118-.075-.179q-.282-.646-.59-1.287c-.052-.113-.107-.223-.163-.334q-.249-.509-.511-1.01c-.054-.1-.107-.206-.161-.307-.225-.42-.456-.837-.7-1.248-.045-.077-.091-.154-.138-.231-.211-.359-.429-.713-.651-1.065-.064-.1-.129-.206-.195-.307-.275-.427-.558-.851-.849-1.267-.043-.063-.089-.123-.132-.186q-.456-.644-.933-1.266c-.05-.064-.1-.129-.145-.191-.1-.129-.2-.254-.3-.381-.127-.157-.254-.316-.383-.474-.105-.127-.213-.252-.32-.377-.123-.147-.247-.293-.374-.438-.259-.3-.524-.588-.79-.874l-.041-.045c-.281-.3-.567-.592-.854-.878-.182-.181-.366-.358-.552-.533-.052-.05-.1-.1-.157-.15-.243-.229-.49-.45-.738-.669-.068-.061-.138-.118-.206-.177-.182-.156-.366-.311-.551-.463-.093-.077-.186-.15-.279-.223-.164-.132-.329-.261-.5-.388l-.3-.225c-.164-.122-.329-.241-.5-.358-.1-.07-.2-.141-.3-.209-.179-.122-.359-.241-.54-.358-.086-.055-.172-.114-.259-.17-.266-.168-.533-.331-.8-.486s-.517-.29-.774-.424c-.066-.036-.132-.07-.2-.1-.229-.118-.458-.231-.686-.336l-.082-.039c-.236-.107-.468-.207-.7-.3s-.5-.195-.742-.282c-.061-.021-.122-.046-.182-.068q-.456-.156-.9-.279c-.175-.048-.349-.089-.522-.131-.082-.018-.164-.041-.245-.059-.254-.054-.508-.1-.758-.139l-.027,0c-.229-.036-.456-.063-.679-.082-.075-.007-.148-.011-.223-.016q-.244-.019-.483-.027c-.072,0-.141,0-.213,0-.166,0-.331,0-.5.007l-.17.005c-.211.013-.42.03-.626.055-.045.005-.088.014-.13.02-.168.023-.332.05-.5.082l-.168.032c-.188.041-.374.086-.556.138l-.036.009c-.191.055-.381.12-.565.188-.05.02-.1.039-.15.057-.15.059-.3.123-.443.189l-.114.052c-.188.091-.374.188-.554.293l9.995-5.81.093-.052c.15-.086.306-.164.461-.24l.114-.052c.089-.041.175-.082.265-.12.059-.025.12-.046.179-.07l.15-.057c.182-.068.368-.131.558-.186l.007,0,.038-.009c.181-.052.366-.1.554-.138l.168-.034c.057-.011.114-.025.173-.034.105-.018.215-.032.322-.046.045-.007.088-.014.13-.02.186-.023.372-.041.561-.052l.064,0c.057,0,.114,0,.172-.005.163-.007.327-.009.493-.007.072,0,.143,0,.215,0,.055,0,.109,0,.164,0,.1,0,.211.014.316.021l.223.016c.223.021.451.048.679.082l.027,0,0,0c.249.038.5.084.754.139.082.018.166.041.248.061.157.036.313.072.472.114l.046.014q.448.123.9.279c.061.02.122.046.182.066.245.088.493.182.742.284l.1.036c.2.084.4.173.6.266l.084.039c.227.105.456.218.685.334l.2.105c.256.134.513.274.772.424s.538.318.8.486c.086.055.172.113.257.17.181.116.361.234.54.358.1.068.2.138.3.209.166.116.331.236.5.358.1.075.2.148.3.225q.247.19.493.386c.093.075.186.148.279.225.184.15.368.306.551.463.068.059.138.116.206.175q.373.327.738.669c.054.05.105.1.157.15.161.154.324.306.483.463l.07.072c.288.286.574.577.855.878l.041.045q.4.429.79.874c.025.029.05.055.075.082.1.116.2.236.3.354s.215.252.32.379c.129.156.256.315.383.474.1.127.2.252.3.381l.055.07c.03.039.059.08.089.122q.477.619.933,1.266c.03.041.063.082.093.125l.041.061q.434.625.847,1.267c.027.041.055.079.082.12.039.063.075.125.113.188.223.352.44.706.651,1.065.034.055.07.109.1.166l.036.064c.24.411.47.828.7,1.246.018.034.038.066.055.1.038.07.07.139.105.207.175.336.347.672.511,1.01.034.07.073.139.105.209.021.041.038.084.059.125.2.427.4.858.59,1.289l.018.041c.02.045.038.091.057.138q.249.587.481,1.176c.023.063.052.125.077.189s.038.105.057.159c.175.465.345.93.5,1.4l.009.027c.1.307.2.615.293.924.027.086.05.173.077.261.052.173.1.349.152.524.016.055.029.111.045.168.039.145.075.29.113.433.05.193.1.384.143.576.036.147.068.293.1.44.021.1.048.206.07.307.016.072.027.145.041.216.045.22.088.438.127.658.027.152.055.3.08.454.038.227.072.452.1.678.016.105.036.213.048.318l.016.132c.013.1.023.207.036.311q.035.322.064.644c.009.111.02.222.027.333.016.216.029.433.039.647.005.1.011.195.014.293.013.307.02.615.018.921-.014,5.284-1.881,9-4.889,10.751l-9.995,5.808c3.009-1.748,4.873-5.467,4.889-10.751,0-.306-.007-.611-.018-.921C164.951,106.206,164.946,106.108,164.941,106.01Z" transform="translate(-131.449 -70.181)" fill="#37a3a5"/>
              <path id="Trazado_118737" data-name="Trazado 118737" d="M150.42,75.727c-9.258-5.345-16.786-1.053-16.817,9.584s7.449,23.594,16.708,28.939,16.786,1.055,16.817-9.584S159.678,81.072,150.42,75.727Z" transform="translate(-133.603 -67.623)" fill="#b7b9ba"/>
            </g>
            <g id="Grupo_54993" data-name="Grupo 54993">
              <path id="Trazado_118738" data-name="Trazado 118738" d="M128.864,157.69c-.014-.311-.034-.622-.057-.935-.011-.159-.025-.318-.039-.479-.027-.307-.059-.617-.093-.928-.018-.148-.032-.295-.052-.445-.027-.216-.061-.434-.091-.652q-.067-.485-.147-.972c-.036-.218-.077-.438-.116-.658-.057-.313-.118-.629-.182-.944q-.078-.378-.161-.756c-.046-.211-.095-.422-.145-.631-.066-.277-.136-.554-.207-.831-.054-.207-.105-.415-.163-.622-.091-.332-.186-.667-.284-1-.036-.125-.072-.25-.109-.375-.139-.461-.286-.924-.442-1.385-.025-.075-.052-.15-.077-.223q-.193-.571-.4-1.141c-.05-.141-.1-.284-.157-.425-.129-.341-.259-.683-.4-1.023-.045-.113-.088-.225-.134-.338-.179-.442-.363-.883-.556-1.325-.034-.079-.07-.157-.105-.238q-.244-.552-.5-1.1c-.057-.123-.116-.247-.173-.368q-.287-.6-.586-1.2l-.054-.107q-.327-.646-.67-1.282c-.063-.118-.127-.236-.191-.352q-.276-.507-.563-1.008l-.172-.3q-.367-.63-.747-1.253c-.05-.082-.1-.164-.154-.247-.206-.333-.417-.663-.629-.99-.088-.136-.175-.272-.265-.406q-.3-.453-.606-.9c-.079-.114-.154-.227-.232-.34q-.413-.593-.84-1.173l-.039-.057q-.442-.6-.9-1.183c-.143-.184-.291-.365-.436-.547-.184-.229-.366-.459-.552-.685-.15-.182-.3-.361-.458-.54-.179-.213-.359-.425-.542-.633q-.563-.644-1.141-1.264l-.055-.061q-.609-.646-1.233-1.264-.394-.392-.8-.772c-.075-.07-.148-.143-.222-.213-.352-.329-.708-.649-1.065-.964-.1-.086-.2-.166-.295-.25-.263-.227-.527-.452-.794-.67-.134-.109-.268-.215-.4-.322q-.354-.284-.712-.558c-.143-.109-.288-.218-.433-.325q-.354-.263-.713-.515c-.141-.1-.284-.2-.427-.3q-.386-.265-.778-.517c-.123-.08-.247-.164-.37-.243-.384-.241-.77-.477-1.158-.7-.257-.148-.513-.29-.769-.427l-.22-.118c-.195-.1-.39-.2-.585-.3-.066-.032-.132-.068-.2-.1q-.375-.185-.751-.358c-.041-.02-.082-.036-.125-.055-.209-.095-.418-.186-.627-.275-.08-.032-.159-.064-.238-.1-.147-.059-.291-.118-.436-.173l-.24-.093c-.161-.059-.322-.118-.481-.173-.063-.021-.123-.045-.184-.066-.218-.075-.438-.147-.654-.213l-.12-.036c-.179-.054-.356-.105-.531-.154l-.145-.038c-.325-.088-.649-.168-.969-.236l-.079-.016c-.333-.07-.663-.13-.989-.182l-.011,0c-.275-.041-.545-.075-.815-.1l-.157-.016c-.261-.025-.518-.045-.774-.055-.05,0-.1,0-.15-.005-.206-.009-.411-.013-.615-.013h-.134c-.232,0-.463.011-.69.025-.054,0-.109.007-.161.011q-.271.019-.536.048c-.048.005-.1.009-.145.016-.215.025-.425.055-.635.091-.046.007-.093.016-.139.025-.164.03-.329.063-.49.1-.055.011-.111.023-.164.036-.2.048-.4.1-.6.156l-.048.014q-.268.08-.531.172c-.054.018-.107.038-.161.057-.156.055-.309.114-.463.177l-.107.043c-.182.079-.365.161-.543.247l-.132.066c-.143.072-.282.145-.422.222-.073.041-.148.08-.22.122L167.627,69.6l.132-.075c.027-.016.057-.03.086-.045.139-.077.281-.152.424-.223l.13-.066c.179-.086.361-.168.545-.247l.027-.011c.027-.013.054-.021.08-.032q.228-.094.461-.177l.163-.059c.173-.059.35-.116.529-.17l.041-.012.009,0c.195-.057.393-.107.594-.156l.164-.038c.163-.036.327-.068.492-.1.032-.005.064-.014.1-.02l.043-.005c.209-.036.42-.066.633-.093l.145-.014q.265-.03.536-.048c.034,0,.068-.007.1-.009l.059,0c.229-.014.459-.023.692-.025h.132q.306,0,.617.011c.032,0,.064,0,.1,0l.05.005c.256.011.515.03.774.055l.159.016c.27.029.54.063.813.1l0,0h.009q.491.078.989.182l.077.016c.32.068.644.148.969.234l.08.02.066.02c.175.048.352.1.529.154l.12.036c.218.066.436.138.656.213l.184.066c.159.055.318.113.479.173l.241.093c.145.057.29.114.434.173.045.018.089.034.132.054l.105.045c.209.089.418.181.629.275.041.018.084.036.125.055q.373.172.751.358c.066.034.132.068.2.1.193.1.388.2.585.3l.22.118c.256.138.511.279.769.427.388.225.774.461,1.158.7.123.079.247.163.37.243q.392.252.778.517c.143.1.284.2.427.3q.359.255.713.517c.145.107.288.216.431.325q.359.274.713.558c.134.107.268.213.4.322.268.218.533.443.8.67.1.084.2.164.293.25q.539.472,1.067.964c.073.07.145.141.218.209.234.223.468.445.7.672.034.034.066.07.1.1.417.413.828.831,1.232,1.264l.063.068q.574.614,1.135,1.257l.107.118c.147.168.288.341.433.513s.307.359.459.542c.186.225.368.456.551.685.147.182.293.363.436.547l.08.1q.416.536.819,1.083l.041.057c.252.343.5.688.747,1.039l.091.134c.079.113.156.225.234.34q.306.445.606.9c.088.134.177.27.265.406.066.1.136.2.2.307.143.225.284.454.425.681.052.084.105.166.156.25.225.368.449.738.667,1.11.027.046.052.095.079.141.059.1.114.2.172.3q.287.5.565,1.008c.063.118.127.234.189.35.043.079.086.156.127.234.186.349.366.7.545,1.049l.052.105c.15.3.3.6.445.9.048.1.095.2.143.3.057.122.114.245.173.368q.255.547.5,1.1c.036.079.073.159.107.238l.038.086c.179.411.35.826.518,1.239.046.113.089.225.134.338.079.2.157.392.234.59.055.143.105.288.161.433s.105.282.157.425q.209.568.4,1.141c.025.075.052.148.077.223l.02.055c.148.443.288.887.422,1.33.038.125.071.25.109.375.075.252.15.5.22.756.023.08.041.161.064.243.055.207.109.415.163.622.072.277.141.554.206.829.052.213.1.422.145.633.034.148.072.295.1.443.023.1.039.207.061.313.064.316.123.629.181.944.041.22.08.44.118.658.054.325.1.649.147.974.021.152.05.306.07.458.007.064.013.129.021.193.018.148.034.3.05.447.036.309.068.619.095.926.014.161.027.32.039.479.023.313.041.624.057.933.007.141.014.281.02.42.016.445.027.888.025,1.326-.021,7.614-2.708,12.97-7.043,15.488l-79.961,46.469c4.333-2.519,7.022-7.875,7.043-15.488,0-.438-.009-.881-.025-1.326C128.88,157.969,128.871,157.829,128.864,157.69Z" transform="translate(-80.621 -67.974)" fill="#00223d"/>
              <path id="Trazado_118739" data-name="Trazado 118739" d="M107.948,97.278c-13.336-7.7-24.18-1.516-24.223,13.8s10.73,33.987,24.066,41.685,24.178,1.518,24.223-13.806S121.282,104.977,107.948,97.278Z" transform="translate(-83.725 -47.5)" fill="#00223d"/>
            </g>
          </g>
        </g>
        <g id="Grupo_55004" data-name="Grupo 55004" transform="translate(32.835 69.619)">
          <path id="Trazado_118740" data-name="Trazado 118740" d="M68.608,119.784c0,19.968,14.1,44.3,31.509,54.347,13.113,7.571,24.355,4.868,29.1-5.468a84.914,84.914,0,0,0,2.331-15.081c1.584-26.463-11.418-46.006-35.208-53.689A69.307,69.307,0,0,0,86.469,97.5C75.9,97.232,68.608,105.424,68.608,119.784Z" transform="translate(-68.608 -97.492)" fill="#37a3a5"/>
          <path id="Trazado_118741" data-name="Trazado 118741" d="M68.608,119.784c0,19.968,14.1,44.3,31.509,54.347,13.113,7.571,24.355,4.868,29.1-5.468a29.856,29.856,0,0,0,2.412-12.5c0-.853-.027-1.716-.08-2.583-1.132-19.437-14.771-42.148-31.427-51.764a38.722,38.722,0,0,0-3.781-1.925A26.257,26.257,0,0,0,86.469,97.5C75.9,97.232,68.608,105.424,68.608,119.784Z" transform="translate(-68.608 -97.492)" fill="#00223d"/>
          <path id="Trazado_118742" data-name="Trazado 118742" d="M113.575,176.226c6.107,0,10.917-3.159,13.547-8.894a28.271,28.271,0,0,0,2.272-11.85c0-.822-.027-1.659-.079-2.487-1.108-19.048-14.573-41.234-30.657-50.519a36.922,36.922,0,0,0-3.629-1.848,24.724,24.724,0,0,0-9.282-2.261c-.156-.005-.309-.007-.461-.007-9.754,0-15.812,7.948-15.812,20.742,0,19.444,13.786,43.222,30.734,53C104.876,174.8,109.5,176.226,113.575,176.226Z" transform="translate(-67.925 -96.81)" fill="#eceff0"/>
          <g id="Grupo_55003" data-name="Grupo 55003" transform="translate(7.832 1.065)">
            <g id="Grupo_54996" data-name="Grupo 54996" transform="translate(5.649)">
              <path id="Trazado_118743" data-name="Trazado 118743" d="M76.923,146.62a.774.774,0,0,0,.774-.774V98.862a.774.774,0,1,0-1.548,0v46.983A.773.773,0,0,0,76.923,146.62Z" transform="translate(-76.149 -98.088)" fill="#00223d"/>
            </g>
            <g id="Grupo_54997" data-name="Grupo 54997" transform="translate(7.918 52.821)">
              <path id="Trazado_118744" data-name="Trazado 118744" d="M117.5,149.945a.775.775,0,0,0,.363-1.461L78.554,127.726a.774.774,0,0,0-.724,1.369l39.305,20.758A.757.757,0,0,0,117.5,149.945Z" transform="translate(-77.419 -127.636)" fill="#00223d"/>
            </g>
            <g id="Grupo_54998" data-name="Grupo 54998" transform="translate(7.667 22.721)">
              <path id="Trazado_118745" data-name="Trazado 118745" d="M78.054,138.609a.768.768,0,0,0,.468-.159l34.4-26.261a.775.775,0,0,0-.94-1.232l-34.4,26.261a.774.774,0,0,0,.47,1.391Z" transform="translate(-77.278 -110.798)" fill="#00223d"/>
            </g>
            <g id="Grupo_55002" data-name="Grupo 55002" transform="translate(0 44.585)" style="isolation: isolate">
              <g id="Grupo_54999" data-name="Grupo 54999" transform="translate(0 3.722)">
                <path id="Trazado_118746" data-name="Trazado 118746" d="M78.448,128.283l-5.459-3.172.021,7.407,5.459,3.172Z" transform="translate(-72.989 -125.11)" fill="#00223d"/>
              </g>
              <g id="Grupo_55000" data-name="Grupo 55000">
                <path id="Trazado_118747" data-name="Trazado 118747" d="M84.894,126.2l-5.459-3.173-6.446,3.722,5.459,3.172Z" transform="translate(-72.989 -123.028)" fill="#00223d"/>
              </g>
              <g id="Grupo_55001" data-name="Grupo 55001" transform="translate(5.459 3.173)">
                <path id="Trazado_118748" data-name="Trazado 118748" d="M76.043,128.525l.021,7.407,6.446-3.722-.021-7.407Z" transform="translate(-76.043 -124.803)" fill="#00223d"/>
              </g>
            </g>
          </g>
        </g>
      </g>
    </g>
  </g>
</svg>
