<svg xmlns="http://www.w3.org/2000/svg" xmlns:xlink="http://www.w3.org/1999/xlink" width="91.927" height="91.927" viewBox="0 0 91.927 91.927">
  <defs>
    <radialGradient id="radial-gradient" cx="0.076" cy="0.019" r="1.465" gradientTransform="translate(0.001)" gradientUnits="objectBoundingBox">
      <stop offset="0" stop-color="#f6f6f7"/>
      <stop offset="0.477" stop-color="#f9f9fa"/>
      <stop offset="0.715" stop-color="#fff"/>
    </radialGradient>
  </defs>
  <g id="Grupo_54361" data-name="Grupo 54361" transform="translate(-217 -741.333)">
    <g id="Grupo_42274" data-name="Grupo 42274" transform="translate(142 768.333)">
      <g id="Grupo_18423" data-name="Grupo 18423" transform="translate(75 -27)">
        <g id="Grupo_18421" data-name="Grupo 18421">
          <g id="Grupo_18420" data-name="Grupo 18420">
            <g id="Grupo_18419" data-name="Grupo 18419">
              <path id="Trazado_40936" data-name="Trazado 40936" d="M286.55,2191.684a45.964,45.964,0,1,1-45.963-45.962A45.963,45.963,0,0,1,286.55,2191.684Z" transform="translate(-194.623 -2145.721)" fill="#fff"/>
            </g>
          </g>
        </g>
        <path id="Trazado_40937" data-name="Trazado 40937" d="M286.23,2191.334a45.963,45.963,0,1,0-45.963,45.965A45.782,45.782,0,0,0,286.23,2191.334Z" transform="translate(-194.303 -2145.372)" fill="url(#radial-gradient)"/>
        <path id="Trazado_40938" data-name="Trazado 40938" d="M272.56,2188.562a35.084,35.084,0,1,0-35.084,35.084A34.953,34.953,0,0,0,272.56,2188.562Z" transform="translate(-191.373 -2142.446)" fill="none" stroke="#37a3a5" stroke-miterlimit="10" stroke-width="4"/>
        <g id="Grupo_18422" data-name="Grupo 18422" transform="translate(8.143 25.805)">
          <path id="Trazado_40939" data-name="Trazado 40939" d="M279.682,2164.488a45.969,45.969,0,0,1-79.137,45.773,45.823,45.823,0,0,0,79.137-45.773Z" transform="translate(-200.545 -2164.488)" fill="#eceef0"/>
        </g>
      </g>
    </g>
    <g id="Grupo_54360" data-name="Grupo 54360" transform="translate(-1792.191 241.731)">
      <path id="Trazado_116867" data-name="Trazado 116867" d="M2071.365,544.968h1.741a.827.827,0,0,1,.862.852c.006.547,0,1.094,0,1.642v.192h3.07a1.67,1.67,0,0,1,1.754,1.746V560a1.672,1.672,0,0,1-1.715,1.72h-.73v.241c0,.63,0,1.26,0,1.891q-.008,1.425-.023,2.85a.82.82,0,0,1-.833.83q-2.006,0-4.013,0a.817.817,0,0,1-.849-.861q0-.821,0-1.642v-.19h-30.463c0,.065-.008.123-.008.181,0,.536,0,1.072,0,1.609a.842.842,0,0,1-.9.9h-3.914a.83.83,0,0,1-.9-.886c0-1.454,0-2.907,0-4.361v-.57c-.158,0-.3,0-.451,0a7.342,7.342,0,0,1-1.251-.069,1.6,1.6,0,0,1-1.232-1.588q0-3.541,0-7.081,0-1.774,0-3.549a1.673,1.673,0,0,1,1.763-1.771h3.295v-.363c0-.486,0-.973,0-1.459a.822.822,0,0,1,.865-.863q.929,0,1.857,0h.2v-.236q0-11.252,0-22.5a.823.823,0,0,1,.76-.881.833.833,0,0,1,.9.81c.007.21,0,.42,0,.63q0,10.995,0,21.989v.191h.183c.58,0,1.161,0,1.741,0a.828.828,0,0,1,.858.857c0,.542,0,1.083,0,1.625v.192h23.117c0-.059.008-.118.008-.177,0-.514.011-1.028,0-1.542a.882.882,0,0,1,.951-.961c.535.025,1.072,0,1.608,0a.4.4,0,0,0,.057-.013v-.185q0-6.384,0-12.769,0-4.882,0-9.764a.842.842,0,0,1,1.122-.844.877.877,0,0,1,.558.891q0,2.5,0,4.992c0,.586,0,1.172,0,1.758,0,.484-.017.968-.021,1.452,0,.154.02.309.02.463q0,5.257,0,10.514,0,1.666,0,3.333Zm-38.17,15.076h43.917v-10.7h-43.917Zm41.468,1.681h-38.528v1.443h38.528Zm-36.413-15.084v1h4.023v-1Zm34.04,0h-3.538v1h3.538Zm-36.16,19.213h2.349v-1.007h-2.349Zm38.523-1.006h-2.346v1.009h2.346Z" transform="translate(0)" fill="#12263f"/>
      <path id="Trazado_116868" data-name="Trazado 116868" d="M2432.74,551.579a14.917,14.917,0,0,1,7.177,1.824,15.323,15.323,0,0,1,3.365,2.5.84.84,0,0,1-.289,1.458.817.817,0,0,1-.851-.228,13.516,13.516,0,0,0-2.682-2.069,13.106,13.106,0,0,0-4.831-1.686,13.308,13.308,0,0,0-11.246,3.7.868.868,0,0,1-1.037.232.831.831,0,0,1-.219-1.341,14.245,14.245,0,0,1,1.959-1.655,14.739,14.739,0,0,1,4.9-2.271A14.98,14.98,0,0,1,2432.74,551.579Z" transform="translate(-377.418 -29.233)" fill="#12263f"/>
      <path id="Trazado_116869" data-name="Trazado 116869" d="M2499.5,692.4a11.943,11.943,0,0,1,5.325,1.2,11.814,11.814,0,0,1,3.106,2.205.84.84,0,0,1,.023,1.229.853.853,0,0,1-1.206-.046,10.094,10.094,0,0,0-14.2,0,.838.838,0,1,1-1.166-1.2,11.776,11.776,0,0,1,2.58-1.927,11.56,11.56,0,0,1,4.837-1.425C2499.073,692.414,2499.349,692.4,2499.5,692.4Z" transform="translate(-444.331 -165.379)" fill="#12263f"/>
      <path id="Trazado_116870" data-name="Trazado 116870" d="M2558.415,831.03a.834.834,0,0,1-.595-.249,7.512,7.512,0,0,0-10.542-.057.873.873,0,0,1-.979.247.819.819,0,0,1-.252-1.376,12.349,12.349,0,0,1,1.423-1.158,8.715,8.715,0,0,1,4.467-1.5,9.017,9.017,0,0,1,6.565,2.2c.172.146.342.3.5.458a.844.844,0,0,1,.178.949A.811.811,0,0,1,2558.415,831.03Z" transform="translate(-497.201 -295.446)" fill="#12263f"/>
      <path id="Trazado_116876" data-name="Trazado 116876" d="M2477.753,1419.3h-13.779a.841.841,0,0,1-.9-.622.949.949,0,0,1-.026-.245q0-2.288,0-4.576c0-.325.005-.65.012-.975a.808.808,0,0,1,.726-.7l26.028-.015q.843,0,1.686,0a.871.871,0,0,1,.97.973q0,2.6,0,5.206a.856.856,0,0,1-.949.956h-13.762Zm13.035-5.453h-26.069v3.771h26.069Z" transform="translate(-417.216 -861.275)" fill="#12263f"/>
      <path id="Trazado_116877" data-name="Trazado 116877" d="M2357.819,1415.862q0,1.343,0,2.685a.847.847,0,0,1-.838.884.836.836,0,0,1-.826-.874c0-.779.01-1.558.01-2.337,0-1.017-.008-2.033-.01-3.05a.833.833,0,1,1,1.663.008c0,.673-.008,1.347-.011,2.02,0,.221,0,.442,0,.662Z" transform="translate(-313.872 -861.406)" fill="#12263f"/>
      <path id="Trazado_116878" data-name="Trazado 116878" d="M2273.892,1415.794c0,.9,0,1.8,0,2.7a.831.831,0,1,1-1.662.041q0-1.773,0-3.547,0-.953,0-1.906a.832.832,0,1,1,1.663-.008C2273.9,1413.982,2273.892,1414.888,2273.892,1415.794Z" transform="translate(-232.729 -861.336)" fill="#12263f"/>
      <path id="Trazado_116880" data-name="Trazado 116880" d="M2718.379,1494.1a3.984,3.984,0,0,1,.653.068.808.808,0,0,1,.574.877.822.822,0,0,1-.772.733c-.319.014-.64.015-.959,0a.809.809,0,0,1-.755-.862.818.818,0,0,1,.795-.794c.154,0,.309,0,.463,0Z" transform="translate(-662.864 -940.495)" fill="#12263f"/>
      <path id="Trazado_116881" data-name="Trazado 116881" d="M2968.267,1494.258a4.015,4.015,0,0,1,.623.05.816.816,0,0,1,.611.885.825.825,0,0,1-.786.738,6.116,6.116,0,0,1-1.086-.037.779.779,0,0,1-.614-.9.827.827,0,0,1,.8-.717c.149,0,.3,0,.447,0Z" transform="translate(-904.467 -940.646)" fill="#12263f"/>
      <path id="Trazado_116882" data-name="Trazado 116882" d="M2593.259,1496.32c-.149,0-.3.006-.447,0a.832.832,0,0,1,.04-1.663c.27,0,.541,0,.811,0a.831.831,0,0,1,.043,1.661c-.149.008-.3,0-.447,0Z" transform="translate(-541.906 -941.03)" fill="#12263f"/>
      <path id="Trazado_116883" data-name="Trazado 116883" d="M2843.194,1494.643c.138,0,.276,0,.414,0a.835.835,0,0,1,.826.787.823.823,0,0,1-.74.866,7.411,7.411,0,0,1-1.041,0,.814.814,0,0,1-.716-.851.831.831,0,0,1,.795-.8c.154,0,.309,0,.463,0Z" transform="translate(-783.54 -941.015)" fill="#12263f"/>
      <path id="Trazado_116884" data-name="Trazado 116884" d="M3093.1,1494.255a4.331,4.331,0,0,1,.64.051.826.826,0,0,1,.611.8.817.817,0,0,1-.781.807c-.3.014-.593.021-.889.015a.831.831,0,1,1,.021-1.662h.4Z" transform="translate(-1025.17 -940.643)" fill="#12263f"/>
    </g>
  </g>
</svg>
