<svg xmlns="http://www.w3.org/2000/svg" xmlns:xlink="http://www.w3.org/1999/xlink" width="344.34" height="309.573" viewBox="0 0 344.34 309.573">
  <defs>
    <linearGradient id="linear-gradient" x1="0.5" x2="0.5" y2="1" gradientUnits="objectBoundingBox">
      <stop offset="0" stop-color="#fff"/>
      <stop offset="1" stop-color="#d2e6ee"/>
    </linearGradient>
  </defs>
  <g id="Grupo_55264" data-name="Grupo 55264" transform="translate(-14.442 -243.317)">
    <g id="Grupo_55012" data-name="Grupo 55012" transform="translate(14.442 254.194)">
      <g id="Grupo_55008" data-name="Grupo 55008" transform="translate(149.702)">
        <path id="Trazado_118749" data-name="Trazado 118749" d="M98.812,297.272a.9.9,0,0,1-.461-1.668l3.11-1.856a.9.9,0,0,1,.92,1.541l-3.112,1.858A.885.885,0,0,1,98.812,297.272Zm10.811-6.451a.9.9,0,0,1-.461-1.666l7.7-4.6a.9.9,0,0,1,.92,1.541l-7.7,4.6A.9.9,0,0,1,109.623,290.821Zm15.4-9.19a.9.9,0,0,1-.461-1.666l7.7-4.595a.9.9,0,0,1,.92,1.541l-7.7,4.595A.9.9,0,0,1,125.025,281.631Zm15.4-9.19a.9.9,0,0,1-.461-1.668l7.7-4.593a.9.9,0,0,1,.92,1.541l-7.7,4.595A.9.9,0,0,1,140.425,272.442Zm69.668-2.459a.889.889,0,0,1-.472-.134L202,265.123a.9.9,0,1,1,.945-1.523l7.622,4.724a.9.9,0,0,1-.473,1.659Zm-54.266-6.729a.9.9,0,0,1-.461-1.666l7.7-4.6a.9.9,0,0,1,.918,1.541l-7.7,4.6A.888.888,0,0,1,155.827,263.254Zm39.023-2.719a.892.892,0,0,1-.472-.136l-7.622-4.724a.9.9,0,1,1,.945-1.524l7.622,4.726a.9.9,0,0,1-.473,1.659Zm-23.623-6.471a.9.9,0,0,1-.459-1.666l3.287-1.962a7.5,7.5,0,0,1,5.63-.834.9.9,0,0,1-.432,1.741,5.69,5.69,0,0,0-4.279.633l-3.287,1.962A.891.891,0,0,1,171.228,254.064Z" transform="translate(-97.914 -249.382)" fill="#12263f"/>
      </g>
      <g id="Grupo_55009" data-name="Grupo 55009" transform="translate(247.943 129.362)">
        <path id="Trazado_118750" data-name="Trazado 118750" d="M205.189,448.112a.9.9,0,0,1-.473-1.657l4.254-2.642a.9.9,0,1,1,.947,1.524l-4.256,2.64A.89.89,0,0,1,205.189,448.112Zm11.872-7.371a.9.9,0,0,1-.473-1.659l7.618-4.728a.9.9,0,1,1,.947,1.523l-7.618,4.729A.9.9,0,0,1,217.061,440.741Zm15.237-9.459a.9.9,0,0,1-.473-1.659l7.618-4.731a.9.9,0,0,1,.945,1.524l-7.618,4.731A.906.906,0,0,1,232.3,431.283Zm14.835-9.932a.9.9,0,0,1-.748-1.388,5.71,5.71,0,0,0-.746-7.116.9.9,0,0,1,1.263-1.277,7.5,7.5,0,0,1,.983,9.374A.892.892,0,0,1,247.133,421.351Zm-8.472-12.963a.9.9,0,0,1-.456-.124l-7.726-4.55a.9.9,0,0,1,.911-1.546l7.726,4.55a.9.9,0,0,1-.456,1.67Zm-15.454-9.1a.894.894,0,0,1-.454-.126l-3.9-2.3a7.365,7.365,0,0,1-3.194-3.775.9.9,0,1,1,1.677-.635,5.592,5.592,0,0,0,2.428,2.866l3.9,2.3a.9.9,0,0,1-.457,1.67Zm-3.538-13.7-.585-.692-.463-.766,7.633-4.69a.9.9,0,1,1,.94,1.526Zm13.942-10a.9.9,0,0,1-.814-1.272,5.762,5.762,0,0,0,.522-2.392,5.591,5.591,0,0,0-2.272-4.546.9.9,0,1,1,1.067-1.444,7.374,7.374,0,0,1,3,5.99,7.558,7.558,0,0,1-.685,3.142A.9.9,0,0,1,233.611,375.6ZM223.8,363.1a.874.874,0,0,1-.441-.117l-7.8-4.421a.9.9,0,1,1,.884-1.559l7.8,4.421a.9.9,0,0,1-.443,1.675Zm-15.6-8.842a.881.881,0,0,1-.441-.118l-7.8-4.421a.9.9,0,1,1,.884-1.559l7.8,4.421a.9.9,0,0,1-.443,1.677Zm-15.6-8.842a.876.876,0,0,1-.441-.118l-7.8-4.419a.9.9,0,1,1,.884-1.56l7.8,4.421a.9.9,0,0,1-.443,1.677Zm-15.6-8.842a.874.874,0,0,1-.441-.117l-7.8-4.423a.9.9,0,1,1,.886-1.558l7.8,4.423a.9.9,0,0,1-.443,1.675Zm-15.6-8.843a.878.878,0,0,1-.441-.117l-7.8-4.421a.9.9,0,0,1,.884-1.559l7.8,4.421a.9.9,0,0,1-.445,1.675Z" transform="translate(-152.693 -321.514)" fill="#12263f"/>
      </g>
      <g id="Grupo_55010" data-name="Grupo 55010" transform="translate(0 145.636)">
        <path id="Trazado_118751" data-name="Trazado 118751" d="M86.572,427.607a.9.9,0,0,1-.454-1.672l7.746-4.523a.9.9,0,0,1,.9,1.55l-7.744,4.521A.879.879,0,0,1,86.572,427.607Zm15.488-9.042a.9.9,0,0,1-.454-1.672l1.431-.836a5.622,5.622,0,0,0,2.814-4.9c0-.133,0-.262-.013-.389a.9.9,0,1,1,1.79-.126c.011.172.018.346.016.52a7.394,7.394,0,0,1-3.7,6.444l-1.431.836A.879.879,0,0,1,102.06,418.565Zm-.777-13.5a.889.889,0,0,1-.457-.126l-7.714-4.571a.9.9,0,1,1,.915-1.54l7.714,4.571a.9.9,0,0,1-.457,1.666Zm-15.429-9.141a.886.886,0,0,1-.457-.127l-7.714-4.573a.9.9,0,1,1,.915-1.541l7.714,4.573a.9.9,0,0,1-.457,1.668Zm-15.429-9.145a.9.9,0,0,1-.456-.126l-7.715-4.571a.9.9,0,0,1,.915-1.542l7.715,4.571a.9.9,0,0,1-.459,1.668ZM55,377.639a.883.883,0,0,1-.456-.126l-7.715-4.571a.9.9,0,1,1,.915-1.541l7.714,4.571A.9.9,0,0,1,55,377.639ZM39.57,368.5a.886.886,0,0,1-.457-.127L31.4,363.8a.9.9,0,1,1,.915-1.541l7.714,4.572a.9.9,0,0,1-.457,1.668Zm-15.429-9.145a.9.9,0,0,1-.457-.126l-6.508-3.858a7.638,7.638,0,0,1-1.272-.94.9.9,0,1,1,1.212-1.323,5.772,5.772,0,0,0,.974.721l6.508,3.858a.9.9,0,0,1-.457,1.668Zm-8.8-12.9a.88.88,0,0,1-.459-.127.894.894,0,0,1-.308-1.229,7.351,7.351,0,0,1,2.685-2.626l4.876-2.812a.9.9,0,0,1,.893,1.557l-4.875,2.81a5.587,5.587,0,0,0-2.041,1.991A.9.9,0,0,1,15.337,346.455Zm15.009-9.595a.9.9,0,0,1-.448-1.675l7.771-4.478a.9.9,0,0,1,.895,1.557l-7.769,4.478A.9.9,0,0,1,30.346,336.86Z" transform="translate(-14.442 -330.588)" fill="#12263f"/>
      </g>
      <g id="Grupo_55011" data-name="Grupo 55011" transform="translate(36.695 48.877)">
        <path id="Trazado_118752" data-name="Trazado 118752" d="M36.842,344.865a.9.9,0,0,1-.439-1.68l7.828-4.376a.9.9,0,0,1,.875,1.566l-7.828,4.376A.9.9,0,0,1,36.842,344.865Zm15.653-8.754a.9.9,0,0,1-.439-1.68l7.827-4.376a.9.9,0,1,1,.875,1.566L52.933,336A.906.906,0,0,1,52.495,336.111ZM67.707,326.8a.895.895,0,0,1-.742-1.4,5.664,5.664,0,0,0,.956-3.169,5.6,5.6,0,0,0-1.6-3.958.9.9,0,0,1,1.281-1.259,7.515,7.515,0,0,1,.85,9.389A.9.9,0,0,1,67.707,326.8Zm-8.382-12.92a.884.884,0,0,1-.445-.118L51.1,309.3a.9.9,0,1,1,.891-1.557l7.78,4.458a.9.9,0,0,1-.447,1.673Zm-15.56-8.915a.887.887,0,0,1-.445-.12l-5.936-3.4a7.461,7.461,0,0,1-1.871-1.5.9.9,0,0,1,1.334-1.2,5.739,5.739,0,0,0,1.426,1.146l5.938,3.4a.9.9,0,0,1-.447,1.675ZM35.8,291.952a.9.9,0,0,1-.719-1.429,7.433,7.433,0,0,1,2.392-2.091l5.377-2.983a.9.9,0,0,1,.872,1.569L38.343,290a5.644,5.644,0,0,0-1.822,1.587A.9.9,0,0,1,35.8,291.952Zm15.328-9.173a.9.9,0,0,1-.436-1.68l7.841-4.351a.9.9,0,0,1,.87,1.569l-7.841,4.351A.9.9,0,0,1,51.127,282.779Z" transform="translate(-34.903 -276.636)" fill="#12263f"/>
      </g>
    </g>
    <g id="Grupo_55028" data-name="Grupo 55028" transform="translate(67.82 247.192)">
      <g id="Grupo_55021" data-name="Grupo 55021" transform="translate(0 15.069)">
        <g id="Grupo_55020" data-name="Grupo 55020" style="isolation: isolate">
          <g id="Grupo_55016" data-name="Grupo 55016" transform="translate(1.975 15.119)">
            <path id="Trazado_118757" data-name="Trazado 118757" d="M51.516,265.891l-.008,2.972-6.2-3.58.008-2.972Z" transform="translate(-45.306 -262.31)" fill="#37a3a5"/>
          </g>
          <g id="Grupo_55017" data-name="Grupo 55017" transform="translate(1.99 10.023)">
            <path id="Trazado_118758" data-name="Trazado 118758" d="M51.524,263.05l-.008,2.972-6.2-3.58.008-2.972Z" transform="translate(-45.314 -259.469)" fill="#37a3a5"/>
          </g>
          <g id="Grupo_55018" data-name="Grupo 55018" transform="translate(0.1)">
            <path id="Trazado_118759" data-name="Trazado 118759" d="M44.261,259.193,53.4,253.88l28.833,16.647-9.142,5.313Z" transform="translate(-44.261 -253.88)" fill="#21587b"/>
          </g>
          <g id="Grupo_55019" data-name="Grupo 55019" transform="translate(0 5.313)">
            <path id="Trazado_118760" data-name="Trazado 118760" d="M73.138,273.49l.242.14-.1,35.487c-.014,4.787-3.4,6.716-7.568,4.311l-13.987-8.076a16.564,16.564,0,0,1-7.52-13.022l.005-2.355.1-33.132ZM52.4,268.106l.009-2.972-6.2-3.581-.009,2.972,6.2,3.581Zm-.014,5.1.009-2.972-6.2-3.582-.009,2.972,6.2,3.581Z" transform="translate(-44.205 -256.843)" fill="#00223d"/>
          </g>
          <path id="Trazado_118761" data-name="Trazado 118761" d="M70.634,263.3l-.242-.138-9.143,5.312.242.14-.1,35.487,4.571-2.658L61.391,304.1c0,.14-.005.278-.011.414,0,.038-.005.075-.007.113-.005.093-.011.187-.02.278,0,.052-.011.1-.016.154-.009.077-.018.154-.027.23-.007.056-.016.109-.025.163-.011.07-.023.138-.036.206s-.023.12-.036.179-.027.122-.041.181-.034.138-.054.206-.029.106-.045.158c-.025.081-.052.161-.081.24-.016.048-.034.1-.052.145l-.029.074c-.032.081-.066.161-.1.239l-.02.047c-.047.1-.1.192-.145.283v0c-.05.091-.1.178-.158.264l-.034.05c-.043.065-.086.126-.129.185l-.056.072c-.043.056-.086.108-.129.16l-.052.059c-.059.068-.122.134-.187.2l-.029.025c-.056.054-.115.106-.174.154l-.065.054c-.05.039-.1.079-.154.117l-.065.047c-.074.05-.147.1-.224.142l9.143-5.312c.075-.045.151-.093.222-.144l.066-.045c.052-.038.1-.077.154-.118l.065-.052c.059-.05.117-.1.174-.156l.027-.025c.065-.063.127-.129.188-.2l.05-.059c.045-.05.088-.1.131-.158l.054-.072c.045-.059.088-.122.129-.185l.034-.05.011-.016c.052-.081.1-.163.149-.249h0c.047-.086.093-.176.136-.265l.009-.02.02-.045c.036-.079.07-.158.1-.24l.029-.072.022-.054c.011-.03.02-.063.03-.093.029-.079.056-.158.079-.24l.022-.063c.009-.031.016-.063.025-.1.018-.066.036-.136.054-.206l.022-.084c.007-.03.013-.065.02-.1.013-.059.025-.12.036-.181.005-.03.013-.061.018-.093s.013-.075.018-.111c.009-.054.016-.109.025-.165l.011-.082c.007-.048.011-.1.016-.145l.016-.156.005-.063c.007-.07.009-.142.014-.213,0-.038.005-.075.007-.115l0-.027c0-.12.007-.242.007-.366l0-.022h0Z" transform="translate(-32.315 -246.515)" fill="#21587b"/>
        </g>
      </g>
      <g id="Grupo_55027" data-name="Grupo 55027" transform="translate(7.324)">
        <g id="Grupo_55026" data-name="Grupo 55026" style="isolation: isolate">
          <g id="Grupo_55022" data-name="Grupo 55022" transform="translate(2.691 10.201)">
            <path id="Trazado_118762" data-name="Trazado 118762" d="M54.679,253.979l-.016,5.6-4.873-2.813.016-5.6Z" transform="translate(-49.79 -251.166)" fill="#171717"/>
          </g>
          <g id="Grupo_55023" data-name="Grupo 55023" transform="translate(11.459 15.263)">
            <path id="Trazado_118763" data-name="Trazado 118763" d="M59.567,256.8l-.016,5.6-4.873-2.813.016-5.6Z" transform="translate(-54.679 -253.989)" fill="#171717"/>
          </g>
          <g id="Grupo_55024" data-name="Grupo 55024" transform="translate(0.056)">
            <path id="Trazado_118764" data-name="Trazado 118764" d="M48.32,248.135l4.571-2.657,18.88,10.9L67.2,259.035Z" transform="translate(-48.32 -245.478)" fill="#eceff0"/>
          </g>
          <g id="Grupo_55025" data-name="Grupo 55025" transform="translate(0 2.656)">
            <path id="Trazado_118765" data-name="Trazado 118765" d="M67.224,257.859l.1.057-.056,19.529L48.289,266.488l.056-19.529Zm-2.6,10.12.016-5.6-4.873-2.812-.016,5.6,4.873,2.814Zm-8.768-5.063.016-5.6L51,254.5l-.014,5.6,4.873,2.814Z" transform="translate(-48.289 -246.959)" fill="#fff"/>
          </g>
          <path id="Trazado_118766" data-name="Trazado 118766" d="M63.419,251.556l-4.571,2.656.1.056L58.89,273.8l4.571-2.656.055-19.529Z" transform="translate(-39.912 -240.655)" fill="#eceff0"/>
        </g>
      </g>
    </g>
    <g id="Grupo_55089" data-name="Grupo 55089" transform="translate(260.371 243.317)">
      <g id="Grupo_55048" data-name="Grupo 55048" transform="translate(0 6.165)">
        <g id="Grupo_55032" data-name="Grupo 55032">
          <g id="Grupo_55031" data-name="Grupo 55031" style="isolation: isolate">
            <path id="Trazado_118767" data-name="Trazado 118767" d="M162.3,263.429l-.022,7.652-.107,37.783,18.155-10.551.107-37.783.022-7.652Z" transform="translate(-143.155 -241.897)" fill="#21587b"/>
            <g id="Grupo_55029" data-name="Grupo 55029" transform="translate(0.129)">
              <path id="Trazado_118768" data-name="Trazado 118768" d="M151.642,257.306,169.8,246.755l19.019,10.981-18.155,10.551Z" transform="translate(-151.642 -246.755)" fill="#21587b"/>
            </g>
            <g id="Grupo_55030" data-name="Grupo 55030" transform="translate(0 10.551)">
              <path id="Trazado_118769" data-name="Trazado 118769" d="M170.718,263.619l-.022,7.652-.107,37.783L151.57,298.073l.045-15.928.084-29.507Z" transform="translate(-151.57 -252.638)" fill="#00223d"/>
            </g>
          </g>
        </g>
        <g id="Grupo_55040" data-name="Grupo 55040" transform="translate(2.111 17.663)">
          <g id="Grupo_55039" data-name="Grupo 55039" style="isolation: isolate">
            <g id="Grupo_55033" data-name="Grupo 55033" transform="translate(0 26.873)">
              <path id="Trazado_118770" data-name="Trazado 118770" d="M167.071,279.852l-.011,3.941-14.313-8.264.011-3.941Z" transform="translate(-152.747 -271.588)" fill="url(#linear-gradient)"/>
            </g>
            <g id="Grupo_55034" data-name="Grupo 55034" transform="translate(0.015 21.499)">
              <path id="Trazado_118771" data-name="Trazado 118771" d="M167.08,276.855l-.011,3.941-14.313-8.264.011-3.941Z" transform="translate(-152.755 -268.591)" fill="url(#linear-gradient)"/>
            </g>
            <g id="Grupo_55035" data-name="Grupo 55035" transform="translate(0.03 16.124)">
              <path id="Trazado_118772" data-name="Trazado 118772" d="M167.088,273.858l-.011,3.941-14.313-8.264.011-3.941Z" transform="translate(-152.764 -265.595)" fill="url(#linear-gradient)"/>
            </g>
            <g id="Grupo_55036" data-name="Grupo 55036" transform="translate(0.046 10.749)">
              <path id="Trazado_118773" data-name="Trazado 118773" d="M167.1,270.861l-.011,3.941-14.313-8.264.011-3.941Z" transform="translate(-152.772 -262.598)" fill="url(#linear-gradient)"/>
            </g>
            <g id="Grupo_55037" data-name="Grupo 55037" transform="translate(0.061 5.375)">
              <path id="Trazado_118774" data-name="Trazado 118774" d="M167.105,267.865l-.011,3.941-14.313-8.264.011-3.941Z" transform="translate(-152.781 -259.601)" fill="url(#linear-gradient)"/>
            </g>
            <g id="Grupo_55038" data-name="Grupo 55038" transform="translate(0.076)">
              <path id="Trazado_118775" data-name="Trazado 118775" d="M167.114,264.868l-.011,3.941-14.313-8.264.011-3.941Z" transform="translate(-152.789 -256.604)" fill="url(#linear-gradient)"/>
            </g>
          </g>
        </g>
        <g id="Grupo_55047" data-name="Grupo 55047" transform="translate(2.911 53.76)">
          <g id="Grupo_55041" data-name="Grupo 55041">
            <path id="Trazado_118776" data-name="Trazado 118776" d="M154.389,277.42l0,1.254-1.192-.688,0-1.254Z" transform="translate(-153.193 -276.731)" fill="#37a3a5"/>
          </g>
          <g id="Grupo_55042" data-name="Grupo 55042" transform="translate(2.321 1.34)">
            <path id="Trazado_118777" data-name="Trazado 118777" d="M155.684,278.167l0,1.254-1.193-.689,0-1.254Z" transform="translate(-154.487 -277.478)" fill="#37a3a5"/>
          </g>
          <g id="Grupo_55043" data-name="Grupo 55043" transform="translate(4.642 2.68)">
            <path id="Trazado_118778" data-name="Trazado 118778" d="M156.977,278.914l0,1.254-1.192-.688,0-1.254Z" transform="translate(-155.781 -278.226)" fill="#37a3a5"/>
          </g>
          <g id="Grupo_55044" data-name="Grupo 55044" transform="translate(6.963 4.02)">
            <path id="Trazado_118779" data-name="Trazado 118779" d="M158.272,279.661l0,1.254-1.193-.689,0-1.254Z" transform="translate(-157.075 -278.973)" fill="#37a3a5"/>
          </g>
          <g id="Grupo_55045" data-name="Grupo 55045" transform="translate(9.284 5.36)">
            <path id="Trazado_118780" data-name="Trazado 118780" d="M159.566,280.408l0,1.254-1.192-.688,0-1.254Z" transform="translate(-158.37 -279.72)" fill="#37a3a5"/>
          </g>
          <g id="Grupo_55046" data-name="Grupo 55046" transform="translate(11.605 6.7)">
            <path id="Trazado_118781" data-name="Trazado 118781" d="M160.86,281.156l0,1.254-1.193-.689,0-1.254Z" transform="translate(-159.664 -280.467)" fill="#37a3a5"/>
          </g>
        </g>
      </g>
      <g id="Grupo_55068" data-name="Grupo 55068" transform="translate(21.394)">
        <g id="Grupo_55052" data-name="Grupo 55052">
          <g id="Grupo_55051" data-name="Grupo 55051" style="isolation: isolate">
            <path id="Trazado_118782" data-name="Trazado 118782" d="M177.748,265.45l-.029,10.157-.142,50.155,24.1-14.005.142-50.155.029-10.157Z" transform="translate(-152.329 -236.869)" fill="url(#linear-gradient)"/>
            <g id="Grupo_55049" data-name="Grupo 55049" transform="translate(0.171)">
              <path id="Trazado_118783" data-name="Trazado 118783" d="M163.594,257.323l24.1-14.005,25.247,14.577-24.1,14.005Z" transform="translate(-163.594 -243.317)" fill="url(#linear-gradient)"/>
            </g>
            <g id="Grupo_55050" data-name="Grupo 55050" transform="translate(0 14.005)">
              <path id="Trazado_118784" data-name="Trazado 118784" d="M188.917,265.7l-.029,10.157-.142,50.155L163.5,311.439l.06-21.144.111-39.168Z" transform="translate(-163.499 -251.127)" fill="url(#linear-gradient)"/>
            </g>
          </g>
        </g>
        <g id="Grupo_55060" data-name="Grupo 55060" transform="translate(2.802 23.447)">
          <g id="Grupo_55059" data-name="Grupo 55059" style="isolation: isolate">
            <g id="Grupo_55053" data-name="Grupo 55053" transform="translate(0 35.673)">
              <path id="Trazado_118785" data-name="Trazado 118785" d="M184.077,287.252l-.015,5.232-19-10.97.015-5.232Z" transform="translate(-165.061 -276.282)" fill="#00223d"/>
            </g>
            <g id="Grupo_55054" data-name="Grupo 55054" transform="translate(0.02 28.538)">
              <path id="Trazado_118786" data-name="Trazado 118786" d="M184.088,283.274l-.015,5.232-19-10.97.015-5.232Z" transform="translate(-165.073 -272.304)" fill="#00223d"/>
            </g>
            <g id="Grupo_55055" data-name="Grupo 55055" transform="translate(0.041 21.404)">
              <path id="Trazado_118787" data-name="Trazado 118787" d="M184.1,279.3l-.015,5.232-19-10.97.015-5.232Z" transform="translate(-165.084 -268.326)" fill="#00223d"/>
            </g>
            <g id="Grupo_55056" data-name="Grupo 55056" transform="translate(0.061 14.269)">
              <path id="Trazado_118788" data-name="Trazado 118788" d="M184.11,275.317l-.015,5.232-19-10.97.015-5.232Z" transform="translate(-165.095 -264.348)" fill="#00223d"/>
            </g>
            <g id="Grupo_55057" data-name="Grupo 55057" transform="translate(0.081 7.135)">
              <path id="Trazado_118789" data-name="Trazado 118789" d="M184.122,271.339l-.015,5.232-19-10.97.015-5.232Z" transform="translate(-165.107 -260.369)" fill="#00223d"/>
            </g>
            <g id="Grupo_55058" data-name="Grupo 55058" transform="translate(0.101)">
              <path id="Trazado_118790" data-name="Trazado 118790" d="M184.133,267.361l-.015,5.232-19-10.97.015-5.232Z" transform="translate(-165.118 -256.391)" fill="#00223d"/>
            </g>
          </g>
        </g>
        <g id="Grupo_55067" data-name="Grupo 55067" transform="translate(3.864 71.363)">
          <g id="Grupo_55061" data-name="Grupo 55061">
            <path id="Trazado_118791" data-name="Trazado 118791" d="M167.241,284.023l0,1.664-1.583-.914,0-1.664Z" transform="translate(-165.654 -283.109)" fill="#37a3a5"/>
          </g>
          <g id="Grupo_55062" data-name="Grupo 55062" transform="translate(3.081 1.779)">
            <path id="Trazado_118792" data-name="Trazado 118792" d="M168.96,285.015l0,1.664-1.584-.914,0-1.664Z" transform="translate(-167.372 -284.101)" fill="#37a3a5"/>
          </g>
          <g id="Grupo_55063" data-name="Grupo 55063" transform="translate(6.162 3.558)">
            <path id="Trazado_118793" data-name="Trazado 118793" d="M170.677,286.007l0,1.664-1.583-.914,0-1.664Z" transform="translate(-169.09 -285.093)" fill="#37a3a5"/>
          </g>
          <g id="Grupo_55064" data-name="Grupo 55064" transform="translate(9.243 5.336)">
            <path id="Trazado_118794" data-name="Trazado 118794" d="M172.4,287l0,1.664-1.584-.914,0-1.664Z" transform="translate(-170.807 -286.084)" fill="#37a3a5"/>
          </g>
          <g id="Grupo_55065" data-name="Grupo 55065" transform="translate(12.324 7.115)">
            <path id="Trazado_118795" data-name="Trazado 118795" d="M174.113,287.99l0,1.664-1.583-.914,0-1.664Z" transform="translate(-172.526 -287.076)" fill="#37a3a5"/>
          </g>
          <g id="Grupo_55066" data-name="Grupo 55066" transform="translate(15.405 8.894)">
            <path id="Trazado_118796" data-name="Trazado 118796" d="M175.832,288.983l0,1.664-1.584-.914,0-1.664Z" transform="translate(-174.243 -288.068)" fill="#37a3a5"/>
          </g>
        </g>
      </g>
      <g id="Grupo_55088" data-name="Grupo 55088" transform="translate(49.939 34.104)">
        <g id="Grupo_55072" data-name="Grupo 55072">
          <g id="Grupo_55071" data-name="Grupo 55071" style="isolation: isolate">
            <path id="Trazado_118797" data-name="Trazado 118797" d="M190.149,279.007l-.022,7.652-.107,37.783,18.155-10.551.107-37.783.022-7.652Z" transform="translate(-171.001 -257.475)" fill="#21587b"/>
            <g id="Grupo_55069" data-name="Grupo 55069" transform="translate(0.129)">
              <path id="Trazado_118798" data-name="Trazado 118798" d="M179.487,272.884l18.155-10.551,19.02,10.981-18.155,10.551Z" transform="translate(-179.487 -262.333)" fill="#21587b"/>
            </g>
            <g id="Grupo_55070" data-name="Grupo 55070" transform="translate(0 10.551)">
              <path id="Trazado_118799" data-name="Trazado 118799" d="M198.564,279.2l-.022,7.652-.107,37.783-19.02-10.981.045-15.928.084-29.507Z" transform="translate(-179.415 -268.216)" fill="#00223d"/>
            </g>
          </g>
        </g>
        <g id="Grupo_55080" data-name="Grupo 55080" transform="translate(2.111 17.663)">
          <g id="Grupo_55079" data-name="Grupo 55079" style="isolation: isolate">
            <g id="Grupo_55073" data-name="Grupo 55073" transform="translate(0 26.873)">
              <path id="Trazado_118800" data-name="Trazado 118800" d="M194.917,295.43l-.011,3.941-14.313-8.264.011-3.941Z" transform="translate(-180.592 -287.167)" fill="url(#linear-gradient)"/>
            </g>
            <g id="Grupo_55074" data-name="Grupo 55074" transform="translate(0.015 21.499)">
              <path id="Trazado_118801" data-name="Trazado 118801" d="M194.925,292.434l-.011,3.941L180.6,288.111l.011-3.941Z" transform="translate(-180.601 -284.17)" fill="url(#linear-gradient)"/>
            </g>
            <g id="Grupo_55075" data-name="Grupo 55075" transform="translate(0.03 16.124)">
              <path id="Trazado_118802" data-name="Trazado 118802" d="M194.934,289.437l-.011,3.941-14.313-8.264.011-3.941Z" transform="translate(-180.609 -281.173)" fill="url(#linear-gradient)"/>
            </g>
            <g id="Grupo_55076" data-name="Grupo 55076" transform="translate(0.046 10.749)">
              <path id="Trazado_118803" data-name="Trazado 118803" d="M194.942,286.44l-.011,3.941-14.313-8.264.011-3.941Z" transform="translate(-180.618 -278.176)" fill="url(#linear-gradient)"/>
            </g>
            <g id="Grupo_55077" data-name="Grupo 55077" transform="translate(0.061 5.375)">
              <path id="Trazado_118804" data-name="Trazado 118804" d="M194.951,283.443l-.011,3.941-14.313-8.264.011-3.941Z" transform="translate(-180.626 -275.179)" fill="url(#linear-gradient)"/>
            </g>
            <g id="Grupo_55078" data-name="Grupo 55078" transform="translate(0.076)">
              <path id="Trazado_118805" data-name="Trazado 118805" d="M194.959,280.446l-.011,3.941-14.313-8.264.011-3.941Z" transform="translate(-180.635 -272.182)" fill="url(#linear-gradient)"/>
            </g>
          </g>
        </g>
        <g id="Grupo_55087" data-name="Grupo 55087" transform="translate(2.911 53.76)">
          <g id="Grupo_55081" data-name="Grupo 55081">
            <path id="Trazado_118806" data-name="Trazado 118806" d="M182.235,293l0,1.254-1.192-.688,0-1.254Z" transform="translate(-181.039 -292.309)" fill="#37a3a5"/>
          </g>
          <g id="Grupo_55082" data-name="Grupo 55082" transform="translate(2.321 1.34)">
            <path id="Trazado_118807" data-name="Trazado 118807" d="M183.529,293.745l0,1.254-1.193-.689,0-1.254Z" transform="translate(-182.333 -293.056)" fill="#37a3a5"/>
          </g>
          <g id="Grupo_55083" data-name="Grupo 55083" transform="translate(4.642 2.68)">
            <path id="Trazado_118808" data-name="Trazado 118808" d="M184.823,294.492l0,1.254-1.192-.688,0-1.254Z" transform="translate(-183.627 -293.804)" fill="#37a3a5"/>
          </g>
          <g id="Grupo_55084" data-name="Grupo 55084" transform="translate(6.963 4.02)">
            <path id="Trazado_118809" data-name="Trazado 118809" d="M186.118,295.24l0,1.254-1.193-.689,0-1.254Z" transform="translate(-184.921 -294.551)" fill="#37a3a5"/>
          </g>
          <g id="Grupo_55085" data-name="Grupo 55085" transform="translate(9.284 5.36)">
            <path id="Trazado_118810" data-name="Trazado 118810" d="M187.411,295.987l0,1.254-1.192-.688,0-1.254Z" transform="translate(-186.215 -295.298)" fill="#37a3a5"/>
          </g>
          <g id="Grupo_55086" data-name="Grupo 55086" transform="translate(11.605 6.7)">
            <path id="Trazado_118811" data-name="Trazado 118811" d="M188.706,296.734l0,1.254-1.193-.689,0-1.254Z" transform="translate(-187.509 -296.045)" fill="#37a3a5"/>
          </g>
        </g>
      </g>
    </g>
    <g id="Grupo_55106" data-name="Grupo 55106" transform="translate(27.929 352.327)">
      <g id="Grupo_55103" data-name="Grupo 55103" transform="translate(8.282)">
        <path id="Trazado_118823" data-name="Trazado 118823" d="M48.481,315.781,28.249,304.1l-1.669.945,1.669,1.464v39.048l25,14.434.211,2.031,1.669-.946V327.247Z" transform="translate(-26.58 -304.1)" fill="#21587b"/>
        <path id="Trazado_118824" data-name="Trazado 118824" d="M46.812,316.308,26.58,304.627v41.458L53.46,361.6V327.775Z" transform="translate(-26.58 -303.682)" fill="#bdc3c7"/>
        <path id="Trazado_118825" data-name="Trazado 118825" d="M46.812,316.308,26.58,304.627v41.458L53.46,361.6V327.775Z" transform="translate(-26.58 -303.682)" fill="#00223d"/>
        <path id="Trazado_118826" data-name="Trazado 118826" d="M37.861,318.769l6.648,3.838-6.648-11.466Z" transform="translate(-17.629 -298.514)" fill="#ecf0f1"/>
        <path id="Trazado_118827" data-name="Trazado 118827" d="M37.861,311.559l1.669-.945,6.648,11.466-1.669.945Z" transform="translate(-17.629 -298.932)" fill="#bdc3c7"/>
        <g id="Grupo_55102" data-name="Grupo 55102" transform="translate(2.674 12.48)">
          <g id="Grupo_55093" data-name="Grupo 55093">
            <path id="Trazado_118828" data-name="Trazado 118828" d="M49.6,323.823,28.071,311.391v-.332L49.6,323.491Z" transform="translate(-28.071 -311.059)" fill="#ecf0f1"/>
          </g>
          <g id="Grupo_55094" data-name="Grupo 55094" transform="translate(0 3.317)">
            <path id="Trazado_118829" data-name="Trazado 118829" d="M49.6,325.672,28.071,313.24v-.332L49.6,325.34Z" transform="translate(-28.071 -312.908)" fill="#ecf0f1"/>
          </g>
          <g id="Grupo_55095" data-name="Grupo 55095" transform="translate(0 6.633)">
            <path id="Trazado_118830" data-name="Trazado 118830" d="M49.6,327.521,28.071,315.089v-.332L49.6,327.19Z" transform="translate(-28.071 -314.758)" fill="#ecf0f1"/>
          </g>
          <g id="Grupo_55096" data-name="Grupo 55096" transform="translate(0 9.95)">
            <path id="Trazado_118831" data-name="Trazado 118831" d="M49.6,329.37,28.071,316.939v-.332L49.6,329.039Z" transform="translate(-28.071 -316.607)" fill="#ecf0f1"/>
          </g>
          <g id="Grupo_55097" data-name="Grupo 55097" transform="translate(0 13.267)">
            <path id="Trazado_118832" data-name="Trazado 118832" d="M49.6,331.22,28.071,318.788v-.332L49.6,330.888Z" transform="translate(-28.071 -318.456)" fill="#ecf0f1"/>
          </g>
          <g id="Grupo_55098" data-name="Grupo 55098" transform="translate(0 16.583)">
            <path id="Trazado_118833" data-name="Trazado 118833" d="M49.6,333.069,28.071,320.637v-.332L49.6,332.738Z" transform="translate(-28.071 -320.306)" fill="#ecf0f1"/>
          </g>
          <g id="Grupo_55099" data-name="Grupo 55099" transform="translate(0 19.9)">
            <path id="Trazado_118834" data-name="Trazado 118834" d="M49.6,334.919,28.071,322.487v-.332L49.6,334.587Z" transform="translate(-28.071 -322.155)" fill="#ecf0f1"/>
          </g>
          <g id="Grupo_55100" data-name="Grupo 55100" transform="translate(0 23.216)">
            <path id="Trazado_118835" data-name="Trazado 118835" d="M49.6,336.768,28.071,324.336V324L49.6,336.436Z" transform="translate(-28.071 -324.004)" fill="#ecf0f1"/>
          </g>
          <g id="Grupo_55101" data-name="Grupo 55101" transform="translate(0 26.533)">
            <path id="Trazado_118836" data-name="Trazado 118836" d="M49.6,338.617,28.071,326.185v-.332L49.6,338.286Z" transform="translate(-28.071 -325.854)" fill="#ecf0f1"/>
          </g>
        </g>
      </g>
      <g id="Grupo_55105" data-name="Grupo 55105" transform="translate(0 19.23)">
        <g id="Grupo_55104" data-name="Grupo 55104">
          <path id="Trazado_118837" data-name="Trazado 118837" d="M48.78,328.244,24.6,315a1.03,1.03,0,0,0-.834-.145h0l0,0c-.074.025-1.67.952-1.67.952l26.354,15.2c0,.848,1.677-.454,1.677-.454A2.971,2.971,0,0,0,48.78,328.244Z" transform="translate(-21.857 -314.822)" fill="#ecf0f1"/>
          <path id="Trazado_118838" data-name="Trazado 118838" d="M36.72,346.486V325.24a2.576,2.576,0,0,0-.267-1.071l2-1.216a2.02,2.02,0,0,1,.308,1.081v21.057a1.954,1.954,0,0,1-1.013,1.463l.249-.183-.253.185c-.016.013-.547.3-.565.31l-.759.416A1,1,0,0,0,36.72,346.486Z" transform="translate(-10.491 -308.371)" fill="#3a6f81"/>
          <path id="Trazado_118839" data-name="Trazado 118839" d="M47.924,330.182,35.077,334.3,22.2,315.375a1.067,1.067,0,0,0-.237.734v21.247a2.976,2.976,0,0,0,1.345,2.319l23.539,13.591c.741.427,1.345.083,1.345-.766V331.252A2.576,2.576,0,0,0,47.924,330.182Z" transform="translate(-21.962 -314.384)" fill="#bdc3c7"/>
          <path id="Trazado_118840" data-name="Trazado 118840" d="M47.8,330.173l-25.711-14.8L33.62,336.728a2.492,2.492,0,0,0,3.621.859l10.578-7.405Z" transform="translate(-21.857 -314.384)" fill="#ecf0f1"/>
        </g>
      </g>
    </g>
    <g id="Grupo_55263" data-name="Grupo 55263" transform="translate(79.496 283.218)">
      <g id="Grupo_55121" data-name="Grupo 55121" transform="translate(63.949)">
        <g id="Grupo_55110" data-name="Grupo 55110">
          <g id="Grupo_55107" data-name="Grupo 55107" transform="translate(4.822 81.57)">
            <path id="Trazado_118841" data-name="Trazado 118841" d="M141.8,342.186,89.061,311.048v17.1l118.944,69.823v5.026l3.75-2.275v-16.8l-70.164-41.733Z" transform="translate(-89.061 -311.048)" fill="#bdc3c7"/>
          </g>
          <g id="Grupo_55108" data-name="Grupo 55108" transform="translate(28.397 126.566)">
            <path id="Trazado_118842" data-name="Trazado 118842" d="M139.55,367.778l6.965-3.91v-5.675l-6.965,3.937Z" transform="translate(-72.577 -318.639)" fill="#bdc3c7"/>
            <path id="Trazado_118843" data-name="Trazado 118843" d="M137.553,356.976l-6.965,3.9V347.747l6.965,4.085Z" transform="translate(-79.688 -326.927)" fill="#bdc3c7"/>
            <path id="Trazado_118844" data-name="Trazado 118844" d="M176.144,375.693l-6.965,3.937-66.973-39.573,6.965-3.919Z" transform="translate(-102.206 -336.138)" fill="#bdc3c7"/>
          </g>
          <g id="Grupo_55109" data-name="Grupo 55109">
            <path id="Trazado_118845" data-name="Trazado 118845" d="M90.606,265.566l-4.233,1.861v.1l123.678,72.644,3.838-2.154Z" transform="translate(-86.373 -265.566)" fill="#21587b"/>
            <path id="Trazado_118846" data-name="Trazado 118846" d="M159.327,306.075l-.417-.245-3.771,2.4h.349v81.877l3.838-2.046Z" transform="translate(-31.811 -233.619)" fill="#21587b"/>
          </g>
          <path id="Trazado_118847" data-name="Trazado 118847" d="M210.139,339.326,86.373,266.6v81.836l123.766,72.722Z" transform="translate(-86.373 -264.742)" fill="#00223d"/>
          <path id="Trazado_118848" data-name="Trazado 118848" d="M88.763,347.393V271.215l114.122,67.116v76.179Z" transform="translate(-84.476 -261.084)" fill="#21587b"/>
          <path id="Trazado_118849" data-name="Trazado 118849" d="M210.139,402.053v-17.1L86.373,312.235v17.1l44.47,26.13v13.06l-16.073-9.5v5.657l66.973,39.573V398.6l-16.073-9.5V375.923Z" transform="translate(-86.373 -228.537)" fill="#ecf0f1"/>
        </g>
        <g id="Grupo_55112" data-name="Grupo 55112" transform="translate(4.286 10.131)">
          <path id="Trazado_118850" data-name="Trazado 118850" d="M88.763,277.123v-5.908l114.122,67.116v5.908Z" transform="translate(-88.763 -271.215)" fill="#ecf0f1"/>
          <g id="Grupo_55111" data-name="Grupo 55111" transform="translate(99.992 62.607)">
            <path id="Trazado_118851" data-name="Trazado 118851" d="M148.522,309.32l3.264-1.593.462.86-3.264,1.593Z" transform="translate(-141.34 -304.852)" fill="#21587b"/>
            <path id="Trazado_118852" data-name="Trazado 118852" d="M152.247,312.244l-3.264-5.437-.462.315,3.264,5.438Z" transform="translate(-141.34 -305.582)" fill="#21587b"/>
            <path id="Trazado_118853" data-name="Trazado 118853" d="M148.959,309.484l-4.435-2.557-.007-.8,4.435,2.558Z" transform="translate(-144.517 -306.124)" fill="#21587b"/>
          </g>
        </g>
        <g id="Grupo_55120" data-name="Grupo 55120" transform="translate(9.647 25.973)">
          <path id="Trazado_118854" data-name="Trazado 118854" d="M125.3,358.048,91.752,338.679V280.048L125.3,299.417Z" transform="translate(-91.752 -280.048)" fill="#ecf0f1"/>
          <path id="Trazado_118855" data-name="Trazado 118855" d="M156.817,376.245l-17.247-9.957V307.657l17.247,9.958Z" transform="translate(-53.81 -258.143)" fill="#ecf0f1"/>
          <path id="Trazado_118856" data-name="Trazado 118856" d="M155.527,331.082l-42.192-24.36V292.509l42.192,24.359Z" transform="translate(-74.627 -270.161)" fill="#ecf0f1"/>
          <g id="Grupo_55113" data-name="Grupo 55113" transform="translate(39.224 43.522)">
            <path id="Trazado_118857" data-name="Trazado 118857" d="M155.3,330.746l-41.676-24.062v-2.369L155.3,328.377Z" transform="translate(-113.623 -304.316)" fill="#ecf0f1"/>
          </g>
          <g id="Grupo_55114" data-name="Grupo 55114" transform="translate(39.224 49.445)">
            <path id="Trazado_118858" data-name="Trazado 118858" d="M155.3,334.049l-41.676-24.062v-2.369L155.3,331.68Z" transform="translate(-113.623 -307.618)" fill="#ecf0f1"/>
          </g>
          <g id="Grupo_55115" data-name="Grupo 55115" transform="translate(39.224 55.367)">
            <path id="Trazado_118859" data-name="Trazado 118859" d="M155.3,337.351l-41.676-24.061V310.92L155.3,334.982Z" transform="translate(-113.623 -310.92)" fill="#ecf0f1"/>
          </g>
          <g id="Grupo_55116" data-name="Grupo 55116" transform="translate(39.224 61.289)">
            <path id="Trazado_118860" data-name="Trazado 118860" d="M155.3,340.653l-41.676-24.062v-2.369L155.3,338.284Z" transform="translate(-113.623 -314.223)" fill="#ecf0f1"/>
          </g>
          <g id="Grupo_55117" data-name="Grupo 55117" transform="translate(39.224 67.212)">
            <path id="Trazado_118861" data-name="Trazado 118861" d="M155.3,343.955l-41.676-24.062v-2.369L155.3,341.586Z" transform="translate(-113.623 -317.525)" fill="#ecf0f1"/>
          </g>
          <g id="Grupo_55118" data-name="Grupo 55118" transform="translate(39.224 73.134)">
            <path id="Trazado_118862" data-name="Trazado 118862" d="M155.3,347.258,113.623,323.2v-2.369L155.3,344.889Z" transform="translate(-113.623 -320.827)" fill="#ecf0f1"/>
          </g>
          <g id="Grupo_55119" data-name="Grupo 55119" transform="translate(39.224 79.056)">
            <path id="Trazado_118863" data-name="Trazado 118863" d="M155.3,350.56,113.623,326.5v-2.369L155.3,348.191Z" transform="translate(-113.623 -324.129)" fill="#ecf0f1"/>
          </g>
        </g>
      </g>
      <g id="Grupo_55122" data-name="Grupo 55122" transform="translate(0 125.289)">
        <path id="Trazado_118864" data-name="Trazado 118864" d="M166.559,433.449,50.715,366.567l53.066-29.6,115.843,66.882Z" transform="translate(-50.715 -334.205)" fill="#bdc3c7"/>
        <path id="Trazado_118865" data-name="Trazado 118865" d="M50.715,351.932v2.759l3.219.561,2.392-2.635Z" transform="translate(-50.715 -322.329)" fill="#bcbec0"/>
        <path id="Trazado_118866" data-name="Trazado 118866" d="M146.626,372.719v2.759l-3.907-.931Z" transform="translate(22.284 -305.837)" fill="#bcbec0"/>
        <path id="Trazado_118867" data-name="Trazado 118867" d="M166.559,431.911,50.715,365.028l53.066-29.6,115.843,66.882Z" transform="translate(-50.715 -335.426)" fill="#ecf0f1"/>
      </g>
      <g id="Grupo_55125" data-name="Grupo 55125" transform="translate(138.493 207.325)">
        <g id="Grupo_55123" data-name="Grupo 55123">
          <path id="Trazado_118868" data-name="Trazado 118868" d="M158.891,401.332c-8.583,4.955-20.723,5.979-27.115,2.288s-4.618-10.7,3.965-15.655,20.721-5.979,27.113-2.288S167.472,396.377,158.891,401.332Z" transform="translate(-127.938 -379.349)" fill="#bdc3c7"/>
          <path id="Trazado_118869" data-name="Trazado 118869" d="M151.025,385.653v4.7h-3.338Z" transform="translate(-112.269 -377.61)" fill="#bcbec0"/>
          <path id="Trazado_118870" data-name="Trazado 118870" d="M127.938,389.377v4.267h2.339l1.709-1.71Z" transform="translate(-127.938 -374.655)" fill="#bcbec0"/>
          <path id="Trazado_118871" data-name="Trazado 118871" d="M158.891,399.039c-8.583,4.955-20.723,5.979-27.115,2.288s-4.618-10.7,3.965-15.655,20.721-5.979,27.113-2.288S167.472,394.084,158.891,399.039Z" transform="translate(-127.938 -381.168)" fill="#e2e2e2"/>
        </g>
        <path id="Trazado_118872" data-name="Trazado 118872" d="M139.633,389.691l-.029-.016a.858.858,0,0,1-.009-1.625l6.887-3.974a3.108,3.108,0,0,1,2.812,0l.029.018a.857.857,0,0,1,.009,1.623l-6.887,3.976A3.113,3.113,0,0,1,139.633,389.691Z" transform="translate(-119.147 -379.126)" fill="#bdc3c7"/>
        <path id="Trazado_118873" data-name="Trazado 118873" d="M150.126,382.519c-.156-.091-.319-.176-.482-.26l-5.664,3.26.586,1.02,6.241-3.592C150.591,382.8,150.366,382.657,150.126,382.519Z" transform="translate(-115.21 -380.303)" fill="#bdc3c7"/>
        <g id="Grupo_55124" data-name="Grupo 55124" transform="translate(22.22 4.482)">
          <path id="Trazado_118874" data-name="Trazado 118874" d="M146.949,384.076l-2.475,1.359.237.029-2.52,1.454-.005-.014-1.853-.335v1.643h0a.68.68,0,0,0,.348.382l.029.016a1.359,1.359,0,0,0,1.191.118l4.9-2.826a.278.278,0,0,0,.138-.178l.009,0Z" transform="translate(-140.323 -383.343)" fill="#262626"/>
          <path id="Trazado_118875" data-name="Trazado 118875" d="M140.689,387.273c-.386-.222-.477-.531-.2-.687l4.9-2.828a1.359,1.359,0,0,1,1.191.118c.414.239.506.547.233.7l-4.9,2.828a1.359,1.359,0,0,1-1.191-.118Z" transform="translate(-140.327 -383.668)" fill="#2b2b2b"/>
        </g>
      </g>
      <g id="Grupo_55262" data-name="Grupo 55262" transform="translate(11.241 131.712)">
        <g id="Grupo_55127" data-name="Grupo 55127" transform="translate(34.175)" style="isolation: isolate">
          <g id="Grupo_55126" data-name="Grupo 55126">
            <path id="Trazado_118876" data-name="Trazado 118876" d="M87.424,343.08c.2.115.2.294.018.4l-3.748,2.15a.766.766,0,0,1-.692-.014l-6.808-3.981c-.2-.115-.208-.3-.022-.4l3.748-2.15a.774.774,0,0,1,.7.016Z" transform="translate(-76.039 -339.007)" fill="#00223d"/>
          </g>
        </g>
        <g id="Grupo_55129" data-name="Grupo 55129" transform="translate(43.033 5.179)" style="isolation: isolate">
          <g id="Grupo_55128" data-name="Grupo 55128">
            <path id="Trazado_118877" data-name="Trazado 118877" d="M91.061,345.206c.2.117.208.3.022.4l-3.748,2.15a.763.763,0,0,1-.7-.016l-5.506-3.219c-.2-.115-.208-.3-.022-.4l3.748-2.15a.774.774,0,0,1,.7.016Z" transform="translate(-80.978 -341.895)" fill="#00223d"/>
          </g>
        </g>
        <g id="Grupo_55131" data-name="Grupo 55131" transform="translate(50.554 9.577)" style="isolation: isolate">
          <g id="Grupo_55130" data-name="Grupo 55130">
            <path id="Trazado_118878" data-name="Trazado 118878" d="M95.259,347.661c.2.115.208.3.021.4l-3.748,2.15a.769.769,0,0,1-.7-.016l-5.511-3.223c-.2-.115-.206-.3-.02-.4l3.748-2.15a.774.774,0,0,1,.7.016Z" transform="translate(-85.172 -344.347)" fill="#00223d"/>
          </g>
        </g>
        <g id="Grupo_55133" data-name="Grupo 55133" transform="translate(58.078 13.976)" style="isolation: isolate">
          <g id="Grupo_55132" data-name="Grupo 55132">
            <path id="Trazado_118879" data-name="Trazado 118879" d="M99.452,350.112c.2.115.208.3.022.4l-3.748,2.15a.769.769,0,0,1-.7-.016l-5.511-3.221c-.2-.117-.2-.3-.018-.4l3.748-2.15a.759.759,0,0,1,.694.014Z" transform="translate(-89.366 -346.8)" fill="#00223d"/>
          </g>
        </g>
        <g id="Grupo_55135" data-name="Grupo 55135" transform="translate(65.601 18.375)" style="isolation: isolate">
          <g id="Grupo_55134" data-name="Grupo 55134">
            <path id="Trazado_118880" data-name="Trazado 118880" d="M103.645,352.564c.2.117.208.3.022.4l-3.748,2.15a.768.768,0,0,1-.7-.016l-5.508-3.219c-.2-.115-.206-.3-.02-.4l3.746-2.15a.768.768,0,0,1,.7.016Z" transform="translate(-93.562 -349.253)" fill="#00223d"/>
          </g>
        </g>
        <g id="Grupo_55137" data-name="Grupo 55137" transform="translate(73.122 22.773)" style="isolation: isolate">
          <g id="Grupo_55136" data-name="Grupo 55136">
            <path id="Trazado_118881" data-name="Trazado 118881" d="M107.843,355.019c.2.115.206.3.02.4l-3.746,2.15a.778.778,0,0,1-.7-.016l-5.509-3.223c-.2-.115-.206-.3-.022-.4l3.748-2.15a.774.774,0,0,1,.7.016Z" transform="translate(-97.755 -351.705)" fill="#00223d"/>
          </g>
        </g>
        <g id="Grupo_55139" data-name="Grupo 55139" transform="translate(80.645 27.172)" style="isolation: isolate">
          <g id="Grupo_55138" data-name="Grupo 55138">
            <path id="Trazado_118882" data-name="Trazado 118882" d="M112.037,357.471c.2.115.206.3.02.4l-3.746,2.15a.778.778,0,0,1-.7-.016l-5.509-3.223c-.2-.115-.2-.294-.018-.4l3.748-2.15a.755.755,0,0,1,.692.014Z" transform="translate(-101.95 -354.158)" fill="#00223d"/>
          </g>
        </g>
        <g id="Grupo_55141" data-name="Grupo 55141" transform="translate(88.168 31.571)" style="isolation: isolate">
          <g id="Grupo_55140" data-name="Grupo 55140">
            <path id="Trazado_118883" data-name="Trazado 118883" d="M116.228,359.922c.2.115.208.3.022.4l-3.748,2.15a.756.756,0,0,1-.692-.014L106.3,359.24c-.2-.115-.208-.3-.022-.4l3.748-2.15a.769.769,0,0,1,.7.016Z" transform="translate(-106.145 -356.611)" fill="#00223d"/>
          </g>
        </g>
        <g id="Grupo_55143" data-name="Grupo 55143" transform="translate(95.69 35.968)" style="isolation: isolate">
          <g id="Grupo_55142" data-name="Grupo 55142">
            <path id="Trazado_118884" data-name="Trazado 118884" d="M120.426,362.376c.2.117.208.3.022.4l-3.748,2.152a.774.774,0,0,1-.7-.016l-5.509-3.223c-.2-.115-.208-.3-.022-.4l3.748-2.15a.769.769,0,0,1,.7.016Z" transform="translate(-110.339 -359.063)" fill="#00223d"/>
          </g>
        </g>
        <g id="Grupo_55145" data-name="Grupo 55145" transform="translate(103.213 40.367)" style="isolation: isolate">
          <g id="Grupo_55144" data-name="Grupo 55144">
            <path id="Trazado_118885" data-name="Trazado 118885" d="M124.619,364.829c.2.115.208.3.022.4l-3.748,2.15a.774.774,0,0,1-.7-.016l-5.509-3.223c-.2-.115-.2-.294-.018-.4l3.748-2.152a.766.766,0,0,1,.692.014Z" transform="translate(-114.534 -361.516)" fill="#00223d"/>
          </g>
        </g>
        <g id="Grupo_55147" data-name="Grupo 55147" transform="translate(110.736 44.767)" style="isolation: isolate">
          <g id="Grupo_55146" data-name="Grupo 55146">
            <path id="Trazado_118886" data-name="Trazado 118886" d="M128.816,367.282c.2.115.2.294.018.4l-3.748,2.15a.758.758,0,0,1-.7-.016l-5.508-3.219c-.2-.115-.206-.3-.02-.4l3.746-2.15a.772.772,0,0,1,.7.016Z" transform="translate(-118.729 -363.969)" fill="#00223d"/>
          </g>
        </g>
        <g id="Grupo_55149" data-name="Grupo 55149" transform="translate(118.257 49.164)" style="isolation: isolate">
          <g id="Grupo_55148" data-name="Grupo 55148">
            <path id="Trazado_118887" data-name="Trazado 118887" d="M133.01,369.734c.2.117.208.3.022.4l-3.748,2.15a.763.763,0,0,1-.7-.016l-5.511-3.221c-.2-.115-.206-.3-.022-.4l3.748-2.15a.772.772,0,0,1,.7.016Z" transform="translate(-122.922 -366.421)" fill="#00223d"/>
          </g>
        </g>
        <g id="Grupo_55151" data-name="Grupo 55151" transform="translate(125.78 53.564)" style="isolation: isolate">
          <g id="Grupo_55150" data-name="Grupo 55150">
            <path id="Trazado_118888" data-name="Trazado 118888" d="M137.2,372.186c.2.115.206.3.022.4l-3.748,2.152a.774.774,0,0,1-.7-.016L127.27,371.5c-.2-.115-.2-.294-.018-.4l3.748-2.15a.774.774,0,0,1,.7.016Z" transform="translate(-127.117 -368.874)" fill="#00223d"/>
          </g>
        </g>
        <g id="Grupo_55153" data-name="Grupo 55153" transform="translate(132.593 57.547)" style="isolation: isolate">
          <g id="Grupo_55152" data-name="Grupo 55152">
            <path id="Trazado_118889" data-name="Trazado 118889" d="M142.462,375.261c.2.115.208.3.022.4l-3.748,2.15a.769.769,0,0,1-.7-.016l-6.969-4.075c-.2-.115-.208-.3-.022-.4l3.748-2.15a.769.769,0,0,1,.7.016Z" transform="translate(-130.916 -371.095)" fill="#00223d"/>
          </g>
        </g>
        <g id="Grupo_55155" data-name="Grupo 55155" transform="translate(27.333 3.179)" style="isolation: isolate">
          <g id="Grupo_55154" data-name="Grupo 55154">
            <path id="Trazado_118890" data-name="Trazado 118890" d="M84.909,344.851c.2.117.2.3.018.4l-5.049,2.9a.761.761,0,0,1-.692-.013l-6.808-3.981c-.2-.115-.208-.3-.022-.4l5.049-2.9a.769.769,0,0,1,.7.016Z" transform="translate(-72.224 -340.78)" fill="#00223d"/>
          </g>
        </g>
        <g id="Grupo_55157" data-name="Grupo 55157" transform="translate(36.169 8.346)" style="isolation: isolate">
          <g id="Grupo_55156" data-name="Grupo 55156">
            <path id="Trazado_118891" data-name="Trazado 118891" d="M88.635,347.029c.2.117.206.3.022.4l-5.05,2.9a.774.774,0,0,1-.7-.016l-5.6-3.278c-.2-.115-.208-.3-.022-.4l5.049-2.9a.769.769,0,0,1,.7.016Z" transform="translate(-77.151 -343.661)" fill="#00223d"/>
          </g>
        </g>
        <g id="Grupo_55159" data-name="Grupo 55159" transform="translate(43.797 12.806)" style="isolation: isolate">
          <g id="Grupo_55158" data-name="Grupo 55158">
            <path id="Trazado_118892" data-name="Trazado 118892" d="M92.888,349.517c.2.115.206.3.02.4l-5.049,2.9a.763.763,0,0,1-.7-.016l-5.6-3.277c-.2-.115-.208-.3-.022-.4l5.049-2.9a.763.763,0,0,1,.7.016Z" transform="translate(-81.404 -346.148)" fill="#00223d"/>
          </g>
        </g>
        <g id="Grupo_55161" data-name="Grupo 55161" transform="translate(51.424 17.265)" style="isolation: isolate">
          <g id="Grupo_55160" data-name="Grupo 55160">
            <path id="Trazado_118893" data-name="Trazado 118893" d="M97.139,352c.2.115.208.3.022.4l-5.048,2.9a.769.769,0,0,1-.7-.016l-5.606-3.278c-.2-.115-.206-.3-.022-.4l5.05-2.9a.774.774,0,0,1,.7.016Z" transform="translate(-85.656 -348.634)" fill="#00223d"/>
          </g>
        </g>
        <g id="Grupo_55163" data-name="Grupo 55163" transform="translate(59.05 21.725)" style="isolation: isolate">
          <g id="Grupo_55162" data-name="Grupo 55162">
            <path id="Trazado_118894" data-name="Trazado 118894" d="M101.393,354.489c.2.117.208.3.022.4l-5.05,2.9a.774.774,0,0,1-.7-.016l-5.6-3.278c-.2-.115-.208-.3-.022-.4l5.048-2.9a.772.772,0,0,1,.7.016Z" transform="translate(-89.909 -351.121)" fill="#00223d"/>
          </g>
        </g>
        <g id="Grupo_55165" data-name="Grupo 55165" transform="translate(66.677 26.184)" style="isolation: isolate">
          <g id="Grupo_55164" data-name="Grupo 55164">
            <path id="Trazado_118895" data-name="Trazado 118895" d="M105.646,356.977c.2.115.206.3.02.4l-5.049,2.9a.769.769,0,0,1-.7-.016l-5.6-3.277c-.2-.117-.208-.3-.022-.4l5.049-2.9a.768.768,0,0,1,.7.014Z" transform="translate(-94.162 -353.607)" fill="#00223d"/>
          </g>
        </g>
        <g id="Grupo_55167" data-name="Grupo 55167" transform="translate(74.305 30.644)" style="isolation: isolate">
          <g id="Grupo_55166" data-name="Grupo 55166">
            <path id="Trazado_118896" data-name="Trazado 118896" d="M109.9,359.464c.2.115.208.3.022.4l-5.049,2.9a.774.774,0,0,1-.7-.016l-5.6-3.278c-.2-.115-.208-.3-.022-.4l5.048-2.9a.769.769,0,0,1,.7.016Z" transform="translate(-98.415 -356.094)" fill="#00223d"/>
          </g>
        </g>
        <g id="Grupo_55169" data-name="Grupo 55169" transform="translate(81.93 35.103)" style="isolation: isolate">
          <g id="Grupo_55168" data-name="Grupo 55168">
            <path id="Trazado_118897" data-name="Trazado 118897" d="M114.151,361.949c.2.115.208.3.022.4l-5.049,2.9a.766.766,0,0,1-.7-.016l-5.6-3.277c-.2-.115-.208-.3-.022-.4l5.05-2.9a.763.763,0,0,1,.7.016Z" transform="translate(-102.667 -358.581)" fill="#00223d"/>
          </g>
        </g>
        <g id="Grupo_55171" data-name="Grupo 55171" transform="translate(89.56 39.564)" style="isolation: isolate">
          <g id="Grupo_55170" data-name="Grupo 55170">
            <path id="Trazado_118898" data-name="Trazado 118898" d="M118.4,364.436c.2.117.206.3.02.4l-5.048,2.9a.761.761,0,0,1-.692-.014l-5.608-3.278c-.2-.117-.2-.3-.018-.4l5.048-2.9a.761.761,0,0,1,.692.013Z" transform="translate(-106.921 -361.068)" fill="#00223d"/>
          </g>
        </g>
        <g id="Grupo_55173" data-name="Grupo 55173" transform="translate(97.187 44.024)" style="isolation: isolate">
          <g id="Grupo_55172" data-name="Grupo 55172">
            <path id="Trazado_118899" data-name="Trazado 118899" d="M122.658,366.925c.2.115.2.294.018.4l-5.049,2.9a.767.767,0,0,1-.692-.014l-5.608-3.28c-.2-.115-.2-.294-.018-.4l5.049-2.9a.766.766,0,0,1,.692.014Z" transform="translate(-111.174 -363.555)" fill="#00223d"/>
          </g>
        </g>
        <g id="Grupo_55175" data-name="Grupo 55175" transform="translate(104.814 48.483)" style="isolation: isolate">
          <g id="Grupo_55174" data-name="Grupo 55174">
            <path id="Trazado_118900" data-name="Trazado 118900" d="M126.911,369.411c.2.115.208.3.021.4l-5.048,2.9a.778.778,0,0,1-.7-.016l-5.608-3.28c-.194-.113-.2-.294-.018-.4l5.05-2.9a.755.755,0,0,1,.692.014Z" transform="translate(-115.426 -366.041)" fill="#00223d"/>
          </g>
        </g>
        <g id="Grupo_55177" data-name="Grupo 55177" transform="translate(112.442 52.944)" style="isolation: isolate">
          <g id="Grupo_55176" data-name="Grupo 55176">
            <path id="Trazado_118901" data-name="Trazado 118901" d="M131.164,371.9c.2.115.206.3.022.4l-5.05,2.9a.769.769,0,0,1-.7-.016l-5.6-3.277c-.2-.117-.208-.3-.022-.4l5.049-2.9a.774.774,0,0,1,.7.016Z" transform="translate(-119.68 -368.528)" fill="#00223d"/>
          </g>
        </g>
        <g id="Grupo_55179" data-name="Grupo 55179" transform="translate(20.595 7.046)" style="isolation: isolate">
          <g id="Grupo_55178" data-name="Grupo 55178">
            <path id="Trazado_118902" data-name="Trazado 118902" d="M82.476,347.783c.2.115.208.3.022.4l-5.049,2.9a.767.767,0,0,1-.692-.018l-8.137-4.753c-.2-.117-.2-.3-.022-.4l5.049-2.9a.774.774,0,0,1,.7.016Z" transform="translate(-68.466 -342.936)" fill="#00223d"/>
          </g>
        </g>
        <g id="Grupo_55181" data-name="Grupo 55181" transform="translate(30.869 13.054)" style="isolation: isolate">
          <g id="Grupo_55180" data-name="Grupo 55180">
            <path id="Trazado_118903" data-name="Trazado 118903" d="M85.678,349.656c.2.115.206.3.02.4l-5.049,2.9a.78.78,0,0,1-.7-.016l-5.6-3.278c-.2-.115-.2-.3-.022-.4l5.049-2.9a.774.774,0,0,1,.7.016Z" transform="translate(-74.195 -346.286)" fill="#00223d"/>
          </g>
        </g>
        <g id="Grupo_55183" data-name="Grupo 55183" transform="translate(13.857 10.912)" style="isolation: isolate">
          <g id="Grupo_55182" data-name="Grupo 55182">
            <path id="Trazado_118904" data-name="Trazado 118904" d="M80.268,350.844c.2.115.208.3.022.4l-5.049,2.9a.772.772,0,0,1-.7-.016l-9.679-5.66c-.2-.115-.208-.3-.022-.4l5.049-2.9a.763.763,0,0,1,.7.016Z" transform="translate(-64.71 -345.092)" fill="#00223d"/>
          </g>
        </g>
        <g id="Grupo_55185" data-name="Grupo 55185" transform="translate(38.498 17.514)" style="isolation: isolate">
          <g id="Grupo_55184" data-name="Grupo 55184">
            <path id="Trazado_118905" data-name="Trazado 118905" d="M89.929,352.141c.2.117.208.3.022.4l-5.049,2.9a.786.786,0,0,1-.7-.016l-5.6-3.28c-.2-.116-.2-.3-.023-.4l5.048-2.9a.769.769,0,0,1,.7.016Z" transform="translate(-78.449 -348.773)" fill="#00223d"/>
          </g>
        </g>
        <g id="Grupo_55187" data-name="Grupo 55187" transform="translate(46.122 21.973)" style="isolation: isolate">
          <g id="Grupo_55186" data-name="Grupo 55186">
            <path id="Trazado_118906" data-name="Trazado 118906" d="M94.183,354.629c.2.115.208.3.022.4l-5.048,2.9a.775.775,0,0,1-.7-.016l-5.606-3.277c-.2-.117-.2-.3-.022-.4l5.05-2.9a.769.769,0,0,1,.7.014Z" transform="translate(-82.7 -351.259)" fill="#00223d"/>
          </g>
        </g>
        <g id="Grupo_55189" data-name="Grupo 55189" transform="translate(53.75 26.433)" style="isolation: isolate">
          <g id="Grupo_55188" data-name="Grupo 55188">
            <path id="Trazado_118907" data-name="Trazado 118907" d="M98.436,357.114c.2.117.206.3.022.405l-5.05,2.9a.78.78,0,0,1-.7-.016l-5.6-3.278c-.2-.115-.2-.3-.022-.4l5.049-2.9a.768.768,0,0,1,.7.016Z" transform="translate(-86.953 -353.746)" fill="#00223d"/>
          </g>
        </g>
        <g id="Grupo_55191" data-name="Grupo 55191" transform="translate(61.377 30.892)" style="isolation: isolate">
          <g id="Grupo_55190" data-name="Grupo 55190">
            <path id="Trazado_118908" data-name="Trazado 118908" d="M102.689,359.6c.2.115.206.3.02.4l-5.048,2.9a.769.769,0,0,1-.7-.016l-5.6-3.277c-.2-.115-.2-.3-.022-.4l5.049-2.9a.763.763,0,0,1,.7.016Z" transform="translate(-91.206 -356.233)" fill="#00223d"/>
          </g>
        </g>
        <g id="Grupo_55193" data-name="Grupo 55193" transform="translate(69.005 35.352)" style="isolation: isolate">
          <g id="Grupo_55192" data-name="Grupo 55192">
            <path id="Trazado_118909" data-name="Trazado 118909" d="M106.94,362.089c.2.115.208.3.022.4l-5.049,2.9a.774.774,0,0,1-.7-.016L95.611,362.1c-.2-.117-.2-.3-.02-.4l5.048-2.9a.769.769,0,0,1,.7.014Z" transform="translate(-95.459 -358.719)" fill="#00223d"/>
          </g>
        </g>
        <g id="Grupo_55195" data-name="Grupo 55195" transform="translate(76.631 39.812)" style="isolation: isolate">
          <g id="Grupo_55194" data-name="Grupo 55194">
            <path id="Trazado_118910" data-name="Trazado 118910" d="M111.194,364.576c.2.115.206.3.022.4l-5.05,2.9a.78.78,0,0,1-.7-.016l-5.6-3.278c-.2-.115-.2-.3-.022-.4l5.048-2.9a.768.768,0,0,1,.7.016Z" transform="translate(-99.711 -361.206)" fill="#00223d"/>
          </g>
        </g>
        <g id="Grupo_55197" data-name="Grupo 55197" transform="translate(84.258 44.271)" style="isolation: isolate">
          <g id="Grupo_55196" data-name="Grupo 55196">
            <path id="Trazado_118911" data-name="Trazado 118911" d="M115.445,367.062c.2.115.208.3.022.4l-5.048,2.9a.769.769,0,0,1-.7-.016l-5.6-3.277c-.2-.115-.2-.3-.022-.4l5.049-2.9a.763.763,0,0,1,.7.016Z" transform="translate(-103.964 -363.693)" fill="#00223d"/>
          </g>
        </g>
        <g id="Grupo_55199" data-name="Grupo 55199" transform="translate(91.885 48.732)" style="isolation: isolate">
          <g id="Grupo_55198" data-name="Grupo 55198">
            <path id="Trazado_118912" data-name="Trazado 118912" d="M119.7,369.55c.2.115.2.294.018.4l-5.049,2.9a.766.766,0,0,1-.692-.014l-5.61-3.28c-.2-.115-.2-.3-.02-.4l5.052-2.9a.766.766,0,0,1,.692.014Z" transform="translate(-108.217 -366.18)" fill="#00223d"/>
          </g>
        </g>
        <g id="Grupo_55201" data-name="Grupo 55201" transform="translate(99.513 53.192)" style="isolation: isolate">
          <g id="Grupo_55200" data-name="Grupo 55200">
            <path id="Trazado_118913" data-name="Trazado 118913" d="M123.955,372.036c.2.117.2.3.018.4l-5.049,2.9a.776.776,0,0,1-.694-.014l-5.608-3.28c-.2-.115-.2-.3-.018-.4l5.048-2.9a.764.764,0,0,1,.694.014Z" transform="translate(-112.47 -368.666)" fill="#00223d"/>
          </g>
        </g>
        <g id="Grupo_55203" data-name="Grupo 55203" transform="translate(107.142 57.652)" style="isolation: isolate">
          <g id="Grupo_55202" data-name="Grupo 55202">
            <path id="Trazado_118914" data-name="Trazado 118914" d="M128.207,374.523c.2.115.206.3.02.4l-5.049,2.9a.769.769,0,0,1-.7-.016l-5.6-3.277c-.2-.115-.2-.3-.022-.4l5.048-2.9a.763.763,0,0,1,.7.016Z" transform="translate(-116.724 -371.154)" fill="#00223d"/>
          </g>
        </g>
        <g id="Grupo_55205" data-name="Grupo 55205" transform="translate(25.57 17.76)" style="isolation: isolate">
          <g id="Grupo_55204" data-name="Grupo 55204">
            <path id="Trazado_118915" data-name="Trazado 118915" d="M82.725,352.28c.2.115.206.3.02.4l-5.049,2.9a.769.769,0,0,1-.7-.016l-5.608-3.28c-.194-.113-.2-.294-.018-.4l5.049-2.9a.774.774,0,0,1,.7.016Z" transform="translate(-71.24 -348.91)" fill="#00223d"/>
          </g>
        </g>
        <g id="Grupo_55207" data-name="Grupo 55207" transform="translate(33.197 22.22)" style="isolation: isolate">
          <g id="Grupo_55206" data-name="Grupo 55206">
            <path id="Trazado_118916" data-name="Trazado 118916" d="M86.976,354.765c.2.117.208.3.022.4l-5.049,2.9a.774.774,0,0,1-.7-.016l-5.606-3.278c-.2-.115-.206-.3-.022-.4l5.05-2.9a.768.768,0,0,1,.7.016Z" transform="translate(-75.493 -351.397)" fill="#00223d"/>
          </g>
        </g>
        <g id="Grupo_55209" data-name="Grupo 55209" transform="translate(40.823 26.679)" style="isolation: isolate">
          <g id="Grupo_55208" data-name="Grupo 55208">
            <path id="Trazado_118917" data-name="Trazado 118917" d="M91.23,357.252c.2.115.208.3.02.4l-5.047,2.9a.767.767,0,0,1-.7-.016l-5.6-3.277c-.2-.115-.208-.3-.022-.4l5.049-2.9a.767.767,0,0,1,.7.016Z" transform="translate(-79.746 -353.884)" fill="#00223d"/>
          </g>
        </g>
        <g id="Grupo_55211" data-name="Grupo 55211" transform="translate(48.451 31.139)" style="isolation: isolate">
          <g id="Grupo_55210" data-name="Grupo 55210">
            <path id="Trazado_118918" data-name="Trazado 118918" d="M95.481,359.74c.2.115.208.3.022.4l-5.049,2.9a.768.768,0,0,1-.7-.016l-5.6-3.277c-.2-.117-.208-.3-.022-.4l5.049-2.9a.774.774,0,0,1,.7.016Z" transform="translate(-83.999 -356.37)" fill="#00223d"/>
          </g>
        </g>
        <g id="Grupo_55213" data-name="Grupo 55213" transform="translate(56.077 35.599)" style="isolation: isolate">
          <g id="Grupo_55212" data-name="Grupo 55212">
            <path id="Trazado_118919" data-name="Trazado 118919" d="M99.734,362.225c.2.117.208.3.022.4l-5.049,2.9a.774.774,0,0,1-.7-.016l-5.606-3.278c-.2-.115-.206-.3-.02-.4l5.049-2.9a.769.769,0,0,1,.7.016Z" transform="translate(-88.251 -358.857)" fill="#00223d"/>
          </g>
        </g>
        <g id="Grupo_55215" data-name="Grupo 55215" transform="translate(63.704 40.058)" style="isolation: isolate">
          <g id="Grupo_55214" data-name="Grupo 55214">
            <path id="Trazado_118920" data-name="Trazado 118920" d="M103.988,364.712c.2.115.208.3.022.4l-5.049,2.9a.767.767,0,0,1-.7-.016l-5.6-3.277c-.2-.115-.208-.3-.022-.4l5.05-2.9a.763.763,0,0,1,.7.016Z" transform="translate(-92.504 -361.344)" fill="#00223d"/>
          </g>
        </g>
        <g id="Grupo_55217" data-name="Grupo 55217" transform="translate(71.331 44.518)" style="isolation: isolate">
          <g id="Grupo_55216" data-name="Grupo 55216">
            <path id="Trazado_118921" data-name="Trazado 118921" d="M108.241,367.2c.2.115.206.3.02.4l-5.048,2.9a.769.769,0,0,1-.7-.016l-5.6-3.278c-.2-.115-.208-.3-.022-.4l5.049-2.9a.774.774,0,0,1,.7.016Z" transform="translate(-96.757 -363.83)" fill="#00223d"/>
          </g>
        </g>
        <g id="Grupo_55219" data-name="Grupo 55219" transform="translate(78.959 48.978)" style="isolation: isolate">
          <g id="Grupo_55218" data-name="Grupo 55218">
            <path id="Trazado_118922" data-name="Trazado 118922" d="M112.492,369.685c.2.117.208.3.021.4l-5.049,2.9a.763.763,0,0,1-.7-.016l-5.606-3.277c-.2-.115-.206-.3-.02-.4l5.048-2.9a.768.768,0,0,1,.7.016Z" transform="translate(-101.01 -366.317)" fill="#00223d"/>
          </g>
        </g>
        <g id="Grupo_55221" data-name="Grupo 55221" transform="translate(86.584 53.437)" style="isolation: isolate">
          <g id="Grupo_55220" data-name="Grupo 55220">
            <path id="Trazado_118923" data-name="Trazado 118923" d="M116.746,372.173c.2.115.208.3.022.4l-5.049,2.9a.769.769,0,0,1-.7-.016l-5.606-3.277c-.2-.117-.208-.3-.022-.4l5.048-2.9a.778.778,0,0,1,.7.016Z" transform="translate(-105.262 -368.803)" fill="#00223d"/>
          </g>
        </g>
        <g id="Grupo_55223" data-name="Grupo 55223" transform="translate(94.214 57.898)" style="isolation: isolate">
          <g id="Grupo_55222" data-name="Grupo 55222">
            <path id="Trazado_118924" data-name="Trazado 118924" d="M121,374.661c.2.115.2.294.016.4l-5.048,2.9a.767.767,0,0,1-.692-.014l-5.608-3.28c-.2-.115-.2-.294-.018-.4l5.048-2.9a.766.766,0,0,1,.692.014Z" transform="translate(-109.516 -371.291)" fill="#00223d"/>
          </g>
        </g>
        <g id="Grupo_55225" data-name="Grupo 55225" transform="translate(7.171 14.748)" style="isolation: isolate">
          <g id="Grupo_55224" data-name="Grupo 55224">
            <path id="Trazado_118925" data-name="Trazado 118925" d="M75.323,352.271c.2.117.206.3.02.4l-5.048,2.9a.78.78,0,0,1-.7-.016l-8.463-4.95c-.2-.115-.2-.3-.022-.4l5.049-2.9a.768.768,0,0,1,.7.016Z" transform="translate(-60.981 -347.231)" fill="#00223d"/>
          </g>
        </g>
        <g id="Grupo_55227" data-name="Grupo 55227" transform="translate(17.706 20.909)" style="isolation: isolate">
          <g id="Grupo_55226" data-name="Grupo 55226">
            <path id="Trazado_118926" data-name="Trazado 118926" d="M78.338,354.034c.2.115.208.3.022.4l-5.048,2.9a.778.778,0,0,1-.7-.014l-5.6-3.278c-.2-.115-.2-.3-.022-.4l5.049-2.9a.772.772,0,0,1,.7.016Z" transform="translate(-66.855 -350.666)" fill="#00223d"/>
          </g>
        </g>
        <g id="Grupo_55229" data-name="Grupo 55229" transform="translate(25.333 25.368)" style="isolation: isolate">
          <g id="Grupo_55228" data-name="Grupo 55228">
            <path id="Trazado_118927" data-name="Trazado 118927" d="M82.591,356.522c.2.115.206.3.02.4l-5.049,2.9a.775.775,0,0,1-.7-.016l-5.6-3.277c-.2-.117-.2-.3-.022-.4l5.049-2.9a.774.774,0,0,1,.7.016Z" transform="translate(-71.108 -353.152)" fill="#00223d"/>
          </g>
        </g>
        <g id="Grupo_55231" data-name="Grupo 55231" transform="translate(32.96 29.828)" style="isolation: isolate">
          <g id="Grupo_55230" data-name="Grupo 55230">
            <path id="Trazado_118928" data-name="Trazado 118928" d="M86.846,359.011c.2.115.2.294.018.4l-5.049,2.9a.78.78,0,0,1-.7-.016l-5.606-3.278c-.2-.115-.2-.3-.02-.4l5.049-2.9a.769.769,0,0,1,.7.016Z" transform="translate(-75.361 -355.639)" fill="#00223d"/>
          </g>
        </g>
        <g id="Grupo_55233" data-name="Grupo 55233" transform="translate(40.588 34.288)" style="isolation: isolate">
          <g id="Grupo_55232" data-name="Grupo 55232">
            <path id="Trazado_118929" data-name="Trazado 118929" d="M91.1,361.5c.2.115.2.3.018.4l-5.049,2.9a.761.761,0,0,1-.692-.014l-5.61-3.278c-.2-.115-.2-.3-.018-.4l5.048-2.9a.759.759,0,0,1,.694.014Z" transform="translate(-79.614 -358.126)" fill="#00223d"/>
          </g>
        </g>
        <g id="Grupo_55235" data-name="Grupo 55235" transform="translate(48.216 38.748)" style="isolation: isolate">
          <g id="Grupo_55234" data-name="Grupo 55234">
            <path id="Trazado_118930" data-name="Trazado 118930" d="M95.352,363.983c.2.115.206.3.022.4l-5.05,2.9a.775.775,0,0,1-.7-.016l-5.6-3.277c-.2-.118-.2-.3-.022-.4l5.049-2.9a.761.761,0,0,1,.692.012Z" transform="translate(-83.868 -360.613)" fill="#00223d"/>
          </g>
        </g>
        <g id="Grupo_55237" data-name="Grupo 55237" transform="translate(55.845 43.209)" style="isolation: isolate">
          <g id="Grupo_55236" data-name="Grupo 55236">
            <path id="Trazado_118931" data-name="Trazado 118931" d="M99.6,366.468c.2.117.208.3.022.4l-5.049,2.9a.78.78,0,0,1-.7-.016l-5.6-3.278c-.2-.115-.2-.3-.022-.4l5.048-2.9a.774.774,0,0,1,.7.016Z" transform="translate(-88.121 -363.1)" fill="#00223d"/>
          </g>
        </g>
        <g id="Grupo_55239" data-name="Grupo 55239" transform="translate(63.472 47.669)" style="isolation: isolate">
          <g id="Grupo_55238" data-name="Grupo 55238">
            <path id="Trazado_118932" data-name="Trazado 118932" d="M103.855,368.955c.2.115.208.3.022.4l-5.048,2.9a.772.772,0,0,1-.7-.016l-5.6-3.277c-.2-.115-.2-.3-.02-.4l5.048-2.9a.769.769,0,0,1,.7.016Z" transform="translate(-92.374 -365.587)" fill="#00223d"/>
          </g>
        </g>
        <g id="Grupo_55241" data-name="Grupo 55241" transform="translate(71.098 52.128)" style="isolation: isolate">
          <g id="Grupo_55240" data-name="Grupo 55240">
            <path id="Trazado_118933" data-name="Trazado 118933" d="M108.109,371.443c.2.115.206.3.022.4l-5.05,2.9a.775.775,0,0,1-.7-.016l-5.6-3.277c-.2-.117-.2-.3-.022-.4l5.048-2.9a.778.778,0,0,1,.7.016Z" transform="translate(-96.626 -368.073)" fill="#00223d"/>
          </g>
        </g>
        <g id="Grupo_55243" data-name="Grupo 55243" transform="translate(78.725 56.587)" style="isolation: isolate">
          <g id="Grupo_55242" data-name="Grupo 55242">
            <path id="Trazado_118934" data-name="Trazado 118934" d="M112.36,373.928c.2.117.208.3.022.4l-5.049,2.9a.78.78,0,0,1-.7-.016l-5.6-3.278c-.2-.115-.2-.3-.022-.4l5.049-2.9a.769.769,0,0,1,.7.016Z" transform="translate(-100.879 -370.56)" fill="#00223d"/>
          </g>
        </g>
        <g id="Grupo_55245" data-name="Grupo 55245" transform="translate(86.352 61.047)" style="isolation: isolate">
          <g id="Grupo_55244" data-name="Grupo 55244">
            <path id="Trazado_118935" data-name="Trazado 118935" d="M116.614,376.415c.2.115.208.3.022.4l-5.049,2.9a.774.774,0,0,1-.7-.016l-5.606-3.277c-.2-.115-.2-.3-.022-.4l5.05-2.9a.763.763,0,0,1,.7.016Z" transform="translate(-105.132 -373.047)" fill="#00223d"/>
          </g>
        </g>
        <g id="Grupo_55247" data-name="Grupo 55247" transform="translate(120.077 57.408)" style="isolation: isolate">
          <g id="Grupo_55246" data-name="Grupo 55246">
            <path id="Trazado_118936" data-name="Trazado 118936" d="M142.46,378.5c.2.115.206.3.02.4l-5.049,2.9a.769.769,0,0,1-.7-.016l-6.23-3.642-.714-.418-5.7-3.332c-.2-.117-.206-.3-.02-.4l5.049-2.9a.774.774,0,0,1,.7.016l5.7,3.334.714.416Z" transform="translate(-123.937 -371.017)" fill="#00223d"/>
          </g>
        </g>
        <g id="Grupo_55249" data-name="Grupo 55249" transform="translate(114.812 62.137)" style="isolation: isolate">
          <g id="Grupo_55248" data-name="Grupo 55248">
            <path id="Trazado_118937" data-name="Trazado 118937" d="M138.049,380.277c.2.117.206.3.02.4l-5.048,2.9a.767.767,0,0,1-.692-.02l-5.468-3.192-.717-.42-4.986-2.92c-.2-.115-.208-.3-.025-.4l5.049-2.9a.775.775,0,0,1,.694.014l4.993,2.92.717.42Z" transform="translate(-121.001 -373.654)" fill="#00223d"/>
          </g>
        </g>
        <g id="Grupo_55251" data-name="Grupo 55251" transform="translate(102.623 62.815)" style="isolation: isolate">
          <g id="Grupo_55250" data-name="Grupo 55250">
            <path id="Trazado_118938" data-name="Trazado 118938" d="M136.7,383.844c.2.115.208.3.022.4l-5.048,2.9a.774.774,0,0,1-.7-.016l-10.3-6.022-.717-.42-2.444-1.429-.717-.42-2.443-1.428c-.2-.117-.208-.3-.022-.4l5.049-2.9a.774.774,0,0,1,.7.016l2.444,1.429.717.42,2.444,1.429.717.42Z" transform="translate(-114.205 -374.032)" fill="#00223d"/>
          </g>
        </g>
        <g id="Grupo_55253" data-name="Grupo 55253" transform="translate(93.986 65.511)" style="isolation: isolate">
          <g id="Grupo_55252" data-name="Grupo 55252">
            <path id="Trazado_118939" data-name="Trazado 118939" d="M120.871,378.9c.2.115.206.3.022.4l-5.05,2.9a.774.774,0,0,1-.7-.016l-5.6-3.277c-.2-.115-.2-.3-.022-.4l5.048-2.9a.768.768,0,0,1,.7.014Z" transform="translate(-109.388 -375.535)" fill="#00223d"/>
          </g>
        </g>
        <g id="Grupo_55255" data-name="Grupo 55255" transform="translate(101.556 69.938)" style="isolation: isolate">
          <g id="Grupo_55254" data-name="Grupo 55254">
            <path id="Trazado_118940" data-name="Trazado 118940" d="M130.49,384.529c.2.115.206.3.02.4l-5.048,2.9a.769.769,0,0,1-.7-.016l-6.731-3.935c-.2-.115-.516-.3-.714-.418l-1.42-.83-.717-.42-1.42-.83c-.2-.115-.2-.3-.022-.4l5.05-2.9a.769.769,0,0,1,.7.016l1.42.83.717.42,1.42.83.714.418Z" transform="translate(-113.61 -378.004)" fill="#00223d"/>
          </g>
        </g>
        <path id="Trazado_118941" data-name="Trazado 118941" d="M68.275,352.754c.2.115.2.294.016.4l-5.049,2.9a.767.767,0,0,1-.692-.014l-5.411-3.164c-.2-.118-.208-.3-.022-.4l5.049-2.9a.769.769,0,0,1,.7.014Z" transform="translate(-56.983 -330.684)" fill="#00223d"/>
        <path id="Trazado_118942" data-name="Trazado 118942" d="M72.674,355.326c.2.115.208.3.022.4l-5.048,2.9a.763.763,0,0,1-.7-.016l-5.606-3.277c-.2-.115-.206-.3-.02-.4l5.048-2.9a.763.763,0,0,1,.7.016Z" transform="translate(-53.644 -328.732)" fill="#00223d"/>
        <path id="Trazado_118943" data-name="Trazado 118943" d="M76.928,357.814c.2.115.206.3.022.4l-5.05,2.9a.769.769,0,0,1-.7-.016l-5.6-3.278c-.2-.115-.208-.3-.022-.4l5.048-2.9a.774.774,0,0,1,.7.016Z" transform="translate(-50.27 -326.759)" fill="#00223d"/>
        <path id="Trazado_118944" data-name="Trazado 118944" d="M81.179,360.3c.2.118.208.3.022.4l-5.048,2.9a.768.768,0,0,1-.7-.014l-5.6-3.278c-.2-.115-.208-.3-.021-.4l5.048-2.9a.769.769,0,0,1,.7.016Z" transform="translate(-46.895 -324.786)" fill="#00223d"/>
        <path id="Trazado_118945" data-name="Trazado 118945" d="M124.978,385.909c.215.125.239.316.052.423l-5.047,2.9a.807.807,0,0,1-.728-.034L73.993,362.729c-.219-.129-.244-.317-.057-.425l5.05-2.9a.806.806,0,0,1,.73.036Z" transform="translate(-43.631 -322.878)" fill="#00223d"/>
        <path id="Trazado_118946" data-name="Trazado 118946" d="M111.391,377.966c.2.115.208.3.022.4l-5.048,2.9a.769.769,0,0,1-.7-.016l-5.6-3.277c-.2-.115-.208-.3-.022-.4l5.048-2.9a.769.769,0,0,1,.7.014Z" transform="translate(-22.924 -310.77)" fill="#00223d"/>
        <g id="Grupo_55257" data-name="Grupo 55257" transform="translate(84.611 68.286)" style="isolation: isolate">
          <g id="Grupo_55256" data-name="Grupo 55256">
            <path id="Trazado_118947" data-name="Trazado 118947" d="M115.644,380.451c.2.117.208.3.022.4l-5.048,2.9a.774.774,0,0,1-.7-.016l-5.606-3.278c-.2-.115-.206-.3-.022-.4l5.05-2.9a.769.769,0,0,1,.7.016Z" transform="translate(-104.161 -377.083)" fill="#00223d"/>
          </g>
        </g>
        <g id="Grupo_55259" data-name="Grupo 55259" transform="translate(95.307 72.746)" style="isolation: isolate">
          <g id="Grupo_55258" data-name="Grupo 55258">
            <path id="Trazado_118948" data-name="Trazado 118948" d="M118.539,382.938c.2.115.208.3.022.4l-1.98,1.135a.763.763,0,0,1-.7-.016l-5.606-3.277c-.2-.115-.206-.3-.02-.4l1.978-1.135a.772.772,0,0,1,.7.016Z" transform="translate(-110.126 -379.57)" fill="#00223d"/>
          </g>
        </g>
        <g id="Grupo_55261" data-name="Grupo 55261" transform="translate(92.237 74.508)" style="isolation: isolate">
          <g id="Grupo_55260" data-name="Grupo 55260">
            <path id="Trazado_118949" data-name="Trazado 118949" d="M116.827,383.92c.2.115.2.3.022.4l-1.978,1.135a.767.767,0,0,1-.7-.016l-5.6-3.277c-.2-.115-.208-.3-.022-.4l1.98-1.135a.775.775,0,0,1,.7.016Z" transform="translate(-108.414 -380.552)" fill="#00223d"/>
          </g>
        </g>
        <path id="Trazado_118950" data-name="Trazado 118950" d="M124.156,385.429c.2.115.2.294.018.4l-5.048,2.9a.756.756,0,0,1-.692-.014l-5.608-3.278c-.2-.115-.2-.294-.018-.4l5.048-2.9a.756.756,0,0,1,.692.014Z" transform="translate(-12.798 -304.849)" fill="#00223d"/>
      </g>
    </g>
    <g id="Grupo_55265" data-name="Grupo 55265" transform="translate(59.596 472.897)">
      <g id="Grupo_54957" data-name="Grupo 54957">
        <path id="Trazado_118700" data-name="Trazado 118700" d="M142.4,176.525l-18.031-10.41-17.62-10.174a1.548,1.548,0,0,0-1.441-.054l0-.012-.064.04c-.05.026-.1.057-.144.087l-2.62,1.613,1.912.229-.024,8.113-.073,26.278c.745,1.179,14.935,23.553,19.926,26.434,4.065,2.348,10.252-.58,14.312-2.132l3.035.406s2.648-1.589,2.66-1.594l.078-26.335.026-9.132A3.866,3.866,0,0,0,142.4,176.525Z" transform="translate(-101.632 -155.735)" fill="#21587b"/>
        <path id="Trazado_118701" data-name="Trazado 118701" d="M140.222,177.226a3.863,3.863,0,0,1,1.933,3.358l-.026,9.132L142.054,216c-.75.311-15.017,6.258-20.009,3.376s-19.181-25.258-19.926-26.436l.073-26.278.026-8.661a1.57,1.57,0,0,1,2.356-1.353l17.62,10.172Z" transform="translate(-102.119 -154.788)" fill="#00223d"/>
        <path id="Trazado_118702" data-name="Trazado 118702" d="M123.727,212.893a4.275,4.275,0,0,1-1.962-.3c-2.341-1.351-10.056-11.733-18.1-24.331l.078-27.658a1.517,1.517,0,0,1,2.275-1.309l27.79,16.045a5.159,5.159,0,0,1,2.579,4.482l-.087,30.065C132.591,211.27,127.274,212.893,123.727,212.893Z" transform="translate(-100.014 -151.174)" fill="url(#linear-gradient)"/>
      </g>
      <g id="Grupo_54958" data-name="Grupo 54958" transform="translate(8.097 17.881)">
        <path id="Trazado_118703" data-name="Trazado 118703" d="M110.477,171.344a4.594,4.594,0,0,1,2.084,3.608c0,.818-.361,1.335-.905,1.452l-.014,4.843-2.384-1.377.014-4.843a4.438,4.438,0,0,1-.894-2.49C108.38,171.207,109.321,170.677,110.477,171.344Z" transform="translate(-101.717 -152.811)" fill="#2c3e50"/>
        <path id="Trazado_118704" data-name="Trazado 118704" d="M108.519,167.125l.014-.068a4.523,4.523,0,0,1,.125-.49l.028-.085a4.31,4.31,0,0,1,.167-.424l.017-.04a3.725,3.725,0,0,1,.236-.429l.04-.054a3.182,3.182,0,0,1,.226-.3c.028-.035.059-.068.09-.1a2.693,2.693,0,0,1,.222-.212c.031-.028.061-.057.094-.083a2.852,2.852,0,0,1,.342-.238h0l-1.613.936a3.04,3.04,0,0,0-.34.238c-.033.026-.064.054-.1.082a2.677,2.677,0,0,0-.219.215q-.046.046-.092.1a3.179,3.179,0,0,0-.226.3l-.038.054-.009.012a4.125,4.125,0,0,0-.222.4l0,.014-.019.042c-.04.09-.08.182-.118.278-.017.047-.031.1-.047.144l-.028.087-.026.078c-.028.1-.057.2-.08.3l-.021.108-.014.068-.021.108c-.016.092-.031.186-.042.281-.007.052-.009.106-.016.16l0,.054-.007.068c-.007.092-.014.184-.016.276s-.007.189-.007.285v.017l-.012,4.143,1.61-.936.012-4.143c0-.224.012-.439.031-.646l.007-.054C108.458,167.483,108.484,167.3,108.519,167.125Z" transform="translate(-103.888 -161.574)" fill="#21587b"/>
        <path id="Trazado_118705" data-name="Trazado 118705" d="M116.048,177.03l0-.113-.007-.151c0-.052,0-.106-.007-.158,0-.085-.014-.17-.021-.252l-.009-.123,0-.05c-.014-.141-.031-.285-.049-.429l0-.045-.019-.12c-.012-.09-.024-.179-.038-.271l-.026-.149-.028-.165-.024-.132c-.017-.1-.038-.193-.059-.29l-.024-.123-.009-.04q-.05-.23-.106-.46l-.012-.04-.033-.132c-.026-.1-.05-.2-.078-.292l-.035-.125-.054-.179c-.014-.052-.028-.106-.045-.16-.035-.113-.073-.229-.108-.342l-1.613.936c.057.167.106.335.156.5l.052.179q.06.209.113.417l.035.132c.045.179.087.361.125.54l.026.123c.028.141.057.283.083.424l.028.163c.024.141.045.281.064.42l.017.12c.024.177.042.351.059.523l.009.12c.012.139.021.276.028.413l.007.151c.007.17.009.342.009.509,0,.332-.016.651-.045.96l-.009.083c-.028.283-.068.554-.118.816l-.021.1a7.291,7.291,0,0,1-.189.729l-.042.127a6.5,6.5,0,0,1-.243.625l-.028.068a5.155,5.155,0,0,1-.354.637c-.017.026-.035.049-.052.075a5.444,5.444,0,0,1-.34.448c-.045.052-.09.1-.134.149-.106.111-.215.217-.33.318-.047.04-.092.083-.139.12a4.34,4.34,0,0,1-.507.354l1.61-.936a4.343,4.343,0,0,0,.507-.354c.047-.038.094-.08.141-.123a4.16,4.16,0,0,0,.328-.318c.045-.047.092-.094.134-.146a4.958,4.958,0,0,0,.34-.448c.016-.026.038-.049.054-.075l.012-.017a5.83,5.83,0,0,0,.33-.6l.009-.021.028-.068c.061-.132.12-.266.172-.408.026-.071.047-.144.071-.217l.042-.127c.014-.04.028-.078.04-.116.042-.146.08-.295.116-.448.012-.052.021-.108.033-.165l.021-.1c.009-.054.024-.1.033-.158.024-.137.042-.276.061-.417.009-.08.016-.16.024-.24l.009-.083.009-.1c.012-.134.021-.273.026-.413s.009-.281.012-.422v-.026Q116.055,177.228,116.048,177.03Z" transform="translate(-96.947 -150.593)" fill="#00223d"/>
        <path id="Trazado_118706" data-name="Trazado 118706" d="M110.868,179.473l.014-4.843c-.052-.068-.1-.141-.146-.215l-.085-.134c-.045-.076-.09-.151-.132-.229l-.007-.014c-.054-.1-.1-.2-.149-.3l0-.012c-.047-.1-.087-.205-.127-.309v0c-.04-.106-.073-.21-.1-.316v-.007c-.031-.1-.054-.207-.075-.311l0-.012c-.019-.1-.035-.207-.045-.309l0-.009c-.009-.1-.014-.205-.014-.307a2.231,2.231,0,0,1,.042-.45l0-.009.012,0,.012,0c.066.024.132.049.2.08l.014.007c.068.031.137.068.207.108l1.61-.936-.066-.038-.085-.045-.054-.026-.016-.007-.014-.007-.085-.035-.085-.033-.014,0-.012,0-.059-.019-.085-.024-.04-.009-.019,0-.028-.007-.092-.014-.054,0-.019,0-.019,0a.7.7,0,0,0-.1,0h-.04l-.033,0-.035,0a1.048,1.048,0,0,0-.12.016h0l-.024.007a1.006,1.006,0,0,0-.12.033l-.009,0a1.394,1.394,0,0,0-.16.073h0l-1.61.936h0a1.027,1.027,0,0,0-.229.189.858.858,0,0,0-.057.073.71.71,0,0,0-.075.092,1.067,1.067,0,0,0-.08.144l0,.007,0,0c-.016.035-.031.068-.045.106s-.026.073-.038.111-.019.071-.026.106l-.009.045,0,.014-.009.042-.014.1-.012.1,0,.1,0,.1v.007h0v.094l0,.1.009.1v.009l0,.009.007.082.016.1.017.106,0,.016,0,.012.017.08.026.111.028.111,0,.009,0,.007.028.092.033.111.038.106,0,0,0,.009.033.09.042.1.042.1.009.019,0,.012.031.068.052.106.061.123,0,0,.007.014c.028.057.059.111.092.165l.04.064.085.134.052.083c.031.045.061.09.094.132l-.014,4.843,2.384,1.377,1.61-.936Z" transform="translate(-101.717 -153.35)" fill="#2b2b2b"/>
        <path id="Trazado_118707" data-name="Trazado 118707" d="M122.237,179.746a15.178,15.178,0,0,1,.811,4.737c-.014,5.55-3.945,7.79-8.776,5s-8.736-9.552-8.719-15.1a8.042,8.042,0,0,1,.835-3.787,4.482,4.482,0,0,1,2.056-2c1.556-.722,3.622-.519,5.885.788a17.555,17.555,0,0,1,5.871,6A20.65,20.65,0,0,1,122.237,179.746Zm-6.746.561c.545-.118.9-.634.905-1.452a4.594,4.594,0,0,0-2.084-3.608c-1.155-.667-2.1-.137-2.1,1.193a4.438,4.438,0,0,0,.894,2.49l-.014,4.843,2.384,1.377.014-4.843Z" transform="translate(-105.553 -156.714)" fill="#37a3a5"/>
        <path id="Trazado_118708" data-name="Trazado 118708" d="M119.882,178.055l.007.017q.244.523.457,1.054l.028.071c.141.361.276.724.394,1.089l1.613-.936-.038-.113c-.049-.149-.1-.295-.156-.443s-.106-.288-.16-.429l-.042-.1-.028-.071-.1-.248c-.059-.139-.118-.276-.179-.415s-.118-.262-.177-.391l-.007-.016-.007-.014c-.071-.149-.141-.3-.215-.443-.085-.17-.172-.342-.262-.509l-.038-.068c-.031-.054-.061-.108-.092-.165-.09-.165-.179-.33-.274-.49s-.174-.3-.264-.443c-.167-.269-.34-.538-.519-.8l-.049-.071c-.05-.073-.1-.142-.151-.215-.1-.137-.193-.278-.295-.413-.061-.082-.125-.163-.186-.245l-.092-.123-.087-.111c-.111-.142-.224-.281-.337-.42l-.186-.215-.071-.083-.078-.092c-.111-.127-.224-.252-.34-.377-.078-.085-.158-.167-.238-.25l-.064-.066-.054-.057c-.123-.125-.248-.248-.373-.368-.087-.085-.177-.167-.266-.248l-.066-.061-.052-.047c-.127-.118-.259-.231-.389-.342-.094-.08-.191-.156-.285-.233l-.059-.047-.047-.038c-.125-.1-.255-.2-.384-.292s-.236-.172-.356-.255l-.014-.009-.007,0c-.125-.085-.248-.167-.373-.248s-.245-.151-.368-.224l-.087-.05c-.092-.054-.186-.106-.278-.158-.12-.064-.238-.125-.358-.184-.054-.028-.108-.052-.163-.078l-.073-.033-.116-.057c-.118-.052-.236-.1-.351-.149-.1-.038-.2-.075-.292-.111l-.033-.012-.026-.009c-.118-.04-.236-.08-.351-.116s-.241-.068-.358-.1l-.031-.009-.042-.009c-.1-.021-.2-.045-.29-.064-.127-.024-.252-.045-.375-.061l-.047,0-.066-.007c-.092-.012-.186-.024-.278-.028-.132-.009-.264-.014-.394-.014h-.019c-.151,0-.3.007-.446.019-.049,0-.1.017-.149.021s-.123.017-.184.028-.113.012-.167.024-.134.038-.2.054c-.1.024-.2.05-.292.08-.038.012-.078.017-.116.031-.132.045-.262.1-.387.156s-.229.113-.337.177l-1.613.936q.166-.1.34-.177a4.4,4.4,0,0,1,.5-.186c.094-.031.193-.057.292-.08a3.666,3.666,0,0,1,.37-.078c.061-.012.123-.019.184-.026a4.964,4.964,0,0,1,.6-.042h.012a6.013,6.013,0,0,1,.674.042l.066.007a6.7,6.7,0,0,1,.712.132l.042.009c.25.061.507.137.766.229l.031.012c.25.092.5.2.762.316l.073.033c.264.125.531.264.8.42s.561.337.835.526l.014.009c.266.184.528.38.785.585l.059.047q.371.3.729.622l.066.061c.233.215.467.441.693.674l.061.064c.224.233.443.472.658.719l.071.083c.207.243.413.493.608.747l.094.12c.163.215.323.436.479.658.052.073.1.141.151.215.2.285.387.575.568.87s.365.62.54.934c.028.057.061.111.092.165C119.544,177.362,119.719,177.706,119.882,178.055Z" transform="translate(-104.084 -157.254)" fill="#00223d"/>
        <path id="Trazado_118709" data-name="Trazado 118709" d="M113.879,164.8c4.369,2.523,7.913,8.66,7.9,13.685l-.021,7.326a20.649,20.649,0,0,0-2.037-4.364l.012-4.143a12.933,12.933,0,0,0-5.859-10.153c-3.242-1.872-5.888-.363-5.9,3.365l-.012,4.143a4.482,4.482,0,0,0-2.056,2l.021-7.326C105.942,164.309,109.51,162.276,113.879,164.8Z" transform="translate(-105.072 -162.778)" fill="#00223d"/>
        <path id="Trazado_118710" data-name="Trazado 118710" d="M122.038,177.732c0-.127-.009-.255-.017-.382l-.014-.179L122,177.1l-.009-.132c-.012-.127-.028-.257-.045-.387s-.035-.264-.054-.4l0-.014,0-.019q-.028-.184-.064-.368c-.026-.137-.054-.276-.083-.413l-.035-.151-.021-.085c-.014-.061-.026-.12-.04-.179-.035-.141-.073-.281-.111-.422l-.092-.311-.017-.054-.014-.052c-.042-.137-.087-.274-.132-.41s-.092-.271-.141-.406l-.028-.078-.024-.061c-.031-.083-.061-.165-.094-.248-.049-.13-.1-.259-.153-.387l-.12-.281-.021-.045-.021-.054c-.057-.127-.116-.255-.177-.384s-.132-.278-.2-.417l-.031-.064-.042-.083c-.057-.111-.113-.222-.172-.33-.073-.137-.151-.271-.229-.408-.038-.068-.075-.139-.116-.207l-.047-.085c-.068-.116-.144-.224-.215-.34-.106-.174-.212-.349-.325-.519l-.052-.085c-.153-.229-.311-.45-.472-.672l-.028-.038,0,0c-.116-.156-.233-.309-.351-.46-.094-.12-.191-.238-.288-.356l-.012-.014-.007-.009c-.1-.12-.2-.24-.307-.358s-.2-.229-.309-.342l-.047-.05-.052-.054c-.073-.078-.149-.158-.224-.236-.111-.111-.222-.222-.332-.33l-.1-.092-.078-.073c-.057-.054-.113-.106-.17-.158-.116-.1-.233-.208-.351-.307l-.153-.125-.08-.066c-.04-.031-.078-.064-.118-.1-.116-.09-.231-.179-.349-.264-.083-.061-.165-.12-.25-.177l-.047-.035-.045-.033c-.111-.075-.224-.149-.335-.222s-.222-.137-.335-.2l-.078-.045c-.083-.05-.167-.1-.25-.141l-.1-.049-.127-.066-.1-.052-.163-.075-.111-.054-.047-.021c-.106-.047-.21-.092-.316-.134h0l-.014,0c-.1-.04-.2-.08-.3-.116l-.042-.012-.118-.04-.156-.052-.083-.021-.141-.04-.1-.028-.113-.026-.139-.031-.073-.014c-.045-.009-.087-.014-.132-.024s-.106-.017-.158-.026l-.057-.009-.132-.012c-.059-.007-.116-.014-.172-.019l-.047,0c-.04,0-.075,0-.116,0-.068,0-.137-.007-.2-.007l-.054,0c-.031,0-.059,0-.087,0-.085,0-.167,0-.25.012l-.075,0-.054.009c-.125.012-.248.028-.368.052l-.035,0,0,0a3.877,3.877,0,0,0-.5.139l-.045.012-.035.014c-.071.026-.141.057-.21.087-.033.014-.068.026-.1.042-.1.047-.2.1-.3.153l-1.61.938q.145-.085.3-.156c.033-.017.066-.028.1-.042.068-.031.137-.061.21-.087l.08-.026a3.941,3.941,0,0,1,.5-.139l.042-.007c.12-.021.243-.04.368-.052l.13-.012c.083-.007.165-.009.25-.012.047,0,.092,0,.141,0,.066,0,.134,0,.2.007l.163.007c.057,0,.113.012.17.019s.125.012.189.021l.16.028c.066.009.134.024.2.035.047.009.094.021.139.033.073.017.146.033.219.054l.141.038c.078.024.158.047.238.075l.116.038c.116.038.231.08.349.127l.012,0c.12.05.243.1.363.156l.113.054q.131.06.262.127l.127.066c.116.061.231.123.347.191.266.153.531.323.792.5l.047.035c.243.167.481.349.717.54l.08.064c.229.189.453.384.672.589l.08.073c.224.21.443.432.658.658l.052.054q.343.368.67.759l.012.014q.329.4.641.82l.024.035c.182.248.358.5.528.759.113.17.217.344.325.519.087.141.177.281.262.424.038.068.075.139.116.207.137.243.273.49.4.738l.042.083c.153.3.3.611.434.92l.019.045c.132.3.255.608.37.915l.024.061c.116.316.219.63.316.946l.017.054c.09.3.172.608.243.913l.019.085c.073.311.134.622.184.931l0,.019c.05.311.087.622.113.931l0,.073c.026.309.038.615.038.917l-.021,7.326,1.613-.936.019-7.326C122.045,177.97,122.043,177.85,122.038,177.732Z" transform="translate(-103.727 -163.318)" fill="#21587b"/>
      </g>
    </g>
    <g id="Grupo_55266" data-name="Grupo 55266" transform="translate(267.88 481.172)">
      <g id="Grupo_54881" data-name="Grupo 54881">
        <path id="Trazado_118621" data-name="Trazado 118621" d="M386.9,26.372l5.2-3.426h0c2.334-1.468,5.632-1.321,9.287.79.2.119.409.243.612.371a13.716,13.716,0,0,1,2.483-5.265l-2.569,1.072,4.7-3.091c3.736-2.611,9.15-2.483,15.175,1,8.381,4.839,15.579,14.793,18.721,24.9,2.69-.8,6.045-.254,9.685,1.849,8.846,5.106,16.018,17.475,16.018,27.626,0,4.951-1.707,8.457-4.479,10.161h0l-6.028,3.776,1.642-2.606a14.622,14.622,0,0,1-7.156-2.2L401.385,53.144c-7.077-4.087-12.814-13.982-12.814-22.1a12.138,12.138,0,0,1,1-5.121Z" transform="translate(-383.688 -15.018)" fill="#00223d"/>
        <path id="Trazado_118622" data-name="Trazado 118622" d="M398.035,25.416c.2.119.409.243.612.371,2.22-8.9,10.239-11.807,19.8-6.288,8.381,4.839,15.579,14.793,18.719,24.9,2.69-.8,6.045-.254,9.685,1.849,8.847,5.106,16.018,17.477,16.018,27.626s-7.171,14.24-16.018,9.132L398.035,54.824c-7.077-4.087-12.814-13.982-12.814-22.1S390.958,21.329,398.035,25.416Z" transform="translate(-385.221 -13.486)" fill="url(#linear-gradient)"/>
      </g>
      <g id="Grupo_54882" data-name="Grupo 54882" transform="translate(4.074 29.193)">
        <path id="Trazado_118623" data-name="Trazado 118623" d="M388.471,36.306l2.684-1.43.052-.027h0c1.367-.7,3.216-.549,5.25.627.122.071.245.143.365.22a8.458,8.458,0,0,1,1.216-2.78l-.725-.392,2.42-1.271a5.757,5.757,0,0,1,.942-.5h0c2.126-.876,4.9-.551,7.926,1.2,4.986,2.879,9.27,8.8,11.14,14.816a7.445,7.445,0,0,1,5.762,1.1c5.265,3.04,9.532,10.4,9.532,16.441,0,2.847-.948,4.892-2.5,5.94h0v0a4.561,4.561,0,0,1-.8.428l-2.2,1.185-.243-.832a9.172,9.172,0,0,1-3.791-1.288L396.456,52.974a16.8,16.8,0,0,1-7.624-13.151,7.315,7.315,0,0,1,.552-2.957Z" transform="translate(-386.332 -30.288)" fill="#00223d"/>
        <path id="Trazado_118624" data-name="Trazado 118624" d="M394.976,36.168c.122.071.245.145.365.222,1.319-5.294,6.093-7.026,11.778-3.743,4.988,2.881,9.272,8.8,11.141,14.818a7.437,7.437,0,0,1,5.762,1.1c5.265,3.04,9.532,10.4,9.532,16.441s-4.267,8.473-9.532,5.433l-29.047-16.77a16.806,16.806,0,0,1-7.624-13.153C387.352,35.684,390.766,33.736,394.976,36.168Z" transform="translate(-387.352 -29.657)" fill="#37a3a5"/>
      </g>
    </g>
  </g>
</svg>
