<svg xmlns="http://www.w3.org/2000/svg" xmlns:xlink="http://www.w3.org/1999/xlink" width="91.927" height="91.927" viewBox="0 0 91.927 91.927">
  <defs>
    <radialGradient id="radial-gradient" cx="0.076" cy="0.019" r="1.465" gradientTransform="translate(0.001)" gradientUnits="objectBoundingBox">
      <stop offset="0" stop-color="#f6f6f7"/>
      <stop offset="0.477" stop-color="#f9f9fa"/>
      <stop offset="0.715" stop-color="#fff"/>
    </radialGradient>
  </defs>
  <g id="Grupo_54358" data-name="Grupo 54358" transform="translate(-217 -741.333)">
    <g id="Grupo_42274" data-name="Grupo 42274" transform="translate(142 768.333)">
      <g id="Grupo_18423" data-name="Grupo 18423" transform="translate(75 -27)">
        <g id="Grupo_18421" data-name="Grupo 18421">
          <g id="Grupo_18420" data-name="Grupo 18420">
            <g id="Grupo_18419" data-name="Grupo 18419">
              <path id="Trazado_40936" data-name="Trazado 40936" d="M286.55,2191.684a45.964,45.964,0,1,1-45.963-45.962A45.963,45.963,0,0,1,286.55,2191.684Z" transform="translate(-194.623 -2145.721)" fill="#fff"/>
            </g>
          </g>
        </g>
        <path id="Trazado_40937" data-name="Trazado 40937" d="M286.23,2191.334a45.963,45.963,0,1,0-45.963,45.965A45.782,45.782,0,0,0,286.23,2191.334Z" transform="translate(-194.303 -2145.372)" fill="url(#radial-gradient)"/>
        <path id="Trazado_40938" data-name="Trazado 40938" d="M272.56,2188.562a35.084,35.084,0,1,0-35.084,35.084A34.953,34.953,0,0,0,272.56,2188.562Z" transform="translate(-191.373 -2142.446)" fill="none" stroke="#37a3a5" stroke-miterlimit="10" stroke-width="4"/>
        <g id="Grupo_18422" data-name="Grupo 18422" transform="translate(8.143 25.805)">
          <path id="Trazado_40939" data-name="Trazado 40939" d="M279.682,2164.488a45.969,45.969,0,0,1-79.137,45.773,45.823,45.823,0,0,0,79.137-45.773Z" transform="translate(-200.545 -2164.488)" fill="#eceef0"/>
        </g>
      </g>
    </g>
    <g id="Grupo_54373" data-name="Grupo 54373" transform="translate(-737.042 393.843)">
      <path id="Trazado_116971" data-name="Trazado 116971" d="M1000.382,419.409a23.329,23.329,0,0,1-2.467-.574,12.213,12.213,0,0,1-8.723-10.514,34.457,34.457,0,0,1-.113-4.61c-.01-5.6.016-11.206-.015-16.808a1.781,1.781,0,0,1,1.586-2.106c0-.66,0-1.342,0-2.023,0-.952.161-1.122,1.094-1.118h.481c0-1.119,0-2.2,0-3.272,0-2.457-.018-4.915.013-7.372a2.789,2.789,0,0,1,.35-1.243,1.422,1.422,0,0,1,1.363-.7q7.667.017,15.334.007a1.693,1.693,0,0,1,1.811,1.8c.007,2.359,0,4.718,0,7.077,0,1.211,0,2.421,0,3.705.25,0,.472,0,.693,0,.594.011.872.281.877.869.006.639.012,1.278,0,1.917-.006.266.05.4.345.474a1.49,1.49,0,0,1,1.236,1.64c0,6.7-.052,13.4.013,20.1a12.641,12.641,0,0,1-10.033,12.5c-.428.089-.858.169-1.287.253Zm12.292-33.007c-.19-.013-.287-.026-.384-.026q-10.59,0-21.18-.013c-.428,0-.469.18-.469.528.008,5.635-.007,11.27.016,16.9a32.613,32.613,0,0,0,.2,4.945,10.991,10.991,0,0,0,21.813-2.069q0-9.828,0-19.656Zm-3.146-4.77c0-3.564,0-7.07.005-10.576,0-.421-.236-.419-.541-.419q-7.348.008-14.695,0c-.392,0-.51.117-.509.5.012,3.391.007,6.782.009,10.173a2.807,2.807,0,0,0,.036.321Zm1.551,1.626H992.261v1.518h18.817Z" transform="translate(0 0)" fill="#12263f"/>
      <path id="Trazado_116972" data-name="Trazado 116972" d="M1052.635,742.382l1.036,1.149c-3.584,4.005-11.631,3.922-15.469-.059l1.058-1.115a9.674,9.674,0,0,0,6.68,2.546A8.948,8.948,0,0,0,1052.635,742.382Z" transform="translate(-44.303 -336.518)" fill="#12263f"/>
      <path id="Trazado_116973" data-name="Trazado 116973" d="M1060.953,721.469l1.078-1.095c2.624,2.288,6.923,2,8.869.025l.981,1.159C1069.84,724.141,1063.78,724.434,1060.953,721.469Z" transform="translate(-64.812 -316.701)" fill="#12263f"/>
      <path id="Trazado_116974" data-name="Trazado 116974" d="M1089.415,697.381l1.088,1.039c-1.409,1.8-5.042,1.807-6.576.084l.977-1.146A3.52,3.52,0,0,0,1089.415,697.381Z" transform="translate(-85.523 -295.954)" fill="#12263f"/>
      <path id="Trazado_116975" data-name="Trazado 116975" d="M1109.02,681.276a.785.785,0,1,1,.72.821A.764.764,0,0,1,1109.02,681.276Z" transform="translate(-108.143 -280.783)" fill="#12263f"/>
      <path id="Trazado_116976" data-name="Trazado 116976" d="M1058.1,417.291v4.656h-4.664v-4.656Zm-1.578,3.112V418.87h-1.508V420.4Z" transform="translate(-58.032 -43.475)" fill="#12263f"/>
      <path id="Trazado_116977" data-name="Trazado 116977" d="M1137.885,422.079h-4.656v-4.658h4.656Zm-3.093-1.589h1.532v-1.507h-1.532Z" transform="translate(-129.968 -43.592)" fill="#12263f"/>
    </g>
  </g>
</svg>
