<svg xmlns="http://www.w3.org/2000/svg" width="525.133" height="344.66" viewBox="0 0 525.133 344.66">
  <g id="Grupo_54370" data-name="Grupo 54370" transform="translate(-215.3 -326.455)">
    <g id="RNGu9o" transform="translate(215.3 333.397)">
      <g id="Grupo_54366" data-name="Grupo 54366">
        <path id="Trazado_116897" data-name="Trazado 116897" d="M284.888,415.751h-63.41c-1.751,0-2.551-.769-2.551-2.512q0-32.373.011-64.743c0-3.246-.072-6.505.191-9.731.293-3.614,2.33-6.286,5.371-8.185a10.983,10.983,0,0,1,5.927-1.61q54.487,0,108.97.016a10.808,10.808,0,0,1,10.453,6.691,11.452,11.452,0,0,1,1.027,4.6q.1,36.515.039,73.033c0,1.674-.811,2.443-2.515,2.443H284.888Zm61.833-4.278V410.01q0-30.194,0-60.389c0-2.966.113-5.932.061-8.9a7.256,7.256,0,0,0-1.837-5.152,7.744,7.744,0,0,0-5.763-2.38q-54.171.046-108.345.022a12.4,12.4,0,0,0-1.245.025,7.006,7.006,0,0,0-6.405,6.4c-.194,3.467-.055,6.953-.055,10.431v61.4Z" transform="translate(-208.89 -328.964)" fill="#12263f"/>
        <path id="Trazado_116898" data-name="Trazado 116898" d="M306.161,366.5c.506-3.091,2.045-4.4,4.975-4.405q16.867,0,33.732,0h19.69c2.233,0,2.775.62,2.734,2.839-.047,2.59-.077,5.183.039,7.767a7.641,7.641,0,0,1-7.617,7.579c-.517.014-1.038,0-1.555,0q-67.253,0-134.5,0c-4.225,0-7.377-2.3-8.154-6.082a19.032,19.032,0,0,1-.2-3.71c-.008-2,.044-4.007.077-6.01.03-1.749.659-2.388,2.393-2.382,4.7.014,9.4.075,14.109.069,12.554-.011,25.11-.061,37.666-.05a8,8,0,0,1,3.088.609,3.541,3.541,0,0,1,2.072,3.027c.061.6.335.758.858.755q3.731-.017,7.462-.022c3.489,0,6.975.008,10.462.008C297.7,366.5,301.906,366.5,306.161,366.5Zm-35.693-.21H220.807c-1.336,0-1.364,0-1.375,1.372-.008,1.417.166,2.844.036,4.247a3.846,3.846,0,0,0,4.139,4.156q67.614-.079,135.231-.039c.313,0,.623.006.935-.006a3.176,3.176,0,0,0,3.248-2.662c.2-2.308.053-4.646.053-7.158-2.335,0-4.6-.011-6.873,0-4.521.022-9.042.075-13.563.083q-13.7.017-27.4,0c-1.314,0-2.629.011-3.943-.005-.506-.006-.794.075-.908.689a4.148,4.148,0,0,1-4.408,3.686q-15.464.021-30.929,0a4.221,4.221,0,0,1-4.482-3.865C270.548,366.66,270.518,366.53,270.468,366.289Z" transform="translate(-215.3 -270.426)" fill="#12263f"/>
        <path id="Trazado_116899" data-name="Trazado 116899" d="M279,396.856H224.821c-1.965,0-2.75-.75-2.75-2.648q0-26.1.017-52.193c0-2.352.033-4.7.042-7.053a2.226,2.226,0,0,1,2.059-2.407,6.5,6.5,0,0,1,.93-.033q18.162,0,36.324,0c4.419,0,8.835.077,13.254.075,4.87,0,9.737-.072,14.607-.075q21.989-.012,43.981.006a2.314,2.314,0,0,1,2.546,2.559q0,29.568,0,59.132c0,1.937-.761,2.634-2.861,2.634Q305.978,396.86,279,396.856Zm52.566-60.123H226.36v55.8h105.2Z" transform="translate(-203.335 -322.685)" fill="#12263f"/>
        <path id="Trazado_116900" data-name="Trazado 116900" d="M284.366,348.109a8,8,0,0,1-1.383,1.622,2.078,2.078,0,0,1-2.324-.219,57.165,57.165,0,0,0-7.678-4.247c-12.515-4.834-24.247-3.152-35.1,4.707-.338.243-.639.531-.979.769a2.1,2.1,0,0,1-2.963-.349,2,2,0,0,1,.379-2.941,51.88,51.88,0,0,1,7-4.585c14.416-6.962,28.32-5.968,41.6,3.052A2.855,2.855,0,0,1,284.366,348.109Z" transform="translate(-183.213 -312.463)" fill="#37a3a5"/>
        <path id="Trazado_116901" data-name="Trazado 116901" d="M275.777,349.435a7.806,7.806,0,0,1-1.356,1.66,1.916,1.916,0,0,1-2.319-.2,25.668,25.668,0,0,0-8.417-4.15,27.037,27.037,0,0,0-24.493,4.8,3.56,3.56,0,0,1-1.956.7,1.758,1.758,0,0,1-1.7-1.431,2.043,2.043,0,0,1,.755-2.3,29.114,29.114,0,0,1,8.965-5.11,30.96,30.96,0,0,1,28.69,3.63A3.419,3.419,0,0,1,275.777,349.435Z" transform="translate(-179.719 -306.958)" fill="#37a3a5"/>
        <path id="Trazado_116902" data-name="Trazado 116902" d="M251.832,344.3a24.093,24.093,0,0,1,14.211,4.045c.23.155.454.318.667.493a2.1,2.1,0,1,1-2.485,3.381,19.183,19.183,0,0,0-23.331.509,2.215,2.215,0,0,1-2.772.21,2.02,2.02,0,0,1-.711-2.4,3.364,3.364,0,0,1,.963-1.181A22.374,22.374,0,0,1,251.832,344.3Z" transform="translate(-176.504 -301.874)" fill="#37a3a5"/>
        <path id="Trazado_116903" data-name="Trazado 116903" d="M249.8,347.062a15.291,15.291,0,0,1,9.031,2.866,2.127,2.127,0,1,1-2.377,3.495c-4.648-3-9.333-2.891-13.8.31-1.24.888-2.432.819-3.21-.191s-.5-2.3.719-3.226A15.565,15.565,0,0,1,249.8,347.062Z" transform="translate(-173.396 -296.986)" fill="#37a3a5"/>
      </g>
    </g>
    <g id="RNGu9o-2" data-name="RNGu9o" transform="translate(588.397 518.846)">
      <g id="Grupo_54367" data-name="Grupo 54367">
        <path id="Trazado_116904" data-name="Trazado 116904" d="M419.73,482.775H356.32c-1.751,0-2.551-.766-2.551-2.509q0-32.373.011-64.746c0-3.246-.072-6.5.191-9.731.293-3.614,2.33-6.284,5.371-8.182a10.981,10.981,0,0,1,5.927-1.613q54.487,0,108.97.017a10.806,10.806,0,0,1,10.451,6.69,11.435,11.435,0,0,1,1.029,4.607q.091,36.515.039,73.033c0,1.674-.811,2.44-2.515,2.44H419.73Zm61.833-4.275v-1.466q0-30.19,0-60.386c0-2.966.113-5.932.061-8.9a7.256,7.256,0,0,0-1.837-5.152,7.766,7.766,0,0,0-5.764-2.38q-54.175.046-108.348.022a11.6,11.6,0,0,0-1.242.028,7,7,0,0,0-6.405,6.4c-.194,3.467-.055,6.953-.055,10.431v61.4Z" transform="translate(-343.73 -395.987)" fill="#12263f"/>
        <path id="Trazado_116905" data-name="Trazado 116905" d="M441,433.522c.509-3.088,2.047-4.4,4.978-4.4q16.867,0,33.729,0H499.4c2.233,0,2.775.622,2.734,2.842-.047,2.587-.077,5.18.036,7.764a7.643,7.643,0,0,1-7.614,7.581c-.517.011-1.038,0-1.558,0H358.5c-4.225,0-7.379-2.3-8.154-6.079a19.031,19.031,0,0,1-.2-3.71c-.008-2,.047-4.009.08-6.013.03-1.746.659-2.388,2.393-2.382,4.7.017,9.4.075,14.109.072,12.553-.014,25.11-.064,37.666-.05a7.952,7.952,0,0,1,3.088.609,3.538,3.538,0,0,1,2.072,3.027c.061.6.332.758.858.755q3.731-.021,7.462-.025,5.229,0,10.462.011C432.541,433.525,436.749,433.522,441,433.522Zm-35.691-.21h-41.8q-3.93,0-7.861,0c-1.334,0-1.361,0-1.372,1.372-.008,1.417.166,2.844.036,4.247a3.847,3.847,0,0,0,4.139,4.156q67.614-.079,135.231-.039c.31,0,.622.005.933-.008a3.175,3.175,0,0,0,3.251-2.662c.2-2.308.05-4.643.05-7.158-2.333,0-4.6-.008-6.873,0-4.518.022-9.04.078-13.561.083q-13.7.021-27.4,0c-1.314,0-2.629.014-3.943,0-.506-.008-.794.072-.91.689a4.142,4.142,0,0,1-4.408,3.683q-15.46.025-30.926,0a4.215,4.215,0,0,1-4.482-3.863C405.392,433.685,405.361,433.552,405.312,433.312Z" transform="translate(-350.141 -337.449)" fill="#12263f"/>
        <path id="Trazado_116906" data-name="Trazado 116906" d="M413.837,463.881q-27.086,0-54.174,0c-1.965,0-2.75-.75-2.75-2.651q0-26.093.014-52.193c0-2.349.036-4.7.044-7.05a2.227,2.227,0,0,1,2.059-2.41,6.93,6.93,0,0,1,.93-.033q18.162,0,36.324,0c4.419.006,8.835.078,13.254.078,4.867,0,9.737-.075,14.607-.078q21.989-.012,43.978.006a2.317,2.317,0,0,1,2.548,2.562q0,29.563,0,59.129c0,1.937-.761,2.637-2.861,2.637ZM466.4,403.755H361.2v55.8H466.4Z" transform="translate(-338.174 -389.708)" fill="#12263f"/>
        <path id="Trazado_116907" data-name="Trazado 116907" d="M419.2,415.131a7.915,7.915,0,0,1-1.381,1.624,2.083,2.083,0,0,1-2.324-.219,56.859,56.859,0,0,0-7.678-4.247c-12.515-4.837-24.25-3.154-35.107,4.707-.335.243-.636.531-.977.766a2.094,2.094,0,0,1-2.963-.346,2,2,0,0,1,.379-2.944,51.6,51.6,0,0,1,7-4.582c14.416-6.962,28.32-5.971,41.6,3.052A2.842,2.842,0,0,1,419.2,415.131Z" transform="translate(-318.053 -379.485)" fill="#37a3a5"/>
        <path id="Trazado_116908" data-name="Trazado 116908" d="M410.62,416.457a7.734,7.734,0,0,1-1.356,1.66,1.916,1.916,0,0,1-2.319-.2,25.635,25.635,0,0,0-8.417-4.148,27.027,27.027,0,0,0-24.493,4.8,3.612,3.612,0,0,1-1.959.7,1.765,1.765,0,0,1-1.7-1.433,2.04,2.04,0,0,1,.758-2.3,29.131,29.131,0,0,1,8.962-5.111,30.966,30.966,0,0,1,28.693,3.63A3.426,3.426,0,0,1,410.62,416.457Z" transform="translate(-314.56 -373.979)" fill="#37a3a5"/>
        <path id="Trazado_116909" data-name="Trazado 116909" d="M386.674,411.319c5.913.014,10.263,1.383,14.211,4.048.227.155.451.318.667.492a2.1,2.1,0,1,1-2.485,3.379,19.194,19.194,0,0,0-23.334.512,2.211,2.211,0,0,1-2.77.21,2.024,2.024,0,0,1-.711-2.4,3.376,3.376,0,0,1,.96-1.179A22.39,22.39,0,0,1,386.674,411.319Z" transform="translate(-311.343 -368.897)" fill="#37a3a5"/>
        <path id="Trazado_116910" data-name="Trazado 116910" d="M384.643,414.085a15.28,15.28,0,0,1,9.029,2.869,2.126,2.126,0,1,1-2.374,3.495c-4.648-3-9.333-2.894-13.8.307-1.24.891-2.429.819-3.207-.191s-.5-2.3.719-3.223A15.568,15.568,0,0,1,384.643,414.085Z" transform="translate(-308.236 -364.009)" fill="#37a3a5"/>
      </g>
    </g>
    <g id="RNGu9o-3" data-name="RNGu9o" transform="translate(314.226 561.255)">
      <g id="Grupo_54368" data-name="Grupo 54368">
        <path id="Trazado_116911" data-name="Trazado 116911" d="M320.641,498.1h-63.41c-1.751,0-2.548-.766-2.551-2.512q0-32.369.014-64.744c0-3.246-.075-6.5.188-9.731.293-3.614,2.33-6.284,5.371-8.182a10.99,10.99,0,0,1,5.929-1.613q54.482,0,108.968.017a10.81,10.81,0,0,1,10.454,6.69,11.525,11.525,0,0,1,1.029,4.6q.091,36.519.036,73.036c0,1.671-.811,2.441-2.515,2.441H320.641Zm61.833-4.275V492.36q0-30.194,0-60.386c0-2.966.113-5.932.061-8.9a7.266,7.266,0,0,0-1.834-5.152,7.768,7.768,0,0,0-5.766-2.38q-54.171.046-108.345.022c-.415,0-.833-.017-1.245.025a7.008,7.008,0,0,0-6.406,6.4c-.194,3.467-.053,6.953-.053,10.431q0,29.779,0,59.558v1.846Z" transform="translate(-244.643 -411.314)" fill="#12263f"/>
        <path id="Trazado_116912" data-name="Trazado 116912" d="M341.914,448.849c.506-3.088,2.045-4.4,4.978-4.4q16.863,0,33.729,0h19.69c2.233,0,2.775.623,2.736,2.842-.047,2.587-.08,5.18.036,7.764a7.645,7.645,0,0,1-7.617,7.581c-.517.011-1.038,0-1.555,0h-134.5c-4.222,0-7.377-2.3-8.154-6.079a19.028,19.028,0,0,1-.2-3.711c-.008-2,.044-4.009.08-6.013.03-1.746.659-2.388,2.391-2.382,4.7.017,9.4.075,14.109.072,12.556-.014,25.113-.064,37.666-.05a7.89,7.89,0,0,1,3.088.609,3.538,3.538,0,0,1,2.072,3.027c.064.6.335.758.858.755q3.731-.021,7.465-.025,5.229,0,10.459.011Zm-35.693-.21h-41.8q-3.931,0-7.861,0c-1.336,0-1.364,0-1.372,1.372-.011,1.417.163,2.844.036,4.245a3.845,3.845,0,0,0,4.137,4.159q67.618-.079,135.231-.039c.313,0,.625.006.935-.008a3.174,3.174,0,0,0,3.248-2.662c.2-2.308.052-4.643.052-7.158-2.335,0-4.6-.008-6.873,0-4.521.022-9.042.078-13.561.083q-13.7.021-27.4,0c-1.314,0-2.629.014-3.943,0-.506-.008-.791.072-.908.686a4.146,4.146,0,0,1-4.408,3.685q-15.464.025-30.929,0a4.213,4.213,0,0,1-4.48-3.863C306.3,449.012,306.271,448.879,306.221,448.639Z" transform="translate(-251.053 -352.776)" fill="#12263f"/>
        <path id="Trazado_116913" data-name="Trazado 116913" d="M314.751,479.208q-27.09,0-54.177,0c-1.965,0-2.75-.747-2.75-2.648q0-26.1.017-52.193c0-2.349.033-4.7.042-7.05a2.229,2.229,0,0,1,2.059-2.41,6.971,6.971,0,0,1,.932-.033q18.162,0,36.324,0c4.416.006,8.835.078,13.251.078,4.87,0,9.737-.075,14.607-.078q21.989-.012,43.981.006a2.315,2.315,0,0,1,2.546,2.562q0,29.563,0,59.129c0,1.937-.761,2.634-2.864,2.634Q341.736,479.209,314.751,479.208Zm52.564-60.126h-105.2v55.8h105.2Z" transform="translate(-239.088 -405.035)" fill="#12263f"/>
        <path id="Trazado_116914" data-name="Trazado 116914" d="M320.118,430.459a8.012,8.012,0,0,1-1.383,1.624,2.088,2.088,0,0,1-2.324-.219,56.844,56.844,0,0,0-7.678-4.247c-12.512-4.837-24.247-3.154-35.1,4.707-.335.244-.639.531-.979.767a2.094,2.094,0,0,1-2.963-.346,2.006,2.006,0,0,1,.379-2.944,51.617,51.617,0,0,1,7.006-4.582c14.413-6.964,28.32-5.971,41.6,3.052A2.849,2.849,0,0,1,320.118,430.459Z" transform="translate(-218.966 -394.813)" fill="#37a3a5"/>
        <path id="Trazado_116915" data-name="Trazado 116915" d="M311.533,431.784a7.739,7.739,0,0,1-1.358,1.66,1.917,1.917,0,0,1-2.319-.2,25.583,25.583,0,0,0-8.417-4.148,27.029,27.029,0,0,0-24.493,4.8,3.6,3.6,0,0,1-1.956.7,1.76,1.76,0,0,1-1.7-1.433,2.039,2.039,0,0,1,.755-2.3,29.238,29.238,0,0,1,8.965-5.113q15.232-5.279,28.69,3.633A3.424,3.424,0,0,1,311.533,431.784Z" transform="translate(-215.472 -389.307)" fill="#37a3a5"/>
        <path id="Trazado_116916" data-name="Trazado 116916" d="M287.584,426.646c5.913.014,10.263,1.384,14.211,4.048a7.651,7.651,0,0,1,.667.492,2.1,2.1,0,1,1-2.482,3.378,19.194,19.194,0,0,0-23.334.512,2.207,2.207,0,0,1-2.77.207,2.02,2.02,0,0,1-.714-2.4,3.33,3.33,0,0,1,.963-1.179A22.385,22.385,0,0,1,287.584,426.646Z" transform="translate(-212.256 -384.224)" fill="#37a3a5"/>
        <path id="Trazado_116917" data-name="Trazado 116917" d="M285.554,429.412a15.3,15.3,0,0,1,9.031,2.869,2.126,2.126,0,1,1-2.377,3.495c-4.648-3-9.33-2.894-13.8.307-1.24.891-2.432.819-3.21-.191s-.5-2.3.719-3.224A15.568,15.568,0,0,1,285.554,429.412Z" transform="translate(-209.149 -379.336)" fill="#37a3a5"/>
      </g>
    </g>
    <g id="sG6ua8.tif" transform="translate(570.155 326.455)">
      <g id="Grupo_54369" data-name="Grupo 54369">
        <path id="Trazado_116918" data-name="Trazado 116918" d="M385.787,384.591V330.508c0-3.229.836-4.051,4.1-4.051q14.717,0,29.435,0c2.977,0,3.937.96,3.937,3.937q0,54.08,0,108.162c0,3.024-.9,3.926-3.907,3.926q-14.879,0-29.764,0c-2.95,0-3.8-.855-3.8-3.813Q385.786,411.631,385.787,384.591Zm6.267-14.385a3.236,3.236,0,0,0-1.6.169,2.122,2.122,0,0,0-1.021,1.417c.005.487.578,1.085,1.057,1.406a2.852,2.852,0,0,0,1.439.138q6.234.012,12.471.005h4.759c2.789,0,5.581-.008,8.37,0,1.087,0,2.092-.26,2.125-1.511.041-1.37-1.018-1.641-2.164-1.63l-.492,0m-25.445-5.473c-1.115,0-2.214.108-2.178,1.561.033,1.419,1.121,1.538,2.236,1.536q6.4-.013,12.8,0c4.322,0,8.641-.011,12.963.008,1.14,0,2.225-.191,2.28-1.525.058-1.392-1.032-1.58-2.175-1.58M404.392,378.83q4.263,0,8.53,0a44.321,44.321,0,0,0,5.077-.08c.609-.072,1.126-.9,1.688-1.383a13.691,13.691,0,0,0-1.724-1.591c-.3-.2-.852-.042-1.289-.042H393.216a7.5,7.5,0,0,0-2.438.086c-.578.21-1.317.963-1.323,1.48,0,.5.786,1.085,1.345,1.461.3.207.849.066,1.287.069m12.321-16.56c4.322,0,8.641-.014,12.963.011,1.137.006,2.23-.152,2.28-1.505.05-1.375-1.013-1.58-2.172-1.577q-12.962.025-25.926,0c-1.132,0-2.2.122-2.178,1.555s1.115,1.525,2.236,1.519m-.65-23.757c-.523,0-1.046.454-1.566.7.512.249,1.024.706,1.541.714,4.491.055,8.984.033,13.478.033,4.549,0,9.1.022,13.647-.033.531-.006,1.057-.451,1.585-.692-.52-.252-1.038-.717-1.561-.717m-27.146-4.582c-.517.008-1.029.473-1.541.725.52.244,1.038.694,1.561.7q13.559.062,27.124,0c.52,0,1.04-.47,1.563-.722-.529-.243-1.054-.692-1.583-.7-4.493-.055-8.987-.033-13.481-.033m-.03,87.856a3.4,3.4,0,1,0-3.453-3.426A3.434,3.434,0,0,0,404.552,421.762Zm.221,5.575-.769.036a6.228,6.228,0,0,0-1.087,1.995,1.312,1.312,0,0,0,1.649,1.505,2.457,2.457,0,0,0,1.511-1.691C406.121,428.6,405.244,427.954,404.774,427.337Z" transform="translate(-268.914 -326.455)" fill="#12263f"/>
        <path id="Trazado_116919" data-name="Trazado 116919" d="M390.034,408.857v-8.074h-1.992q-19.15,0-38.3,0c-3.622,0-4.687-1.076-4.687-4.712V331.158c0-3.561,1.148-4.7,4.731-4.7q48.415,0,96.826,0c3.614,0,4.671,1.068,4.671,4.72v64.915c0,3.672-1.007,4.69-4.662,4.69q-19.071,0-38.139,0h-2.1v8.074c1.956,0,3.962-.083,5.957.019a4.647,4.647,0,0,1,4.615,4.95H379.379a4.735,4.735,0,0,1,4.648-4.95C385.983,408.774,387.945,408.857,390.034,408.857Zm8.2-79.281q-23.682,0-47.362,0c-2.5,0-2.712.21-2.712,2.737q0,28.273,0,56.548c0,2.512.213,2.725,2.723,2.725q47.277,0,94.557,0c2.559,0,2.825-.263,2.825-2.817V332.384c0-2.554-.257-2.808-2.836-2.808ZM444.4,395.8c-.844-.556-1.364-1.154-1.718-1.068-.484.119-.841.755-1.253,1.17.4.385.789,1.071,1.19,1.074C443.085,396.981,443.558,396.392,444.4,395.8Z" transform="translate(-340.891 -326.455)" fill="#12263f"/>
        <path id="Trazado_116920" data-name="Trazado 116920" d="M343.585,382.342c.2-.512.354-.963.559-1.389,3.273-6.743,6.569-13.478,9.814-20.232a1.89,1.89,0,0,1,1.97-1.278q44.878.046,89.759.061a2.166,2.166,0,0,1,1.66.858c3.6,7.244,7.125,14.529,10.75,21.981Zm4.172-2.142H453.571c.008-.188.053-.313.014-.4-2.808-5.813-5.6-11.632-8.478-17.412a2.034,2.034,0,0,0-1.563-.764q-42.741-.054-85.479-.055a1.781,1.781,0,0,0-1.868,1.2c-1.1,2.385-2.272,4.734-3.42,7.1C351.136,373.25,349.492,376.626,347.757,380.2Z" transform="translate(-343.483 -268.168)" fill="#12263f"/>
        <path id="Trazado_116921" data-name="Trazado 116921" d="M343.548,369.648v-1.533H458.085l.114,1.533Z" transform="translate(-343.548 -252.845)" fill="#12263f"/>
        <path id="Trazado_116922" data-name="Trazado 116922" d="M353.166,367.926c.055-1.674.83-2.072,2.316-2.067q28.41.075,56.825,0c1.486,0,2.28.365,2.238,2.067Z" transform="translate(-326.554 -256.831)" fill="#12263f"/>
        <path id="Trazado_116923" data-name="Trazado 116923" d="M366.58,363.236a17.944,17.944,0,0,1,3.68.08c.52.108.858,1.076,1.281,1.655l-.365.451c-.963,0-1.926,0-2.889,0C366.328,365.417,366.32,365.4,366.58,363.236Z" transform="translate(-303.062 -261.566)" fill="#12263f"/>
        <path id="Trazado_116924" data-name="Trazado 116924" d="M366.424,363.9l-.111-1.992h4.64l.282,1.992Z" transform="translate(-303.324 -263.814)" fill="#12263f"/>
        <path id="Trazado_116925" data-name="Trazado 116925" d="M368,363.235v2.006h-4.568v-2.006Z" transform="translate(-308.414 -261.468)" fill="#12263f"/>
        <path id="Trazado_116926" data-name="Trazado 116926" d="M367.977,363.933h-4.538V361.9h4.538Z" transform="translate(-308.402 -263.823)" fill="#12263f"/>
        <path id="Trazado_116927" data-name="Trazado 116927" d="M368,360.579v2.037h-4.557v-2.037Z" transform="translate(-308.398 -266.161)" fill="#12263f"/>
        <path id="Trazado_116928" data-name="Trazado 116928" d="M366.353,362.584l-.169-1.984H370.8l.324,1.984Z" transform="translate(-303.552 -266.124)" fill="#12263f"/>
        <path id="Trazado_116929" data-name="Trazado 116929" d="M369.191,360.595a16.9,16.9,0,0,1,3.71.08c.614.141,1.04,1.1,1.552,1.691l-.362.429a16.925,16.925,0,0,1-3.713-.077c-.612-.141-1.035-1.1-1.544-1.688Z" transform="translate(-298.869 -266.248)" fill="#12263f"/>
        <path id="Trazado_116930" data-name="Trazado 116930" d="M377.055,362.8a16.618,16.618,0,0,1-3.735-.08c-.642-.149-1.093-1.121-1.63-1.718l.36-.4a16.74,16.74,0,0,1,3.73.08c.636.149,1.082,1.115,1.616,1.71Z" transform="translate(-293.823 -266.25)" fill="#12263f"/>
        <path id="Trazado_116931" data-name="Trazado 116931" d="M379.959,362.839a17.372,17.372,0,0,1-3.727-.075c-.672-.155-1.173-1.06-1.931-1.8C378.449,360.05,379.47,360.418,379.959,362.839Z" transform="translate(-289.209 -266.29)" fill="#12263f"/>
        <path id="Trazado_116932" data-name="Trazado 116932" d="M377.249,360.7c5.321-.3,4.51-.415,5.224,1.929C377.185,362.936,377.952,363.047,377.249,360.7Z" transform="translate(-284 -266.221)" fill="#12263f"/>
        <path id="Trazado_116933" data-name="Trazado 116933" d="M348.729,364.071c.769-2.357,1.505-2.607,5.293-1.92C353.355,364.484,353.355,364.484,348.729,364.071Z" transform="translate(-334.394 -263.972)" fill="#12263f"/>
        <path id="Trazado_116934" data-name="Trazado 116934" d="M372.916,363.244a16.607,16.607,0,0,1,3.7.077c.628.147,1.068,1.1,1.594,1.691l-.34.415a18.46,18.46,0,0,1-3.716-.075c-.614-.127-1.071-1.013-1.6-1.558Z" transform="translate(-292.296 -261.573)" fill="#12263f"/>
        <path id="Trazado_116935" data-name="Trazado 116935" d="M370.092,365.364l-.457-1.743c3.107-.985,4.676-.468,5.094,1.743Z" transform="translate(-297.454 -261.63)" fill="#12263f"/>
        <path id="Trazado_116936" data-name="Trazado 116936" d="M356.406,363.526c-.758,2.249-1.2,2.393-5.216,1.812C351.636,363.067,352.526,362.743,356.406,363.526Z" transform="translate(-330.045 -261.632)" fill="#12263f"/>
        <path id="Trazado_116937" data-name="Trazado 116937" d="M365.288,361.914l-.263,2h-4.507v-2Z" transform="translate(-313.563 -263.802)" fill="#12263f"/>
        <path id="Trazado_116938" data-name="Trazado 116938" d="M360.592,362.552l.169-1.965H365.5l-.235,1.965Z" transform="translate(-313.432 -266.146)" fill="#12263f"/>
        <path id="Trazado_116939" data-name="Trazado 116939" d="M374.966,364.01c-.919.064-1.24.105-1.561.105-1.143.008-2.283.006-3.556.006l-.6-2.205a18.2,18.2,0,0,1,3.926.08C373.79,362.142,374.211,363.119,374.966,364.01Z" transform="translate(-298.139 -263.919)" fill="#12263f"/>
        <path id="Trazado_116940" data-name="Trazado 116940" d="M360,360.589c-.589,2.429.42,2.357-5.08,2.086-.061-1.53.49-2.324,2.178-2.108A23.943,23.943,0,0,0,360,360.589Z" transform="translate(-323.464 -266.243)" fill="#12263f"/>
        <path id="Trazado_116941" data-name="Trazado 116941" d="M380.072,364.1c-4.563.415-4.563.415-5.072-1.818C378.16,361.283,379.72,361.842,380.072,364.1Z" transform="translate(-287.974 -263.993)" fill="#12263f"/>
        <path id="Trazado_116942" data-name="Trazado 116942" d="M383.143,364.035c-5.288.307-4.574.412-5.246-1.9C381.987,361.495,382.476,361.675,383.143,364.035Z" transform="translate(-282.856 -263.975)" fill="#12263f"/>
        <path id="Trazado_116943" data-name="Trazado 116943" d="M362.781,360.585c.05,1.818-.7,2.446-2.3,2.225a20.117,20.117,0,0,0-2.687-.022c0-1.442.243-2.432,1.973-2.225A26.017,26.017,0,0,0,362.781,360.585Z" transform="translate(-318.385 -266.238)" fill="#12263f"/>
        <path id="Trazado_116944" data-name="Trazado 116944" d="M348.086,365.389c.742-2.368,1.32-2.57,5.23-1.928C352.828,365.727,352.784,365.743,348.086,365.389Z" transform="translate(-335.53 -261.624)" fill="#12263f"/>
        <path id="Trazado_116945" data-name="Trazado 116945" d="M357.433,364.116c-.058-1.738.565-2.438,2.15-2.23a21.951,21.951,0,0,0,2.8.022c.1,1.663-.446,2.443-2.128,2.227A22.813,22.813,0,0,0,357.433,364.116Z" transform="translate(-319.02 -263.914)" fill="#12263f"/>
        <path id="Trazado_116946" data-name="Trazado 116946" d="M354.054,365.422c-.069-1.74.653-2.4,2.263-2.211a23.789,23.789,0,0,0,2.742.019c0,1.63-.49,2.432-2.111,2.216A21.945,21.945,0,0,0,354.054,365.422Z" transform="translate(-324.993 -261.566)" fill="#12263f"/>
        <path id="Trazado_116947" data-name="Trazado 116947" d="M352.2,362.791c.044-1.718.73-2.427,2.332-2.225a22.743,22.743,0,0,0,2.786.022c-.064,1.591-.589,2.446-2.269,2.225A22.6,22.6,0,0,0,352.2,362.791Z" transform="translate(-328.262 -266.242)" fill="#12263f"/>
        <path id="Trazado_116948" data-name="Trazado 116948" d="M349.371,362.847c.725-2.5,1.173-2.665,5.365-2.034-.285,1.345-.8,2.283-2.454,2.059A21.663,21.663,0,0,0,349.371,362.847Z" transform="translate(-333.259 -266.298)" fill="#12263f"/>
        <path id="Trazado_116949" data-name="Trazado 116949" d="M354.45,364.088c.553-2.4-.423-2.369,5.083-2.1.025,1.5-.459,2.349-2.175,2.119A22.947,22.947,0,0,0,354.45,364.088Z" transform="translate(-324.285 -263.886)" fill="#12263f"/>
        <path id="Trazado_116950" data-name="Trazado 116950" d="M351.677,364.086c.592-2.424-.183-2.355,5.171-2.1-.025,1.63-.786,2.321-2.443,2.117A22.775,22.775,0,0,0,351.677,364.086Z" transform="translate(-329.185 -263.885)" fill="#12263f"/>
        <path id="Trazado_116951" data-name="Trazado 116951" d="M375.478,363.468c4.236-.656,4.8-.443,5.116,1.884C376.413,365.883,376.128,365.784,375.478,363.468Z" transform="translate(-287.13 -261.626)" fill="#12263f"/>
        <path id="Trazado_116952" data-name="Trazado 116952" d="M383.75,365.323c-3.824.656-4.5.429-5.218-1.743C381.742,362.656,383.225,363.151,383.75,365.323Z" transform="translate(-281.733 -261.641)" fill="#12263f"/>
        <path id="Trazado_116953" data-name="Trazado 116953" d="M376.7,365.912a19.192,19.192,0,0,1,3.852.078c.6.125,1.021,1.076,1.525,1.652l-.271.429a18.6,18.6,0,0,1-3.852-.08c-.606-.13-1.035-1.1-1.544-1.688Z" transform="translate(-285.478 -256.845)" fill="#12263f"/>
        <path id="Trazado_116954" data-name="Trazado 116954" d="M377.319,364.177a24.02,24.02,0,0,0-2.869.019c-1.533.2-2.219-.426-2.2-1.928C375.294,361.313,376.843,361.833,377.319,364.177Z" transform="translate(-292.834 -263.976)" fill="#12263f"/>
        <path id="Trazado_116955" data-name="Trazado 116955" d="M362.154,363.231c-.542,2.479-.957,2.623-5.069,2.047-.108-1.583.57-2.26,2.194-2.067A25.242,25.242,0,0,0,362.154,363.231Z" transform="translate(-319.648 -261.566)" fill="#12263f"/>
        <path id="Trazado_116956" data-name="Trazado 116956" d="M385.132,368.014c-4.366.479-4.491.434-5.3-1.768C382.919,365.344,384.443,365.823,385.132,368.014Z" transform="translate(-279.444 -256.909)" fill="#12263f"/>
        <path id="Trazado_116957" data-name="Trazado 116957" d="M355.345,365.905c-.628,2.438-1.179,2.626-5.171,2,.022-1.533.711-2.214,2.3-2.023A24.506,24.506,0,0,0,355.345,365.905Z" transform="translate(-331.84 -256.844)" fill="#12263f"/>
        <path id="Trazado_116958" data-name="Trazado 116958" d="M352,366.161c-.578,2.194-1.594,2.54-5.2,1.765C347.459,365.721,348.234,365.458,352,366.161Z" transform="translate(-337.797 -256.909)" fill="#12263f"/>
        <path id="Trazado_116959" data-name="Trazado 116959" d="M360.392,363.238h4.754l-.252,2.012h-4.5Z" transform="translate(-313.786 -261.462)" fill="#12263f"/>
        <path id="Trazado_116960" data-name="Trazado 116960" d="M366.766,366.576l-.216-2a23.723,23.723,0,0,1,3.971.075c.473.086.8,1.013,1.458,1.926Z" transform="translate(-302.905 -259.181)" fill="#12263f"/>
        <path id="Trazado_116961" data-name="Trazado 116961" d="M363.442,364.676a5.905,5.905,0,0,1,.808-.125c1.19-.014,2.377-.005,3.688-.005v2.023a7.055,7.055,0,0,1-.8.1c-1.187.008-2.374,0-3.7,0Z" transform="translate(-308.397 -259.156)" fill="#12263f"/>
        <path id="Trazado_116962" data-name="Trazado 116962" d="M350.666,366.682c.5-2.3-.177-2.327,5.113-1.987,0,1.458-.581,2.18-2.156,2.006A27.7,27.7,0,0,0,350.666,366.682Z" transform="translate(-330.971 -259.165)" fill="#12263f"/>
        <path id="Trazado_116963" data-name="Trazado 116963" d="M378.073,366.7a27.672,27.672,0,0,0-2.917.019c-1.508.166-2.092-.512-2.039-2.139a20.18,20.18,0,0,1,3.84.075c.562.111.96,1.035,1.433,1.591Z" transform="translate(-291.307 -259.186)" fill="#12263f"/>
        <path id="Trazado_116964" data-name="Trazado 116964" d="M375.994,364.746c4.5-.479,4.651-.426,5.127,1.785C377.61,367.311,376.547,366.956,375.994,364.746Z" transform="translate(-286.218 -259.229)" fill="#12263f"/>
        <path id="Trazado_116965" data-name="Trazado 116965" d="M356.7,366.765c.418-2.346,1.281-2.64,5.014-1.942.089,1.522-.587,2.15-2.133,1.965A24.713,24.713,0,0,0,356.7,366.765Z" transform="translate(-320.316 -259.248)" fill="#12263f"/>
        <path id="Trazado_116966" data-name="Trazado 116966" d="M353.609,366.757c.4-2.385.916-2.57,5.03-1.973.025,1.447-.54,2.183-2.122,2A24.792,24.792,0,0,0,353.609,366.757Z" transform="translate(-325.771 -259.24)" fill="#12263f"/>
        <path id="Trazado_116967" data-name="Trazado 116967" d="M375.267,366.75a19.138,19.138,0,0,1-3.721-.072c-.589-.119-1.029-1-1.688-1.685C373.7,364,375.01,364.459,375.267,366.75Z" transform="translate(-297.06 -259.236)" fill="#12263f"/>
        <path id="Trazado_116968" data-name="Trazado 116968" d="M379.18,364.744c4.4-.479,4.571-.418,5.263,1.793C380.879,367.282,379.872,366.955,379.18,364.744Z" transform="translate(-280.588 -259.228)" fill="#12263f"/>
        <path id="Trazado_116969" data-name="Trazado 116969" d="M347.457,366.6c.595-2.222,1.226-2.44,5.21-1.8C352.075,367.006,351.411,367.238,347.457,366.6Z" transform="translate(-336.641 -259.251)" fill="#12263f"/>
        <path id="Trazado_116970" data-name="Trazado 116970" d="M365.03,364.582l-.163,1.92h-4.643l.144-1.92Z" transform="translate(-314.083 -259.088)" fill="#12263f"/>
      </g>
    </g>
    <line id="Línea_1521" data-name="Línea 1521" x1="201.208" transform="translate(364.472 394.723)" fill="none" stroke="#37a3a5" stroke-miterlimit="10" stroke-width="2" stroke-dasharray="2 2"/>
    <line id="Línea_1522" data-name="Línea 1522" x2="28.697" y2="75.589" transform="translate(633.799 443.257)" fill="none" stroke="#37a3a5" stroke-miterlimit="10" stroke-width="2" stroke-dasharray="2 2"/>
    <line id="Línea_1523" data-name="Línea 1523" y1="115.46" x2="201.77" transform="translate(410.286 443.257)" fill="none" stroke="#37a3a5" stroke-miterlimit="10" stroke-width="2" stroke-dasharray="2 2"/>
    <line id="Línea_1524" data-name="Línea 1524" x1="229.18" y1="100.006" transform="translate(367.335 423.071)" fill="none" stroke="#37a3a5" stroke-miterlimit="10" stroke-width="2" stroke-dasharray="2 2"/>
    <line id="Línea_1525" data-name="Línea 1525" x2="27.22" y2="108.347" transform="translate(337.252 447.041)" fill="none" stroke="#37a3a5" stroke-miterlimit="10" stroke-width="2" stroke-dasharray="2 2"/>
    <line id="Línea_1526" data-name="Línea 1526" y1="0.523" x2="133.451" transform="translate(459.081 593.019)" fill="none" stroke="#37a3a5" stroke-miterlimit="10" stroke-width="2" stroke-dasharray="2 2"/>
  </g>
</svg>
