<svg xmlns="http://www.w3.org/2000/svg" width="555.052" height="298.117" viewBox="0 0 555.052 298.117">
  <g id="Grupo_55348" data-name="Grupo 55348" transform="translate(-191.667 -7721)">
    <path id="Trazado_116978" data-name="Trazado 116978" d="M140.469,622.152H107.583c-.91,0-1.323-.4-1.323-1.3q0-16.79.006-33.578c0-1.683-.037-3.374.1-5.047a5.432,5.432,0,0,1,2.785-4.243,5.687,5.687,0,0,1,3.075-.837q28.257,0,56.515.009a5.606,5.606,0,0,1,5.422,3.47,5.923,5.923,0,0,1,.534,2.388q.047,18.94.02,37.878c0,.868-.42,1.267-1.306,1.267h-32.94Zm32.069-2.217v-.761q0-15.66,0-31.32c0-1.537.059-3.077.032-4.614a3.769,3.769,0,0,0-.953-2.672,4.022,4.022,0,0,0-2.989-1.234q-28.1.024-56.193.011a6.451,6.451,0,0,0-.646.013,3.633,3.633,0,0,0-3.321,3.319c-.1,1.8-.029,3.606-.029,5.41q0,15.445,0,30.888v.959Z" transform="translate(121.621 7185.314)" fill="#12263f"/>
    <path id="Trazado_116979" data-name="Trazado 116979" d="M149.756,612.556a2.327,2.327,0,0,1,2.582-2.283h27.7c1.158,0,1.441.321,1.419,1.474-.024,1.342-.042,2.686.019,4.027a3.965,3.965,0,0,1-3.949,3.932c-.27.006-.538,0-.808,0H106.966a4,4,0,0,1-4.23-3.154,9.853,9.853,0,0,1-.1-1.923c0-1.04.023-2.079.042-3.118.016-.905.342-1.238,1.241-1.235,2.438.007,4.878.039,7.316.036,6.512-.006,13.024-.032,19.537-.026a4.137,4.137,0,0,1,1.6.316,1.839,1.839,0,0,1,1.075,1.571c.033.31.174.392.445.39q1.935-.009,3.872-.011,2.712,0,5.426.006Zm-18.511-.109H105.488c-.693,0-.707,0-.712.712-.006.735.086,1.475.019,2.2a1.993,1.993,0,0,0,2.147,2.155q35.067-.041,70.136-.02c.161,0,.323,0,.484,0a1.647,1.647,0,0,0,1.685-1.381c.1-1.2.027-2.409.027-3.712-1.211,0-2.388,0-3.565,0-2.345.011-4.688.039-7.033.043q-7.106.011-14.21,0c-.683,0-1.365.007-2.046,0-.263,0-.41.039-.471.357a2.151,2.151,0,0,1-2.286,1.912q-8.02.013-16.041,0a2.187,2.187,0,0,1-2.323-2C131.287,612.639,131.27,612.571,131.245,612.447Z" transform="translate(120.043 7199.728)" fill="#12263f"/>
    <path id="Trazado_116980" data-name="Trazado 116980" d="M138.928,614.063h-28.1c-1.019,0-1.428-.388-1.428-1.373q0-13.535.009-27.069c0-1.218.017-2.438.023-3.658a1.153,1.153,0,0,1,1.066-1.248,3.4,3.4,0,0,1,.484-.017q9.42,0,18.839,0c2.29,0,4.582.04,6.872.04,2.526,0,5.051-.039,7.576-.04q11.406-.007,22.81,0a1.2,1.2,0,0,1,1.32,1.329q0,15.333,0,30.667c0,1-.395,1.366-1.485,1.366Q152.923,614.065,138.928,614.063Zm27.261-31.182h-54.56v28.94h54.56Z" transform="translate(122.989 7186.86)" fill="#12263f"/>
    <path id="Trazado_116981" data-name="Trazado 116981" d="M147.193,591.566a4.1,4.1,0,0,1-.718.841,1.078,1.078,0,0,1-1.205-.113,29.711,29.711,0,0,0-3.981-2.2,18.188,18.188,0,0,0-18.208,2.443c-.174.125-.331.276-.507.4a1.085,1.085,0,0,1-1.537-.181,1.038,1.038,0,0,1,.2-1.525,26.775,26.775,0,0,1,3.634-2.376c7.475-3.612,14.688-3.1,21.573,1.583A1.478,1.478,0,0,1,147.193,591.566Z" transform="translate(127.943 7189.377)" fill="#37a3a5"/>
    <path id="Trazado_116982" data-name="Trazado 116982" d="M143.692,593.753a4.091,4.091,0,0,1-.7.861.994.994,0,0,1-1.2-.106,13.3,13.3,0,0,0-4.365-2.151,14.017,14.017,0,0,0-12.7,2.487,1.868,1.868,0,0,1-1.016.363.916.916,0,0,1-.881-.743,1.06,1.06,0,0,1,.393-1.2,15.107,15.107,0,0,1,4.648-2.651,16.054,16.054,0,0,1,14.88,1.884A1.776,1.776,0,0,1,143.692,593.753Z" transform="translate(128.804 7190.733)" fill="#37a3a5"/>
    <path id="Trazado_116983" data-name="Trazado 116983" d="M132.147,592.473a12.5,12.5,0,0,1,7.37,2.1c.119.08.235.165.346.255a1.088,1.088,0,1,1-1.287,1.754,9.957,9.957,0,0,0-12.1.264,1.147,1.147,0,0,1-1.436.109,1.046,1.046,0,0,1-.369-1.244,1.722,1.722,0,0,1,.5-.611A11.6,11.6,0,0,1,132.147,592.473Z" transform="translate(129.596 7191.984)" fill="#37a3a5"/>
    <path id="Trazado_116984" data-name="Trazado 116984" d="M131.942,595.239a7.926,7.926,0,0,1,4.683,1.487,1.1,1.1,0,1,1-1.231,1.813,5.914,5.914,0,0,0-7.157.161,1.111,1.111,0,0,1-1.663-.1,1.147,1.147,0,0,1,.373-1.673A8.069,8.069,0,0,1,131.942,595.239Z" transform="translate(130.36 7193.188)" fill="#37a3a5"/>
    <path id="Trazado_116985" data-name="Trazado 116985" d="M140.469,693.56H107.583c-.91,0-1.323-.4-1.323-1.3q0-16.788.006-33.579c0-1.683-.037-3.372.1-5.047a5.432,5.432,0,0,1,2.785-4.243,5.7,5.7,0,0,1,3.075-.837q28.257,0,56.515.009a5.607,5.607,0,0,1,5.422,3.47,5.929,5.929,0,0,1,.534,2.388q.047,18.94.02,37.879c0,.867-.42,1.266-1.306,1.266h-32.94Zm32.069-2.217v-.76q0-15.66,0-31.318c0-1.538.059-3.077.032-4.615a3.77,3.77,0,0,0-.953-2.672,4.027,4.027,0,0,0-2.989-1.234q-28.1.024-56.193.011c-.215,0-.432-.009-.646.013a3.633,3.633,0,0,0-3.321,3.319c-.1,1.8-.029,3.606-.029,5.41q0,15.445,0,30.889v.957Z" transform="translate(121.621 7216.38)" fill="#12263f"/>
    <path id="Trazado_116986" data-name="Trazado 116986" d="M149.756,683.964a2.328,2.328,0,0,1,2.582-2.283h27.7c1.158,0,1.441.323,1.419,1.474-.024,1.342-.042,2.686.019,4.027a3.965,3.965,0,0,1-3.949,3.932c-.27.006-.538,0-.808,0H106.966a4,4,0,0,1-4.23-3.153,9.869,9.869,0,0,1-.1-1.924c0-1.039.023-2.079.042-3.118.016-.905.342-1.238,1.241-1.236,2.438.009,4.878.039,7.316.037,6.512-.007,13.024-.033,19.537-.026a4.086,4.086,0,0,1,1.6.316,1.835,1.835,0,0,1,1.075,1.57c.033.31.174.393.445.392q1.935-.011,3.872-.013,2.712,0,5.426.006Zm-18.511-.109H105.488c-.693,0-.707,0-.712.712-.006.735.086,1.475.019,2.2a1.994,1.994,0,0,0,2.147,2.157q35.067-.041,70.136-.02c.161,0,.323,0,.484,0a1.646,1.646,0,0,0,1.685-1.38c.1-1.2.027-2.408.027-3.712-1.211,0-2.388,0-3.565,0-2.345.011-4.688.039-7.033.043q-7.106.011-14.21,0c-.683,0-1.365.007-2.046,0-.263,0-.41.037-.471.356a2.149,2.149,0,0,1-2.286,1.911q-8.02.013-16.041,0a2.186,2.186,0,0,1-2.323-2C131.287,684.048,131.27,683.979,131.245,683.855Z" transform="translate(120.043 7230.793)" fill="#12263f"/>
    <path id="Trazado_116987" data-name="Trazado 116987" d="M138.928,685.472h-28.1c-1.019,0-1.428-.387-1.428-1.373q0-13.535.009-27.069c0-1.218.017-2.438.023-3.656a1.154,1.154,0,0,1,1.066-1.25,3.621,3.621,0,0,1,.484-.017q9.42,0,18.839,0c2.29,0,4.582.04,6.872.04,2.526,0,5.051-.039,7.576-.04q11.406-.007,22.81,0a1.2,1.2,0,0,1,1.32,1.329q0,15.333,0,30.667c0,1-.395,1.366-1.485,1.366Zm27.261-31.183h-54.56v28.941h54.56Z" transform="translate(122.989 7217.926)" fill="#12263f"/>
    <path id="Trazado_116988" data-name="Trazado 116988" d="M147.193,662.974a4.11,4.11,0,0,1-.718.842,1.083,1.083,0,0,1-1.205-.113,29.368,29.368,0,0,0-3.981-2.2,18.184,18.184,0,0,0-18.208,2.441c-.174.126-.331.276-.507.4a1.086,1.086,0,0,1-1.537-.179,1.039,1.039,0,0,1,.2-1.527,26.78,26.78,0,0,1,3.634-2.376c7.475-3.612,14.688-3.1,21.573,1.583A1.478,1.478,0,0,1,147.193,662.974Z" transform="translate(127.943 7220.443)" fill="#37a3a5"/>
    <path id="Trazado_116989" data-name="Trazado 116989" d="M143.692,665.161a4.054,4.054,0,0,1-.7.861.994.994,0,0,1-1.2-.106,13.3,13.3,0,0,0-4.365-2.151,14.018,14.018,0,0,0-12.7,2.488,1.878,1.878,0,0,1-1.016.362.914.914,0,0,1-.881-.743,1.058,1.058,0,0,1,.393-1.194,15.14,15.14,0,0,1,4.648-2.652,16.058,16.058,0,0,1,14.88,1.884A1.776,1.776,0,0,1,143.692,665.161Z" transform="translate(128.804 7221.798)" fill="#37a3a5"/>
    <path id="Trazado_116990" data-name="Trazado 116990" d="M132.147,663.881a12.485,12.485,0,0,1,7.37,2.1,4,4,0,0,1,.346.255,1.088,1.088,0,1,1-1.287,1.752,9.955,9.955,0,0,0-12.1.266,1.145,1.145,0,0,1-1.436.108,1.045,1.045,0,0,1-.369-1.244,1.722,1.722,0,0,1,.5-.611A11.61,11.61,0,0,1,132.147,663.881Z" transform="translate(129.596 7223.05)" fill="#37a3a5"/>
    <path id="Trazado_116991" data-name="Trazado 116991" d="M131.942,666.647a7.937,7.937,0,0,1,4.683,1.487,1.1,1.1,0,1,1-1.231,1.814,5.912,5.912,0,0,0-7.157.159,1.11,1.11,0,0,1-1.663-.1,1.145,1.145,0,0,1,.373-1.672A8.071,8.071,0,0,1,131.942,666.647Z" transform="translate(130.36 7224.253)" fill="#37a3a5"/>
    <path id="Trazado_119521" data-name="Trazado 119521" d="M6.4,0H132.559a6.4,6.4,0,0,1,6.4,6.4V256.362a6.4,6.4,0,0,1-6.4,6.4H6.4a6.4,6.4,0,0,1-6.4-6.4V6.4A6.4,6.4,0,0,1,6.4,0Z" transform="translate(192.667 7737.909)" fill="none" stroke="#12263f" stroke-width="2"/>
    <path id="Trazado_116992" data-name="Trazado 116992" d="M163.289,686.687q0,2.122,0,4.246c0,2.89.016,5.782-.01,8.673a2.61,2.61,0,0,1-2.78,2.752q-5.857.011-11.716,0a2.611,2.611,0,0,1-2.742-2.557c-.017-.228-.017-.456-.017-.684q0-12.478.007-24.955a5.067,5.067,0,0,1,.194-1.494,2.38,2.38,0,0,1,2.332-1.738q6.087-.028,12.173,0a2.57,2.57,0,0,1,2.549,2.747c.022,4.21.009,8.421.01,12.63Zm-1.574-12.857H147.636v22.187h14.079Zm-5.8,24.721a1.258,1.258,0,1,0-1.277,1.338A1.316,1.316,0,0,0,155.912,698.552Z" transform="translate(138.921 7226.109)" fill="#12263f"/>
    <path id="Trazado_119524" data-name="Trazado 119524" d="M0,0H14.079V22.187H0Z" transform="translate(286.557 7899.94)" fill="#fff"/>
    <path id="Trazado_116993" data-name="Trazado 116993" d="M152.71,607.307h6.884v-1.6h.858v-9.034h2.22v9.036h.861c0,.5.006.962,0,1.426,0,.149.03.22.194.258a2.019,2.019,0,0,1,1.546,1.807c.039.59.022,1.185.022,1.778q.007,3.141,0,6.284,0,3.367,0,6.733c0,1.712.006,3.424-.006,5.136a2.053,2.053,0,0,1-2.117,2.1q-6.52,0-13.042,0a2.065,2.065,0,0,1-2.111-2.1q0-5.687,0-11.376,0-4.178,0-8.356a2.04,2.04,0,0,1,1.422-1.955,7.783,7.783,0,0,1,1-.169m-.647-1.306,9.582,19.426a2.707,2.707,0,0,0-2.689-2.663,2.671,2.671,0,0,0-2.74,2.669,2.643,2.643,0,0,0,2.747,2.651A2.675,2.675,0,0,0,159.372,625.4Z" transform="translate(139.789 7193.813)" fill="#12263f"/>
    <path id="Trazado_119532" data-name="Trazado 119532" d="M2.842,0A2.842,2.842,0,1,1,0,2.842,2.842,2.842,0,0,1,2.842,0Z" transform="translate(293.604 7816.364)" fill="#fff"/>
    <path id="Trazado_119533" data-name="Trazado 119533" d="M2.36,0A2.36,2.36,0,1,1,0,2.36,2.36,2.36,0,0,1,2.36,0Z" transform="translate(294.086 7816.846)" fill="#37a3a5"/>
    <path id="Trazado_119522" data-name="Trazado 119522" d="M10.276-4.507l1.386-7.579h2.889L11.986,0H8.965L7.346-6.89,5.761,0H2.748L.174-12.086h2.9L4.458-4.507l1.66-7.579H8.591ZM18.511,0H15.705V-8.981h2.806ZM15.539-11.3a1.249,1.249,0,0,1,.432-.979,1.629,1.629,0,0,1,1.121-.382,1.629,1.629,0,0,1,1.121.382,1.249,1.249,0,0,1,.432.979,1.249,1.249,0,0,1-.432.979,1.629,1.629,0,0,1-1.121.382,1.629,1.629,0,0,1-1.121-.382A1.249,1.249,0,0,1,15.539-11.3ZM25.666-6.45l-.921-.066a1.655,1.655,0,0,0-1.693.83V0h-2.8V-8.981h2.623l.091,1.154a2.166,2.166,0,0,1,1.967-1.32,2.728,2.728,0,0,1,.78.1ZM31.02.166a4.617,4.617,0,0,1-3.345-1.233A4.257,4.257,0,0,1,26.4-4.275v-.232a5.516,5.516,0,0,1,.51-2.432A3.735,3.735,0,0,1,28.4-8.571a4.5,4.5,0,0,1,2.324-.577,3.888,3.888,0,0,1,2.988,1.175,4.616,4.616,0,0,1,1.1,3.275v1.087H29.244A2.016,2.016,0,0,0,29.9-2.424a1.951,1.951,0,0,0,1.312.432,2.514,2.514,0,0,0,2.075-.93l1.278,1.511a3.573,3.573,0,0,1-1.482,1.15A5.007,5.007,0,0,1,31.02.166ZM30.7-6.989q-1.229,0-1.461,1.627h2.822v-.216a1.386,1.386,0,0,0-.34-1.042A1.354,1.354,0,0,0,30.7-6.989ZM38.881,0H36.075V-12.75h2.806Zm6.068.166A4.617,4.617,0,0,1,41.6-1.067a4.257,4.257,0,0,1-1.278-3.208v-.232a5.516,5.516,0,0,1,.51-2.432,3.735,3.735,0,0,1,1.49-1.631,4.5,4.5,0,0,1,2.324-.577,3.888,3.888,0,0,1,2.988,1.175,4.616,4.616,0,0,1,1.1,3.275v1.087H43.172a2.016,2.016,0,0,0,.656,1.187,1.951,1.951,0,0,0,1.312.432,2.514,2.514,0,0,0,2.075-.93l1.278,1.511a3.573,3.573,0,0,1-1.482,1.15A5.007,5.007,0,0,1,44.949.166Zm-.315-7.155q-1.229,0-1.461,1.627h2.822v-.216a1.386,1.386,0,0,0-.34-1.042A1.354,1.354,0,0,0,44.633-6.989Zm9.928,4.466a.646.646,0,0,0-.374-.573,5.682,5.682,0,0,0-1.419-.448,6.473,6.473,0,0,1-1.727-.61A2.892,2.892,0,0,1,50-5.072a2.19,2.19,0,0,1-.357-1.237,2.482,2.482,0,0,1,1.021-2.038,4.206,4.206,0,0,1,2.673-.8,4.66,4.66,0,0,1,2.855.805,2.518,2.518,0,0,1,1.079,2.117H54.47q0-1.079-1.137-1.079a1.127,1.127,0,0,0-.739.245.758.758,0,0,0-.3.61.7.7,0,0,0,.365.606,3.451,3.451,0,0,0,1.166.382,10.078,10.078,0,0,1,1.407.357,2.556,2.556,0,0,1,2.025,2.5,2.352,2.352,0,0,1-1.092,2,4.787,4.787,0,0,1-2.826.772,4.885,4.885,0,0,1-2.059-.415,3.442,3.442,0,0,1-1.411-1.129,2.556,2.556,0,0,1-.506-1.5h2.615a1.081,1.081,0,0,0,.415.909,1.707,1.707,0,0,0,1.021.286,1.343,1.343,0,0,0,.859-.232A.743.743,0,0,0,54.561-2.523Zm8.708,0A.646.646,0,0,0,62.9-3.1a5.682,5.682,0,0,0-1.419-.448,6.473,6.473,0,0,1-1.727-.61,2.892,2.892,0,0,1-1.038-.917,2.19,2.19,0,0,1-.357-1.237,2.482,2.482,0,0,1,1.021-2.038,4.206,4.206,0,0,1,2.673-.8,4.66,4.66,0,0,1,2.855.805,2.518,2.518,0,0,1,1.079,2.117H63.177q0-1.079-1.137-1.079a1.127,1.127,0,0,0-.739.245.758.758,0,0,0-.3.61.7.7,0,0,0,.365.606,3.451,3.451,0,0,0,1.166.382,10.078,10.078,0,0,1,1.407.357,2.556,2.556,0,0,1,2.025,2.5,2.352,2.352,0,0,1-1.092,2,4.787,4.787,0,0,1-2.826.772A4.885,4.885,0,0,1,59.99-.249a3.442,3.442,0,0,1-1.411-1.129,2.556,2.556,0,0,1-.506-1.5h2.615a1.081,1.081,0,0,0,.415.909,1.707,1.707,0,0,0,1.021.286,1.343,1.343,0,0,0,.859-.232A.743.743,0,0,0,63.269-2.523Zm13.057-.764,2.407-8.8h3.254L77.919,0H74.732L70.7-12.086h3.229ZM85.78-2.241h5.072V0H82.867V-12.086H85.78ZM99.1-2.258H95.11L94.413,0H91.3l4.433-12.086h2.739L102.938,0H99.809Zm-3.3-2.25h2.6L97.1-8.7ZM113.912,0h-2.9l-4.283-7.521V0h-2.914V-12.086h2.914l4.275,7.521v-7.521h2.905Zm10.1,0H115.58V-1.826l3.885-4.084a4.637,4.637,0,0,0,1.436-2.6,1.807,1.807,0,0,0-.34-1.187,1.215,1.215,0,0,0-.988-.407,1.23,1.23,0,0,0-1.038.544,2.234,2.234,0,0,0-.4,1.357h-2.806a3.969,3.969,0,0,1,.556-2.054,3.9,3.9,0,0,1,1.544-1.473,4.586,4.586,0,0,1,2.208-.531,4.512,4.512,0,0,1,3.017.9,3.23,3.23,0,0,1,1.058,2.6,3.773,3.773,0,0,1-.266,1.39,6.1,6.1,0,0,1-.826,1.419,20.805,20.805,0,0,1-1.805,1.988l-1.561,1.8h4.756Z" transform="translate(200.899 7991.899)" fill="#12263f"/>
    <path id="Trazado_116994" data-name="Trazado 116994" d="M429.026,622.152H396.14c-.908,0-1.323-.4-1.323-1.3q0-16.79.006-33.578c0-1.683-.037-3.374.1-5.047a5.425,5.425,0,0,1,2.785-4.243,5.682,5.682,0,0,1,3.074-.837q28.259,0,56.515.009a5.605,5.605,0,0,1,5.422,3.47,5.925,5.925,0,0,1,.534,2.388q.047,18.94.02,37.878c0,.868-.42,1.267-1.3,1.267H429.026Zm32.07-2.217v-.761q0-15.66,0-31.32c0-1.537.059-3.077.032-4.614a3.763,3.763,0,0,0-.953-2.672,4.022,4.022,0,0,0-2.989-1.234q-28.1.024-56.193.011a6.414,6.414,0,0,0-.644.013,3.633,3.633,0,0,0-3.322,3.319c-.1,1.8-.029,3.606-.029,5.41v31.846Z" transform="translate(247.156 7185.314)" fill="#12263f"/>
    <path id="Trazado_116995" data-name="Trazado 116995" d="M438.313,612.556a2.328,2.328,0,0,1,2.582-2.283h27.7c1.158,0,1.441.321,1.419,1.474-.024,1.342-.042,2.686.019,4.027a3.964,3.964,0,0,1-3.949,3.932c-.27.006-.538,0-.808,0H395.523a4,4,0,0,1-4.229-3.154,9.856,9.856,0,0,1-.1-1.923c0-1.04.023-2.079.042-3.118.016-.905.342-1.238,1.241-1.235,2.438.007,4.878.039,7.316.036,6.512-.006,13.024-.032,19.537-.026a4.149,4.149,0,0,1,1.6.316A1.837,1.837,0,0,1,422,612.171c.033.31.174.392.446.39q1.935-.009,3.87-.011,2.712,0,5.426.006Zm-18.511-.109H394.045c-.692,0-.706,0-.712.712-.006.735.086,1.475.019,2.2a1.994,1.994,0,0,0,2.147,2.155q35.067-.041,70.136-.02c.161,0,.323,0,.484,0a1.649,1.649,0,0,0,1.686-1.381c.1-1.2.026-2.409.026-3.712-1.21,0-2.388,0-3.565,0-2.343.011-4.688.039-7.033.043q-7.106.011-14.21,0c-.682,0-1.365.007-2.046,0-.263,0-.41.039-.471.357a2.15,2.15,0,0,1-2.286,1.912q-8.02.013-16.039,0a2.188,2.188,0,0,1-2.325-2C419.844,612.639,419.828,612.571,419.8,612.447Z" transform="translate(245.578 7199.728)" fill="#12263f"/>
    <path id="Trazado_116996" data-name="Trazado 116996" d="M427.484,614.063h-28.1c-1.019,0-1.428-.388-1.426-1.373q0-13.535.007-27.069c0-1.218.019-2.438.023-3.658a1.154,1.154,0,0,1,1.068-1.248,3.372,3.372,0,0,1,.482-.017q9.419,0,18.839,0c2.292,0,4.582.04,6.874.04,2.524,0,5.05-.039,7.574-.04q11.406-.007,22.81,0a1.2,1.2,0,0,1,1.32,1.329q0,15.333,0,30.667c0,1-.395,1.366-1.485,1.366Q441.479,614.065,427.484,614.063Zm27.263-31.182H400.185v28.94h54.562Z" transform="translate(248.524 7186.86)" fill="#12263f"/>
    <path id="Trazado_116997" data-name="Trazado 116997" d="M435.75,591.566a4.141,4.141,0,0,1-.716.841,1.078,1.078,0,0,1-1.205-.113,29.818,29.818,0,0,0-3.982-2.2,18.188,18.188,0,0,0-18.208,2.443c-.174.125-.33.276-.507.4a1.085,1.085,0,0,1-1.537-.181,1.038,1.038,0,0,1,.2-1.525,26.669,26.669,0,0,1,3.632-2.376c7.477-3.612,14.688-3.1,21.573,1.583A1.474,1.474,0,0,1,435.75,591.566Z" transform="translate(253.479 7189.377)" fill="#37a3a5"/>
    <path id="Trazado_116998" data-name="Trazado 116998" d="M432.249,593.753a4.048,4.048,0,0,1-.7.861.994.994,0,0,1-1.2-.106,13.3,13.3,0,0,0-4.365-2.151,14.017,14.017,0,0,0-12.7,2.487,1.868,1.868,0,0,1-1.016.363.917.917,0,0,1-.881-.743,1.06,1.06,0,0,1,.393-1.2,15.107,15.107,0,0,1,4.648-2.651A16.056,16.056,0,0,1,431.3,592.5,1.777,1.777,0,0,1,432.249,593.753Z" transform="translate(254.339 7190.733)" fill="#37a3a5"/>
    <path id="Trazado_116999" data-name="Trazado 116999" d="M420.706,592.473a12.5,12.5,0,0,1,7.37,2.1c.118.08.234.165.346.255a1.089,1.089,0,1,1-1.289,1.754,9.957,9.957,0,0,0-12.1.264,1.147,1.147,0,0,1-1.436.109,1.048,1.048,0,0,1-.369-1.244,1.722,1.722,0,0,1,.5-.611A11.6,11.6,0,0,1,420.706,592.473Z" transform="translate(255.13 7191.984)" fill="#37a3a5"/>
    <path id="Trazado_117000" data-name="Trazado 117000" d="M420.5,595.239a7.923,7.923,0,0,1,4.683,1.487,1.1,1.1,0,1,1-1.231,1.813,5.914,5.914,0,0,0-7.157.161,1.111,1.111,0,0,1-1.663-.1,1.147,1.147,0,0,1,.373-1.673A8.073,8.073,0,0,1,420.5,595.239Z" transform="translate(255.896 7193.188)" fill="#37a3a5"/>
    <path id="Trazado_117001" data-name="Trazado 117001" d="M429.026,693.56H396.14c-.908,0-1.323-.4-1.323-1.3q0-16.788.006-33.579c0-1.683-.037-3.372.1-5.047a5.425,5.425,0,0,1,2.785-4.243,5.694,5.694,0,0,1,3.074-.837q28.259,0,56.515.009a5.605,5.605,0,0,1,5.422,3.47,5.93,5.93,0,0,1,.534,2.388q.047,18.94.02,37.879c0,.867-.42,1.266-1.3,1.266H429.026Zm32.07-2.217v-.76q0-15.66,0-31.318c0-1.538.059-3.077.032-4.615a3.763,3.763,0,0,0-.953-2.672,4.027,4.027,0,0,0-2.989-1.234q-28.1.024-56.193.011a6.432,6.432,0,0,0-.644.013,3.634,3.634,0,0,0-3.322,3.319c-.1,1.8-.029,3.606-.029,5.41v31.846Z" transform="translate(247.156 7216.38)" fill="#12263f"/>
    <path id="Trazado_117002" data-name="Trazado 117002" d="M438.313,683.964a2.329,2.329,0,0,1,2.582-2.283h27.7c1.158,0,1.441.323,1.419,1.474-.024,1.342-.042,2.686.019,4.027a3.964,3.964,0,0,1-3.949,3.932c-.27.006-.538,0-.808,0H395.523a4,4,0,0,1-4.229-3.153,9.871,9.871,0,0,1-.1-1.924c0-1.039.023-2.079.042-3.118.016-.905.342-1.238,1.241-1.236,2.438.009,4.878.039,7.316.037,6.512-.007,13.024-.033,19.537-.026a4.1,4.1,0,0,1,1.6.316,1.833,1.833,0,0,1,1.073,1.57c.033.31.174.393.446.392q1.935-.011,3.87-.013,2.712,0,5.426.006Zm-18.511-.109H394.045c-.692,0-.706,0-.712.712-.006.735.086,1.475.019,2.2a2,2,0,0,0,2.147,2.157q35.067-.041,70.136-.02c.161,0,.323,0,.484,0a1.647,1.647,0,0,0,1.686-1.38c.1-1.2.026-2.408.026-3.712-1.21,0-2.388,0-3.565,0-2.343.011-4.688.039-7.033.043q-7.106.011-14.21,0c-.682,0-1.365.007-2.046,0-.263,0-.41.037-.471.356a2.148,2.148,0,0,1-2.286,1.911q-8.02.013-16.039,0a2.186,2.186,0,0,1-2.325-2C419.844,684.048,419.828,683.979,419.8,683.855Z" transform="translate(245.578 7230.793)" fill="#12263f"/>
    <path id="Trazado_117003" data-name="Trazado 117003" d="M427.484,685.472h-28.1c-1.019,0-1.428-.387-1.426-1.373q0-13.535.007-27.069c0-1.218.019-2.438.023-3.656a1.155,1.155,0,0,1,1.068-1.25,3.59,3.59,0,0,1,.482-.017q9.419,0,18.839,0c2.292,0,4.582.04,6.874.04,2.524,0,5.05-.039,7.574-.04q11.406-.007,22.81,0a1.2,1.2,0,0,1,1.32,1.329q0,15.333,0,30.667c0,1-.395,1.366-1.485,1.366Zm27.263-31.183H400.185v28.941h54.562Z" transform="translate(248.524 7217.926)" fill="#12263f"/>
    <path id="Trazado_117004" data-name="Trazado 117004" d="M435.75,662.974a4.15,4.15,0,0,1-.716.842,1.083,1.083,0,0,1-1.205-.113,29.472,29.472,0,0,0-3.982-2.2,18.184,18.184,0,0,0-18.208,2.441c-.174.126-.33.276-.507.4a1.086,1.086,0,0,1-1.537-.179,1.039,1.039,0,0,1,.2-1.527,26.675,26.675,0,0,1,3.632-2.376c7.477-3.612,14.688-3.1,21.573,1.583A1.474,1.474,0,0,1,435.75,662.974Z" transform="translate(253.479 7220.443)" fill="#37a3a5"/>
    <path id="Trazado_117005" data-name="Trazado 117005" d="M432.249,665.161a4.011,4.011,0,0,1-.7.861.994.994,0,0,1-1.2-.106,13.3,13.3,0,0,0-4.365-2.151,14.018,14.018,0,0,0-12.7,2.488,1.878,1.878,0,0,1-1.016.362.916.916,0,0,1-.881-.743,1.058,1.058,0,0,1,.393-1.194,15.14,15.14,0,0,1,4.648-2.652A16.061,16.061,0,0,1,431.3,663.91,1.777,1.777,0,0,1,432.249,665.161Z" transform="translate(254.339 7221.798)" fill="#37a3a5"/>
    <path id="Trazado_117006" data-name="Trazado 117006" d="M420.706,663.881a12.491,12.491,0,0,1,7.37,2.1c.118.079.234.164.346.255a1.088,1.088,0,1,1-1.289,1.752,9.955,9.955,0,0,0-12.1.266,1.145,1.145,0,0,1-1.436.108,1.047,1.047,0,0,1-.369-1.244,1.722,1.722,0,0,1,.5-.611A11.614,11.614,0,0,1,420.706,663.881Z" transform="translate(255.13 7223.05)" fill="#37a3a5"/>
    <path id="Trazado_117007" data-name="Trazado 117007" d="M420.5,666.647a7.934,7.934,0,0,1,4.683,1.487,1.1,1.1,0,1,1-1.231,1.814,5.912,5.912,0,0,0-7.157.159,1.11,1.11,0,0,1-1.663-.1,1.145,1.145,0,0,1,.373-1.672A8.074,8.074,0,0,1,420.5,666.647Z" transform="translate(255.896 7224.253)" fill="#37a3a5"/>
    <path id="Trazado_119525" data-name="Trazado 119525" d="M6.4,0H132.559a6.4,6.4,0,0,1,6.4,6.4V256.362a6.4,6.4,0,0,1-6.4,6.4H6.4a6.4,6.4,0,0,1-6.4-6.4V6.4A6.4,6.4,0,0,1,6.4,0Z" transform="translate(606.759 7737.909)" fill="none" stroke="#12263f" stroke-width="2"/>
    <path id="Trazado_117008" data-name="Trazado 117008" d="M451.846,615.278q0,2.122,0,4.246c0,2.89.016,5.782-.01,8.673a2.609,2.609,0,0,1-2.778,2.752q-5.859.013-11.717,0a2.608,2.608,0,0,1-2.741-2.557c-.019-.227-.017-.456-.017-.685q0-12.478.007-24.955a5.019,5.019,0,0,1,.192-1.494,2.38,2.38,0,0,1,2.332-1.738q6.087-.028,12.173,0a2.569,2.569,0,0,1,2.549,2.747c.021,4.21.009,8.421.01,12.63Zm-1.574-12.857H436.193v22.187h14.079Zm-5.8,24.723a1.259,1.259,0,1,0-1.279,1.336A1.319,1.319,0,0,0,444.47,627.144Z" transform="translate(264.455 7195.043)" fill="#12263f"/>
    <path id="Trazado_119535" data-name="Trazado 119535" d="M0,0H14.079V22.187H0Z" transform="translate(700.648 7797.465)" fill="#fff"/>
    <path id="Trazado_119526" data-name="Trazado 119526" d="M10.276-4.507l1.386-7.579h2.889L11.986,0H8.965L7.346-6.89,5.761,0H2.748L.174-12.086h2.9L4.458-4.507l1.66-7.579H8.591ZM18.511,0H15.705V-8.981h2.806ZM15.539-11.3a1.249,1.249,0,0,1,.432-.979,1.629,1.629,0,0,1,1.121-.382,1.629,1.629,0,0,1,1.121.382,1.249,1.249,0,0,1,.432.979,1.249,1.249,0,0,1-.432.979,1.629,1.629,0,0,1-1.121.382,1.629,1.629,0,0,1-1.121-.382A1.249,1.249,0,0,1,15.539-11.3ZM25.666-6.45l-.921-.066a1.655,1.655,0,0,0-1.693.83V0h-2.8V-8.981h2.623l.091,1.154a2.166,2.166,0,0,1,1.967-1.32,2.728,2.728,0,0,1,.78.1ZM31.02.166a4.617,4.617,0,0,1-3.345-1.233A4.257,4.257,0,0,1,26.4-4.275v-.232a5.516,5.516,0,0,1,.51-2.432A3.735,3.735,0,0,1,28.4-8.571a4.5,4.5,0,0,1,2.324-.577,3.888,3.888,0,0,1,2.988,1.175,4.616,4.616,0,0,1,1.1,3.275v1.087H29.244A2.016,2.016,0,0,0,29.9-2.424a1.951,1.951,0,0,0,1.312.432,2.514,2.514,0,0,0,2.075-.93l1.278,1.511a3.573,3.573,0,0,1-1.482,1.15A5.007,5.007,0,0,1,31.02.166ZM30.7-6.989q-1.229,0-1.461,1.627h2.822v-.216a1.386,1.386,0,0,0-.34-1.042A1.354,1.354,0,0,0,30.7-6.989ZM38.881,0H36.075V-12.75h2.806Zm6.068.166A4.617,4.617,0,0,1,41.6-1.067a4.257,4.257,0,0,1-1.278-3.208v-.232a5.516,5.516,0,0,1,.51-2.432,3.735,3.735,0,0,1,1.49-1.631,4.5,4.5,0,0,1,2.324-.577,3.888,3.888,0,0,1,2.988,1.175,4.616,4.616,0,0,1,1.1,3.275v1.087H43.172a2.016,2.016,0,0,0,.656,1.187,1.951,1.951,0,0,0,1.312.432,2.514,2.514,0,0,0,2.075-.93l1.278,1.511a3.573,3.573,0,0,1-1.482,1.15A5.007,5.007,0,0,1,44.949.166Zm-.315-7.155q-1.229,0-1.461,1.627h2.822v-.216a1.386,1.386,0,0,0-.34-1.042A1.354,1.354,0,0,0,44.633-6.989Zm9.928,4.466a.646.646,0,0,0-.374-.573,5.682,5.682,0,0,0-1.419-.448,6.473,6.473,0,0,1-1.727-.61A2.892,2.892,0,0,1,50-5.072a2.19,2.19,0,0,1-.357-1.237,2.482,2.482,0,0,1,1.021-2.038,4.206,4.206,0,0,1,2.673-.8,4.66,4.66,0,0,1,2.855.805,2.518,2.518,0,0,1,1.079,2.117H54.47q0-1.079-1.137-1.079a1.127,1.127,0,0,0-.739.245.758.758,0,0,0-.3.61.7.7,0,0,0,.365.606,3.451,3.451,0,0,0,1.166.382,10.078,10.078,0,0,1,1.407.357,2.556,2.556,0,0,1,2.025,2.5,2.352,2.352,0,0,1-1.092,2,4.787,4.787,0,0,1-2.826.772,4.885,4.885,0,0,1-2.059-.415,3.442,3.442,0,0,1-1.411-1.129,2.556,2.556,0,0,1-.506-1.5h2.615a1.081,1.081,0,0,0,.415.909,1.707,1.707,0,0,0,1.021.286,1.343,1.343,0,0,0,.859-.232A.743.743,0,0,0,54.561-2.523Zm8.708,0A.646.646,0,0,0,62.9-3.1a5.682,5.682,0,0,0-1.419-.448,6.473,6.473,0,0,1-1.727-.61,2.892,2.892,0,0,1-1.038-.917,2.19,2.19,0,0,1-.357-1.237,2.482,2.482,0,0,1,1.021-2.038,4.206,4.206,0,0,1,2.673-.8,4.66,4.66,0,0,1,2.855.805,2.518,2.518,0,0,1,1.079,2.117H63.177q0-1.079-1.137-1.079a1.127,1.127,0,0,0-.739.245.758.758,0,0,0-.3.61.7.7,0,0,0,.365.606,3.451,3.451,0,0,0,1.166.382,10.078,10.078,0,0,1,1.407.357,2.556,2.556,0,0,1,2.025,2.5,2.352,2.352,0,0,1-1.092,2,4.787,4.787,0,0,1-2.826.772A4.885,4.885,0,0,1,59.99-.249a3.442,3.442,0,0,1-1.411-1.129,2.556,2.556,0,0,1-.506-1.5h2.615a1.081,1.081,0,0,0,.415.909,1.707,1.707,0,0,0,1.021.286,1.343,1.343,0,0,0,.859-.232A.743.743,0,0,0,63.269-2.523Zm13.057-.764,2.407-8.8h3.254L77.919,0H74.732L70.7-12.086h3.229ZM85.78-2.241h5.072V0H82.867V-12.086H85.78ZM99.1-2.258H95.11L94.413,0H91.3l4.433-12.086h2.739L102.938,0H99.809Zm-3.3-2.25h2.6L97.1-8.7ZM113.912,0h-2.9l-4.283-7.521V0h-2.914V-12.086h2.914l4.275,7.521v-7.521h2.905Zm7.869,0h-2.806V-8.932l-2.756.805v-2.125l5.3-1.834h.257Z" transform="translate(614.991 7991.899)" fill="#12263f"/>
    <path id="Trazado_119527" data-name="Trazado 119527" d="M5.045-2.268a.845.845,0,0,0-.319-.7A3.969,3.969,0,0,0,3.6-3.492a10.765,10.765,0,0,1-1.312-.521A2.486,2.486,0,0,1,.633-6.252,2.007,2.007,0,0,1,1.046-7.5a2.672,2.672,0,0,1,1.169-.844,4.549,4.549,0,0,1,1.7-.3,3.979,3.979,0,0,1,1.649.328A2.611,2.611,0,0,1,6.7-7.386,2.441,2.441,0,0,1,7.1-6H5.051a1.031,1.031,0,0,0-.319-.809A1.245,1.245,0,0,0,3.867-7.1,1.4,1.4,0,0,0,3-6.853a.746.746,0,0,0-.319.618.751.751,0,0,0,.352.595,4.433,4.433,0,0,0,1.236.551,7.574,7.574,0,0,1,1.453.612A2.442,2.442,0,0,1,7.1-2.279,2.083,2.083,0,0,1,6.258-.521,3.753,3.753,0,0,1,3.943.117,4.592,4.592,0,0,1,2.065-.255,2.831,2.831,0,0,1,.8-1.274,2.657,2.657,0,0,1,.375-2.766H2.438a1.308,1.308,0,0,0,.354,1.011,1.676,1.676,0,0,0,1.151.325,1.324,1.324,0,0,0,.806-.22A.725.725,0,0,0,5.045-2.268Zm8.5-.334L14.18-6.34h1.893L14.578,0h-1.67L11.859-3.762,10.8,0H9.135L7.641-6.34H9.533l.627,3.826L11.168-6.34h1.377ZM18.861,0h-1.98V-6.34h1.98Zm-2.1-7.975a.881.881,0,0,1,.3-.691,1.15,1.15,0,0,1,.791-.27,1.15,1.15,0,0,1,.791.27.881.881,0,0,1,.3.691.881.881,0,0,1-.3.691,1.15,1.15,0,0,1-.791.27,1.15,1.15,0,0,1-.791-.27A.881.881,0,0,1,16.764-7.975Zm5.613.059V-6.34H23.42v1.371H22.377v2.9a.741.741,0,0,0,.129.5.691.691,0,0,0,.51.141,2.9,2.9,0,0,0,.492-.035V-.053a3.644,3.644,0,0,1-1.113.17,2.069,2.069,0,0,1-1.506-.48A1.969,1.969,0,0,1,20.4-1.822V-4.969h-.809V-6.34H20.4V-7.916Zm4.5,6.51a.878.878,0,0,0,.645-.226.827.827,0,0,0,.223-.63H29.6a2.192,2.192,0,0,1-.747,1.711,2.779,2.779,0,0,1-1.925.668,2.814,2.814,0,0,1-2.18-.867,3.417,3.417,0,0,1-.8-2.4v-.082a3.862,3.862,0,0,1,.354-1.7,2.581,2.581,0,0,1,1.022-1.131,3.049,3.049,0,0,1,1.582-.4,2.744,2.744,0,0,1,1.963.686A2.432,2.432,0,0,1,29.6-3.914H27.744a1.084,1.084,0,0,0-.24-.756.829.829,0,0,0-.645-.264q-.768,0-.9.979a6.9,6.9,0,0,0-.041.855,2.712,2.712,0,0,0,.229,1.324A.791.791,0,0,0,26.877-1.406ZM32.361-5.66a1.976,1.976,0,0,1,1.617-.8,1.971,1.971,0,0,1,1.582.621A2.791,2.791,0,0,1,36.105-4V0h-1.98V-3.955A1.116,1.116,0,0,0,33.92-4.7a.881.881,0,0,0-.7-.237.949.949,0,0,0-.861.387V0H30.387V-9h1.975Z" transform="translate(382.589 7868.852)" fill="#12263f"/>
    <path id="Trazado_119523" data-name="Trazado 119523" d="M3.179-2.515H2.251V0H.537V-7.109h2.8a3.123,3.123,0,0,1,1.978.561,1.9,1.9,0,0,1,.713,1.585,2.308,2.308,0,0,1-.3,1.229,2.131,2.131,0,0,1-.94.79L6.27-.073V0H4.434ZM2.251-3.833H3.335A.973.973,0,0,0,4.07-4.09a.993.993,0,0,0,.247-.717,1,1,0,0,0-.249-.722.964.964,0,0,0-.732-.262H2.251Zm8.848,2.5H8.75L8.34,0H6.509L9.116-7.109h1.611L13.354,0H11.514ZM9.16-2.651h1.528L9.922-5.117ZM15.7,0H13.989V-7.109H15.7Zm6.768-7.109v4.653a2.674,2.674,0,0,1-.337,1.37,2.183,2.183,0,0,1-.967.881,3.406,3.406,0,0,1-1.489.3,2.942,2.942,0,0,1-2.046-.674,2.4,2.4,0,0,1-.762-1.846V-7.109h1.724v4.722q.029,1.167,1.084,1.167a1.049,1.049,0,0,0,.806-.293,1.369,1.369,0,0,0,.273-.952V-7.109ZM27.2-1.89a.7.7,0,0,0-.266-.586A3.308,3.308,0,0,0,26-2.91a8.971,8.971,0,0,1-1.094-.435A2.071,2.071,0,0,1,23.525-5.21a1.673,1.673,0,0,1,.344-1.042,2.226,2.226,0,0,1,.974-.7,3.791,3.791,0,0,1,1.416-.251,3.316,3.316,0,0,1,1.375.273,2.176,2.176,0,0,1,.945.779A2.034,2.034,0,0,1,28.916-5H27.207a.859.859,0,0,0-.266-.674,1.037,1.037,0,0,0-.72-.239,1.17,1.17,0,0,0-.725.2.622.622,0,0,0-.266.515.626.626,0,0,0,.293.5,3.7,3.7,0,0,0,1.03.459,6.311,6.311,0,0,1,1.211.51A2.035,2.035,0,0,1,28.916-1.9a1.736,1.736,0,0,1-.7,1.465A3.127,3.127,0,0,1,26.284.1a3.827,3.827,0,0,1-1.565-.31,2.359,2.359,0,0,1-1.055-.85A2.214,2.214,0,0,1,23.311-2.3h1.719a1.09,1.09,0,0,0,.3.842,1.4,1.4,0,0,0,.959.271,1.1,1.1,0,0,0,.671-.183A.6.6,0,0,0,27.2-1.89Zm8.75,0a.7.7,0,0,0-.266-.586,3.308,3.308,0,0,0-.935-.435,8.971,8.971,0,0,1-1.094-.435A2.071,2.071,0,0,1,32.275-5.21a1.673,1.673,0,0,1,.344-1.042,2.226,2.226,0,0,1,.974-.7,3.791,3.791,0,0,1,1.416-.251,3.316,3.316,0,0,1,1.375.273,2.176,2.176,0,0,1,.945.779A2.034,2.034,0,0,1,37.666-5H35.957a.859.859,0,0,0-.266-.674,1.037,1.037,0,0,0-.72-.239,1.17,1.17,0,0,0-.725.2.622.622,0,0,0-.266.515.626.626,0,0,0,.293.5,3.7,3.7,0,0,0,1.03.459,6.311,6.311,0,0,1,1.211.51A2.035,2.035,0,0,1,37.666-1.9a1.736,1.736,0,0,1-.7,1.465A3.127,3.127,0,0,1,35.034.1a3.827,3.827,0,0,1-1.565-.31,2.359,2.359,0,0,1-1.055-.85A2.214,2.214,0,0,1,32.061-2.3h1.719a1.09,1.09,0,0,0,.3.842,1.4,1.4,0,0,0,.959.271,1.1,1.1,0,0,0,.671-.183A.6.6,0,0,0,35.952-1.89ZM41.025.1a2.716,2.716,0,0,1-1.968-.725,2.5,2.5,0,0,1-.752-1.887v-.137a3.245,3.245,0,0,1,.3-1.431,2.2,2.2,0,0,1,.876-.959,2.646,2.646,0,0,1,1.367-.339,2.287,2.287,0,0,1,1.758.691,2.715,2.715,0,0,1,.645,1.926v.64H39.98a1.186,1.186,0,0,0,.386.7,1.148,1.148,0,0,0,.771.254,1.479,1.479,0,0,0,1.221-.547l.752.889a2.1,2.1,0,0,1-.872.676A2.945,2.945,0,0,1,41.025.1ZM40.84-4.111q-.723,0-.859.957h1.66v-.127a.815.815,0,0,0-.2-.613A.8.8,0,0,0,40.84-4.111Zm6.27.317-.542-.039a.973.973,0,0,0-1,.488V0H43.926V-5.283h1.543l.054.679a1.274,1.274,0,0,1,1.157-.776,1.6,1.6,0,0,1,.459.059ZM49.9-1.958l.835-3.325h1.733L50.742,0h-1.68L47.339-5.283h1.738ZM55.513.1a2.716,2.716,0,0,1-1.968-.725,2.5,2.5,0,0,1-.752-1.887v-.137a3.245,3.245,0,0,1,.3-1.431,2.2,2.2,0,0,1,.876-.959,2.646,2.646,0,0,1,1.367-.339,2.287,2.287,0,0,1,1.758.691,2.715,2.715,0,0,1,.645,1.926v.64H54.468a1.186,1.186,0,0,0,.386.7,1.148,1.148,0,0,0,.771.254,1.479,1.479,0,0,0,1.221-.547L57.6-.83a2.1,2.1,0,0,1-.872.676A2.945,2.945,0,0,1,55.513.1Zm-.186-4.209q-.723,0-.859.957h1.66v-.127a.815.815,0,0,0-.2-.613A.8.8,0,0,0,55.327-4.111Zm6.27.317-.542-.039a.973.973,0,0,0-1,.488V0H58.413V-5.283h1.543l.054.679a1.274,1.274,0,0,1,1.157-.776,1.6,1.6,0,0,1,.459.059Z" transform="translate(434.786 8019.019)" fill="#12263f"/>
    <path id="Path_116867" data-name="Path 116867" d="M314.745,589.69H317.8a1.45,1.45,0,0,1,1.511,1.388q0,.054,0,.108c.011.959,0,1.919,0,2.88v.336H324.7a2.929,2.929,0,0,1,3.075,2.775c0,.1,0,.191,0,.287v18.592a2.933,2.933,0,0,1-2.846,3.017c-.055,0-.108,0-.162,0h-1.28v3.74q-.015,2.5-.04,5a1.437,1.437,0,0,1-1.421,1.455h-7.079a1.431,1.431,0,0,1-1.49-1.373c0-.044,0-.09,0-.136v-3.213h-53.43c0,.113-.014.215-.014.317v2.823a1.477,1.477,0,0,1-1.368,1.578,1.738,1.738,0,0,1-.211,0h-6.865a1.456,1.456,0,0,1-1.576-1.324,1.544,1.544,0,0,1,0-.23v-8.649H249.2a12.9,12.9,0,0,1-2.194-.121,2.809,2.809,0,0,1-2.161-2.785V597.508a2.939,2.939,0,0,1,3.093-3.107h5.779v-3.2a1.443,1.443,0,0,1,1.366-1.514c.05,0,.1,0,.151,0h3.609V549.814a1.444,1.444,0,0,1,1.332-1.546,1.464,1.464,0,0,1,1.576,1.339l0,.082c.011.369,0,.738,0,1.1v38.9h3.374a1.454,1.454,0,0,1,1.505,1.4c0,.036,0,.07,0,.106v3.186h40.546c0-.1.014-.207.014-.31,0-.9.019-1.8,0-2.705a1.548,1.548,0,0,1,1.668-1.685c.938.043,1.88,0,2.82,0a.752.752,0,0,0,.1-.023V549.818a1.477,1.477,0,0,1,1.967-1.481,1.539,1.539,0,0,1,.979,1.563v11.839c0,.85-.03,1.7-.037,2.547,0,.27.036.542.036.812v24.287ZM247.8,616.132h77.027V597.366H247.8Zm72.732,2.949H252.954v2.531H320.53Zm-63.867-26.456v1.754h7.056v-1.754Zm59.7,0h-6.205v1.754h6.205Zm-63.422,33.7h4.12v-1.767h-4.12Zm67.566-1.765H316.4v1.769h4.114Z" transform="translate(181.908 7172.747)" fill="#12263f"/>
    <path id="Path_116868" data-name="Path 116868" d="M279.72,549.479a26.157,26.157,0,0,1,12.588,3.2,26.9,26.9,0,0,1,5.9,4.384,1.474,1.474,0,0,1-.508,2.557,1.433,1.433,0,0,1-1.492-.4,23.649,23.649,0,0,0-4.7-3.628,22.978,22.978,0,0,0-8.473-2.958,23.341,23.341,0,0,0-19.725,6.489,1.523,1.523,0,0,1-1.82.407,1.457,1.457,0,0,1-.674-1.947,1.423,1.423,0,0,1,.29-.4,24.952,24.952,0,0,1,3.437-2.9,25.863,25.863,0,0,1,8.593-3.984A26.336,26.336,0,0,1,279.72,549.479Z" transform="translate(188.795 7173.28)" fill="#37a3a5"/>
    <path id="Path_116869" data-name="Path 116869" d="M278.228,555.193a20.945,20.945,0,0,1,9.339,2.105,20.7,20.7,0,0,1,5.447,3.867,1.473,1.473,0,0,1,.113,2.081c-.023.026-.047.05-.073.075a1.494,1.494,0,0,1-2.114-.08h0a17.7,17.7,0,0,0-24.905,0,1.47,1.47,0,1,1-2.167-1.988,1.57,1.57,0,0,1,.122-.118,20.635,20.635,0,0,1,4.525-3.38,20.279,20.279,0,0,1,8.484-2.5C277.478,555.218,277.964,555.193,278.228,555.193Z" transform="translate(190.02 7175.766)" fill="#37a3a5"/>
    <path id="Path_116870" data-name="Path 116870" d="M287.867,567.848a1.464,1.464,0,0,1-1.043-.436,13.175,13.175,0,0,0-18.489-.1,1.535,1.535,0,0,1-1.718.433,1.438,1.438,0,0,1-.442-2.414,21.712,21.712,0,0,1,2.5-2.031,15.3,15.3,0,0,1,7.835-2.632,15.819,15.819,0,0,1,11.515,3.859c.3.257.6.527.877.8A1.483,1.483,0,0,1,289.21,567,1.424,1.424,0,0,1,287.867,567.848Z" transform="translate(190.982 7178.131)" fill="#37a3a5"/>
    <path id="Path_116876" data-name="Path 116876" d="M288.137,596.883H263.97a1.476,1.476,0,0,1-1.579-1.091,1.669,1.669,0,0,1-.046-.431v-8.026c0-.57.009-1.139.021-1.709a1.417,1.417,0,0,1,1.273-1.228l45.651-.026h2.958a1.527,1.527,0,0,1,1.7,1.33,1.436,1.436,0,0,1,0,.376v9.131a1.5,1.5,0,0,1-1.3,1.676,1.519,1.519,0,0,1-.36,0H288.149ZM311,587.319H265.275v6.614H311Z" transform="translate(189.524 7188.456)" fill="#12263f"/>
    <path id="Path_116877" data-name="Path 116877" d="M260.926,590.623v4.708a1.485,1.485,0,0,1-1.418,1.55h-.052a1.466,1.466,0,0,1-1.449-1.482v-.05c0-1.366.017-2.734.017-4.1,0-1.784-.014-3.565-.017-5.348a1.461,1.461,0,1,1,2.917-.159,1.705,1.705,0,0,1,0,.172c0,1.181-.014,2.364-.02,3.543v1.161Z" transform="translate(187.638 7188.456)" fill="#12263f"/>
    <path id="Path_116878" data-name="Path 116878" d="M257.523,590.628v4.736a1.458,1.458,0,0,1-2.916.072h0v-9.565a1.46,1.46,0,0,1,2.917-.109c0,.031,0,.063,0,.1C257.536,587.451,257.523,589.039,257.523,590.628Z" transform="translate(186.158 7188.454)" fill="#12263f"/>
    <path id="Path_116880" data-name="Path 116880" d="M274.85,587.685A6.813,6.813,0,0,1,276,587.8,1.418,1.418,0,0,1,277,589.341a1.443,1.443,0,0,1-1.355,1.286c-.56.026-1.122.027-1.682,0a1.418,1.418,0,0,1-1.325-1.507v0a1.437,1.437,0,0,1,1.395-1.393h.812Z" transform="translate(194.003 7189.902)" fill="#12263f"/>
    <path id="Path_116881" data-name="Path 116881" d="M284.978,587.693a7.141,7.141,0,0,1,1.094.088,1.432,1.432,0,0,1,1.071,1.553,1.447,1.447,0,0,1-1.378,1.294,10.818,10.818,0,0,1-1.9-.065,1.368,1.368,0,0,1-1.078-1.578,1.452,1.452,0,0,1,1.4-1.259h.784Z" transform="translate(198.407 7189.905)" fill="#12263f"/>
    <path id="Path_116882" data-name="Path 116882" d="M269.751,590.628c-.261,0-.527.01-.784,0a1.46,1.46,0,0,1,.07-2.917h1.422a1.458,1.458,0,0,1,.075,2.915c-.261.013-.525,0-.784,0Z" transform="translate(191.803 7189.913)" fill="#12263f"/>
    <path id="Path_116883" data-name="Path 116883" d="M279.908,587.713h.726a1.463,1.463,0,0,1,1.448,1.379,1.444,1.444,0,0,1-1.3,1.52,12.9,12.9,0,0,1-1.825,0,1.428,1.428,0,0,1-1.257-1.492,1.459,1.459,0,0,1,1.395-1.4h.812Z" transform="translate(196.205 7189.914)" fill="#12263f"/>
    <path id="Path_116884" data-name="Path 116884" d="M290.013,587.693a7.535,7.535,0,0,1,1.122.089,1.451,1.451,0,0,1,1.072,1.4,1.435,1.435,0,0,1-1.37,1.416c-.527.024-1.04.036-1.558.026a1.457,1.457,0,1,1,.036-2.915h.7Z" transform="translate(200.616 7189.905)" fill="#12263f"/>
    <path id="Trazado_117009" data-name="Trazado 117009" d="M324.608,673.194a.923.923,0,0,0-.123.188,3.855,3.855,0,0,1-4.048,2.925q-11.684.017-23.37.009-22.531,0-45.06,0c-.712,0-1.428.014-2.135-.052a3.8,3.8,0,0,1-3.483-3.78q-.013-14.282.016-28.564a2.022,2.022,0,0,1,.455-1.228c3.136-3.58,6.306-7.132,9.466-10.693a4.18,4.18,0,0,1,3.348-1.35c6.44.009,12.881,0,19.323,0,10.665,0,21.332.023,32-.01a5.044,5.044,0,0,1,4.131,1.853c2.762,3.2,5.6,6.328,8.405,9.488.369.416.719.848,1.078,1.273Zm-2.658-4.769V650.293H249.026v18.133Zm-1.659-26.092c-.284-.334-.456-.545-.637-.75-1.943-2.19-3.958-4.321-5.8-6.59a3.761,3.761,0,0,0-3.833-1.692,2.118,2.118,0,0,1-.382,0q-25.015,0-50.031-.013a1.8,1.8,0,0,0-1.474.629c-2.322,2.636-4.664,5.255-6.994,7.884a6.179,6.179,0,0,0-.375.529ZM322,671.141H249.036c-.2,2.121.158,2.524,2.167,2.524q24.856,0,49.711,0,9.736,0,19.474,0c1.148,0,1.6-.464,1.616-1.623C322.007,671.765,322,671.487,322,671.141Zm-.044-26.026H249.035v2.432h72.924Z" transform="translate(182.581 7208.586)" fill="#12263f"/>
    <path id="Trazado_117010" data-name="Trazado 117010" d="M269.266,648.661c.274.025.446.053.618.053.2,0,.395-.026.687-.047,0-.4-.01-.779,0-1.152.03-.918.451-1.382,1.349-1.4q1.907-.041,3.817,0a1.248,1.248,0,0,1,1.36,1.332q.041,5.192,0,10.384c-.007.867-.552,1.309-1.451,1.31q-5.726.011-11.453.006a1.289,1.289,0,0,1-1.467-1.386q-.037-5.153.009-10.308a1.245,1.245,0,0,1,1.352-1.338q1.907-.045,3.817-.009a1.262,1.262,0,0,1,1.356,1.332C269.288,647.834,269.266,648.236,269.266,648.661Zm3.928.111c0,.409.006.76,0,1.112a1.345,1.345,0,0,1-1.484,1.455q-1.759.013-3.514,0c-1.065-.009-1.54-.485-1.556-1.533,0-.344,0-.689,0-1h-1.213v7.7h8.97v-7.733Z" transform="translate(189.685 7215.31)" fill="#37a3a5"/>
    <path id="Trazado_117011" data-name="Trazado 117011" d="M281.073,648.669h1.293c0-.333-.006-.631,0-.928.032-1.226.432-1.626,1.676-1.643,1.043-.014,2.087,0,3.13,0,1.293,0,1.754.452,1.754,1.739q0,3.319,0,6.64c0,1.043.016,2.088-.006,3.13-.023,1.089-.475,1.536-1.544,1.537q-5.648.009-11.3,0c-1.063,0-1.538-.461-1.543-1.538q-.022-4.962,0-9.923c0-1.116.468-1.561,1.593-1.573s2.24-.011,3.359,0c1.178.011,1.576.429,1.589,1.632C281.075,648.014,281.073,648.293,281.073,648.669Zm5.15,7.84v-7.733h-1.217c0,.357,0,.682,0,1-.016,1.055-.5,1.547-1.54,1.554-1.2.009-2.392.014-3.588,0a1.307,1.307,0,0,1-1.421-1.431c-.01-.372,0-.743,0-1.112h-1.194v7.719Z" transform="translate(194.822 7215.31)" fill="#12263f"/>
    <path id="Trazado_117012" data-name="Trazado 117012" d="M257.461,648.672h1.3c0-.464-.019-.89,0-1.312a1.178,1.178,0,0,1,1.193-1.233c1.347-.043,2.7-.05,4.044-.014.861.023,1.3.611,1.306,1.637.006,2.265,0,4.529,0,6.793,0,1.017.013,2.036-.006,3.054-.019,1.066-.492,1.538-1.547,1.541q-5.687.011-11.374,0a1.274,1.274,0,0,1-1.457-1.454q-.026-5.076,0-10.153c0-.969.494-1.413,1.49-1.426q1.718-.019,3.436,0c1.172.011,1.589.439,1.612,1.625C257.466,648.027,257.461,648.327,257.461,648.672Zm5.113,7.84v-7.72h-1.207c0,.383,0,.71,0,1.037a1.334,1.334,0,0,1-1.5,1.505c-1.221.01-2.444.016-3.665,0A1.313,1.313,0,0,1,254.823,650c-.024-.4,0-.8,0-1.226h-1.2v7.733Z" transform="translate(184.551 7215.31)" fill="#12263f"/>
    <path id="Trazado_117013" data-name="Trazado 117013" d="M292.889,648.673h1.294c0-.429-.022-.829,0-1.227a1.259,1.259,0,0,1,1.356-1.332q1.907-.041,3.817,0a1.22,1.22,0,0,1,1.346,1.33q.037,5.192,0,10.384a1.225,1.225,0,0,1-1.362,1.313q-5.8.013-11.605,0a1.288,1.288,0,0,1-1.4-1.379q-.034-5.153,0-10.308a1.267,1.267,0,0,1,1.358-1.34q1.907-.05,3.816-.009a1.27,1.27,0,0,1,1.365,1.4C292.9,647.881,292.889,648.257,292.889,648.673Zm-3.827.091v7.718h8.975v-7.7h-1.207c0,.363.006.687,0,1.012a1.384,1.384,0,0,1-1.551,1.55c-1.194.009-2.389.014-3.583-.006a1.3,1.3,0,0,1-1.416-1.428c-.007-.372,0-.745,0-1.142Z" transform="translate(199.959 7215.309)" fill="#37a3a5"/>
    <path id="Trazado_117118" data-name="Trazado 117118" d="M265.043,727.972q0-18.053,0-36.107c0-2.157.557-2.705,2.738-2.705q9.826,0,19.651,0c1.988,0,2.629.641,2.629,2.629q0,36.1,0,72.211c0,2.022-.6,2.622-2.607,2.623q-9.936,0-19.871,0c-1.969,0-2.539-.571-2.54-2.546Q265.041,746.024,265.043,727.972Zm4.185-9.6a2.173,2.173,0,0,0-1.068.112,1.42,1.42,0,0,0-.683.946c0,.324.386.723.7.937a1.9,1.9,0,0,0,.961.095q4.163.007,8.326,0h3.177c1.863,0,3.725-.006,5.588,0,.728,0,1.4-.174,1.419-1.007.027-.916-.68-1.1-1.445-1.089h-.329m-16.987-3.655c-.745,0-1.478.072-1.455,1.043.023.946.749,1.026,1.494,1.025q4.271-.009,8.544,0c2.884,0,5.769-.007,8.653.006.761,0,1.485-.126,1.523-1.017.039-.928-.69-1.055-1.452-1.055m-8.737,9.418q2.848,0,5.7,0a29.636,29.636,0,0,0,3.39-.053c.406-.049.752-.6,1.127-.924a9.226,9.226,0,0,0-1.151-1.063c-.2-.135-.568-.027-.86-.027H270a4.984,4.984,0,0,0-1.627.057c-.385.139-.878.641-.881.987,0,.33.524.725.9.976.2.138.567.044.86.044m8.226-11.054c2.884,0,5.769-.01,8.655.006.759,0,1.49-.1,1.521-1,.033-.92-.674-1.056-1.449-1.055q-8.653.017-17.308,0c-.758,0-1.472.082-1.455,1.039s.745,1.016,1.492,1.013m-.433-15.86c-.35,0-.7.3-1.046.465.343.165.683.472,1.029.476,3,.037,6,.022,9,.022,3.037,0,6.073.016,9.11-.022.354,0,.706-.3,1.059-.462-.347-.167-.693-.478-1.042-.479m-18.123-3.057c-.346,0-.687.314-1.03.482.347.162.695.464,1.042.465q9.054.043,18.109,0c.349,0,.7-.314,1.045-.482-.353-.162-.7-.461-1.058-.465-3-.037-6-.022-9-.022m-.02,58.655a2.271,2.271,0,1,0-2.306-2.286A2.293,2.293,0,0,0,277.571,752.789Zm.148,3.722-.514.024a4.108,4.108,0,0,0-.726,1.332.876.876,0,0,0,1.1,1,1.635,1.635,0,0,0,1.009-1.129C278.617,757.356,278.033,756.923,277.719,756.511Z" transform="translate(190.698 7234.047)" fill="#12263f"/>
    <path id="Trazado_119534" data-name="Trazado 119534" d="M0,0V41.973" transform="translate(468.194 7797.247)" fill="#1a1818" stroke="#12263f" stroke-width="2"/>
    <path id="Trazado_119528" data-name="Trazado 119528" d="M0,0V41.973" transform="translate(468.194 7882.411)" fill="#1a1818" stroke="#12263f" stroke-width="2"/>
    <path id="Trazado_119529" data-name="Trazado 119529" d="M0,0V27.736" transform="translate(378.769 7902.337)" fill="#1a1818" stroke="#12263f" stroke-width="2"/>
    <path id="Trazado_119530" data-name="Trazado 119530" d="M0,0V27.736" transform="translate(556.968 7902.337)" fill="#1a1818" stroke="#12263f" stroke-width="2"/>
    <path id="Trazado_119531" data-name="Trazado 119531" d="M0,0H178.851" transform="translate(378.769 7903.397)" fill="#1a1818" stroke="#12263f" stroke-width="2"/>
    <path id="Trazado_117141" data-name="Trazado 117141" d="M234.671,1040.78v-4.64H211.513c-2.082,0-2.694-.617-2.694-2.707V996.125c0-2.047.66-2.7,2.719-2.7h55.647c2.077,0,2.684.615,2.684,2.714v37.306c0,2.112-.579,2.7-2.679,2.7H244.066v4.639c1.124,0,2.277-.046,3.424.011a2.673,2.673,0,0,1,2.652,2.847H228.547a2.719,2.719,0,0,1,2.672-2.845C232.341,1040.732,233.47,1040.78,234.671,1040.78Zm4.715-45.566q-13.611,0-27.219,0c-1.438,0-1.558.121-1.558,1.571q0,16.251,0,32.5c0,1.444.122,1.566,1.565,1.566h54.344c1.471,0,1.624-.153,1.624-1.619V996.828c0-1.468-.148-1.613-1.63-1.613Q252.947,995.213,239.386,995.214Zm26.528,38.06c-.483-.318-.784-.663-.986-.614-.278.068-.483.436-.72.674.227.221.453.614.684.617C265.16,1033.955,265.432,1033.614,265.914,1033.274Z" transform="translate(143.35 6936.416)" fill="#12263f"/>
    <path id="Trazado_117142" data-name="Trazado 117142" d="M207.352,1039.571c.118-.294.2-.555.321-.8,1.881-3.877,3.775-7.746,5.64-11.629a1.087,1.087,0,0,1,1.132-.734q25.792.026,51.586.035a1.249,1.249,0,0,1,.954.493c2.07,4.165,4.095,8.352,6.178,12.634Zm2.4-1.231h60.814c0-.11.03-.181.008-.229-1.614-3.341-3.219-6.685-4.872-10.005a1.164,1.164,0,0,0-.9-.439q-24.564-.031-49.126-.032a1.022,1.022,0,0,0-1.073.688c-.631,1.371-1.306,2.721-1.965,4.079C211.692,1034.344,210.747,1036.286,209.748,1038.34Z" transform="translate(142.484 6955.885)" fill="#12263f"/>
    <path id="Trazado_117143" data-name="Trazado 117143" d="M207.315,1035.961v-.879h65.826l.065.879Z" transform="translate(142.462 6961.003)" fill="#37a3a5"/>
    <path id="Trazado_117144" data-name="Trazado 117144" d="M216.933,1034.013c.032-.962.477-1.19,1.329-1.188q16.33.043,32.66,0c.854,0,1.31.208,1.286,1.186Z" transform="translate(148.139 6959.671)" fill="#12263f"/>
    <path id="Trazado_117145" data-name="Trazado 117145" d="M230.3,1030.179a10.429,10.429,0,0,1,2.115.044c.3.064.493.619.736.951l-.21.261c-.553,0-1.107,0-1.66,0C230.152,1031.431,230.147,1031.424,230.3,1030.179Z" transform="translate(155.985 6958.09)" fill="#12263f"/>
    <path id="Trazado_117146" data-name="Trazado 117146" d="M230.144,1030.02l-.064-1.146h2.667l.162,1.146Z" transform="translate(155.898 6957.339)" fill="#12263f"/>
    <path id="Trazado_117147" data-name="Trazado 117147" d="M229.824,1030.2v1.151H227.2V1030.2Z" transform="translate(154.198 6958.123)" fill="#12263f"/>
    <path id="Trazado_117148" data-name="Trazado 117148" d="M229.814,1030.037h-2.608v-1.169h2.608Z" transform="translate(154.202 6957.336)" fill="#12263f"/>
    <path id="Trazado_117149" data-name="Trazado 117149" d="M229.825,1027.546v1.169h-2.617v-1.169Z" transform="translate(154.203 6956.556)" fill="#12263f"/>
    <path id="Trazado_117150" data-name="Trazado 117150" d="M230.048,1028.705l-.1-1.138H232.6l.186,1.138Z" transform="translate(155.822 6956.568)" fill="#12263f"/>
    <path id="Trazado_117151" data-name="Trazado 117151" d="M232.806,1027.534a9.711,9.711,0,0,1,2.132.044c.353.081.6.633.892.972l-.208.248a9.724,9.724,0,0,1-2.134-.046c-.351-.08-.595-.631-.887-.97Z" transform="translate(157.386 6956.526)" fill="#12263f"/>
    <path id="Trazado_117152" data-name="Trazado 117152" d="M238.54,1028.8a9.557,9.557,0,0,1-2.147-.046c-.369-.088-.628-.644-.937-.99l.207-.229a9.531,9.531,0,0,1,2.144.046c.366.086.622.639.929.983Z" transform="translate(159.071 6956.525)" fill="#12263f"/>
    <path id="Trazado_117153" data-name="Trazado 117153" d="M241.32,1028.812a9.881,9.881,0,0,1-2.142-.043c-.386-.087-.674-.607-1.11-1.032C240.452,1027.211,241.039,1027.421,241.32,1028.812Z" transform="translate(160.612 6956.512)" fill="#12263f"/>
    <path id="Trazado_117154" data-name="Trazado 117154" d="M241.016,1027.6c3.058-.17,2.592-.237,3,1.11C240.979,1028.885,241.42,1028.948,241.016,1027.6Z" transform="translate(162.353 6956.535)" fill="#12263f"/>
    <path id="Trazado_117155" data-name="Trazado 117155" d="M212.495,1030.078c.444-1.354.867-1.5,3.044-1.1C215.155,1030.317,215.155,1030.317,212.495,1030.078Z" transform="translate(145.52 6957.287)" fill="#12263f"/>
    <path id="Trazado_117156" data-name="Trazado 117156" d="M236.529,1030.18a9.551,9.551,0,0,1,2.125.046c.361.084.614.632.916.97l-.2.239a10.586,10.586,0,0,1-2.136-.042c-.353-.075-.615-.583-.918-.9Z" transform="translate(159.582 6958.088)" fill="#12263f"/>
    <path id="Trazado_117157" data-name="Trazado 117157" d="M233.664,1031.385l-.262-1c1.786-.565,2.687-.267,2.928,1Z" transform="translate(157.859 6958.069)" fill="#12263f"/>
    <path id="Trazado_117158" data-name="Trazado 117158" d="M217.955,1030.328c-.436,1.293-.689,1.376-3,1.043C215.213,1030.065,215.725,1029.88,217.955,1030.328Z" transform="translate(146.973 6958.068)" fill="#12263f"/>
    <path id="Trazado_117159" data-name="Trazado 117159" d="M227.027,1028.881l-.153,1.148h-2.589v-1.148Z" transform="translate(152.478 6957.343)" fill="#12263f"/>
    <path id="Trazado_117160" data-name="Trazado 117160" d="M224.359,1028.684l.1-1.131h2.726l-.135,1.131Z" transform="translate(152.521 6956.56)" fill="#12263f"/>
    <path id="Trazado_117161" data-name="Trazado 117161" d="M236.3,1030.057c-.528.037-.712.059-.9.061-.657,0-1.312,0-2.043,0l-.347-1.266a10.449,10.449,0,0,1,2.256.046C235.625,1028.984,235.867,1029.545,236.3,1030.057Z" transform="translate(157.63 6957.304)" fill="#12263f"/>
    <path id="Trazado_117162" data-name="Trazado 117162" d="M221.6,1027.531c-.339,1.4.242,1.355-2.92,1.2-.035-.88.281-1.336,1.251-1.212A13.745,13.745,0,0,0,221.6,1027.531Z" transform="translate(149.171 6956.528)" fill="#12263f"/>
    <path id="Trazado_117163" data-name="Trazado 117163" d="M241.682,1030.09c-2.622.239-2.622.239-2.915-1.043C240.583,1028.473,241.48,1028.794,241.682,1030.09Z" transform="translate(161.025 6957.28)" fill="#12263f"/>
    <path id="Trazado_117164" data-name="Trazado 117164" d="M244.679,1030.058c-3.039.175-2.629.237-3.015-1.092C244.014,1028.6,244.3,1028.7,244.679,1030.058Z" transform="translate(162.735 6957.286)" fill="#12263f"/>
    <path id="Trazado_117165" data-name="Trazado 117165" d="M224.425,1027.529c.029,1.045-.4,1.406-1.325,1.278a11.841,11.841,0,0,0-1.544-.011c0-.83.14-1.4,1.134-1.279A15.291,15.291,0,0,0,224.425,1027.529Z" transform="translate(150.867 6956.53)" fill="#12263f"/>
    <path id="Trazado_117166" data-name="Trazado 117166" d="M211.853,1031.4c.426-1.359.759-1.476,3.005-1.108C214.579,1031.6,214.553,1031.606,211.853,1031.4Z" transform="translate(145.141 6958.071)" fill="#12263f"/>
    <path id="Trazado_117167" data-name="Trazado 117167" d="M221.2,1030.118c-.033-1,.323-1.4,1.236-1.28a12.591,12.591,0,0,0,1.611.013c.059.956-.256,1.4-1.223,1.28A13.079,13.079,0,0,0,221.2,1030.118Z" transform="translate(150.655 6957.306)" fill="#12263f"/>
    <path id="Trazado_117168" data-name="Trazado 117168" d="M217.819,1031.435c-.04-1,.375-1.382,1.3-1.271a13.671,13.671,0,0,0,1.576.009c0,.938-.281,1.4-1.213,1.274A12.619,12.619,0,0,0,217.819,1031.435Z" transform="translate(148.66 6958.09)" fill="#12263f"/>
    <path id="Trazado_117169" data-name="Trazado 117169" d="M215.966,1028.8c.025-.989.42-1.4,1.341-1.279a13.068,13.068,0,0,0,1.6.011c-.037.914-.339,1.407-1.3,1.278A13,13,0,0,0,215.966,1028.8Z" transform="translate(147.568 6956.528)" fill="#12263f"/>
    <path id="Trazado_117170" data-name="Trazado 117170" d="M213.138,1028.817c.417-1.441.674-1.533,3.083-1.169-.165.773-.46,1.312-1.41,1.181A12.728,12.728,0,0,0,213.138,1028.817Z" transform="translate(145.899 6956.509)" fill="#12263f"/>
    <path id="Trazado_117171" data-name="Trazado 117171" d="M218.217,1030.108c.318-1.379-.243-1.36,2.921-1.2.014.859-.266,1.348-1.25,1.216A13.21,13.21,0,0,0,218.217,1030.108Z" transform="translate(148.896 6957.315)" fill="#12263f"/>
    <path id="Trazado_117172" data-name="Trazado 117172" d="M215.444,1030.108c.34-1.391-.1-1.353,2.972-1.205-.014.938-.452,1.336-1.4,1.217A13.467,13.467,0,0,0,215.444,1030.108Z" transform="translate(147.26 6957.315)" fill="#12263f"/>
    <path id="Trazado_117173" data-name="Trazado 117173" d="M239.245,1030.3c2.435-.379,2.759-.254,2.94,1.083C239.782,1031.686,239.619,1031.629,239.245,1030.3Z" transform="translate(161.308 6958.07)" fill="#12263f"/>
    <path id="Trazado_117174" data-name="Trazado 117174" d="M245.3,1031.359c-2.2.377-2.586.248-3-1C244.144,1029.826,245,1030.111,245.3,1031.359Z" transform="translate(163.11 6958.064)" fill="#12263f"/>
    <path id="Trazado_117175" data-name="Trazado 117175" d="M240.345,1032.852a11.066,11.066,0,0,1,2.215.044c.343.073.587.619.876.951l-.156.245a10.668,10.668,0,0,1-2.214-.045c-.348-.076-.595-.631-.887-.97Z" transform="translate(161.859 6959.667)" fill="#12263f"/>
    <path id="Trazado_117176" data-name="Trazado 117176" d="M238.93,1030.138a13.811,13.811,0,0,0-1.649.013c-.881.111-1.277-.245-1.264-1.108C237.766,1028.494,238.657,1028.791,238.93,1030.138Z" transform="translate(159.402 6957.285)" fill="#12263f"/>
    <path id="Trazado_117177" data-name="Trazado 117177" d="M223.761,1030.174c-.312,1.425-.55,1.509-2.913,1.178-.062-.91.328-1.3,1.261-1.188A14.852,14.852,0,0,0,223.761,1030.174Z" transform="translate(150.445 6958.09)" fill="#12263f"/>
    <path id="Trazado_117178" data-name="Trazado 117178" d="M246.643,1034.046c-2.509.274-2.581.25-3.048-1.016C245.371,1032.51,246.247,1032.785,246.643,1034.046Z" transform="translate(163.875 6959.646)" fill="#12263f"/>
    <path id="Trazado_117179" data-name="Trazado 117179" d="M216.913,1032.848c-.361,1.4-.677,1.509-2.972,1.151.013-.883.409-1.274,1.325-1.163A14.466,14.466,0,0,0,216.913,1032.848Z" transform="translate(146.373 6959.667)" fill="#12263f"/>
    <path id="Trazado_117180" data-name="Trazado 117180" d="M213.556,1032.981c-.332,1.261-.918,1.46-2.986,1.015C210.947,1032.727,211.392,1032.576,213.556,1032.981Z" transform="translate(144.384 6959.646)" fill="#12263f"/>
    <path id="Trazado_117181" data-name="Trazado 117181" d="M224.159,1030.2h2.732l-.145,1.156h-2.587Z" transform="translate(152.403 6958.125)" fill="#12263f"/>
    <path id="Trazado_117182" data-name="Trazado 117182" d="M230.441,1032.671l-.124-1.148a13.458,13.458,0,0,1,2.282.043c.272.048.458.58.838,1.105Z" transform="translate(156.038 6958.887)" fill="#12263f"/>
    <path id="Trazado_117183" data-name="Trazado 117183" d="M227.209,1031.585a3.353,3.353,0,0,1,.464-.07c.682-.008,1.366,0,2.12,0v1.161a3.731,3.731,0,0,1-.458.059c-.682.006-1.366,0-2.126,0Z" transform="translate(154.204 6958.895)" fill="#12263f"/>
    <path id="Trazado_117184" data-name="Trazado 117184" d="M214.433,1032.738c.288-1.323-.1-1.338,2.939-1.143,0,.838-.336,1.253-1.239,1.154A15.979,15.979,0,0,0,214.433,1032.738Z" transform="translate(146.663 6958.892)" fill="#12263f"/>
    <path id="Trazado_117185" data-name="Trazado 117185" d="M239.731,1032.745a15.527,15.527,0,0,0-1.676.011c-.867.094-1.2-.3-1.172-1.231a11.734,11.734,0,0,1,2.207.043c.323.064.552.6.824.914Z" transform="translate(159.912 6958.885)" fill="#12263f"/>
    <path id="Trazado_117186" data-name="Trazado 117186" d="M239.761,1031.608c2.587-.275,2.673-.243,2.947,1.027C240.69,1033.083,240.079,1032.878,239.761,1031.608Z" transform="translate(161.612 6958.871)" fill="#12263f"/>
    <path id="Trazado_117187" data-name="Trazado 117187" d="M220.463,1032.765c.24-1.35.736-1.517,2.881-1.118.051.874-.337,1.235-1.226,1.129A14.617,14.617,0,0,0,220.463,1032.765Z" transform="translate(150.223 6958.864)" fill="#12263f"/>
    <path id="Trazado_117188" data-name="Trazado 117188" d="M217.376,1032.763c.227-1.372.526-1.479,2.891-1.135.014.833-.312,1.254-1.22,1.146A14.62,14.62,0,0,0,217.376,1032.763Z" transform="translate(148.4 6958.867)" fill="#12263f"/>
    <path id="Trazado_117189" data-name="Trazado 117189" d="M236.734,1032.758a10.867,10.867,0,0,1-2.139-.041c-.339-.068-.592-.571-.97-.969C235.831,1031.178,236.586,1031.442,236.734,1032.758Z" transform="translate(157.99 6958.868)" fill="#12263f"/>
    <path id="Trazado_117190" data-name="Trazado 117190" d="M242.947,1031.609c2.527-.275,2.627-.24,3.025,1.03C243.923,1033.065,243.345,1032.878,242.947,1031.609Z" transform="translate(163.492 6958.871)" fill="#12263f"/>
    <path id="Trazado_117191" data-name="Trazado 117191" d="M211.224,1032.672c.342-1.277.7-1.4,2.994-1.038C213.878,1032.9,213.5,1033.035,211.224,1032.672Z" transform="translate(144.77 6958.863)" fill="#12263f"/>
    <path id="Trazado_117192" data-name="Trazado 117192" d="M226.753,1031.548l-.094,1.1h-2.668l.083-1.1Z" transform="translate(152.305 6958.917)" fill="#12263f"/>
    <path id="Trazado_117141-2" data-name="Trazado 117141" d="M234.671,1040.78v-4.64H211.513c-2.082,0-2.694-.617-2.694-2.707V996.125c0-2.047.66-2.7,2.719-2.7h55.647c2.077,0,2.684.615,2.684,2.714v37.306c0,2.112-.579,2.7-2.679,2.7H244.066v4.639c1.124,0,2.277-.046,3.424.011a2.673,2.673,0,0,1,2.652,2.847H228.547a2.719,2.719,0,0,1,2.672-2.845C232.341,1040.732,233.47,1040.78,234.671,1040.78Zm4.715-45.566q-13.611,0-27.219,0c-1.438,0-1.558.121-1.558,1.571q0,16.251,0,32.5c0,1.444.122,1.566,1.565,1.566h54.344c1.471,0,1.624-.153,1.624-1.619V996.828c0-1.468-.148-1.613-1.63-1.613Q252.947,995.213,239.386,995.214Zm26.528,38.06c-.483-.318-.784-.663-.986-.614-.278.068-.483.436-.72.674.227.221.453.614.684.617C265.16,1033.955,265.432,1033.614,265.914,1033.274Z" transform="translate(310.386 6936.416)" fill="#12263f"/>
    <path id="Trazado_117142-2" data-name="Trazado 117142" d="M207.352,1039.571c.118-.294.2-.555.321-.8,1.881-3.877,3.775-7.746,5.64-11.629a1.087,1.087,0,0,1,1.132-.734q25.792.026,51.586.035a1.249,1.249,0,0,1,.954.493c2.07,4.165,4.095,8.352,6.178,12.634Zm2.4-1.231h60.814c0-.11.03-.181.008-.229-1.614-3.341-3.219-6.685-4.872-10.005a1.164,1.164,0,0,0-.9-.439q-24.564-.031-49.126-.032a1.022,1.022,0,0,0-1.073.688c-.631,1.371-1.306,2.721-1.965,4.079C211.692,1034.344,210.747,1036.286,209.748,1038.34Z" transform="translate(309.521 6955.885)" fill="#12263f"/>
    <path id="Trazado_117143-2" data-name="Trazado 117143" d="M207.315,1035.961v-.879h65.826l.065.879Z" transform="translate(309.498 6961.003)" fill="#37a3a5"/>
    <path id="Trazado_117144-2" data-name="Trazado 117144" d="M216.933,1034.013c.032-.962.477-1.19,1.329-1.188q16.33.043,32.66,0c.854,0,1.31.208,1.286,1.186Z" transform="translate(315.175 6959.671)" fill="#12263f"/>
    <path id="Trazado_117145-2" data-name="Trazado 117145" d="M230.3,1030.179a10.429,10.429,0,0,1,2.115.044c.3.064.493.619.736.951l-.21.261c-.553,0-1.107,0-1.66,0C230.152,1031.431,230.147,1031.424,230.3,1030.179Z" transform="translate(323.021 6958.09)" fill="#12263f"/>
    <path id="Trazado_117146-2" data-name="Trazado 117146" d="M230.144,1030.02l-.064-1.146h2.667l.162,1.146Z" transform="translate(322.935 6957.339)" fill="#12263f"/>
    <path id="Trazado_117147-2" data-name="Trazado 117147" d="M229.824,1030.2v1.151H227.2V1030.2Z" transform="translate(321.234 6958.123)" fill="#12263f"/>
    <path id="Trazado_117148-2" data-name="Trazado 117148" d="M229.814,1030.037h-2.608v-1.169h2.608Z" transform="translate(321.238 6957.336)" fill="#12263f"/>
    <path id="Trazado_117149-2" data-name="Trazado 117149" d="M229.825,1027.546v1.169h-2.617v-1.169Z" transform="translate(321.239 6956.556)" fill="#12263f"/>
    <path id="Trazado_117150-2" data-name="Trazado 117150" d="M230.048,1028.705l-.1-1.138H232.6l.186,1.138Z" transform="translate(322.858 6956.568)" fill="#12263f"/>
    <path id="Trazado_117151-2" data-name="Trazado 117151" d="M232.806,1027.534a9.711,9.711,0,0,1,2.132.044c.353.081.6.633.892.972l-.208.248a9.724,9.724,0,0,1-2.134-.046c-.351-.08-.595-.631-.887-.97Z" transform="translate(324.422 6956.526)" fill="#12263f"/>
    <path id="Trazado_117152-2" data-name="Trazado 117152" d="M238.54,1028.8a9.557,9.557,0,0,1-2.147-.046c-.369-.088-.628-.644-.937-.99l.207-.229a9.531,9.531,0,0,1,2.144.046c.366.086.622.639.929.983Z" transform="translate(326.108 6956.525)" fill="#12263f"/>
    <path id="Trazado_117153-2" data-name="Trazado 117153" d="M241.32,1028.812a9.881,9.881,0,0,1-2.142-.043c-.386-.087-.674-.607-1.11-1.032C240.452,1027.211,241.039,1027.421,241.32,1028.812Z" transform="translate(327.649 6956.512)" fill="#12263f"/>
    <path id="Trazado_117154-2" data-name="Trazado 117154" d="M241.016,1027.6c3.058-.17,2.592-.237,3,1.11C240.979,1028.885,241.42,1028.948,241.016,1027.6Z" transform="translate(329.389 6956.535)" fill="#12263f"/>
    <path id="Trazado_117155-2" data-name="Trazado 117155" d="M212.495,1030.078c.444-1.354.867-1.5,3.044-1.1C215.155,1030.317,215.155,1030.317,212.495,1030.078Z" transform="translate(312.556 6957.287)" fill="#12263f"/>
    <path id="Trazado_117156-2" data-name="Trazado 117156" d="M236.529,1030.18a9.551,9.551,0,0,1,2.125.046c.361.084.614.632.916.97l-.2.239a10.586,10.586,0,0,1-2.136-.042c-.353-.075-.615-.583-.918-.9Z" transform="translate(326.618 6958.088)" fill="#12263f"/>
    <path id="Trazado_117157-2" data-name="Trazado 117157" d="M233.664,1031.385l-.262-1c1.786-.565,2.687-.267,2.928,1Z" transform="translate(324.896 6958.069)" fill="#12263f"/>
    <path id="Trazado_117158-2" data-name="Trazado 117158" d="M217.955,1030.328c-.436,1.293-.689,1.376-3,1.043C215.213,1030.065,215.725,1029.88,217.955,1030.328Z" transform="translate(314.009 6958.068)" fill="#12263f"/>
    <path id="Trazado_117159-2" data-name="Trazado 117159" d="M227.027,1028.881l-.153,1.148h-2.589v-1.148Z" transform="translate(319.515 6957.343)" fill="#12263f"/>
    <path id="Trazado_117160-2" data-name="Trazado 117160" d="M224.359,1028.684l.1-1.131h2.726l-.135,1.131Z" transform="translate(319.558 6956.56)" fill="#12263f"/>
    <path id="Trazado_117161-2" data-name="Trazado 117161" d="M236.3,1030.057c-.528.037-.712.059-.9.061-.657,0-1.312,0-2.043,0l-.347-1.266a10.449,10.449,0,0,1,2.256.046C235.625,1028.984,235.867,1029.545,236.3,1030.057Z" transform="translate(324.666 6957.304)" fill="#12263f"/>
    <path id="Trazado_117162-2" data-name="Trazado 117162" d="M221.6,1027.531c-.339,1.4.242,1.355-2.92,1.2-.035-.88.281-1.336,1.251-1.212A13.745,13.745,0,0,0,221.6,1027.531Z" transform="translate(316.207 6956.528)" fill="#12263f"/>
    <path id="Trazado_117163-2" data-name="Trazado 117163" d="M241.682,1030.09c-2.622.239-2.622.239-2.915-1.043C240.583,1028.473,241.48,1028.794,241.682,1030.09Z" transform="translate(328.062 6957.28)" fill="#12263f"/>
    <path id="Trazado_117164-2" data-name="Trazado 117164" d="M244.679,1030.058c-3.039.175-2.629.237-3.015-1.092C244.014,1028.6,244.3,1028.7,244.679,1030.058Z" transform="translate(329.771 6957.286)" fill="#12263f"/>
    <path id="Trazado_117165-2" data-name="Trazado 117165" d="M224.425,1027.529c.029,1.045-.4,1.406-1.325,1.278a11.841,11.841,0,0,0-1.544-.011c0-.83.14-1.4,1.134-1.279A15.291,15.291,0,0,0,224.425,1027.529Z" transform="translate(317.903 6956.53)" fill="#12263f"/>
    <path id="Trazado_117166-2" data-name="Trazado 117166" d="M211.853,1031.4c.426-1.359.759-1.476,3.005-1.108C214.579,1031.6,214.553,1031.606,211.853,1031.4Z" transform="translate(312.177 6958.071)" fill="#12263f"/>
    <path id="Trazado_117167-2" data-name="Trazado 117167" d="M221.2,1030.118c-.033-1,.323-1.4,1.236-1.28a12.591,12.591,0,0,0,1.611.013c.059.956-.256,1.4-1.223,1.28A13.079,13.079,0,0,0,221.2,1030.118Z" transform="translate(317.691 6957.306)" fill="#12263f"/>
    <path id="Trazado_117168-2" data-name="Trazado 117168" d="M217.819,1031.435c-.04-1,.375-1.382,1.3-1.271a13.671,13.671,0,0,0,1.576.009c0,.938-.281,1.4-1.213,1.274A12.619,12.619,0,0,0,217.819,1031.435Z" transform="translate(315.696 6958.09)" fill="#12263f"/>
    <path id="Trazado_117169-2" data-name="Trazado 117169" d="M215.966,1028.8c.025-.989.42-1.4,1.341-1.279a13.068,13.068,0,0,0,1.6.011c-.037.914-.339,1.407-1.3,1.278A13,13,0,0,0,215.966,1028.8Z" transform="translate(314.604 6956.528)" fill="#12263f"/>
    <path id="Trazado_117170-2" data-name="Trazado 117170" d="M213.138,1028.817c.417-1.441.674-1.533,3.083-1.169-.165.773-.46,1.312-1.41,1.181A12.728,12.728,0,0,0,213.138,1028.817Z" transform="translate(312.936 6956.509)" fill="#12263f"/>
    <path id="Trazado_117171-2" data-name="Trazado 117171" d="M218.217,1030.108c.318-1.379-.243-1.36,2.921-1.2.014.859-.266,1.348-1.25,1.216A13.21,13.21,0,0,0,218.217,1030.108Z" transform="translate(315.933 6957.315)" fill="#12263f"/>
    <path id="Trazado_117172-2" data-name="Trazado 117172" d="M215.444,1030.108c.34-1.391-.1-1.353,2.972-1.205-.014.938-.452,1.336-1.4,1.217A13.467,13.467,0,0,0,215.444,1030.108Z" transform="translate(314.296 6957.315)" fill="#12263f"/>
    <path id="Trazado_117173-2" data-name="Trazado 117173" d="M239.245,1030.3c2.435-.379,2.759-.254,2.94,1.083C239.782,1031.686,239.619,1031.629,239.245,1030.3Z" transform="translate(328.344 6958.07)" fill="#12263f"/>
    <path id="Trazado_117174-2" data-name="Trazado 117174" d="M245.3,1031.359c-2.2.377-2.586.248-3-1C244.144,1029.826,245,1030.111,245.3,1031.359Z" transform="translate(330.146 6958.064)" fill="#12263f"/>
    <path id="Trazado_117175-2" data-name="Trazado 117175" d="M240.345,1032.852a11.066,11.066,0,0,1,2.215.044c.343.073.587.619.876.951l-.156.245a10.668,10.668,0,0,1-2.214-.045c-.348-.076-.595-.631-.887-.97Z" transform="translate(328.896 6959.667)" fill="#12263f"/>
    <path id="Trazado_117176-2" data-name="Trazado 117176" d="M238.93,1030.138a13.811,13.811,0,0,0-1.649.013c-.881.111-1.277-.245-1.264-1.108C237.766,1028.494,238.657,1028.791,238.93,1030.138Z" transform="translate(326.438 6957.285)" fill="#12263f"/>
    <path id="Trazado_117177-2" data-name="Trazado 117177" d="M223.761,1030.174c-.312,1.425-.55,1.509-2.913,1.178-.062-.91.328-1.3,1.261-1.188A14.852,14.852,0,0,0,223.761,1030.174Z" transform="translate(317.481 6958.09)" fill="#12263f"/>
    <path id="Trazado_117178-2" data-name="Trazado 117178" d="M246.643,1034.046c-2.509.274-2.581.25-3.048-1.016C245.371,1032.51,246.247,1032.785,246.643,1034.046Z" transform="translate(330.911 6959.646)" fill="#12263f"/>
    <path id="Trazado_117179-2" data-name="Trazado 117179" d="M216.913,1032.848c-.361,1.4-.677,1.509-2.972,1.151.013-.883.409-1.274,1.325-1.163A14.466,14.466,0,0,0,216.913,1032.848Z" transform="translate(313.409 6959.667)" fill="#12263f"/>
    <path id="Trazado_117180-2" data-name="Trazado 117180" d="M213.556,1032.981c-.332,1.261-.918,1.46-2.986,1.015C210.947,1032.727,211.392,1032.576,213.556,1032.981Z" transform="translate(311.42 6959.646)" fill="#12263f"/>
    <path id="Trazado_117181-2" data-name="Trazado 117181" d="M224.159,1030.2h2.732l-.145,1.156h-2.587Z" transform="translate(319.439 6958.125)" fill="#12263f"/>
    <path id="Trazado_117182-2" data-name="Trazado 117182" d="M230.441,1032.671l-.124-1.148a13.458,13.458,0,0,1,2.282.043c.272.048.458.58.838,1.105Z" transform="translate(323.074 6958.887)" fill="#12263f"/>
    <path id="Trazado_117183-2" data-name="Trazado 117183" d="M227.209,1031.585a3.353,3.353,0,0,1,.464-.07c.682-.008,1.366,0,2.12,0v1.161a3.731,3.731,0,0,1-.458.059c-.682.006-1.366,0-2.126,0Z" transform="translate(321.24 6958.895)" fill="#12263f"/>
    <path id="Trazado_117184-2" data-name="Trazado 117184" d="M214.433,1032.738c.288-1.323-.1-1.338,2.939-1.143,0,.838-.336,1.253-1.239,1.154A15.979,15.979,0,0,0,214.433,1032.738Z" transform="translate(313.699 6958.892)" fill="#12263f"/>
    <path id="Trazado_117185-2" data-name="Trazado 117185" d="M239.731,1032.745a15.527,15.527,0,0,0-1.676.011c-.867.094-1.2-.3-1.172-1.231a11.734,11.734,0,0,1,2.207.043c.323.064.552.6.824.914Z" transform="translate(326.948 6958.885)" fill="#12263f"/>
    <path id="Trazado_117186-2" data-name="Trazado 117186" d="M239.761,1031.608c2.587-.275,2.673-.243,2.947,1.027C240.69,1033.083,240.079,1032.878,239.761,1031.608Z" transform="translate(328.648 6958.871)" fill="#12263f"/>
    <path id="Trazado_117187-2" data-name="Trazado 117187" d="M220.463,1032.765c.24-1.35.736-1.517,2.881-1.118.051.874-.337,1.235-1.226,1.129A14.617,14.617,0,0,0,220.463,1032.765Z" transform="translate(317.259 6958.864)" fill="#12263f"/>
    <path id="Trazado_117188-2" data-name="Trazado 117188" d="M217.376,1032.763c.227-1.372.526-1.479,2.891-1.135.014.833-.312,1.254-1.22,1.146A14.62,14.62,0,0,0,217.376,1032.763Z" transform="translate(315.437 6958.867)" fill="#12263f"/>
    <path id="Trazado_117189-2" data-name="Trazado 117189" d="M236.734,1032.758a10.867,10.867,0,0,1-2.139-.041c-.339-.068-.592-.571-.97-.969C235.831,1031.178,236.586,1031.442,236.734,1032.758Z" transform="translate(325.026 6958.868)" fill="#12263f"/>
    <path id="Trazado_117190-2" data-name="Trazado 117190" d="M242.947,1031.609c2.527-.275,2.627-.24,3.025,1.03C243.923,1033.065,243.345,1032.878,242.947,1031.609Z" transform="translate(330.528 6958.871)" fill="#12263f"/>
    <path id="Trazado_117191-2" data-name="Trazado 117191" d="M211.224,1032.672c.342-1.277.7-1.4,2.994-1.038C213.878,1032.9,213.5,1033.035,211.224,1032.672Z" transform="translate(311.806 6958.863)" fill="#12263f"/>
    <path id="Trazado_117192-2" data-name="Trazado 117192" d="M226.753,1031.548l-.094,1.1h-2.668l.083-1.1Z" transform="translate(319.341 6958.917)" fill="#12263f"/>
  </g>
</svg>
