<?xml version="1.0" encoding="utf-8"?>
<!-- Generator: Adobe Illustrator 25.2.3, SVG Export Plug-In . SVG Version: 6.00 Build 0)  -->
<svg version="1.1" id="Capa_1" xmlns="http://www.w3.org/2000/svg" xmlns:xlink="http://www.w3.org/1999/xlink" x="0px" y="0px"
	 viewBox="0 0 262.9 197.7" style="enable-background:new 0 0 262.9 197.7;" xml:space="preserve">
<style type="text/css">
	.st0{fill:#00223D;}
	.st1{fill:#2C2C30;}
	.st2{fill:url(#Rectángulo_27976_1_);}
	.st3{fill:#42444F;}
	.st4{opacity:0.55;fill:#35363B;enable-background:new    ;}
	.st5{fill:#E6EAF0;}
	.st6{fill:#37A3A5;}
	.st7{fill:#6F7082;}
	.st8{fill:#35363B;}
	.st9{fill:#555866;}
	.st10{fill:#27282B;}
	.st11{fill:#C5CBD6;}
	.st12{fill:#CED0D6;}
	.st13{clip-path:url(#SVGID_2_);}
	.st14{fill:#DBDFE6;}
	.st15{fill:#34909D;}
	.st16{fill:#E76700;}
	.st17{fill:#BA0034;}
	.st18{fill:#FFFFFF;}
	.st19{fill:none;stroke:#FFFFFF;stroke-width:1.843;stroke-miterlimit:10;}
	.st20{fill:#202124;}
	.st21{enable-background:new    ;}
	.st22{fill:none;stroke:#6F7082;stroke-width:3.144;stroke-linecap:round;stroke-miterlimit:10;stroke-dasharray:0,5.24;}
	.st23{fill:none;stroke:#6F7082;stroke-width:1.153;stroke-miterlimit:10;stroke-dasharray:2.096,1.048;}
	.st24{fill:#F8B85E;}
	.st25{opacity:0.25;fill:#35363B;enable-background:new    ;}
	.st26{fill:#D9DDE3;}
	.st27{fill:url(#Rectángulo_28106_1_);}
	.st28{fill:#D7DBE0;}
	.st29{fill:none;stroke:#42444F;stroke-width:1.663;stroke-linecap:round;stroke-miterlimit:10;stroke-dasharray:0,3.327;}
</style>
<g id="Grupo_54586" transform="translate(-30.285 -64.115)">
	<g id="Grupo_39717" transform="translate(30.285 64.115)">
		<g id="Computer" transform="translate(36.027 63.259)">
			<g id="Grupo_39638">
				<g id="Grupo_39637" transform="translate(54.782 93.252)">
					<path id="Trazado_92884" class="st0" d="M42.2,0v18.3H17.3V0h8.8v8.8c0,2,1.6,3.6,3.6,3.6s3.6-1.6,3.6-3.6V0H42.2z"/>
					<path id="Trazado_92885" class="st1" d="M17.3,0h8.8v3.7l-8.8-1V0z"/>
					<path id="Trazado_92886" class="st1" d="M42.3,0v5.6l-8.8-1V0L42.3,0z"/>
					<rect id="Rectángulo_27975" x="0" y="18.1" class="st0" width="59.6" height="2.5"/>
				</g>
				<path id="Trazado_92887" class="st0" d="M169.2,6.7v81.8c0,3.7-3,6.8-6.8,6.8H6.8c-3.7,0-6.8-3-6.8-6.8V6.7C0,3,3,0,6.8,0l0,0
					h155.6C166.1,0,169.2,3,169.2,6.7z"/>
				
					<linearGradient id="Rectángulo_27976_1_" gradientUnits="userSpaceOnUse" x1="-208.4984" y1="428.8882" x2="-208.4984" y2="427.8882" gradientTransform="matrix(169.157 0 0 -76.828 35353.5352 32959.1133)">
					<stop  offset="0" style="stop-color:#FFFFFF"/>
					<stop  offset="1" style="stop-color:#D2E6EE"/>
				</linearGradient>
				<rect id="Rectángulo_27976" x="0" y="8.5" class="st2" width="169.2" height="76.8"/>
				<path id="Trazado_92888" class="st3" d="M87,90.3c0,1.3-1.1,2.4-2.4,2.4s-2.4-1.1-2.4-2.4s1.1-2.4,2.4-2.4S87,88.9,87,90.3
					L87,90.3z"/>
			</g>
		</g>
		<path id="Trazado_92889" class="st4" d="M69.9,63.3v24.5c0,2-1.1,3.9-2.9,5l-25.3,14.6c-1.7,1-3.9,1-5.6,0.1V70
			c0-3.7,3-6.7,6.8-6.7l0,0H69.9z"/>
		<path id="Trazado_92890" class="st5" d="M261.3,186.3h-48.6c-0.9,0-1.6-0.7-1.6-1.6l0,0l0,0c0-0.9,0.7-1.6,1.6-1.6l0,0h48.6
			c0.9,0,1.6,0.7,1.6,1.6l0,0l0,0C262.9,185.6,262.2,186.3,261.3,186.3L261.3,186.3z"/>
		<g id="Grupo_39649" transform="translate(213.955 116.877)">
			<g id="Grupo_39647" transform="translate(0 0)">
				<g id="Grupo_39640" transform="translate(24.133 9.984)">
					
						<rect id="Rectángulo_27977" x="3.7" y="0.3" transform="matrix(0.9915 -0.1299 0.1299 0.9915 -3.6838 1.2347)" class="st3" width="7.9" height="57.2"/>
					<path id="Trazado_92891" class="st5" d="M5.7,4c0.1,0.7-0.4,1.4-1.1,1.5C3.8,5.6,3.2,5.1,3.1,4.4C3,3.6,3.5,3,4.2,2.9
						C4.9,2.8,5.6,3.3,5.7,4C5.7,4,5.7,4,5.7,4z"/>
					<circle id="Elipse_3770" class="st5" cx="4.9" cy="8.4" r="1.3"/>
					<g id="Grupo_39639" transform="translate(6.934 44.098)">
						
							<rect id="Rectángulo_27978" x="0" y="0.4" transform="matrix(0.9915 -0.1299 0.1299 0.9915 -8.396058e-02 0.3708)" class="st5" width="5.5" height="0.9"/>
						
							<rect id="Rectángulo_27979" x="0.3" y="2.2" transform="matrix(0.9915 -0.1301 0.1301 0.9915 -0.318 0.4176)" class="st5" width="5.5" height="0.9"/>
						
							<rect id="Rectángulo_27980" x="0.5" y="4" transform="matrix(0.9915 -0.1301 0.1301 0.9915 -0.5519 0.4639)" class="st5" width="5.5" height="0.9"/>
						
							<rect id="Rectángulo_27981" x="0.8" y="5.8" transform="matrix(0.9915 -0.1301 0.1301 0.9915 -0.7859 0.5103)" class="st5" width="5.5" height="0.9"/>
					</g>
				</g>
				<g id="Grupo_39643" transform="translate(12.524)">
					
						<rect id="Rectángulo_27982" x="1.7" y="0.2" transform="matrix(0.9987 -5.008744e-02 5.008744e-02 0.9987 -1.6854 0.4034)" class="st0" width="11.1" height="67.2"/>
					<circle id="Elipse_3771" class="st5" cx="7.1" cy="31.3" r="2.8"/>
					<g id="Grupo_39641" transform="translate(2.91 19.571)">
						
							<rect id="Rectángulo_27983" x="0" y="0.2" transform="matrix(0.9987 -5.008744e-02 5.008744e-02 0.9987 -2.793791e-02 0.1818)" class="st5" width="7.2" height="0.9"/>
						
							<rect id="Rectángulo_27984" x="0.1" y="2" transform="matrix(0.9987 -5.008744e-02 5.008744e-02 0.9987 -0.1196 0.1887)" class="st5" width="7.2" height="0.9"/>
					</g>
					<g id="Grupo_39642" transform="translate(4.158 44.454)">
						
							<rect id="Rectángulo_27985" x="0" y="0.2" transform="matrix(0.9987 -5.008744e-02 5.008744e-02 0.9987 -2.793788e-02 0.1818)" class="st5" width="7.2" height="0.9"/>
						
							<rect id="Rectángulo_27986" x="0.1" y="2" transform="matrix(0.9987 -5.008744e-02 5.008744e-02 0.9987 -0.1196 0.1887)" class="st5" width="7.2" height="0.9"/>
					</g>
				</g>
				<g id="Grupo_39646" transform="translate(0 5.348)">
					<rect id="Rectángulo_27987" x="0" y="0" class="st6" width="12.7" height="62.3"/>
					<circle id="Elipse_3772" class="st5" cx="6.3" cy="8.8" r="3.9"/>
					<g id="Grupo_39644" transform="translate(2.317 40.965)">
						<rect id="Rectángulo_27988" x="0" y="0" class="st5" width="8.1" height="0.9"/>
						<rect id="Rectángulo_27989" x="0" y="1.8" class="st5" width="8.1" height="0.9"/>
					</g>
					<g id="Grupo_39645" transform="translate(2.317 55)">
						<rect id="Rectángulo_27990" x="0" y="0" class="st5" width="8.1" height="0.9"/>
						<rect id="Rectángulo_27991" x="0" y="1.8" class="st5" width="8.1" height="0.9"/>
					</g>
				</g>
			</g>
			<g id="Grupo_39648" transform="translate(33.837 22.611)">
				
					<rect id="Rectángulo_27992" x="4.1" y="0.1" transform="matrix(0.9832 -0.1828 0.1828 0.9832 -4.0104 1.6038)" class="st5" width="5.3" height="44.9"/>
				
					<rect id="Rectángulo_27993" x="6.1" y="11.5" transform="matrix(0.9832 -0.1828 0.1828 0.9832 -4.345 1.6702)" class="st7" width="1.6" height="25.8"/>
			</g>
		</g>
		<g id="Document" transform="translate(217.295 41.525)">
			<g id="Artwork_6">
				<g id="Grupo_39656">
					<g id="Grupo_39652" transform="translate(8.875)">
						<path id="Trazado_92892" class="st8" d="M27.6,46.9H0V0h20.5l7.1,7.1V46.9z"/>
						<g id="Grupo_39650" transform="translate(3.939 6.075)">
							<rect id="Rectángulo_27994" x="0" y="0" class="st9" width="19.7" height="1.3"/>
							<rect id="Rectángulo_27995" x="0" y="3.4" class="st9" width="19.7" height="1.3"/>
							<rect id="Rectángulo_27996" x="0" y="6.7" class="st9" width="19.7" height="1.3"/>
							<rect id="Rectángulo_27997" x="0" y="10.1" class="st9" width="19.7" height="1.3"/>
							<rect id="Rectángulo_27998" x="0" y="13.4" class="st9" width="19.7" height="1.3"/>
							<rect id="Rectángulo_27999" x="0" y="16.8" class="st3" width="11.6" height="1.3"/>
						</g>
						<g id="Grupo_39651" transform="translate(3.939 29.58)">
							<rect id="Rectángulo_28000" x="0" y="0" class="st9" width="19.7" height="1.3"/>
							<rect id="Rectángulo_28001" x="0" y="3.4" class="st9" width="19.7" height="1.3"/>
							<rect id="Rectángulo_28002" x="0" y="6.7" class="st9" width="19.7" height="1.3"/>
							<rect id="Rectángulo_28003" x="0" y="10.1" class="st3" width="11.6" height="1.3"/>
						</g>
						<path id="Trazado_92893" class="st10" d="M27.6,7.1h-7.1V0l0,0L27.6,7.1z"/>
					</g>
					<g id="Grupo_39655" transform="translate(0 8.116)">
						<path id="Trazado_92894" class="st5" d="M27.6,46.9H0V0h20.5l7.1,7.1V46.9z"/>
						<g id="Grupo_39653" transform="translate(3.939 6.075)">
							<rect id="Rectángulo_28004" x="0" y="0" class="st3" width="19.7" height="1.3"/>
							<rect id="Rectángulo_28005" x="0" y="3.4" class="st3" width="19.7" height="1.3"/>
							<rect id="Rectángulo_28006" x="0" y="6.7" class="st3" width="19.7" height="1.3"/>
							<rect id="Rectángulo_28007" x="0" y="10.1" class="st3" width="19.7" height="1.3"/>
							<rect id="Rectángulo_28008" x="0" y="13.4" class="st3" width="19.7" height="1.3"/>
							<rect id="Rectángulo_28009" x="0" y="16.8" class="st3" width="11.6" height="1.3"/>
						</g>
						<g id="Grupo_39654" transform="translate(3.939 29.58)">
							<rect id="Rectángulo_28010" x="0" y="0" class="st3" width="19.7" height="1.3"/>
							<rect id="Rectángulo_28011" x="0" y="3.4" class="st3" width="19.7" height="1.3"/>
							<rect id="Rectángulo_28012" x="0" y="6.7" class="st3" width="19.7" height="1.3"/>
							<rect id="Rectángulo_28013" x="0" y="10.1" class="st3" width="11.6" height="1.3"/>
						</g>
						<path id="Trazado_92895" class="st11" d="M27.6,7.1h-7.1V0l0,0L27.6,7.1L27.6,7.1z"/>
					</g>
				</g>
			</g>
		</g>
		<g id="cloud" transform="translate(73.364)">
			<g id="Grupo_39657">
				<path id="Trazado_92896" class="st12" d="M94.5,40.7c0,3.9-3.2,7.1-7.1,7.1c0,0,0,0,0,0H12.2C5.5,47.7,0,42.3,0,35.5
					s5.5-12.2,12.2-12.2c1.5,0,3,0.3,4.5,0.8c0-0.1,0-0.2,0-0.2C16.7,10.7,27.4,0,40.6,0C52.1,0,61.9,8.1,64,19.4
					c7.3-4.1,16.5-1.6,20.7,5.7c1.3,2.3,2,4.9,2,7.5c0,0.3,0,0.7,0,1c0.2,0,0.5,0,0.7,0C91.3,33.6,94.5,36.7,94.5,40.7z"/>
				<path id="Trazado_92897" class="st5" d="M57.9,47.7H12.2C5.5,47.7,0,42.3,0,35.5s5.5-12.2,12.2-12.2c1.5,0,3,0.3,4.5,0.8
					c0-0.1,0-0.2,0-0.2c0-8.5,4.5-16.3,11.8-20.6c3.8-0.3,7.7,0.2,11.3,1.5c4.6,1.8,8.7,5.4,10.2,10.1S50,25.3,45.7,28
					c2.5-0.4,5.1,0.1,7.3,1.4c2.2,1.3,3.7,4.1,3,6.6c-0.5,1.5-1.5,2.9-2.9,3.7c-1.3,0.8-2.8,1.4-4.3,1.9c0.6-0.2,1.2-0.3,1.8-0.3
					c0.8-0.1,1.7,0.2,2.3,0.8c0.6,0.6,0.7,1.6,0.2,2.3c0.9-0.9,2.3-0.2,3.3,0.7C57.2,45.7,57.7,46.7,57.9,47.7z"/>
			</g>
		</g>
		<g id="Grupo_39675" transform="translate(58.59 71.748)">
			<g>
				<defs>
					<rect id="SVGID_1_" x="0" y="0" width="114.2" height="76.8"/>
				</defs>
				<clipPath id="SVGID_2_">
					<use xlink:href="#SVGID_1_"  style="overflow:visible;"/>
				</clipPath>
				<g id="Grupo_39674" transform="translate(0)" class="st13">
					<g id="Website" transform="translate(19.485 5.726)">
						<g id="Grupo_39673">
							<path id="Rectángulo_28014" class="st8" d="M8.9,2.7h71.9c3,0,5.4,2.4,5.4,5.4v109.4c0,3-2.4,5.4-5.4,5.4H8.9
								c-3,0-5.4-2.4-5.4-5.4V8.1C3.5,5.1,5.9,2.7,8.9,2.7z"/>
							<path id="Rectángulo_28015" class="st5" d="M5.4,0h71.9c3,0,5.4,2.4,5.4,5.4v109.4c0,3-2.4,5.4-5.4,5.4H5.4
								c-3,0-5.4-2.4-5.4-5.4V5.4C0,2.4,2.4,0,5.4,0z"/>
							<path id="Trazado_92898" class="st14" d="M82.8,3.3v2.7H0V3.3C0,1.5,1.5,0,3.3,0h76.3C81.3,0,82.8,1.5,82.8,3.3z"/>
							<path id="Trazado_92899" class="st14" d="M82.8,114.9v2.1c0,1.8-1.5,3.3-3.3,3.3H3.3c-1.8,0-3.3-1.5-3.3-3.3v-2.1H82.8z"/>
							<g id="Grupo_39658" transform="translate(70.729 2.21)">
								<circle id="Elipse_3773" class="st15" cx="7.9" cy="1" r="1"/>
								<circle id="Elipse_3774" class="st16" cx="4.4" cy="1" r="1"/>
								<circle id="Elipse_3775" class="st17" cx="1" cy="1" r="1"/>
							</g>
							<rect id="Rectángulo_28016" x="1.3" y="7.1" class="st7" width="80.3" height="32.1"/>
							<rect id="Rectángulo_28017" x="3.6" y="42.6" class="st18" width="22.1" height="19.2"/>
							<rect id="Rectángulo_28018" x="27.8" y="42.6" class="st18" width="51.8" height="1.5"/>
							<rect id="Rectángulo_28019" x="27.8" y="46.1" class="st18" width="51.8" height="1.5"/>
							<rect id="Rectángulo_28020" x="27.8" y="49.7" class="st18" width="51.8" height="1.5"/>
							<rect id="Rectángulo_28021" x="27.8" y="53.3" class="st18" width="51.8" height="1.5"/>
							<g id="Grupo_39659" transform="translate(64.467 58.544)">
								<path id="Trazado_92900" class="st15" d="M13.5,3.2H1.6C0.7,3.2,0,2.5,0,1.6l0,0C0,0.7,0.7,0,1.6,0h11.9
									c0.9,0,1.6,0.7,1.6,1.6l0,0C15.1,2.5,14.4,3.2,13.5,3.2z"/>
								<path id="Trazado_92901" class="st18" d="M10.2,2.3H4.9C4.5,2.3,4.2,2,4.2,1.6l0,0l0,0c0-0.4,0.3-0.7,0.7-0.7l0,0h5.3
									c0.4,0,0.7,0.3,0.7,0.7l0,0l0,0C10.9,2,10.6,2.3,10.2,2.3L10.2,2.3z"/>
							</g>
							<g id="Grupo_39667" transform="translate(3.57 68.337)">
								<g id="Grupo_39660">
									<rect id="Rectángulo_28022" x="0" y="0" class="st18" width="8.1" height="8.1"/>
									<rect id="Rectángulo_28023" x="0" y="9" class="st18" width="8.1" height="0.8"/>
									<rect id="Rectángulo_28024" x="0" y="10.6" class="st18" width="8.1" height="0.8"/>
									<rect id="Rectángulo_28025" x="0" y="12.3" class="st18" width="5.4" height="0.8"/>
								</g>
								<g id="Grupo_39661" transform="translate(11.308)">
									<rect id="Rectángulo_28026" x="0" y="0" class="st18" width="8.1" height="8.1"/>
									<rect id="Rectángulo_28027" x="0" y="9" class="st18" width="8.1" height="0.8"/>
									<rect id="Rectángulo_28028" x="0" y="10.6" class="st18" width="8.1" height="0.8"/>
									<rect id="Rectángulo_28029" x="0" y="12.3" class="st18" width="5.4" height="0.8"/>
								</g>
								<g id="Grupo_39662" transform="translate(22.616)">
									<rect id="Rectángulo_28030" x="0" y="0" class="st18" width="8.1" height="8.1"/>
									<rect id="Rectángulo_28031" x="0" y="9" class="st18" width="8.1" height="0.8"/>
									<rect id="Rectángulo_28032" x="0" y="10.6" class="st18" width="8.1" height="0.8"/>
									<rect id="Rectángulo_28033" x="0" y="12.3" class="st18" width="5.4" height="0.8"/>
								</g>
								<g id="Grupo_39663" transform="translate(33.925)">
									<rect id="Rectángulo_28034" x="0" y="0" class="st18" width="8.1" height="8.1"/>
									<rect id="Rectángulo_28035" x="0" y="9" class="st18" width="8.1" height="0.8"/>
									<rect id="Rectángulo_28036" x="0" y="10.6" class="st18" width="8.1" height="0.8"/>
									<rect id="Rectángulo_28037" x="0" y="12.3" class="st18" width="5.4" height="0.8"/>
								</g>
								<g id="Grupo_39664" transform="translate(45.233)">
									<rect id="Rectángulo_28038" x="0" y="0" class="st18" width="8.1" height="8.1"/>
									<rect id="Rectángulo_28039" x="0" y="9" class="st18" width="8.1" height="0.8"/>
									<rect id="Rectángulo_28040" x="0" y="10.6" class="st18" width="8.1" height="0.8"/>
									<rect id="Rectángulo_28041" x="0" y="12.3" class="st18" width="5.4" height="0.8"/>
								</g>
								<g id="Grupo_39665" transform="translate(56.541)">
									<rect id="Rectángulo_28042" x="0" y="0" class="st18" width="8.1" height="8.1"/>
									<rect id="Rectángulo_28043" x="0" y="9" class="st18" width="8.1" height="0.8"/>
									<rect id="Rectángulo_28044" x="0" y="10.6" class="st18" width="8.1" height="0.8"/>
									<rect id="Rectángulo_28045" x="0" y="12.3" class="st18" width="5.4" height="0.8"/>
								</g>
								<g id="Grupo_39666" transform="translate(67.849)">
									<rect id="Rectángulo_28046" x="0" y="0" class="st18" width="8.1" height="8.1"/>
									<rect id="Rectángulo_28047" x="0" y="9" class="st18" width="8.1" height="0.8"/>
									<rect id="Rectángulo_28048" x="0" y="10.6" class="st18" width="8.1" height="0.8"/>
									<rect id="Rectángulo_28049" x="0" y="12.3" class="st18" width="5.4" height="0.8"/>
								</g>
							</g>
							<g id="Grupo_39669" transform="translate(3.57 20.528)">
								<g id="Grupo_39668">
									<path id="Trazado_92902" class="st18" d="M0,3.1l3.1,3.1V0L0,3.1z"/>
								</g>
								<path id="Trazado_92903" class="st18" d="M72.9,0v6.2L76,3.1L72.9,0z"/>
							</g>
							<g id="Grupo_39670" transform="translate(35.924 37.482)">
								<path id="Trazado_92904" class="st18" d="M1.1,0.6c0,0.3-0.3,0.6-0.6,0.6S0,0.9,0,0.6C0,0.3,0.3,0,0.6,0c0,0,0,0,0,0
									C0.9,0,1.1,0.3,1.1,0.6C1.1,0.6,1.1,0.6,1.1,0.6z"/>
								<circle id="Elipse_3776" class="st3" cx="3" cy="0.6" r="0.6"/>
								<path id="Trazado_92905" class="st18" d="M6,0.6c0,0.3-0.3,0.6-0.6,0.6S4.9,0.9,4.9,0.6C4.9,0.3,5.2,0,5.5,0
									C5.8,0,6,0.3,6,0.6C6,0.6,6,0.6,6,0.6z"/>
								<circle id="Elipse_3777" class="st18" cx="7.9" cy="0.6" r="0.6"/>
								<path id="Trazado_92906" class="st18" d="M10.9,0.6c0,0.3-0.3,0.6-0.6,0.6S9.8,0.9,9.8,0.6c0-0.3,0.3-0.6,0.6-0.6h0
									C10.7,0,10.9,0.3,10.9,0.6C10.9,0.6,10.9,0.6,10.9,0.6z"/>
							</g>
							<line id="Línea_308" class="st19" x1="3.6" y1="85.4" x2="79.6" y2="85.4"/>
							<line id="Línea_309" class="st19" x1="3.6" y1="65.1" x2="79.6" y2="65.1"/>
							<g id="Grupo_39671" transform="translate(3.57 89.623)">
								<rect id="Rectángulo_28050" x="0" y="0" class="st18" width="34.8" height="8.2"/>
								<rect id="Rectángulo_28051" x="40.3" y="0" class="st18" width="35.7" height="8.2"/>
							</g>
							<g id="Grupo_39672" transform="translate(3.57 99.923)">
								<rect id="Rectángulo_28052" x="0" y="0" class="st18" width="34.8" height="8.2"/>
								<rect id="Rectángulo_28053" x="40.3" y="0" class="st18" width="35.7" height="8.2"/>
							</g>
						</g>
					</g>
				</g>
			</g>
		</g>
		<g id="Grupo_39679" transform="translate(0 33.903)">
			<g id="Grupo_39676">
				<path id="Trazado_92907" class="st0" d="M65.1,20.4v29.3c0,2-1.1,3.9-2.9,5L36.9,69.2c-1.8,1-4,1-5.7,0L5.8,54.6
					c-1.8-1-2.9-2.9-2.9-5V20.4c0-2,1.1-3.9,2.9-5L31.1,0.8c1.8-1,4-1,5.7,0l25.3,14.6C64,16.4,65.1,18.3,65.1,20.4z"/>
				<g id="Ribbon" transform="translate(2.932 36.829)">
					<path id="Trazado_92908" class="st20" d="M62.1,0v12.8c0,1-0.2,1.9-0.7,2.7H0.7C0.2,14.7,0,13.8,0,12.8V0H62.1z"/>
				</g>
				<g id="Ribbon-2" transform="translate(0 35.429)">
					<path id="Trazado_92909" class="st6" d="M67.9,0H0l2.1,7.8L0,15.5h67.9l-2-7.8L67.9,0z"/>
				</g>
				<g class="st21">
					<path class="st5" d="M18.2,40.4l-2.3,7h-2.1l-1.3-4.3l-1.4,4.3H9l-2.3-7h2l1.4,4.5l1.5-4.5h1.8l1.4,4.5l1.5-4.5H18.2z"/>
					<path class="st5" d="M19.3,40.3c0-0.6,0.5-1,1.2-1s1.2,0.4,1.2,1c0,0.6-0.5,1-1.2,1S19.3,40.9,19.3,40.3z M19.5,41.9h1.9v5.4
						h-1.9V41.9z"/>
					<path class="st5" d="M28.9,44.3v3.1H27v-2.8c0-0.8-0.3-1.1-0.9-1.1c-0.6,0-1.1,0.4-1.1,1.3v2.6h-1.9v-5.4h1.8v0.6
						c0.4-0.5,1-0.7,1.7-0.7C27.9,41.9,28.9,42.6,28.9,44.3z"/>
					<path class="st5" d="M36.4,39.9v7.4h-1.8v-0.5c-0.4,0.4-0.9,0.6-1.6,0.6c-1.5,0-2.7-1.1-2.7-2.8c0-1.7,1.2-2.8,2.7-2.8
						c0.6,0,1.1,0.2,1.5,0.6v-2.5H36.4z M34.5,44.6c0-0.8-0.5-1.3-1.1-1.3c-0.6,0-1.1,0.5-1.1,1.3c0,0.8,0.5,1.3,1.1,1.3
						C34.1,45.9,34.5,45.5,34.5,44.6z"/>
					<path class="st5" d="M37.8,44.6c0-1.6,1.3-2.8,3.1-2.8c1.8,0,3.1,1.2,3.1,2.8c0,1.6-1.3,2.8-3.1,2.8
						C39.1,47.5,37.8,46.3,37.8,44.6z M42,44.6c0-0.8-0.5-1.3-1.1-1.3c-0.6,0-1.1,0.5-1.1,1.3c0,0.8,0.5,1.3,1.1,1.3
						C41.5,45.9,42,45.5,42,44.6z"/>
					<path class="st5" d="M54.1,41.9l-1.9,5.4h-1.8l-1-2.9l-1.1,2.9h-1.8l-1.9-5.4h1.8l1.1,3.3l1.1-3.3h1.6l1.1,3.3l1.1-3.3H54.1z"
						/>
					<path class="st5" d="M54.7,46.9l0.6-1.3c0.5,0.3,1.2,0.5,1.9,0.5c0.6,0,0.8-0.1,0.8-0.4c0-0.7-3.2,0.1-3.2-2.1
						c0-1,0.9-1.8,2.6-1.8c0.8,0,1.6,0.2,2.1,0.5L59,43.6c-0.5-0.3-1.1-0.4-1.6-0.4c-0.6,0-0.9,0.2-0.9,0.4c0,0.8,3.2-0.1,3.2,2.1
						c0,1-0.9,1.8-2.7,1.8C56.2,47.5,55.2,47.2,54.7,46.9z"/>
				</g>
			</g>
			<g id="gear" transform="translate(21.954 11.669)">
				<g id="Grupo_39677">
					<g id="gear-2">
						<path id="Trazado_92910" class="st20" d="M16.3,9.8c0.2-1,0.2-2.1,0-3.1h-2.7c-0.1-0.4-0.3-0.8-0.5-1.2L15,3.6
							c-0.6-0.9-1.3-1.6-2.2-2.2L11,3.3c-0.4-0.2-0.8-0.4-1.2-0.5V0.1C8.8,0,7.7,0,6.7,0.1v2.7C6.3,2.9,5.9,3.1,5.5,3.3L3.6,1.4
							C2.7,2,2,2.7,1.4,3.6l1.9,1.9C3.1,5.9,2.9,6.3,2.8,6.7H0.1C0,7.7,0,8.7,0.1,9.8h2.7c0.1,0.4,0.3,0.8,0.5,1.2l-1.9,1.9
							C2,13.7,2.7,14.4,3.6,15l1.9-1.9c0.4,0.2,0.8,0.4,1.2,0.5v2.7c1,0.2,2.1,0.2,3.1,0v-2.7c0.4-0.1,0.8-0.3,1.2-0.5l1.9,1.9
							c0.9-0.6,1.6-1.3,2.2-2.2L13.1,11c0.2-0.4,0.4-0.8,0.5-1.2L16.3,9.8z M8.2,9.9c-0.9,0-1.7-0.7-1.7-1.7c0-0.9,0.7-1.7,1.7-1.7
							c0.9,0,1.7,0.7,1.7,1.7C9.9,9.1,9.1,9.9,8.2,9.9C8.2,9.9,8.2,9.9,8.2,9.9L8.2,9.9z"/>
					</g>
					<g id="gear-3" transform="translate(14.122 9.817)">
						<path id="Trazado_92911" class="st20" d="M9.9,5.9c0.1-0.6,0.1-1.2,0-1.9H8.3C8.2,3.8,8.1,3.6,8,3.3l1.1-1.1
							c-0.4-0.5-0.8-1-1.3-1.3L6.7,2C6.4,1.9,6.2,1.8,5.9,1.7V0.1C5.3,0,4.7,0,4.1,0.1v1.6C3.8,1.8,3.6,1.9,3.3,2L2.2,0.9
							c-0.5,0.4-1,0.8-1.3,1.3L2,3.3C1.9,3.6,1.8,3.8,1.7,4.1H0.1C0,4.7,0,5.3,0.1,5.9h1.6C1.8,6.2,1.9,6.4,2,6.7L0.9,7.8
							c0.4,0.5,0.8,1,1.3,1.3L3.3,8c0.2,0.1,0.5,0.2,0.7,0.3v1.6c0.6,0.1,1.2,0.1,1.9,0V8.3C6.2,8.2,6.4,8.1,6.7,8l1.1,1.1
							c0.5-0.4,1-0.8,1.3-1.3L8,6.7c0.1-0.2,0.2-0.5,0.3-0.7L9.9,5.9z M5,6C4.4,6,4,5.6,4,5s0.5-1,1-1c0.6,0,1,0.5,1,1
							C6,5.6,5.6,6,5,6L5,6z"/>
					</g>
				</g>
			</g>
			<g id="gear-4" transform="translate(21.954 11.042)">
				<g id="Grupo_39678">
					<g id="gear-5">
						<path id="Trazado_92912" class="st18" d="M16.3,9.8c0.2-1,0.2-2.1,0-3.1h-2.7c-0.1-0.4-0.3-0.8-0.5-1.2L15,3.6
							c-0.6-0.9-1.3-1.6-2.2-2.2L11,3.3c-0.4-0.2-0.8-0.4-1.2-0.5V0.1C8.7,0,7.7,0,6.7,0.1v2.7C6.3,2.9,5.9,3.1,5.5,3.3L3.6,1.4
							C2.7,2,2,2.7,1.4,3.6l1.9,1.9C3.1,5.9,2.9,6.3,2.8,6.7H0.1C0,7.7,0,8.7,0.1,9.8h2.7c0.1,0.4,0.3,0.8,0.5,1.2l-1.9,1.9
							C2,13.7,2.7,14.4,3.6,15l1.9-1.9c0.4,0.2,0.8,0.4,1.2,0.5v2.7c1,0.2,2.1,0.2,3.1,0v-2.7c0.4-0.1,0.8-0.3,1.2-0.5l1.9,1.9
							c0.9-0.6,1.6-1.3,2.2-2.2L13.1,11c0.2-0.4,0.4-0.8,0.5-1.2L16.3,9.8z M8.2,9.9c-0.9,0-1.7-0.7-1.7-1.7c0-0.9,0.7-1.7,1.7-1.7
							c0.9,0,1.7,0.7,1.7,1.7C9.9,9.1,9.1,9.9,8.2,9.9C8.2,9.9,8.2,9.9,8.2,9.9L8.2,9.9z"/>
					</g>
					<g id="gear-6" transform="translate(14.122 9.817)">
						<path id="Trazado_92913" class="st18" d="M9.9,5.9c0.1-0.6,0.1-1.2,0-1.9H8.3C8.2,3.8,8.1,3.6,8,3.3l1.1-1.1
							c-0.4-0.5-0.8-1-1.3-1.3L6.7,2C6.4,1.9,6.2,1.8,5.9,1.7V0.1C5.3,0,4.7,0,4.1,0.1v1.6C3.8,1.8,3.6,1.9,3.3,2L2.2,0.9
							c-0.5,0.4-1,0.8-1.3,1.3L2,3.3C1.9,3.6,1.8,3.8,1.7,4.1H0.1C0,4.7,0,5.3,0.1,5.9h1.6C1.8,6.2,1.9,6.4,2,6.7L0.9,7.8
							c0.4,0.5,0.8,1,1.3,1.3L3.3,8c0.2,0.1,0.5,0.2,0.7,0.3v1.6c0.6,0.1,1.2,0.1,1.9,0V8.3C6.2,8.2,6.4,8.1,6.7,8l1.1,1.1
							c0.5-0.4,1-0.8,1.3-1.3L8,6.7c0.1-0.2,0.2-0.5,0.3-0.7L9.9,5.9z M5,6C4.4,6,4,5.6,4,5s0.5-1,1-1c0.6,0,1,0.5,1,1
							C6,5.6,5.6,6,5,6L5,6z"/>
					</g>
				</g>
			</g>
		</g>
		<g id="chat" transform="translate(187.106 25.299)">
			<g id="Grupo_39680">
				<path id="Trazado_92914" class="st6" d="M16.5,0H5.7C2.6,0,0,2.6,0,5.7c0,3,2.4,5.5,5.4,5.7l-3.5,4.2l6.7-4.2h7.9
					c3.2,0,5.7-2.6,5.7-5.7C22.2,2.6,19.6,0,16.5,0C16.5,0,16.5,0,16.5,0L16.5,0z"/>
				<path id="Trazado_92915" class="st18" d="M6,3.9c-1,0-1.9,0.8-1.9,1.9S5,7.6,6,7.6c1,0,1.9-0.8,1.9-1.9v0C7.9,4.7,7.1,3.9,6,3.9
					z M11.1,3.9c-1,0-1.9,0.8-1.9,1.9s0.8,1.9,1.9,1.9c1,0,1.9-0.8,1.9-1.9v0C12.9,4.7,12.1,3.9,11.1,3.9L11.1,3.9z M16.1,3.9
					c-1,0-1.9,0.8-1.9,1.9s0.8,1.9,1.9,1.9c1,0,1.9-0.8,1.9-1.9v0C18,4.7,17.1,3.9,16.1,3.9L16.1,3.9z"/>
			</g>
		</g>
		<line id="Línea_310" class="st22" x1="122.7" y1="50.6" x2="122.7" y2="75.3"/>
		<line id="Línea_311" class="st23" x1="233" y1="117.2" x2="233" y2="96.4"/>
		<line id="Línea_312" class="st23" x1="226.1" y1="45.1" x2="166.2" y2="45.1"/>
		<line id="Línea_313" class="st23" x1="26.9" y1="130.9" x2="26.9" y2="100.5"/>
		<path id="Trazado_92916" class="st23" d="M35.5,92.8L49.6,107c1.4,1.4,3.3,2.2,5.3,2.2H78"/>
		<g id="Artwork_4" transform="translate(174.744 87.791)">
			<g id="Grupo_39691">
				<path id="Rectángulo_28101" class="st5" d="M4.3,0h29c2.4,0,4.3,1.9,4.3,4.3v40.3c0,2.4-1.9,4.3-4.3,4.3h-29
					C1.9,48.9,0,47,0,44.6V4.3C0,1.9,1.9,0,4.3,0z"/>
				<g id="Grupo_39690" transform="translate(24.451 1.957)">
					<path id="Trazado_92919" class="st6" d="M10.4,1.3c0,0.7-0.6,1.3-1.3,1.3S7.7,2,7.7,1.3C7.7,0.6,8.3,0,9,0c0,0,0,0,0,0
						C9.8,0,10.4,0.6,10.4,1.3z"/>
					<path id="Trazado_92920" class="st24" d="M6.5,1.3c0,0.7-0.6,1.3-1.3,1.3S3.9,2,3.9,1.3C3.9,0.6,4.5,0,5.2,0c0,0,0,0,0,0
						C5.9,0,6.5,0.6,6.5,1.3C6.5,1.3,6.5,1.3,6.5,1.3z"/>
					<path id="Trazado_92921" class="st17" d="M2.6,1.3C2.6,2,2,2.6,1.3,2.6S0,2,0,1.3C0,0.6,0.6,0,1.3,0c0,0,0,0,0,0
						C2,0,2.6,0.6,2.6,1.3z"/>
				</g>
			</g>
		</g>
		<path id="Trazado_92922" class="st25" d="M193.3,133v25.5h-37.6V133c0-1.4,1.2-2.6,2.6-2.6c0,0,0,0,0,0h32.4
			C192.2,130.4,193.3,131.6,193.3,133C193.3,133,193.3,133,193.3,133z"/>
		<g id="Artwork_4-2" transform="translate(166.279 50.342)">
			<g id="Grupo_39693">
				<path id="Rectángulo_28102" class="st7" d="M4.3,0h18.8c2.4,0,4.3,1.9,4.3,4.3v25.4c0,2.4-1.9,4.3-4.3,4.3H4.3
					C1.9,34,0,32.1,0,29.7V4.3C0,1.9,1.9,0,4.3,0z"/>
				<g id="Grupo_39692" transform="translate(14.251 1.957)">
					<path id="Trazado_92923" class="st6" d="M10.4,1.3c0,0.7-0.6,1.3-1.3,1.3S7.7,2,7.7,1.3C7.7,0.6,8.3,0,9,0c0,0,0,0,0,0
						C9.8,0,10.4,0.6,10.4,1.3z"/>
					<path id="Trazado_92924" class="st24" d="M6.5,1.3c0,0.7-0.6,1.3-1.3,1.3S3.9,2,3.9,1.3C3.9,0.6,4.5,0,5.2,0c0,0,0,0,0,0
						C5.9,0,6.5,0.6,6.5,1.3z"/>
					<path id="Trazado_92925" class="st17" d="M2.6,1.3C2.6,2,2,2.6,1.3,2.6S0,2,0,1.3S0.6,0,1.3,0l0,0C2,0,2.6,0.6,2.6,1.3z"/>
				</g>
			</g>
		</g>
		<g id="Artwork_4-3" transform="translate(154.007 131.573)">
			<g id="Grupo_39695">
				<path id="Rectángulo_28103" class="st26" d="M4.3,0h29c2.4,0,4.3,1.9,4.3,4.3v25.4c0,2.4-1.9,4.3-4.3,4.3h-29
					C1.9,34,0,32.1,0,29.7V4.3C0,1.9,1.9,0,4.3,0z"/>
				<g id="Grupo_39694" transform="translate(24.451 1.957)">
					<path id="Trazado_92926" class="st6" d="M10.4,1.3c0,0.7-0.6,1.3-1.3,1.3C8.3,2.6,7.7,2,7.7,1.3C7.7,0.6,8.3,0,9,0c0,0,0,0,0,0
						C9.8,0,10.4,0.6,10.4,1.3z"/>
					<path id="Trazado_92927" class="st24" d="M6.5,1.3c0,0.7-0.6,1.3-1.3,1.3S3.9,2,3.9,1.3S4.5,0,5.2,0l0,0C5.9,0,6.5,0.6,6.5,1.3
						z"/>
					<path id="Trazado_92928" class="st17" d="M2.6,1.3C2.6,2,2,2.6,1.3,2.6C0.6,2.6,0,2,0,1.3C0,0.6,0.6,0,1.3,0c0,0,0,0,0,0
						C2,0,2.6,0.6,2.6,1.3z"/>
				</g>
			</g>
		</g>
		<g id="Grupo_39696" transform="translate(168.501 56.894)">
			<g id="text" transform="translate(0 13.334)">
				<path id="Trazado_92929" class="st5" d="M2.5,4.6H0v1.1h2.5V4.6z M11.6,8h6.9V6.9h-6.9V8z M18.5,0H2.4v1.1h16.1L18.5,0z M0,10.3
					h6.3V9.2H0V10.3z M4.8,2.3H0v1.1h4.8V2.3z M3.3,5.7H13V4.6H3.3V5.7z M10.3,6.9H0V8h10.3L10.3,6.9z M13.8,5.7h8.6V4.6h-8.6
					L13.8,5.7z M6.1,3.4h16.3V2.3H6.1L6.1,3.4z M19.2,0v1.1h3.3V0L19.2,0z M19.8,8h2.6V6.9h-2.6V8z M7.5,10.3H14V9.2H7.5V10.3z
					 M14.8,10.3h4.9V9.2h-4.9V10.3z"/>
			</g>
			<rect id="Rectángulo_28104" x="0.3" y="0" class="st5" width="22.2" height="11.3"/>
		</g>
		<g id="Grupo_39697" transform="translate(179.205 97.922)">
			<g id="text-2" transform="translate(0 17.04)">
				<path id="Trazado_92930" class="st3" d="M3.2,5.9H0v1.4h3.2V5.9z M14.9,10.2h8.8V8.8h-8.8V10.2z M23.7,0H3.1v1.4h20.6V0z
					 M0,13.1h8v-1.4H0V13.1z M6.1,2.9H0v1.4h6.1V2.9z M4.2,7.2h12.5V5.9H4.2V7.2z M13.2,8.8H0v1.4h13.2L13.2,8.8z M17.7,7.2h11V5.9
					h-11L17.7,7.2z M7.8,4.3h20.9V2.9H7.8V4.3z M24.5,0v1.4h4.2V0H24.5z M25.3,10.2h3.3V8.8h-3.3V10.2z M9.7,13.1h8.2v-1.4H9.7V13.1
					z M18.9,13.1h6.3v-1.4h-6.3L18.9,13.1z"/>
			</g>
			<rect id="Rectángulo_28105" x="0.4" y="0" class="st3" width="28.4" height="14.5"/>
		</g>
		<g id="Grupo_39703" transform="translate(158.188 141.932)">
			<g id="gear-7" transform="translate(0 0.563)">
				<g id="Grupo_39698">
					<g id="gear-8">
						<path id="Trazado_92931" class="st7" d="M13.6,8.1c0.2-0.8,0.2-1.7,0-2.6h-2.2c-0.1-0.4-0.2-0.7-0.4-1L12.5,3
							c-0.5-0.7-1.1-1.3-1.8-1.8L9.1,2.8c-0.3-0.2-0.7-0.3-1-0.4V0.1C7.3,0,6.4,0,5.6,0.1v2.2c-0.4,0.1-0.7,0.2-1,0.4L3,1.2
							C2.3,1.7,1.7,2.3,1.2,3l1.6,1.6c-0.2,0.3-0.3,0.7-0.4,1H0.1C0,6.4,0,7.3,0.1,8.1h2.2c0.1,0.4,0.2,0.7,0.4,1l-1.6,1.6
							C1.7,11.4,2.3,12,3,12.5L4.6,11c0.3,0.2,0.7,0.3,1,0.4v2.2c0.8,0.2,1.7,0.2,2.6,0v-2.2c0.4-0.1,0.7-0.2,1-0.4l1.6,1.6
							c0.7-0.5,1.3-1.1,1.8-1.8L11,9.1c0.2-0.3,0.3-0.7,0.4-1L13.6,8.1z M6.9,8.2c-0.8,0-1.4-0.6-1.4-1.4s0.6-1.4,1.4-1.4
							c0.8,0,1.4,0.6,1.4,1.4C8.2,7.6,7.6,8.2,6.9,8.2L6.9,8.2z"/>
					</g>
				</g>
			</g>
			<g id="Data_server" transform="translate(16.114)">
				<g id="Grupo_39702">
					<g id="Grupo_39699" transform="translate(0 9.473)">
						<path id="Trazado_92932" class="st18" d="M0,1.2v3.4c0,0.7,3,1.2,6.7,1.2s6.7-0.5,6.7-1.2V1.2H0z"/>
						<ellipse id="Elipse_3779" class="st7" cx="6.7" cy="1.2" rx="6.7" ry="1.2"/>
					</g>
					<g id="Grupo_39700" transform="translate(0 4.737)">
						<path id="Trazado_92933" class="st18" d="M0,1.2v3.4c0,0.7,3,1.2,6.7,1.2s6.7-0.5,6.7-1.2V1.2H0z"/>
						<ellipse id="Elipse_3780" class="st7" cx="6.7" cy="1.2" rx="6.7" ry="1.2"/>
					</g>
					<g id="Grupo_39701">
						<path id="Trazado_92934" class="st18" d="M0,1.2v3.4c0,0.7,3,1.2,6.7,1.2s6.7-0.5,6.7-1.2V1.2H0z"/>
						<ellipse id="Elipse_3781" class="st7" cx="6.7" cy="1.2" rx="6.7" ry="1.2"/>
					</g>
				</g>
			</g>
		</g>
		<g id="Grupo_39711" transform="translate(17.954 131.053)">
			<g id="Grupo_39704">
				
					<linearGradient id="Rectángulo_28106_1_" gradientUnits="userSpaceOnUse" x1="-186.7351" y1="360.5054" x2="-186.7351" y2="359.5054" gradientTransform="matrix(36.873 0 0 -66.642 6903.9199 24024.7969)">
					<stop  offset="0" style="stop-color:#FFFFFF"/>
					<stop  offset="1" style="stop-color:#D2E6EE"/>
				</linearGradient>
				<path id="Rectángulo_28106" class="st27" d="M9.6,0h17.7c5.3,0,9.6,4.3,9.6,9.6V57c0,5.3-4.3,9.6-9.6,9.6H9.6
					C4.3,66.6,0,62.3,0,57V9.6C0,4.3,4.3,0,9.6,0z"/>
				<path id="Trazado_92935" class="st3" d="M22.6,3.7h-8.3c-0.4,0-0.8-0.4-0.8-0.8l0,0c0-0.4,0.4-0.8,0.8-0.8h8.3
					c0.4,0,0.8,0.4,0.8,0.8l0,0C23.4,3.3,23,3.7,22.6,3.7z"/>
				<path id="Trazado_92936" class="st3" d="M20.2,63c0,1-0.8,1.7-1.7,1.7c-1,0-1.7-0.8-1.7-1.7c0-1,0.8-1.7,1.7-1.7h0
					C19.4,61.3,20.2,62.1,20.2,63z"/>
			</g>
			<rect id="Rectángulo_28107" x="2.6" y="8.3" class="st0" width="31.7" height="48.9"/>
			<g id="login" transform="translate(6.288 35.652)">
				<g id="Grupo_39707">
					<g id="Grupo_39705">
						<path id="Trazado_92937" class="st28" d="M24.3,0.9v2.2c0,0.5-0.4,0.9-0.9,0.9h0H0.9c0,0-0.1,0-0.1,0C0.3,4,0,3.6,0,3.2V0.9
							C0,0.4,0.4,0,0.9,0c0,0,0,0,0,0h22.4c0.5,0,0.9,0.3,0.9,0.8C24.3,0.9,24.3,0.9,24.3,0.9z"/>
						<path id="Trazado_92938" class="st18" d="M24.3,0.9v2.2c0,0.5-0.4,0.9-0.9,0.9h0H0.9c0,0-0.1,0-0.1,0c0,0,0-0.1,0-0.1V1.7
							c0-0.5,0.4-0.9,0.9-0.9h22.4c0,0,0.1,0,0.1,0C24.3,0.9,24.3,0.9,24.3,0.9z"/>
					</g>
					<g id="Grupo_39706" transform="translate(0 5.757)">
						<path id="Trazado_92939" class="st28" d="M24.3,0.9v2.2c0,0.5-0.4,0.9-0.9,0.9h0H0.9c0,0-0.1,0-0.1,0C0.3,4,0,3.6,0,3.2V0.9
							C0,0.4,0.4,0,0.9,0c0,0,0,0,0,0h22.4c0.5,0,0.9,0.3,0.9,0.8C24.3,0.9,24.3,0.9,24.3,0.9z"/>
						<path id="Trazado_92940" class="st18" d="M24.3,0.9v2.2c0,0.5-0.4,0.9-0.9,0.9h0H0.9c0,0-0.1,0-0.1,0c0,0,0-0.1,0-0.1V1.7
							c0-0.5,0.4-0.9,0.9-0.9h22.4c0,0,0.1,0,0.1,0C24.3,0.9,24.3,0.9,24.3,0.9z"/>
					</g>
				</g>
				<g id="Grupo_39708" transform="translate(7.047 2.043)">
					<circle id="Elipse_3782" class="st7" cx="0.5" cy="0.5" r="0.5"/>
					<path id="Trazado_92941" class="st7" d="M3.5,0.5c0,0.3-0.2,0.5-0.5,0.5c-0.3,0-0.5-0.2-0.5-0.5C2.5,0.2,2.8,0,3,0
						C3.3,0,3.5,0.2,3.5,0.5z"/>
					<path id="Trazado_92942" class="st7" d="M6,0.5c0,0.3-0.2,0.5-0.5,0.5c-0.3,0-0.5-0.2-0.5-0.5C5.1,0.2,5.3,0,5.6,0
						C5.8,0,6,0.2,6,0.5z"/>
					<circle id="Elipse_3783" class="st7" cx="8.1" cy="0.5" r="0.5"/>
					<path id="Trazado_92943" class="st7" d="M11.1,0.5c0,0.3-0.2,0.5-0.5,0.5c-0.3,0-0.5-0.2-0.5-0.5c0-0.3,0.2-0.5,0.5-0.5
						S11.1,0.2,11.1,0.5L11.1,0.5z"/>
				</g>
				<g id="Grupo_39709" transform="translate(7.047 7.547)">
					<path id="Trazado_92944" class="st7" d="M0.9,0.5c0,0.3-0.2,0.5-0.5,0.5C0.2,0.9,0,0.7,0,0.5C0,0.2,0.2,0,0.5,0
						C0.7,0,0.9,0.2,0.9,0.5z"/>
					<path id="Trazado_92945" class="st7" d="M3.5,0.5c0,0.3-0.2,0.5-0.5,0.5c-0.3,0-0.5-0.2-0.5-0.5C2.5,0.2,2.8,0,3,0
						C3.3,0,3.5,0.2,3.5,0.5z"/>
					<path id="Trazado_92946" class="st7" d="M6,0.5c0,0.3-0.2,0.5-0.5,0.5c-0.3,0-0.5-0.2-0.5-0.5C5.1,0.2,5.3,0,5.6,0
						C5.8,0,6,0.2,6,0.5z"/>
					<path id="Trazado_92947" class="st7" d="M8.6,0.5c0,0.3-0.2,0.5-0.5,0.5c-0.3,0-0.5-0.2-0.5-0.5C7.6,0.2,7.9,0,8.1,0
						C8.4,0,8.6,0.2,8.6,0.5z"/>
					<path id="Trazado_92948" class="st7" d="M11.1,0.5c0,0.3-0.2,0.5-0.5,0.5c-0.3,0-0.5-0.2-0.5-0.5c0-0.3,0.2-0.5,0.5-0.5
						S11.1,0.2,11.1,0.5L11.1,0.5z"/>
				</g>
			</g>
			<g id="user_man_account" transform="translate(10.323 14.689)">
				<g id="Grupo_39710">
					<path id="Trazado_92949" class="st3" d="M16.2,8.1c0,4.5-3.6,8.1-8.1,8.1c-2.5,0-4.8-1.1-6.4-3.1c0-0.1-0.1-0.1-0.1-0.2
						c-2.7-3.6-2-8.7,1.6-11.4c3.6-2.7,8.7-2,11.4,1.6C15.7,4.6,16.2,6.4,16.2,8.1L16.2,8.1z"/>
					<path id="Trazado_92950" class="st5" d="M14.5,13.2c-2.8,3.5-7.9,4.1-11.4,1.3c-0.5-0.4-0.9-0.8-1.3-1.3c0.6-2.6,2.7-4.5,5.3-5
						C5.7,7.6,5,6,5.6,4.6c0.6-1.4,2.2-2.1,3.6-1.5s2.1,2.2,1.5,3.6c-0.3,0.7-0.8,1.2-1.5,1.5C11.8,8.6,13.9,10.6,14.5,13.2z"/>
				</g>
			</g>
		</g>
		<g id="transform" transform="translate(78.634 115.504)">
			<g id="Grupo_39716">
				<rect id="Rectángulo_28108" x="0.8" y="0.8" class="st29" width="27.3" height="27.3"/>
				<g id="Grupo_39715">
					<g id="Grupo_39712">
						<rect id="Rectángulo_28109" x="0" y="0" class="st3" width="1.5" height="1.5"/>
						<rect id="Rectángulo_28110" x="13.6" y="0" class="st3" width="1.5" height="1.5"/>
						<rect id="Rectángulo_28111" x="27.3" y="0" class="st3" width="1.5" height="1.5"/>
					</g>
					<g id="Grupo_39713" transform="translate(0 13.648)">
						<rect id="Rectángulo_28112" x="0" y="0" class="st3" width="1.5" height="1.5"/>
						<rect id="Rectángulo_28113" x="27.3" y="0" class="st3" width="1.5" height="1.5"/>
					</g>
					<g id="Grupo_39714" transform="translate(0 27.295)">
						<rect id="Rectángulo_28114" x="0" y="0" class="st3" width="1.5" height="1.5"/>
						<rect id="Rectángulo_28115" x="13.6" y="0" class="st3" width="1.5" height="1.5"/>
						<rect id="Rectángulo_28116" x="27.3" y="0" class="st3" width="1.5" height="1.5"/>
					</g>
				</g>
			</g>
		</g>
	</g>
	<circle id="Elipse_3784" class="st7" cx="169.4" cy="251.1" r="2.4"/>
	<circle id="Elipse_3785" class="st5" cx="220" cy="241.2" r="2.1"/>
	<path id="Trazado_92951" class="st5" d="M103,240.1c0,1.4-1.1,2.5-2.5,2.5s-2.5-1.1-2.5-2.5c0-1.4,1.1-2.5,2.5-2.5
		S103,238.7,103,240.1L103,240.1z"/>
	<circle id="Elipse_3786" class="st7" cx="113.3" cy="253.5" r="1.1"/>
	<path id="Trazado_92952" class="st5" d="M45.5,184c0,1-0.9,1.9-1.9,1.9c-1,0-1.9-0.9-1.9-1.9c0-1,0.9-1.9,1.9-1.9h0
		C44.7,182.1,45.5,182.9,45.5,184z"/>
	<path id="Trazado_92953" class="st5" d="M207,85c0,1.3-1.1,2.4-2.4,2.4s-2.4-1.1-2.4-2.4s1.1-2.4,2.4-2.4l0,0
		C205.9,82.6,207,83.7,207,85z"/>
	<circle id="Elipse_3787" class="st5" cx="117.8" cy="118.6" r="1.5"/>
	<path id="Trazado_92954" class="st7" d="M89,92.8c0,1-0.9,1.9-1.9,1.9c-1,0-1.9-0.9-1.9-1.9c0-1,0.9-1.9,1.9-1.9S89,91.8,89,92.8
		L89,92.8z"/>
	<circle id="Elipse_3788" class="st7" cx="253.4" cy="93.1" r="1.9"/>
</g>
</svg>
