<svg xmlns="http://www.w3.org/2000/svg" width="604.737" height="344.396" viewBox="0 0 604.737 344.396">
  <g id="Grupo_54392" data-name="Grupo 54392" transform="translate(-60.247 -836.934)">
    <g id="Group_54360" data-name="Group 54360" transform="translate(312.194 946.958)">
      <path id="Path_116867" data-name="Path 116867" d="M289.76,951.334h3.7a1.762,1.762,0,0,1,1.836,1.684c0,.043,0,.087,0,.13.012,1.163,0,2.328,0,3.5v.408h6.534a3.553,3.553,0,0,1,3.732,3.368,3.314,3.314,0,0,1,0,.348v22.562a3.558,3.558,0,0,1-3.453,3.661c-.066,0-.132,0-.2,0h-1.553v4.538q-.018,3.033-.049,6.066a1.746,1.746,0,0,1-1.724,1.766H290a1.74,1.74,0,0,1-1.809-1.667c0-.054,0-.11,0-.166v-3.9H223.355c0,.138-.017.261-.017.385v3.425a1.793,1.793,0,0,1-1.66,1.916,2.083,2.083,0,0,1-.256,0h-8.331a1.769,1.769,0,0,1-1.914-1.607,1.859,1.859,0,0,1,0-.279v-10.5h-.96a15.65,15.65,0,0,1-2.663-.146,3.4,3.4,0,0,1-2.623-3.38V960.821a3.56,3.56,0,0,1,3.34-3.769,3.609,3.609,0,0,1,.413,0H215.7v-3.878a1.75,1.75,0,0,1,1.658-1.837c.061,0,.122,0,.183,0h4.378V902.945a1.753,1.753,0,0,1,1.618-1.875,1.775,1.775,0,0,1,1.91,1.625.949.949,0,0,1,.005.1c.016.447,0,.9,0,1.341v47.209h4.1a1.763,1.763,0,0,1,1.825,1.7c0,.044,0,.085,0,.129v3.866h49.2c0-.125.017-.251.017-.376,0-1.094.024-2.187,0-3.283a1.878,1.878,0,0,1,1.694-2.043,1.9,1.9,0,0,1,.329,0c1.139.052,2.283,0,3.424,0a.971.971,0,0,0,.12-.028V902.95a1.794,1.794,0,0,1,2.389-1.8,1.868,1.868,0,0,1,1.188,1.9v14.367c0,1.031-.037,2.06-.045,3.091,0,.327.042.658.042.986v29.472Zm-81.242,32.088h93.474V960.649H208.518ZM296.778,987h-82v3.072h82Zm-77.5-32.105v2.128h8.563V954.9Zm72.451,0H284.2v2.128h7.53Zm-76.963,40.894h5v-2.144h-5Zm81.992-2.142h-4.993v2.147h4.993Z" transform="translate(-204.924 -901.05)" fill="#12263f"/>
      <path id="Path_116868" data-name="Path 116868" d="M243.876,902.276a31.741,31.741,0,0,1,15.274,3.883,32.56,32.56,0,0,1,7.163,5.32,1.788,1.788,0,0,1-.615,3.1,1.738,1.738,0,0,1-1.811-.486,28.809,28.809,0,0,0-5.708-4.4,27.9,27.9,0,0,0-10.283-3.589,28.326,28.326,0,0,0-23.936,7.875,1.848,1.848,0,0,1-2.208.495,1.768,1.768,0,0,1-.465-2.854,30.263,30.263,0,0,1,4.169-3.523,31.4,31.4,0,0,1,10.43-4.834A31.943,31.943,0,0,1,243.876,902.276Z" transform="translate(-193.187 -900.142)" fill="#37a3a5"/>
      <path id="Path_116869" data-name="Path 116869" d="M241.465,907.99a25.417,25.417,0,0,1,11.333,2.555,25.119,25.119,0,0,1,6.611,4.693,1.788,1.788,0,0,1,.136,2.525c-.028.031-.057.061-.087.091a1.813,1.813,0,0,1-2.565-.1h0a21.483,21.483,0,0,0-30.223,0,1.784,1.784,0,1,1-2.63-2.412,1.912,1.912,0,0,1,.146-.143,25.089,25.089,0,0,1,5.493-4.1,24.6,24.6,0,0,1,10.3-3.034C240.556,908.02,241.143,907.99,241.465,907.99Z" transform="translate(-191.101 -895.905)" fill="#37a3a5"/>
      <path id="Path_116870" data-name="Path 116870" d="M252.69,922.186a1.776,1.776,0,0,1-1.266-.529,15.99,15.99,0,0,0-22.438-.122,1.86,1.86,0,0,1-2.083.526,1.742,1.742,0,0,1-.536-2.929,26.361,26.361,0,0,1,3.028-2.464,18.561,18.561,0,0,1,9.508-3.194,19.194,19.194,0,0,1,13.972,4.683c.367.312.73.639,1.066.975a1.8,1.8,0,0,1,.378,2.02A1.726,1.726,0,0,1,252.69,922.186Z" transform="translate(-189.46 -891.875)" fill="#37a3a5"/>
      <path id="Path_116876" data-name="Path 116876" d="M253.731,952.354H224.4a1.792,1.792,0,0,1-1.916-1.323,2.024,2.024,0,0,1-.054-.522v-9.74c0-.691.01-1.383.024-2.074A1.722,1.722,0,0,1,224,937.2l55.4-.031h3.589a1.852,1.852,0,0,1,2.064,1.614,1.82,1.82,0,0,1,0,.456v11.081a1.816,1.816,0,0,1-2.02,2.034H253.744Zm27.745-11.607H225.989v8.026h55.486Z" transform="translate(-191.943 -874.279)" fill="#12263f"/>
      <path id="Path_116877" data-name="Path 116877" d="M221.638,944.757v5.714a1.8,1.8,0,0,1-1.722,1.881l-.061,0a1.778,1.778,0,0,1-1.759-1.8v-.061c0-1.658.023-3.317.023-4.975,0-2.165-.017-4.326-.023-6.49a1.774,1.774,0,0,1,3.542-.193,1.683,1.683,0,0,1,0,.209c0,1.433-.017,2.868-.023,4.3v1.409Z" transform="translate(-195.16 -874.278)" fill="#12263f"/>
      <path id="Path_116878" data-name="Path 116878" d="M218.232,944.764v5.747a1.769,1.769,0,1,1-3.537.087h0V938.991a1.771,1.771,0,0,1,3.539-.132c0,.038,0,.077,0,.117C218.25,940.908,218.232,942.836,218.232,944.764Z" transform="translate(-197.68 -874.281)" fill="#12263f"/>
      <path id="Path_116880" data-name="Path 116880" d="M235.409,940.482a8.306,8.306,0,0,1,1.391.145,1.717,1.717,0,0,1,1.221,1.865,1.748,1.748,0,0,1-1.642,1.56c-.679.031-1.364.033-2.043,0a1.72,1.72,0,0,1-1.606-1.828v-.005a1.741,1.741,0,0,1,1.691-1.691h.986Z" transform="translate(-184.31 -871.814)" fill="#12263f"/>
      <path id="Path_116881" data-name="Path 116881" d="M245.539,940.49a8.668,8.668,0,0,1,1.325.106,1.737,1.737,0,0,1,1.3,1.884,1.756,1.756,0,0,1-1.672,1.571,13.141,13.141,0,0,1-2.313-.078,1.659,1.659,0,0,1-1.306-1.916,1.762,1.762,0,0,1,1.7-1.527h.951Z" transform="translate(-176.805 -871.808)" fill="#12263f"/>
      <path id="Path_116882" data-name="Path 116882" d="M230.3,944.048c-.317,0-.639.012-.953,0a1.771,1.771,0,0,1,.085-3.54h1.726a1.77,1.77,0,0,1,.092,3.537c-.317.016-.639,0-.951,0Z" transform="translate(-188.061 -871.795)" fill="#12263f"/>
      <path id="Path_116883" data-name="Path 116883" d="M240.466,940.51h.881a1.776,1.776,0,0,1,1.759,1.674,1.752,1.752,0,0,1-1.576,1.844,15.672,15.672,0,0,1-2.215,0,1.731,1.731,0,0,1-1.524-1.811,1.768,1.768,0,0,1,1.691-1.7h.986Z" transform="translate(-180.557 -871.793)" fill="#12263f"/>
      <path id="Path_116884" data-name="Path 116884" d="M250.564,940.49a9.149,9.149,0,0,1,1.362.108,1.759,1.759,0,0,1,1.3,1.7,1.741,1.741,0,0,1-1.661,1.719c-.639.03-1.263.043-1.893.031a1.769,1.769,0,1,1,.045-3.537h.852Z" transform="translate(-173.041 -871.808)" fill="#12263f"/>
    </g>
    <line id="Línea_1535" data-name="Línea 1535" x2="604.737" transform="translate(60.247 1076.99)" fill="none" stroke="#12263f" stroke-miterlimit="10" stroke-width="2"/>
    <line id="Línea_1536" data-name="Línea 1536" y1="60.492" transform="translate(362.616 1042.894)" fill="none" stroke="#12263f" stroke-miterlimit="10" stroke-width="2"/>
    <line id="Línea_1537" data-name="Línea 1537" y1="26.397" transform="translate(533.711 1076.99)" fill="none" stroke="#12263f" stroke-miterlimit="10" stroke-width="2"/>
    <g id="sG6ua8.tif" transform="translate(316.357 1107.817)">
      <g id="Grupo_54390" data-name="Grupo 54390">
        <path id="Trazado_117140" data-name="Trazado 117140" d="M249.554,1030.01V995.974c0-2.034.524-2.551,2.583-2.551q9.263,0,18.524,0c1.876,0,2.48.6,2.48,2.478q0,34.039,0,68.075c0,1.905-.564,2.471-2.459,2.473q-9.365,0-18.733,0c-1.856,0-2.393-.54-2.393-2.4Q249.553,1047.03,249.554,1030.01Zm3.944-9.052a2.059,2.059,0,0,0-1.007.1,1.335,1.335,0,0,0-.643.893c0,.3.364.681.665.883a1.793,1.793,0,0,0,.906.089q3.923.008,7.849,0h3c1.755,0,3.511-.007,5.268,0,.684,0,1.315-.162,1.337-.949.024-.862-.641-1.033-1.362-1.028-.1,0-.207,0-.31,0m-16.014-3.446c-.7,0-1.393.068-1.371.984.021.892.705.967,1.407.967q4.028-.008,8.054,0c2.72,0,5.439-.007,8.159.005.718,0,1.4-.12,1.435-.96.037-.874-.65-.994-1.369-.993m-8.235,8.878q2.683,0,5.369,0a27.518,27.518,0,0,0,3.2-.049c.383-.045.709-.568,1.062-.871a8.645,8.645,0,0,0-1.085-1c-.19-.127-.536-.024-.812-.024q-7.382,0-14.766,0a4.716,4.716,0,0,0-1.532.054c-.364.131-.829.6-.832.93s.495.684.846.921c.192.129.535.042.81.042m7.755-10.421c2.72,0,5.439-.009,8.159.005.716,0,1.4-.1,1.435-.946.031-.867-.637-1-1.367-.994q-8.158.018-16.317,0c-.712,0-1.386.078-1.371.98s.7.958,1.407.956m-.409-14.952c-.329,0-.658.286-.986.437.322.157.644.446.968.449,2.828.037,5.656.021,8.484.021,2.863,0,5.726.016,8.587-.019a2.913,2.913,0,0,0,1-.437c-.327-.157-.653-.449-.982-.451M252.8,998.133c-.326,0-.648.3-.97.456.327.152.653.435.982.437q8.534.042,17.071,0c.327,0,.655-.3.984-.456-.333-.151-.663-.433-1-.437-2.828-.036-5.656-.021-8.484-.021m-.019,55.292a2.14,2.14,0,1,0-2.173-2.154A2.16,2.16,0,0,0,261.364,1053.4Zm.139,3.509-.484.025a3.894,3.894,0,0,0-.684,1.254.827.827,0,0,0,1.038.949,1.546,1.546,0,0,0,.951-1.066C262.352,1057.711,261.8,1057.3,261.5,1056.913Z" transform="translate(-175.997 -993.422)" fill="#12263f"/>
        <path id="Trazado_117141" data-name="Trazado 117141" d="M237.13,1045.284V1040.2h-1.254q-12.053,0-24.107,0c-2.28,0-2.95-.676-2.95-2.964V996.383c0-2.241.723-2.96,2.978-2.96h60.94c2.274,0,2.94.674,2.94,2.973v40.854c0,2.313-.634,2.952-2.934,2.952q-12,0-24,0h-1.32v5.08c1.231,0,2.494-.051,3.749.012a2.927,2.927,0,0,1,2.9,3.117H230.423a2.978,2.978,0,0,1,2.926-3.115C234.578,1045.232,235.815,1045.284,237.13,1045.284Zm5.163-49.9q-14.9,0-29.808,0c-1.574,0-1.707.132-1.707,1.721q0,17.8,0,35.591c0,1.581.134,1.715,1.714,1.715H272c1.611,0,1.778-.167,1.778-1.773V997.152c0-1.607-.162-1.766-1.785-1.766Q257.144,995.384,242.293,995.385Zm29.051,41.68c-.529-.348-.859-.726-1.08-.672-.3.075-.529.477-.789.738.249.242.5.672.749.676C270.518,1037.81,270.816,1037.437,271.344,1037.064Z" transform="translate(-206.2 -993.421)" fill="#12263f"/>
        <path id="Trazado_117142" data-name="Trazado 117142" d="M207.352,1040.823c.129-.322.223-.608.352-.874,2.06-4.246,4.134-8.483,6.177-12.735a1.19,1.19,0,0,1,1.24-.8q28.245.029,56.492.038a1.368,1.368,0,0,1,1.045.54c2.267,4.561,4.484,9.146,6.766,13.836Zm2.624-1.348h66.6c.005-.12.033-.2.009-.251-1.768-3.659-3.525-7.321-5.336-10.957a1.275,1.275,0,0,0-.984-.481q-26.9-.034-53.8-.035a1.119,1.119,0,0,0-1.175.754c-.691,1.5-1.43,2.979-2.152,4.467C212.1,1035.1,211.07,1037.225,209.976,1039.475Z" transform="translate(-207.288 -968.963)" fill="#12263f"/>
        <path id="Trazado_117143" data-name="Trazado 117143" d="M207.315,1036.045v-.963H279.4l.071.963Z" transform="translate(-207.315 -962.533)" fill="#37a3a5"/>
        <path id="Trazado_117144" data-name="Trazado 117144" d="M216.933,1034.126c.035-1.053.522-1.3,1.456-1.3q17.883.047,35.766,0c.935,0,1.435.228,1.409,1.3Z" transform="translate(-200.184 -964.206)" fill="#12263f"/>
        <path id="Trazado_117145" data-name="Trazado 117145" d="M230.3,1030.183a11.416,11.416,0,0,1,2.316.049c.327.07.54.677.806,1.042l-.23.286c-.606,0-1.212,0-1.818,0C230.144,1031.553,230.139,1031.546,230.3,1030.183Z" transform="translate(-190.326 -966.193)" fill="#12263f"/>
        <path id="Trazado_117146" data-name="Trazado 117146" d="M230.15,1030.129l-.07-1.255H233l.178,1.255Z" transform="translate(-190.436 -967.136)" fill="#12263f"/>
        <path id="Trazado_117147" data-name="Trazado 117147" d="M230.074,1030.2v1.261H227.2V1030.2Z" transform="translate(-192.572 -966.151)" fill="#12263f"/>
        <path id="Trazado_117148" data-name="Trazado 117148" d="M230.062,1030.148h-2.856v-1.28h2.856Z" transform="translate(-192.567 -967.14)" fill="#12263f"/>
        <path id="Trazado_117149" data-name="Trazado 117149" d="M230.074,1027.546v1.28h-2.866v-1.28Z" transform="translate(-192.566 -968.12)" fill="#12263f"/>
        <path id="Trazado_117150" data-name="Trazado 117150" d="M230.057,1028.814l-.106-1.247h2.9l.2,1.247Z" transform="translate(-190.532 -968.105)" fill="#12263f"/>
        <path id="Trazado_117151" data-name="Trazado 117151" d="M232.826,1027.538a10.638,10.638,0,0,1,2.335.049c.387.089.655.693.977,1.064l-.228.271a10.653,10.653,0,0,1-2.337-.05c-.385-.087-.651-.691-.972-1.062Z" transform="translate(-188.567 -968.158)" fill="#12263f"/>
        <path id="Trazado_117152" data-name="Trazado 117152" d="M238.834,1028.923a10.466,10.466,0,0,1-2.351-.05c-.4-.1-.688-.705-1.026-1.083l.226-.25a10.438,10.438,0,0,1,2.347.05c.4.094.681.7,1.017,1.076Z" transform="translate(-186.449 -968.158)" fill="#12263f"/>
        <path id="Trazado_117153" data-name="Trazado 117153" d="M241.629,1028.939a10.823,10.823,0,0,1-2.346-.047c-.423-.1-.738-.665-1.216-1.13C240.678,1027.186,241.321,1027.416,241.629,1028.939Z" transform="translate(-184.513 -968.175)" fill="#12263f"/>
        <path id="Trazado_117154" data-name="Trazado 117154" d="M241.016,1027.61c3.349-.186,2.839-.26,3.288,1.215C240.976,1029.015,241.458,1029.085,241.016,1027.61Z" transform="translate(-182.328 -968.146)" fill="#12263f"/>
        <path id="Trazado_117155" data-name="Trazado 117155" d="M212.5,1030.2c.486-1.482.949-1.639,3.333-1.207C215.408,1030.463,215.408,1030.463,212.5,1030.2Z" transform="translate(-203.474 -967.202)" fill="#12263f"/>
        <path id="Trazado_117156" data-name="Trazado 117156" d="M236.549,1030.184a10.456,10.456,0,0,1,2.327.05c.4.093.672.692,1,1.063l-.214.261a11.6,11.6,0,0,1-2.339-.045c-.387-.082-.674-.639-1-.98Z" transform="translate(-185.809 -966.195)" fill="#12263f"/>
        <path id="Trazado_117157" data-name="Trazado 117157" d="M233.689,1031.507l-.287-1.1c1.956-.618,2.943-.292,3.206,1.1Z" transform="translate(-187.973 -966.219)" fill="#12263f"/>
        <path id="Trazado_117158" data-name="Trazado 117158" d="M218.24,1030.349c-.477,1.416-.754,1.507-3.283,1.142C215.237,1030.061,215.8,1029.859,218.24,1030.349Z" transform="translate(-201.649 -966.22)" fill="#12263f"/>
        <path id="Trazado_117159" data-name="Trazado 117159" d="M227.287,1028.881l-.167,1.257h-2.835v-1.257Z" transform="translate(-194.733 -967.131)" fill="#12263f"/>
        <path id="Trazado_117160" data-name="Trazado 117160" d="M224.359,1028.791l.106-1.238h2.985l-.148,1.238Z" transform="translate(-194.678 -968.115)" fill="#12263f"/>
        <path id="Trazado_117161" data-name="Trazado 117161" d="M236.614,1030.175c-.578.04-.78.065-.982.066-.719.005-1.437,0-2.238,0l-.38-1.386a11.443,11.443,0,0,1,2.471.051C235.873,1029,236.138,1029.615,236.614,1030.175Z" transform="translate(-188.261 -967.18)" fill="#12263f"/>
        <path id="Trazado_117162" data-name="Trazado 117162" d="M221.882,1027.534c-.371,1.531.265,1.484-3.2,1.315-.038-.963.308-1.463,1.371-1.327A15.055,15.055,0,0,0,221.882,1027.534Z" transform="translate(-198.887 -968.155)" fill="#12263f"/>
        <path id="Trazado_117163" data-name="Trazado 117163" d="M241.959,1030.215c-2.872.261-2.872.261-3.192-1.142C240.756,1028.444,241.738,1028.8,241.959,1030.215Z" transform="translate(-183.995 -967.211)" fill="#12263f"/>
        <path id="Trazado_117164" data-name="Trazado 117164" d="M244.966,1030.18c-3.328.192-2.879.26-3.3-1.2C244.238,1028.581,244.546,1028.692,244.966,1030.18Z" transform="translate(-181.847 -967.203)" fill="#12263f"/>
        <path id="Trazado_117165" data-name="Trazado 117165" d="M224.7,1027.532c.031,1.144-.441,1.539-1.451,1.4a12.968,12.968,0,0,0-1.691-.012c0-.909.153-1.531,1.242-1.4A16.771,16.771,0,0,0,224.7,1027.532Z" transform="translate(-196.756 -968.153)" fill="#12263f"/>
        <path id="Trazado_117166" data-name="Trazado 117166" d="M211.853,1031.523c.467-1.489.831-1.616,3.291-1.214C214.838,1031.738,214.81,1031.748,211.853,1031.523Z" transform="translate(-203.95 -966.217)" fill="#12263f"/>
        <path id="Trazado_117167" data-name="Trazado 117167" d="M221.2,1030.241c-.037-1.094.354-1.532,1.353-1.4a13.8,13.8,0,0,0,1.764.014c.064,1.047-.28,1.538-1.339,1.4A14.325,14.325,0,0,0,221.2,1030.241Z" transform="translate(-197.023 -967.178)" fill="#12263f"/>
        <path id="Trazado_117168" data-name="Trazado 117168" d="M217.819,1031.558c-.044-1.1.411-1.513,1.424-1.391a14.973,14.973,0,0,0,1.726.01c0,1.028-.308,1.531-1.329,1.4A13.819,13.819,0,0,0,217.819,1031.558Z" transform="translate(-199.529 -966.192)" fill="#12263f"/>
        <path id="Trazado_117169" data-name="Trazado 117169" d="M215.966,1028.921c.028-1.083.46-1.529,1.468-1.4a14.305,14.305,0,0,0,1.754.012c-.04,1-.371,1.541-1.428,1.4A14.243,14.243,0,0,0,215.966,1028.921Z" transform="translate(-200.901 -968.155)" fill="#12263f"/>
        <path id="Trazado_117170" data-name="Trazado 117170" d="M213.138,1028.945c.456-1.578.738-1.679,3.377-1.28-.181.846-.5,1.437-1.545,1.294A13.939,13.939,0,0,0,213.138,1028.945Z" transform="translate(-202.998 -968.178)" fill="#12263f"/>
        <path id="Trazado_117171" data-name="Trazado 117171" d="M218.217,1030.23c.348-1.51-.266-1.489,3.2-1.318.016.94-.291,1.477-1.369,1.332A14.452,14.452,0,0,0,218.217,1030.23Z" transform="translate(-199.232 -967.166)" fill="#12263f"/>
        <path id="Trazado_117172" data-name="Trazado 117172" d="M215.444,1030.23c.373-1.524-.115-1.482,3.255-1.32-.016,1.028-.495,1.463-1.538,1.332A14.72,14.72,0,0,0,215.444,1030.23Z" transform="translate(-201.288 -967.166)" fill="#12263f"/>
        <path id="Trazado_117173" data-name="Trazado 117173" d="M239.245,1030.316c2.666-.415,3.021-.279,3.22,1.186C239.834,1031.836,239.654,1031.773,239.245,1030.316Z" transform="translate(-183.641 -966.218)" fill="#12263f"/>
        <path id="Trazado_117174" data-name="Trazado 117174" d="M245.583,1031.479c-2.407.413-2.832.272-3.284-1.1C244.319,1029.8,245.252,1030.112,245.583,1031.479Z" transform="translate(-181.376 -966.225)" fill="#12263f"/>
        <path id="Trazado_117175" data-name="Trazado 117175" d="M240.361,1032.855a12.118,12.118,0,0,1,2.426.049c.376.08.643.677.96,1.042l-.171.268a11.684,11.684,0,0,1-2.424-.049c-.381-.083-.651-.691-.972-1.062Z" transform="translate(-182.948 -964.212)" fill="#12263f"/>
        <path id="Trazado_117176" data-name="Trazado 117176" d="M239.207,1030.267a15.116,15.116,0,0,0-1.806.014c-.965.122-1.4-.268-1.384-1.214C237.933,1028.467,238.908,1028.792,239.207,1030.267Z" transform="translate(-186.034 -967.204)" fill="#12263f"/>
        <path id="Trazado_117177" data-name="Trazado 117177" d="M224.038,1030.177c-.341,1.561-.6,1.653-3.19,1.291-.068-1,.359-1.425,1.381-1.3A16.271,16.271,0,0,0,224.038,1030.177Z" transform="translate(-197.286 -966.192)" fill="#12263f"/>
        <path id="Trazado_117178" data-name="Trazado 117178" d="M246.933,1034.167c-2.748.3-2.826.273-3.338-1.113C245.54,1032.484,246.5,1032.786,246.933,1034.167Z" transform="translate(-180.416 -964.238)" fill="#12263f"/>
        <path id="Trazado_117179" data-name="Trazado 117179" d="M217.2,1032.851c-.4,1.534-.742,1.653-3.255,1.261.014-.967.448-1.4,1.451-1.273A15.852,15.852,0,0,0,217.2,1032.851Z" transform="translate(-202.402 -964.211)" fill="#12263f"/>
        <path id="Trazado_117180" data-name="Trazado 117180" d="M213.84,1033c-.364,1.381-1,1.6-3.27,1.111C210.983,1032.722,211.47,1032.556,213.84,1033Z" transform="translate(-204.902 -964.239)" fill="#12263f"/>
        <path id="Trazado_117181" data-name="Trazado 117181" d="M224.159,1030.2h2.992l-.158,1.266h-2.833Z" transform="translate(-194.826 -966.149)" fill="#12263f"/>
        <path id="Trazado_117182" data-name="Trazado 117182" d="M230.453,1032.783l-.136-1.257a14.741,14.741,0,0,1,2.5.047c.3.052.5.636.918,1.21Z" transform="translate(-190.26 -965.192)" fill="#12263f"/>
        <path id="Trazado_117183" data-name="Trazado 117183" d="M227.209,1031.592a3.689,3.689,0,0,1,.509-.077c.747-.009,1.5,0,2.321,0v1.271a4.065,4.065,0,0,1-.5.064c-.747.007-1.5,0-2.328,0Z" transform="translate(-192.565 -965.181)" fill="#12263f"/>
        <path id="Trazado_117184" data-name="Trazado 117184" d="M214.433,1032.855c.315-1.449-.111-1.465,3.218-1.252,0,.918-.367,1.372-1.357,1.264A17.5,17.5,0,0,0,214.433,1032.855Z" transform="translate(-202.037 -965.185)" fill="#12263f"/>
        <path id="Trazado_117185" data-name="Trazado 117185" d="M240,1032.864a17,17,0,0,0-1.835.012c-.949.1-1.317-.324-1.283-1.348a12.848,12.848,0,0,1,2.417.047c.354.07.6.653.9,1Z" transform="translate(-185.394 -965.194)" fill="#12263f"/>
        <path id="Trazado_117186" data-name="Trazado 117186" d="M239.761,1031.621c2.833-.3,2.927-.266,3.227,1.125C240.778,1033.237,240.109,1033.012,239.761,1031.621Z" transform="translate(-183.258 -965.212)" fill="#12263f"/>
        <path id="Trazado_117187" data-name="Trazado 117187" d="M220.463,1032.89c.263-1.479.806-1.661,3.155-1.224.056.958-.369,1.353-1.343,1.236A15.985,15.985,0,0,0,220.463,1032.89Z" transform="translate(-197.567 -965.22)" fill="#12263f"/>
        <path id="Trazado_117188" data-name="Trazado 117188" d="M217.376,1032.887c.249-1.5.576-1.62,3.166-1.243.016.912-.341,1.374-1.336,1.255A16.026,16.026,0,0,0,217.376,1032.887Z" transform="translate(-199.855 -965.217)" fill="#12263f"/>
        <path id="Trazado_117189" data-name="Trazado 117189" d="M237.03,1032.881a11.9,11.9,0,0,1-2.342-.045c-.371-.075-.648-.625-1.062-1.061C236.04,1031.151,236.868,1031.44,237.03,1032.881Z" transform="translate(-187.808 -965.215)" fill="#12263f"/>
        <path id="Trazado_117190" data-name="Trazado 117190" d="M242.947,1031.622c2.767-.3,2.877-.263,3.312,1.128C244.016,1033.217,243.382,1033.011,242.947,1031.622Z" transform="translate(-180.896 -965.211)" fill="#12263f"/>
        <path id="Trazado_117191" data-name="Trazado 117191" d="M211.224,1032.788c.374-1.4.771-1.536,3.279-1.137C214.13,1033.041,213.713,1033.185,211.224,1032.788Z" transform="translate(-204.417 -965.221)" fill="#12263f"/>
        <path id="Trazado_117192" data-name="Trazado 117192" d="M227.016,1031.548l-.1,1.208h-2.922l.091-1.208Z" transform="translate(-194.951 -965.153)" fill="#12263f"/>
      </g>
    </g>
    <g id="xAChEN.tif" transform="translate(482.149 1111.873)">
      <g id="Grupo_54391" data-name="Grupo 54391">
        <path id="Trazado_117193" data-name="Trazado 117193" d="M360.98,1064.15h-9.74c-.679-.1-1.358-.209-2.041-.293-5.968-.737-11.979-1.22-17.893-2.266-7.567-1.335-14.846-3.692-21.27-8.1-4.747-3.258-7.708-7.426-7.507-13.58.242-7.458-.08-14.936.16-22.4a12.373,12.373,0,0,1,2.027-6.107,21.137,21.137,0,0,1,5.141-5.078c4.481-3.309,9.66-5.24,14.987-6.7a116.68,116.68,0,0,1,47.05-2.647c8.131,1.113,16.053,3.021,23.435,6.736,5.186,2.61,9.656,5.964,11.563,11.8v28.833c-1.024,2.363-2.022,4.7-3.995,6.536a33.373,33.373,0,0,1-9.289,5.956,83.843,83.843,0,0,1-23.9,6.217C366.8,1063.432,363.888,1063.786,360.98,1064.15Zm-54.556-37.887-.609.176c0,4.676.075,9.353-.026,14.027a10.66,10.66,0,0,0,3.708,8.444c3.746,3.438,8.308,5.474,13.04,7.056,11.093,3.708,22.6,4.977,34.214,4.84a102.406,102.406,0,0,0,25.4-3.415c5.937-1.6,11.746-3.584,16.754-7.332,3.157-2.361,4.977-5.339,4.758-9.468-.181-3.406-.026-6.826-.063-10.241-.014-1.336-.143-2.67-.244-4.43a38.178,38.178,0,0,1-14.186,8.138c-19.741,6.531-39.787,6.745-59.975,2.569a52.262,52.262,0,0,1-19.67-7.941C308.447,1027.937,307.455,1027.074,306.424,1026.263Zm83.978-14.668c-.951-.2-1.492-.273-2.013-.423a46.252,46.252,0,0,0-4.832-1.391,7.348,7.348,0,0,0-3.643.164c-4.338,1.614-8.671,3.279-12.862,5.229a8.127,8.127,0,0,1-7.706.08c-1.546-.791-3.234-1.3-4.859-1.94l.028-.47,14.8-6.384-9.038-2.685.1-.775h23.175l.061-.646c-5.526-.9-11.029-2.015-16.586-2.661a112.448,112.448,0,0,0-23.752-.1,85.694,85.694,0,0,0-24.448,5.559,29.547,29.547,0,0,0-9.74,5.916c-4.3,4.19-4.336,8.662.071,12.773a25.132,25.132,0,0,0,5.207,3.716c10.165,5.472,21.266,7.417,32.61,7.948a181.3,181.3,0,0,0,19.767-.326,76.327,76.327,0,0,0,23.461-5.231c4.11-1.63,8.03-3.643,11.048-7.011,2.936-3.274,3.229-6.955.592-10.231-4.059-5.04-9.855-7.183-16.2-9.4Zm-2.489-1.874c-.968-1.661-1.806-2.976-2.515-4.359a1.949,1.949,0,0,0-2.072-1.146c-3.354.087-6.712.085-10.067.108-1.75.012-3.5,0-5.249,0l-.042.376,4.986,1.548-15.8,6.786a40.936,40.936,0,0,1,3.861,1.5,4.842,4.842,0,0,0,4.434-.08q7.343-3.1,14.776-5.98a5.673,5.673,0,0,1,2.947-.125C384.672,1008.634,386.124,1009.188,387.913,1009.721Z" transform="translate(-302.519 -995.751)" fill="#12263f"/>
        <path id="Trazado_117194" data-name="Trazado 117194" d="M364.653,1006.117c-1.788-.533-3.241-1.087-4.745-1.37a5.673,5.673,0,0,0-2.947.125q-7.434,2.868-14.776,5.98a4.842,4.842,0,0,1-4.434.08,40.936,40.936,0,0,0-3.861-1.5l15.8-6.786-4.986-1.548.042-.376c1.748,0,3.5.01,5.249,0,3.356-.023,6.713-.021,10.067-.108a1.949,1.949,0,0,1,2.072,1.146C362.847,1003.141,363.684,1004.456,364.653,1006.117Z" transform="translate(-279.258 -992.147)" fill="#37a3a5"/>
        <path id="Trazado_117195" data-name="Trazado 117195" d="M347.329,1011.329l-14.7,6.809,6.565,2.567-.089.475c-.592.028-1.182.085-1.773.077-6.539-.085-13.078-.167-19.617-.3a2.292,2.292,0,0,1-1.661-.582,63.51,63.51,0,0,1-4.763-8.422,16.91,16.91,0,0,1,2.985.932c4.172,2.187,8.1,1.964,12.265-.32a86.689,86.689,0,0,1,10.689-4.531,4.657,4.657,0,0,1,2.938-.036c2.428.824,4.772,1.891,7.147,2.861Zm-2.553-.169c-1.691-.7-3.039-1.17-4.312-1.8a3.757,3.757,0,0,0-3.434.01q-7.56,3.291-15.2,6.4a4.4,4.4,0,0,1-2.607.084c-1.8-.479-3.54-1.184-5.773-1.959,1.245,2.044,2.135,3.666,3.2,5.158a2.442,2.442,0,0,0,1.726.737c3.07.089,6.144.071,9.216.083,1.642.007,3.284,0,4.927,0l.059-.326-3.169-1.292Z" transform="translate(-296.013 -986.832)" fill="#12263f"/>
        <path id="Trazado_117196" data-name="Trazado 117196" d="M332.127,1016.554c1.245-2.656,2.459-5.327,3.774-7.948a1.7,1.7,0,0,1,1.315-.571c7.65.014,15.3.071,22.949.131.266,0,.531.118.9.62l-8.737,2.814,14.7,6.372.07.493a41.48,41.48,0,0,0-4.491,1.877c-2.408,1.339-4.575,1.115-7.015-.078-3.948-1.928-8.033-3.587-12.12-5.21a5.993,5.993,0,0,0-3.307-.2c-2.577.566-5.1,1.385-7.641,2.1Zm16.608-5.144,4.949-1.632-.049-.6c-5.35,0-10.7-.01-16.051.026a1.262,1.262,0,0,0-.928.587c-.838,1.682-1.6,3.4-2.532,5.425,2.307-.662,4.27-1.33,6.281-1.752a5.332,5.332,0,0,1,2.94.2c4.867,1.994,9.677,4.124,14.518,6.182a2.688,2.688,0,0,0,1.618.329c1.56-.507,3.061-1.189,5-1.973Z" transform="translate(-280.566 -986.643)" fill="#12263f"/>
        <path id="Trazado_117197" data-name="Trazado 117197" d="M347.39,1004.415c-1.252,2.462-2.475,4.94-3.789,7.368a1.682,1.682,0,0,1-1.257.7c-7,.005-14.01-.045-21.016-.1-.145,0-.287-.148-.845-.456l6.137-2.4-14.236-6.21-.017-.571c2.736-.966,5.454-1.983,8.221-2.849.5-.157,1.216.263,1.8.5,4.618,1.843,9.259,3.633,13.827,5.6a5.985,5.985,0,0,0,4.965.087c1.9-.78,3.878-1.39,5.822-2.074Zm-17.507,5.177-2.974,1.236c5.021.38,9.971.387,14.921.364a1.162,1.162,0,0,0,.881-.4c.817-1.459,1.56-2.959,2.543-4.855-1.984.677-3.49,1.083-4.9,1.7a4.022,4.022,0,0,1-3.446-.07c-4.529-1.888-9.209-3.455-13.613-5.594-3.133-1.52-5.311.209-8.286,1.149Z" transform="translate(-295.217 -992.7)" fill="#12263f"/>
        <path id="Trazado_117198" data-name="Trazado 117198" d="M343.856,1010.662l-15.361,7.1,3.169,1.292-.059.326c-1.642,0-3.284.005-4.927,0-3.072-.012-6.146.005-9.216-.083a2.442,2.442,0,0,1-1.726-.737c-1.067-1.492-1.957-3.114-3.2-5.158,2.233.775,3.972,1.48,5.773,1.959a4.4,4.4,0,0,0,2.607-.084q7.641-3.1,15.2-6.4a3.757,3.757,0,0,1,3.434-.01C340.817,1009.492,342.165,1009.965,343.856,1010.662Z" transform="translate(-295.093 -986.333)" fill="#37a3a5"/>
        <path id="Trazado_117199" data-name="Trazado 117199" d="M347.885,1010.922l15.748,6.793c-1.94.784-3.441,1.466-5,1.973a2.688,2.688,0,0,1-1.618-.329c-4.841-2.058-9.651-4.188-14.518-6.182a5.332,5.332,0,0,0-2.94-.2c-2.011.421-3.974,1.09-6.281,1.752.933-2.023,1.694-3.742,2.532-5.425a1.262,1.262,0,0,1,.928-.587c5.35-.036,10.7-.026,16.051-.026l.049.6Z" transform="translate(-279.715 -986.155)" fill="#37a3a5"/>
        <path id="Trazado_117200" data-name="Trazado 117200" d="M328.758,1008.946l-14.875-6.459c2.974-.94,5.153-2.67,8.286-1.149,4.4,2.139,9.083,3.706,13.613,5.594a4.022,4.022,0,0,0,3.446.07c1.411-.622,2.917-1.027,4.9-1.7-.982,1.9-1.726,3.4-2.543,4.855a1.162,1.162,0,0,1-.881.4c-4.949.023-9.9.016-14.921-.364Z" transform="translate(-294.092 -992.054)" fill="#37a3a5"/>
      </g>
    </g>
    <path id="Trazado_117201" data-name="Trazado 117201" d="M374,1009.557c.122.005.244.017.364.017H410.13V1003.3l17.705,11.366-17.677,11.351v-6.229c-.145-.01-.251-.026-.355-.026-4.9,0-30.688,0-35.585,0-.071,0-.145.01-.218.017Z" transform="translate(232.629 121.722)" fill="#37a3a5"/>
    <path id="Trazado_117202" data-name="Trazado 117202" d="M129.871,1038.835c.005-.122.017-.244.017-.364v-35.766h-6.274L134.982,985l11.351,17.677H140.1c-.01.145-.026.251-.026.355,0,4.9,0,30.688,0,35.585,0,.071.01.145.017.218Z" transform="translate(46.983 108.152)" fill="#37a3a5"/>
    <g id="RNGu9o" transform="translate(132.407 890.729)">
      <g id="Grupo_54379" data-name="Grupo 54379">
        <path id="Trazado_117001" data-name="Trazado 117001" d="M437.649,704.908H396.474c-1.137,0-1.657-.5-1.657-1.631q0-21.02.007-42.044c0-2.108-.047-4.222.124-6.319a6.793,6.793,0,0,1,3.488-5.313,7.13,7.13,0,0,1,3.849-1.047q35.383,0,70.762.011a7.018,7.018,0,0,1,6.788,4.345,7.425,7.425,0,0,1,.668,2.99q.059,23.715.025,47.429c0,1.085-.526,1.585-1.633,1.585H437.649Zm40.155-2.776v-.952q0-19.608,0-39.214c0-1.926.074-3.852.04-5.779a4.712,4.712,0,0,0-1.193-3.346,5.042,5.042,0,0,0-3.743-1.545q-35.181.03-70.36.014a8.068,8.068,0,0,0-.807.016,4.55,4.55,0,0,0-4.16,4.156c-.128,2.251-.036,4.515-.036,6.774v39.875Z" transform="translate(-388.298 -648.549)" fill="#12263f"/>
        <path id="Trazado_117002" data-name="Trazado 117002" d="M450.193,684.539c.331-2.005,1.33-2.859,3.232-2.859q10.953,0,21.9,0h12.786c1.45,0,1.8.4,1.777,1.845-.031,1.68-.052,3.364.023,5.042a4.963,4.963,0,0,1-4.945,4.923c-.338.007-.674,0-1.012,0H396.616c-2.744,0-4.792-1.491-5.3-3.948a12.36,12.36,0,0,1-.131-2.409c-.005-1.3.029-2.6.052-3.9.02-1.134.428-1.551,1.554-1.547,3.053.011,6.107.049,9.16.047,8.154-.009,16.308-.041,24.462-.032a5.131,5.131,0,0,1,2.005.4,2.3,2.3,0,0,1,1.344,1.966c.041.388.217.492.559.491q2.423-.014,4.846-.016,3.4,0,6.794.007Zm-23.177-.136H399.87q-2.552,0-5.1,0c-.866,0-.884,0-.891.891-.007.92.108,1.847.023,2.756a2.5,2.5,0,0,0,2.688,2.7q43.908-.051,87.818-.025c.2,0,.4,0,.606-.005a2.063,2.063,0,0,0,2.111-1.728c.131-1.5.032-3.015.032-4.648-1.515,0-2.99-.006-4.463,0-2.934.014-5.87.048-8.806.054q-8.9.014-17.792,0c-.853,0-1.709.009-2.562,0-.329-.005-.514.047-.589.446a2.69,2.69,0,0,1-2.862,2.393q-10.042.016-20.083,0a2.738,2.738,0,0,1-2.911-2.51C427.068,684.646,427.048,684.559,427.016,684.4Z" transform="translate(-391.189 -622.151)" fill="#12263f"/>
        <path id="Trazado_117003" data-name="Trazado 117003" d="M434.927,693.884q-17.589,0-35.18,0c-1.276,0-1.788-.485-1.786-1.719q0-16.948.009-33.893c0-1.526.023-3.053.029-4.578a1.446,1.446,0,0,1,1.337-1.565,4.5,4.5,0,0,1,.6-.022q11.794,0,23.589,0c2.87,0,5.737.05,8.607.05,3.161,0,6.323-.048,9.484-.05q14.282-.008,28.56,0a1.5,1.5,0,0,1,1.653,1.664q0,19.2,0,38.4c0,1.258-.494,1.711-1.86,1.711Q452.45,693.885,434.927,693.884Zm34.136-39.045H400.746v36.236h68.317Z" transform="translate(-385.792 -645.717)" fill="#12263f"/>
        <path id="Trazado_117004" data-name="Trazado 117004" d="M442.405,664.256a5.194,5.194,0,0,1-.9,1.055,1.356,1.356,0,0,1-1.509-.142,36.9,36.9,0,0,0-4.986-2.758c-8.127-3.141-15.747-2.048-22.8,3.056-.217.158-.413.345-.634.5a1.36,1.36,0,0,1-1.924-.225,1.3,1.3,0,0,1,.246-1.912,33.4,33.4,0,0,1,4.548-2.975c9.361-4.523,18.39-3.878,27.012,1.982A1.846,1.846,0,0,1,442.405,664.256Z" transform="translate(-376.718 -641.108)" fill="#37a3a5"/>
        <path id="Trazado_117005" data-name="Trazado 117005" d="M437.524,666.209a5.023,5.023,0,0,1-.88,1.078,1.245,1.245,0,0,1-1.506-.133,16.648,16.648,0,0,0-5.466-2.693,17.551,17.551,0,0,0-15.905,3.116,2.352,2.352,0,0,1-1.272.453,1.147,1.147,0,0,1-1.1-.931,1.325,1.325,0,0,1,.492-1.495,18.958,18.958,0,0,1,5.82-3.321,20.11,20.11,0,0,1,18.633,2.359A2.225,2.225,0,0,1,437.524,666.209Z" transform="translate(-375.143 -638.625)" fill="#37a3a5"/>
        <path id="Trazado_117006" data-name="Trazado 117006" d="M422.611,663.881a15.641,15.641,0,0,1,9.228,2.629c.147.1.293.2.433.32a1.362,1.362,0,1,1-1.614,2.194,12.465,12.465,0,0,0-15.152.332,1.433,1.433,0,0,1-1.8.135,1.311,1.311,0,0,1-.462-1.558,2.156,2.156,0,0,1,.624-.765A14.541,14.541,0,0,1,422.611,663.881Z" transform="translate(-373.693 -636.332)" fill="#37a3a5"/>
        <path id="Trazado_117007" data-name="Trazado 117007" d="M421.909,666.647a9.934,9.934,0,0,1,5.863,1.861,1.381,1.381,0,1,1-1.542,2.271,7.4,7.4,0,0,0-8.961.2,1.39,1.39,0,0,1-2.083-.124,1.434,1.434,0,0,1,.467-2.093A10.11,10.11,0,0,1,421.909,666.647Z" transform="translate(-372.292 -634.129)" fill="#37a3a5"/>
      </g>
    </g>
    <g id="RNGu9o-2" data-name="RNGu9o" transform="translate(312.193 836.934)">
      <g id="Grupo_54379-2" data-name="Grupo 54379">
        <path id="Trazado_117001-2" data-name="Trazado 117001" d="M437.649,704.908H396.474c-1.137,0-1.657-.5-1.657-1.631q0-21.02.007-42.044c0-2.108-.047-4.222.124-6.319a6.793,6.793,0,0,1,3.488-5.313,7.13,7.13,0,0,1,3.849-1.047q35.383,0,70.762.011a7.018,7.018,0,0,1,6.788,4.345,7.425,7.425,0,0,1,.668,2.99q.059,23.715.025,47.429c0,1.085-.526,1.585-1.633,1.585H437.649Zm40.155-2.776v-.952q0-19.608,0-39.214c0-1.926.074-3.852.04-5.779a4.712,4.712,0,0,0-1.193-3.346,5.042,5.042,0,0,0-3.743-1.545q-35.181.03-70.36.014a8.068,8.068,0,0,0-.807.016,4.55,4.55,0,0,0-4.16,4.156c-.128,2.251-.036,4.515-.036,6.774v39.875Z" transform="translate(-388.298 -648.549)" fill="#12263f"/>
        <path id="Trazado_117002-2" data-name="Trazado 117002" d="M450.193,684.539c.331-2.005,1.33-2.859,3.232-2.859q10.953,0,21.9,0h12.786c1.45,0,1.8.4,1.777,1.845-.031,1.68-.052,3.364.023,5.042a4.963,4.963,0,0,1-4.945,4.923c-.338.007-.674,0-1.012,0H396.616c-2.744,0-4.792-1.491-5.3-3.948a12.36,12.36,0,0,1-.131-2.409c-.005-1.3.029-2.6.052-3.9.02-1.134.428-1.551,1.554-1.547,3.053.011,6.107.049,9.16.047,8.154-.009,16.308-.041,24.462-.032a5.131,5.131,0,0,1,2.005.4,2.3,2.3,0,0,1,1.344,1.966c.041.388.217.492.559.491q2.423-.014,4.846-.016,3.4,0,6.794.007Zm-23.177-.136H399.87q-2.552,0-5.1,0c-.866,0-.884,0-.891.891-.007.92.108,1.847.023,2.756a2.5,2.5,0,0,0,2.688,2.7q43.908-.051,87.818-.025c.2,0,.4,0,.606-.005a2.063,2.063,0,0,0,2.111-1.728c.131-1.5.032-3.015.032-4.648-1.515,0-2.99-.006-4.463,0-2.934.014-5.87.048-8.806.054q-8.9.014-17.792,0c-.853,0-1.709.009-2.562,0-.329-.005-.514.047-.589.446a2.69,2.69,0,0,1-2.862,2.393q-10.042.016-20.083,0a2.738,2.738,0,0,1-2.911-2.51C427.068,684.646,427.048,684.559,427.016,684.4Z" transform="translate(-391.189 -622.151)" fill="#12263f"/>
        <path id="Trazado_117003-2" data-name="Trazado 117003" d="M434.927,693.884q-17.589,0-35.18,0c-1.276,0-1.788-.485-1.786-1.719q0-16.948.009-33.893c0-1.526.023-3.053.029-4.578a1.446,1.446,0,0,1,1.337-1.565,4.5,4.5,0,0,1,.6-.022q11.794,0,23.589,0c2.87,0,5.737.05,8.607.05,3.161,0,6.323-.048,9.484-.05q14.282-.008,28.56,0a1.5,1.5,0,0,1,1.653,1.664q0,19.2,0,38.4c0,1.258-.494,1.711-1.86,1.711Q452.45,693.885,434.927,693.884Zm34.136-39.045H400.746v36.236h68.317Z" transform="translate(-385.792 -645.717)" fill="#12263f"/>
        <path id="Trazado_117004-2" data-name="Trazado 117004" d="M442.405,664.256a5.194,5.194,0,0,1-.9,1.055,1.356,1.356,0,0,1-1.509-.142,36.9,36.9,0,0,0-4.986-2.758c-8.127-3.141-15.747-2.048-22.8,3.056-.217.158-.413.345-.634.5a1.36,1.36,0,0,1-1.924-.225,1.3,1.3,0,0,1,.246-1.912,33.4,33.4,0,0,1,4.548-2.975c9.361-4.523,18.39-3.878,27.012,1.982A1.846,1.846,0,0,1,442.405,664.256Z" transform="translate(-376.718 -641.108)" fill="#37a3a5"/>
        <path id="Trazado_117005-2" data-name="Trazado 117005" d="M437.524,666.209a5.023,5.023,0,0,1-.88,1.078,1.245,1.245,0,0,1-1.506-.133,16.648,16.648,0,0,0-5.466-2.693,17.551,17.551,0,0,0-15.905,3.116,2.352,2.352,0,0,1-1.272.453,1.147,1.147,0,0,1-1.1-.931,1.325,1.325,0,0,1,.492-1.495,18.958,18.958,0,0,1,5.82-3.321,20.11,20.11,0,0,1,18.633,2.359A2.225,2.225,0,0,1,437.524,666.209Z" transform="translate(-375.143 -638.625)" fill="#37a3a5"/>
        <path id="Trazado_117006-2" data-name="Trazado 117006" d="M422.611,663.881a15.641,15.641,0,0,1,9.228,2.629c.147.1.293.2.433.32a1.362,1.362,0,1,1-1.614,2.194,12.465,12.465,0,0,0-15.152.332,1.433,1.433,0,0,1-1.8.135,1.311,1.311,0,0,1-.462-1.558,2.156,2.156,0,0,1,.624-.765A14.541,14.541,0,0,1,422.611,663.881Z" transform="translate(-373.693 -636.332)" fill="#37a3a5"/>
        <path id="Trazado_117007-2" data-name="Trazado 117007" d="M421.909,666.647a9.934,9.934,0,0,1,5.863,1.861,1.381,1.381,0,1,1-1.542,2.271,7.4,7.4,0,0,0-8.961.2,1.39,1.39,0,0,1-2.083-.124,1.434,1.434,0,0,1,.467-2.093A10.11,10.11,0,0,1,421.909,666.647Z" transform="translate(-372.292 -634.129)" fill="#37a3a5"/>
      </g>
    </g>
    <g id="RNGu9o-3" data-name="RNGu9o" transform="translate(491.225 890.729)">
      <g id="Grupo_54379-3" data-name="Grupo 54379">
        <path id="Trazado_117001-3" data-name="Trazado 117001" d="M437.649,704.908H396.474c-1.137,0-1.657-.5-1.657-1.631q0-21.02.007-42.044c0-2.108-.047-4.222.124-6.319a6.793,6.793,0,0,1,3.488-5.313,7.13,7.13,0,0,1,3.849-1.047q35.383,0,70.762.011a7.018,7.018,0,0,1,6.788,4.345,7.425,7.425,0,0,1,.668,2.99q.059,23.715.025,47.429c0,1.085-.526,1.585-1.633,1.585H437.649Zm40.155-2.776v-.952q0-19.608,0-39.214c0-1.926.074-3.852.04-5.779a4.712,4.712,0,0,0-1.193-3.346,5.042,5.042,0,0,0-3.743-1.545q-35.181.03-70.36.014a8.068,8.068,0,0,0-.807.016,4.55,4.55,0,0,0-4.16,4.156c-.128,2.251-.036,4.515-.036,6.774v39.875Z" transform="translate(-388.298 -648.549)" fill="#12263f"/>
        <path id="Trazado_117002-3" data-name="Trazado 117002" d="M450.193,684.539c.331-2.005,1.33-2.859,3.232-2.859q10.953,0,21.9,0h12.786c1.45,0,1.8.4,1.777,1.845-.031,1.68-.052,3.364.023,5.042a4.963,4.963,0,0,1-4.945,4.923c-.338.007-.674,0-1.012,0H396.616c-2.744,0-4.792-1.491-5.3-3.948a12.36,12.36,0,0,1-.131-2.409c-.005-1.3.029-2.6.052-3.9.02-1.134.428-1.551,1.554-1.547,3.053.011,6.107.049,9.16.047,8.154-.009,16.308-.041,24.462-.032a5.131,5.131,0,0,1,2.005.4,2.3,2.3,0,0,1,1.344,1.966c.041.388.217.492.559.491q2.423-.014,4.846-.016,3.4,0,6.794.007Zm-23.177-.136H399.87q-2.552,0-5.1,0c-.866,0-.884,0-.891.891-.007.92.108,1.847.023,2.756a2.5,2.5,0,0,0,2.688,2.7q43.908-.051,87.818-.025c.2,0,.4,0,.606-.005a2.063,2.063,0,0,0,2.111-1.728c.131-1.5.032-3.015.032-4.648-1.515,0-2.99-.006-4.463,0-2.934.014-5.87.048-8.806.054q-8.9.014-17.792,0c-.853,0-1.709.009-2.562,0-.329-.005-.514.047-.589.446a2.69,2.69,0,0,1-2.862,2.393q-10.042.016-20.083,0a2.738,2.738,0,0,1-2.911-2.51C427.068,684.646,427.048,684.559,427.016,684.4Z" transform="translate(-391.189 -622.151)" fill="#12263f"/>
        <path id="Trazado_117003-3" data-name="Trazado 117003" d="M434.927,693.884q-17.589,0-35.18,0c-1.276,0-1.788-.485-1.786-1.719q0-16.948.009-33.893c0-1.526.023-3.053.029-4.578a1.446,1.446,0,0,1,1.337-1.565,4.5,4.5,0,0,1,.6-.022q11.794,0,23.589,0c2.87,0,5.737.05,8.607.05,3.161,0,6.323-.048,9.484-.05q14.282-.008,28.56,0a1.5,1.5,0,0,1,1.653,1.664q0,19.2,0,38.4c0,1.258-.494,1.711-1.86,1.711Q452.45,693.885,434.927,693.884Zm34.136-39.045H400.746v36.236h68.317Z" transform="translate(-385.792 -645.717)" fill="#12263f"/>
        <path id="Trazado_117004-3" data-name="Trazado 117004" d="M442.405,664.256a5.194,5.194,0,0,1-.9,1.055,1.356,1.356,0,0,1-1.509-.142,36.9,36.9,0,0,0-4.986-2.758c-8.127-3.141-15.747-2.048-22.8,3.056-.217.158-.413.345-.634.5a1.36,1.36,0,0,1-1.924-.225,1.3,1.3,0,0,1,.246-1.912,33.4,33.4,0,0,1,4.548-2.975c9.361-4.523,18.39-3.878,27.012,1.982A1.846,1.846,0,0,1,442.405,664.256Z" transform="translate(-376.718 -641.108)" fill="#37a3a5"/>
        <path id="Trazado_117005-3" data-name="Trazado 117005" d="M437.524,666.209a5.023,5.023,0,0,1-.88,1.078,1.245,1.245,0,0,1-1.506-.133,16.648,16.648,0,0,0-5.466-2.693,17.551,17.551,0,0,0-15.905,3.116,2.352,2.352,0,0,1-1.272.453,1.147,1.147,0,0,1-1.1-.931,1.325,1.325,0,0,1,.492-1.495,18.958,18.958,0,0,1,5.82-3.321,20.11,20.11,0,0,1,18.633,2.359A2.225,2.225,0,0,1,437.524,666.209Z" transform="translate(-375.143 -638.625)" fill="#37a3a5"/>
        <path id="Trazado_117006-3" data-name="Trazado 117006" d="M422.611,663.881a15.641,15.641,0,0,1,9.228,2.629c.147.1.293.2.433.32a1.362,1.362,0,1,1-1.614,2.194,12.465,12.465,0,0,0-15.152.332,1.433,1.433,0,0,1-1.8.135,1.311,1.311,0,0,1-.462-1.558,2.156,2.156,0,0,1,.624-.765A14.541,14.541,0,0,1,422.611,663.881Z" transform="translate(-373.693 -636.332)" fill="#37a3a5"/>
        <path id="Trazado_117007-3" data-name="Trazado 117007" d="M421.909,666.647a9.934,9.934,0,0,1,5.863,1.861,1.381,1.381,0,1,1-1.542,2.271,7.4,7.4,0,0,0-8.961.2,1.39,1.39,0,0,1-2.083-.124,1.434,1.434,0,0,1,.467-2.093A10.11,10.11,0,0,1,421.909,666.647Z" transform="translate(-372.292 -634.129)" fill="#37a3a5"/>
      </g>
    </g>
  </g>
</svg>
