<svg xmlns="http://www.w3.org/2000/svg" xmlns:xlink="http://www.w3.org/1999/xlink" width="604.737" height="354.424" viewBox="0 0 604.737 354.424">
  <defs>
    <linearGradient id="linear-gradient" x1="-4.347" y1="0.5" x2="-3.348" y2="0.5" gradientUnits="objectBoundingBox">
      <stop offset="0" stop-color="#fff"/>
      <stop offset="1" stop-color="#c7e0ea"/>
    </linearGradient>
    <linearGradient id="linear-gradient-2" x1="-9.664" y1="0.5" x2="-8.664" y2="0.5" xlink:href="#linear-gradient"/>
    <linearGradient id="linear-gradient-3" x1="-5.9" y1="0.5" x2="-4.9" y2="0.5" xlink:href="#linear-gradient"/>
    <linearGradient id="linear-gradient-4" x1="-5.797" y1="0.5" x2="-4.797" y2="0.5" xlink:href="#linear-gradient"/>
    <linearGradient id="linear-gradient-5" x1="-8.918" y1="0.5" x2="-7.918" y2="0.5" xlink:href="#linear-gradient"/>
    <linearGradient id="linear-gradient-6" x1="0" y1="0.5" x2="1" y2="0.5" xlink:href="#linear-gradient"/>
  </defs>
  <g id="Grupo_54397" data-name="Grupo 54397" transform="translate(-1072.985 -1199.937)">
    <g id="evztuS" transform="translate(0 -10)">
      <g id="Grupo_54395" data-name="Grupo 54395">
        <path id="Trazado_117203" data-name="Trazado 117203" d="M1534.512,1264.957l-36.644,36.667c.9.749,1.713,1.493,2.593,2.145a21.142,21.142,0,0,0,9.658,4,21.883,21.883,0,0,0,18.972-6.283c2.217-2.24,4.462-4.454,6.626-6.743a18.121,18.121,0,0,0,2.979-4.55,21.888,21.888,0,0,0-3.934-25.033C1534.717,1265.111,1534.66,1265.075,1534.512,1264.957Z" fill="#37a3a5"/>
        <path id="Trazado_117204" data-name="Trazado 117204" d="M1536.792,1294.812c-1.092,1.026-2.221,2.029-3.283,3.1-2.01,2.021-3.986,4.075-5.962,6.129a2.187,2.187,0,0,0-.479.8q-3.246,9.749-6.467,19.507c-.067.2-.129.409-.222.7h.544c1.007,0,2.013-.016,3.019.012a.588.588,0,0,0,.693-.512c1.632-5.507,3.323-11,4.906-16.519a6.324,6.324,0,0,1,2.054-3.263c1.164-.982,2.233-2.077,3.344-3.122.1-.091.2-.174.353-.309.117.317.225.589.317.866q3.725,11.2,7.438,22.414c.106.318.232.453.588.443.987-.027,1.975-.009,3.06-.009Z" fill="#001a2e"/>
        <path id="Trazado_117205" data-name="Trazado 117205" d="M1486.547,1273.251h2.127a17.131,17.131,0,0,1,5.155-12.364,17.337,17.337,0,0,1,12.362-5.183v-2.182a19.685,19.685,0,0,0-19.644,19.729Z" fill="url(#linear-gradient)"/>
        <path id="Trazado_117206" data-name="Trazado 117206" d="M1508.5,1289.493c.72-.733,1.392-1.405,2.041-2.1.063-.067.019-.279-.033-.4q-2.913-6.735-5.836-13.464c-.294-.677-.581-1.356-.884-2.028-.065-.145-.157-.333-.285-.386-1.152-.482-2.315-.938-3.608-1.455Z" fill="url(#linear-gradient-2)"/>
        <path id="Trazado_117207" data-name="Trazado 117207" d="M1502.239,1267.327c.446,1.125.859,2.1,1.219,3.1a1.465,1.465,0,0,0,.9.915q7.567,3.255,15.115,6.555a.563.563,0,0,0,.741-.139c.581-.6,1.19-1.172,1.867-1.834Z" fill="url(#linear-gradient-3)"/>
        <path id="Trazado_117208" data-name="Trazado 117208" d="M1506.493,1260.065V1258a15.133,15.133,0,0,0-9.843,3.547,15.434,15.434,0,0,0-5.709,11.982h2.088C1493.883,1265.424,1498.343,1260.949,1506.493,1260.065Z" fill="url(#linear-gradient-4)"/>
        <path id="Trazado_117209" data-name="Trazado 117209" d="M1495.428,1273.047c.684,0,1.3.023,1.916-.022.107-.007.267-.293.278-.458a8.24,8.24,0,0,1,1.707-4.6,8.339,8.339,0,0,1,6.236-3.316c.116-.009.232-.027.348-.042.014,0,.027-.017.07-.045v-2.1a10.609,10.609,0,0,0-10.555,10.584Z" fill="url(#linear-gradient-5)"/>
      </g>
    </g>
    <g id="Group_38308" data-name="Group 38308">
      <path id="Path_90321" data-name="Path 90321" d="M1116.854,1440.946l-5.278-3.046,5.278-3.045,5.274,3.045Z" fill="#dbdbdb"/>
      <path id="Path_90322" data-name="Path 90322" d="M1116.854,1440.943v2.73l-5.278-3.045V1437.9Z" fill="#cccccb"/>
      <path id="Path_90323" data-name="Path 90323" d="M1122.121,1437.9v2.731l-5.278,3.045v-2.73Z" fill="#b6b6b6"/>
      <g id="Group_38307" data-name="Group 38307">
        <path id="Path_90324" data-name="Path 90324" d="M1118.647,1376.127v2.211a10.811,10.811,0,0,0-4.7-9.958,9.756,9.756,0,0,0-8.61-.236,15.736,15.736,0,0,0-1.806.829c-.186.095-.374.2-.56.311l-8.552,4.934-.955.552h0l-.95-1.659,10.465-6.038a10.787,10.787,0,0,1,10.976-.909c.166.091.323.2.477.3h0A11.08,11.08,0,0,1,1118.647,1376.127Z" fill="#cccccb"/>
      </g>
      <path id="Path_90325" data-name="Path 90325" d="M1118.647,1378.333v59.9a1.17,1.17,0,0,1-.457.415,2.607,2.607,0,0,1-1.091.311v-59.551a10.814,10.814,0,0,0-4.7-9.959c-.086-.048-.173-.093-.262-.132h0a7.4,7.4,0,0,0-7.328.908l-10.462,6.043-.867-1.5,9.507-5.486a9.665,9.665,0,0,1,15.678,9.05Z" fill="#b6b6b6"/>
      <path id="Path_90326" data-name="Path 90326" d="M1117.1,1379.424v59.551a2.839,2.839,0,0,1-1.585-.311,1.072,1.072,0,0,1-.519-.572V1376.13a7.416,7.416,0,0,0-2.859-6.785,2.023,2.023,0,0,1,.262.133A10.788,10.788,0,0,1,1117.1,1379.424Z" fill="#cccccb"/>
      <path id="Path_90327" data-name="Path 90327" d="M1114.423,1366.462a13.87,13.87,0,0,0-9.088,1.659c-.6.262-1.207.544-1.8.83a83.2,83.2,0,0,0-9.129,5.245l-.958.539-.95-1.66,10.465-6.038a10.785,10.785,0,0,1,10.975-.908C1114.108,1366.258,1114.27,1366.363,1114.423,1366.462Z" fill="#dbdbdb"/>
      <path id="Path_90328" data-name="Path 90328" d="M1118.652,1438.237a1.164,1.164,0,0,1-.457.415,2.609,2.609,0,0,1-1.091.311,2.864,2.864,0,0,1-1.585-.311,1.058,1.058,0,0,1-.519-.572.619.619,0,0,1,0-.416,1.08,1.08,0,0,1,.523-.568,2.852,2.852,0,0,1,1.581-.311,2.579,2.579,0,0,1,1.091.311,1.164,1.164,0,0,1,.457.415A.653.653,0,0,1,1118.652,1438.237Z" fill="#cccccb"/>
      <path id="Path_90329" data-name="Path 90329" d="M1118.651,1438.245a1.165,1.165,0,0,1-.457.415,2.607,2.607,0,0,1-1.091.311v-2.162a2.6,2.6,0,0,1,1.091.311,1.167,1.167,0,0,1,.457.416A.651.651,0,0,1,1118.651,1438.245Z" fill="#b6b6b6"/>
      <path id="Path_90330" data-name="Path 90330" d="M1109.717,1371.225l-11.4,6.581a6.914,6.914,0,0,1-1.2.539,8.763,8.763,0,0,1-2.817.465,6.271,6.271,0,0,1-3.083-.709,2.187,2.187,0,0,1-1.208-1.576h-.02v-.079a1.768,1.768,0,0,1,.087-.685,8.128,8.128,0,0,1,2.212-4.532l1.439.341-.348,1.465,2.411-1.39,7.329-4.229a8.247,8.247,0,0,1,4.12-1l1.449-1.627a7.237,7.237,0,0,1,2.635,3.5.1.1,0,0,0,.025.079.392.392,0,0,1,.046.145h0C1111.63,1369.425,1111.053,1370.445,1109.717,1371.225Z" fill="#c0bfbe"/>
      <path id="Path_90331" data-name="Path 90331" d="M1097.119,1378.333a8.763,8.763,0,0,1-2.817.465,6.281,6.281,0,0,1-3.083-.709,2.187,2.187,0,0,1-1.208-1.576h-.02v-.079a1.77,1.77,0,0,1,.087-.685,8.127,8.127,0,0,1,2.212-4.532l1.439.341-.348,1.465,2.411-1.39a10.6,10.6,0,0,1,.871,2.821A18.417,18.417,0,0,1,1097.119,1378.333Z" fill="#cccccb"/>
      <path id="Path_90332" data-name="Path 90332" d="M1092.746,1373.993h0c-1.527-.883-1.336-2.423.415-3.44l9.565-5.524a6.639,6.639,0,0,1,5.959-.249h0c1.526.88,1.336,2.419-.416,3.441l-9.564,5.523A6.638,6.638,0,0,1,1092.746,1373.993Z" fill="#dbdbdb"/>
      <path id="Path_90333" data-name="Path 90333" d="M1121.033,1438.1a.781.781,0,0,1-.7,0,.216.216,0,0,1,0-.415.775.775,0,0,1,.7,0,.216.216,0,0,1,0,.415Z" fill="#b6b6b6"/>
      <path id="Path_90334" data-name="Path 90334" d="M1117.324,1440.175a.776.776,0,0,1-.7,0,.216.216,0,0,1,0-.416.775.775,0,0,1,.7,0,.212.212,0,0,1,0,.416Z" fill="#b6b6b6"/>
      <path id="Path_90335" data-name="Path 90335" d="M1113.589,1438.1a.773.773,0,0,1-.7,0,.211.211,0,0,1,0-.415.773.773,0,0,1,.7,0,.211.211,0,0,1,0,.415Z" fill="#b6b6b6"/>
    </g>
    <path id="Trazado_117210" data-name="Trazado 117210" d="M1109.717,1371.225s-2.1,58.513,38.863,72.455" fill="none" stroke="#001a2e" stroke-miterlimit="10" stroke-width="1"/>
    <path id="Trazado_117211" data-name="Trazado 117211" d="M1103.9,1374.581s3.585,51.737,44.543,65.679" fill="none" stroke="#001a2e" stroke-miterlimit="10" stroke-width="1"/>
    <g id="Group_38308-2" data-name="Group 38308">
      <path id="Path_90321-2" data-name="Path 90321" d="M1634.481,1437.9l5.274-3.045,5.278,3.045-5.278,3.046Z" fill="#dbdbdb"/>
      <path id="Path_90322-2" data-name="Path 90322" d="M1645.033,1437.9v2.731l-5.278,3.045v-2.73Z" fill="#cccccb"/>
      <path id="Path_90323-2" data-name="Path 90323" d="M1639.766,1440.943v2.73l-5.278-3.045V1437.9Z" fill="#b6b6b6"/>
      <g id="Group_38307-2" data-name="Group 38307">
        <path id="Path_90324-2" data-name="Path 90324" d="M1642.178,1366.463h0c.154-.1.311-.208.478-.3a10.786,10.786,0,0,1,10.975.909l10.465,6.038-.95,1.659h0l-.954-.552-8.553-4.934c-.186-.107-.373-.216-.56-.311a15.654,15.654,0,0,0-1.8-.829,9.756,9.756,0,0,0-8.61.236,10.81,10.81,0,0,0-4.7,9.958v-2.211A11.082,11.082,0,0,1,1642.178,1366.463Z" fill="#cccccb"/>
      </g>
      <path id="Path_90325-2" data-name="Path 90325" d="M1637.946,1378.329a9.664,9.664,0,0,1,15.677-9.05l9.507,5.486-.867,1.5-10.461-6.043a7.405,7.405,0,0,0-7.329-.908h0a2.888,2.888,0,0,0-.261.132,10.815,10.815,0,0,0-4.7,9.959v59.551a2.608,2.608,0,0,1-1.091-.311,1.185,1.185,0,0,1-.457-.415v-59.9Z" fill="#b6b6b6"/>
      <path id="Path_90326-2" data-name="Path 90326" d="M1644.208,1369.478a2.011,2.011,0,0,1,.261-.133,7.416,7.416,0,0,0-2.859,6.785v61.962a1.07,1.07,0,0,1-.518.572,2.844,2.844,0,0,1-1.586.311v-59.551A10.788,10.788,0,0,1,1644.208,1369.478Z" fill="#cccccb"/>
      <path id="Path_90327-2" data-name="Path 90327" d="M1642.676,1366.129a10.787,10.787,0,0,1,10.976.908l10.465,6.038-.95,1.66-.959-.539a83.2,83.2,0,0,0-9.129-5.245c-.6-.286-1.2-.568-1.8-.83a13.868,13.868,0,0,0-9.087-1.659C1642.34,1366.363,1642.5,1366.258,1642.676,1366.129Z" fill="#dbdbdb"/>
      <path id="Path_90328-2" data-name="Path 90328" d="M1637.957,1437.511a1.171,1.171,0,0,1,.457-.415,2.58,2.58,0,0,1,1.091-.311,2.852,2.852,0,0,1,1.581.311,1.076,1.076,0,0,1,.523.568.608.608,0,0,1,0,.416,1.054,1.054,0,0,1-.519.572,2.864,2.864,0,0,1-1.585.311,2.61,2.61,0,0,1-1.091-.311,1.171,1.171,0,0,1-.457-.415A.653.653,0,0,1,1637.957,1437.511Z" fill="#cccccb"/>
      <path id="Path_90329-2" data-name="Path 90329" d="M1637.958,1437.536a1.172,1.172,0,0,1,.457-.416,2.6,2.6,0,0,1,1.091-.311v2.162a2.607,2.607,0,0,1-1.091-.311,1.171,1.171,0,0,1-.457-.415A.651.651,0,0,1,1637.958,1437.536Z" fill="#b6b6b6"/>
      <path id="Path_90330-2" data-name="Path 90330" d="M1645.215,1368.507h0a.376.376,0,0,1,.045-.145.093.093,0,0,0,.026-.079,7.225,7.225,0,0,1,2.635-3.5l1.448,1.627a8.253,8.253,0,0,1,4.121,1l7.328,4.229,2.411,1.39-.348-1.465,1.44-.341a8.133,8.133,0,0,1,2.211,4.532,1.768,1.768,0,0,1,.087.685v.079h-.02a2.187,2.187,0,0,1-1.208,1.576,6.27,6.27,0,0,1-3.082.709,8.769,8.769,0,0,1-2.818-.465,6.937,6.937,0,0,1-1.2-.539l-11.4-6.581C1645.556,1370.445,1644.98,1369.425,1645.215,1368.507Z" fill="#c0bfbe"/>
      <path id="Path_90331-2" data-name="Path 90331" d="M1659.946,1374.454a10.631,10.631,0,0,1,.871-2.821l2.411,1.39-.348-1.465,1.439-.341a8.128,8.128,0,0,1,2.212,4.532,1.77,1.77,0,0,1,.087.685v.079h-.02a2.188,2.188,0,0,1-1.208,1.576,6.281,6.281,0,0,1-3.082.709,8.769,8.769,0,0,1-2.818-.465A18.417,18.417,0,0,1,1659.946,1374.454Z" fill="#cccccb"/>
      <path id="Path_90332-2" data-name="Path 90332" d="M1657.905,1373.744l-9.565-5.523c-1.751-1.022-1.942-2.561-.415-3.441h0a6.639,6.639,0,0,1,5.959.249l9.564,5.524c1.752,1.017,1.942,2.557.416,3.44h0A6.638,6.638,0,0,1,1657.905,1373.744Z" fill="#dbdbdb"/>
      <path id="Path_90333-2" data-name="Path 90333" d="M1635.427,1437.951a.216.216,0,0,1,.149-.266.775.775,0,0,1,.7,0,.216.216,0,0,1,0,.415.781.781,0,0,1-.7,0A.217.217,0,0,1,1635.427,1437.951Z" fill="#b6b6b6"/>
      <path id="Path_90334-2" data-name="Path 90334" d="M1639.118,1440.008a.213.213,0,0,1,.167-.249.775.775,0,0,1,.7,0,.216.216,0,0,1,0,.416.776.776,0,0,1-.7,0A.21.21,0,0,1,1639.118,1440.008Z" fill="#b6b6b6"/>
      <path id="Path_90335-2" data-name="Path 90335" d="M1642.853,1437.929a.212.212,0,0,1,.167-.248.773.773,0,0,1,.7,0,.211.211,0,0,1,0,.415.773.773,0,0,1-.7,0A.21.21,0,0,1,1642.853,1437.929Z" fill="#b6b6b6"/>
    </g>
    <path id="Trazado_117212" data-name="Trazado 117212" d="M1646.892,1371.225s2.1,58.513-38.862,72.455" fill="none" stroke="#001a2e" stroke-miterlimit="10" stroke-width="1"/>
    <path id="Trazado_117213" data-name="Trazado 117213" d="M1652.7,1374.581s-3.585,51.737-44.543,65.679" fill="none" stroke="#001a2e" stroke-miterlimit="10" stroke-width="1"/>
    <g id="evztuS-2" data-name="evztuS" transform="translate(0 -13)">
      <g id="Grupo_54396" data-name="Grupo 54396">
        <path id="Trazado_117214" data-name="Trazado 117214" d="M1223.751,1267.911l36.644,36.667c-.9.75-1.713,1.493-2.593,2.145a21.14,21.14,0,0,1-9.658,4,21.882,21.882,0,0,1-18.972-6.283c-2.217-2.24-4.462-4.453-6.626-6.743a18.125,18.125,0,0,1-2.979-4.549,21.889,21.889,0,0,1,3.934-25.034C1223.546,1268.065,1223.6,1268.029,1223.751,1267.911Z" fill="#37a3a5"/>
        <path id="Trazado_117215" data-name="Trazado 117215" d="M1221.471,1297.767c1.092,1.025,2.221,2.028,3.283,3.1,2.01,2.021,3.986,4.075,5.962,6.129a2.187,2.187,0,0,1,.479.8q3.246,9.749,6.467,19.507c.067.2.129.409.222.7h-.544c-1.007,0-2.013-.016-3.019.012a.588.588,0,0,1-.693-.511c-1.632-5.508-3.323-11-4.906-16.52a6.324,6.324,0,0,0-2.054-3.263c-1.164-.982-2.233-2.077-3.344-3.122-.1-.09-.2-.174-.353-.309-.117.317-.225.589-.317.866q-3.725,11.205-7.438,22.414c-.1.318-.232.453-.588.443-.987-.027-1.975-.009-3.06-.009Q1216.557,1312.77,1221.471,1297.767Z" fill="#001a2e"/>
        <path id="Trazado_117216" data-name="Trazado 117216" d="M1271.716,1276.2h-2.127a17.131,17.131,0,0,0-5.155-12.364,17.336,17.336,0,0,0-12.362-5.183v-2.182a19.685,19.685,0,0,1,19.644,19.729Z" fill="url(#linear-gradient-6)"/>
        <path id="Trazado_117217" data-name="Trazado 117217" d="M1249.765,1292.447c-.72-.733-1.392-1.405-2.041-2.1-.063-.067-.019-.279.033-.4q2.913-6.735,5.836-13.464c.294-.677.581-1.356.884-2.028.065-.145.157-.332.285-.386,1.152-.482,2.315-.938,3.608-1.455Z" fill="url(#linear-gradient-6)"/>
        <path id="Trazado_117218" data-name="Trazado 117218" d="M1256.024,1270.281c-.446,1.125-.859,2.1-1.219,3.1a1.465,1.465,0,0,1-.9.915q-7.568,3.255-15.115,6.555a.563.563,0,0,1-.741-.139c-.581-.6-1.19-1.172-1.867-1.834Z" fill="url(#linear-gradient-6)"/>
        <path id="Trazado_117219" data-name="Trazado 117219" d="M1251.77,1263.019v-2.065a15.133,15.133,0,0,1,9.843,3.547,15.434,15.434,0,0,1,5.709,11.982h-2.088C1264.38,1268.378,1259.92,1263.9,1251.77,1263.019Z" fill="url(#linear-gradient-6)"/>
        <path id="Trazado_117220" data-name="Trazado 117220" d="M1262.835,1276c-.684,0-1.3.023-1.916-.021-.107-.008-.267-.294-.278-.459a8.238,8.238,0,0,0-1.707-4.6,8.339,8.339,0,0,0-6.236-3.316c-.116-.008-.232-.027-.348-.042-.014,0-.027-.017-.07-.045v-2.1A10.609,10.609,0,0,1,1262.835,1276Z" fill="url(#linear-gradient-6)"/>
      </g>
    </g>
    <path id="Trazado_117222" data-name="Trazado 117222" d="M1271.6,1254.127s107.4-106.139,213.537,0" transform="translate(0 -6)" fill="none" stroke="#001a2e" stroke-miterlimit="10" stroke-width="2" stroke-dasharray="4 1"/>
    <line id="Línea_1540" data-name="Línea 1540" x2="604.737" transform="translate(1072.985 1527.964)" fill="none" stroke="#12263f" stroke-miterlimit="10" stroke-width="2"/>
    <line id="Línea_1541" data-name="Línea 1541" y1="60.492" transform="translate(1375.354 1493.868)" fill="none" stroke="#12263f" stroke-miterlimit="10" stroke-width="2"/>
    <g id="Grupo_54407" data-name="Grupo 54407" transform="translate(2611.861 500.046)">
      <path id="Trazado_117253" data-name="Trazado 117253" d="M-1425.543,855.4c.077-.554.151-.879.162-1.207.02-.673.006-1.348.006-2.264h-2.384q-10.221,0-20.441,0c-2.6,0-4.1-1.232-4.112-3.307-.013-2.11,1.434-3.289,4.087-3.292,7.5-.007,14.99,0,22.854,0,0-.907,0-1.692,0-2.477q0-8.156-.005-16.312c0-3.846.927-4.789,4.69-4.8,2.873-.007,5.745,0,8.844,0,0-3.228-.007-6.235,0-9.243.01-3.222,1.11-4.323,4.338-4.323q29.32,0,58.641,0c3.268,0,4.339,1.071,4.343,4.293,0,2.955,0,5.911,0,9.269,2.615,0,5.124,0,7.633,0,5.463,0,5.943.492,5.943,6.022,0,11.288.041,22.575-.044,33.862a4.173,4.173,0,0,0,1.864,3.769c4.388,3.318,8.663,6.785,13.041,10.118a4.675,4.675,0,0,1,2.013,4.03q-.026,43.154-.019,86.308c0,3.061-1.2,4.19-4.314,4.19q-71.545.007-143.09,0c-3.188,0-4.377-1.167-4.378-4.353q-.013-52.961,0-105.924c0-3.209,1.139-4.345,4.374-4.35q16.725-.028,33.45-.008Zm87.864-26.9h-80.9V946.4h23.643c0-4.228-.007-8.338,0-12.449.007-3.208,1.129-4.336,4.337-4.339q12.488-.012,24.977,0c3.109,0,4.191,1.1,4.207,4.22.013,2.752,0,5.5,0,8.257q0,2.13,0,4.257h23.725Zm-121.462,47v87.754h6.824v-2.641q0-29.942,0-59.884a11.094,11.094,0,0,1,.061-2.06,3.116,3.116,0,0,1,3.155-2.722,3.274,3.274,0,0,1,3.343,2.773,14.359,14.359,0,0,1,.041,2.062q0,30.046,0,60.091v2.379h6.931v-2.827q0-29.736,0-59.471a17.034,17.034,0,0,1,.064-2.268,2.923,2.923,0,0,1,2.709-2.672,2.9,2.9,0,0,1,3.464,1.927,9.489,9.489,0,0,1,.37,3.041q.028,30.149.014,60.3c0,.661.067,1.322.1,2.013h6.547V862.214h-33.615v6.679h2.363q11.771,0,23.541,0c2.775,0,4.356,1.182,4.407,3.258.055,2.19-1.479,3.349-4.463,3.35q-11.77.005-23.541,0Zm128.388-3.033v90.859h9.922c.05-.485.127-.88.127-1.275q.01-40.156-.024-80.312a2.8,2.8,0,0,0-.767-1.952C-1324.455,877.346-1327.506,875.015-1330.753,872.469Zm-37.38,90.9V936.356h-20.006v27.011Zm-37-141.817h53.837V814.9h-53.837Zm43.848,141.745h23.523V953.259h-23.523Zm-57.309-.042h23.51V953.227h-23.51Z" fill="#12263f"/>
      <path id="Trazado_117254" data-name="Trazado 117254" d="M-1450.966,901.473a3.292,3.292,0,0,1-3.255,3.266,3.322,3.322,0,0,1-3.3-3.449,3.269,3.269,0,0,1,3.378-3.133A3.208,3.208,0,0,1-1450.966,901.473Z" transform="translate(-4.904 -52.821)" fill="#12263f"/>
      <path id="Trazado_117255" data-name="Trazado 117255" d="M-1254.944,880.082c-2.12,0-4.014.051-5.9-.048a1.41,1.41,0,0,1-.9-1.025c-.094-1.822-.042-3.65-.042-5.738,2.063,0,3.888-.077,5.7.059a1.714,1.714,0,0,1,1.094,1.234C-1254.865,876.257-1254.944,877.966-1254.944,880.082Z" transform="translate(-119.792 -38.201)" fill="#12263f"/>
      <path id="Trazado_117256" data-name="Trazado 117256" d="M-1261.46,971.6h6.589v6.581h-6.589Z" transform="translate(-119.992 -95.934)" fill="#12263f"/>
      <path id="Trazado_117257" data-name="Trazado 117257" d="M-1261.735,1076.188c0-2.134-.065-3.968.054-5.789a1.567,1.567,0,0,1,1.128-1.012c1.758-.114,3.528-.048,5.614-.048,0,2.123.049,4.073-.052,6.015-.016.3-.713.777-1.113.8C-1257.867,1076.238-1259.637,1076.188-1261.735,1076.188Z" transform="translate(-119.82 -153.295)" fill="#12263f"/>
      <path id="Trazado_117258" data-name="Trazado 117258" d="M-1326.9,880.222v-6.547h6.494v6.547Z" transform="translate(-81.577 -38.451)" fill="#12263f"/>
      <path id="Trazado_117259" data-name="Trazado 117259" d="M-1293.9,873.559h6.378v6.59h-6.378Z" transform="translate(-100.951 -38.383)" fill="#12263f"/>
      <path id="Trazado_117260" data-name="Trazado 117260" d="M-1228.762,880.329v-6.681h6.627c0,1.914.052,3.8-.046,5.679a1.409,1.409,0,0,1-.981.957C-1224.988,880.382-1226.823,880.329-1228.762,880.329Z" transform="translate(-139.186 -38.435)" fill="#12263f"/>
      <path id="Trazado_117261" data-name="Trazado 117261" d="M-1195.935,880.15v-6.572h6.466v6.572Z" transform="translate(-158.456 -38.394)" fill="#12263f"/>
      <path id="Trazado_117262" data-name="Trazado 117262" d="M-1254.906,912.9h-6.555v-6.484h6.555Z" transform="translate(-119.992 -57.669)" fill="#12263f"/>
      <path id="Trazado_117263" data-name="Trazado 117263" d="M-1195.982,1069.6h6.465v6.625h-6.465Z" transform="translate(-158.428 -153.457)" fill="#12263f"/>
      <path id="Trazado_117264" data-name="Trazado 117264" d="M-1222.292,1076.361h-6.425v-6.589h6.425Z" transform="translate(-139.212 -153.56)" fill="#12263f"/>
      <path id="Trazado_117265" data-name="Trazado 117265" d="M-1254.827,945.7h-6.574v-6.454h6.574Z" transform="translate(-120.027 -76.94)" fill="#12263f"/>
      <path id="Trazado_117266" data-name="Trazado 117266" d="M-1293.856,1069.657h6.425v6.579h-6.425Z" transform="translate(-100.976 -153.493)" fill="#12263f"/>
      <path id="Trazado_117267" data-name="Trazado 117267" d="M-1326.771,1069.574h6.449v6.646h-6.449Z" transform="translate(-81.655 -153.444)" fill="#12263f"/>
      <path id="Trazado_117268" data-name="Trazado 117268" d="M-1326.63,971.567h6.368v6.6h-6.368Z" transform="translate(-81.737 -95.914)" fill="#12263f"/>
      <path id="Trazado_117269" data-name="Trazado 117269" d="M-1287.45,971.744v6.563h-6.473v-6.563Z" transform="translate(-100.936 -96.018)" fill="#12263f"/>
      <path id="Trazado_117270" data-name="Trazado 117270" d="M-1222.094,978.07h-6.615v-6.781c1.877,0,3.7-.065,5.513.052a1.56,1.56,0,0,1,1.051,1.09C-1222.031,974.252-1222.094,976.085-1222.094,978.07Z" transform="translate(-139.217 -95.74)" fill="#12263f"/>
      <path id="Trazado_117271" data-name="Trazado 117271" d="M-1189.491,978.275h-6.35v-6.659h6.35Z" transform="translate(-158.511 -95.943)" fill="#12263f"/>
      <path id="Trazado_117272" data-name="Trazado 117272" d="M-1261.467,1043.615v-6.471h6.584v6.471Z" transform="translate(-119.988 -134.407)" fill="#12263f"/>
      <path id="Trazado_117273" data-name="Trazado 117273" d="M-1254.906,1010.918h-6.553v-6.482h6.553Z" transform="translate(-119.993 -115.208)" fill="#12263f"/>
      <path id="Trazado_117274" data-name="Trazado 117274" d="M-1189.388,1037.257v6.429h-6.473v-6.429Z" transform="translate(-158.499 -134.474)" fill="#12263f"/>
      <path id="Trazado_117275" data-name="Trazado 117275" d="M-1287.563,1043.684h-6.394V1037.2h6.394Z" transform="translate(-100.916 -134.441)" fill="#12263f"/>
      <path id="Trazado_117276" data-name="Trazado 117276" d="M-1228.708,1037.028h6.431v6.54h-6.431Z" transform="translate(-139.218 -134.34)" fill="#12263f"/>
      <path id="Trazado_117277" data-name="Trazado 117277" d="M-1228.807,1010.874v-6.45h6.523v6.45Z" transform="translate(-139.16 -115.201)" fill="#12263f"/>
      <path id="Trazado_117278" data-name="Trazado 117278" d="M-1189.377,1004.491v6.4h-6.463v-6.4Z" transform="translate(-158.511 -115.24)" fill="#12263f"/>
      <path id="Trazado_117279" data-name="Trazado 117279" d="M-1287.473,1010.965h-6.39v-6.475h6.39Z" transform="translate(-100.972 -115.24)" fill="#12263f"/>
      <path id="Trazado_117280" data-name="Trazado 117280" d="M-1326.679,1037.123h6.451v6.48h-6.451Z" transform="translate(-81.709 -134.395)" fill="#12263f"/>
      <path id="Trazado_117281" data-name="Trazado 117281" d="M-1326.739,1004.357h6.471v6.474h-6.471Z" transform="translate(-81.673 -115.162)" fill="#12263f"/>
      <path id="Trazado_117282" data-name="Trazado 117282" d="M-1189.47,945.649h-6.467v-6.5h6.467Z" transform="translate(-158.454 -76.887)" fill="#12263f"/>
      <path id="Trazado_117283" data-name="Trazado 117283" d="M-1222.188,945.666h-6.455V939.13h6.455Z" transform="translate(-139.256 -76.873)" fill="#12263f"/>
      <path id="Trazado_117284" data-name="Trazado 117284" d="M-1293.8,939.136h6.34v6.506h-6.34Z" transform="translate(-101.006 -76.877)" fill="#12263f"/>
      <path id="Trazado_117285" data-name="Trazado 117285" d="M-1320.241,939.237v6.453h-6.51v-6.453Z" transform="translate(-81.666 -76.936)" fill="#12263f"/>
      <path id="Trazado_117286" data-name="Trazado 117286" d="M-1195.913,912.868v-6.462h6.448v6.462Z" transform="translate(-158.468 -57.664)" fill="#12263f"/>
      <path id="Trazado_117287" data-name="Trazado 117287" d="M-1222.149,912.951h-6.5V906.5h6.5Z" transform="translate(-139.255 -57.718)" fill="#12263f"/>
      <path id="Trazado_117288" data-name="Trazado 117288" d="M-1293.9,906.3h6.414v6.488h-6.414Z" transform="translate(-100.953 -57.603)" fill="#12263f"/>
      <path id="Trazado_117289" data-name="Trazado 117289" d="M-1320.219,906.433v6.439h-6.512v-6.439Z" transform="translate(-81.678 -57.68)" fill="#12263f"/>
    </g>
    <g id="Grupo_54408" data-name="Grupo 54408" transform="translate(2924.051 500.046)">
      <path id="Trazado_117253-2" data-name="Trazado 117253" d="M-1425.543,855.4c.077-.554.151-.879.162-1.207.02-.673.006-1.348.006-2.264h-2.384q-10.221,0-20.441,0c-2.6,0-4.1-1.232-4.112-3.307-.013-2.11,1.434-3.289,4.087-3.292,7.5-.007,14.99,0,22.854,0,0-.907,0-1.692,0-2.477q0-8.156-.005-16.312c0-3.846.927-4.789,4.69-4.8,2.873-.007,5.745,0,8.844,0,0-3.228-.007-6.235,0-9.243.01-3.222,1.11-4.323,4.338-4.323q29.32,0,58.641,0c3.268,0,4.339,1.071,4.343,4.293,0,2.955,0,5.911,0,9.269,2.615,0,5.124,0,7.633,0,5.463,0,5.943.492,5.943,6.022,0,11.288.041,22.575-.044,33.862a4.173,4.173,0,0,0,1.864,3.769c4.388,3.318,8.663,6.785,13.041,10.118a4.675,4.675,0,0,1,2.013,4.03q-.026,43.154-.019,86.308c0,3.061-1.2,4.19-4.314,4.19q-71.545.007-143.09,0c-3.188,0-4.377-1.167-4.378-4.353q-.013-52.961,0-105.924c0-3.209,1.139-4.345,4.374-4.35q16.725-.028,33.45-.008Zm87.864-26.9h-80.9V946.4h23.643c0-4.228-.007-8.338,0-12.449.007-3.208,1.129-4.336,4.337-4.339q12.488-.012,24.977,0c3.109,0,4.191,1.1,4.207,4.22.013,2.752,0,5.5,0,8.257q0,2.13,0,4.257h23.725Zm-121.462,47v87.754h6.824v-2.641q0-29.942,0-59.884a11.094,11.094,0,0,1,.061-2.06,3.116,3.116,0,0,1,3.155-2.722,3.274,3.274,0,0,1,3.343,2.773,14.359,14.359,0,0,1,.041,2.062q0,30.046,0,60.091v2.379h6.931v-2.827q0-29.736,0-59.471a17.034,17.034,0,0,1,.064-2.268,2.923,2.923,0,0,1,2.709-2.672,2.9,2.9,0,0,1,3.464,1.927,9.489,9.489,0,0,1,.37,3.041q.028,30.149.014,60.3c0,.661.067,1.322.1,2.013h6.547V862.214h-33.615v6.679h2.363q11.771,0,23.541,0c2.775,0,4.356,1.182,4.407,3.258.055,2.19-1.479,3.349-4.463,3.35q-11.77.005-23.541,0Zm128.388-3.033v90.859h9.922c.05-.485.127-.88.127-1.275q.01-40.156-.024-80.312a2.8,2.8,0,0,0-.767-1.952C-1324.455,877.346-1327.506,875.015-1330.753,872.469Zm-37.38,90.9V936.356h-20.006v27.011Zm-37-141.817h53.837V814.9h-53.837Zm43.848,141.745h23.523V953.259h-23.523Zm-57.309-.042h23.51V953.227h-23.51Z" fill="#12263f"/>
      <path id="Trazado_117254-2" data-name="Trazado 117254" d="M-1450.966,901.473a3.292,3.292,0,0,1-3.255,3.266,3.322,3.322,0,0,1-3.3-3.449,3.269,3.269,0,0,1,3.378-3.133A3.208,3.208,0,0,1-1450.966,901.473Z" transform="translate(-4.904 -52.821)" fill="#12263f"/>
      <path id="Trazado_117255-2" data-name="Trazado 117255" d="M-1254.944,880.082c-2.12,0-4.014.051-5.9-.048a1.41,1.41,0,0,1-.9-1.025c-.094-1.822-.042-3.65-.042-5.738,2.063,0,3.888-.077,5.7.059a1.714,1.714,0,0,1,1.094,1.234C-1254.865,876.257-1254.944,877.966-1254.944,880.082Z" transform="translate(-119.792 -38.201)" fill="#12263f"/>
      <path id="Trazado_117256-2" data-name="Trazado 117256" d="M-1261.46,971.6h6.589v6.581h-6.589Z" transform="translate(-119.992 -95.934)" fill="#12263f"/>
      <path id="Trazado_117257-2" data-name="Trazado 117257" d="M-1261.735,1076.188c0-2.134-.065-3.968.054-5.789a1.567,1.567,0,0,1,1.128-1.012c1.758-.114,3.528-.048,5.614-.048,0,2.123.049,4.073-.052,6.015-.016.3-.713.777-1.113.8C-1257.867,1076.238-1259.637,1076.188-1261.735,1076.188Z" transform="translate(-119.82 -153.295)" fill="#12263f"/>
      <path id="Trazado_117258-2" data-name="Trazado 117258" d="M-1326.9,880.222v-6.547h6.494v6.547Z" transform="translate(-81.577 -38.451)" fill="#12263f"/>
      <path id="Trazado_117259-2" data-name="Trazado 117259" d="M-1293.9,873.559h6.378v6.59h-6.378Z" transform="translate(-100.951 -38.383)" fill="#12263f"/>
      <path id="Trazado_117260-2" data-name="Trazado 117260" d="M-1228.762,880.329v-6.681h6.627c0,1.914.052,3.8-.046,5.679a1.409,1.409,0,0,1-.981.957C-1224.988,880.382-1226.823,880.329-1228.762,880.329Z" transform="translate(-139.186 -38.435)" fill="#12263f"/>
      <path id="Trazado_117261-2" data-name="Trazado 117261" d="M-1195.935,880.15v-6.572h6.466v6.572Z" transform="translate(-158.456 -38.394)" fill="#12263f"/>
      <path id="Trazado_117262-2" data-name="Trazado 117262" d="M-1254.906,912.9h-6.555v-6.484h6.555Z" transform="translate(-119.992 -57.669)" fill="#12263f"/>
      <path id="Trazado_117263-2" data-name="Trazado 117263" d="M-1195.982,1069.6h6.465v6.625h-6.465Z" transform="translate(-158.428 -153.457)" fill="#12263f"/>
      <path id="Trazado_117264-2" data-name="Trazado 117264" d="M-1222.292,1076.361h-6.425v-6.589h6.425Z" transform="translate(-139.212 -153.56)" fill="#12263f"/>
      <path id="Trazado_117265-2" data-name="Trazado 117265" d="M-1254.827,945.7h-6.574v-6.454h6.574Z" transform="translate(-120.027 -76.94)" fill="#12263f"/>
      <path id="Trazado_117266-2" data-name="Trazado 117266" d="M-1293.856,1069.657h6.425v6.579h-6.425Z" transform="translate(-100.976 -153.493)" fill="#12263f"/>
      <path id="Trazado_117267-2" data-name="Trazado 117267" d="M-1326.771,1069.574h6.449v6.646h-6.449Z" transform="translate(-81.655 -153.444)" fill="#12263f"/>
      <path id="Trazado_117268-2" data-name="Trazado 117268" d="M-1326.63,971.567h6.368v6.6h-6.368Z" transform="translate(-81.737 -95.914)" fill="#12263f"/>
      <path id="Trazado_117269-2" data-name="Trazado 117269" d="M-1287.45,971.744v6.563h-6.473v-6.563Z" transform="translate(-100.936 -96.018)" fill="#12263f"/>
      <path id="Trazado_117270-2" data-name="Trazado 117270" d="M-1222.094,978.07h-6.615v-6.781c1.877,0,3.7-.065,5.513.052a1.56,1.56,0,0,1,1.051,1.09C-1222.031,974.252-1222.094,976.085-1222.094,978.07Z" transform="translate(-139.217 -95.74)" fill="#12263f"/>
      <path id="Trazado_117271-2" data-name="Trazado 117271" d="M-1189.491,978.275h-6.35v-6.659h6.35Z" transform="translate(-158.511 -95.943)" fill="#12263f"/>
      <path id="Trazado_117272-2" data-name="Trazado 117272" d="M-1261.467,1043.615v-6.471h6.584v6.471Z" transform="translate(-119.988 -134.407)" fill="#12263f"/>
      <path id="Trazado_117273-2" data-name="Trazado 117273" d="M-1254.906,1010.918h-6.553v-6.482h6.553Z" transform="translate(-119.993 -115.208)" fill="#12263f"/>
      <path id="Trazado_117274-2" data-name="Trazado 117274" d="M-1189.388,1037.257v6.429h-6.473v-6.429Z" transform="translate(-158.499 -134.474)" fill="#12263f"/>
      <path id="Trazado_117275-2" data-name="Trazado 117275" d="M-1287.563,1043.684h-6.394V1037.2h6.394Z" transform="translate(-100.916 -134.441)" fill="#12263f"/>
      <path id="Trazado_117276-2" data-name="Trazado 117276" d="M-1228.708,1037.028h6.431v6.54h-6.431Z" transform="translate(-139.218 -134.34)" fill="#12263f"/>
      <path id="Trazado_117277-2" data-name="Trazado 117277" d="M-1228.807,1010.874v-6.45h6.523v6.45Z" transform="translate(-139.16 -115.201)" fill="#12263f"/>
      <path id="Trazado_117278-2" data-name="Trazado 117278" d="M-1189.377,1004.491v6.4h-6.463v-6.4Z" transform="translate(-158.511 -115.24)" fill="#12263f"/>
      <path id="Trazado_117279-2" data-name="Trazado 117279" d="M-1287.473,1010.965h-6.39v-6.475h6.39Z" transform="translate(-100.972 -115.24)" fill="#12263f"/>
      <path id="Trazado_117280-2" data-name="Trazado 117280" d="M-1326.679,1037.123h6.451v6.48h-6.451Z" transform="translate(-81.709 -134.395)" fill="#12263f"/>
      <path id="Trazado_117281-2" data-name="Trazado 117281" d="M-1326.739,1004.357h6.471v6.474h-6.471Z" transform="translate(-81.673 -115.162)" fill="#12263f"/>
      <path id="Trazado_117282-2" data-name="Trazado 117282" d="M-1189.47,945.649h-6.467v-6.5h6.467Z" transform="translate(-158.454 -76.887)" fill="#12263f"/>
      <path id="Trazado_117283-2" data-name="Trazado 117283" d="M-1222.188,945.666h-6.455V939.13h6.455Z" transform="translate(-139.256 -76.873)" fill="#12263f"/>
      <path id="Trazado_117284-2" data-name="Trazado 117284" d="M-1293.8,939.136h6.34v6.506h-6.34Z" transform="translate(-101.006 -76.877)" fill="#12263f"/>
      <path id="Trazado_117285-2" data-name="Trazado 117285" d="M-1320.241,939.237v6.453h-6.51v-6.453Z" transform="translate(-81.666 -76.936)" fill="#12263f"/>
      <path id="Trazado_117286-2" data-name="Trazado 117286" d="M-1195.913,912.868v-6.462h6.448v6.462Z" transform="translate(-158.468 -57.664)" fill="#12263f"/>
      <path id="Trazado_117287-2" data-name="Trazado 117287" d="M-1222.149,912.951h-6.5V906.5h6.5Z" transform="translate(-139.255 -57.718)" fill="#12263f"/>
      <path id="Trazado_117288-2" data-name="Trazado 117288" d="M-1293.9,906.3h6.414v6.488h-6.414Z" transform="translate(-100.953 -57.603)" fill="#12263f"/>
      <path id="Trazado_117289-2" data-name="Trazado 117289" d="M-1320.219,906.433v6.439h-6.512v-6.439Z" transform="translate(-81.678 -57.68)" fill="#12263f"/>
    </g>
  </g>
</svg>
