<svg xmlns="http://www.w3.org/2000/svg" xmlns:xlink="http://www.w3.org/1999/xlink" width="248.833" height="245.889" viewBox="0 0 248.833 245.889">
  <defs>
    <linearGradient id="linear-gradient" x1="0.141" y1="0.483" x2="1.047" y2="0.526" gradientUnits="objectBoundingBox">
      <stop offset="0" stop-color="#fff"/>
      <stop offset="1" stop-color="#d2e6ee"/>
    </linearGradient>
    <linearGradient id="linear-gradient-2" x1="0" y1="0.5" x2="1" y2="0.5" xlink:href="#linear-gradient"/>
    <linearGradient id="linear-gradient-3" x1="-0.716" y1="0.479" x2="4.498" y2="0.546" xlink:href="#linear-gradient"/>
    <linearGradient id="linear-gradient-4" x1="0.643" y1="0.887" x2="0.329" y2="0.112" xlink:href="#linear-gradient"/>
    <linearGradient id="linear-gradient-5" x1="-0.648" y1="0.847" x2="1.862" y2="0.088" xlink:href="#linear-gradient"/>
    <linearGradient id="linear-gradient-6" x1="1.18" y1="0.174" x2="0.045" y2="0.726" xlink:href="#linear-gradient"/>
    <linearGradient id="linear-gradient-7" x1="0.35" y1="0.091" x2="1.008" y2="1.239" xlink:href="#linear-gradient"/>
    <linearGradient id="linear-gradient-8" x1="0.291" y1="0.127" x2="1.112" y2="1.539" xlink:href="#linear-gradient"/>
    <linearGradient id="linear-gradient-9" x1="0.29" y1="0.146" x2="1.047" y2="1.297" xlink:href="#linear-gradient"/>
    <linearGradient id="linear-gradient-10" x1="0.295" y1="0.161" x2="1.021" y2="1.176" xlink:href="#linear-gradient"/>
    <linearGradient id="linear-gradient-11" x1="0.347" y1="0.736" x2="0.887" y2="-0.096" xlink:href="#linear-gradient"/>
    <linearGradient id="linear-gradient-12" x1="0.5" y1="0" x2="0.5" y2="1" xlink:href="#linear-gradient"/>
    <linearGradient id="linear-gradient-19" x1="-1.285" y1="0.494" x2="0.743" y2="0.501" xlink:href="#linear-gradient"/>
    <linearGradient id="linear-gradient-20" x1="0.443" y1="0.5" x2="2.117" y2="0.497" xlink:href="#linear-gradient"/>
    <linearGradient id="linear-gradient-22" x1="0.112" y1="1.088" x2="1.044" y2="-0.324" xlink:href="#linear-gradient"/>
    <linearGradient id="linear-gradient-23" x1="0.841" y1="-0.124" x2="0.271" y2="0.909" gradientUnits="objectBoundingBox">
      <stop offset="0" stop-color="#fff"/>
      <stop offset="1" stop-color="#231f20"/>
    </linearGradient>
    <linearGradient id="linear-gradient-24" x1="-0.155" y1="0.495" x2="0.605" y2="0.5" xlink:href="#linear-gradient"/>
    <linearGradient id="linear-gradient-27" x1="0.284" y1="0.739" x2="1.532" y2="-0.6" gradientUnits="objectBoundingBox">
      <stop offset="0" stop-color="#fff"/>
      <stop offset="1" stop-color="#e1d3e5"/>
    </linearGradient>
  </defs>
  <g id="Grupo_54836" data-name="Grupo 54836" transform="translate(-490.471 -459.801)">
    <g id="Grupo_33036" data-name="Grupo 33036" transform="translate(162.364 377.686)">
      <g id="Grupo_32834" data-name="Grupo 32834" transform="translate(372.189 114.522)">
        <g id="Grupo_32828" data-name="Grupo 32828">
          <path id="Trazado_81100" data-name="Trazado 81100" d="M463.019,243.95l-.41-.446a1.7,1.7,0,0,1-.584,2.552l-47.365,27.486a1.95,1.95,0,0,1-1.973-.013l-8.121-4.834a1.948,1.948,0,0,1-.355-3.075l-1.057.668c-.691,1.123-.37,3.749.078,4.754l9.455,5.571a1.951,1.951,0,0,0,1.973.013l47.315-27.269C463.266,248.612,464.044,245.542,463.019,243.95Z" transform="translate(-385.805 -143.959)" fill="#e8e8e8"/>
          <g id="Grupo_32827" data-name="Grupo 32827">
            <path id="Trazado_81101" data-name="Trazado 81101" d="M491.7,124.661a2.349,2.349,0,0,1,.665.033A2.348,2.348,0,0,0,491.7,124.661Z" transform="translate(-402.029 -122.28)" fill="none"/>
            <path id="Trazado_81102" data-name="Trazado 81102" d="M409.055,261.375l-5.367,3.1a1.353,1.353,0,0,0-.016,2.333l9.355,5.568a1.354,1.354,0,0,0,1.368.009L462.7,244.5a1.353,1.353,0,0,0,.016-2.333l-9.723-5.787-.313-.187-2.741,1.583L415.1,257.883Z" transform="translate(-385.852 -142.625)" fill="url(#linear-gradient)"/>
            <path id="Trazado_81103" data-name="Trazado 81103" d="M386.042,236.325l-.007-2.2-.007-2.809-.008-2.946-.144-50.487a8.749,8.749,0,0,1,3.951-6.847l80.319-46.374a3.778,3.778,0,0,1,1.548-.528,2.348,2.348,0,0,1,.666.033h0a1.956,1.956,0,0,1,.6.225l-3.86-2.369a2.791,2.791,0,0,0-2.816.271l-80.318,46.375a8.735,8.735,0,0,0-3.952,6.846L382.166,226l.011,2.945.007,2.81.007,2.2a2.766,2.766,0,0,0,1.161,2.536c1.908,1.11,1.949,1.26,3.852,2.366A2.764,2.764,0,0,1,386.042,236.325Z" transform="translate(-382.024 -121.751)" fill="url(#linear-gradient-2)"/>
            <path id="Trazado_81104" data-name="Trazado 81104" d="M494.867,196.877l0,0,0,0v.005Z" transform="translate(-402.607 -135.454)" fill="#082c44"/>
            <path id="Trazado_81105" data-name="Trazado 81105" d="M463.406,223.321l.008,0,0,0-.005,0Z" transform="translate(-396.868 -140.277)" fill="#082c44"/>
            <path id="Trazado_81106" data-name="Trazado 81106" d="M455.776,240.433l.269,4.823-38.757,22.379,0,0,38.761-22.38-.271-4.823-.007,0v0Z" transform="translate(-388.456 -143.398)" fill="#082c44"/>
            <path id="Trazado_81107" data-name="Trazado 81107" d="M410.9,252.774l-.379,8.024-.14,2.964-.1,2.157,5.728,3.327.241-5.116.183-3.861.52-10.989Z" transform="translate(-387.178 -145.013)" fill="url(#linear-gradient-3)"/>
            <path id="Trazado_81108" data-name="Trazado 81108" d="M417.284,273.705l0,0,0,0Z" transform="translate(-388.455 -149.467)" fill="#134169"/>
            <path id="Trazado_81109" data-name="Trazado 81109" d="M455.775,237.312h0v0l-.183-3.278-.6-10.708v0l-36.766,21.227-.52,10.989-.183,3.861-.241,5.116,0,0,38.757-22.379Z" transform="translate(-388.455 -140.277)" fill="url(#linear-gradient-4)"/>
            <path id="Trazado_81110" data-name="Trazado 81110" d="M475.144,183.7v0l-.01-2.808-.008-2.943-.141-50.488c0-1.565-.7-2.553-1.76-2.766h0a2.35,2.35,0,0,0-.665-.033,3.778,3.778,0,0,0-1.548.528l-80.319,46.374a8.749,8.749,0,0,0-3.951,6.847l.144,50.487.008,2.946.007,2.809.007,2.2a2.764,2.764,0,0,0,1.16,2.533l.007,0,0,0a2.794,2.794,0,0,0,2.814-.267l15.725-9.079,6.05-3.494h0l36.766-21.228h0l.006,0L471.2,192.747a8.734,8.734,0,0,0,3.949-6.843Z" transform="translate(-382.883 -122.28)" fill="url(#linear-gradient-5)"/>
            <path id="Trazado_81111" data-name="Trazado 81111" d="M492.518,124.7h0Z" transform="translate(-402.177 -122.29)" fill="#134169"/>
            <path id="Trazado_81112" data-name="Trazado 81112" d="M455.2,223.317l-36.766,21.228h0L455.2,223.318Z" transform="translate(-388.666 -140.277)" fill="#134169"/>
            <path id="Trazado_81113" data-name="Trazado 81113" d="M472.515,132.284c0-1.507-1.074-2.118-2.387-1.359l-77.117,44.521a5.247,5.247,0,0,0-2.372,4.109l.134,50.4a2.846,2.846,0,0,0,4.269,2.457l76.194-43.99a2.846,2.846,0,0,0,1.423-2.472Z" transform="translate(-383.595 -123.365)" fill="url(#linear-gradient-6)"/>
          </g>
        </g>
        <g id="Grupo_32833" data-name="Grupo 32833" transform="translate(25.494 32.85)">
          <g id="Grupo_32829" data-name="Grupo 32829" transform="translate(21.188 39.809)">
            <path id="Trazado_81114" data-name="Trazado 81114" d="M442.279,211.055c1.752-1.011,3.173-.2,3.179,1.812a6.962,6.962,0,0,1-3.158,5.475c-1.753,1.012-3.173.2-3.179-1.818A6.96,6.96,0,0,1,442.279,211.055Z" transform="translate(-439.121 -210.621)" fill="#e8e8e8" stroke="#21587b" stroke-miterlimit="10" stroke-width="1.06"/>
          </g>
          <g id="Grupo_32830" data-name="Grupo 32830" transform="translate(14.943 27.248)">
            <path id="Trazado_81115" data-name="Trazado 81115" d="M440.889,197.088c3.417-1.973,6.824-2.458,9.29-.929-1.131,1.96-2.268,3.916-3.427,5.923-1.631-.829-3.588-.669-5.881.656a16.925,16.925,0,0,0-5.888,6.19c-.154-.07-.282-.123-.4-.186q-1.542-.851-3.1-1.688A26.554,26.554,0,0,1,440.889,197.088Z" transform="translate(-431.483 -195.257)" fill="#e8e8e8" stroke="#21587b" stroke-miterlimit="10" stroke-width="1.06"/>
          </g>
          <g id="Grupo_32831" data-name="Grupo 32831" transform="translate(7.602 13.795)">
            <path id="Trazado_81116" data-name="Trazado 81116" d="M439.176,182.079c6.036-3.485,12.138-4.408,16.779-1.7-1.154,1.992-2.274,3.932-3.427,5.936-3.72-1.949-8.146-1.589-13.314,1.4s-9.6,7.723-13.273,13.929c-1.161-.668-2.3-1.316-3.438-1.966C426.9,191.89,433,185.643,439.176,182.079Z" transform="translate(-422.504 -178.804)" fill="#e8e8e8" stroke="#21587b" stroke-miterlimit="10" stroke-width="1.06"/>
          </g>
          <g id="Grupo_32832" data-name="Grupo 32832">
            <path id="Trazado_81117" data-name="Trazado 81117" d="M437.635,166.589c9.209-5.317,17.25-5.986,24.181-2.5-1.2,2.1-2.328,4.059-3.454,6.015-5.632-3.283-13.212-2.234-20.831,2.165-7.532,4.348-15.1,11.97-20.875,21.921-1.128-.662-2.256-1.33-3.45-2.029,5.789-9.843,12.754-17.789,20.912-23.355Q435.9,167.588,437.635,166.589Z" transform="translate(-413.206 -161.931)" fill="#e8e8e8" stroke="#21587b" stroke-miterlimit="10" stroke-width="1.06"/>
          </g>
        </g>
      </g>
      <g id="Grupo_32842" data-name="Grupo 32842" transform="translate(464.693 82.115)">
        <g id="Grupo_32836" data-name="Grupo 32836" transform="translate(40.672 82.163)" style="isolation: isolate">
          <path id="Trazado_81118" data-name="Trazado 81118" d="M567.184,183.5c-1.818-1.049-3.464-1.147-4.654-.456l-11.974,6.959c1.19-.691,2.836-.593,4.654.456a14.359,14.359,0,0,1,6.518,11.289c-.006,2.061-.733,3.512-1.907,4.193l11.974-6.959c1.174-.682,1.9-2.132,1.907-4.193A14.359,14.359,0,0,0,567.184,183.5Z" transform="translate(-545.941 -182.608)" fill="url(#linear-gradient-7)"/>
          <g id="Grupo_32835" data-name="Grupo 32835" transform="translate(0 4.717)">
            <ellipse id="Elipse_3403" data-name="Elipse 3403" cx="5.339" cy="9.218" rx="5.339" ry="9.218" transform="translate(0 5.365) rotate(-30.163)" fill="#37a3a5"/>
          </g>
        </g>
        <g id="Grupo_32838" data-name="Grupo 32838" transform="translate(30.626 56.31)" style="isolation: isolate">
          <path id="Trazado_81119" data-name="Trazado 81119" d="M564.12,154.785c-6.964-4.021-13.963-5.075-19.137-2.069l-11.974,6.959c5.174-3.006,12.172-1.952,19.137,2.068,7.047,4.068,14.058,11.173,19.111,20.186l11.974-6.959C578.178,165.957,571.167,158.853,564.12,154.785Z" transform="translate(-532.694 -150.987)" fill="url(#linear-gradient-8)"/>
          <g id="Grupo_32837" data-name="Grupo 32837" transform="translate(0 6.959)">
            <path id="Trazado_81120" data-name="Trazado 81120" d="M552.076,163.295c7.047,4.068,14.058,11.173,19.111,20.185-2.352,1.329-4.705,2.658-7.12,4.016-3.337-5.561-7.356-9.888-12.08-12.616-4.763-2.726-8.783-3.06-12.2-1.293-.314-.509-.572-.918-.818-1.334l-6.349-10.835C537.826,158.179,544.97,159.192,552.076,163.295Z" transform="translate(-532.624 -159.498)" fill="#37a3a5"/>
          </g>
        </g>
        <g id="Grupo_32841" data-name="Grupo 32841" style="isolation: isolate">
          <g id="Grupo_32839" data-name="Grupo 32839" transform="translate(15.584 35.433)">
            <path id="Trazado_81121" data-name="Trazado 81121" d="M548.713,132.219c12.45,7.187,25,19.8,34.509,36.4l-7.115,4.054c-7.621-12.847-16.725-22.621-27.39-28.785s-19.816-6.941-27.443-2.92c-2.378-4.126-4.716-8.174-7.048-12.22C523.351,123.194,535.977,124.868,548.713,132.219Z" transform="translate(-514.226 -125.453)" fill="#37a3a5"/>
          </g>
          <path id="Trazado_81122" data-name="Trazado 81122" d="M560.77,123.708c-12.563-7.252-25.019-8.98-34.114-3.694l-11.974,6.959c9.095-5.286,21.551-3.558,34.114,3.694,12.45,7.187,25,19.8,34.509,36.4l11.974-6.958C585.775,143.508,573.22,130.9,560.77,123.708Z" transform="translate(-498.725 -88.467)" fill="url(#linear-gradient-9)"/>
          <path id="Trazado_81123" data-name="Trazado 81123" d="M557.658,92.2q-3.568-2.059-7.251-3.8c-16.833-7.941-31.252-8.174-43.268-1.706l-11.974,6.959c12.016-6.469,26.435-6.235,43.268,1.706q3.683,1.738,7.251,3.8c19,10.971,35.543,28.715,49.753,52.375l11.974-6.959C593.2,120.91,576.661,103.166,557.658,92.2Z" transform="translate(-495.165 -82.115)" fill="url(#linear-gradient-10)"/>
          <g id="Grupo_32840" data-name="Grupo 32840" transform="translate(0 6.958)">
            <path id="Trazado_81124" data-name="Trazado 81124" d="M545.684,100.706c19,10.971,35.543,28.715,49.753,52.375-2.5,1.447-4.835,2.8-7.178,4.155-11.539-20.142-27.134-36.007-42.85-45.082-15.537-8.971-31.192-11.3-43.176-4.579-2.312-4.045-4.618-8.088-7.069-12.374,12.016-6.469,26.435-6.235,43.268,1.706Q542.116,98.644,545.684,100.706Z" transform="translate(-495.165 -90.625)" fill="#37a3a5"/>
          </g>
        </g>
      </g>
      <g id="Grupo_32938" data-name="Grupo 32938" transform="translate(328.107 257.545)">
        <g id="Grupo_32926" data-name="Grupo 32926">
          <g id="Grupo_32925" data-name="Grupo 32925">
            <g id="Grupo_32924" data-name="Grupo 32924">
              <path id="Trazado_81165" data-name="Trazado 81165" d="M330.217,328.54l69.045,39.846a11.355,11.355,0,0,0,10.268-.035l33.356-19.393a3.626,3.626,0,0,0,2.126-3c.011,1.88.021.94.032,2.818a3.626,3.626,0,0,1-2.124,3L409.563,371.17a11.349,11.349,0,0,1-10.267.036L330.25,331.36a3.6,3.6,0,0,1-2.109-2.944c-.011-1.881-.021-.94-.033-2.819A3.593,3.593,0,0,0,330.217,328.54Z" transform="translate(-328.107 -301.957)" fill="#e8e8e8"/>
              <g id="Grupo_32923" data-name="Grupo 32923">
                <path id="Trazado_81166" data-name="Trazado 81166" d="M363.594,297.925a11.35,11.35,0,0,1,10.263-.031L442.9,337.737c2.821,1.629,2.81,4.3-.016,5.946L409.53,363.076a11.355,11.355,0,0,1-10.268.035l-69.045-39.846c-2.821-1.628-2.811-4.3.02-5.946Z" transform="translate(-328.107 -296.683)" fill="url(#linear-gradient-11)"/>
              </g>
            </g>
          </g>
          <path id="Trazado_81167" data-name="Trazado 81167" d="M439.276,339.116l-65.953-38.05a4.546,4.546,0,0,0-4.106.013L360.93,305.9l1.939,1.163a1.133,1.133,0,0,1-.011,1.951l-10.678,6.23a5.372,5.372,0,0,1-5.473-.033l-.881-.528-10.2,5.933a1.257,1.257,0,0,0-.006,2.376l65.952,38.051a4.544,4.544,0,0,0,4.106-.011l33.6-19.533A1.259,1.259,0,0,0,439.276,339.116Z" transform="translate(-329.323 -297.394)" fill="#f3f9ff"/>
        </g>
        <g id="Grupo_32937" data-name="Grupo 32937" transform="translate(29.552 3.537)">
          <g id="Grupo_32931" data-name="Grupo 32931" style="isolation: isolate">
            <path id="Trazado_81168" data-name="Trazado 81168" d="M380.718,310.53q.558-.322,1.144-.63c.111-.058.229-.114.342-.171.281-.145.563-.289.853-.428.158-.075.322-.146.482-.219.253-.117.5-.235.762-.347.178-.078.362-.15.543-.225.246-.1.49-.208.741-.307l.008,0,.041-.016c.379-.149.767-.292,1.158-.433l.353-.123q.472-.164.955-.321c.106-.034.211-.069.318-.1.392-.123.786-.243,1.187-.357l.061-.016q.786-.222,1.6-.423c.126-.031.255-.058.382-.088.417-.1.836-.2,1.262-.285l.17-.038c.175-.036.354-.066.53-.1.284-.056.568-.112.856-.163.244-.044.49-.083.736-.123.289-.047.576-.094.867-.137.086-.012.17-.028.256-.04.182-.025.366-.046.549-.069.254-.034.509-.067.766-.1.276-.032.555-.061.834-.088.259-.026.518-.053.778-.076.083-.007.164-.016.245-.024.205-.016.413-.027.619-.042.253-.018.506-.037.761-.052.293-.017.589-.029.885-.042.255-.011.509-.023.766-.029.065,0,.13-.007.2-.008q.655-.016,1.316-.018l.038,13.43c-.507,0-1.011.011-1.513.025-.257.007-.511.02-.766.03-.3.012-.591.024-.885.041-.255.015-.508.033-.761.051-.289.021-.577.041-.863.066-.261.023-.52.049-.779.075-.279.029-.557.056-.833.089-.258.029-.512.063-.767.1s-.538.071-.805.11c-.291.043-.579.089-.867.137-.246.04-.493.08-.737.123-.288.052-.572.107-.855.163-.234.046-.469.091-.7.139-.425.09-.845.186-1.262.285-.126.03-.256.057-.381.088q-.809.2-1.6.423-.633.179-1.249.374l-.318.1q-.482.156-.955.32l-.353.124c-.391.14-.778.284-1.159.433l-.039.015c-.262.1-.514.212-.77.318-.173.073-.351.141-.522.216-.262.114-.517.235-.773.352-.156.072-.316.141-.47.215-.29.138-.572.284-.854.428-.113.058-.23.113-.341.171q-.585.308-1.145.631a24.227,24.227,0,0,0-6.476,5.246,15.336,15.336,0,0,0-2.015,3.038q-.113.224-.214.451a12.128,12.128,0,0,0-.66,1.845,11.256,11.256,0,0,0-.281,1.418,10.736,10.736,0,0,0-.091,1.442h0l-.038-13.429C370.956,318.8,374.68,314.017,380.718,310.53Z" transform="translate(-365.479 -301.717)" fill="url(#linear-gradient-12)"/>
            <path id="Trazado_81169" data-name="Trazado 81169" d="M369.753,328.225l.038,13.429-5.5-.012-.038-13.43Z" transform="translate(-364.252 -305.971)" fill="url(#linear-gradient-12)"/>
            <g id="Grupo_32928" data-name="Grupo 32928">
              <g id="Grupo_32927" data-name="Grupo 32927">
                <path id="Trazado_81170" data-name="Trazado 81170" d="M375.55,307.641c-7.3,4.216-10.948,9.469-11.3,15.61l5.5.013c-.024-5.167,3.7-9.953,9.738-13.44,5.969-3.446,14.2-5.623,23.317-5.642-.007-1.037-.016-2.073-.025-3.171-9.048.074-17.263,1.707-24.319,5.1Q376.922,306.849,375.55,307.641Z" transform="translate(-364.252 -301.009)" fill="#37a3a5"/>
              </g>
            </g>
            <path id="Trazado_81171" data-name="Trazado 81171" d="M393.342,316.269q.381-.22.772-.425c.083-.043.168-.084.251-.127.18-.092.358-.183.54-.271.106-.052.216-.1.323-.148.163-.075.324-.151.488-.222.119-.052.24-.1.359-.149.146-.06.289-.123.437-.181l.029-.011c.352-.138.71-.267,1.071-.391l.292-.1q.428-.141.867-.269c.064-.019.124-.04.188-.058l.123-.033c.217-.061.437-.118.657-.174.11-.028.22-.058.331-.085q.461-.112.932-.21l.071-.016.006,0q.487-.1.984-.187l.312-.049c.23-.038.459-.076.692-.11l.048-.007c.119-.016.24-.029.359-.045.2-.027.408-.055.615-.078.147-.017.3-.03.444-.046.2-.02.4-.04.6-.057l.1-.01c.106-.009.216-.014.323-.022.224-.016.448-.033.675-.046l.457-.022c.219-.01.439-.019.661-.025.069,0,.138-.007.208-.008.2,0,.4-.009.6-.011.008-1.06.012-2.1.018-3.14l.038,13.429c-.007,1.04-.01,2.08-.018,3.14-.271,0-.54.011-.809.019q-.331.01-.661.026c-.152.007-.3.013-.457.022-.226.012-.451.029-.675.045l-.425.032c-.2.017-.4.038-.6.058-.148.015-.3.029-.444.045-.207.024-.411.051-.616.078-.136.018-.272.034-.406.053-.233.033-.464.071-.693.109-.1.017-.208.032-.311.05q-.5.086-.984.187l-.07.016q-.473.1-.938.212c-.111.027-.221.056-.331.085-.22.056-.44.113-.657.173l-.31.091q-.438.129-.867.27c-.1.032-.195.063-.292.1-.361.123-.719.253-1.07.39-.158.062-.312.128-.468.193-.119.049-.24.1-.357.147-.165.072-.327.148-.49.223-.107.049-.216.1-.321.147-.18.086-.356.177-.532.267-.086.044-.174.086-.26.131q-.39.206-.771.426c-4.095,2.366-6.1,5.26-6.236,8.584l-.038-13.429C387.242,321.529,389.248,318.635,393.342,316.269Z" transform="translate(-368.421 -302.565)" fill="url(#linear-gradient-12)"/>
            <path id="Trazado_81172" data-name="Trazado 81172" d="M385.894,328.27l.038,13.429H380.5l-.038-13.429C382.286,328.27,384.064,328.268,385.894,328.27Z" transform="translate(-367.209 -305.981)" fill="url(#linear-gradient-12)"/>
            <g id="Grupo_32930" data-name="Grupo 32930" transform="translate(13.253 6.973)">
              <g id="Grupo_32929" data-name="Grupo 32929">
                <path id="Trazado_81173" data-name="Trazado 81173" d="M388.276,314.012c-4.784,2.762-7.834,6.584-7.814,10.841,1.824,0,3.6,0,5.432,0,.136-3.324,2.142-6.219,6.236-8.585a30,30,0,0,1,14.815-3.589c.008-1.06.012-2.1.018-3.14A37.542,37.542,0,0,0,388.276,314.012Z" transform="translate(-380.462 -309.538)" fill="#37a3a5"/>
              </g>
            </g>
          </g>
          <g id="Grupo_32934" data-name="Grupo 32934" transform="translate(26.454 13.748)" style="isolation: isolate">
            <path id="Trazado_81174" data-name="Trazado 81174" d="M406.02,322.563q.34-.194.7-.364c.079-.038.163-.069.243-.105.154-.069.3-.139.463-.2l.027-.01.091-.034c.2-.075.4-.145.605-.21l.2-.061c.059-.017.116-.038.176-.055s.15-.035.223-.055c.179-.047.36-.092.543-.132.06-.013.116-.031.176-.043s.138-.022.206-.035q.239-.047.485-.084c.074-.012.146-.028.222-.038s.127-.013.188-.021c.168-.022.338-.04.51-.056.085-.009.168-.021.253-.029.052,0,.107,0,.159-.008.206-.016.415-.025.625-.034.092,0,.18-.012.273-.015l.229,0c.011-.132.023-.24.026-.348.025-.93.046-1.863.071-2.794l.038,13.43c-.024.93-.046,1.863-.071,2.793,0,.11-.015.217-.025.349-.17,0-.335.012-.5.019-.211.008-.42.018-.625.033-.14.011-.276.024-.414.037-.171.017-.342.035-.509.056-.138.018-.275.038-.41.06q-.245.038-.486.084c-.128.025-.255.051-.381.078-.184.041-.365.086-.544.133-.133.035-.267.07-.4.11l-.2.06q-.308.1-.605.211l-.09.033c-.167.065-.328.139-.49.211-.08.036-.164.068-.243.106q-.357.169-.7.364c-1.815,1.047-2.7,2.327-2.777,3.77l-.038-13.429C403.324,324.891,404.2,323.611,406.02,322.563Z" transform="translate(-397.818 -317.824)" fill="url(#linear-gradient-12)"/>
            <path id="Trazado_81175" data-name="Trazado 81175" d="M396.61,328.213l5.422-.008.038,13.429c-1.837,0-3.629.007-5.422.008v-.011c0-.04,0-.08,0-.119l-.038-13.43C396.608,328.125,396.609,328.169,396.61,328.213Z" transform="translate(-396.608 -319.695)" fill="url(#linear-gradient-12)"/>
            <g id="Grupo_32933" data-name="Grupo 32933" transform="translate(0)">
              <g id="Grupo_32932" data-name="Grupo 32932">
                <path id="Trazado_81176" data-name="Trazado 81176" d="M400.928,320.332c-2.707,1.563-4.391,3.709-4.318,6.009l5.422-.008c.081-1.443.961-2.723,2.777-3.771a13.431,13.431,0,0,1,6.588-1.6c.011-.132.023-.24.026-.348.025-.93.046-1.863.071-2.794A21.051,21.051,0,0,0,400.928,320.332Z" transform="translate(-396.608 -317.823)" fill="#37a3a5"/>
              </g>
            </g>
          </g>
          <g id="Grupo_32936" data-name="Grupo 32936" transform="translate(37.394 20.078)" style="isolation: isolate">
            <path id="Trazado_81177" data-name="Trazado 81177" d="M410,328.186c0,.038.007.074.013.112s.015.06.023.09.018.071.03.106.024.058.036.087.033.074.052.11.031.052.047.078c.025.042.052.083.083.123.018.025.038.048.058.072a2.1,2.1,0,0,0,.15.161c.02.019.038.038.059.057s.072.061.109.09.064.053.1.079.084.057.128.085.087.059.134.086a3.46,3.46,0,0,0,.334.169c.034.016.067.029.1.043.091.038.184.074.279.105.034.011.068.025.1.035.06.019.121.035.181.051s.092.026.14.038c.065.016.13.029.2.042.045.009.089.02.134.028.132.023.267.042.4.056.041,0,.083.007.125.011.079.007.159.012.24.016l.154,0c.065,0,.129,0,.194,0l.163,0c.06,0,.119,0,.178-.009l.164-.014.177-.02.159-.023c.063-.01.125-.02.187-.033l.147-.029c.074-.016.147-.034.22-.054l.121-.033c.13-.038.258-.08.38-.128l.05-.021a3.725,3.725,0,0,0,.481-.231,1.772,1.772,0,0,0,1.046-1.46l.038,13.429a1.773,1.773,0,0,1-1.046,1.461,3.833,3.833,0,0,1-.481.231l-.031.015-.019.007q-.185.071-.38.128l-.031.01c-.029.009-.06.015-.091.023-.072.019-.146.038-.22.053-.02,0-.038.011-.059.015s-.059.01-.087.016c-.062.011-.125.023-.188.033-.025,0-.05.009-.075.013s-.056.006-.083.009l-.177.02-.084.01-.079,0-.18.01-.091,0h-.072c-.065,0-.128,0-.193,0h-.1l-.057,0c-.079,0-.159-.009-.239-.016-.032,0-.065,0-.1-.006l-.029,0c-.136-.015-.27-.033-.4-.056l-.02,0-.116-.025c-.065-.013-.13-.026-.194-.042-.047-.011-.093-.025-.141-.038s-.122-.034-.182-.052l-.038-.011-.063-.024c-.095-.033-.188-.068-.279-.106l-.1-.043a3.644,3.644,0,0,1-.334-.169l-.043-.025c-.033-.02-.061-.042-.092-.061s-.087-.056-.127-.085-.066-.052-.1-.078-.074-.059-.109-.089c-.007-.007-.015-.012-.021-.018s-.024-.027-.037-.04a1.965,1.965,0,0,1-.15-.161c-.01-.012-.023-.023-.033-.035s-.016-.025-.025-.037c-.03-.04-.057-.082-.083-.123-.011-.017-.025-.034-.034-.051s-.008-.018-.013-.027c-.02-.037-.035-.074-.052-.11-.009-.021-.022-.042-.03-.064a.225.225,0,0,0-.007-.023c-.012-.034-.02-.07-.03-.105s-.016-.047-.02-.071l0-.02c-.007-.037-.009-.074-.012-.112s-.007-.047-.008-.072v-.031l-.038-13.43C409.989,328.118,409.994,328.152,410,328.186Z" transform="translate(-409.988 -326.021)" fill="url(#linear-gradient-12)"/>
            <g id="Grupo_32935" data-name="Grupo 32935">
              <path id="Trazado_81178" data-name="Trazado 81178" d="M411.034,326.167c-1.387.8-1.395,2.1-.016,2.9a5.516,5.516,0,0,0,5.009,0c1.387-.8,1.4-2.1.016-2.9A5.519,5.519,0,0,0,411.034,326.167Z" transform="translate(-409.988 -325.566)" fill="#37a3a5"/>
            </g>
          </g>
        </g>
      </g>
      <g id="Grupo_33035" data-name="Grupo 33035" transform="translate(404.784 89.073)">
        <g id="Grupo_33032" data-name="Grupo 33032" transform="translate(27.943 65.581)">
          <g id="Grupo_33019" data-name="Grupo 33019" transform="translate(77.244 101.458)">
            <path id="Trazado_81219" data-name="Trazado 81219" d="M604.515,294.929l-.059,20.91-53.911,31.33.059-20.91Z" transform="translate(-550.545 -294.929)" fill="url(#linear-gradient-19)"/>
          </g>
          <path id="Trazado_81220" data-name="Trazado 81220" d="M533.371,323.3l-.059,20.91-77.244-44.6.059-20.91Z" transform="translate(-456.068 -190.512)" fill="url(#linear-gradient-20)"/>
          <g id="Grupo_33020" data-name="Grupo 33020" transform="translate(4.097 96.195)">
            <path id="Trazado_81221" data-name="Trazado 81221" d="M530.187,328.272l-.047,11.015a.633.633,0,0,1-.95.546L461.4,300.691a.633.633,0,0,1-.317-.551l.047-11.016a.634.634,0,0,1,.951-.545l67.794,39.141A.631.631,0,0,1,530.187,328.272Z" transform="translate(-461.079 -288.493)" fill="#21587b"/>
            <path id="Trazado_81222" data-name="Trazado 81222" d="M463.133,299.821l.031-7.154a.633.633,0,0,1,.95-.546l64.451,37.211a.633.633,0,0,1,.317.551l-.03,7.155a.634.634,0,0,1-.951.546L463.45,300.373A.635.635,0,0,1,463.133,299.821Z" transform="translate(-461.454 -289.139)" fill="url(#linear-gradient-2)"/>
          </g>
          <g id="Grupo_33021" data-name="Grupo 33021" transform="translate(0.059 56.861)">
            <path id="Trazado_81223" data-name="Trazado 81223" d="M587.3,284.98l-53.911,31.33-77.244-44.6,53.911-31.33Z" transform="translate(-456.14 -240.383)" fill="url(#linear-gradient-22)"/>
          </g>
          <path id="Trazado_81224" data-name="Trazado 81224" d="M528.333,310.135a4.688,4.688,0,0,1,4.239,0,1.292,1.292,0,0,1,0,2.448,4.688,4.688,0,0,1-4.239,0A1.292,1.292,0,0,1,528.333,310.135Z" transform="translate(-469.089 -196.153)" fill="#37a3a5"/>
          <path id="Trazado_81225" data-name="Trazado 81225" d="M537.016,315.114a4.688,4.688,0,0,1,4.239,0,1.292,1.292,0,0,1,0,2.448,4.689,4.689,0,0,1-4.239,0A1.292,1.292,0,0,1,537.016,315.114Z" transform="translate(-470.673 -197.061)" fill="#37a3a5"/>
          <path id="Trazado_81226" data-name="Trazado 81226" d="M547.038,320.813a4.687,4.687,0,0,1,4.238,0,1.292,1.292,0,0,1,0,2.448,4.687,4.687,0,0,1-4.238,0A1.292,1.292,0,0,1,547.038,320.813Z" transform="translate(-472.501 -198.1)" fill="#37a3a5"/>
          <path id="Trazado_81227" data-name="Trazado 81227" d="M509.629,299.425a4.688,4.688,0,0,1,4.239,0,1.292,1.292,0,0,1,0,2.448,4.688,4.688,0,0,1-4.239,0A1.292,1.292,0,0,1,509.629,299.425Z" transform="translate(-465.677 -194.199)" fill="#ebf4fb"/>
          <path id="Trazado_81228" data-name="Trazado 81228" d="M518.312,304.4a4.687,4.687,0,0,1,4.238,0,1.292,1.292,0,0,1,0,2.448,4.687,4.687,0,0,1-4.238,0A1.292,1.292,0,0,1,518.312,304.4Z" transform="translate(-467.261 -195.107)" fill="#ebf4fb"/>
          <g id="Grupo_33024" data-name="Grupo 33024" transform="translate(104.44 30.685)">
            <path id="Trazado_81229" data-name="Trazado 81229" d="M591.8,293.755l9.976-6.025-6.026-3.479-10.354,5.9Z" transform="translate(-584.097 -222.209)" opacity="0.7" fill="url(#linear-gradient-23)" style="mix-blend-mode: multiply;isolation: isolate"/>
            <g id="Grupo_33023" data-name="Grupo 33023">
              <path id="Trazado_81230" data-name="Trazado 81230" d="M591.73,210.44a1.464,1.464,0,0,1-.777,1.179,3.88,3.88,0,0,1-1.565.523,5.256,5.256,0,0,1-1.236,0l-.024,0a3.741,3.741,0,0,1-1.712-.607,1.422,1.422,0,0,1-.666-1.079l-1.941,67.433a1.736,1.736,0,0,0,.082.487c.012.039.025.078.039.118a2.307,2.307,0,0,0,.523.81c.036.037.083.071.122.107s.078.069.119.1a3.958,3.958,0,0,0,.566.4,5.242,5.242,0,0,0,.7.334c.072.029.146.054.22.08.19.067.383.127.583.178.075.019.15.04.227.057a7.82,7.82,0,0,0,.828.142l.052,0c.266.029.535.042.8.045.085,0,.168,0,.253,0,.216,0,.43-.016.644-.036.079-.007.157-.012.235-.022a7.407,7.407,0,0,0,.827-.141c.218-.051.424-.12.63-.189.081-.027.168-.045.246-.075a5.439,5.439,0,0,0,.8-.374,2.5,2.5,0,0,0,1.47-2.055S591.73,210.448,591.73,210.44Z" transform="translate(-583.808 -208.746)" fill="url(#linear-gradient-24)"/>
              <g id="Grupo_33022" data-name="Grupo 33022" transform="translate(1.904)">
                <path id="Trazado_81231" data-name="Trazado 81231" d="M587.032,208.883a1.314,1.314,0,0,0-.012,2.486,4.732,4.732,0,0,0,4.292,0,1.314,1.314,0,0,0,.014-2.486A4.73,4.73,0,0,0,587.032,208.883Z" transform="translate(-586.137 -208.368)" fill="#21587b"/>
              </g>
            </g>
          </g>
          <g id="Grupo_33027" data-name="Grupo 33027" transform="translate(50.67)">
            <path id="Trazado_81232" data-name="Trazado 81232" d="M526.413,256.014l9.976-6.025-6.026-3.479-10.354,5.9Z" transform="translate(-518.401 -184.64)" opacity="0.7" fill="url(#linear-gradient-23)" style="mix-blend-mode: multiply;isolation: isolate"/>
            <g id="Grupo_33026" data-name="Grupo 33026">
              <path id="Trazado_81233" data-name="Trazado 81233" d="M525.964,172.909a1.466,1.466,0,0,1-.777,1.179,3.867,3.867,0,0,1-1.566.522,5.205,5.205,0,0,1-1.235.006l-.025,0a3.761,3.761,0,0,1-1.712-.607,1.42,1.42,0,0,1-.666-1.08l-1.941,67.434a1.746,1.746,0,0,0,.082.487c.011.039.025.078.039.117a2.3,2.3,0,0,0,.523.811c.036.037.083.07.121.106s.078.07.119.1a3.992,3.992,0,0,0,.565.4,5.511,5.511,0,0,0,.7.334c.072.029.146.054.22.08.189.067.383.127.583.177.075.02.149.041.227.058a7.841,7.841,0,0,0,.827.141c.018,0,.036,0,.053,0,.266.029.535.042.8.045.085,0,.168,0,.253,0,.216,0,.43-.016.644-.036.078-.007.156-.012.235-.022a7.807,7.807,0,0,0,.827-.141c.218-.051.424-.12.63-.19.081-.027.168-.045.246-.074a5.465,5.465,0,0,0,.8-.374,2.5,2.5,0,0,0,1.471-2.055S525.964,172.916,525.964,172.909Z" transform="translate(-518.042 -171.215)" fill="url(#linear-gradient-24)"/>
              <g id="Grupo_33025" data-name="Grupo 33025" transform="translate(1.904)">
                <path id="Trazado_81234" data-name="Trazado 81234" d="M521.266,171.351a1.314,1.314,0,0,0-.012,2.486,4.727,4.727,0,0,0,4.292,0,1.313,1.313,0,0,0,.014-2.486A4.733,4.733,0,0,0,521.266,171.351Z" transform="translate(-520.371 -170.837)" fill="#21587b"/>
              </g>
            </g>
          </g>
          <g id="Grupo_33031" data-name="Grupo 33031" transform="translate(79.55 109.616)">
            <g id="Grupo_33028" data-name="Grupo 33028">
              <path id="Trazado_81235" data-name="Trazado 81235" d="M553.8,333.547a.433.433,0,0,1-.213-.809L602.5,304.965a.433.433,0,1,1,.427.752L554.012,333.49A.424.424,0,0,1,553.8,333.547Z" transform="translate(-553.365 -304.908)" fill="#21587b"/>
            </g>
            <g id="Grupo_33029" data-name="Grupo 33029" transform="translate(0 3.32)">
              <path id="Trazado_81236" data-name="Trazado 81236" d="M553.8,337.608a.433.433,0,0,1-.213-.809L602.5,309.026a.432.432,0,1,1,.427.751l-48.914,27.774A.424.424,0,0,1,553.8,337.608Z" transform="translate(-553.365 -308.968)" fill="#21587b"/>
            </g>
            <g id="Grupo_33030" data-name="Grupo 33030" transform="translate(0 6.64)">
              <path id="Trazado_81237" data-name="Trazado 81237" d="M553.8,341.669a.433.433,0,0,1-.213-.809L602.5,313.087a.433.433,0,1,1,.427.752l-48.914,27.773A.425.425,0,0,1,553.8,341.669Z" transform="translate(-553.365 -313.029)" fill="#21587b"/>
            </g>
          </g>
        </g>
        <g id="Grupo_33033" data-name="Grupo 33033" transform="translate(0 97.362)">
          <path id="Trazado_81238" data-name="Trazado 81238" d="M424.44,323.863a.533.533,0,0,1-.523-.441c-.1-.589-9.875-59.32,14.424-91.988,9.063-12.185,21.773-19.35,37.778-21.3,13.471-1.641,25.212,1.456,34.9,9.2,22.473,17.951,26.523,55.341,26.561,55.717a.531.531,0,1,1-1.056.108c-.038-.372-4.049-37.327-26.171-55-9.46-7.555-20.937-10.571-34.108-8.971-15.706,1.912-28.172,8.936-37.054,20.878-24.029,32.307-14.33,90.588-14.229,91.173a.532.532,0,0,1-.433.615A.579.579,0,0,1,424.44,323.863Z" transform="translate(-421.891 -209.708)" fill="#21587b"/>
        </g>
        <g id="Grupo_33034" data-name="Grupo 33034" transform="translate(9.762)">
          <path id="Trazado_81239" data-name="Trazado 81239" d="M523.392,179.479c-2.18-24.362-6.526-44.076-12.921-58.594-8.036-18.246-19.351-28.316-33.629-29.933-12.025-1.363-21.738,1.544-28.895,8.635-11.562,11.458-13.881,31.508-14.117,43.856.284-.1.572-.2.862-.29.262-12.23,2.594-31.791,13.863-42.957,6.962-6.9,16.444-9.718,28.19-8.391,13.952,1.581,25.033,11.48,32.937,29.422,6.358,14.431,10.682,34.052,12.853,58.318,3.7,41.361-.2,82.4-.242,82.812a.432.432,0,0,0,.387.47l.042,0a.431.431,0,0,0,.428-.388C523.189,262.03,527.1,220.918,523.392,179.479Z" transform="translate(-433.83 -90.625)" fill="#21587b"/>
        </g>
      </g>
      <path id="Trazado_81240" data-name="Trazado 81240" d="M351.92,315.582a1.167,1.167,0,0,0,1.066-.059l10.3-6-.432-.289a.955.955,0,0,0-1.015-.03l-10.475,6.129Z" transform="translate(-4.242 -41.397)" fill="url(#linear-gradient-27)"/>
    </g>
  </g>
</svg>
