<svg xmlns="http://www.w3.org/2000/svg" xmlns:xlink="http://www.w3.org/1999/xlink" width="91.927" height="91.927" viewBox="0 0 91.927 91.927">
  <defs>
    <radialGradient id="radial-gradient" cx="0.076" cy="0.019" r="1.465" gradientTransform="translate(0.001)" gradientUnits="objectBoundingBox">
      <stop offset="0" stop-color="#f6f6f7"/>
      <stop offset="0.477" stop-color="#f9f9fa"/>
      <stop offset="0.715" stop-color="#fff"/>
    </radialGradient>
  </defs>
  <g id="Grupo_46263" data-name="Grupo 46263" transform="translate(-217 -741.333)">
    <g id="Grupo_42274" data-name="Grupo 42274" transform="translate(142 768.333)">
      <g id="Grupo_18423" data-name="Grupo 18423" transform="translate(75 -27)">
        <g id="Grupo_18421" data-name="Grupo 18421">
          <g id="Grupo_18420" data-name="Grupo 18420">
            <g id="Grupo_18419" data-name="Grupo 18419">
              <path id="Trazado_40936" data-name="Trazado 40936" d="M286.55,2191.684a45.964,45.964,0,1,1-45.963-45.962A45.963,45.963,0,0,1,286.55,2191.684Z" transform="translate(-194.623 -2145.721)" fill="#fff"/>
            </g>
          </g>
        </g>
        <path id="Trazado_40937" data-name="Trazado 40937" d="M286.23,2191.334a45.963,45.963,0,1,0-45.963,45.965A45.782,45.782,0,0,0,286.23,2191.334Z" transform="translate(-194.303 -2145.372)" fill="url(#radial-gradient)"/>
        <path id="Trazado_40938" data-name="Trazado 40938" d="M272.56,2188.562a35.084,35.084,0,1,0-35.084,35.084A34.953,34.953,0,0,0,272.56,2188.562Z" transform="translate(-191.373 -2142.446)" fill="none" stroke="#37a3a5" stroke-miterlimit="10" stroke-width="4"/>
        <g id="Grupo_18422" data-name="Grupo 18422" transform="translate(8.143 25.805)">
          <path id="Trazado_40939" data-name="Trazado 40939" d="M279.682,2164.488a45.969,45.969,0,0,1-79.137,45.773,45.823,45.823,0,0,0,79.137-45.773Z" transform="translate(-200.545 -2164.488)" fill="#eceef0"/>
        </g>
      </g>
    </g>
    <g id="RNGu9o" transform="translate(136.168 192.696)">
      <g id="Grupo_54529" data-name="Grupo 54529" transform="translate(102.632 577.141)">
        <path id="Trazado_117726" data-name="Trazado 117726" d="M127.226,604.728H107.071c-.558,0-.811-.245-.811-.8q0-10.29,0-20.58c0-1.032-.023-2.068.06-3.093a3.329,3.329,0,0,1,1.707-2.6,3.485,3.485,0,0,1,1.885-.513q17.318,0,34.637.005a3.436,3.436,0,0,1,3.323,2.127,3.63,3.63,0,0,1,.327,1.464q.029,11.608.012,23.215c0,.532-.258.777-.8.777H127.226Zm19.655-1.359V602.9q0-9.6,0-19.2c0-.942.036-1.886.019-2.828a2.31,2.31,0,0,0-.584-1.638,2.465,2.465,0,0,0-1.832-.756q-17.221.015-34.44.007a3.942,3.942,0,0,0-.4.008,2.227,2.227,0,0,0-2.035,2.034c-.062,1.1-.018,2.21-.018,3.316q0,9.466,0,18.931v.587Z" transform="translate(-103.069 -577.141)" fill="#12263f"/>
        <path id="Trazado_117727" data-name="Trazado 117727" d="M131.514,611.671a1.426,1.426,0,0,1,1.582-1.4h16.98c.71,0,.883.2.87.9-.015.822-.025,1.646.011,2.468a2.43,2.43,0,0,1-2.42,2.41c-.165,0-.33,0-.5,0H105.288a2.454,2.454,0,0,1-2.593-1.933,6.038,6.038,0,0,1-.063-1.178c0-.638.014-1.275.026-1.911.01-.555.209-.759.761-.757,1.494,0,2.989.024,4.484.022,3.991,0,7.983-.019,11.974-.016a2.536,2.536,0,0,1,.981.193,1.127,1.127,0,0,1,.659.963c.02.19.106.24.273.239q1.186-.005,2.373-.007,1.662,0,3.325,0Zm-11.345-.067H104.382c-.425,0-.434,0-.436.436s.053.9.011,1.35a1.222,1.222,0,0,0,1.316,1.321q21.492-.025,42.986-.012c.1,0,.2,0,.3,0a1.01,1.01,0,0,0,1.033-.846c.064-.734.017-1.477.017-2.275-.742,0-1.464,0-2.185,0-1.437.007-2.873.024-4.311.026q-4.355.007-8.709,0c-.419,0-.836,0-1.254,0-.161,0-.252.024-.288.219a1.318,1.318,0,0,1-1.4,1.172q-4.916.008-9.831,0a1.341,1.341,0,0,1-1.424-1.229C120.194,611.722,120.184,611.681,120.169,611.6Z" transform="translate(-102.632 -581.133)" fill="#12263f"/>
        <path id="Trazado_117728" data-name="Trazado 117728" d="M127.5,601.146h-17.22c-.624,0-.875-.238-.875-.842q0-8.3.005-16.59c0-.747.011-1.494.014-2.242a.706.706,0,0,1,.653-.765,2.079,2.079,0,0,1,.3-.011q5.773,0,11.546,0c1.4,0,2.808.025,4.212.025,1.548,0,3.1-.024,4.643-.025q6.991,0,13.98,0a.736.736,0,0,1,.809.814q0,9.4,0,18.8c0,.616-.242.837-.91.837Zm16.708-19.111H110.767v17.737h33.439Z" transform="translate(-103.447 -577.569)" fill="#12263f"/>
      </g>
    </g>
  </g>
</svg>
