<svg xmlns="http://www.w3.org/2000/svg" width="724.346" height="377.135" viewBox="0 0 724.346 377.135">
  <g id="Grupo_54406" data-name="Grupo 54406" transform="translate(557.967 -912.562)">
    <g id="Group_54360" data-name="Group 54360" transform="translate(-317.617 1129.094)">
      <path id="Path_116867" data-name="Path 116867" d="M-400.25,1035.012h2.782a1.32,1.32,0,0,1,1.378,1.263.636.636,0,0,1,0,.1c.01.875,0,1.749,0,2.626v.307h4.91a2.668,2.668,0,0,1,2.8,2.529,2.311,2.311,0,0,1,0,.263v16.946a2.672,2.672,0,0,1-2.593,2.749c-.051,0-.1,0-.148,0h-1.166v3.408q-.015,2.278-.038,4.557a1.311,1.311,0,0,1-1.294,1.327h-6.451a1.31,1.31,0,0,1-1.36-1.253c0-.041,0-.082,0-.125v-2.928h-48.7c0,.1-.013.2-.013.289v2.573a1.346,1.346,0,0,1-1.245,1.44,1.292,1.292,0,0,1-.194,0h-6.257a1.329,1.329,0,0,1-1.437-1.207,1.433,1.433,0,0,1,0-.21v-7.883H-460a11.692,11.692,0,0,1-2-.11,2.559,2.559,0,0,1-1.969-2.539v-16.994a2.676,2.676,0,0,1,2.508-2.831c.1-.005.207-.005.309,0h5.268v-2.913a1.317,1.317,0,0,1,1.245-1.381,1.3,1.3,0,0,1,.138,0h3.288V998.666A1.317,1.317,0,0,1-450,997.257a1.334,1.334,0,0,1,1.437,1.22l0,.074c.013.337,0,.673,0,1.007v35.459h3.076a1.323,1.323,0,0,1,1.371,1.273.616.616,0,0,1,0,.1v2.9h36.957c0-.094.013-.189.013-.284,0-.821.018-1.641,0-2.465a1.41,1.41,0,0,1,1.273-1.534,1.588,1.588,0,0,1,.248,0c.854.041,1.713,0,2.57,0a.4.4,0,0,0,.092-.02V998.669a1.345,1.345,0,0,1,1.263-1.424,1.385,1.385,0,0,1,.529.074,1.405,1.405,0,0,1,.892,1.424v10.791c0,.775-.026,1.55-.033,2.322,0,.248.033.494.033.742v22.136Zm-61.021,24.1h70.209v-17.1h-70.209Zm66.294,2.688h-61.594v2.307h61.594Zm-58.214-24.113v1.6h6.431v-1.6Zm54.419,0h-5.656v1.6h5.656ZM-456.58,1068.4h3.754v-1.611h-3.754Zm61.584-1.609h-3.749v1.613H-395Z" transform="translate(463.972 -997.242)" fill="#12263f"/>
      <path id="Path_116876" data-name="Path 116876" d="M-431.507,1027.127h-22.029a1.342,1.342,0,0,1-1.437-.995,1.45,1.45,0,0,1-.041-.391v-7.316c0-.519.008-1.038.018-1.56a1.291,1.291,0,0,1,1.161-1.117l41.611-.026h2.7a1.394,1.394,0,0,1,1.552,1.215,1.4,1.4,0,0,1,0,.343v8.323a1.367,1.367,0,0,1-1.189,1.527,1.385,1.385,0,0,1-.327,0h-22Zm20.84-8.717h-41.677v6.027h41.677Z" transform="translate(477.918 -968.484)" fill="#12263f"/>
      <path id="Path_116877" data-name="Path 116877" d="M-454.573,1021.422v4.291a1.357,1.357,0,0,1-1.294,1.414h-.046a1.338,1.338,0,0,1-1.322-1.35l0-.046c0-1.248.015-2.493.015-3.738,0-1.624-.013-3.25-.015-4.874a1.333,1.333,0,0,1,1.258-1.4,1.334,1.334,0,0,1,1.4,1.258,1.579,1.579,0,0,1,0,.159c0,1.074-.013,2.153-.018,3.227v1.059Z" transform="translate(474.462 -968.483)" fill="#37a3a5"/>
      <path id="Path_116878" data-name="Path 116878" d="M-456.317,1021.427v4.316a1.325,1.325,0,0,1-1.294,1.36,1.331,1.331,0,0,1-1.363-1.3h0v-8.717a1.329,1.329,0,0,1,1.281-1.378,1.329,1.329,0,0,1,1.378,1.278v.087C-456.3,1018.53-456.317,1019.977-456.317,1021.427Z" transform="translate(471.753 -968.486)" fill="#37a3a5"/>
      <path id="Path_116880" data-name="Path 116880" d="M-447.735,1017.412a6.5,6.5,0,0,1,1.046.11,1.287,1.287,0,0,1,.915,1.4,1.312,1.312,0,0,1-1.232,1.174c-.511.02-1.023.023-1.534,0a1.3,1.3,0,0,1-1.207-1.376v0a1.31,1.31,0,0,1,1.271-1.271h.742Z" transform="translate(486.116 -965.837)" fill="#12263f"/>
      <path id="Path_116881" data-name="Path 116881" d="M-442.552,1017.417a6.485,6.485,0,0,1,1,.079,1.307,1.307,0,0,1,.977,1.417,1.32,1.32,0,0,1-1.258,1.179,9.834,9.834,0,0,1-1.734-.059,1.244,1.244,0,0,1-.982-1.44,1.32,1.32,0,0,1,1.279-1.146h.713Z" transform="translate(494.179 -965.829)" fill="#12263f"/>
      <path id="Path_116882" data-name="Path 116882" d="M-450.359,1020.086c-.238,0-.478.01-.713,0a1.332,1.332,0,0,1-1.263-1.4,1.332,1.332,0,0,1,1.327-1.263h1.3a1.328,1.328,0,0,1,1.332,1.324,1.33,1.33,0,0,1-1.263,1.332c-.238.013-.481,0-.716,0Z" transform="translate(482.087 -965.815)" fill="#37a3a5"/>
      <path id="Path_116883" data-name="Path 116883" d="M-445.149,1017.427h.662a1.33,1.33,0,0,1,1.319,1.258,1.314,1.314,0,0,1-1.181,1.383,11.292,11.292,0,0,1-1.665,0,1.3,1.3,0,0,1-1.146-1.36,1.329,1.329,0,0,1,1.271-1.279h.742Z" transform="translate(490.148 -965.813)" fill="#12263f"/>
      <path id="Path_116884" data-name="Path 116884" d="M-439.993,1017.417a6.857,6.857,0,0,1,1.023.082,1.319,1.319,0,0,1,.977,1.278,1.307,1.307,0,0,1-1.248,1.291c-.478.021-.949.033-1.422.023a1.33,1.33,0,0,1-1.312-1.345,1.33,1.33,0,0,1,1.348-1.312h.639Z" transform="translate(498.222 -965.829)" fill="#12263f"/>
    </g>
    <g id="Group_54360-2" data-name="Group 54360" transform="translate(-200.21 1060.87)">
      <path id="Path_116867-2" data-name="Path 116867" d="M-354.335,1008.331h2.782a1.325,1.325,0,0,1,1.378,1.263v.1c.01.874,0,1.749,0,2.626v.307h4.907a2.671,2.671,0,0,1,2.805,2.529c0,.087,0,.176,0,.263v16.945a2.674,2.674,0,0,1-2.6,2.749,1.321,1.321,0,0,1-.146,0h-1.168v3.409q-.012,2.278-.036,4.557a1.313,1.313,0,0,1-1.294,1.327h-6.454a1.306,1.306,0,0,1-1.358-1.253.979.979,0,0,1,0-.123v-2.93h-48.7c0,.1-.013.2-.013.289v2.572a1.35,1.35,0,0,1-1.248,1.44,1.2,1.2,0,0,1-.192,0h-6.257a1.326,1.326,0,0,1-1.437-1.207,1.449,1.449,0,0,1,0-.21V1035.1h-.721a11.637,11.637,0,0,1-2-.11,2.559,2.559,0,0,1-1.969-2.539v-16.994a2.675,2.675,0,0,1,2.508-2.831c.1-.005.207-.005.309,0h5.268v-2.912a1.319,1.319,0,0,1,1.245-1.381,1.3,1.3,0,0,1,.138,0h3.288V971.985a1.315,1.315,0,0,1,1.215-1.409,1.33,1.33,0,0,1,1.435,1.22l.005.074c.01.338,0,.673,0,1.008v35.459h3.076a1.325,1.325,0,0,1,1.371,1.276.583.583,0,0,1,0,.095v2.9h36.957c0-.095.013-.189.013-.284,0-.821.018-1.642,0-2.465a1.411,1.411,0,0,1,1.273-1.534,1.358,1.358,0,0,1,.248,0c.854.039,1.713,0,2.57,0a.505.505,0,0,0,.089-.023V971.988a1.347,1.347,0,0,1,1.263-1.424,1.391,1.391,0,0,1,.532.074,1.4,1.4,0,0,1,.892,1.424v10.793c0,.772-.028,1.547-.033,2.319,0,.248.031.5.031.742v22.136Zm-61.024,24.1h70.212v-17.1h-70.209Zm66.294,2.687h-61.592v2.309h61.592Zm-58.211-24.113v1.6h6.431v-1.6Zm54.419,0h-5.656v1.6h5.656Zm-57.81,30.716h3.756v-1.611h-3.756Zm61.587-1.609h-3.751v1.614h3.751Z" transform="translate(418.057 -970.561)" fill="#12263f"/>
      <path id="Path_116876-2" data-name="Path 116876" d="M-385.591,1000.445H-407.62a1.345,1.345,0,0,1-1.44-.995,1.549,1.549,0,0,1-.041-.391v-7.316c0-.519.008-1.038.021-1.557a1.292,1.292,0,0,1,1.161-1.12l41.611-.023h2.7a1.389,1.389,0,0,1,1.55,1.212,1.287,1.287,0,0,1,0,.343v8.323a1.367,1.367,0,0,1-1.189,1.527,1.412,1.412,0,0,1-.327,0h-22Zm20.837-8.717h-41.675v6.027h41.675Z" transform="translate(432.002 -941.801)" fill="#12263f"/>
      <path id="Path_116877-2" data-name="Path 116877" d="M-408.658,994.74v4.291a1.355,1.355,0,0,1-1.294,1.414H-410a1.336,1.336,0,0,1-1.322-1.35l0-.046c0-1.245.015-2.491.015-3.736,0-1.626-.013-3.25-.015-4.876a1.331,1.331,0,0,1,1.256-1.4,1.335,1.335,0,0,1,1.4,1.258,1.091,1.091,0,0,1,0,.159c0,1.074-.013,2.153-.018,3.23v1.059Z" transform="translate(428.547 -941.802)" fill="#37a3a5"/>
      <path id="Path_116878-2" data-name="Path 116878" d="M-410.4,994.746v4.316a1.328,1.328,0,0,1-1.3,1.36,1.326,1.326,0,0,1-1.36-1.294h0v-8.72a1.329,1.329,0,0,1,1.279-1.378,1.331,1.331,0,0,1,1.381,1.279v.087C-410.389,991.849-410.4,993.3-410.4,994.746Z" transform="translate(425.838 -941.805)" fill="#37a3a5"/>
      <path id="Path_116880-2" data-name="Path 116880" d="M-401.82,990.732a6.49,6.49,0,0,1,1.043.107,1.292,1.292,0,0,1,.918,1.4,1.314,1.314,0,0,1-1.235,1.174c-.509.023-1.023.023-1.532,0a1.294,1.294,0,0,1-1.207-1.376v0a1.311,1.311,0,0,1,1.271-1.271h.739Z" transform="translate(440.201 -939.154)" fill="#12263f"/>
      <path id="Path_116881-2" data-name="Path 116881" d="M-396.636,990.736a6.46,6.46,0,0,1,.995.079,1.31,1.31,0,0,1,.979,1.417,1.32,1.32,0,0,1-1.258,1.179,9.589,9.589,0,0,1-1.736-.059,1.248,1.248,0,0,1-.982-1.44,1.323,1.323,0,0,1,1.281-1.146h.713Z" transform="translate(448.263 -939.148)" fill="#12263f"/>
      <path id="Path_116882-2" data-name="Path 116882" d="M-404.444,993.4c-.238,0-.481.01-.716,0a1.329,1.329,0,0,1-1.261-1.394,1.333,1.333,0,0,1,1.327-1.266h1.3a1.33,1.33,0,0,1,1.332,1.325,1.33,1.33,0,0,1-1.266,1.332c-.238.013-.478,0-.713,0Z" transform="translate(436.172 -939.134)" fill="#37a3a5"/>
      <path id="Path_116883-2" data-name="Path 116883" d="M-399.234,990.746h.662A1.337,1.337,0,0,1-397.252,992a1.314,1.314,0,0,1-1.184,1.383,11.258,11.258,0,0,1-1.662,0,1.3,1.3,0,0,1-1.146-1.36,1.33,1.33,0,0,1,1.271-1.279h.739Z" transform="translate(444.233 -939.132)" fill="#12263f"/>
      <path id="Path_116884-2" data-name="Path 116884" d="M-394.078,990.736a6.831,6.831,0,0,1,1.023.082,1.319,1.319,0,0,1,.977,1.278,1.307,1.307,0,0,1-1.248,1.291c-.481.021-.949.033-1.422.023a1.329,1.329,0,0,1-1.312-1.345,1.328,1.328,0,0,1,1.345-1.312h.639Z" transform="translate(452.307 -939.148)" fill="#12263f"/>
    </g>
    <g id="Group_54360-3" data-name="Group 54360" transform="translate(-215.107 975.556)">
      <path id="Path_116867-3" data-name="Path 116867" d="M-360.161,974.967h2.782A1.323,1.323,0,0,1-356,976.23v.1c.01.872,0,1.747,0,2.624v.307h4.907a2.672,2.672,0,0,1,2.805,2.529,2.258,2.258,0,0,1,0,.263V999a2.672,2.672,0,0,1-2.6,2.749,1.319,1.319,0,0,1-.146,0H-352.2v3.409q-.011,2.279-.036,4.557a1.311,1.311,0,0,1-1.294,1.327h-6.454a1.308,1.308,0,0,1-1.358-1.253,1,1,0,0,1,0-.123v-2.93h-48.7c0,.1-.013.2-.013.289v2.572a1.348,1.348,0,0,1-1.248,1.44,1.2,1.2,0,0,1-.192,0h-6.257a1.327,1.327,0,0,1-1.437-1.207,1.434,1.434,0,0,1,0-.21v-7.883h-.721a11.636,11.636,0,0,1-2-.11,2.559,2.559,0,0,1-1.969-2.539V982.091a2.676,2.676,0,0,1,2.508-2.831c.1-.005.207-.005.309,0h5.268v-2.912a1.318,1.318,0,0,1,1.245-1.381c.046,0,.092,0,.138,0h3.288V938.621a1.316,1.316,0,0,1,1.215-1.409,1.33,1.33,0,0,1,1.435,1.22l.005.074c.01.338,0,.672,0,1.008v35.458h3.076a1.324,1.324,0,0,1,1.371,1.276.583.583,0,0,1,0,.095v2.9h36.957c0-.095.013-.189.013-.284,0-.821.018-1.642,0-2.465a1.411,1.411,0,0,1,1.273-1.534,1.337,1.337,0,0,1,.248,0c.854.038,1.713,0,2.57,0a.619.619,0,0,0,.092-.023V938.624a1.345,1.345,0,0,1,1.261-1.424,1.385,1.385,0,0,1,.532.074,1.406,1.406,0,0,1,.892,1.427v10.791c0,.772-.028,1.547-.033,2.319,0,.248.031.5.031.742v22.136Zm-61.021,24.1h70.209v-17.1h-70.209Zm66.292,2.688h-61.592v2.309h61.592ZM-413.1,977.642v1.6h6.431v-1.6Zm54.419,0h-5.656v1.6h5.656Zm-57.81,30.715h3.756v-1.611h-3.756Zm61.587-1.608h-3.751v1.614h3.751Z" transform="translate(423.883 -937.197)" fill="#12263f"/>
      <path id="Path_116876-3" data-name="Path 116876" d="M-391.417,967.08h-22.029a1.34,1.34,0,0,1-1.437-.995,1.438,1.438,0,0,1-.043-.391v-7.316q0-.779.02-1.557a1.291,1.291,0,0,1,1.161-1.12l41.611-.023h2.7a1.39,1.39,0,0,1,1.549,1.212,1.279,1.279,0,0,1,0,.343v8.323a1.367,1.367,0,0,1-1.189,1.527,1.535,1.535,0,0,1-.327,0h-22Zm20.837-8.717h-41.675v6.03h41.675Z" transform="translate(437.828 -908.437)" fill="#12263f"/>
      <path id="Path_116877-3" data-name="Path 116877" d="M-414.484,961.375v4.293a1.354,1.354,0,0,1-1.294,1.411h-.046a1.336,1.336,0,0,1-1.322-1.35l0-.046c0-1.245.015-2.49.015-3.736,0-1.626-.013-3.25-.015-4.876a1.328,1.328,0,0,1,1.255-1.4,1.331,1.331,0,0,1,1.4,1.255,1.109,1.109,0,0,1,0,.159c0,1.077-.013,2.153-.015,3.23v1.059Z" transform="translate(434.373 -908.437)" fill="#37a3a5"/>
      <path id="Path_116878-3" data-name="Path 116878" d="M-416.228,961.382V965.7a1.328,1.328,0,0,1-1.294,1.36,1.328,1.328,0,0,1-1.363-1.294h0v-8.72a1.329,1.329,0,0,1,1.279-1.378,1.331,1.331,0,0,1,1.381,1.279v.087C-416.215,958.485-416.228,959.934-416.228,961.382Z" transform="translate(431.664 -908.441)" fill="#37a3a5"/>
      <path id="Path_116880-3" data-name="Path 116880" d="M-407.646,957.368a6.456,6.456,0,0,1,1.043.107,1.292,1.292,0,0,1,.918,1.4,1.315,1.315,0,0,1-1.233,1.174q-.767.035-1.534,0a1.294,1.294,0,0,1-1.207-1.376v0a1.311,1.311,0,0,1,1.271-1.271h.739Z" transform="translate(446.027 -905.79)" fill="#12263f"/>
      <path id="Path_116881-3" data-name="Path 116881" d="M-402.462,957.372a6.493,6.493,0,0,1,1,.079,1.308,1.308,0,0,1,.977,1.417,1.321,1.321,0,0,1-1.258,1.179,9.645,9.645,0,0,1-1.736-.059,1.248,1.248,0,0,1-.982-1.44,1.323,1.323,0,0,1,1.281-1.146h.713Z" transform="translate(454.089 -905.784)" fill="#12263f"/>
      <path id="Path_116882-3" data-name="Path 116882" d="M-410.271,960.04c-.238,0-.481.01-.713,0a1.33,1.33,0,0,1-1.263-1.394,1.333,1.333,0,0,1,1.327-1.266h1.3a1.33,1.33,0,0,1,1.332,1.325,1.33,1.33,0,0,1-1.263,1.332c-.24.013-.481,0-.716,0Z" transform="translate(441.998 -905.77)" fill="#37a3a5"/>
      <path id="Path_116883-3" data-name="Path 116883" d="M-405.06,957.382h.662a1.335,1.335,0,0,1,1.319,1.258,1.314,1.314,0,0,1-1.181,1.383,11.309,11.309,0,0,1-1.665,0,1.3,1.3,0,0,1-1.146-1.36,1.33,1.33,0,0,1,1.271-1.279h.739Z" transform="translate(450.059 -905.768)" fill="#12263f"/>
      <path id="Path_116884-3" data-name="Path 116884" d="M-399.9,957.372a6.829,6.829,0,0,1,1.023.082,1.319,1.319,0,0,1,.977,1.278,1.307,1.307,0,0,1-1.248,1.291c-.481.023-.949.033-1.422.023a1.328,1.328,0,0,1-1.312-1.345,1.328,1.328,0,0,1,1.345-1.312h.639Z" transform="translate(458.133 -905.784)" fill="#12263f"/>
    </g>
    <g id="Group_54360-4" data-name="Group 54360" transform="translate(-329.842 925.492)">
      <path id="Path_116867-4" data-name="Path 116867" d="M-405.031,955.388h2.782a1.323,1.323,0,0,1,1.378,1.263v.1c.01.875,0,1.749,0,2.624v.307h4.907a2.672,2.672,0,0,1,2.805,2.529,2.255,2.255,0,0,1,0,.263v16.946a2.672,2.672,0,0,1-2.6,2.749,1.454,1.454,0,0,1-.146,0h-1.168v3.409q-.012,2.278-.036,4.557a1.311,1.311,0,0,1-1.294,1.327h-6.454a1.306,1.306,0,0,1-1.358-1.253.98.98,0,0,1,0-.123v-2.93h-48.7c0,.1-.013.2-.013.289v2.572a1.348,1.348,0,0,1-1.248,1.44,1.258,1.258,0,0,1-.192,0h-6.257a1.327,1.327,0,0,1-1.437-1.207,1.415,1.415,0,0,1,0-.21v-7.883h-.721a11.618,11.618,0,0,1-2-.11,2.559,2.559,0,0,1-1.969-2.539V962.512a2.676,2.676,0,0,1,2.509-2.831,3.008,3.008,0,0,1,.309,0h5.267v-2.913a1.314,1.314,0,0,1,1.245-1.378,1.184,1.184,0,0,1,.138,0h3.288V919.042a1.316,1.316,0,0,1,1.215-1.409,1.33,1.33,0,0,1,1.434,1.22l.005.077c.01.335,0,.67,0,1.005v35.459h3.076a1.324,1.324,0,0,1,1.371,1.276.61.61,0,0,1,0,.094v2.9h36.957c0-.095.013-.189.013-.281,0-.823.018-1.644,0-2.465a1.413,1.413,0,0,1,1.273-1.537,1.346,1.346,0,0,1,.248,0c.854.039,1.713,0,2.57,0,.031-.005.061-.013.092-.02v-36.32a1.345,1.345,0,0,1,1.261-1.424,1.34,1.34,0,0,1,.532.077,1.4,1.4,0,0,1,.892,1.424v10.791c0,.772-.028,1.547-.033,2.322,0,.246.031.494.031.739V955.11Zm-61.021,24.1h70.209v-17.1h-70.209Zm66.292,2.687h-61.592v2.309h61.592Zm-58.211-24.113v1.6h6.431v-1.6Zm54.419,0h-5.656v1.6h5.656Zm-57.81,30.715h3.756v-1.611h-3.756Zm61.587-1.609h-3.751v1.613h3.751Z" transform="translate(468.753 -917.618)" fill="#12263f"/>
      <path id="Path_116876-4" data-name="Path 116876" d="M-436.287,947.5h-22.029a1.341,1.341,0,0,1-1.437-.995,1.432,1.432,0,0,1-.044-.391V938.8q0-.779.02-1.557a1.292,1.292,0,0,1,1.161-1.12L-417,936.1h2.7a1.39,1.39,0,0,1,1.55,1.212,1.28,1.28,0,0,1,0,.343v8.323a1.365,1.365,0,0,1-1.189,1.527,1.41,1.41,0,0,1-.327,0h-22Zm20.837-8.717h-41.675v6.03h41.675Z" transform="translate(482.698 -888.858)" fill="#12263f"/>
      <path id="Path_116877-4" data-name="Path 116877" d="M-459.354,941.8v4.293a1.355,1.355,0,0,1-1.294,1.411h-.046a1.335,1.335,0,0,1-1.322-1.35l0-.046c0-1.245.015-2.491.015-3.736,0-1.626-.013-3.25-.015-4.876a1.329,1.329,0,0,1,1.256-1.4,1.331,1.331,0,0,1,1.4,1.258,1.064,1.064,0,0,1,0,.156c0,1.076-.013,2.153-.018,3.229v1.058Z" transform="translate(479.243 -888.858)" fill="#37a3a5"/>
      <path id="Path_116878-4" data-name="Path 116878" d="M-461.1,941.8v4.316a1.328,1.328,0,0,1-1.294,1.36,1.327,1.327,0,0,1-1.363-1.294h0v-8.72a1.329,1.329,0,0,1,1.278-1.378,1.331,1.331,0,0,1,1.381,1.279v.087C-461.085,938.906-461.1,940.355-461.1,941.8Z" transform="translate(476.534 -888.862)" fill="#37a3a5"/>
      <path id="Path_116880-4" data-name="Path 116880" d="M-452.516,937.789a6.511,6.511,0,0,1,1.043.107,1.3,1.3,0,0,1,.918,1.4,1.314,1.314,0,0,1-1.233,1.171q-.767.034-1.534,0a1.294,1.294,0,0,1-1.207-1.376v0a1.306,1.306,0,0,1,1.271-1.268h.739Z" transform="translate(490.897 -886.211)" fill="#12263f"/>
      <path id="Path_116881-4" data-name="Path 116881" d="M-447.332,937.793a6.5,6.5,0,0,1,1,.082,1.3,1.3,0,0,1,.977,1.414,1.32,1.32,0,0,1-1.258,1.179,9.6,9.6,0,0,1-1.736-.059,1.248,1.248,0,0,1-.982-1.44,1.323,1.323,0,0,1,1.281-1.146h.713Z" transform="translate(498.959 -886.205)" fill="#12263f"/>
      <path id="Path_116882-4" data-name="Path 116882" d="M-455.14,940.46c-.238,0-.481.01-.713,0a1.33,1.33,0,0,1-1.263-1.394,1.329,1.329,0,0,1,1.327-1.263h1.3a1.328,1.328,0,0,1,1.332,1.325,1.329,1.329,0,0,1-1.263,1.33c-.24.013-.481,0-.716,0Z" transform="translate(486.868 -886.189)" fill="#37a3a5"/>
      <path id="Path_116883-4" data-name="Path 116883" d="M-449.93,937.8h.662a1.336,1.336,0,0,1,1.319,1.258,1.317,1.317,0,0,1-1.181,1.386,12.007,12.007,0,0,1-1.665,0,1.3,1.3,0,0,1-1.146-1.36,1.33,1.33,0,0,1,1.271-1.281h.739Z" transform="translate(494.929 -886.189)" fill="#12263f"/>
      <path id="Path_116884-4" data-name="Path 116884" d="M-444.774,937.793a7.17,7.17,0,0,1,1.023.082,1.319,1.319,0,0,1,.977,1.279,1.306,1.306,0,0,1-1.248,1.291c-.481.023-.949.033-1.422.023a1.328,1.328,0,0,1-1.312-1.345,1.33,1.33,0,0,1,1.345-1.312h.639Z" transform="translate(503.003 -886.205)" fill="#12263f"/>
    </g>
    <g id="Group_54360-5" data-name="Group 54360" transform="translate(-417.05 1023.948)">
      <path id="Path_116867-5" data-name="Path 116867" d="M-439.137,993.892h2.782a1.32,1.32,0,0,1,1.378,1.263.611.611,0,0,1,0,.1c.01.875,0,1.749,0,2.626v.307h4.91a2.667,2.667,0,0,1,2.8,2.529,2.258,2.258,0,0,1,0,.263v16.946a2.671,2.671,0,0,1-2.593,2.749,1.4,1.4,0,0,1-.148,0h-1.166v3.409c-.01,1.519-.02,3.038-.038,4.557a1.311,1.311,0,0,1-1.294,1.327h-6.451a1.31,1.31,0,0,1-1.36-1.253c0-.041,0-.082,0-.125v-2.928h-48.7c0,.1-.013.2-.013.289v2.572a1.346,1.346,0,0,1-1.245,1.44,1.259,1.259,0,0,1-.194,0h-6.257a1.327,1.327,0,0,1-1.437-1.207,1.433,1.433,0,0,1,0-.21v-7.883h-.721a11.628,11.628,0,0,1-2-.11,2.559,2.559,0,0,1-1.972-2.539v-16.994a2.678,2.678,0,0,1,2.511-2.831c.1-.005.2-.005.309,0h5.268v-2.913a1.313,1.313,0,0,1,1.245-1.381,1.254,1.254,0,0,1,.135,0h3.288V957.546a1.317,1.317,0,0,1,1.217-1.409,1.332,1.332,0,0,1,1.434,1.22l0,.074c.013.338,0,.672,0,1.007V993.9h3.076a1.327,1.327,0,0,1,1.373,1.273v3h36.957c0-.095.013-.189.013-.284,0-.821.015-1.642,0-2.465a1.407,1.407,0,0,1,1.271-1.534,1.591,1.591,0,0,1,.248,0c.854.041,1.713,0,2.57,0a.392.392,0,0,0,.092-.02V957.549a1.347,1.347,0,0,1,1.263-1.424,1.385,1.385,0,0,1,.529.074,1.4,1.4,0,0,1,.892,1.424v10.793c0,.772-.026,1.547-.033,2.319,0,.248.033.5.033.742v22.136Zm-61.022,24.1h70.209v-17.1h-70.209Zm66.294,2.688h-61.594v2.306h61.594Zm-58.214-24.113v1.6h6.431v-1.6Zm54.419,0h-5.656v1.6h5.656Zm-57.807,30.715h3.754v-1.611h-3.754Zm61.587-1.608h-3.751v1.614h3.751Z" transform="translate(502.858 -956.122)" fill="#12263f"/>
      <path id="Path_116876-5" data-name="Path 116876" d="M-470.394,986.007H-492.42a1.343,1.343,0,0,1-1.44-.995,1.557,1.557,0,0,1-.041-.391v-7.316c0-.519.008-1.038.018-1.56a1.291,1.291,0,0,1,1.161-1.117l41.611-.026h2.7a1.394,1.394,0,0,1,1.552,1.215,1.536,1.536,0,0,1,0,.343v8.323a1.37,1.37,0,0,1-1.189,1.526,1.407,1.407,0,0,1-.33,0h-22Zm20.84-8.717h-41.677v6.027h41.677Z" transform="translate(516.804 -927.364)" fill="#12263f"/>
      <path id="Path_116877-5" data-name="Path 116877" d="M-493.459,980.3v4.291a1.353,1.353,0,0,1-1.294,1.414h-.046a1.334,1.334,0,0,1-1.319-1.35v-.046c0-1.245.015-2.491.015-3.739,0-1.623-.013-3.25-.015-4.873a1.333,1.333,0,0,1,1.258-1.4,1.334,1.334,0,0,1,1.4,1.258c0,.054,0,.1,0,.158,0,1.074-.013,2.153-.018,3.229V980.3Z" transform="translate(513.348 -927.363)" fill="#37a3a5"/>
      <path id="Path_116878-5" data-name="Path 116878" d="M-495.2,980.307v4.316a1.328,1.328,0,0,1-1.3,1.36,1.332,1.332,0,0,1-1.363-1.294h0v-8.72a1.333,1.333,0,0,1,1.281-1.378,1.329,1.329,0,0,1,1.378,1.279.491.491,0,0,1,0,.087C-495.187,977.409-495.2,978.857-495.2,980.307Z" transform="translate(510.639 -927.366)" fill="#37a3a5"/>
      <path id="Path_116880-5" data-name="Path 116880" d="M-486.621,976.293a6.2,6.2,0,0,1,1.046.107,1.292,1.292,0,0,1,.918,1.4,1.317,1.317,0,0,1-1.235,1.174c-.511.021-1.023.023-1.534,0a1.3,1.3,0,0,1-1.207-1.376v0a1.31,1.31,0,0,1,1.271-1.271h.742Z" transform="translate(525.002 -924.715)" fill="#12263f"/>
      <path id="Path_116881-5" data-name="Path 116881" d="M-481.439,976.3a6.491,6.491,0,0,1,1,.079,1.307,1.307,0,0,1,.977,1.417,1.32,1.32,0,0,1-1.256,1.179,9.872,9.872,0,0,1-1.736-.059,1.246,1.246,0,0,1-.982-1.44,1.322,1.322,0,0,1,1.278-1.146h.713Z" transform="translate(533.065 -924.709)" fill="#12263f"/>
      <path id="Path_116882-5" data-name="Path 116882" d="M-489.246,978.965c-.238,0-.478.01-.713,0a1.331,1.331,0,0,1-1.263-1.393,1.333,1.333,0,0,1,1.327-1.266h1.3a1.328,1.328,0,0,1,1.332,1.324,1.33,1.33,0,0,1-1.263,1.332c-.238.013-.481,0-.716,0Z" transform="translate(520.973 -924.695)" fill="#37a3a5"/>
      <path id="Path_116883-5" data-name="Path 116883" d="M-484.035,976.307h.662a1.336,1.336,0,0,1,1.322,1.258,1.318,1.318,0,0,1-1.184,1.383,11.343,11.343,0,0,1-1.665,0,1.3,1.3,0,0,1-1.146-1.36,1.33,1.33,0,0,1,1.271-1.279h.742Z" transform="translate(529.034 -924.693)" fill="#12263f"/>
      <path id="Path_116884-5" data-name="Path 116884" d="M-478.881,976.3a6.893,6.893,0,0,1,1.025.082,1.322,1.322,0,0,1,.977,1.279,1.309,1.309,0,0,1-1.25,1.291c-.478.021-.946.033-1.419.023a1.328,1.328,0,0,1-1.312-1.345,1.327,1.327,0,0,1,1.345-1.312h.639Z" transform="translate(537.11 -924.709)" fill="#12263f"/>
    </g>
    <g id="Group_54360-6" data-name="Group 54360" transform="translate(-75.482 925.492)">
      <path id="Path_116867-6" data-name="Path 116867" d="M-305.557,955.388h2.782a1.323,1.323,0,0,1,1.378,1.263c0,.033,0,.067,0,.1.01.875,0,1.749,0,2.624v.307h4.91a2.672,2.672,0,0,1,2.8,2.529,2.255,2.255,0,0,1,0,.263v16.946a2.672,2.672,0,0,1-2.6,2.749,1.451,1.451,0,0,1-.146,0h-1.169v3.409q-.011,2.278-.036,4.557a1.309,1.309,0,0,1-1.294,1.327h-6.454a1.306,1.306,0,0,1-1.358-1.253c0-.041,0-.082,0-.123v-2.93h-48.7c0,.1-.013.2-.013.289v2.572a1.348,1.348,0,0,1-1.248,1.44,1.258,1.258,0,0,1-.192,0h-6.257a1.327,1.327,0,0,1-1.437-1.207,1.428,1.428,0,0,1,0-.21v-7.883h-.721a11.618,11.618,0,0,1-2-.11,2.559,2.559,0,0,1-1.969-2.539V962.512a2.676,2.676,0,0,1,2.509-2.831,3.005,3.005,0,0,1,.309,0h5.268v-2.913a1.314,1.314,0,0,1,1.245-1.378,1.184,1.184,0,0,1,.138,0h3.288V919.042a1.316,1.316,0,0,1,1.215-1.409,1.33,1.33,0,0,1,1.434,1.22l.005.077c.01.335,0,.67,0,1.005v35.459h3.076a1.324,1.324,0,0,1,1.371,1.276.581.581,0,0,1,0,.094v2.9h36.957c0-.095.013-.189.013-.281,0-.823.018-1.644,0-2.465a1.413,1.413,0,0,1,1.273-1.537,1.347,1.347,0,0,1,.248,0c.854.039,1.713,0,2.57,0,.031-.005.061-.013.092-.02v-36.32A1.345,1.345,0,0,1-307,917.621a1.328,1.328,0,0,1,.529.077,1.4,1.4,0,0,1,.892,1.424v10.791c0,.772-.028,1.547-.033,2.322,0,.246.031.494.031.739V955.11Zm-61.021,24.1h70.209v-17.1h-70.209Zm66.292,2.687h-61.592v2.309h61.592ZM-358.5,958.063v1.6h6.431v-1.6Zm54.419,0h-5.656v1.6h5.656Zm-57.81,30.715h3.756v-1.611h-3.756Zm61.587-1.609h-3.749v1.613h3.749Z" transform="translate(369.279 -917.618)" fill="#12263f"/>
      <path id="Path_116876-6" data-name="Path 116876" d="M-336.813,947.5h-22.029a1.341,1.341,0,0,1-1.437-.995,1.545,1.545,0,0,1-.043-.391V938.8q0-.779.021-1.557a1.292,1.292,0,0,1,1.161-1.12l41.611-.023h2.7a1.39,1.39,0,0,1,1.549,1.212,1.277,1.277,0,0,1,0,.343v8.323a1.366,1.366,0,0,1-1.189,1.527,1.411,1.411,0,0,1-.327,0h-22Zm20.837-8.717h-41.675v6.03h41.675Z" transform="translate(383.224 -888.858)" fill="#12263f"/>
      <path id="Path_116877-6" data-name="Path 116877" d="M-359.88,941.8v4.293a1.354,1.354,0,0,1-1.294,1.411h-.046a1.335,1.335,0,0,1-1.322-1.35l0-.046c0-1.245.015-2.491.015-3.736,0-1.626-.013-3.25-.015-4.876a1.328,1.328,0,0,1,1.255-1.4,1.331,1.331,0,0,1,1.4,1.258,1.039,1.039,0,0,1,0,.156c0,1.076-.013,2.153-.015,3.229v1.058Z" transform="translate(379.769 -888.858)" fill="#37a3a5"/>
      <path id="Path_116878-6" data-name="Path 116878" d="M-361.624,941.8v4.316a1.326,1.326,0,0,1-1.294,1.36,1.327,1.327,0,0,1-1.363-1.294h0v-8.72A1.329,1.329,0,0,1-363,936.088a1.331,1.331,0,0,1,1.381,1.279v.087C-361.611,938.906-361.624,940.355-361.624,941.8Z" transform="translate(377.06 -888.862)" fill="#37a3a5"/>
      <path id="Path_116880-6" data-name="Path 116880" d="M-353.042,937.789A6.511,6.511,0,0,1-352,937.9a1.3,1.3,0,0,1,.918,1.4,1.314,1.314,0,0,1-1.233,1.171q-.767.034-1.534,0a1.294,1.294,0,0,1-1.207-1.376v0a1.306,1.306,0,0,1,1.271-1.268h.741Z" transform="translate(391.423 -886.211)" fill="#12263f"/>
      <path id="Path_116881-6" data-name="Path 116881" d="M-347.858,937.793a6.5,6.5,0,0,1,1,.082,1.3,1.3,0,0,1,.977,1.414,1.32,1.32,0,0,1-1.258,1.179,9.6,9.6,0,0,1-1.736-.059,1.248,1.248,0,0,1-.982-1.44,1.323,1.323,0,0,1,1.281-1.146h.713Z" transform="translate(399.485 -886.205)" fill="#12263f"/>
      <path id="Path_116882-6" data-name="Path 116882" d="M-355.666,940.46c-.238,0-.478.01-.713,0a1.33,1.33,0,0,1-1.263-1.394,1.329,1.329,0,0,1,1.327-1.263h1.3a1.328,1.328,0,0,1,1.332,1.325,1.329,1.329,0,0,1-1.263,1.33c-.24.013-.481,0-.716,0Z" transform="translate(387.394 -886.189)" fill="#37a3a5"/>
      <path id="Path_116883-6" data-name="Path 116883" d="M-350.456,937.8h.662a1.334,1.334,0,0,1,1.319,1.258,1.317,1.317,0,0,1-1.181,1.386,12.006,12.006,0,0,1-1.665,0,1.3,1.3,0,0,1-1.146-1.36,1.33,1.33,0,0,1,1.271-1.281h.739Z" transform="translate(395.455 -886.189)" fill="#12263f"/>
      <path id="Path_116884-6" data-name="Path 116884" d="M-345.3,937.793a7.17,7.17,0,0,1,1.023.082,1.319,1.319,0,0,1,.977,1.279,1.306,1.306,0,0,1-1.248,1.291c-.481.023-.949.033-1.422.023a1.328,1.328,0,0,1-1.312-1.345,1.33,1.33,0,0,1,1.345-1.312h.639Z" transform="translate(403.529 -886.205)" fill="#12263f"/>
    </g>
    <g id="Group_54360-7" data-name="Group 54360" transform="translate(-48.055 1023.948)">
      <path id="Path_116867-7" data-name="Path 116867" d="M-294.832,993.892h2.785a1.319,1.319,0,0,1,1.376,1.263.6.6,0,0,1,0,.1c.01.875,0,1.749,0,2.626v.307h4.91a2.667,2.667,0,0,1,2.8,2.529,2.285,2.285,0,0,1,0,.263v16.946a2.672,2.672,0,0,1-2.593,2.749,1.4,1.4,0,0,1-.148,0h-1.166v3.409q-.015,2.279-.038,4.557a1.311,1.311,0,0,1-1.294,1.327h-6.451a1.306,1.306,0,0,1-1.358-1.253,1.031,1.031,0,0,1,0-.125v-2.928h-48.7c0,.1-.013.2-.013.289v2.572a1.346,1.346,0,0,1-1.245,1.44,1.226,1.226,0,0,1-.192,0h-6.257a1.328,1.328,0,0,1-1.44-1.207,1.468,1.468,0,0,1,0-.21v-7.883h-.721a11.628,11.628,0,0,1-2-.11,2.559,2.559,0,0,1-1.972-2.539v-16.994a2.678,2.678,0,0,1,2.511-2.831c.1-.005.2-.005.309,0h5.268v-2.913a1.313,1.313,0,0,1,1.245-1.381,1.3,1.3,0,0,1,.138,0h3.288V957.546a1.313,1.313,0,0,1,1.215-1.409,1.332,1.332,0,0,1,1.434,1.22l0,.074c.013.338,0,.672,0,1.007V993.9h3.076a1.327,1.327,0,0,1,1.373,1.273v3h36.957c0-.095.013-.189.013-.284,0-.821.015-1.642,0-2.465a1.407,1.407,0,0,1,1.271-1.534,1.592,1.592,0,0,1,.248,0c.857.041,1.713,0,2.57,0a.393.393,0,0,0,.092-.02V957.549a1.347,1.347,0,0,1,1.263-1.424,1.4,1.4,0,0,1,.532.074,1.4,1.4,0,0,1,.89,1.424v10.793c0,.772-.026,1.547-.033,2.319,0,.248.033.5.033.742v22.136Zm-61.021,24.1h70.209v-17.1h-70.209Zm66.294,2.688h-61.594v2.306h61.594Zm-58.214-24.113v1.6h6.433v-1.6Zm54.419,0h-5.656v1.6h5.656Zm-57.807,30.715h3.754v-1.611h-3.754Zm61.587-1.608h-3.751v1.614h3.751Z" transform="translate(358.553 -956.122)" fill="#12263f"/>
      <path id="Path_116876-7" data-name="Path 116876" d="M-326.089,986.007h-22.026a1.343,1.343,0,0,1-1.44-.995,1.552,1.552,0,0,1-.041-.391v-7.316c0-.519.008-1.038.018-1.56a1.291,1.291,0,0,1,1.161-1.117l41.611-.026h2.7a1.394,1.394,0,0,1,1.552,1.215,1.543,1.543,0,0,1,0,.343v8.323a1.37,1.37,0,0,1-1.189,1.526,1.407,1.407,0,0,1-.33,0h-22Zm20.84-8.717h-41.677v6.027h41.677Z" transform="translate(372.499 -927.364)" fill="#12263f"/>
      <path id="Path_116877-7" data-name="Path 116877" d="M-349.154,980.3v4.291a1.353,1.353,0,0,1-1.294,1.414h-.046a1.334,1.334,0,0,1-1.319-1.35v-.046c0-1.245.015-2.491.015-3.739,0-1.623-.013-3.25-.015-4.873a1.333,1.333,0,0,1,1.258-1.4,1.332,1.332,0,0,1,1.4,1.258c0,.054,0,.1,0,.158,0,1.074-.013,2.153-.018,3.229V980.3Z" transform="translate(369.043 -927.363)" fill="#37a3a5"/>
      <path id="Path_116878-7" data-name="Path 116878" d="M-350.9,980.307v4.316a1.328,1.328,0,0,1-1.3,1.36,1.328,1.328,0,0,1-1.36-1.294h0v-8.72a1.329,1.329,0,0,1,1.279-1.378,1.329,1.329,0,0,1,1.378,1.279.491.491,0,0,1,0,.087C-350.884,977.409-350.9,978.857-350.9,980.307Z" transform="translate(366.336 -927.366)" fill="#37a3a5"/>
      <path id="Path_116880-7" data-name="Path 116880" d="M-342.313,976.293a6.2,6.2,0,0,1,1.043.107,1.292,1.292,0,0,1,.918,1.4,1.317,1.317,0,0,1-1.235,1.174c-.509.021-1.023.023-1.534,0a1.3,1.3,0,0,1-1.207-1.376l0,0a1.307,1.307,0,0,1,1.271-1.271h.739Z" transform="translate(380.697 -924.715)" fill="#12263f"/>
      <path id="Path_116881-7" data-name="Path 116881" d="M-337.134,976.3a6.494,6.494,0,0,1,1,.079,1.3,1.3,0,0,1,.977,1.417,1.32,1.32,0,0,1-1.256,1.179,9.87,9.87,0,0,1-1.736-.059,1.246,1.246,0,0,1-.982-1.44,1.322,1.322,0,0,1,1.279-1.146h.716Z" transform="translate(388.76 -924.709)" fill="#12263f"/>
      <path id="Path_116882-7" data-name="Path 116882" d="M-344.938,978.965c-.24,0-.481.01-.716,0a1.331,1.331,0,0,1-1.263-1.393,1.333,1.333,0,0,1,1.327-1.266h1.3a1.328,1.328,0,0,1,1.332,1.324,1.33,1.33,0,0,1-1.263,1.332c-.238.013-.481,0-.714,0Z" transform="translate(376.668 -924.695)" fill="#37a3a5"/>
      <path id="Path_116883-7" data-name="Path 116883" d="M-339.73,976.307h.662a1.336,1.336,0,0,1,1.322,1.258,1.318,1.318,0,0,1-1.184,1.383,11.343,11.343,0,0,1-1.665,0,1.3,1.3,0,0,1-1.146-1.36,1.33,1.33,0,0,1,1.271-1.279h.742Z" transform="translate(384.729 -924.693)" fill="#12263f"/>
      <path id="Path_116884-7" data-name="Path 116884" d="M-334.573,976.3a6.858,6.858,0,0,1,1.023.082,1.322,1.322,0,0,1,.977,1.279,1.309,1.309,0,0,1-1.25,1.291c-.478.021-.946.033-1.419.023a1.328,1.328,0,0,1-1.312-1.345,1.327,1.327,0,0,1,1.345-1.312h.639Z" transform="translate(392.805 -924.709)" fill="#12263f"/>
    </g>
    <g id="Group_54360-8" data-name="Group 54360" transform="translate(-74.707 1122.405)">
      <path id="Path_116867-8" data-name="Path 116867" d="M-305.254,1032.394h2.782a1.323,1.323,0,0,1,1.378,1.266.616.616,0,0,1,0,.1c.01.875,0,1.749,0,2.626v.307h4.91a2.667,2.667,0,0,1,2.8,2.529,2.227,2.227,0,0,1,0,.261v16.948a2.671,2.671,0,0,1-2.593,2.749h-1.314v3.409c-.01,1.519-.02,3.038-.038,4.557a1.311,1.311,0,0,1-1.294,1.327h-6.451a1.31,1.31,0,0,1-1.36-1.253c0-.041,0-.084,0-.125v-2.928h-48.7c0,.1-.013.2-.013.289v2.573a1.346,1.346,0,0,1-1.245,1.44c-.064,0-.128,0-.194,0h-6.257a1.329,1.329,0,0,1-1.437-1.207,1.458,1.458,0,0,1,0-.21v-7.883H-365a11.911,11.911,0,0,1-2-.11,2.561,2.561,0,0,1-1.972-2.539V1039.52a2.677,2.677,0,0,1,2.511-2.831c.1-.005.2-.005.309,0h5.268v-2.912a1.314,1.314,0,0,1,1.245-1.381,1.254,1.254,0,0,1,.135,0h3.288V996.048A1.316,1.316,0,0,1-355,994.641a1.33,1.33,0,0,1,1.435,1.22l0,.074c.013.335,0,.673,0,1.007V1032.4h3.076a1.324,1.324,0,0,1,1.373,1.273v3h36.957c0-.094.013-.189.013-.284,0-.821.015-1.644,0-2.465a1.407,1.407,0,0,1,1.271-1.534,1.592,1.592,0,0,1,.248,0c.857.041,1.713,0,2.57,0a.624.624,0,0,0,.092-.02V996.053a1.347,1.347,0,0,1,1.263-1.424,1.328,1.328,0,0,1,.529.074,1.4,1.4,0,0,1,.892,1.424v10.791c0,.775-.026,1.547-.033,2.322,0,.245.033.494.033.741v22.137Zm-61.022,24.1h70.209V1039.39h-70.209Zm66.294,2.687h-61.594v2.307h61.594Zm-58.214-24.115v1.6h6.431v-1.6Zm54.419,0h-5.656v1.6h5.656Zm-57.807,30.718h3.754v-1.611h-3.754Zm61.587-1.609h-3.751v1.611H-300Z" transform="translate(368.976 -994.626)" fill="#12263f"/>
      <path id="Path_116876-8" data-name="Path 116876" d="M-336.512,1024.511h-22.026a1.348,1.348,0,0,1-1.44-.995,1.555,1.555,0,0,1-.041-.391v-7.316c0-.519.008-1.041.018-1.56a1.291,1.291,0,0,1,1.161-1.117l41.611-.026h2.7a1.4,1.4,0,0,1,1.552,1.215,1.536,1.536,0,0,1,0,.343v8.321a1.372,1.372,0,0,1-1.189,1.529,1.419,1.419,0,0,1-.33,0h-22Zm20.84-8.717h-41.677v6.027h41.677Z" transform="translate(382.922 -965.868)" fill="#12263f"/>
      <path id="Path_116877-8" data-name="Path 116877" d="M-359.577,1018.8v4.293a1.351,1.351,0,0,1-1.294,1.411l-.046,0a1.335,1.335,0,0,1-1.319-1.353v-.046c0-1.245.015-2.491.015-3.736,0-1.626-.013-3.25-.015-4.876a1.332,1.332,0,0,1,1.258-1.4,1.332,1.332,0,0,1,1.4,1.258c0,.051,0,.1,0,.156,0,1.076-.013,2.155-.018,3.229v1.059Z" transform="translate(379.466 -965.867)" fill="#37a3a5"/>
      <path id="Path_116878-8" data-name="Path 116878" d="M-361.32,1018.811v4.316a1.328,1.328,0,0,1-1.3,1.36,1.328,1.328,0,0,1-1.36-1.3h0v-8.717a1.327,1.327,0,0,1,1.279-1.378,1.329,1.329,0,0,1,1.378,1.279.52.52,0,0,1,0,.087C-361.307,1015.914-361.32,1017.361-361.32,1018.811Z" transform="translate(376.759 -965.87)" fill="#37a3a5"/>
      <path id="Path_116880-8" data-name="Path 116880" d="M-352.739,1014.8a6.231,6.231,0,0,1,1.046.11,1.292,1.292,0,0,1,.918,1.4,1.312,1.312,0,0,1-1.235,1.171c-.511.023-1.023.025-1.534,0a1.293,1.293,0,0,1-1.207-1.373v-.005a1.308,1.308,0,0,1,1.271-1.268h.742Z" transform="translate(391.12 -963.22)" fill="#12263f"/>
      <path id="Path_116881-8" data-name="Path 116881" d="M-347.557,1014.8a6.517,6.517,0,0,1,1,.079,1.306,1.306,0,0,1,.977,1.414,1.32,1.32,0,0,1-1.256,1.181,9.83,9.83,0,0,1-1.736-.059,1.246,1.246,0,0,1-.982-1.44,1.322,1.322,0,0,1,1.279-1.146h.716Z" transform="translate(399.183 -963.213)" fill="#12263f"/>
      <path id="Path_116882-8" data-name="Path 116882" d="M-355.363,1017.469c-.238,0-.478.01-.713,0a1.333,1.333,0,0,1-1.263-1.4,1.332,1.332,0,0,1,1.327-1.263h1.3a1.328,1.328,0,0,1,1.332,1.325,1.33,1.33,0,0,1-1.263,1.332c-.238.013-.481,0-.716,0Z" transform="translate(387.091 -963.199)" fill="#37a3a5"/>
      <path id="Path_116883-8" data-name="Path 116883" d="M-350.153,1014.811h.662a1.334,1.334,0,0,1,1.322,1.258,1.317,1.317,0,0,1-1.184,1.383,12.006,12.006,0,0,1-1.665,0,1.3,1.3,0,0,1-1.146-1.36,1.33,1.33,0,0,1,1.271-1.279h.741Z" transform="translate(395.152 -963.197)" fill="#12263f"/>
      <path id="Path_116884-8" data-name="Path 116884" d="M-345,1014.8a6.579,6.579,0,0,1,1.025.082,1.322,1.322,0,0,1,.977,1.279,1.306,1.306,0,0,1-1.25,1.289c-.478.023-.946.033-1.419.026a1.328,1.328,0,0,1-1.312-1.345,1.327,1.327,0,0,1,1.345-1.312h.639Z" transform="translate(403.228 -963.213)" fill="#12263f"/>
    </g>
    <g id="Z1vj45.tif" transform="translate(-557.967 1070.781)">
      <g id="Grupo_54404" data-name="Grupo 54404">
        <path id="Trazado_117240" data-name="Trazado 117240" d="M-493,1009.783a.961.961,0,0,0-.1.156,3.2,3.2,0,0,1-3.362,2.429q-9.7.016-19.408.008H-553.3c-.593,0-1.186.01-1.775-.043a3.157,3.157,0,0,1-2.892-3.14q-.011-11.86.013-23.722a1.679,1.679,0,0,1,.376-1.02c2.606-2.974,5.24-5.922,7.863-8.881a3.466,3.466,0,0,1,2.779-1.12c5.349.008,10.7-.005,16.048,0,8.858,0,17.715.018,26.573-.01a4.2,4.2,0,0,1,3.432,1.539c2.294,2.657,4.651,5.257,6.981,7.881.307.345.6.7.9,1.056Zm-2.207-3.961V990.764h-60.564v15.058Zm-1.378-21.669c-.235-.276-.378-.453-.529-.621-1.614-1.818-3.286-3.59-4.82-5.472a3.123,3.123,0,0,0-3.184-1.406,1.9,1.9,0,0,1-.317,0q-20.773,0-41.549-.01a1.492,1.492,0,0,0-1.225.522q-2.892,3.283-5.81,6.546a5.211,5.211,0,0,0-.309.44Zm1.422,23.924h-60.6c-.171,1.762.13,2.1,1.8,2.1l41.286,0q8.085,0,16.171,0c.954,0,1.332-.386,1.342-1.35C-495.163,1008.6-495.166,1008.367-495.166,1008.078Zm-.036-21.612h-60.564v2.02H-495.2Z" transform="translate(557.967 -974.437)" fill="#12263f"/>
        <path id="Trazado_117241" data-name="Trazado 117241" d="M-544.913,983.776c.228.02.371.043.514.043.163,0,.327-.02.57-.038,0-.338-.008-.647,0-.959.023-.762.373-1.146,1.117-1.164,1.059-.023,2.115-.021,3.171,0a1.035,1.035,0,0,1,1.13,1.1q.035,4.311,0,8.622c-.008.721-.46,1.089-1.2,1.089q-4.756.011-9.512,0a1.072,1.072,0,0,1-1.22-1.15q-.031-4.281.008-8.561a1.033,1.033,0,0,1,1.123-1.11c1.056-.026,2.115-.026,3.171-.008a1.046,1.046,0,0,1,1.125,1.107C-544.9,983.091-544.913,983.423-544.913,983.776Zm3.26.092c0,.337.005.631,0,.923A1.118,1.118,0,0,1-542.885,986c-.972.005-1.946.005-2.918-.005-.885-.008-1.281-.4-1.291-1.273-.005-.286,0-.573,0-.831h-1v6.4h7.449v-6.423Z" transform="translate(569.816 -963.22)" fill="#12263f"/>
        <path id="Trazado_117242" data-name="Trazado 117242" d="M-539.412,983.784h1.074c0-.279-.005-.524,0-.772.026-1.018.358-1.35,1.391-1.363.867-.013,1.734-.005,2.6-.005,1.074,0,1.455.376,1.455,1.445q0,2.758,0,5.516c0,.867.013,1.731-.005,2.6-.018.905-.394,1.276-1.284,1.276q-4.691.007-9.382,0c-.882,0-1.278-.384-1.281-1.276q-.019-4.123,0-8.241c.005-.928.389-1.3,1.325-1.307s1.859-.01,2.79,0c.977.01,1.309.355,1.32,1.355C-539.41,983.239-539.412,983.472-539.412,983.784Zm4.278,6.51v-6.423h-1.01c0,.3,0,.565,0,.834-.013.877-.412,1.286-1.279,1.291-.995.008-1.987.013-2.981,0a1.085,1.085,0,0,1-1.179-1.189c-.008-.31,0-.616,0-.923h-.992v6.41Z" transform="translate(578.386 -963.22)" fill="#37a3a5"/>
        <path id="Trazado_117243" data-name="Trazado 117243" d="M-550.419,983.786h1.082c0-.386-.015-.739.005-1.089a.978.978,0,0,1,.989-1.025c1.117-.036,2.24-.041,3.358-.01.716.018,1.082.506,1.084,1.358.005,1.882,0,3.762,0,5.644,0,.844.01,1.69-.005,2.534-.015.887-.409,1.279-1.286,1.281q-4.722.011-9.443,0a1.062,1.062,0,0,1-1.212-1.209q-.019-4.215,0-8.431c.005-.8.412-1.174,1.238-1.184.951-.013,1.9-.01,2.854,0,.974.01,1.319.363,1.337,1.348C-550.414,983.249-550.419,983.5-550.419,983.786Zm4.247,6.51v-6.413h-1c0,.32,0,.591,0,.862a1.108,1.108,0,0,1-1.248,1.25c-1.015.01-2.03.013-3.043,0a1.09,1.09,0,0,1-1.143-1.1c-.02-.33,0-.662,0-1.018h-1V990.3Z" transform="translate(561.252 -963.22)" fill="#37a3a5"/>
        <path id="Trazado_117244" data-name="Trazado 117244" d="M-533.9,983.788h1.077c0-.358-.018-.69,0-1.02a1.046,1.046,0,0,1,1.125-1.107c1.056-.02,2.115-.023,3.171,0a1.013,1.013,0,0,1,1.117,1.1q.031,4.311,0,8.622a1.018,1.018,0,0,1-1.13,1.092q-4.818.008-9.638,0a1.069,1.069,0,0,1-1.161-1.146q-.031-4.28,0-8.561a1.051,1.051,0,0,1,1.128-1.112q1.584-.042,3.171-.008a1.056,1.056,0,0,1,1.133,1.164C-533.892,983.131-533.9,983.443-533.9,983.788Zm-3.178.074v6.408h7.454v-6.4h-1c0,.3.005.57,0,.839A1.151,1.151,0,0,1-531.917,986c-.992.005-1.984.01-2.976-.005a1.083,1.083,0,0,1-1.176-1.187c-.008-.31,0-.619,0-.949Z" transform="translate(586.955 -963.222)" fill="#12263f"/>
      </g>
    </g>
    <g id="Z1vj45.tif-2" data-name="Z1vj45.tif" transform="translate(101.413 1100.877)">
      <g id="Grupo_54405" data-name="Grupo 54405">
        <path id="Trazado_117245" data-name="Trazado 117245" d="M-235.133,1021.553a.828.828,0,0,0-.1.156,3.2,3.2,0,0,1-3.36,2.429q-9.7.015-19.411.008h-37.42c-.591,0-1.186.01-1.775-.044a3.159,3.159,0,0,1-2.892-3.14q-.012-11.86.013-23.722a1.7,1.7,0,0,1,.378-1.02c2.6-2.974,5.237-5.922,7.86-8.88a3.469,3.469,0,0,1,2.782-1.12c5.349.008,10.7-.005,16.046,0,8.858,0,17.718.018,26.575-.01a4.2,4.2,0,0,1,3.432,1.539c2.294,2.657,4.651,5.257,6.981,7.881.3.345.6.7.895,1.056Zm-2.209-3.961v-15.059H-297.9v15.059Zm-1.378-21.668c-.235-.276-.378-.453-.529-.622-1.613-1.818-3.286-3.59-4.82-5.472a3.122,3.122,0,0,0-3.184-1.406,1.851,1.851,0,0,1-.314,0q-20.777,0-41.552-.01a1.49,1.49,0,0,0-1.222.522c-1.931,2.189-3.874,4.365-5.81,6.546-.1.115-.179.253-.312.44Zm1.424,23.924h-60.6c-.169,1.762.13,2.1,1.8,2.1l41.284,0q8.085,0,16.173,0c.954,0,1.332-.386,1.34-1.348C-237.3,1020.367-237.3,1020.137-237.3,1019.848Zm-.038-21.612H-297.9v2.02h60.564Z" transform="translate(300.1 -986.207)" fill="#12263f"/>
        <path id="Trazado_117246" data-name="Trazado 117246" d="M-287.047,995.546c.228.02.371.043.514.043.164,0,.327-.02.57-.038,0-.337-.008-.647,0-.959.026-.762.373-1.146,1.12-1.163q1.584-.035,3.171,0a1.033,1.033,0,0,1,1.128,1.1q.034,4.311,0,8.622c-.005.721-.458,1.089-1.2,1.089q-4.756.011-9.512.005a1.069,1.069,0,0,1-1.217-1.151q-.031-4.28.008-8.561a1.031,1.031,0,0,1,1.122-1.11c1.056-.026,2.112-.026,3.171-.008a1.046,1.046,0,0,1,1.125,1.107C-287.029,994.861-287.047,995.193-287.047,995.546Zm3.263.092c0,.338.005.632,0,.923a1.118,1.118,0,0,1-1.233,1.21c-.972,0-1.943,0-2.918-.005-.885-.008-1.279-.4-1.291-1.273,0-.286,0-.57,0-.831h-1.008v6.4h7.451v-6.423Z" transform="translate(311.95 -974.99)" fill="#37a3a5"/>
        <path id="Trazado_117247" data-name="Trazado 117247" d="M-281.544,995.553h1.074c0-.279-.005-.524,0-.772.028-1.018.361-1.35,1.394-1.363.867-.013,1.731,0,2.6-.005,1.074,0,1.458.376,1.458,1.445q0,2.758-.005,5.516c0,.867.013,1.731-.005,2.6-.018.905-.394,1.276-1.281,1.276q-4.691.008-9.382,0c-.885,0-1.279-.383-1.284-1.276q-.015-4.123,0-8.242c0-.928.389-1.3,1.322-1.307s1.862-.01,2.79,0c.979.01,1.309.355,1.319,1.355C-281.544,995.009-281.544,995.241-281.544,995.553Zm4.275,6.51V995.64h-1.01c0,.3.005.565,0,.834-.013.877-.412,1.286-1.279,1.291-.992.008-1.987.013-2.979,0a1.085,1.085,0,0,1-1.179-1.189c-.01-.309,0-.616,0-.923h-.992v6.411Z" transform="translate(320.52 -974.989)" fill="#12263f"/>
        <path id="Trazado_117248" data-name="Trazado 117248" d="M-292.549,995.556h1.082c0-.386-.018-.739,0-1.089a.979.979,0,0,1,.99-1.025q1.68-.054,3.36-.01c.713.018,1.082.506,1.084,1.358.005,1.882,0,3.762,0,5.643,0,.844.013,1.69,0,2.534-.018.887-.409,1.279-1.286,1.281q-4.722.011-9.446,0a1.059,1.059,0,0,1-1.209-1.209q-.023-4.215,0-8.431c0-.8.409-1.174,1.238-1.184.951-.013,1.9-.01,2.851,0,.974.01,1.319.363,1.34,1.348C-292.544,995.019-292.549,995.27-292.549,995.556Zm4.245,6.51v-6.413h-1c0,.32.005.591,0,.862a1.107,1.107,0,0,1-1.245,1.25c-1.015.01-2.03.013-3.045,0a1.088,1.088,0,0,1-1.143-1.1c-.02-.33,0-.662,0-1.018h-1v6.423Z" transform="translate(303.386 -974.99)" fill="#12263f"/>
        <path id="Trazado_117249" data-name="Trazado 117249" d="M-276.033,995.558h1.074c0-.358-.018-.691.005-1.02a1.046,1.046,0,0,1,1.125-1.107c1.056-.021,2.112-.023,3.168,0a1.014,1.014,0,0,1,1.12,1.1q.031,4.311,0,8.622a1.021,1.021,0,0,1-1.133,1.092q-4.818.007-9.638,0a1.07,1.07,0,0,1-1.161-1.146q-.027-4.281,0-8.561a1.052,1.052,0,0,1,1.128-1.112q1.584-.042,3.171-.008a1.054,1.054,0,0,1,1.133,1.163C-276.025,994.9-276.033,995.213-276.033,995.558Zm-3.178.074v6.408h7.454v-6.4h-1c0,.3.005.57,0,.839a1.152,1.152,0,0,1-1.289,1.289c-.992,0-1.984.01-2.976-.005a1.083,1.083,0,0,1-1.176-1.187c-.005-.31,0-.619,0-.949Z" transform="translate(329.089 -974.992)" fill="#37a3a5"/>
      </g>
    </g>
    <g id="Group_29098" data-name="Group 29098" transform="translate(27.544 963.382)">
      <rect id="Rectangle_26580" data-name="Rectangle 26580" width="5.139" height="3.425" transform="translate(72.24 13.745)" fill="#2d9495"/>
      <rect id="Rectangle_26581" data-name="Rectangle 26581" width="5.139" height="3.425" transform="translate(72.24 18.884)" fill="#2d9495"/>
      <rect id="Rectangle_26582" data-name="Rectangle 26582" width="5.139" height="3.425" transform="translate(61.961 13.745)" fill="#2d9495"/>
      <rect id="Rectangle_26583" data-name="Rectangle 26583" width="5.139" height="3.425" transform="translate(61.961 18.884)" fill="#2d9495"/>
      <rect id="Rectangle_26584" data-name="Rectangle 26584" width="3.425" height="3.425" transform="translate(55.111 17.172)" fill="#12263f"/>
      <rect id="Rectangle_26585" data-name="Rectangle 26585" width="3.425" height="3.425" transform="translate(48.014 17.172)" fill="#12263f"/>
      <rect id="Rectangle_26586" data-name="Rectangle 26586" width="3.425" height="3.425" transform="translate(41.407 17.172)" fill="#12263f"/>
      <rect id="Rectangle_26587" data-name="Rectangle 26587" width="3.425" height="3.425" transform="translate(34.557 17.172)" fill="#12263f"/>
      <rect id="Rectangle_26588" data-name="Rectangle 26588" width="3.425" height="3.425" transform="translate(27.705 17.172)" fill="#12263f"/>
      <rect id="Rectangle_26589" data-name="Rectangle 26589" width="3.425" height="3.425" transform="translate(20.853 17.172)" fill="#12263f"/>
      <rect id="Rectangle_26590" data-name="Rectangle 26590" width="3.425" height="3.425" transform="translate(13.758 17.172)" fill="#12263f"/>
      <rect id="Rectangle_26591" data-name="Rectangle 26591" width="3.425" height="3.425" transform="translate(6.906 17.172)" fill="#12263f"/>
      <path id="Path_69062" data-name="Path 69062" d="M-246.52,959.883h-82.37c-.028-.383-.069-.741-.069-1.094,0-5.59.013-11.174-.023-16.764a1.546,1.546,0,0,1,.9-1.534c4.137-2.452,8.234-4.971,12.384-7.4a4.812,4.812,0,0,1,2.3-.629q25.507-.05,51.011,0a4.7,4.7,0,0,1,2.189.6q6.436,3.644,12.793,7.428a1.991,1.991,0,0,1,.933,1.342c.064,5.833.046,11.663.046,17.5A4.166,4.166,0,0,1-246.52,959.883Zm-3.35-15.314h-75.589v11.877h75.589Zm-72.342-3.618h68.488c-2.685-1.785-5.421-3.383-8.183-4.93a2.824,2.824,0,0,0-1.309-.192q-24.717-.016-49.433,0a2.955,2.955,0,0,0-1.417.24C-316.7,937.6-319.3,939.194-322.212,940.951Z" transform="translate(328.988 -932.436)" fill="#12263f"/>
    </g>
    <line id="Línea_1548" data-name="Línea 1548" y2="49.852" transform="translate(-457.914 912.561)" fill="#030504" stroke="#001a2e" stroke-miterlimit="10" stroke-width="2"/>
    <line id="Línea_1549" data-name="Línea 1549" y2="152.429" transform="translate(-457.914 991.074)" fill="#030504" stroke="#001a2e" stroke-miterlimit="10" stroke-width="2"/>
    <line id="Línea_1550" data-name="Línea 1550" y2="49.852" transform="translate(65.526 912.561)" fill="#030504" stroke="#001a2e" stroke-miterlimit="10" stroke-width="2"/>
    <line id="Línea_1551" data-name="Línea 1551" y2="152.429" transform="translate(65.526 991.074)" fill="#030504" stroke="#001a2e" stroke-miterlimit="10" stroke-width="2"/>
    <line id="Línea_1552" data-name="Línea 1552" x2="32.403" transform="translate(-490.703 1093.498)" fill="#030504" stroke="#001a2e" stroke-miterlimit="10" stroke-width="2"/>
    <line id="Línea_1553" data-name="Línea 1553" x2="32.403" transform="translate(66.454 1124.719)" fill="#030504" stroke="#001a2e" stroke-miterlimit="10" stroke-width="2"/>
    <line id="Línea_1554" data-name="Línea 1554" x2="28.401" y2="75.141" transform="translate(-437.359 990.05)" fill="#030504" stroke="#001a2e" stroke-miterlimit="10" stroke-width="2"/>
    <line id="Línea_1555" data-name="Línea 1555" y1="69.339" x2="25.441" transform="translate(-347.892 996.651)" fill="#030504" stroke="#001a2e" stroke-miterlimit="10" stroke-width="2"/>
    <line id="Línea_1556" data-name="Línea 1556" x2="50.944" y2="77.673" transform="translate(-365.737 1093.485)" fill="#030504" stroke="#12263f" stroke-miterlimit="10" stroke-width="2"/>
    <line id="Línea_1557" data-name="Línea 1557" y1="31.268" x2="129.039" transform="translate(-344.141 1037.445)" fill="#030504" stroke="#001a2e" stroke-miterlimit="10" stroke-width="2"/>
    <line id="Línea_1558" data-name="Línea 1558" x2="141.25" y2="25.862" transform="translate(-341.456 1079.903)" fill="#030504" stroke="#12263f" stroke-miterlimit="10" stroke-width="2"/>
    <line id="Línea_1559" data-name="Línea 1559" y1="45.86" x2="46.591" transform="translate(-244.826 1125.297)" fill="#030504" stroke="#12263f" stroke-miterlimit="10" stroke-width="2"/>
    <line id="Línea_1560" data-name="Línea 1560" x2="63.241" y2="29.756" transform="translate(-129.856 1134.712)" fill="#030504" stroke="#12263f" stroke-miterlimit="10" stroke-width="2"/>
    <line id="Línea_1561" data-name="Línea 1561" y1="72.531" x2="13.584" transform="translate(-30.828 1093.485)" fill="#030504" stroke="#12263f" stroke-miterlimit="10" stroke-width="2"/>
    <line id="Línea_1562" data-name="Línea 1562" y1="73.029" x2="35.421" transform="translate(19.828 990.05)" fill="#030504" stroke="#001a2e" stroke-miterlimit="10" stroke-width="2"/>
    <line id="Línea_1563" data-name="Línea 1563" x1="12.56" y1="73.642" transform="translate(-27.723 992.357)" fill="#030504" stroke="#001a2e" stroke-miterlimit="10" stroke-width="2"/>
    <line id="Línea_1564" data-name="Línea 1564" y1="22.578" x2="71.531" transform="translate(-142.317 995.042)" fill="#030504" stroke="#001a2e" stroke-miterlimit="10" stroke-width="2"/>
    <line id="Línea_1565" data-name="Línea 1565" y1="17.299" x2="84.28" transform="translate(-132.329 1082.604)" fill="#030504" stroke="#12263f" stroke-miterlimit="10" stroke-width="2"/>
    <line id="Línea_1566" data-name="Línea 1566" x2="91.464" y2="31.486" transform="translate(-139.513 1037.357)" fill="#030504" stroke="#12263f" stroke-miterlimit="10" stroke-width="2"/>
    <line id="Línea_1567" data-name="Línea 1567" x2="53.833" y2="22.35" transform="translate(-260.849 992.357)" fill="#030504" stroke="#001a2e" stroke-miterlimit="10" stroke-width="2"/>
    <path id="Trazado_117250" data-name="Trazado 117250" d="M-439.58,937.2" transform="translate(184.335 38.359)" fill="#030504" stroke="#001a2e" stroke-miterlimit="10" stroke-width="1"/>
    <line id="Línea_1568" data-name="Línea 1568" x2="181.457" y2="0.129" transform="translate(-256.934 970.257)" fill="#030504" stroke="#001a2e" stroke-miterlimit="10" stroke-width="2"/>
    <line id="Línea_1569" data-name="Línea 1569" x1="167.321" y2="3.717" transform="translate(-242.022 1172.973)" fill="#030504" stroke="#12263f" stroke-miterlimit="10" stroke-width="2"/>
    <circle id="Elipse_3960" data-name="Elipse 3960" cx="54.859" cy="54.859" r="54.859" transform="translate(-64.431 1007.916)" fill="none" stroke="#12263f" stroke-miterlimit="10" stroke-width="2"/>
    <circle id="Elipse_3961" data-name="Elipse 3961" cx="54.859" cy="54.859" r="54.859" transform="translate(-434.11 1007.916)" fill="none" stroke="#12263f" stroke-miterlimit="10" stroke-width="2"/>
    <path id="Trazado_117251" data-name="Trazado 117251" d="M-480.861,1080.929s5.62-67.514,43.191-63.822" transform="translate(120.058 162.555)" fill="none" stroke="#37a3a5" stroke-miterlimit="10" stroke-width="2"/>
    <path id="Trazado_117252" data-name="Trazado 117252" d="M-487.076,1045.4s56.391-18,59.083-23.957" transform="translate(110.381 169.537)" fill="none" stroke="#37a3a5" stroke-miterlimit="10" stroke-width="2"/>
    <g id="RNGu9o" transform="translate(-455.896 1214.94)">
      <g id="Grupo_54403" data-name="Grupo 54403">
        <path id="Trazado_117237" data-name="Trazado 117237" d="M-470.493,1089.872h-43.15c-1.192,0-1.734-.524-1.734-1.711q0-22.028.008-44.058c0-2.207-.051-4.424.128-6.62a7.124,7.124,0,0,1,3.654-5.569,7.472,7.472,0,0,1,4.035-1.1q37.075,0,74.149.013a7.354,7.354,0,0,1,7.114,4.551,7.817,7.817,0,0,1,.7,3.135q.061,24.846.026,49.7c0,1.141-.552,1.662-1.711,1.662h-43.219Zm42.076-2.91v-1q0-20.547,0-41.092c0-2.02.079-4.037.044-6.055a4.942,4.942,0,0,0-1.25-3.506,5.267,5.267,0,0,0-3.923-1.619q-36.864.031-73.727.016a8.427,8.427,0,0,0-.846.015,4.769,4.769,0,0,0-4.36,4.355c-.13,2.36-.036,4.733-.036,7.1v41.785Z" transform="translate(522.208 -1030.814)" fill="#12263f"/>
        <path id="Trazado_117238" data-name="Trazado 117238" d="M-456.221,1058.207c.345-2.1,1.394-3,3.388-3q11.476,0,22.952,0,6.7,0,13.4,0c1.521,0,1.89.422,1.864,1.931-.033,1.762-.056,3.526.023,5.286a5.2,5.2,0,0,1-5.183,5.157c-.353.008-.706,0-1.059,0h-91.525c-2.874,0-5.022-1.562-5.549-4.137a12.758,12.758,0,0,1-.136-2.524c-.008-1.363.028-2.728.054-4.091.02-1.189.448-1.626,1.626-1.621,3.2.01,6.4.051,9.6.049,8.543-.01,17.086-.043,25.632-.036a5.448,5.448,0,0,1,2.1.414,2.415,2.415,0,0,1,1.412,2.061c.041.409.228.517.583.514q2.539-.012,5.078-.015,3.559,0,7.119.005C-461.98,1058.207-459.116,1058.207-456.221,1058.207Zm-24.287-.143H-514.3c-.91,0-.928,0-.936.933-.005.964.113,1.936.026,2.89a2.615,2.615,0,0,0,2.815,2.828q46.012-.05,92.023-.026c.212,0,.425.005.634-.005a2.16,2.16,0,0,0,2.212-1.81c.138-1.57.036-3.161.036-4.871-1.59,0-3.132-.005-4.677,0-3.076.015-6.152.051-9.228.056q-9.324.012-18.646,0c-.895,0-1.787.008-2.682,0-.345,0-.54.049-.619.468a2.823,2.823,0,0,1-3,2.509q-10.521.015-21.045,0a2.874,2.874,0,0,1-3.051-2.631C-480.454,1058.317-480.475,1058.227-480.508,1058.063Z" transform="translate(518.049 -992.831)" fill="#12263f"/>
        <path id="Trazado_117239" data-name="Trazado 117239" d="M-474.327,1077.212H-511.19c-1.337,0-1.874-.509-1.874-1.8q0-17.759.013-35.515c0-1.6.023-3.2.028-4.8a1.516,1.516,0,0,1,1.4-1.639,4.734,4.734,0,0,1,.632-.023q12.362,0,24.719,0c3.007,0,6.012.054,9.019.054,3.311,0,6.625-.051,9.939-.054q14.963-.008,29.925,0a1.575,1.575,0,0,1,1.734,1.741v40.238c0,1.317-.519,1.793-1.949,1.793Q-455.964,1077.215-474.327,1077.212Zm35.771-40.913h-71.587v37.972h71.587Z" transform="translate(525.813 -1026.741)" fill="#12263f"/>
      </g>
    </g>
    <g id="Group_29098-2" data-name="Group 29098" transform="translate(-499.194 963.382)">
      <rect id="Rectangle_26580-2" data-name="Rectangle 26580" width="5.139" height="3.425" transform="translate(72.24 13.745)" fill="#2d9495"/>
      <rect id="Rectangle_26581-2" data-name="Rectangle 26581" width="5.139" height="3.425" transform="translate(72.24 18.884)" fill="#2d9495"/>
      <rect id="Rectangle_26582-2" data-name="Rectangle 26582" width="5.139" height="3.425" transform="translate(61.961 13.745)" fill="#2d9495"/>
      <rect id="Rectangle_26583-2" data-name="Rectangle 26583" width="5.139" height="3.425" transform="translate(61.961 18.884)" fill="#2d9495"/>
      <rect id="Rectangle_26584-2" data-name="Rectangle 26584" width="3.425" height="3.425" transform="translate(55.111 17.172)" fill="#12263f"/>
      <rect id="Rectangle_26585-2" data-name="Rectangle 26585" width="3.425" height="3.425" transform="translate(48.014 17.172)" fill="#12263f"/>
      <rect id="Rectangle_26586-2" data-name="Rectangle 26586" width="3.425" height="3.425" transform="translate(41.407 17.172)" fill="#12263f"/>
      <rect id="Rectangle_26587-2" data-name="Rectangle 26587" width="3.425" height="3.425" transform="translate(34.557 17.172)" fill="#12263f"/>
      <rect id="Rectangle_26588-2" data-name="Rectangle 26588" width="3.425" height="3.425" transform="translate(27.705 17.172)" fill="#12263f"/>
      <rect id="Rectangle_26589-2" data-name="Rectangle 26589" width="3.425" height="3.425" transform="translate(20.853 17.172)" fill="#12263f"/>
      <rect id="Rectangle_26590-2" data-name="Rectangle 26590" width="3.425" height="3.425" transform="translate(13.758 17.172)" fill="#12263f"/>
      <rect id="Rectangle_26591-2" data-name="Rectangle 26591" width="3.425" height="3.425" transform="translate(6.906 17.172)" fill="#12263f"/>
      <path id="Path_69062-2" data-name="Path 69062" d="M-246.52,959.883h-82.37c-.028-.383-.069-.741-.069-1.094,0-5.59.013-11.174-.023-16.764a1.546,1.546,0,0,1,.9-1.534c4.137-2.452,8.234-4.971,12.384-7.4a4.812,4.812,0,0,1,2.3-.629q25.507-.05,51.011,0a4.7,4.7,0,0,1,2.189.6q6.436,3.644,12.793,7.428a1.991,1.991,0,0,1,.933,1.342c.064,5.833.046,11.663.046,17.5A4.166,4.166,0,0,1-246.52,959.883Zm-3.35-15.314h-75.589v11.877h75.589Zm-72.342-3.618h68.488c-2.685-1.785-5.421-3.383-8.183-4.93a2.824,2.824,0,0,0-1.309-.192q-24.717-.016-49.433,0a2.955,2.955,0,0,0-1.417.24C-316.7,937.6-319.3,939.194-322.212,940.951Z" transform="translate(328.988 -932.436)" fill="#12263f"/>
    </g>
  </g>
</svg>
