<svg xmlns="http://www.w3.org/2000/svg" xmlns:xlink="http://www.w3.org/1999/xlink" width="91.927" height="91.928" viewBox="0 0 91.927 91.928">
  <defs>
    <radialGradient id="radial-gradient" cx="0.076" cy="0.019" r="1.465" gradientTransform="translate(0.001)" gradientUnits="objectBoundingBox">
      <stop offset="0" stop-color="#f6f6f7"/>
      <stop offset="0.477" stop-color="#f9f9fa"/>
      <stop offset="0.715" stop-color="#fff"/>
    </radialGradient>
  </defs>
  <g id="Grupo_54437" data-name="Grupo 54437" transform="translate(-217 -741.333)">
    <g id="Grupo_42274" data-name="Grupo 42274" transform="translate(142 768.333)">
      <g id="Grupo_18423" data-name="Grupo 18423" transform="translate(75 -27)">
        <g id="Grupo_18421" data-name="Grupo 18421">
          <g id="Grupo_18420" data-name="Grupo 18420">
            <g id="Grupo_18419" data-name="Grupo 18419">
              <path id="Trazado_40936" data-name="Trazado 40936" d="M286.55,2191.684a45.964,45.964,0,1,1-45.963-45.962A45.963,45.963,0,0,1,286.55,2191.684Z" transform="translate(-194.623 -2145.721)" fill="#fff"/>
            </g>
          </g>
        </g>
        <path id="Trazado_40937" data-name="Trazado 40937" d="M286.23,2191.334a45.963,45.963,0,1,0-45.963,45.965A45.782,45.782,0,0,0,286.23,2191.334Z" transform="translate(-194.303 -2145.372)" fill="url(#radial-gradient)"/>
        <path id="Trazado_40938" data-name="Trazado 40938" d="M272.56,2188.562a35.084,35.084,0,1,0-35.084,35.084A34.953,34.953,0,0,0,272.56,2188.562Z" transform="translate(-191.373 -2142.446)" fill="none" stroke="#37a3a5" stroke-miterlimit="10" stroke-width="4"/>
        <g id="Grupo_18422" data-name="Grupo 18422" transform="translate(8.143 25.805)">
          <path id="Trazado_40939" data-name="Trazado 40939" d="M279.682,2164.488a45.969,45.969,0,0,1-79.137,45.773,45.823,45.823,0,0,0,79.137-45.773Z" transform="translate(-200.545 -2164.488)" fill="#eceef0"/>
        </g>
      </g>
    </g>
    <g id="Grupo_54439" data-name="Grupo 54439" transform="translate(2061.554 278.08)">
      <path id="Trazado_117301" data-name="Trazado 117301" d="M-1817.6,509.382c.307-.626.622-1.248.918-1.879q1.471-3.134,2.931-6.273c.048-.1.084-.213.139-.351-.222-.1-.426-.215-.64-.3a2.06,2.06,0,0,1-1.393-1.945,4.866,4.866,0,0,0-.818-2.551,2.1,2.1,0,0,1-.015-2.5,5.014,5.014,0,0,0,.834-2.592,2.012,2.012,0,0,1,1.372-1.91,5.243,5.243,0,0,0,2.307-1.684,1.962,1.962,0,0,1,2.2-.7,5.391,5.391,0,0,0,2.857,0,1.982,1.982,0,0,1,2.2.7,4.891,4.891,0,0,0,2.189,1.623,2.158,2.158,0,0,1,1.511,2.143,4.078,4.078,0,0,0,.707,2.224,2.292,2.292,0,0,1,.006,2.851,4.709,4.709,0,0,0-.748,2.485,2.068,2.068,0,0,1-1.421,1.878c-.2.083-.394.184-.619.29l4.019,8.619-3.97-1-1.915,3.749-3.387-7.248-3.39,7.247-1.912-3.746c-1.2.3-2.387.6-3.574.9-.126.031-.257.044-.386.066Zm9.5-9.366a5.136,5.136,0,0,0,4.956-5.363,5.189,5.189,0,0,0-5.6-5.039,5.25,5.25,0,0,0-4.812,5.524A5.211,5.211,0,0,0-1808.1,500.015Z" fill="#12263f"/>
      <path id="Trazado_117302" data-name="Trazado 117302" d="M-1732.263,739.315c.492,1.057.943,2.006,1.373,2.964a1.292,1.292,0,0,1,.063.513q.005,6.9,0,13.791v.376h20.845c0-.356,0-.716,0-1.076,0-.922-.01-1.845.005-2.767a.819.819,0,0,1,.165-.51c.989-1.059,2-2.1,3-3.148a.731.731,0,0,1,.137-.08V760.3h-27.508v-.543c0-5.226-.007-10.453.012-15.679a3.289,3.289,0,0,1,.283-1.254C-1733.386,741.672-1732.836,740.545-1732.263,739.315Z" transform="translate(-76.08 -230.466)" fill="#12263f"/>
      <path id="Trazado_117303" data-name="Trazado 117303" d="M-1517.554,682.1l3.828,3.918-13.613,13.735-3.831-3.915Z" transform="translate(-261.217 -178.291)" fill="#12263f"/>
      <path id="Trazado_117304" data-name="Trazado 117304" d="M-1607.31,550.863h16.33c.012.118.034.229.034.339q0,5.862,0,11.724a.663.663,0,0,1-.142.429c-1.029,1.04-2.073,2.065-3.153,3.135V554.212h-12.214A4.371,4.371,0,0,0-1607.31,550.863Z" transform="translate(-191.78 -58.605)" fill="#12263f"/>
      <path id="Trazado_117305" data-name="Trazado 117305" d="M-1643.807,797.66c-1.14,1.1-2.212,2.137-3.293,3.166a.549.549,0,0,1-.347.13q-4.546.008-9.092,0a.408.408,0,0,1-.1-.038V797.66Z" transform="translate(-146.791 -283.674)" fill="#12263f"/>
      <path id="Trazado_117306" data-name="Trazado 117306" d="M-1606.96,642.386v-3.3h9.525v3.3Z" transform="translate(-192.099 -139.063)" fill="#12263f"/>
      <path id="Trazado_117307" data-name="Trazado 117307" d="M-1591.118,721.253v3.289c-.136.011-.262.03-.39.03-2.254,0-4.509,0-6.763.009a.5.5,0,0,1-.547-.368c-.388-.976-.8-1.942-1.229-2.961Z" transform="translate(-198.405 -213.994)" fill="#12263f"/>
      <path id="Trazado_117308" data-name="Trazado 117308" d="M-1544.878,853.428c-.775.193-1.523.389-2.278.557a.525.525,0,0,1-.408-.115q-.8-.751-1.561-1.544a.531.531,0,0,1-.145-.4,17.088,17.088,0,0,1,.668-2.4Z" transform="translate(-244.706 -330.971)" fill="#12263f"/>
      <path id="Trazado_117309" data-name="Trazado 117309" d="M-1555.011,887.308l-1.962.5.47-1.981Z" transform="translate(-237.685 -364.074)" fill="#12263f"/>
    </g>
  </g>
</svg>
