<svg xmlns="http://www.w3.org/2000/svg" xmlns:xlink="http://www.w3.org/1999/xlink" width="91.927" height="91.928" viewBox="0 0 91.927 91.928">
  <defs>
    <radialGradient id="radial-gradient" cx="0.076" cy="0.019" r="1.465" gradientTransform="translate(0.001)" gradientUnits="objectBoundingBox">
      <stop offset="0" stop-color="#f6f6f7"/>
      <stop offset="0.477" stop-color="#f9f9fa"/>
      <stop offset="0.715" stop-color="#fff"/>
    </radialGradient>
  </defs>
  <g id="Grupo_54490" data-name="Grupo 54490" transform="translate(-217 -741.334)">
    <g id="Grupo_42274" data-name="Grupo 42274" transform="translate(142 768.333)">
      <g id="Grupo_18423" data-name="Grupo 18423" transform="translate(75 -27)">
        <g id="Grupo_18421" data-name="Grupo 18421">
          <g id="Grupo_18420" data-name="Grupo 18420">
            <g id="Grupo_18419" data-name="Grupo 18419">
              <path id="Trazado_40936" data-name="Trazado 40936" d="M286.55,2191.684a45.964,45.964,0,1,1-45.963-45.962A45.963,45.963,0,0,1,286.55,2191.684Z" transform="translate(-194.623 -2145.721)" fill="#fff"/>
            </g>
          </g>
        </g>
        <path id="Trazado_40937" data-name="Trazado 40937" d="M286.23,2191.334a45.963,45.963,0,1,0-45.963,45.965A45.782,45.782,0,0,0,286.23,2191.334Z" transform="translate(-194.303 -2145.372)" fill="url(#radial-gradient)"/>
        <path id="Trazado_40938" data-name="Trazado 40938" d="M272.56,2188.562a35.084,35.084,0,1,0-35.084,35.084A34.953,34.953,0,0,0,272.56,2188.562Z" transform="translate(-191.373 -2142.446)" fill="none" stroke="#37a3a5" stroke-miterlimit="10" stroke-width="4"/>
        <g id="Grupo_18422" data-name="Grupo 18422" transform="translate(8.143 25.805)">
          <path id="Trazado_40939" data-name="Trazado 40939" d="M279.682,2164.488a45.969,45.969,0,0,1-79.137,45.773,45.823,45.823,0,0,0,79.137-45.773Z" transform="translate(-200.545 -2164.488)" fill="#eceef0"/>
        </g>
      </g>
    </g>
    <g id="Grupo_54500" data-name="Grupo 54500" transform="translate(216.303 739.396)">
      <g id="Grupo_54499" data-name="Grupo 54499" transform="translate(29.803 25.289)">
        <path id="Trazado_117675" data-name="Trazado 117675" d="M51.682,56.24h-.045a.743.743,0,0,1-.7-.786,4.763,4.763,0,0,1,3.681-4.3V44.6a.742.742,0,1,1,1.484,0V51.75a.743.743,0,0,1-.645.736c-.114.016-2.881.432-3.038,3.056A.743.743,0,0,1,51.682,56.24Z" transform="translate(-32.058 -27.602)" fill="#12263f"/>
        <path id="Trazado_117676" data-name="Trazado 117676" d="M54.045,65.029H40.894a.742.742,0,0,1-.741-.742V61.662a17.614,17.614,0,0,0-.793-5.229l-.752-2.424a.757.757,0,0,1-.033-.22V51.921a.742.742,0,1,1,1.485,0v1.756l.718,2.316a19.078,19.078,0,0,1,.859,5.668v1.882H53.3V58.875a.739.739,0,0,1,.2-.506l3.224-3.463a4.875,4.875,0,0,0,1.311-3.333V44.445A1.7,1.7,0,0,0,56.559,42.7a1.625,1.625,0,0,0-1.245.421,1.609,1.609,0,0,0-.527,1.2.742.742,0,1,1-1.484,0,3.108,3.108,0,0,1,3.385-3.1,3.2,3.2,0,0,1,2.834,3.22v7.129a6.355,6.355,0,0,1-1.709,4.344l-3.026,3.25v5.119A.742.742,0,0,1,54.045,65.029Z" transform="translate(-30.739 -27.319)" fill="#12263f"/>
        <path id="Trazado_117677" data-name="Trazado 117677" d="M55.01,71.512H40.094a.742.742,0,0,1-.742-.742V66.953a.742.742,0,0,1,.742-.742H55.01a.742.742,0,0,1,.742.742V70.77A.742.742,0,0,1,55.01,71.512ZM40.837,70.027H54.268V67.7H40.837Z" transform="translate(-30.822 -29.986)" fill="#12263f"/>
        <path id="Trazado_117678" data-name="Trazado 117678" d="M57.329,76.527H37.146a.742.742,0,0,1-.742-.742V71.225a.742.742,0,0,1,.742-.742H57.329a.742.742,0,0,1,.742.742v4.559A.742.742,0,0,1,57.329,76.527Zm-19.44-1.485h18.7V71.968h-18.7Z" transform="translate(-30.507 -30.442)" fill="#12263f"/>
        <path id="Trazado_117679" data-name="Trazado 117679" d="M63.132,51H57.843a.742.742,0,0,1-.742-.742v-7.6a1.625,1.625,0,0,0-3.25,0v7.6a.742.742,0,0,1-.741.742H30.545a.742.742,0,0,1-.742-.742V26.4a.742.742,0,0,1,.742-.742H63.132a.742.742,0,0,1,.741.742v2.372a.742.742,0,1,1-1.484,0V27.145h-31.1V49.519H52.367V42.662a3.109,3.109,0,0,1,6.218,0v6.857h3.8V32.774a.742.742,0,1,1,1.484,0V50.262A.742.742,0,0,1,63.132,51Z" transform="translate(-29.803 -25.66)" fill="#12263f"/>
        <path id="Trazado_117680" data-name="Trazado 117680" d="M52.372,31.527H45.005a.742.742,0,1,1,0-1.485h7.366a.742.742,0,1,1,0,1.485Z" transform="translate(-31.346 -26.128)" fill="#12263f"/>
        <path id="Trazado_117681" data-name="Trazado 117681" d="M59.265,35.283H36.241a.742.742,0,1,1,0-1.485H59.265a.742.742,0,1,1,0,1.485Z" transform="translate(-30.411 -26.528)" fill="#12263f"/>
        <path id="Trazado_117682" data-name="Trazado 117682" d="M59.265,39.039H36.241a.742.742,0,1,1,0-1.485H59.265a.742.742,0,1,1,0,1.485Z" transform="translate(-30.411 -26.929)" fill="#12263f"/>
        <path id="Trazado_117683" data-name="Trazado 117683" d="M54.945,42.795h-18.7a.742.742,0,1,1,0-1.485h18.7a.742.742,0,0,1,0,1.485Z" transform="translate(-30.411 -27.33)" fill="#12263f"/>
        <path id="Trazado_117684" data-name="Trazado 117684" d="M53.717,46.551H36.241a.742.742,0,1,1,0-1.485H53.717a.742.742,0,0,1,0,1.485Z" transform="translate(-30.411 -27.73)" fill="#12263f"/>
        <path id="Trazado_117685" data-name="Trazado 117685" d="M62.462,77.072H30.621a.742.742,0,1,1,0-1.485H62.462a.742.742,0,1,1,0,1.485Z" transform="translate(-29.811 -30.987)" fill="#12263f"/>
      </g>
    </g>
  </g>
</svg>
