<svg xmlns="http://www.w3.org/2000/svg" xmlns:xlink="http://www.w3.org/1999/xlink" width="91.927" height="91.927" viewBox="0 0 91.927 91.927">
  <defs>
    <radialGradient id="radial-gradient" cx="0.076" cy="0.019" r="1.465" gradientTransform="translate(0.001)" gradientUnits="objectBoundingBox">
      <stop offset="0" stop-color="#f6f6f7"/>
      <stop offset="0.477" stop-color="#f9f9fa"/>
      <stop offset="0.715" stop-color="#fff"/>
    </radialGradient>
  </defs>
  <g id="Grupo_54525" data-name="Grupo 54525" transform="translate(-217 -741.333)">
    <g id="Grupo_42274" data-name="Grupo 42274" transform="translate(142 768.333)">
      <g id="Grupo_18423" data-name="Grupo 18423" transform="translate(75 -27)">
        <g id="Grupo_18421" data-name="Grupo 18421">
          <g id="Grupo_18420" data-name="Grupo 18420">
            <g id="Grupo_18419" data-name="Grupo 18419">
              <path id="Trazado_40936" data-name="Trazado 40936" d="M286.55,2191.684a45.964,45.964,0,1,1-45.963-45.962A45.963,45.963,0,0,1,286.55,2191.684Z" transform="translate(-194.623 -2145.721)" fill="#fff"/>
            </g>
          </g>
        </g>
        <path id="Trazado_40937" data-name="Trazado 40937" d="M286.23,2191.334a45.963,45.963,0,1,0-45.963,45.965A45.782,45.782,0,0,0,286.23,2191.334Z" transform="translate(-194.303 -2145.372)" fill="url(#radial-gradient)"/>
        <path id="Trazado_40938" data-name="Trazado 40938" d="M272.56,2188.562a35.084,35.084,0,1,0-35.084,35.084A34.953,34.953,0,0,0,272.56,2188.562Z" transform="translate(-191.373 -2142.446)" fill="none" stroke="#37a3a5" stroke-miterlimit="10" stroke-width="4"/>
        <g id="Grupo_18422" data-name="Grupo 18422" transform="translate(8.143 25.805)">
          <path id="Trazado_40939" data-name="Trazado 40939" d="M279.682,2164.488a45.969,45.969,0,0,1-79.137,45.773,45.823,45.823,0,0,0,79.137-45.773Z" transform="translate(-200.545 -2164.488)" fill="#eceef0"/>
        </g>
      </g>
    </g>
    <g id="sG6ua8.tif" transform="translate(-65.972 71.797)">
      <g id="Grupo_54530" data-name="Grupo 54530" transform="translate(307.777 693.944)">
        <path id="Trazado_117729" data-name="Trazado 117729" d="M326.034,724.359v-2.98H311.161c-1.337,0-1.73-.4-1.73-1.739q0-11.98,0-23.96c0-1.314.424-1.735,1.746-1.735h35.739c1.334,0,1.723.394,1.723,1.742q0,11.98,0,23.96c0,1.356-.372,1.731-1.72,1.731H332.068v2.98c.722,0,1.462-.031,2.2.007a1.717,1.717,0,0,1,1.7,1.828H322.1a1.746,1.746,0,0,1,1.715-1.827C324.538,724.328,325.263,724.359,326.034,724.359Zm3.028-29.263h-17.48c-.924,0-1,.078-1,1.01q0,10.436,0,20.872c0,.928.079,1.006,1,1.006h34.9c.945,0,1.043-.1,1.043-1.039q0-10.406,0-20.812c0-.943-.095-1.036-1.047-1.036ZM346.1,719.539c-.311-.205-.5-.426-.633-.395-.179.044-.311.28-.463.433.146.141.292.395.439.4C345.614,719.976,345.79,719.758,346.1,719.539Z" transform="translate(-307.895 -693.944)" fill="#12263f"/>
        <path id="Trazado_117730" data-name="Trazado 117730" d="M307.817,738.67c.076-.189.131-.357.207-.513,1.208-2.489,2.424-4.975,3.622-7.468a.7.7,0,0,1,.727-.472q16.565.017,33.13.022a.8.8,0,0,1,.613.317c1.33,2.674,2.629,5.364,3.968,8.114Zm1.54-.791h39.057c0-.07.02-.115,0-.146-1.037-2.146-2.067-4.294-3.129-6.426a.752.752,0,0,0-.577-.282Q328.936,731,313.162,731a.657.657,0,0,0-.689.442c-.406.88-.839,1.748-1.262,2.62C310.605,735.313,310,736.56,309.357,737.878Z" transform="translate(-307.78 -696.528)" fill="#12263f"/>
        <path id="Trazado_117731" data-name="Trazado 117731" d="M307.777,740.319v-.566h42.276l.042.566Z" transform="translate(-307.777 -697.207)" fill="#12263f"/>
        <path id="Trazado_117732" data-name="Trazado 117732" d="M318.353,738.035c.02-.618.306-.764.854-.763q10.488.028,20.975,0c.549,0,.841.135.826.763Z" transform="translate(-308.53 -697.03)" fill="#12263f"/>
        <path id="Trazado_117733" data-name="Trazado 117733" d="M333.016,734.346a6.7,6.7,0,0,1,1.359.03c.191.04.317.4.473.611l-.136.166h-1.065C332.924,735.152,332.92,735.147,333.016,734.346Z" transform="translate(-309.571 -696.82)" fill="#12263f"/>
        <path id="Trazado_117734" data-name="Trazado 117734" d="M332.85,733.662l-.041-.736h1.713l.1.736Z" transform="translate(-309.56 -696.721)" fill="#12263f"/>
        <path id="Trazado_117735" data-name="Trazado 117735" d="M331.328,734.387v.74h-1.686v-.74Z" transform="translate(-309.334 -696.825)" fill="#12263f"/>
        <path id="Trazado_117736" data-name="Trazado 117736" d="M331.324,733.671h-1.676v-.75h1.676Z" transform="translate(-309.335 -696.72)" fill="#12263f"/>
        <path id="Trazado_117737" data-name="Trazado 117737" d="M331.333,731.467v.75h-1.682v-.75Z" transform="translate(-309.335 -696.617)" fill="#12263f"/>
        <path id="Trazado_117738" data-name="Trazado 117738" d="M332.73,732.222l-.062-.732h1.7l.12.732Z" transform="translate(-309.55 -696.618)" fill="#12263f"/>
        <path id="Trazado_117739" data-name="Trazado 117739" d="M335.714,731.436a6.221,6.221,0,0,1,1.369.03c.227.052.385.406.573.623l-.135.159a6.288,6.288,0,0,1-1.37-.029c-.226-.052-.382-.406-.569-.623Z" transform="translate(-309.757 -696.613)" fill="#12263f"/>
        <path id="Trazado_117740" data-name="Trazado 117740" d="M340.7,732.248a6.081,6.081,0,0,1-1.378-.03c-.238-.056-.4-.413-.6-.634l.133-.148a6.123,6.123,0,0,1,1.376.03c.235.055.4.411.6.632Z" transform="translate(-309.981 -696.613)" fill="#12263f"/>
        <path id="Trazado_117741" data-name="Trazado 117741" d="M343.682,732.247a6.384,6.384,0,0,1-1.376-.028c-.249-.057-.434-.391-.713-.663C343.124,731.218,343.5,731.354,343.682,732.247Z" transform="translate(-310.185 -696.611)" fill="#12263f"/>
        <path id="Trazado_117742" data-name="Trazado 117742" d="M344.835,731.488c1.963-.111,1.664-.153,1.927.711C344.811,732.311,345.094,732.352,344.835,731.488Z" transform="translate(-310.416 -696.614)" fill="#12263f"/>
        <path id="Trazado_117743" data-name="Trazado 117743" d="M313.474,733.659c.284-.869.555-.961,1.953-.708C315.182,733.813,315.182,733.813,313.474,733.659Z" transform="translate(-308.183 -696.714)" fill="#12263f"/>
        <path id="Trazado_117744" data-name="Trazado 117744" d="M339.806,734.346a6.176,6.176,0,0,1,1.364.029c.232.055.395.407.588.624l-.125.153a6.816,6.816,0,0,1-1.372-.027c-.227-.047-.395-.374-.589-.575Z" transform="translate(-310.049 -696.82)" fill="#12263f"/>
        <path id="Trazado_117745" data-name="Trazado 117745" d="M336.631,735.105l-.169-.643c1.147-.363,1.727-.172,1.88.643Z" transform="translate(-309.82 -696.817)" fill="#12263f"/>
        <path id="Trazado_117746" data-name="Trazado 117746" d="M318.105,734.426c-.28.83-.442.884-1.924.67C316.345,734.257,316.674,734.138,318.105,734.426Z" transform="translate(-308.376 -696.817)" fill="#12263f"/>
        <path id="Trazado_117747" data-name="Trazado 117747" d="M328.2,732.935l-.1.737h-1.663v-.737Z" transform="translate(-309.106 -696.721)" fill="#12263f"/>
        <path id="Trazado_117748" data-name="Trazado 117748" d="M326.519,732.2l.062-.725h1.751l-.087.725Z" transform="translate(-309.112 -696.617)" fill="#12263f"/>
        <path id="Trazado_117749" data-name="Trazado 117749" d="M338.146,733.66c-.338.023-.457.038-.576.039-.421,0-.842,0-1.312,0l-.222-.813a6.656,6.656,0,0,1,1.449.03C337.712,732.971,337.868,733.331,338.146,733.66Z" transform="translate(-309.79 -696.716)" fill="#12263f"/>
        <path id="Trazado_117750" data-name="Trazado 117750" d="M322.153,731.435c-.218.9.155.871-1.876.771-.022-.565.181-.857.8-.778A8.9,8.9,0,0,0,322.153,731.435Z" transform="translate(-308.667 -696.613)" fill="#12263f"/>
        <path id="Trazado_117751" data-name="Trazado 117751" d="M344.233,733.662c-1.684.153-1.684.153-1.872-.671C343.528,732.623,344.1,732.829,344.233,733.662Z" transform="translate(-310.24 -696.713)" fill="#12263f"/>
        <path id="Trazado_117752" data-name="Trazado 117752" d="M347.483,733.646c-1.951.112-1.689.151-1.936-.7C347.056,732.709,347.237,732.774,347.483,733.646Z" transform="translate(-310.467 -696.714)" fill="#12263f"/>
        <path id="Trazado_117753" data-name="Trazado 117753" d="M325.279,731.436c.019.671-.258.9-.851.822a7.459,7.459,0,0,0-.991-.008c0-.532.089-.9.728-.821A9.642,9.642,0,0,0,325.279,731.436Z" transform="translate(-308.892 -696.613)" fill="#12263f"/>
        <path id="Trazado_117754" data-name="Trazado 117754" d="M312.767,735.117c.274-.873.488-.948,1.93-.711C314.518,735.242,314.5,735.248,312.767,735.117Z" transform="translate(-308.132 -696.818)" fill="#12263f"/>
        <path id="Trazado_117755" data-name="Trazado 117755" d="M323.043,733.7c-.021-.641.208-.9.793-.822a8.153,8.153,0,0,0,1.035.007c.037.614-.163.9-.785.823A8.274,8.274,0,0,0,323.043,733.7Z" transform="translate(-308.864 -696.716)" fill="#12263f"/>
        <path id="Trazado_117756" data-name="Trazado 117756" d="M319.326,735.154c-.025-.643.241-.887.835-.815a8.754,8.754,0,0,0,1.013.007c0,.6-.181.9-.78.818A8.042,8.042,0,0,0,319.326,735.154Z" transform="translate(-308.599 -696.82)" fill="#12263f"/>
        <path id="Trazado_117757" data-name="Trazado 117757" d="M317.29,732.249c.016-.634.269-.9.861-.821a8.4,8.4,0,0,0,1.028.007c-.023.588-.217.9-.838.822A8.2,8.2,0,0,0,317.29,732.249Z" transform="translate(-308.455 -696.613)" fill="#12263f"/>
        <path id="Trazado_117758" data-name="Trazado 117758" d="M314.18,732.247c.267-.924.433-.984,1.98-.75-.106.5-.3.842-.906.759A8.24,8.24,0,0,0,314.18,732.247Z" transform="translate(-308.233 -696.611)" fill="#12263f"/>
        <path id="Trazado_117759" data-name="Trazado 117759" d="M319.765,733.7c.2-.885-.156-.873,1.876-.773.009.552-.17.866-.8.781A8.5,8.5,0,0,0,319.765,733.7Z" transform="translate(-308.631 -696.718)" fill="#12263f"/>
        <path id="Trazado_117760" data-name="Trazado 117760" d="M316.716,733.7c.218-.893-.068-.869,1.909-.774-.01.6-.29.857-.9.781A8.388,8.388,0,0,0,316.716,733.7Z" transform="translate(-308.414 -696.717)" fill="#12263f"/>
        <path id="Trazado_117761" data-name="Trazado 117761" d="M342.887,734.408c1.564-.242,1.772-.163,1.888.7C343.233,735.3,343.127,735.262,342.887,734.408Z" transform="translate(-310.278 -696.818)" fill="#12263f"/>
        <path id="Trazado_117762" data-name="Trazado 117762" d="M348.171,735.086c-1.412.242-1.661.159-1.925-.644C347.43,734.1,347.977,734.284,348.171,735.086Z" transform="translate(-310.517 -696.817)" fill="#12263f"/>
        <path id="Trazado_117763" data-name="Trazado 117763" d="M344.022,737.285a7.115,7.115,0,0,1,1.423.029c.22.046.376.4.562.61l-.1.158a6.9,6.9,0,0,1-1.422-.029c-.224-.049-.382-.406-.57-.623Z" transform="translate(-310.351 -697.029)" fill="#12263f"/>
        <path id="Trazado_117764" data-name="Trazado 117764" d="M341.208,733.7a8.658,8.658,0,0,0-1.059.008c-.566.071-.82-.158-.813-.712C340.461,732.641,341.033,732.833,341.208,733.7Z" transform="translate(-310.025 -696.713)" fill="#12263f"/>
        <path id="Trazado_117765" data-name="Trazado 117765" d="M324.525,734.345c-.2.915-.354.969-1.871.756-.041-.584.21-.834.81-.763A9.515,9.515,0,0,0,324.525,734.345Z" transform="translate(-308.836 -696.82)" fill="#12263f"/>
        <path id="Trazado_117766" data-name="Trazado 117766" d="M349.629,738.036c-1.612.176-1.658.161-1.959-.653C348.811,737.05,349.374,737.227,349.629,738.036Z" transform="translate(-310.618 -697.027)" fill="#12263f"/>
        <path id="Trazado_117767" data-name="Trazado 117767" d="M316.972,737.284c-.231.9-.435.97-1.909.739.008-.567.262-.817.851-.747A9.25,9.25,0,0,0,316.972,737.284Z" transform="translate(-308.296 -697.03)" fill="#12263f"/>
        <path id="Trazado_117768" data-name="Trazado 117768" d="M313.274,737.352c-.214.81-.589.937-1.917.651C311.6,737.189,311.885,737.092,313.274,737.352Z" transform="translate(-308.032 -697.027)" fill="#12263f"/>
        <path id="Trazado_117769" data-name="Trazado 117769" d="M326.3,734.39h1.754l-.093.743H326.3Z" transform="translate(-309.096 -696.825)" fill="#12263f"/>
        <path id="Trazado_117770" data-name="Trazado 117770" d="M333.15,736.565l-.08-.737a8.642,8.642,0,0,1,1.466.028c.175.031.294.372.539.71Z" transform="translate(-309.578 -696.926)" fill="#12263f"/>
        <path id="Trazado_117771" data-name="Trazado 117771" d="M329.652,735.874a2.141,2.141,0,0,1,.3-.045c.438,0,.877,0,1.362,0v.747a2.477,2.477,0,0,1-.294.037c-.438,0-.877,0-1.366,0Z" transform="translate(-309.335 -696.927)" fill="#12263f"/>
        <path id="Trazado_117772" data-name="Trazado 117772" d="M315.6,736.611c.185-.849-.066-.859,1.887-.734,0,.539-.215.805-.8.741A10.177,10.177,0,0,0,315.6,736.611Z" transform="translate(-308.334 -696.927)" fill="#12263f"/>
        <path id="Trazado_117773" data-name="Trazado 117773" d="M342.118,736.61a10.126,10.126,0,0,0-1.076.007c-.556.06-.772-.189-.752-.79a7.505,7.505,0,0,1,1.417.028c.207.041.355.383.529.587Z" transform="translate(-310.092 -696.926)" fill="#12263f"/>
        <path id="Trazado_117774" data-name="Trazado 117774" d="M343.455,735.869c1.662-.176,1.716-.156,1.892.659C344.05,736.816,343.659,736.685,343.455,735.869Z" transform="translate(-310.318 -696.924)" fill="#12263f"/>
        <path id="Trazado_117775" data-name="Trazado 117775" d="M322.235,736.608c.153-.867.473-.974,1.85-.717.033.561-.216.793-.787.724A9.352,9.352,0,0,0,322.235,736.608Z" transform="translate(-308.807 -696.923)" fill="#12263f"/>
        <path id="Trazado_117776" data-name="Trazado 117776" d="M318.84,736.608c.146-.88.338-.949,1.857-.729.009.535-.2.806-.783.737A9.382,9.382,0,0,0,318.84,736.608Z" transform="translate(-308.565 -696.923)" fill="#12263f"/>
        <path id="Trazado_117777" data-name="Trazado 117777" d="M338.7,736.607a7.031,7.031,0,0,1-1.373-.027c-.218-.045-.381-.367-.623-.622C338.124,735.591,338.609,735.761,338.7,736.607Z" transform="translate(-309.838 -696.924)" fill="#12263f"/>
        <path id="Trazado_117778" data-name="Trazado 117778" d="M346.958,735.87c1.623-.177,1.687-.154,1.942.661C347.585,736.806,347.213,736.686,346.958,735.87Z" transform="translate(-310.568 -696.924)" fill="#12263f"/>
        <path id="Trazado_117779" data-name="Trazado 117779" d="M312.076,736.547c.219-.82.451-.9,1.923-.666C313.78,736.7,313.534,736.78,312.076,736.547Z" transform="translate(-308.083 -696.923)" fill="#12263f"/>
        <path id="Trazado_117780" data-name="Trazado 117780" d="M327.888,735.868l-.06.709h-1.715l.054-.709Z" transform="translate(-309.083 -696.93)" fill="#12263f"/>
      </g>
    </g>
  </g>
</svg>
