<?xml version="1.0" encoding="utf-8"?>
<!-- Generator: Adobe Illustrator 25.2.3, SVG Export Plug-In . SVG Version: 6.00 Build 0)  -->
<svg version="1.1" id="Capa_1" xmlns="http://www.w3.org/2000/svg" xmlns:xlink="http://www.w3.org/1999/xlink" x="0px" y="0px"
	 viewBox="0 0 530.2 218" style="enable-background:new 0 0 530.2 218;" xml:space="preserve">
<style type="text/css">
	.st0{fill:#37A3A5;}
	.st1{fill:none;stroke:#12263F;stroke-width:6;}
	.st2{fill:#12263F;}
</style>
<g id="Grupo_55349" transform="translate(-185.845 -23091.018)">
	<path id="Trazado_119536" class="st0" d="M200.1,23124h83.4v62.2h-83.4V23124z"/>
	<path id="Trazado_119537" class="st1" d="M283.4,23136.1h251.3"/>
	<path id="Trazado_119538" class="st1" d="M283.4,23172.4h251.3"/>
	<path id="Trazado_119539" class="st2" d="M536.6,23127.5c4.8,0,8.6,3.9,8.6,8.6c0,4.8-3.9,8.6-8.6,8.6c-4.8,0-8.6-3.9-8.6-8.6
		C527.9,23131.4,531.8,23127.5,536.6,23127.5C536.6,23127.5,536.6,23127.5,536.6,23127.5z"/>
	<path id="Trazado_119540" class="st2" d="M536.6,23163.8c4.8,0,8.6,3.9,8.6,8.6c0,4.8-3.9,8.6-8.6,8.6c-4.8,0-8.6-3.9-8.6-8.6
		C527.9,23167.7,531.8,23163.8,536.6,23163.8C536.6,23163.8,536.6,23163.8,536.6,23163.8z"/>
	<path id="Trazado_119541" class="st1" d="M536.6,23136.1l35.6-43.2"/>
	<path id="Trazado_119542" class="st1" d="M572.2,23215.5l-35.6-43.2"/>
	<path id="Trazado_117686" class="st0" d="M591.1,23199.2c-1.1-0.7-2.1-1.5-2.9-2.5c-0.9-1.3-0.4-2.8,0.4-4.2
		c2.7-4.6,5.8-9,7.7-13.9c8.8-22.7,5.7-44-8.5-63.7c-0.4-0.6-1-1.2-1.4-1.8c-1.3-1.6-1-4,0.6-5.3c0,0,0,0,0,0
		c1.5-1.3,3.8-1.1,5.1,0.4c0.1,0.1,0.1,0.2,0.2,0.3c2.9,4.1,6.1,8.2,8.3,12.7c12.6,26.2,10.8,51.4-5.5,75.5
		C594.2,23198,592.7,23199,591.1,23199.2z"/>
	<path id="Trazado_117687" class="st0" d="M578.7,23190c-1.1-0.7-2.1-1.5-3-2.5c-0.9-1.3-0.6-2.9,0.4-4.2c3.4-4.6,6-9.8,7.5-15.3
		c4.4-16.2,1.4-31-8.7-44.5c-0.8-1-1.2-2.3-1.3-3.6c0-1.5,1.1-2.8,2.6-3.1c1.5-0.5,3.2,0,4.2,1.4c4,4.8,7.2,10.3,9.3,16.3
		c6.4,18.4,4.2,35.8-6.6,52.1C581.6,23188.9,580.5,23189.6,578.7,23190z"/>
	<path id="Trazado_117688" class="st0" d="M578.8,23152.3c0,10.7-2.5,18.6-7.3,25.8c-0.3,0.4-0.6,0.8-0.9,1.2
		c-1.5,1.9-3.7,2.2-5.5,0.9c-1.7-1.2-2-3.6-0.7-5.3c0,0,0.1-0.1,0.1-0.1c2.9-4,5-8.6,6-13.5c2.2-10.2-0.4-20.8-6.9-28.9
		c-1.3-1.7-1.5-3.5-0.4-5c1-1.4,2.8-1.9,4.4-1.3c0.8,0.4,1.6,1,2.1,1.7C575.7,23135.7,578.7,23144.5,578.8,23152.3z"/>
	<path id="Trazado_117689" class="st0" d="M564.9,23154.3c0,5.9-1.8,11.6-5.2,16.4c-1.6,2.2-3.8,2.7-5.7,1.3
		c-1.8-1.3-2.1-3.5-0.7-5.7c5.4-8.4,5.2-16.9-0.6-25c-1.6-2.2-1.5-4.4,0.3-5.8c1.8-1.4,4.2-0.9,5.9,1.3
		C562.8,23141.8,564.9,23148,564.9,23154.3z"/>
	<path id="Trazado_119543" class="st2" d="M198.4,23302.8c-0.7,0.7-1.5,1.2-2.4,1.5c-1.1,0.4-2.3,0.6-3.5,0.6
		c-1.7,0.1-3.4-0.6-4.7-1.8c-1.2-1.4-1.9-3.2-1.9-5l0-1.3c0-1.3,0.2-2.6,0.8-3.8c0.5-1,1.3-1.9,2.2-2.5c1-0.6,2.2-0.9,3.4-0.9
		c1.5-0.1,3.1,0.4,4.3,1.3c1.1,1,1.7,2.3,1.8,3.8h-3.5c0-0.7-0.3-1.3-0.8-1.8c-0.5-0.4-1.1-0.6-1.7-0.5c-0.9,0-1.7,0.4-2.1,1.1
		c-0.6,1-0.8,2.1-0.7,3.3v0.9c-0.1,1.2,0.2,2.3,0.8,3.4c0.5,0.8,1.5,1.2,2.4,1.1c0.8,0.1,1.5-0.2,2.1-0.6v-2.3h-2.5v-2.5h6.1
		L198.4,23302.8z M205.7,23304.9c-1.5,0.1-3-0.5-4.1-1.5c-1.1-1-1.6-2.5-1.6-4v-0.3c0-1,0.2-2.1,0.6-3c0.4-0.8,1-1.5,1.8-2
		c0.9-0.5,1.9-0.7,2.9-0.7c1.4-0.1,2.7,0.5,3.7,1.5c1,1.1,1.4,2.6,1.4,4v1.3h-6.9c0.1,0.6,0.4,1.1,0.8,1.5c0.5,0.4,1,0.6,1.6,0.5
		c1,0,1.9-0.4,2.6-1.1l1.6,1.9c-0.5,0.6-1.1,1.1-1.8,1.4C207.4,23304.7,206.5,23304.9,205.7,23304.9z M205.3,23296
		c-1,0-1.6,0.7-1.8,2h3.5v-0.3c0-0.5-0.1-0.9-0.4-1.3C206.2,23296.2,205.7,23296,205.3,23296L205.3,23296z M214.9,23293.6l0.1,1.3
		c0.7-1,1.9-1.6,3.2-1.5c1-0.1,1.9,0.3,2.6,1c0.6,0.9,1,2,0.9,3.1v7.1h-3.5v-7c0-0.4-0.1-0.9-0.3-1.2c-0.3-0.3-0.8-0.4-1.2-0.4
		c-0.6,0-1.2,0.3-1.5,0.8v7.8h-3.5v-11.1H214.9z M228.9,23304.9c-1.5,0.1-3-0.5-4.1-1.5c-1.1-1-1.6-2.5-1.6-4v-0.3
		c0-1,0.2-2.1,0.6-3c0.4-0.8,1-1.5,1.8-2c0.9-0.5,1.9-0.7,2.9-0.7c1.4-0.1,2.7,0.5,3.7,1.4c1,1.1,1.4,2.6,1.3,4v1.3h-6.9
		c0.1,0.6,0.4,1.1,0.8,1.5c0.5,0.4,1,0.6,1.6,0.5c1,0,1.9-0.4,2.6-1.1l1.6,1.9c-0.5,0.6-1.1,1.1-1.8,1.4
		C230.7,23304.7,229.8,23304.9,228.9,23304.9z M228.5,23296c-1,0-1.6,0.7-1.8,2h3.5v-0.3c0-0.5-0.1-0.9-0.4-1.3
		C229.5,23296.2,229,23296,228.5,23296z M241.7,23296.7l-1.1-0.1c-0.8-0.1-1.7,0.3-2.1,1v7H235v-11.1h3.2l0.1,1.4
		c0.4-1,1.4-1.6,2.4-1.6c0.3,0,0.7,0,1,0.1L241.7,23296.7z M248.9,23304.7c-0.2-0.3-0.3-0.7-0.3-1c-0.6,0.8-1.6,1.2-2.7,1.2
		c-1,0-1.9-0.3-2.7-0.9c-0.7-0.6-1.1-1.5-1.1-2.4c-0.1-1.1,0.4-2.1,1.3-2.7c1.2-0.7,2.5-1,3.9-0.9h1.1v-0.6c0-1-0.4-1.5-1.3-1.5
		c-0.6-0.1-1.1,0.3-1.2,0.9c0,0.1,0,0.2,0,0.3h-3.5c0-1,0.5-2,1.4-2.6c1-0.7,2.2-1.1,3.5-1c1.2-0.1,2.4,0.3,3.4,1
		c0.8,0.7,1.3,1.8,1.3,2.8v4.9c0,0.8,0.1,1.6,0.5,2.3v0.2H248.9z M246.7,23302.4c0.4,0,0.7-0.1,1.1-0.3c0.3-0.2,0.5-0.4,0.6-0.6
		v-1.8h-1c-1.2,0-1.8,0.5-1.8,1.6c0,0.3,0.1,0.6,0.3,0.8C246.2,23302.3,246.4,23302.4,246.7,23302.4z M253.4,23299
		c-0.1-1.5,0.3-2.9,1.1-4.2c0.7-1,1.9-1.6,3.2-1.5c1,0,1.9,0.4,2.5,1.2v-5.6h3.5v15.8h-3.1l-0.2-1.2c-0.6,0.9-1.6,1.4-2.7,1.4
		c-1.2,0-2.4-0.5-3.1-1.5C253.7,23302.1,253.3,23300.6,253.4,23299L253.4,23299z M256.8,23299.3c0,2,0.6,3,1.7,3
		c0.7,0,1.3-0.3,1.6-1v-4.2c-0.3-0.6-0.9-1-1.6-1c-1.1,0-1.6,0.9-1.7,2.6L256.8,23299.3z M265.2,23299c0-1,0.2-2,0.6-3
		c0.4-0.8,1.1-1.5,1.9-2c0.9-0.5,1.8-0.7,2.8-0.7c1.5-0.1,2.9,0.5,3.9,1.5c1,1.2,1.5,2.7,1.4,4.2v0.1c0.1,1.5-0.4,3-1.4,4.1
		c-1,1-2.4,1.6-3.9,1.5c-1.4,0.1-2.8-0.4-3.8-1.4c-1-1-1.5-2.4-1.5-3.8L265.2,23299z M268.6,23299.2c-0.1,0.8,0.1,1.6,0.5,2.3
		c0.3,0.5,0.9,0.7,1.4,0.7c1.2,0,1.9-0.9,1.9-2.8v-0.3c0-2-0.6-3-1.9-3c-1.2,0-1.8,0.9-1.9,2.6L268.6,23299.2z M284.1,23296.7
		l-1.1-0.1c-0.8-0.1-1.7,0.3-2.1,1v7h-3.5v-11.1h3.2l0.1,1.4c0.4-1,1.4-1.6,2.4-1.6c0.3,0,0.7,0,1,0.1L284.1,23296.7z"/>
	<path id="Trazado_117690" class="st2" d="M227.1,23276c0-0.2,0-0.4,0-0.6c0-7.6,0-48,0-55.5v-0.7h-9.9l17.9-27.8l17.8,27.8h-9.8
		c0,0.2,0,0.4,0,0.6c0,7.7,0,48.2,0,55.9c0,0.1,0,0.2,0,0.3H227.1z"/>
	<path id="Trazado_119544" class="st2" d="M349,23297.5c0,1.3-0.3,2.7-0.8,3.9c-0.5,1.1-1.3,2-2.3,2.6c-1,0.6-2.2,0.9-3.4,0.9
		c-1.2,0-2.4-0.3-3.4-0.9c-1-0.6-1.8-1.5-2.3-2.5c-0.6-1.2-0.9-2.4-0.9-3.7v-0.8c0-1.3,0.2-2.7,0.8-3.9c0.5-1.1,1.3-2,2.3-2.6
		c1-0.6,2.2-0.9,3.4-0.9c1.2,0,2.4,0.3,3.4,0.9c1,0.6,1.8,1.5,2.3,2.6c0.6,1.2,0.9,2.5,0.8,3.8L349,23297.5z M345.3,23296.9
		c0.1-1.2-0.2-2.3-0.7-3.4c-0.4-0.7-1.3-1.2-2.1-1.2c-1.8,0-2.8,1.4-2.9,4.1l0,1.1c-0.1,1.2,0.2,2.3,0.7,3.4
		c0.4,0.8,1.3,1.2,2.2,1.2c0.9,0,1.7-0.4,2.1-1.2c0.6-1,0.8-2.2,0.8-3.3V23296.9z M353.8,23293.6l0.1,1.3c0.7-1,1.9-1.6,3.2-1.5
		c1-0.1,1.9,0.3,2.6,1c0.6,0.9,1,2,0.9,3.1v7.1h-3.5v-7c0-0.4-0.1-0.9-0.3-1.2c-0.3-0.3-0.8-0.4-1.2-0.4c-0.6,0-1.2,0.3-1.5,0.8v7.8
		h-3.5v-11.1H353.8z M362.1,23299c-0.1-1.5,0.3-2.9,1.1-4.2c0.7-1,1.9-1.6,3.2-1.5c1,0,1.9,0.4,2.5,1.2v-5.6h3.5v15.8h-3.1l-0.2-1.2
		c-0.6,0.9-1.6,1.4-2.7,1.4c-1.2,0-2.4-0.5-3.1-1.5C362.4,23302.1,362,23300.6,362.1,23299L362.1,23299z M365.5,23299.3
		c0,2,0.6,3,1.7,3c0.7,0,1.3-0.3,1.6-1v-4.2c-0.3-0.6-0.9-1-1.6-1c-1.1,0-1.6,0.9-1.7,2.6L365.5,23299.3z M380.6,23304.7
		c-0.2-0.3-0.3-0.7-0.3-1c-0.6,0.8-1.6,1.2-2.7,1.2c-1,0-1.9-0.3-2.7-0.9c-0.7-0.6-1.1-1.5-1.1-2.4c-0.1-1.1,0.4-2.1,1.3-2.7
		c1.2-0.7,2.5-1,3.9-0.9h1.1v-0.6c0-1-0.4-1.5-1.3-1.5c-0.6-0.1-1.1,0.3-1.2,0.9c0,0.1,0,0.2,0,0.3h-3.5c0-1,0.5-2,1.4-2.6
		c1-0.7,2.2-1.1,3.5-1c1.2-0.1,2.4,0.3,3.4,1c0.8,0.7,1.3,1.8,1.3,2.8v4.9c0,0.8,0.1,1.6,0.5,2.3v0.2H380.6z M378.4,23302.4
		c0.4,0,0.7-0.1,1.1-0.3c0.3-0.2,0.5-0.4,0.6-0.6v-1.8h-1c-1.2,0-1.8,0.5-1.8,1.6c0,0.3,0.1,0.6,0.3,0.8
		C377.8,23302.3,378.1,23302.4,378.4,23302.4z M391,23299c0-1,0.2-2,0.5-3c0.3-0.8,0.9-1.5,1.6-2c0.7-0.5,1.6-0.7,2.4-0.7
		c1-0.1,2,0.4,2.7,1.2l0.1-1h3.1v10.7c0,0.9-0.2,1.8-0.7,2.5c-0.5,0.7-1.2,1.3-2,1.7c-0.9,0.4-2,0.6-3,0.6c-0.8,0-1.6-0.2-2.4-0.5
		c-0.7-0.2-1.3-0.7-1.7-1.2l1.4-2c0.6,0.8,1.6,1.2,2.5,1.1c1.1,0.1,2.2-0.6,2.3-1.8c0-0.2,0-0.4,0-0.6v-0.3
		c-0.6,0.7-1.6,1.1-2.5,1.1c-1.3,0-2.5-0.5-3.3-1.6c-0.9-1.2-1.3-2.7-1.3-4.2L391,23299z M394.5,23299.3c0,0.8,0.1,1.5,0.5,2.2
		c0.3,0.5,0.8,0.8,1.4,0.8c0.6,0.1,1.3-0.2,1.6-0.8v-4.7c-0.4-0.5-1-0.8-1.6-0.8c-0.6,0-1.2,0.3-1.4,0.8
		C394.6,23297.6,394.4,23298.4,394.5,23299.3L394.5,23299.3z M410.1,23303.5c-0.7,0.9-1.8,1.4-3,1.4c-1,0.1-2-0.3-2.8-1.1
		c-0.7-0.9-1-2-0.9-3.1v-7.2h3.5v7.2c-0.1,0.7,0.4,1.3,1,1.4c0.1,0,0.2,0,0.4,0c0.7,0.1,1.3-0.3,1.7-0.8v-7.8h3.5v11.1h-3.2
		L410.1,23303.5z M419,23304.7h-3.5v-11.1h3.5V23304.7z M415.3,23290.7c0-0.5,0.2-0.9,0.5-1.2c0.4-0.3,0.9-0.5,1.4-0.5
		c0.5,0,1,0.1,1.4,0.5c0.4,0.3,0.5,0.7,0.5,1.2c0,0.5-0.2,0.9-0.5,1.2c-0.4,0.3-0.9,0.5-1.4,0.5c-0.5,0-1-0.1-1.4-0.5
		C415.5,23291.6,415.3,23291.2,415.3,23290.7z M427.4,23304.7c-0.2-0.3-0.3-0.7-0.3-1c-0.6,0.8-1.6,1.2-2.7,1.2
		c-1,0-1.9-0.3-2.7-0.9c-0.7-0.6-1.1-1.5-1.1-2.4c-0.1-1.1,0.4-2.1,1.3-2.7c1.2-0.7,2.5-1,3.9-0.9h1.1v-0.6c0-1-0.4-1.5-1.3-1.5
		c-0.6-0.1-1.1,0.3-1.2,0.9c0,0.1,0,0.2,0,0.3h-3.5c0-1,0.5-2,1.4-2.6c1-0.7,2.2-1.1,3.5-1c1.2-0.1,2.4,0.3,3.4,1
		c0.8,0.7,1.3,1.8,1.3,2.8v4.9c0,0.8,0.1,1.6,0.5,2.3v0.2H427.4z M425.2,23302.4c0.4,0,0.7-0.1,1.1-0.3c0.3-0.2,0.5-0.4,0.6-0.6
		v-1.8h-1c-1.2,0-1.8,0.5-1.8,1.6c0,0.3,0.1,0.6,0.3,0.8C424.6,23302.3,424.9,23302.4,425.2,23302.4L425.2,23302.4z M431.8,23299
		c-0.1-1.5,0.3-2.9,1.1-4.2c0.7-1,1.9-1.6,3.2-1.5c1,0,1.9,0.4,2.5,1.2v-5.6h3.5v15.8H439l-0.2-1.2c-0.6,0.9-1.6,1.4-2.7,1.4
		c-1.2,0-2.4-0.5-3.1-1.5C432.2,23302.1,431.7,23300.6,431.8,23299L431.8,23299z M435.3,23299.3c0,2,0.6,3,1.7,3
		c0.7,0,1.3-0.3,1.6-1v-4.2c-0.3-0.6-0.9-1-1.6-1c-1.1,0-1.6,0.9-1.7,2.6L435.3,23299.3z M450.3,23304.7c-0.2-0.3-0.3-0.7-0.3-1
		c-0.6,0.8-1.6,1.2-2.7,1.2c-1,0-1.9-0.3-2.7-0.9c-0.7-0.6-1.1-1.5-1.1-2.4c-0.1-1.1,0.4-2.1,1.3-2.7c1.2-0.7,2.5-1,3.9-0.9h1.1
		v-0.6c0-1-0.4-1.5-1.3-1.5c-0.6-0.1-1.1,0.3-1.2,0.9c0,0.1,0,0.2,0,0.3h-3.5c0-1,0.5-2,1.4-2.6c1-0.7,2.2-1.1,3.5-1
		c1.2-0.1,2.4,0.3,3.4,1c0.8,0.7,1.3,1.8,1.3,2.8v4.9c0,0.8,0.1,1.6,0.5,2.3v0.2H450.3z M448.2,23302.4c0.4,0,0.7-0.1,1.1-0.3
		c0.3-0.2,0.5-0.4,0.6-0.6v-1.8h-1c-1.2,0-1.8,0.5-1.8,1.6c0,0.3,0.1,0.6,0.3,0.8C447.6,23302.3,447.9,23302.4,448.2,23302.4z"/>
	<path id="Trazado_117691" class="st2" d="M384.7,23276c0-0.2,0-0.4,0-0.6c0-7.6,0-48,0-55.5v-0.7h-9.9l17.9-27.8l17.8,27.8h-9.8
		c0,0.2,0,0.4,0,0.6c0,7.7,0,48.2,0,55.9c0,0.1,0,0.2,0,0.3H384.7z"/>
	<path id="Trazado_119545" class="st2" d="M520.5,23301.9h-4.9l-0.9,2.8h-3.8l5.5-14.9h3.4l5.5,14.9h-3.9L520.5,23301.9z
		 M516.4,23299.1h3.2l-1.6-5.2L516.4,23299.1z M528.8,23293.6l0.1,1.3c0.7-1,1.9-1.6,3.2-1.5c1-0.1,1.9,0.3,2.6,1
		c0.6,0.9,1,2,0.9,3.1v7.1h-3.5v-7c0-0.4-0.1-0.9-0.3-1.2c-0.3-0.3-0.8-0.4-1.2-0.4c-0.6,0-1.2,0.3-1.5,0.8v7.8h-3.5v-11.1H528.8z
		 M541.5,23290.8v2.8h1.8v2.4h-1.8v5.1c0,0.3,0,0.6,0.2,0.9c0.3,0.2,0.6,0.3,0.9,0.2c0.3,0,0.6,0,0.9-0.1v2.5
		c-0.6,0.2-1.3,0.3-1.9,0.3c-1,0.1-1.9-0.2-2.6-0.8c-0.6-0.7-0.9-1.6-0.9-2.6v-5.5h-1.4v-2.4h1.4v-2.8L541.5,23290.8z
		 M550.1,23304.9c-1.5,0.1-3-0.5-4.1-1.5c-1.1-1-1.6-2.5-1.6-4v-0.3c0-1,0.2-2.1,0.6-3c0.4-0.8,1-1.5,1.8-2c0.9-0.5,1.9-0.7,2.9-0.7
		c1.4-0.1,2.7,0.5,3.7,1.5c1,1.1,1.4,2.6,1.4,4v1.3h-6.9c0.1,0.6,0.4,1.1,0.8,1.5c0.5,0.4,1,0.6,1.6,0.5c1,0,1.9-0.4,2.6-1.1
		l1.6,1.9c-0.5,0.6-1.1,1.1-1.8,1.4C551.8,23304.7,550.9,23304.9,550.1,23304.9z M549.7,23296c-1,0-1.6,0.7-1.8,2h3.5v-0.3
		c0-0.5-0.1-0.9-0.4-1.3C550.6,23296.2,550.1,23296,549.7,23296L549.7,23296z M559.3,23293.6l0.1,1.3c0.7-1,1.9-1.6,3.2-1.5
		c1-0.1,1.9,0.3,2.6,1c0.6,0.9,1,2,0.9,3.1v7.1h-3.5v-7c0-0.4-0.1-0.9-0.3-1.2c-0.3-0.3-0.8-0.4-1.2-0.4c-0.6,0-1.2,0.3-1.5,0.8v7.8
		h-3.5v-11.1H559.3z M574.2,23304.7c-0.2-0.3-0.3-0.7-0.3-1c-0.6,0.8-1.6,1.2-2.7,1.2c-1,0-1.9-0.3-2.7-0.9
		c-0.7-0.6-1.1-1.5-1.1-2.4c-0.1-1.1,0.4-2.1,1.3-2.7c1.2-0.7,2.5-1,3.9-0.9h1.1v-0.6c0-1-0.4-1.5-1.3-1.5c-0.6-0.1-1.1,0.3-1.2,0.9
		c0,0.1,0,0.2,0,0.3h-3.5c0-1,0.5-2,1.4-2.6c1-0.7,2.2-1.1,3.5-1c1.2-0.1,2.4,0.3,3.4,1c0.8,0.7,1.3,1.8,1.3,2.8v4.9
		c0,0.8,0.1,1.6,0.5,2.3v0.2H574.2z M572.1,23302.4c0.4,0,0.7-0.1,1.1-0.3c0.3-0.2,0.5-0.4,0.6-0.6v-1.8h-1c-1.2,0-1.8,0.5-1.8,1.6
		c0,0.3,0.1,0.6,0.3,0.8C571.5,23302.3,571.8,23302.4,572.1,23302.4z"/>
	<path id="Trazado_117692" class="st2" d="M536.5,23276c0-0.2,0-0.4,0-0.6c0-7.6,0-48,0-55.5v-0.7h-9.9l17.9-27.8l17.8,27.8h-9.8
		c0,0.2,0,0.4,0,0.6c0,7.7,0,48.2,0,55.9c0,0.1,0,0.2,0,0.3H536.5z"/>
	<path id="Trazado_119546" class="st2" d="M632.9,23147.8c0,1.3-0.3,2.7-0.8,3.9c-0.5,1.1-1.3,2-2.3,2.6c-1,0.6-2.2,0.9-3.4,0.9
		c-1.2,0-2.4-0.3-3.4-0.9c-1-0.6-1.8-1.5-2.3-2.5c-0.6-1.2-0.9-2.4-0.9-3.7v-0.8c0-1.3,0.2-2.7,0.8-3.9c0.5-1.1,1.3-2,2.3-2.6
		c1-0.6,2.2-0.9,3.4-0.9c1.2,0,2.4,0.3,3.4,0.9c1,0.6,1.8,1.5,2.3,2.6c0.6,1.2,0.9,2.5,0.8,3.8L632.9,23147.8z M629.2,23147.2
		c0.1-1.2-0.2-2.3-0.7-3.4c-0.4-0.7-1.3-1.2-2.1-1.2c-1.8,0-2.8,1.4-2.9,4.1l0,1.1c-0.1,1.2,0.2,2.3,0.7,3.4
		c0.4,0.8,1.3,1.2,2.2,1.2c0.9,0,1.7-0.4,2.1-1.2c0.6-1,0.8-2.2,0.8-3.3V23147.2z M637.8,23143.9l0.1,1.3c0.7-1,1.9-1.6,3.2-1.5
		c1-0.1,1.9,0.3,2.6,1c0.6,0.9,1,2,0.9,3.1v7.1h-3.5v-7c0-0.4-0.1-0.9-0.3-1.2c-0.3-0.3-0.8-0.4-1.2-0.4c-0.6,0-1.2,0.3-1.5,0.8v7.8
		h-3.5v-11.1H637.8z M646,23149.4c-0.1-1.5,0.3-2.9,1.1-4.2c0.7-1,1.9-1.6,3.2-1.5c1,0,1.9,0.4,2.5,1.2v-5.6h3.5v15.8h-3.1l-0.2-1.2
		c-0.6,0.9-1.6,1.4-2.7,1.4c-1.2,0-2.4-0.5-3.1-1.5C646.3,23152.4,645.9,23150.9,646,23149.4L646,23149.4z M649.5,23149.6
		c0,2,0.6,3,1.7,3c0.7,0,1.3-0.3,1.6-1v-4.2c-0.3-0.6-0.9-1-1.6-1c-1.1,0-1.6,0.9-1.7,2.6L649.5,23149.6z M664.5,23155
		c-0.2-0.3-0.3-0.7-0.3-1c-0.6,0.8-1.6,1.2-2.7,1.2c-1,0-1.9-0.3-2.7-0.9c-0.7-0.6-1.1-1.5-1.1-2.4c-0.1-1.1,0.4-2.1,1.3-2.7
		c1.2-0.7,2.5-1,3.9-0.9h1.1v-0.6c0-1-0.4-1.5-1.3-1.5c-0.6-0.1-1.1,0.3-1.2,0.9c0,0.1,0,0.2,0,0.3H658c0-1,0.5-2,1.4-2.6
		c1-0.7,2.2-1.1,3.5-1c1.2-0.1,2.4,0.3,3.4,1c0.8,0.7,1.3,1.8,1.3,2.8v4.9c0,0.8,0.1,1.6,0.5,2.3v0.2H664.5z M662.3,23152.7
		c0.4,0,0.7-0.1,1.1-0.3c0.3-0.2,0.5-0.4,0.6-0.6v-1.8h-1c-1.2,0-1.8,0.5-1.8,1.6c0,0.3,0.1,0.6,0.3,0.8
		C661.8,23152.6,662,23152.8,662.3,23152.7z M678.3,23155h-3.5v-15.8h3.5V23155z M684,23155h-3.5v-11.1h3.5V23155z M680.4,23141
		c0-0.5,0.2-0.9,0.5-1.2c0.4-0.3,0.9-0.5,1.4-0.5c0.5,0,1,0.1,1.4,0.5c0.4,0.3,0.5,0.7,0.5,1.2c0,0.5-0.2,0.9-0.5,1.2
		c-0.4,0.3-0.9,0.5-1.4,0.5c-0.5,0-1-0.1-1.4-0.5C680.6,23141.9,680.4,23141.5,680.4,23141z M696.5,23149.5c0.1,1.5-0.3,3-1.1,4.2
		c-0.8,1-1.9,1.5-3.2,1.5c-1.1,0-2.1-0.5-2.7-1.3l-0.1,1.1h-3.1v-15.8h3.5v5.6c0.6-0.7,1.5-1.1,2.5-1.1c1.2-0.1,2.4,0.5,3.2,1.5
		c0.8,1.2,1.2,2.7,1.1,4.2L696.5,23149.5z M693,23149.3c0.1-0.8-0.1-1.6-0.4-2.3c-0.3-0.5-0.8-0.7-1.3-0.7c-0.7-0.1-1.3,0.3-1.6,0.9
		v4.4c0.3,0.6,1,0.9,1.6,0.9c0.7,0.1,1.4-0.5,1.5-1.2C693,23150.7,693,23150,693,23149.3L693,23149.3z M704.7,23147l-1.1-0.1
		c-0.8-0.1-1.7,0.3-2.1,1v7H698v-11.1h3.2l0.1,1.4c0.4-1,1.4-1.6,2.4-1.6c0.3,0,0.7,0,1,0.1L704.7,23147z M711.3,23155.2
		c-1.5,0.1-3-0.5-4.1-1.5c-1.1-1-1.6-2.5-1.6-4v-0.3c0-1,0.2-2.1,0.6-3c0.4-0.8,1-1.5,1.8-2c0.9-0.5,1.9-0.7,2.9-0.7
		c1.4-0.1,2.7,0.5,3.7,1.5c1,1.1,1.4,2.6,1.4,4v1.3h-6.9c0.1,0.6,0.4,1.1,0.8,1.5c0.5,0.4,1,0.6,1.6,0.5c1,0,1.9-0.4,2.6-1.1
		l1.6,1.9c-0.5,0.6-1.1,1.1-1.8,1.4C713.1,23155,712.2,23155.2,711.3,23155.2z M710.9,23146.4c-1,0-1.6,0.7-1.8,2h3.5v-0.3
		c0-0.5-0.1-0.9-0.4-1.3C711.9,23146.5,711.4,23146.3,710.9,23146.4z"/>
</g>
</svg>
