<svg id="Grupo_54516" data-name="Grupo 54516" xmlns="http://www.w3.org/2000/svg" xmlns:xlink="http://www.w3.org/1999/xlink" width="123.833" height="123.832" viewBox="0 0 123.833 123.832">
  <defs>
    <radialGradient id="radial-gradient" cx="0.076" cy="0.019" r="1.465" gradientTransform="translate(0.001)" gradientUnits="objectBoundingBox">
      <stop offset="0" stop-color="#f6f6f7"/>
      <stop offset="0.477" stop-color="#f9f9fa"/>
      <stop offset="0.715" stop-color="#fff"/>
    </radialGradient>
  </defs>
  <g id="Grupo_42274" data-name="Grupo 42274" transform="translate(0 0)">
    <g id="Grupo_18423" data-name="Grupo 18423">
      <g id="Grupo_18421" data-name="Grupo 18421">
        <g id="Grupo_18420" data-name="Grupo 18420">
          <g id="Grupo_18419" data-name="Grupo 18419">
            <path id="Trazado_40936" data-name="Trazado 40936" d="M318.456,2207.635a61.916,61.916,0,1,1-61.915-61.915A61.915,61.915,0,0,1,318.456,2207.635Z" transform="translate(-194.623 -2145.721)" fill="#fff"/>
          </g>
        </g>
      </g>
      <path id="Trazado_40937" data-name="Trazado 40937" d="M317.728,2206.843a61.915,61.915,0,1,0-61.915,61.918A61.672,61.672,0,0,0,317.728,2206.843Z" transform="translate(-193.895 -2144.928)" fill="url(#radial-gradient)"/>
      <path id="Trazado_40938" data-name="Trazado 40938" d="M296.6,2200.4a47.26,47.26,0,1,0-47.26,47.26A47.084,47.084,0,0,0,296.6,2200.4Z" transform="translate(-187.238 -2138.278)" fill="none" stroke="#12263f" stroke-miterlimit="10" stroke-width="4"/>
      <g id="Grupo_18422" data-name="Grupo 18422" transform="translate(10.969 34.762)">
        <path id="Trazado_40939" data-name="Trazado 40939" d="M307.148,2164.488a61.924,61.924,0,0,1-106.6,61.66,61.727,61.727,0,0,0,106.6-61.66Z" transform="translate(-200.545 -2164.488)" fill="#eceef0"/>
      </g>
    </g>
  </g>
  <g id="Grupo_54515" data-name="Grupo 54515" transform="translate(1460.443 68.572)">
    <path id="Trazado_117711" data-name="Trazado 117711" d="M-1327.615-28.639a11.49,11.49,0,0,1,1.757.793,3.416,3.416,0,0,1,1.464,2.74c.012.153.014.307.014.46q0,8.964,0,17.928a3.858,3.858,0,0,1-1.45,3.193,3.808,3.808,0,0,1-3.874.381,3.671,3.671,0,0,1-2.062-3.459q-.019-9.079,0-18.159a3.689,3.689,0,0,1,3.133-3.825.4.4,0,0,0,.1-.054Z" transform="translate(-70.454 0)" fill="#37a3a5"/>
    <path id="Trazado_117712" data-name="Trazado 117712" d="M-1398.527,36.211a24.037,24.037,0,0,1-11.7-3.145,23.4,23.4,0,0,1-6.992-6.059,23.5,23.5,0,0,1-3.5-6.261,23.633,23.633,0,0,1-1.483-8.451,23.564,23.564,0,0,1,1.829-9,23.093,23.093,0,0,1,3.9-6.291,20.186,20.186,0,0,1,3.482-3.275,2.782,2.782,0,0,1,3.462.333,2.763,2.763,0,0,1,.326,3.519,9.035,9.035,0,0,1-1.293,1.245,18.033,18.033,0,0,0-4.538,6.109,17.866,17.866,0,0,0-1.381,10.563,17.785,17.785,0,0,0,4.266,8.944,17.9,17.9,0,0,0,5.725,4.364,17.872,17.872,0,0,0,7.855,1.8,17.863,17.863,0,0,0,9.512-2.658,17.872,17.872,0,0,0,5.807-5.693,17.879,17.879,0,0,0,2.834-10.986A17.829,17.829,0,0,0-1383.9,1.71a19.75,19.75,0,0,0-3.458-3.574,2.766,2.766,0,0,1,.672-4.638,2.765,2.765,0,0,1,2.949.457,23.508,23.508,0,0,1,5.8,6.775,23.406,23.406,0,0,1,2.835,8.212,24.018,24.018,0,0,1-.247,8.471,22.893,22.893,0,0,1-1.47,4.551,23.56,23.56,0,0,1-2.755,4.724,23.506,23.506,0,0,1-4.368,4.441,24.212,24.212,0,0,1-4.076,2.567,22.381,22.381,0,0,1-6.993,2.182C-1396.18,36.038-1397.357,36.1-1398.527,36.211Z" transform="translate(0 -17.061)" fill="#12263f"/>
  </g>
</svg>
