<svg xmlns="http://www.w3.org/2000/svg" xmlns:xlink="http://www.w3.org/1999/xlink" width="475.03" height="488.702" viewBox="0 0 475.03 488.702">
  <defs>
    <linearGradient id="linear-gradient" x1="0.141" y1="0.483" x2="1.047" y2="0.526" gradientUnits="objectBoundingBox">
      <stop offset="0" stop-color="#fff"/>
      <stop offset="1" stop-color="#d2e6ee"/>
    </linearGradient>
    <linearGradient id="linear-gradient-2" x1="0" y1="0.5" x2="1" y2="0.5" xlink:href="#linear-gradient"/>
    <linearGradient id="linear-gradient-3" x1="-0.716" y1="0.479" x2="4.498" y2="0.546" xlink:href="#linear-gradient"/>
    <linearGradient id="linear-gradient-4" x1="0.643" y1="0.887" x2="0.329" y2="0.112" xlink:href="#linear-gradient"/>
    <linearGradient id="linear-gradient-5" x1="-0.648" y1="0.847" x2="1.862" y2="0.088" xlink:href="#linear-gradient"/>
    <linearGradient id="linear-gradient-6" x1="1.18" y1="0.174" x2="0.045" y2="0.726" xlink:href="#linear-gradient"/>
    <linearGradient id="linear-gradient-7" x1="0.35" y1="0.091" x2="1.008" y2="1.239" xlink:href="#linear-gradient"/>
    <linearGradient id="linear-gradient-8" x1="0.291" y1="0.127" x2="1.112" y2="1.539" xlink:href="#linear-gradient"/>
    <linearGradient id="linear-gradient-9" x1="0.29" y1="0.146" x2="1.047" y2="1.297" xlink:href="#linear-gradient"/>
    <linearGradient id="linear-gradient-10" x1="0.295" y1="0.161" x2="1.021" y2="1.176" xlink:href="#linear-gradient"/>
    <linearGradient id="linear-gradient-11" x1="0.347" y1="0.736" x2="0.887" y2="-0.096" xlink:href="#linear-gradient"/>
    <linearGradient id="linear-gradient-12" x1="0.5" y1="0" x2="0.5" y2="1" xlink:href="#linear-gradient"/>
    <linearGradient id="linear-gradient-19" x1="-1.285" y1="0.494" x2="0.743" y2="0.501" xlink:href="#linear-gradient"/>
    <linearGradient id="linear-gradient-20" x1="0.443" y1="0.5" x2="2.117" y2="0.497" xlink:href="#linear-gradient"/>
    <linearGradient id="linear-gradient-22" x1="0.112" y1="1.088" x2="1.044" y2="-0.324" xlink:href="#linear-gradient"/>
    <linearGradient id="linear-gradient-23" x1="0.841" y1="-0.124" x2="0.271" y2="0.909" gradientUnits="objectBoundingBox">
      <stop offset="0" stop-color="#fff"/>
      <stop offset="1" stop-color="#231f20"/>
    </linearGradient>
    <linearGradient id="linear-gradient-24" x1="-0.155" y1="0.495" x2="0.605" y2="0.5" xlink:href="#linear-gradient"/>
    <linearGradient id="linear-gradient-27" x1="0.284" y1="0.739" x2="1.532" y2="-0.6" gradientUnits="objectBoundingBox">
      <stop offset="0" stop-color="#fff"/>
      <stop offset="1" stop-color="#e1d3e5"/>
    </linearGradient>
  </defs>
  <g id="Grupo_4521" data-name="Grupo 4521" transform="translate(-456.404 -423.273)">
    <path id="Trazado_1035" data-name="Trazado 1035" d="M896.531,577.917C908.042,473.074,806.4,436.65,734.34,463.494c-72.643,27.062-89.484-17.8-191.63-4.981-103.429,12.978-50.917,175.336-50.917,175.336S508.25,775.029,527.748,840.1c19.392,64.724,205.013,41.307,250.168,39.376,44.9-1.921,83.907,1.786,122.968-69.28C939.873,739.263,885.058,682.412,896.531,577.917Z" transform="translate(-16.992 26.801)" fill="#f4f7fa"/>
    <g id="Grupo_33036" data-name="Grupo 33036" transform="translate(456.404 423.273)">
      <g id="Grupo_32834" data-name="Grupo 32834" transform="translate(84.155 61.866)">
        <g id="Grupo_32828" data-name="Grupo 32828">
          <path id="Trazado_81100" data-name="Trazado 81100" d="M517.8,244.356l-.782-.852a3.237,3.237,0,0,1-1.114,4.871l-90.422,52.472a3.722,3.722,0,0,1-3.766-.025l-15.5-9.228a3.719,3.719,0,0,1-.678-5.87L403.519,287c-1.319,2.145-.707,7.156.15,9.076l18.049,10.635a3.725,3.725,0,0,0,3.766.025l90.326-52.057C518.274,253.256,519.758,247.4,517.8,244.356Z" transform="translate(-370.398 -53.47)" fill="#e8e8e8"/>
          <g id="Grupo_32827" data-name="Grupo 32827">
            <path id="Trazado_81101" data-name="Trazado 81101" d="M491.7,124.67a4.485,4.485,0,0,1,1.27.062A4.482,4.482,0,0,0,491.7,124.67Z" transform="translate(-320.515 -120.126)" fill="none"/>
            <path id="Trazado_81102" data-name="Trazado 81102" d="M414.548,284.268,404.3,290.183a2.583,2.583,0,0,0-.03,4.455l17.859,10.629a2.584,2.584,0,0,0,2.611.017l92.206-53.233a2.582,2.582,0,0,0,.03-4.455l-18.561-11.048-.6-.357-5.233,3.022L426.1,277.6Z" transform="translate(-370.253 -57.571)" fill="url(#linear-gradient)"/>
            <path id="Trazado_81103" data-name="Trazado 81103" d="M389.7,340.477l-.012-4.2-.014-5.363-.016-5.624-.275-96.381a16.7,16.7,0,0,1,7.543-13.07L550.254,127.3a7.213,7.213,0,0,1,2.955-1.008,4.482,4.482,0,0,1,1.27.062h.008a3.735,3.735,0,0,1,1.155.429l-7.369-4.523c-1.377-.8-3.278-.69-5.375.518L389.569,211.314a16.676,16.676,0,0,0-7.545,13.069l.272,96.382.02,5.622.013,5.365.012,4.2c.006,2.376.854,4.052,2.216,4.842,3.643,2.12,3.721,2.405,7.353,4.517C390.549,344.521,389.7,342.849,389.7,340.477Z" transform="translate(-382.024 -121.751)" fill="url(#linear-gradient-2)"/>
            <path id="Trazado_81104" data-name="Trazado 81104" d="M494.867,196.882l.009-.005-.009-.005v.01Z" transform="translate(-318.739 -79.622)" fill="#082c44"/>
            <path id="Trazado_81105" data-name="Trazado 81105" d="M463.407,223.328l.016-.009-.006,0-.01.006Z" transform="translate(-336.383 -64.793)" fill="#082c44"/>
            <path id="Trazado_81106" data-name="Trazado 81106" d="M490.763,240.437l.514,9.207-73.989,42.722.006,0,74-42.725-.518-9.207-.013-.008v.008Z" transform="translate(-362.247 -55.194)" fill="#082c44"/>
            <path id="Trazado_81107" data-name="Trazado 81107" d="M411.463,255.95l-.723,15.319-.267,5.658-.194,4.119,10.934,6.352.459-9.766.349-7.372.993-20.979Z" transform="translate(-366.178 -50.23)" fill="url(#linear-gradient-3)"/>
            <path id="Trazado_81108" data-name="Trazado 81108" d="M417.284,273.709l.006,0-.006,0Z" transform="translate(-362.249 -36.534)" fill="#134169"/>
            <path id="Trazado_81109" data-name="Trazado 81109" d="M490.765,250.033h0v-.008l-.349-6.258-1.14-20.442v-.007l-70.188,40.524-.993,20.979-.349,7.371-.459,9.766.006,0,73.989-42.722Z" transform="translate(-362.249 -64.791)" fill="url(#linear-gradient-4)"/>
            <path id="Trazado_81110" data-name="Trazado 81110" d="M555.509,237.385v-.009l-.019-5.36-.016-5.619-.27-96.384c-.008-2.987-1.342-4.873-3.36-5.28h-.008a4.485,4.485,0,0,0-1.271-.062,7.213,7.213,0,0,0-2.955,1.008l-153.332,88.53a16.7,16.7,0,0,0-7.543,13.07l.275,96.381.016,5.624.014,5.363.012,4.2c.006,2.372.854,4.044,2.215,4.835l.013.006,0,0c1.377.8,3.278.695,5.372-.51l30.019-17.331,11.55-6.669h0L506.4,278.651v0l.011-.006,41.565-24a16.674,16.674,0,0,0,7.539-13.064Z" transform="translate(-379.381 -120.125)" fill="url(#linear-gradient-5)"/>
            <path id="Trazado_81111" data-name="Trazado 81111" d="M492.522,124.7h0Z" transform="translate(-320.058 -120.096)" fill="#134169"/>
            <path id="Trazado_81112" data-name="Trazado 81112" d="M488.626,223.317l-70.188,40.526h0l70.188-40.524Z" transform="translate(-361.602 -64.791)" fill="#134169"/>
            <path id="Trazado_81113" data-name="Trazado 81113" d="M546.943,133.816c-.008-2.877-2.051-4.044-4.556-2.594l-147.22,84.993a10.016,10.016,0,0,0-4.528,7.845l.256,96.215a5.433,5.433,0,0,0,8.149,4.69L544.5,240.987a5.434,5.434,0,0,0,2.717-4.72Z" transform="translate(-377.192 -116.79)" fill="url(#linear-gradient-6)"/>
          </g>
        </g>
        <g id="Grupo_32833" data-name="Grupo 32833" transform="translate(48.67 62.713)">
          <g id="Grupo_32829" data-name="Grupo 32829" transform="translate(40.449 75.997)">
            <path id="Trazado_81114" data-name="Trazado 81114" d="M445.149,211.45c3.345-1.931,6.058-.373,6.068,3.459a13.29,13.29,0,0,1-6.028,10.453c-3.346,1.932-6.058.375-6.068-3.47A13.287,13.287,0,0,1,445.149,211.45Z" transform="translate(-439.121 -210.621)" fill="#e8e8e8" stroke="#21587b" stroke-miterlimit="10" stroke-width="1.06"/>
          </g>
          <g id="Grupo_32830" data-name="Grupo 32830" transform="translate(28.527 52.017)">
            <path id="Trazado_81115" data-name="Trazado 81115" d="M449.439,198.752c6.523-3.766,13.027-4.692,17.734-1.773-2.159,3.741-4.33,7.476-6.541,11.308-3.114-1.583-6.849-1.277-11.227,1.252-4.4,2.563-8.105,6.545-11.241,11.817-.295-.133-.539-.234-.771-.354q-2.943-1.625-5.909-3.223C436.268,209.234,442.863,202.549,449.439,198.752Z" transform="translate(-431.483 -195.257)" fill="#e8e8e8" stroke="#21587b" stroke-miterlimit="10" stroke-width="1.06"/>
          </g>
          <g id="Grupo_32831" data-name="Grupo 32831" transform="translate(14.513 26.336)">
            <path id="Trazado_81116" data-name="Trazado 81116" d="M454.332,185.057c11.524-6.654,23.172-8.414,32.031-3.247-2.2,3.8-4.341,7.506-6.541,11.332-7.1-3.721-15.55-3.033-25.416,2.664s-18.322,14.743-25.338,26.59c-2.216-1.275-4.391-2.513-6.563-3.752C430.895,203.785,442.548,191.86,454.332,185.057Z" transform="translate(-422.504 -178.804)" fill="#e8e8e8" stroke="#21587b" stroke-miterlimit="10" stroke-width="1.06"/>
          </g>
          <g id="Grupo_32832" data-name="Grupo 32832">
            <path id="Trazado_81117" data-name="Trazado 81117" d="M459.842,170.823c17.58-10.15,32.932-11.428,46.163-4.768-2.3,4-4.445,7.749-6.595,11.483-10.753-6.267-25.221-4.264-39.767,4.133-14.378,8.3-28.833,22.852-39.851,41.847-2.154-1.264-4.306-2.539-6.587-3.874,11.052-18.791,24.349-33.96,39.923-44.586Q456.535,172.73,459.842,170.823Z" transform="translate(-413.206 -161.931)" fill="#e8e8e8" stroke="#21587b" stroke-miterlimit="10" stroke-width="1.06"/>
          </g>
        </g>
      </g>
      <g id="Grupo_32842" data-name="Grupo 32842" transform="translate(260.748)">
        <g id="Grupo_32836" data-name="Grupo 32836" transform="translate(77.645 156.852)" style="isolation: isolate">
          <path id="Trazado_81118" data-name="Trazado 81118" d="M582.3,184.32c-3.47-2-6.613-2.19-8.884-.871l-22.858,13.284c2.271-1.319,5.415-1.132,8.884.871,6.893,3.98,12.466,13.621,12.443,21.552-.011,3.935-1.4,6.7-3.641,8.005L591.1,213.878c2.242-1.3,3.63-4.071,3.641-8.005C594.765,197.942,589.191,188.3,582.3,184.32Z" transform="translate(-541.746 -182.608)" fill="url(#linear-gradient-7)"/>
          <g id="Grupo_32835" data-name="Grupo 32835" transform="translate(0 9.006)">
            <ellipse id="Elipse_3403" data-name="Elipse 3403" cx="10.193" cy="17.597" rx="10.193" ry="17.597" transform="translate(0 10.243) rotate(-30.163)" fill="#37a3a5"/>
          </g>
        </g>
        <g id="Grupo_32838" data-name="Grupo 32838" transform="translate(58.467 107.497)" style="isolation: isolate">
          <path id="Trazado_81119" data-name="Trazado 81119" d="M592.4,158.237c-13.3-7.676-26.656-9.688-36.532-3.949L533.01,167.573c9.877-5.739,23.238-3.727,36.533,3.947,13.453,7.767,26.837,21.33,36.484,38.535l22.858-13.284C619.238,179.566,605.854,166,592.4,158.237Z" transform="translate(-532.408 -150.987)" fill="url(#linear-gradient-8)"/>
          <g id="Grupo_32837" data-name="Grupo 32837" transform="translate(0 13.284)">
            <path id="Trazado_81120" data-name="Trazado 81120" d="M569.759,166.747c13.453,7.767,26.837,21.33,36.484,38.534-4.49,2.538-8.983,5.074-13.592,7.667-6.371-10.615-14.043-18.877-23.061-24.085-9.093-5.2-16.766-5.842-23.284-2.468-.6-.971-1.091-1.753-1.563-2.547l-12.12-20.684C542.555,156.981,556.192,158.914,569.759,166.747Z" transform="translate(-532.624 -159.498)" fill="#37a3a5"/>
          </g>
        </g>
        <g id="Grupo_32841" data-name="Grupo 32841" style="isolation: isolate">
          <g id="Grupo_32839" data-name="Grupo 32839" transform="translate(29.751 67.644)">
            <path id="Trazado_81121" data-name="Trazado 81121" d="M580.063,138.37c23.767,13.72,47.733,37.8,65.879,69.486L632.36,215.6c-14.549-24.525-31.928-43.185-52.289-54.952s-37.83-13.25-52.391-5.575c-4.541-7.876-9-15.605-13.454-23.328C531.646,121.14,555.748,124.335,580.063,138.37Z" transform="translate(-514.226 -125.453)" fill="#37a3a5"/>
          </g>
          <path id="Trazado_81122" data-name="Trazado 81122" d="M602.666,129.859c-23.984-13.845-47.763-17.143-65.125-7.052l-22.858,13.284c17.363-10.091,41.142-6.793,65.125,7.052,23.767,13.72,47.733,37.8,65.879,69.486l22.858-13.283C650.4,167.658,626.432,143.579,602.666,129.859Z" transform="translate(-484.219 -62.583)" fill="url(#linear-gradient-9)"/>
          <path id="Trazado_81123" data-name="Trazado 81123" d="M614.466,101.359q-6.811-3.931-13.843-7.253c-32.136-15.16-59.661-15.605-82.6-3.257l-22.858,13.284c22.939-12.349,50.465-11.9,82.6,3.257q7.031,3.318,13.843,7.253c36.278,20.945,67.852,54.818,94.981,99.985l22.858-13.284C682.319,156.176,650.745,122.3,614.466,101.359Z" transform="translate(-495.165 -82.115)" fill="url(#linear-gradient-10)"/>
          <g id="Grupo_32840" data-name="Grupo 32840" transform="translate(0 13.284)">
            <path id="Trazado_81124" data-name="Trazado 81124" d="M591.608,109.87c36.278,20.945,67.852,54.818,94.981,99.985-4.768,2.763-9.231,5.351-13.7,7.932-22.028-38.451-51.8-68.739-81.8-86.064-29.66-17.125-59.547-21.582-82.424-8.742-4.414-7.721-8.816-15.44-13.495-23.622,22.939-12.349,50.465-11.9,82.6,3.257Q584.8,105.934,591.608,109.87Z" transform="translate(-495.165 -90.625)" fill="#37a3a5"/>
          </g>
        </g>
      </g>
      <g id="Grupo_32938" data-name="Grupo 32938" transform="translate(0 334.903)">
        <g id="Grupo_32926" data-name="Grupo 32926">
          <g id="Grupo_32925" data-name="Grupo 32925">
            <g id="Grupo_32924" data-name="Grupo 32924">
              <path id="Trazado_81165" data-name="Trazado 81165" d="M332.133,331.214l131.81,76.067c5.386,3.1,14.2,3.075,19.6-.067l63.679-37.021c2.716-1.578,4.071-3.657,4.058-5.728.02,3.588.041,1.795.061,5.38.012,2.071-1.341,4.15-4.055,5.728L483.608,412.6c-5.4,3.144-14.217,3.173-19.6.069L332.2,336.6c-2.672-1.542-4.013-3.581-4.025-5.62-.022-3.59-.041-1.795-.062-5.382C328.12,327.639,329.461,329.672,332.133,331.214Z" transform="translate(-328.106 -280.467)" fill="#e8e8e8"/>
              <g id="Grupo_32923" data-name="Grupo 32923">
                <path id="Trazado_81166" data-name="Trazado 81166" d="M395.853,299.054c5.394-3.136,14.208-3.167,19.593-.059l131.808,76.062c5.385,3.109,5.365,8.215-.03,11.352L483.546,423.43c-5.4,3.142-14.216,3.172-19.6.067L332.134,347.43c-5.385-3.108-5.366-8.213.039-11.352Z" transform="translate(-328.107 -296.683)" fill="url(#linear-gradient-11)"/>
              </g>
            </g>
          </g>
          <path id="Trazado_81167" data-name="Trazado 81167" d="M534.273,374.145,408.366,301.506a8.679,8.679,0,0,0-7.839.025l-15.819,9.2,3.7,2.221a2.164,2.164,0,0,1-.022,3.724L368,328.567a10.254,10.254,0,0,1-10.448-.064l-1.683-1.008-19.479,11.327c-2.16,1.255-2.16,3.3-.011,4.536L462.288,416a8.674,8.674,0,0,0,7.838-.022l64.134-37.29C536.422,377.432,536.425,375.386,534.273,374.145Z" transform="translate(-324.369 -294.496)" fill="#f3f9ff"/>
        </g>
        <g id="Grupo_32937" data-name="Grupo 32937" transform="translate(56.416 6.752)">
          <g id="Grupo_32931" data-name="Grupo 32931" style="isolation: isolate">
            <path id="Trazado_81168" data-name="Trazado 81168" d="M389.571,315.659q1.065-.616,2.184-1.2c.212-.111.437-.217.652-.326.537-.276,1.074-.553,1.628-.818.3-.144.615-.278.919-.418.484-.223.961-.449,1.455-.663.34-.148.691-.286,1.036-.429.47-.2.935-.4,1.414-.585l.016,0,.078-.03c.724-.284,1.464-.557,2.21-.826.223-.08.448-.158.674-.236q.9-.314,1.823-.612c.2-.066.4-.133.607-.2.748-.234,1.5-.464,2.266-.682l.117-.031q1.5-.424,3.047-.807c.24-.059.487-.111.729-.169.8-.189,1.6-.373,2.408-.543.109-.023.215-.05.325-.073.334-.069.676-.126,1.011-.192.543-.106,1.085-.214,1.634-.311.465-.084.935-.159,1.4-.236.551-.091,1.1-.179,1.656-.262.164-.023.325-.053.489-.077.346-.048.7-.087,1.049-.133.485-.064.972-.128,1.463-.186.528-.061,1.06-.116,1.592-.169.495-.05.988-.1,1.486-.145.158-.012.312-.031.468-.045.392-.031.788-.051,1.182-.08.484-.034.966-.07,1.453-.1.559-.033,1.124-.056,1.689-.08.487-.02.972-.044,1.463-.056.125,0,.248-.013.373-.016q1.25-.03,2.513-.034l.073,25.638c-.968,0-1.929.02-2.888.048-.49.014-.975.037-1.462.058-.564.023-1.129.045-1.689.078-.487.028-.969.064-1.453.1-.551.041-1.1.078-1.648.126-.5.044-.993.094-1.487.144-.532.055-1.063.108-1.591.17-.492.056-.977.12-1.464.184-.514.069-1.027.136-1.537.211-.556.081-1.105.17-1.655.261-.47.076-.941.153-1.406.236-.549.1-1.091.2-1.633.311-.446.087-.894.173-1.336.265-.812.172-1.614.356-2.41.545-.24.058-.489.109-.727.169q-1.545.379-3.047.807-1.208.342-2.385.713c-.2.064-.4.131-.607.2q-.92.3-1.823.61c-.225.08-.451.158-.674.237-.746.267-1.486.542-2.212.826l-.075.028c-.5.2-.982.4-1.47.607-.331.139-.67.27-1,.412-.5.217-.986.448-1.476.673-.3.137-.6.27-.9.41-.554.264-1.091.542-1.629.816-.215.111-.439.215-.651.326q-1.117.588-2.185,1.2a46.25,46.25,0,0,0-12.363,10.014,29.281,29.281,0,0,0-3.847,5.8q-.215.428-.409.862a23.146,23.146,0,0,0-1.26,3.521,21.48,21.48,0,0,0-.537,2.706,20.463,20.463,0,0,0-.173,2.753v0l-.073-25.637C370.935,331.453,378.043,322.316,389.571,315.659Z" transform="translate(-360.479 -298.834)" fill="url(#linear-gradient-12)"/>
            <path id="Trazado_81169" data-name="Trazado 81169" d="M374.753,328.237l.073,25.637c-3.426-.006-6.847-.016-10.5-.023l-.072-25.638C367.907,328.221,371.329,328.231,374.753,328.237Z" transform="translate(-364.252 -285.753)" fill="url(#linear-gradient-12)"/>
            <g id="Grupo_32928" data-name="Grupo 32928">
              <g id="Grupo_32927" data-name="Grupo 32927">
                <path id="Trazado_81170" data-name="Trazado 81170" d="M385.821,313.669c-13.94,8.048-20.9,18.076-21.569,29.8,3.655.009,7.077.019,10.5.025-.045-9.864,7.063-19,18.591-25.658,11.4-6.579,27.11-10.734,44.513-10.771-.014-1.979-.03-3.958-.048-6.054-17.274.14-32.955,3.259-46.425,9.732Q388.439,312.157,385.821,313.669Z" transform="translate(-364.252 -301.009)" fill="#37a3a5"/>
              </g>
            </g>
            <path id="Trazado_81171" data-name="Trazado 81171" d="M399.01,322.386q.728-.419,1.473-.812c.158-.083.32-.161.479-.242.343-.175.684-.35,1.032-.517.2-.1.412-.189.617-.283.311-.144.618-.289.932-.425.226-.1.457-.189.685-.284.278-.114.552-.234.833-.345l.056-.02c.671-.264,1.355-.51,2.045-.746.184-.062.371-.123.557-.184q.817-.269,1.654-.514c.122-.036.237-.076.359-.111.076-.022.156-.041.234-.062.414-.116.833-.225,1.253-.332.211-.053.42-.111.632-.162q.88-.213,1.779-.4l.136-.03.011,0q.93-.192,1.879-.357c.2-.033.4-.062.6-.094.439-.073.877-.145,1.321-.209l.092-.014c.226-.031.457-.056.685-.086.39-.052.779-.1,1.174-.148.281-.033.565-.058.847-.087.379-.038.757-.077,1.141-.109.066-.006.13-.014.2-.019.2-.017.412-.027.616-.042.428-.031.855-.062,1.289-.087.289-.016.581-.028.872-.042.418-.019.838-.036,1.261-.048.133,0,.264-.013.4-.016.381-.009.762-.017,1.146-.02.016-2.024.023-4.008.034-5.994l.073,25.637c-.013,1.985-.019,3.971-.034,5.994-.518.006-1.032.02-1.545.036q-.632.019-1.261.05c-.29.013-.582.025-.872.042-.432.023-.862.055-1.289.086-.27.02-.543.039-.812.061-.382.033-.76.072-1.139.111-.283.028-.568.055-.848.086-.395.045-.785.1-1.175.148-.259.034-.52.064-.776.1-.445.064-.885.136-1.324.208-.2.033-.4.061-.595.1q-.948.164-1.879.357l-.134.03q-.9.19-1.79.4c-.212.052-.421.108-.632.162-.42.106-.84.215-1.255.331-.2.056-.395.115-.591.173q-.836.246-1.656.515c-.186.061-.371.12-.557.184-.69.236-1.372.482-2.043.745-.3.119-.6.244-.893.368-.228.094-.457.184-.682.281-.315.137-.624.282-.935.426-.2.094-.412.184-.613.281-.343.164-.679.337-1.016.509-.164.084-.332.164-.5.25q-.745.393-1.472.813c-7.817,4.517-11.647,10.042-11.9,16.387l-.073-25.637C387.365,332.428,391.2,326.9,399.01,322.386Z" transform="translate(-351.435 -296.225)" fill="url(#linear-gradient-12)"/>
            <path id="Trazado_81172" data-name="Trazado 81172" d="M390.832,328.27l.073,25.637c-3.493,0-6.888,0-10.37,0l-.073-25.637C383.944,328.27,387.339,328.267,390.832,328.27Z" transform="translate(-355.161 -285.721)" fill="url(#linear-gradient-12)"/>
            <g id="Grupo_32930" data-name="Grupo 32930" transform="translate(25.301 13.312)">
              <g id="Grupo_32929" data-name="Grupo 32929">
                <path id="Trazado_81173" data-name="Trazado 81173" d="M395.379,318.079c-9.132,5.272-14.956,12.569-14.917,20.7,3.482,0,6.877,0,10.37,0,.259-6.346,4.089-11.872,11.9-16.389s17.377-6.73,28.282-6.852c.016-2.024.023-4.008.034-5.993C417.529,309.412,404.722,312.686,395.379,318.079Z" transform="translate(-380.462 -309.538)" fill="#37a3a5"/>
              </g>
            </g>
          </g>
          <g id="Grupo_32934" data-name="Grupo 32934" transform="translate(50.502 26.245)" style="isolation: isolate">
            <path id="Trazado_81174" data-name="Trazado 81174" d="M408.543,326.869q.648-.37,1.328-.695c.151-.072.311-.133.464-.2.293-.131.582-.265.883-.384l.052-.019c.056-.022.116-.042.173-.064.378-.144.763-.276,1.155-.4.123-.041.248-.08.373-.117s.222-.072.336-.1c.139-.039.286-.067.426-.1.342-.091.687-.176,1.036-.253.114-.025.222-.059.336-.083s.264-.042.393-.067q.457-.089.926-.161c.142-.023.279-.053.423-.073.117-.017.242-.025.359-.041.322-.042.646-.076.974-.108.162-.017.32-.041.484-.055.1-.008.2-.009.3-.016.393-.03.793-.048,1.194-.064.175-.006.343-.023.521-.028.145,0,.29-.006.437-.008.02-.251.044-.457.05-.665.047-1.776.087-3.557.136-5.333l.072,25.638c-.047,1.776-.087,3.557-.136,5.332,0,.209-.028.414-.048.666-.325,0-.64.023-.958.036-.4.016-.8.034-1.194.062-.267.02-.528.045-.79.07-.326.033-.652.067-.972.108-.264.034-.524.073-.782.114q-.468.073-.927.161c-.245.047-.487.1-.727.15-.351.078-.7.164-1.038.254-.254.067-.51.133-.762.209-.125.037-.248.076-.373.115q-.588.187-1.155.4c-.058.022-.116.041-.172.062-.318.125-.626.265-.935.4-.153.069-.312.13-.464.2q-.681.323-1.33.694c-3.465,2-5.146,4.442-5.3,7.2l-.072-25.637C403.4,331.313,405.077,328.87,408.543,326.869Z" transform="translate(-392.887 -317.822)" fill="url(#linear-gradient-12)"/>
            <path id="Trazado_81175" data-name="Trazado 81175" d="M396.613,328.332l10.351-.016.072,25.637c-3.507.008-6.928.012-10.35.016v-.02c0-.076,0-.153,0-.228l-.073-25.638C396.608,328.165,396.609,328.249,396.613,328.332Z" transform="translate(-396.608 -312.07)" fill="url(#linear-gradient-12)"/>
            <g id="Grupo_32933" data-name="Grupo 32933" transform="translate(0)">
              <g id="Grupo_32932" data-name="Grupo 32932">
                <path id="Trazado_81176" data-name="Trazado 81176" d="M404.855,322.613c-5.168,2.984-8.382,7.081-8.243,11.472l10.351-.016c.155-2.755,1.834-5.2,5.3-7.2a25.64,25.64,0,0,1,12.577-3.045c.02-.251.044-.457.05-.665.047-1.776.087-3.557.136-5.333A40.187,40.187,0,0,0,404.855,322.613Z" transform="translate(-396.608 -317.824)" fill="#37a3a5"/>
              </g>
            </g>
          </g>
          <g id="Grupo_32936" data-name="Grupo 32936" transform="translate(71.386 38.329)" style="isolation: isolate">
            <path id="Trazado_81177" data-name="Trazado 81177" d="M410,328.3c.006.072.012.142.025.214s.028.115.044.172.034.136.058.2.045.111.069.165c.031.07.062.141.1.211.026.05.059.1.091.15.048.08.1.158.158.236.034.047.072.092.111.137a3.994,3.994,0,0,0,.286.307c.037.036.072.073.112.109.064.059.137.115.208.172s.122.1.189.15.161.109.243.162.165.112.256.164a6.588,6.588,0,0,0,.638.323c.064.03.128.056.192.083.173.072.351.141.532.2.066.022.13.047.2.067.114.036.231.067.346.1.089.025.176.05.267.072.123.03.248.055.373.08.086.017.17.037.256.053.253.044.51.08.77.106.078.009.159.014.239.02.151.012.3.023.457.031.1,0,.2.006.293.008.123,0,.247,0,.37,0,.1,0,.206,0,.311-.009s.228-.009.34-.017.211-.017.314-.026.225-.023.337-.038.2-.028.3-.044c.12-.019.239-.039.357-.062q.14-.026.281-.056c.142-.031.281-.066.42-.1.076-.02.155-.041.231-.062.248-.072.492-.153.726-.245.033-.013.064-.027.1-.041a7.112,7.112,0,0,0,.918-.44,3.383,3.383,0,0,0,2-2.788l.073,25.637a3.385,3.385,0,0,1-2,2.789,7.32,7.32,0,0,1-.918.44c-.02.008-.039.019-.059.028l-.036.012c-.236.091-.478.172-.726.245-.02,0-.039.014-.059.019-.056.017-.116.028-.173.044-.137.036-.278.072-.42.1-.037.009-.073.02-.112.028-.055.012-.112.019-.167.03-.119.022-.239.044-.359.062-.048.006-.1.017-.144.025s-.106.011-.159.017q-.166.021-.337.037c-.053.006-.108.014-.161.019l-.15.008c-.115.008-.229.014-.343.019-.058,0-.116.008-.173.009l-.137,0c-.123,0-.245,0-.368,0-.062,0-.125,0-.186,0-.036,0-.072-.006-.109-.008-.151-.006-.3-.017-.456-.031-.061,0-.123,0-.184-.011l-.056-.008c-.259-.028-.515-.062-.768-.108l-.038,0c-.075-.014-.147-.033-.222-.047-.123-.025-.248-.05-.37-.08-.09-.022-.178-.048-.268-.072-.116-.033-.233-.064-.347-.1-.023-.008-.05-.013-.073-.02-.042-.014-.08-.031-.12-.045-.181-.062-.359-.13-.532-.2-.064-.027-.13-.053-.192-.081a6.985,6.985,0,0,1-.638-.323l-.083-.048c-.062-.039-.116-.08-.176-.117-.081-.053-.165-.106-.242-.162s-.126-.1-.189-.15-.142-.112-.208-.17c-.012-.012-.028-.023-.041-.034s-.045-.052-.07-.077a3.736,3.736,0,0,1-.287-.307c-.019-.023-.044-.044-.062-.067s-.03-.047-.047-.07c-.058-.077-.109-.156-.159-.236-.02-.033-.047-.066-.066-.1-.011-.017-.016-.034-.025-.052-.037-.07-.067-.14-.1-.211-.017-.041-.042-.081-.058-.122a.449.449,0,0,0-.012-.044c-.023-.066-.039-.134-.058-.2-.011-.045-.03-.09-.039-.136l0-.037c-.012-.07-.017-.142-.023-.214,0-.045-.014-.091-.016-.137l0-.059-.072-25.638C409.989,328.168,410,328.233,410,328.3Z" transform="translate(-409.988 -324.166)" fill="url(#linear-gradient-12)"/>
            <g id="Grupo_32935" data-name="Grupo 32935">
              <path id="Trazado_81178" data-name="Trazado 81178" d="M411.984,326.713c-2.649,1.53-2.663,4.01-.031,5.538a10.53,10.53,0,0,0,9.562,0c2.649-1.528,2.666-4.007.031-5.538A10.536,10.536,0,0,0,411.984,326.713Z" transform="translate(-409.988 -325.566)" fill="#37a3a5"/>
            </g>
          </g>
        </g>
      </g>
      <g id="Grupo_33035" data-name="Grupo 33035" transform="translate(146.379 13.284)">
        <g id="Grupo_33032" data-name="Grupo 33032" transform="translate(53.344 125.196)">
          <g id="Grupo_33019" data-name="Grupo 33019" transform="translate(147.462 193.687)">
            <path id="Trazado_81219" data-name="Trazado 81219" d="M653.577,294.929l-.113,39.918-102.919,59.81.113-39.918Z" transform="translate(-550.545 -294.929)" fill="url(#linear-gradient-19)"/>
          </g>
          <path id="Trazado_81220" data-name="Trazado 81220" d="M603.643,363.84l-.113,39.918L456.068,318.62l.113-39.918Z" transform="translate(-456.068 -110.343)" fill="url(#linear-gradient-20)"/>
          <g id="Grupo_33020" data-name="Grupo 33020" transform="translate(7.822 183.64)">
            <path id="Trazado_81221" data-name="Trazado 81221" d="M593.009,364.432l-.089,21.029a1.209,1.209,0,0,1-1.814,1.043L461.685,311.781a1.209,1.209,0,0,1-.606-1.052l.089-21.03a1.209,1.209,0,0,1,1.815-1.041l129.422,74.721A1.205,1.205,0,0,1,593.009,364.432Z" transform="translate(-461.079 -288.493)" fill="#21587b"/>
            <path id="Trazado_81222" data-name="Trazado 81222" d="M463.133,306.9l.059-13.657a1.208,1.208,0,0,1,1.814-1.043l123.04,71.036a1.209,1.209,0,0,1,.605,1.052l-.058,13.659a1.211,1.211,0,0,1-1.815,1.043l-123.04-71.036A1.212,1.212,0,0,1,463.133,306.9Z" transform="translate(-459.927 -286.506)" fill="url(#linear-gradient-2)"/>
          </g>
          <g id="Grupo_33021" data-name="Grupo 33021" transform="translate(0.113 108.549)">
            <path id="Trazado_81223" data-name="Trazado 81223" d="M706.521,325.52,603.6,385.33,456.14,300.193l102.919-59.81Z" transform="translate(-456.14 -240.383)" fill="url(#linear-gradient-22)"/>
          </g>
          <path id="Trazado_81224" data-name="Trazado 81224" d="M529.131,310.6a8.95,8.95,0,0,1,8.093,0c2.235,1.291,2.235,3.382,0,4.673a8.95,8.95,0,0,1-8.093,0C526.9,313.978,526.9,311.886,529.131,310.6Z" transform="translate(-416.031 -92.999)" fill="#37a3a5"/>
          <path id="Trazado_81225" data-name="Trazado 81225" d="M537.814,315.574a8.95,8.95,0,0,1,8.093,0c2.234,1.291,2.234,3.382,0,4.673a8.95,8.95,0,0,1-8.093,0C535.579,318.957,535.579,316.865,537.814,315.574Z" transform="translate(-411.162 -90.207)" fill="#37a3a5"/>
          <path id="Trazado_81226" data-name="Trazado 81226" d="M547.836,321.273a8.947,8.947,0,0,1,8.091,0c2.235,1.291,2.235,3.382,0,4.673a8.947,8.947,0,0,1-8.091,0C545.6,324.656,545.6,322.564,547.836,321.273Z" transform="translate(-405.542 -87.011)" fill="#37a3a5"/>
          <path id="Trazado_81227" data-name="Trazado 81227" d="M510.427,299.885a8.95,8.95,0,0,1,8.093,0c2.235,1.291,2.235,3.382,0,4.673a8.951,8.951,0,0,1-8.093,0C508.193,303.268,508.193,301.176,510.427,299.885Z" transform="translate(-426.521 -99.006)" fill="#ebf4fb"/>
          <path id="Trazado_81228" data-name="Trazado 81228" d="M519.11,304.864a8.947,8.947,0,0,1,8.091,0c2.235,1.291,2.235,3.382,0,4.673a8.947,8.947,0,0,1-8.091,0C516.875,308.247,516.875,306.155,519.11,304.864Z" transform="translate(-421.652 -96.213)" fill="#ebf4fb"/>
          <g id="Grupo_33024" data-name="Grupo 33024" transform="translate(199.38 58.58)">
            <path id="Trazado_81229" data-name="Trazado 81229" d="M597.621,302.395l19.044-11.5-11.5-6.642L585.4,295.522Z" transform="translate(-582.918 -165.811)" opacity="0.7" fill="url(#linear-gradient-23)" style="mix-blend-mode: multiply;isolation: isolate"/>
            <g id="Grupo_33023" data-name="Grupo 33023">
              <path id="Trazado_81230" data-name="Trazado 81230" d="M598.931,210.44a2.8,2.8,0,0,1-1.483,2.251,7.408,7.408,0,0,1-2.987,1,10.03,10.03,0,0,1-2.36.009l-.047-.008a7.142,7.142,0,0,1-3.268-1.16,2.715,2.715,0,0,1-1.272-2.06L583.808,339.2a3.31,3.31,0,0,0,.156.93c.023.075.047.15.075.225a4.4,4.4,0,0,0,1,1.547c.069.07.158.136.233.2s.148.133.226.2a7.554,7.554,0,0,0,1.08.766,10,10,0,0,0,1.341.637c.137.055.279.1.42.153.362.128.732.242,1.113.34.144.036.286.076.432.109a14.926,14.926,0,0,0,1.581.272c.033,0,.067,0,.1.006.507.055,1.021.08,1.534.086.162,0,.322,0,.484,0,.412-.008.821-.03,1.23-.069.15-.014.3-.023.448-.042a14.156,14.156,0,0,0,1.578-.27c.415-.1.808-.229,1.2-.361.154-.052.32-.086.47-.144a10.38,10.38,0,0,0,1.52-.713c1.873-1.082,2.81-2.5,2.806-3.924C602.838,339.152,598.931,210.456,598.931,210.44Z" transform="translate(-583.808 -207.206)" fill="url(#linear-gradient-24)"/>
              <g id="Grupo_33022" data-name="Grupo 33022" transform="translate(3.636)">
                <path id="Trazado_81231" data-name="Trazado 81231" d="M587.846,209.351c-2.268,1.308-2.28,3.434-.023,4.746a9.034,9.034,0,0,0,8.193,0c2.269-1.311,2.282-3.435.026-4.746A9.031,9.031,0,0,0,587.846,209.351Z" transform="translate(-586.137 -208.368)" fill="#21587b"/>
              </g>
            </g>
          </g>
          <g id="Grupo_33027" data-name="Grupo 33027" transform="translate(96.731)">
            <path id="Trazado_81232" data-name="Trazado 81232" d="M532.235,264.654l19.044-11.5-11.5-6.642-19.766,11.272Z" transform="translate(-516.939 -128.398)" opacity="0.7" fill="url(#linear-gradient-23)" style="mix-blend-mode: multiply;isolation: isolate"/>
            <g id="Grupo_33026" data-name="Grupo 33026">
              <path id="Trazado_81233" data-name="Trazado 81233" d="M533.165,172.909a2.8,2.8,0,0,1-1.483,2.251,7.381,7.381,0,0,1-2.989,1,9.935,9.935,0,0,1-2.358.011l-.047-.008a7.179,7.179,0,0,1-3.268-1.16,2.711,2.711,0,0,1-1.272-2.062l-3.705,128.734a3.334,3.334,0,0,0,.156.93c.022.075.047.148.075.223a4.4,4.4,0,0,0,1,1.548c.069.07.158.134.231.2s.15.134.228.2a7.621,7.621,0,0,0,1.079.768,10.522,10.522,0,0,0,1.342.637c.137.055.279.1.42.153.361.128.73.242,1.113.339.144.038.284.078.432.111a14.953,14.953,0,0,0,1.58.27c.034,0,.069,0,.1.008.507.055,1.021.08,1.534.086.162,0,.322,0,.484,0,.412-.008.821-.031,1.23-.069.15-.014.3-.023.448-.042a14.917,14.917,0,0,0,1.578-.27c.415-.1.809-.229,1.2-.362.155-.051.32-.086.47-.142a10.427,10.427,0,0,0,1.519-.713c1.875-1.083,2.811-2.5,2.808-3.924C537.072,301.621,533.165,172.923,533.165,172.909Z" transform="translate(-518.042 -169.675)" fill="url(#linear-gradient-24)"/>
              <g id="Grupo_33025" data-name="Grupo 33025" transform="translate(3.635)">
                <path id="Trazado_81234" data-name="Trazado 81234" d="M522.08,171.819c-2.269,1.31-2.28,3.435-.023,4.746a9.024,9.024,0,0,0,8.193,0c2.269-1.31,2.28-3.435.026-4.745A9.035,9.035,0,0,0,522.08,171.819Z" transform="translate(-520.371 -170.837)" fill="#21587b"/>
              </g>
            </g>
          </g>
          <g id="Grupo_33031" data-name="Grupo 33031" transform="translate(151.865 209.262)">
            <g id="Grupo_33028" data-name="Grupo 33028">
              <path id="Trazado_81235" data-name="Trazado 81235" d="M554.19,359.58a.826.826,0,0,1-.407-1.544l93.38-53.02a.826.826,0,1,1,.816,1.436L554.6,359.473A.811.811,0,0,1,554.19,359.58Z" transform="translate(-553.365 -304.908)" fill="#21587b"/>
            </g>
            <g id="Grupo_33029" data-name="Grupo 33029" transform="translate(0 6.337)">
              <path id="Trazado_81236" data-name="Trazado 81236" d="M554.19,363.642a.826.826,0,0,1-.407-1.544l93.38-53.02a.825.825,0,1,1,.816,1.434L554.6,363.534A.811.811,0,0,1,554.19,363.642Z" transform="translate(-553.365 -308.968)" fill="#21587b"/>
            </g>
            <g id="Grupo_33030" data-name="Grupo 33030" transform="translate(0 12.676)">
              <path id="Trazado_81237" data-name="Trazado 81237" d="M554.19,367.7a.826.826,0,0,1-.407-1.544l93.38-53.02a.826.826,0,1,1,.816,1.436L554.6,367.6A.811.811,0,0,1,554.19,367.7Z" transform="translate(-553.365 -313.029)" fill="#21587b"/>
            </g>
          </g>
        </g>
        <g id="Grupo_33033" data-name="Grupo 33033" transform="translate(0 185.867)">
          <path id="Trazado_81238" data-name="Trazado 81238" d="M426.758,427.633a1.018,1.018,0,0,1-1-.843c-.192-1.125-18.852-113.244,27.536-175.608,17.3-23.261,41.566-36.94,72.119-40.659,25.716-3.133,48.131,2.78,66.632,17.558,42.9,34.269,50.633,105.648,50.706,106.365a1.014,1.014,0,0,1-2.017.206c-.073-.71-7.729-71.259-49.962-104.99-18.059-14.424-39.969-20.18-65.113-17.125-29.983,3.649-53.781,17.06-70.738,39.857C409.05,314.068,427.566,425.33,427.76,426.446a1.015,1.015,0,0,1-.827,1.174A1.1,1.1,0,0,1,426.758,427.633Z" transform="translate(-421.891 -209.708)" fill="#21587b"/>
        </g>
        <g id="Grupo_33034" data-name="Grupo 33034" transform="translate(18.635)">
          <path id="Trazado_81239" data-name="Trazado 81239" d="M604.807,260.25c-4.161-46.508-12.458-84.142-24.667-111.858-15.341-34.831-36.942-54.056-64.2-57.143-22.957-2.6-41.5,2.947-55.161,16.485-22.073,21.873-26.5,60.149-26.951,83.723.542-.2,1.093-.379,1.645-.554.5-23.348,4.952-60.691,26.465-82.006,13.29-13.167,31.393-18.552,53.816-16.019,26.635,3.019,47.789,21.916,62.878,56.168,12.137,27.549,20.392,65.007,24.536,111.33,7.066,78.959-.384,157.311-.462,158.091a.824.824,0,0,0,.738.9c.026,0,.055,0,.081,0a.822.822,0,0,0,.816-.741C604.419,417.844,611.884,339.359,604.807,260.25Z" transform="translate(-433.83 -90.625)" fill="#21587b"/>
        </g>
      </g>
      <path id="Trazado_81240" data-name="Trazado 81240" d="M352.428,321.5a2.228,2.228,0,0,0,2.035-.112l19.659-11.453-.824-.553a1.823,1.823,0,0,0-1.939-.058l-20,11.7Z" transform="translate(-315.065 45.169)" fill="url(#linear-gradient-27)"/>
    </g>
  </g>
</svg>
