<svg xmlns="http://www.w3.org/2000/svg" xmlns:xlink="http://www.w3.org/1999/xlink" width="338.051" height="256.249" viewBox="0 0 338.051 256.249">
  <defs>
    <linearGradient id="linear-gradient" x1="0.5" x2="0.5" y2="1" gradientUnits="objectBoundingBox">
      <stop offset="0" stop-color="#fff"/>
      <stop offset="1" stop-color="#d2e6ee"/>
    </linearGradient>
  </defs>
  <g id="Grupo_54532" data-name="Grupo 54532" transform="translate(-23.909 -73.611)">
    <path id="Trazado_95347" data-name="Trazado 95347" d="M310.1,204.393l21.831-12.6a16,16,0,0,1,14.475,0l9.4,5.7,75.829,43.781c4,2.307,4,6.049,0,8.356L365.41,287.859" transform="translate(-74.171 -30.179)" fill="none" stroke="#00223d" stroke-linecap="round" stroke-linejoin="round" stroke-width="3"/>
    <path id="Trazado_95348" data-name="Trazado 95348" d="M118.68,177.78l42.41-24.485a16,16,0,0,1,14.474,0l9.4,5.7,47.918,27.664" transform="translate(-24.561 -20.203)" fill="none" stroke="#00223d" stroke-linecap="round" stroke-linejoin="round" stroke-width="3"/>
    <path id="Trazado_95349" data-name="Trazado 95349" d="M103.66,320.821,38.341,283.109c-4-2.309-4-6.05,0-8.357l70.707-40.824" transform="translate(-2.963 -41.549)" fill="none" stroke="#00223d" stroke-linecap="round" stroke-linejoin="round" stroke-width="3"/>
    <line id="Línea_335" data-name="Línea 335" x1="50.353" y2="29.776" transform="translate(94.118 240.81)" fill="none" stroke="#00223d" stroke-linecap="round" stroke-linejoin="round" stroke-width="3"/>
    <line id="Línea_336" data-name="Línea 336" x1="83.224" y2="48.329" transform="translate(144.625 186.665)" fill="none" stroke="#00223d" stroke-linecap="round" stroke-linejoin="round" stroke-width="3"/>
    <path id="Trazado_95350" data-name="Trazado 95350" d="M276.5,351.661l-77.066,44.494a16,16,0,0,1-14.474,0L123.635,360.75" transform="translate(-25.846 -72.061)" fill="none" stroke="#00223d" stroke-linecap="round" stroke-linejoin="round" stroke-width="3"/>
    <path id="Trazado_95351" data-name="Trazado 95351" d="M316.374,209.544l-65.363-37.737a1.219,1.219,0,0,0-1.221,0l-30.2,17.435a1.221,1.221,0,0,0,0,2.114l65.363,37.737a1.215,1.215,0,0,0,1.221,0l30.2-17.434a1.221,1.221,0,0,0,0-2.114Z" transform="translate(-50.556 -25.407)" opacity="0.2" style="mix-blend-mode: multiply;isolation: isolate"/>
    <g id="Grupo_41938" data-name="Grupo 41938" transform="translate(169.646 73.611)">
      <path id="Trazado_95352" data-name="Trazado 95352" d="M339.057,197.636l-30.2,17.435V141.641l30.2-17.435Z" transform="translate(-243.495 -86.723)" fill="url(#linear-gradient)"/>
      <path id="Trazado_95353" data-name="Trazado 95353" d="M339.057,143.066l-30.2,17.435v-1.822l30.2-17.435Z" transform="translate(-243.495 -91.139)" fill="#00223d"/>
      <path id="Trazado_95354" data-name="Trazado 95354" d="M339.057,163.107l-30.2,17.435v-1.822l30.2-17.435Z" transform="translate(-243.495 -96.333)" fill="#00223d"/>
      <path id="Trazado_95355" data-name="Trazado 95355" d="M339.057,183.148l-30.2,17.435V198.76l30.2-17.435Z" transform="translate(-243.495 -101.527)" fill="#00223d"/>
      <path id="Trazado_95356" data-name="Trazado 95356" d="M339.057,203.189l-30.2,17.435V218.8l30.2-17.435Z" transform="translate(-243.495 -106.721)" fill="#00223d"/>
      <path id="Trazado_95357" data-name="Trazado 95357" d="M330.593,223.146a4.6,4.6,0,0,1-2.082,3.6c-1.15.664-2.082.127-2.082-1.2a4.6,4.6,0,0,1,2.082-3.6C329.661,221.281,330.594,221.818,330.593,223.146Z" transform="translate(-248.049 -111.98)" fill="#00223d"/>
      <g id="Grupo_41937" data-name="Grupo 41937" transform="translate(70.422 104.792)">
        <path id="Trazado_95358" data-name="Trazado 95358" d="M317.768,228.147a4.6,4.6,0,0,0-2.082,3.6c0,1.328.933,1.865,2.082,1.2a4.593,4.593,0,0,0,2.082-3.6C319.849,228.021,318.919,227.483,317.768,228.147Z" transform="translate(-315.686 -218.38)" fill="#37a3a5"/>
        <path id="Trazado_95359" data-name="Trazado 95359" d="M339.939,215.346a4.607,4.607,0,0,0-2.083,3.606c0,1.327.933,1.865,2.083,1.2a4.6,4.6,0,0,0,2.082-3.606C342.02,215.221,341.089,214.683,339.939,215.346Z" transform="translate(-321.432 -215.062)" fill="#37a3a5"/>
      </g>
      <path id="Trazado_95360" data-name="Trazado 95360" d="M285.992,207.968l-65.362-37.737V96.8l65.363,37.737Z" transform="translate(-220.629 -79.621)" fill="url(#linear-gradient)"/>
      <path id="Trazado_95361" data-name="Trazado 95361" d="M285.992,128.783,220.629,91.046l30.2-17.435,65.363,37.738Z" transform="translate(-220.629 -73.611)" fill="#d2e1f1"/>
      <path id="Trazado_95362" data-name="Trazado 95362" d="M285.992,153.4l-65.362-37.737V113.84l65.362,37.737Z" transform="translate(-220.629 -84.037)" fill="#21587b"/>
      <path id="Trazado_95363" data-name="Trazado 95363" d="M285.992,173.44,220.629,135.7V133.88l65.363,37.737Z" transform="translate(-220.629 -89.231)" fill="#21587b"/>
      <path id="Trazado_95364" data-name="Trazado 95364" d="M285.992,193.48l-65.363-37.737v-1.823l65.363,37.737Z" transform="translate(-220.629 -94.424)" fill="#21587b"/>
      <path id="Trazado_95365" data-name="Trazado 95365" d="M285.992,213.522l-65.362-37.738v-1.822L285.992,211.7Z" transform="translate(-220.629 -99.618)" fill="#21587b"/>
    </g>
    <path id="Trazado_95366" data-name="Trazado 95366" d="M247.976,310.406,187,275.2a6.476,6.476,0,0,0-5.993,0l-35.947,20.754a2.688,2.688,0,0,0,0,4.927l60.974,35.2a6.474,6.474,0,0,0,5.992,0l35.948-20.755a2.688,2.688,0,0,0,0-4.927Z" transform="translate(-30.981 -52.055)" opacity="0.2" style="mix-blend-mode: multiply;isolation: isolate"/>
    <g id="Grupo_41939" data-name="Grupo 41939" transform="translate(113.739 219.757)">
      <path id="Trazado_95367" data-name="Trazado 95367" d="M248.761,308.262v-.236a1.649,1.649,0,0,0-.976-1.374l-60.974-35.2a5.218,5.218,0,0,0-4.721,0L146.142,292.2a1.655,1.655,0,0,0-.976,1.374v.514a.166.166,0,0,0,0,.019v.067a.179.179,0,0,0,0,.02v.921a.165.165,0,0,0,0,.019v1.648a1.651,1.651,0,0,0,.976,1.373l60.974,35.2a5.223,5.223,0,0,0,4.721,0l35.947-20.754a1.65,1.65,0,0,0,.976-1.373v-2.971Z" transform="translate(-145.165 -270.883)" fill="#00223d"/>
      <path id="Trazado_95368" data-name="Trazado 95368" d="M247.785,306.651c1.3.752,1.3,1.973,0,2.726l-35.947,20.754a5.218,5.218,0,0,1-4.721,0l-60.974-35.2c-1.3-.753-1.3-1.974,0-2.728l35.948-20.754a5.218,5.218,0,0,1,4.721,0Z" transform="translate(-145.164 -270.883)" fill="url(#linear-gradient)"/>
      <path id="Trazado_95369" data-name="Trazado 95369" d="M237.241,305.459a1.139,1.139,0,0,1,0,2.157l-28.453,16.43a4.139,4.139,0,0,1-3.738,0l-45.1-26.039a1.139,1.139,0,0,1,0-2.157L188.4,279.421a4.127,4.127,0,0,1,3.738,0Z" transform="translate(-148.796 -272.98)" fill="#00223d"/>
      <path id="Trazado_95370" data-name="Trazado 95370" d="M235.716,305.971c.979.565,1,1.471.047,2.022l-26.322,15.2a3.874,3.874,0,0,1-3.5-.024l-42.794-24.709c-.98-.566-1-1.47-.044-2.022l26.32-15.2a3.873,3.873,0,0,1,3.5.026Z" transform="translate(-149.63 -273.462)" fill="#a6e4ff"/>
      <path id="Trazado_95371" data-name="Trazado 95371" d="M163.144,299.69l4.311,2.489q8.287-8.29,16.563-16.589L163.1,297.668C162.146,298.22,162.164,299.124,163.144,299.69Z" transform="translate(-149.63 -274.695)" fill="#bfecff"/>
      <path id="Trazado_95372" data-name="Trazado 95372" d="M225.075,298.216l-7.8-4.5q-10.9,10.9-21.8,21.8l7.8,4.5Z" transform="translate(-158.203 -276.8)" fill="#bfecff"/>
      <path id="Trazado_95373" data-name="Trazado 95373" d="M222.5,330.207l21.225-21.224-4.385-2.531-21.8,21.8,2.69,1.554A3.84,3.84,0,0,0,222.5,330.207Z" transform="translate(-163.922 -280.101)" fill="#bfecff"/>
      <path id="Trazado_95374" data-name="Trazado 95374" d="M204.914,286.568l-2.4-1.383q-10.867,10.924-21.759,21.822l2.355,1.359Q194.015,297.467,204.914,286.568Z" transform="translate(-154.39 -274.59)" fill="#bfecff"/>
      <path id="Trazado_95375" data-name="Trazado 95375" d="M179.765,283.637a.635.635,0,0,1,0,1.2l-10.426,6.022a2.312,2.312,0,0,1-2.087,0h0a.635.635,0,0,1,0-1.2l10.427-6.021a2.3,2.3,0,0,1,2.086,0Z" transform="translate(-150.777 -274.123)" fill="#00223d"/>
      <path id="Trazado_95376" data-name="Trazado 95376" d="M253.789,329.852c1.791,1.035,1.791,2.711,0,3.747a7.178,7.178,0,0,1-6.489,0c-1.791-1.035-1.791-2.711,0-3.746A7.176,7.176,0,0,1,253.789,329.852Z" transform="translate(-171.286 -285.965)" fill="#fff"/>
      <path id="Trazado_95377" data-name="Trazado 95377" d="M253.166,330.917a1.225,1.225,0,0,1,0,2.321,4.442,4.442,0,0,1-4.021,0,1.225,1.225,0,0,1,0-2.321A4.451,4.451,0,0,1,253.166,330.917Z" transform="translate(-171.897 -286.318)" fill="#66797a"/>
      <path id="Trazado_95378" data-name="Trazado 95378" d="M240.5,337.181a.5.5,0,0,1,0,.938l-8.574,4.949a1.79,1.79,0,0,1-1.622,0h0a.493.493,0,0,1,0-.935l8.574-4.952a1.794,1.794,0,0,1,1.622,0Z" transform="translate(-167.143 -288.015)" fill="#00223d"/>
      <path id="Trazado_95379" data-name="Trazado 95379" d="M270.192,320.039a.5.5,0,0,1,0,.937l-8.573,4.95a1.8,1.8,0,0,1-1.624,0h0a.494.494,0,0,1,0-.936l8.574-4.952a1.794,1.794,0,0,1,1.622,0Z" transform="translate(-174.838 -283.572)" fill="#00223d"/>
    </g>
    <path id="Trazado_95380" data-name="Trazado 95380" d="M162.125,187.76l-52.5-30.312a10.151,10.151,0,0,0-4.931-1.307,6.572,6.572,0,0,0-3.277.777L25.852,200.544a3.648,3.648,0,0,0-1.943,3.179,5,5,0,0,0,2.86,4.134l52.5,30.311a10.146,10.146,0,0,0,4.93,1.307,6.567,6.567,0,0,0,3.278-.779l75.561-43.624a3.647,3.647,0,0,0,1.944-3.179A5,5,0,0,0,162.125,187.76Z" transform="translate(0 -21.389)" opacity="0.2" style="mix-blend-mode: multiply;isolation: isolate"/>
    <g id="Grupo_41940" data-name="Grupo 41940" transform="translate(26.137 133.115)">
      <path id="Trazado_95381" data-name="Trazado 95381" d="M163.533,188.967c0-.009,0-.018,0-.026s0-.019,0-.027,0-.018,0-.027,0-.018,0-.027,0-.019,0-.028,0-.017,0-.026v-.027c0-.009,0-.018,0-.027s0-.019,0-.027,0-.018,0-.027,0-.019,0-.028,0-.018,0-.027,0-.018,0-.027,0-.019,0-.027,0-.018,0-.027,0-.018,0-.027,0-.019,0-.027,0-.019,0-.027,0-.018,0-.027,0-.019,0-.029,0-.019,0-.027,0-.017,0-.025v-.028c0-.009,0-.019,0-.027s0-.019,0-.027,0-.018,0-.027,0-.018,0-.028,0-.018,0-.027,0-.019,0-.027,0-.019,0-.027,0-.018,0-.027,0-.018,0-.027,0-.018,0-.027,0-.019,0-.027,0-.019,0-.027,0-.018,0-.027,0-.018,0-.027,0-.018,0-.027,0-.018,0-.027,0-.019,0-.027,0-.017,0-.024,0-.021,0-.033,0-.016,0-.024,0-.019,0-.027,0-.019,0-.027,0-.019,0-.027,0-.019,0-.027,0-.019,0-.027,0-.018,0-.028,0-.018,0-.027,0-.035,0-.052c.056-.748-.55-1.612-1.743-2.3l-52.5-30.311c-1.9-1.1-4.582-1.336-5.98-.53L27.747,198.036a1.463,1.463,0,0,0-.826,1.179c0,.027,0,.056,0,.083,0,.01,0,.02,0,.03s0,.018,0,.027,0,.018,0,.027,0,.018,0,.027,0,.019,0,.027,0,.018,0,.027,0,.019,0,.028,0,.017,0,.025,0,.019,0,.028,0,.019,0,.027,0,.019,0,.027,0,.019,0,.027,0,.018,0,.027,0,.019,0,.027,0,.019,0,.027,0,.019,0,.027,0,.019,0,.027,0,.019,0,.027,0,.019,0,.028,0,.018,0,.027,0,.019,0,.028,0,.018,0,.026,0,.019,0,.028,0,.018,0,.027,0,.019,0,.027,0,.019,0,.027,0,.018,0,.027,0,.019,0,.028,0,.019,0,.027,0,.019,0,.027,0,.019,0,.027,0,.019,0,.028,0,.018,0,.027,0,.018,0,.027,0,.018,0,.027,0,.018,0,.028,0,.018,0,.027,0,.019,0,.027,0,.018,0,.027,0,.018,0,.027,0,.018,0,.028,0,.017,0,.024,0,.019,0,.029,0,.019,0,.027,0,.018,0,.027,0,.019,0,.027,0,.019,0,.027,0,.019,0,.028,0,.019,0,.027,0,.017,0,.026,0,.019,0,.027,0,.019,0,.027,0,.018,0,.027,0,.018,0,.027,0,.019,0,.027,0,.018,0,.027,0,.019,0,.027,0,.019,0,.027,0,.019,0,.027,0,.019,0,.027,0,.019,0,.028,0,.018,0,.027,0,.018,0,.027,0,.019,0,.027,0,.018,0,.028,0,.017,0,.027,0,.018,0,.026,0,.019,0,.029,0,.018,0,.027,0,.017,0,.026,0,.018,0,.028,0,.018,0,.027,0,.019,0,.027,0,.018,0,.027,0,.019,0,.027,0,.019,0,.027,0,.018,0,.027,0,.018,0,.027,0,.019,0,.027,0,.019,0,.027,0,.018,0,.027,0,.018,0,.027,0,.018,0,.027,0,.018,0,.027,0,.019,0,.027,0,.019,0,.027,0,.018,0,.027,0,.018,0,.028,0,.018,0,.027,0,.019,0,.027,0,.019,0,.027,0,.018,0,.027,0,.019,0,.027,0,.018,0,.027,0,.019,0,.027,0,.018,0,.027,0,.019,0,.027,0,.018,0,.027,0,.018,0,.027,0,.018,0,.027,0,.018,0,.027,0,.019,0,.027,0,.018,0,.027,0,.018,0,.027,0,.019,0,.027,0,.019,0,.027,0,.019,0,.027,0,.018,0,.027,0,.019,0,.027,0,.018,0,.027,0,.019,0,.027,0,.019,0,.027,0,.018,0,.027,0,.019,0,.027,0,.018,0,.027,0,.019,0,.028,0,.018,0,.027,0,.017,0,.027,0,.018,0,.027,0,.019,0,.027,0,.019,0,.027,0,.019,0,.027,0,.018,0,.027,0,.019,0,.027,0,.019,0,.027,0,.019,0,.028,0,.017,0,.027,0,.019,0,.027,0,.018,0,.027,0,.019,0,.028,0,.018,0,.027,0,.018,0,.027,0,.018,0,.027,0,.018,0,.027,0,.018,0,.027,0,.018,0,.027,0,.019,0,.027,0,.019,0,.027,0,.019,0,.027,0,.019,0,.027,0,.019,0,.027,0,.019,0,.027,0,.019,0,.027,0,.018,0,.027,0,.018,0,.027,0,.018,0,.027,0,.019,0,.028c-.055.747.551,1.609,1.742,2.3l52.5,30.312c1.9,1.1,4.581,1.336,5.98.53l75.561-43.626a1.464,1.464,0,0,0,.826-1.182c0-.009,0-.018,0-.027s0-.019,0-.027,0-.019,0-.028,0-.019,0-.027,0-.017,0-.026,0-.018,0-.028,0-.018,0-.027,0-.019,0-.027,0-.018,0-.027,0-.019,0-.027,0-.018,0-.027,0-.018,0-.027,0-.018,0-.027,0-.019,0-.028,0-.018,0-.027,0-.019,0-.027,0-.019,0-.027,0-.019,0-.028,0-.018,0-.027,0-.018,0-.027,0-.019,0-.027,0-.018,0-.027,0-.018,0-.027,0-.019,0-.027,0-.019,0-.027,0-.019,0-.027,0-.019,0-.027,0-.018,0-.027,0-.018,0-.027,0-.019,0-.028,0-.018,0-.027,0-.019,0-.027,0-.018,0-.027,0-.018,0-.027,0-.019,0-.028,0-.018,0-.027,0-.018,0-.027,0-.018,0-.027,0-.018,0-.027,0-.018,0-.027,0-.019,0-.027,0-.019,0-.027,0-.018,0-.027,0-.018,0-.027,0-.018,0-.027,0-.018,0-.027,0-.018,0-.027,0-.019,0-.027,0-.018,0-.027,0-.019,0-.027,0-.018,0-.027,0-.019,0-.028,0-.017,0-.027,0-.019,0-.027,0-.019,0-.027,0-.018,0-.027,0-.018,0-.027,0-.019,0-.027,0-.019,0-.027,0-.018,0-.027,0-.018,0-.027,0-.018,0-.027,0-.019,0-.027,0-.019,0-.027,0-.019,0-.027,0-.019,0-.027,0-.018,0-.027,0-.019,0-.027,0-.019,0-.027,0-.018,0-.027,0-.018,0-.027,0-.018,0-.027,0-.019,0-.027,0-.019,0-.027,0-.018,0-.027,0-.019,0-.027,0-.017,0-.026,0-.019,0-.03,0-.018,0-.027,0-.018,0-.027,0-.018,0-.026,0-.02,0-.029,0-.019,0-.028,0-.017,0-.025,0-.019,0-.028,0-.018,0-.027,0-.019,0-.028,0-.018,0-.027,0-.019,0-.027,0-.019,0-.027,0-.018,0-.027,0-.018,0-.027,0-.018,0-.027,0-.019,0-.027,0-.019,0-.028,0-.018,0-.027,0-.017,0-.027S163.533,188.976,163.533,188.967Z" transform="translate(-26.917 -153.932)" fill="#00223d"/>
      <path id="Trazado_95382" data-name="Trazado 95382" d="M87.146,232.33c-1.4.808-4.076.57-5.98-.53l-52.5-30.311c-1.9-1.1-2.314-2.646-.916-3.453l75.561-43.626c1.4-.807,4.076-.57,5.98.53l52.5,30.311c1.9,1.1,2.315,2.646.917,3.453Z" transform="translate(-26.917 -153.932)" fill="url(#linear-gradient)"/>
      <path id="Trazado_95383" data-name="Trazado 95383" d="M99.424,226.379c-1.293.747-3.723.554-5.427-.429L47.011,198.822c-1.7-.984-2.037-2.386-.743-3.134l58.409-33.722c1.293-.747,3.723-.555,5.427.429l46.985,27.127c1.7.983,2.037,2.386.744,3.133Z" transform="translate(-31.728 -155.896)" fill="#00223d"/>
      <path id="Trazado_95384" data-name="Trazado 95384" d="M100.087,225.093a5.708,5.708,0,0,1-5.077-.364L51.548,199.635c-1.576-.91-1.86-2.222-.632-2.931l55.52-32.054a5.707,5.707,0,0,1,5.076.365l43.463,25.093c1.576.91,1.859,2.223.633,2.931Z" transform="translate(-32.939 -156.595)" fill="#1e2729"/>
      <path id="Trazado_95385" data-name="Trazado 95385" d="M51.548,208.956l.456.263,9.044-9.043-10.132,5.85C49.688,206.735,49.972,208.047,51.548,208.956Z" transform="translate(-32.939 -165.917)" fill="#2b383b"/>
      <path id="Trazado_95386" data-name="Trazado 95386" d="M112.188,164.236a4.389,4.389,0,0,0-2.483.415L92.28,174.712,62.766,204.226l5.979,3.452Z" transform="translate(-36.208 -156.597)" fill="#2b383b"/>
      <path id="Trazado_95387" data-name="Trazado 95387" d="M145.782,181.555l-6.933-4-43.9,43.9,6.933,4Z" transform="translate(-44.549 -160.053)" fill="#2b383b"/>
      <path id="Trazado_95388" data-name="Trazado 95388" d="M164.348,192.109l-5.741-3.314-43.083,43.083a3.663,3.663,0,0,0,1.506-.413l18.839-10.876Z" transform="translate(-49.881 -162.967)" fill="#2b383b"/>
      <path id="Trazado_95389" data-name="Trazado 95389" d="M188.816,199.152l-.077-.044q-4,4-8.008,8.008l8.718-5.033C190.676,201.375,190.393,200.062,188.816,199.152Z" transform="translate(-66.78 -165.64)" fill="#2b383b"/>
      <path id="Trazado_95390" data-name="Trazado 95390" d="M127.727,171.131l-2.88-1.662-43.9,43.9,2.879,1.662Z" transform="translate(-40.921 -157.959)" fill="#2b383b"/>
      <path id="Trazado_95391" data-name="Trazado 95391" d="M173.254,180.764a2.469,2.469,0,0,1-2.237,0l-11.182-6.456a.682.682,0,0,1,0-1.291h0a2.471,2.471,0,0,1,2.237,0l11.182,6.456a.681.681,0,0,1,0,1.291Z" transform="translate(-61.245 -158.809)" fill="#324245"/>
      <path id="Trazado_95392" data-name="Trazado 95392" d="M73.928,235.291a7.692,7.692,0,0,1-6.958,0c-1.922-1.109-1.922-2.909,0-4.018a7.689,7.689,0,0,1,6.958,0C75.849,232.382,75.849,234.182,73.928,235.291Z" transform="translate(-36.924 -173.76)" fill="#00223d"/>
      <path id="Trazado_95393" data-name="Trazado 95393" d="M73.26,234.9a4.768,4.768,0,0,1-4.311,0,1.314,1.314,0,0,1,0-2.489,4.761,4.761,0,0,1,4.31,0A1.314,1.314,0,0,1,73.26,234.9Z" transform="translate(-37.579 -174.138)" fill="#4b6366"/>
      <path id="Trazado_95394" data-name="Trazado 95394" d="M57.52,225.818a1.923,1.923,0,0,1-1.74,0l-15.128-8.733c-.654-.378-.794-.908-.314-1.186h0a2.331,2.331,0,0,1,2.054.182l15.128,8.734a.53.53,0,0,1,0,1Z" transform="translate(-30.321 -169.949)" fill="#00223d"/>
      <path id="Trazado_95395" data-name="Trazado 95395" d="M97.766,249.053a2.33,2.33,0,0,1-2.054-.181l-15.129-8.735a.53.53,0,0,1,0-1h0a1.924,1.924,0,0,1,1.739,0l15.127,8.735c.655.378.8.909.316,1.185Z" transform="translate(-40.732 -175.959)" fill="#00223d"/>
    </g>
    <path id="Trazado_95396" data-name="Trazado 95396" d="M420.257,329.985,386.541,310.52a8.956,8.956,0,0,0-8.265,0l-82.89,47.858a3.549,3.549,0,0,0,0,6.53L329.1,384.373a8.958,8.958,0,0,0,8.266,0l82.891-47.858a3.549,3.549,0,0,0,0-6.53Z" transform="translate(-69.798 -61.137)" opacity="0.2" style="mix-blend-mode: multiply;isolation: isolate"/>
    <path id="Trazado_95397" data-name="Trazado 95397" d="M185.5,398.107a8.76,8.76,0,0,1-7.927,0c-2.189-1.263-2.189-3.312,0-4.576a8.756,8.756,0,0,1,7.927,0C187.686,394.8,187.686,396.844,185.5,398.107Z" transform="translate(-39.398 -82.667)" fill="#00223d"/>
    <path id="Trazado_95398" data-name="Trazado 95398" d="M77.284,321.807a8.76,8.76,0,0,1-7.927,0c-2.189-1.263-2.189-3.312,0-4.575a8.751,8.751,0,0,1,7.927,0C79.473,318.5,79.473,320.544,77.284,321.807Z" transform="translate(-11.353 -62.892)" fill="#00223d"/>
    <path id="Trazado_95399" data-name="Trazado 95399" d="M146.093,325.394a8.76,8.76,0,0,1-7.927,0c-2.19-1.263-2.19-3.313,0-4.576a8.756,8.756,0,0,1,7.927,0C148.283,322.081,148.283,324.131,146.093,325.394Z" transform="translate(-29.186 -63.822)" fill="#00223d"/>
    <path id="Trazado_95400" data-name="Trazado 95400" d="M258.438,251.584a8.759,8.759,0,0,1-7.926,0c-2.19-1.265-2.19-3.313,0-4.576a8.754,8.754,0,0,1,7.926,0C260.627,248.271,260.627,250.32,258.438,251.584Z" transform="translate(-58.302 -44.693)" fill="#00223d"/>
    <path id="Trazado_95401" data-name="Trazado 95401" d="M411.8,222.8a8.76,8.76,0,0,1-7.927,0c-2.188-1.263-2.188-3.312,0-4.576a8.756,8.756,0,0,1,7.927,0C413.987,219.487,413.987,221.536,411.8,222.8Z" transform="translate(-98.048 -37.233)" fill="#00223d"/>
    <path id="Trazado_95402" data-name="Trazado 95402" d="M179.914,155.088a8.762,8.762,0,0,1-7.928,0c-2.189-1.263-2.189-3.312,0-4.576a8.762,8.762,0,0,1,7.928,0C182.1,151.775,182.1,153.824,179.914,155.088Z" transform="translate(-37.951 -19.684)" fill="#00223d"/>
    <path id="Trazado_95403" data-name="Trazado 95403" d="M144.2,369.319l-41.3-23.842a8.434,8.434,0,0,0-7.769,0l-41.3,23.844a3.229,3.229,0,0,0,0,5.959l41.3,23.845a8.434,8.434,0,0,0,7.768,0l41.3-23.845a3.231,3.231,0,0,0,0-5.961Z" transform="translate(-7.243 -70.213)" opacity="0.2" style="mix-blend-mode: multiply;isolation: isolate"/>
    <g id="Grupo_41943" data-name="Grupo 41943" transform="translate(45.892 239.46)">
      <path id="Trazado_95404" data-name="Trazado 95404" d="M98.125,390.65l-41.3-23.844a6.559,6.559,0,0,1-2.2-2.26,2.685,2.685,0,0,1-1.049.307v8.362a7.177,7.177,0,0,0,3.245,5.621l41.3,23.844c1.792,1.034,3.245-.312,3.245-2.381V388.777C101.37,390.846,99.917,391.685,98.125,390.65Z" transform="translate(-53.582 -314.861)" fill="url(#linear-gradient)"/>
      <path id="Trazado_95405" data-name="Trazado 95405" d="M160.721,364.935h-.89a6.661,6.661,0,0,1-2.33,2.487l-41.3,22.417c-1.793,1.034-3.245,1.624-3.245-.446v11.515c0,2.069,1.453,2.907,3.245,1.874l41.3-23.844a7.176,7.176,0,0,0,3.246-5.621v-8.384Z" transform="translate(-68.97 -314.961)" fill="#e1eef2"/>
      <path id="Trazado_95406" data-name="Trazado 95406" d="M156.317,380.136,122.153,399.86v-6.074l34.163-19.725Z" transform="translate(-71.353 -317.326)" fill="#00223d"/>
      <g id="Grupo_41941" data-name="Grupo 41941" transform="translate(51.93 58.306)">
        <path id="Trazado_95407" data-name="Trazado 95407" d="M123.678,403.969l.921-.531.071.718,1.34-.771.072-.8.922-.532v-3.84l-3.326,1.919Z" transform="translate(-123.678 -381.891)" fill="url(#linear-gradient)"/>
        <path id="Trazado_95408" data-name="Trazado 95408" d="M130.037,400.3l.922-.532.071.719,1.339-.773.072-.8.922-.532v-3.84l-3.325,1.918Z" transform="translate(-125.326 -380.94)" fill="url(#linear-gradient)"/>
        <path id="Trazado_95409" data-name="Trazado 95409" d="M136.4,396.628l.921-.532.072.718,1.339-.773.071-.8.922-.532v-3.839l-3.325,1.919Z" transform="translate(-126.974 -379.989)" fill="url(#linear-gradient)"/>
        <path id="Trazado_95410" data-name="Trazado 95410" d="M142.754,392.956l.921-.532.072.718,1.338-.773.072-.8.921-.532V387.2l-3.325,1.92Z" transform="translate(-128.622 -379.037)" fill="url(#linear-gradient)"/>
        <path id="Trazado_95411" data-name="Trazado 95411" d="M149.113,389.285l.922-.532.072.719,1.339-.773.072-.8.921-.532v-3.841l-3.325,1.92Z" transform="translate(-130.27 -378.085)" fill="url(#linear-gradient)"/>
        <path id="Trazado_95412" data-name="Trazado 95412" d="M155.471,385.614l.921-.532.071.718,1.339-.773.071-.8.922-.533v-3.839l-3.325,1.919Z" transform="translate(-131.918 -377.134)" fill="url(#linear-gradient)"/>
        <path id="Trazado_95413" data-name="Trazado 95413" d="M161.83,378.1v3.84l.922-.532.071.718,1.34-.772.072-.8.921-.533v-3.84Z" transform="translate(-133.566 -376.183)" fill="url(#linear-gradient)"/>
      </g>
      <path id="Trazado_95414" data-name="Trazado 95414" d="M64.852,332.66l-4.179-16.2c-.112-.433-.7-.676-1.319-.563s-1.084.548-1.035.992l1.814,16.634a4.661,4.661,0,0,0,.166.819l2.942,16.123a2.383,2.383,0,0,0,4.688-.856l-2.943-16.124A4.824,4.824,0,0,0,64.852,332.66Z" transform="translate(-54.809 -302.244)" fill="url(#linear-gradient)"/>
      <g id="Grupo_41942" data-name="Grupo 41942" transform="translate(5.296 30.257)">
        <path id="Trazado_95415" data-name="Trazado 95415" d="M67.251,339.238a4.742,4.742,0,0,0-.127-.759l-.041-.159Z" transform="translate(-62.377 -338.321)" fill="#cfdade"/>
        <path id="Trazado_95416" data-name="Trazado 95416" d="M68.555,355.688l-1.9-10.418a2.381,2.381,0,0,1-4.691.816l-1.233-6.755.029.27a4.658,4.658,0,0,0,.166.819l2.942,16.124a2.383,2.383,0,0,0,4.688-.856Z" transform="translate(-60.73 -338.583)" fill="#cfdade"/>
      </g>
      <path id="Trazado_95417" data-name="Trazado 95417" d="M76.359,318.968l-5-20.69a1.214,1.214,0,0,0-2.354.43l2.633,21.12a7.589,7.589,0,0,0,.207,1.044L75.593,341.4c.3,1.648,1.594,2.794,2.889,2.557s2.1-1.763,1.8-3.412l-3.747-20.532A7.725,7.725,0,0,0,76.359,318.968Z" transform="translate(-57.578 -297.479)" fill="url(#linear-gradient)"/>
      <path id="Trazado_95418" data-name="Trazado 95418" d="M81.139,347.838,79.289,337.7a2.582,2.582,0,0,1-1.855,2.711c-1.3.236-2.588-.908-2.888-2.557L72.31,325.608l.188,1.511a7.588,7.588,0,0,0,.207,1.044l3.746,20.531c.3,1.648,1.594,2.794,2.889,2.557S81.44,349.487,81.139,347.838Z" transform="translate(-58.436 -304.769)" fill="#cfdade"/>
      <path id="Trazado_95419" data-name="Trazado 95419" d="M90.85,326.131l-4.179-16.2c-.113-.434-.7-.676-1.32-.564s-1.083.548-1.034.993l1.814,16.633a4.771,4.771,0,0,0,.166.818l2.942,16.123a2.383,2.383,0,1,0,4.688-.855l-2.943-16.124A4.8,4.8,0,0,0,90.85,326.131Z" transform="translate(-61.546 -300.552)" fill="url(#linear-gradient)"/>
      <path id="Trazado_95420" data-name="Trazado 95420" d="M94.5,348.666l-2.615-14.331a2.377,2.377,0,0,1-4.7.182l-.66-3.617.183,1.681a4.775,4.775,0,0,0,.166.818l2.942,16.123a2.383,2.383,0,1,0,4.688-.855Z" transform="translate(-62.118 -306.14)" fill="#cfdade"/>
      <path id="Trazado_95421" data-name="Trazado 95421" d="M102.715,381.082a7.173,7.173,0,0,1-6.49,0l-41.3-23.844c-1.793-1.036-1.793-2.713,0-3.747l41.3-23.844a7.17,7.17,0,0,1,6.49,0l41.3,23.843c1.794,1.035,1.794,2.712,0,3.748Z" transform="translate(-53.582 -305.615)" fill="url(#linear-gradient)"/>
      <path id="Trazado_95422" data-name="Trazado 95422" d="M103.984,377.14a6.47,6.47,0,0,1-5.848,0L60.929,355.658c-1.614-.932-1.615-2.444,0-3.377L98.136,330.8a6.468,6.468,0,0,1,5.848,0l37.207,21.481c1.615.933,1.615,2.445,0,3.376Z" transform="translate(-55.172 -305.933)" fill="#e1eef2"/>
      <path id="Trazado_95423" data-name="Trazado 95423" d="M60.929,357.349l5.951,3.436q12.039-12.092,24.1-24.162l-30.05,17.349C59.314,354.9,59.315,356.417,60.929,357.349Z" transform="translate(-55.172 -307.624)" fill="#e6f3f7"/>
      <path id="Trazado_95424" data-name="Trazado 95424" d="M118.2,336.672l-5.743-3.317Q96.705,349.11,80.979,364.9l5.7,3.293Z" transform="translate(-60.682 -306.777)" fill="#e6f3f7"/>
      <path id="Trazado_95425" data-name="Trazado 95425" d="M137.544,347.846l-5.745-3.317L100.28,376.047l5.744,3.317Z" transform="translate(-65.684 -309.673)" fill="#e6f3f7"/>
      <path id="Trazado_95426" data-name="Trazado 95426" d="M159.632,358.917l-5.566-3.213L130.871,378.9l28.761-16.606C161.247,361.362,161.247,359.85,159.632,358.917Z" transform="translate(-73.613 -312.569)" fill="#e6f3f7"/>
    </g>
    <g id="Grupo_41945" data-name="Grupo 41945" transform="translate(152.923 129.485)">
      <path id="Trazado_95427" data-name="Trazado 95427" d="M212.967,202.411,198.058,193.8c.033,19.15,6.127,33.732,15.749,40.944l8.521,4.92Z" transform="translate(-198.057 -160.635)" fill="#22979a"/>
      <path id="Trazado_95428" data-name="Trazado 95428" d="M261.027,152.424l-5.876-3.392c-.578.359-1.156.716-1.739,1.053-9.735,5.622-18.843,7.392-26.618,5.821-7.774,10.549-16.881,19.294-26.618,24.915-.71.41-1.416.793-2.118,1.162v.061c0,.052,0,.1,0,.155l14.909,8.608Z" transform="translate(-198.056 -149.032)" fill="#22979a"/>
      <path id="Trazado_95429" data-name="Trazado 95429" d="M251.653,167.94l19.427-15.515-5.876-3.392c-.578.359-1.156.716-1.74,1.053-9.735,5.622-18.843,7.392-26.618,5.821l5.5,3.573Z" transform="translate(-208.109 -149.032)" fill="#22979a"/>
      <path id="Trazado_95430" data-name="Trazado 95430" d="M260.831,154.826c-9.736,5.622-18.843,7.392-26.618,5.822-7.775,10.548-16.882,19.293-26.619,24.914-.71.41-1.416.793-2.118,1.162,0,.021,0,.041,0,.062,0,26.9,11.629,43.58,28.738,45.621,17.108-21.8,28.737-51.9,28.737-78.8v-.061C262.247,153.985,261.541,154.416,260.831,154.826Z" transform="translate(-199.979 -150.201)" fill="#37a3a5"/>
      <g id="Grupo_41944" data-name="Grupo 41944" transform="translate(16.157 18.562)">
        <path id="Trazado_95431" data-name="Trazado 95431" d="M229.171,207.4l-9.3-5.373c.021,11.952,3.823,21.053,9.829,25.554l5.318,3.07Z" transform="translate(-219.865 -181.33)" fill="#205173"/>
        <path id="Trazado_95432" data-name="Trazado 95432" d="M259.165,176.205l-3.667-2.117c-.36.224-.722.447-1.085.658-6.077,3.508-11.761,4.613-16.613,3.632-4.852,6.584-10.536,12.042-16.613,15.55-.443.256-.884.495-1.322.726v.038c0,.032,0,.064,0,.1l9.3,5.373Z" transform="translate(-219.865 -174.088)" fill="#3d7293"/>
        <path id="Trazado_95433" data-name="Trazado 95433" d="M254.5,184.942l10.941-8.737-3.667-2.117c-.36.224-.722.447-1.085.658-6.077,3.508-11.761,4.613-16.613,3.632l3.429,2.231Z" transform="translate(-226.139 -174.088)" fill="#21587b"/>
        <path id="Trazado_95434" data-name="Trazado 95434" d="M259.042,177.7c-6.077,3.509-11.76,4.613-16.613,3.634-4.852,6.582-10.535,12.04-16.612,15.549-.442.256-.884.5-1.322.725v.039c0,16.792,7.259,27.2,17.935,28.472,10.678-13.6,17.936-32.391,17.936-49.182V176.9C259.926,177.18,259.486,177.449,259.042,177.7Z" transform="translate(-221.065 -174.818)" fill="#21587b"/>
        <path id="Trazado_95435" data-name="Trazado 95435" d="M248.7,226.124c10.678-13.6,17.936-32.391,17.936-49.182V176.9c-.439.276-.879.545-1.322.8-6.077,3.509-11.76,4.613-16.613,3.634C248.7,181.339,254.092,198.056,248.7,226.124Z" transform="translate(-227.339 -174.818)" fill="#3d7293"/>
      </g>
    </g>
    <g id="Grupo_41951" data-name="Grupo 41951" transform="translate(217.183 180.917)">
      <path id="Trazado_95436" data-name="Trazado 95436" d="M371.646,219.011l-85.224,48.262c-1.863,1.074-1.864,2.817,0,3.892l4.67,3.535c-1.862-1.074-1.862-2.819,0-3.893l82.892-47.859c1.862-1.075,2.717-.362,3.929-1.148,0,0,.7-.215.134-1.394C377.107,218.436,373.508,217.936,371.646,219.011Z" transform="translate(-284.855 -218.457)" fill="#00223d"/>
      <path id="Trazado_95437" data-name="Trazado 95437" d="M289.24,347.392v-56.9c0-2.15,1.509-3.023,3.373-1.947l-4.444-3.4c-1.862-1.076-3.372-.2-3.372,1.946v56.9c0,2.151,1.431,4.916,3.372,5.841,3.275,1.561,2.125.393,2.125.393C290.846,350.222,290.339,349.186,289.24,347.392Z" transform="translate(-284.796 -235.619)" fill="#00223d"/>
      <path id="Trazado_95438" data-name="Trazado 95438" d="M379.841,279.42a7.454,7.454,0,0,1-3.373,5.841l-82.891,47.857c-1.863,1.075-3.373.2-3.373-1.947v-56.9a7.453,7.453,0,0,1,3.373-5.841l82.891-47.858c1.862-1.075,3.373-.2,3.373,1.947Z" transform="translate(-286.198 -218.885)" fill="url(#linear-gradient)"/>
      <path id="Trazado_95439" data-name="Trazado 95439" d="M377.615,279.948a6.719,6.719,0,0,1-3.116,5.216l-76.559,44.2c-1.719.993-3.116.268-3.114-1.621l0-49.947a6.728,6.728,0,0,1,3.116-5.216l76.561-44.2c1.719-.993,3.114-.268,3.114,1.619Z" transform="translate(-287.395 -220.913)" fill="#1e2729"/>
      <path id="Trazado_95440" data-name="Trazado 95440" d="M298.8,287.718l-.619.357a6.643,6.643,0,0,0-2.413,2.675Z" transform="translate(-287.641 -236.407)" fill="#2b383b"/>
      <path id="Trazado_95441" data-name="Trazado 95441" d="M294.827,293.419v9.994l57.932-57.933-23.646,13.652Z" transform="translate(-287.396 -225.46)" fill="#2b383b"/>
      <path id="Trazado_95442" data-name="Trazado 95442" d="M377.616,230.933v-.52a2.9,2.9,0,0,0-.127-.885q-41.331,41.333-82.662,82.664v1.531Z" transform="translate(-287.396 -221.326)" fill="#2b383b"/>
      <path id="Trazado_95443" data-name="Trazado 95443" d="M295.439,331.032a5.177,5.177,0,0,1-.612.518v1.616a1.988,1.988,0,0,0,.893,1.879q40.95-40.946,81.9-81.894v-4.3Z" transform="translate(-287.396 -226.335)" fill="#2b383b"/>
      <path id="Trazado_95444" data-name="Trazado 95444" d="M387.77,276.847v-4.761l-53.762,53.761,11.265-6.5Q366.522,298.1,387.77,276.847Z" transform="translate(-297.55 -232.355)" fill="#2b383b"/>
      <g id="Grupo_41950" data-name="Grupo 41950" transform="translate(7.815 64.412)">
        <path id="Trazado_95445" data-name="Trazado 95445" d="M421.493,331.218v-3.583a2.366,2.366,0,0,0-1.4-1.961l-33.715-19.465a7.453,7.453,0,0,0-6.745,0l-82.893,47.859a2.356,2.356,0,0,0-1.395,1.96v3.98a2.36,2.36,0,0,0,1.395,1.96l33.716,19.466a7.458,7.458,0,0,0,6.745,0L420.1,333.576a2.363,2.363,0,0,0,1.4-1.962v-.4Z" transform="translate(-295.346 -305.402)" fill="#00223d"/>
        <path id="Trazado_95446" data-name="Trazado 95446" d="M420.095,325.674c1.864,1.076,1.864,2.82,0,3.895L337.2,377.426a7.453,7.453,0,0,1-6.745,0l-33.716-19.465c-1.862-1.076-1.862-2.82,0-3.894l82.893-47.859a7.453,7.453,0,0,1,6.745,0Z" transform="translate(-295.345 -305.402)" fill="url(#linear-gradient)"/>
        <path id="Trazado_95447" data-name="Trazado 95447" d="M314.8,372.66a.411.411,0,0,1,0,.778l-4.915,2.836a1.483,1.483,0,0,1-1.349,0l-4.912-2.836a.411.411,0,0,1,0-.779l4.912-2.836a1.483,1.483,0,0,1,1.349,0Z" transform="translate(-297.419 -322.056)" fill="#00223d"/>
        <g id="Grupo_41946" data-name="Grupo 41946" transform="translate(18.995 4.222)">
          <path id="Trazado_95448" data-name="Trazado 95448" d="M326.18,359.637l-4.914,2.837a.411.411,0,0,0,0,.779l4.914,2.837a1.487,1.487,0,0,0,1.348,0l4.913-2.837a.411.411,0,0,0,0-.779l-4.913-2.836A1.487,1.487,0,0,0,326.18,359.637Z" transform="translate(-320.986 -323.638)" fill="#00223d"/>
          <path id="Trazado_95449" data-name="Trazado 95449" d="M336.653,353.59l-4.914,2.837a.41.41,0,0,0,0,.778l4.912,2.837a1.493,1.493,0,0,0,1.349,0l4.913-2.837a.41.41,0,0,0,0-.778L338,353.59A1.486,1.486,0,0,0,336.653,353.59Z" transform="translate(-323.701 -322.07)" fill="#00223d"/>
          <path id="Trazado_95450" data-name="Trazado 95450" d="M347.127,347.544l-4.914,2.837a.411.411,0,0,0,0,.778L347.127,354a1.488,1.488,0,0,0,1.349,0l4.913-2.838a.411.411,0,0,0,0-.778l-4.913-2.837A1.492,1.492,0,0,0,347.127,347.544Z" transform="translate(-326.415 -320.504)" fill="#00223d"/>
          <path id="Trazado_95451" data-name="Trazado 95451" d="M357.6,341.5l-4.915,2.836a.412.412,0,0,0,0,.78l4.913,2.836a1.493,1.493,0,0,0,1.348,0l4.913-2.835a.412.412,0,0,0,0-.78L358.95,341.5A1.486,1.486,0,0,0,357.6,341.5Z" transform="translate(-329.13 -318.936)" fill="#00223d"/>
          <path id="Trazado_95452" data-name="Trazado 95452" d="M368.075,335.449l-4.914,2.837a.411.411,0,0,0,0,.778l4.914,2.837a1.5,1.5,0,0,0,1.348,0l4.913-2.837a.41.41,0,0,0,0-.778l-4.915-2.838A1.489,1.489,0,0,0,368.075,335.449Z" transform="translate(-331.844 -317.369)" fill="#00223d"/>
          <path id="Trazado_95453" data-name="Trazado 95453" d="M378.549,329.4l-4.914,2.837a.411.411,0,0,0,0,.779l4.914,2.837a1.483,1.483,0,0,0,1.349,0l4.912-2.837a.411.411,0,0,0,0-.779L379.9,329.4A1.492,1.492,0,0,0,378.549,329.4Z" transform="translate(-334.559 -315.802)" fill="#00223d"/>
          <path id="Trazado_95454" data-name="Trazado 95454" d="M389.022,323.355l-4.913,2.837a.411.411,0,0,0,0,.779l4.913,2.836a1.492,1.492,0,0,0,1.349,0l4.914-2.836a.412.412,0,0,0,0-.779l-4.914-2.837A1.493,1.493,0,0,0,389.022,323.355Z" transform="translate(-337.273 -314.235)" fill="#00223d"/>
          <path id="Trazado_95455" data-name="Trazado 95455" d="M399.5,317.308l-4.913,2.837a.411.411,0,0,0,0,.779l4.913,2.838a1.493,1.493,0,0,0,1.349,0l4.915-2.838a.411.411,0,0,0,0-.779l-4.915-2.837A1.49,1.49,0,0,0,399.5,317.308Z" transform="translate(-339.988 -312.667)" fill="#00223d"/>
          <path id="Trazado_95456" data-name="Trazado 95456" d="M409.969,311.262l-4.913,2.837a.411.411,0,0,0,0,.779l4.913,2.837a1.5,1.5,0,0,0,1.349,0l4.914-2.837a.411.411,0,0,0,0-.779l-4.914-2.837A1.492,1.492,0,0,0,409.969,311.262Z" transform="translate(-342.702 -311.1)" fill="#00223d"/>
        </g>
        <g id="Grupo_41947" data-name="Grupo 41947" transform="translate(13.554 8.818)">
          <path id="Trazado_95457" data-name="Trazado 95457" d="M332.24,365.844,313.921,376.42a.411.411,0,0,0,0,.779l4.913,2.837a1.494,1.494,0,0,0,1.35,0L338.5,369.459a.41.41,0,0,0,0-.778l-4.913-2.837A1.493,1.493,0,0,0,332.24,365.844Z" transform="translate(-313.642 -329.843)" fill="#00223d"/>
          <path id="Trazado_95458" data-name="Trazado 95458" d="M347.4,359.8l-4.914,2.837a.411.411,0,0,0,0,.779l4.914,2.835a1.483,1.483,0,0,0,1.35,0l4.912-2.835a.411.411,0,0,0,0-.779l-4.912-2.837A1.494,1.494,0,0,0,347.4,359.8Z" transform="translate(-321.046 -328.276)" fill="#00223d"/>
          <path id="Trazado_95459" data-name="Trazado 95459" d="M357.877,353.749l-4.914,2.837a.41.41,0,0,0,0,.778l4.914,2.839a1.492,1.492,0,0,0,1.349,0l4.912-2.839a.41.41,0,0,0,0-.778l-4.912-2.837A1.5,1.5,0,0,0,357.877,353.749Z" transform="translate(-323.76 -326.708)" fill="#00223d"/>
          <path id="Trazado_95460" data-name="Trazado 95460" d="M368.35,347.7l-4.914,2.837a.411.411,0,0,0,0,.779l4.914,2.837a1.491,1.491,0,0,0,1.348,0l4.914-2.837a.411.411,0,0,0,0-.779L369.7,347.7A1.485,1.485,0,0,0,368.35,347.7Z" transform="translate(-326.474 -325.141)" fill="#00223d"/>
          <path id="Trazado_95461" data-name="Trazado 95461" d="M378.825,341.656l-4.914,2.836a.411.411,0,0,0,0,.779l4.914,2.837a1.491,1.491,0,0,0,1.348,0l4.914-2.837a.412.412,0,0,0,0-.779l-4.914-2.836A1.486,1.486,0,0,0,378.825,341.656Z" transform="translate(-329.189 -323.574)" fill="#00223d"/>
          <path id="Trazado_95462" data-name="Trazado 95462" d="M389.3,335.609l-4.914,2.836a.411.411,0,0,0,0,.779l4.914,2.837a1.494,1.494,0,0,0,1.35,0l4.912-2.836a.411.411,0,0,0,0-.779l-4.912-2.837A1.492,1.492,0,0,0,389.3,335.609Z" transform="translate(-331.904 -322.007)" fill="#00223d"/>
          <path id="Trazado_95463" data-name="Trazado 95463" d="M399.772,329.561l-4.914,2.837a.411.411,0,0,0,0,.779l4.914,2.837a1.491,1.491,0,0,0,1.348,0l4.915-2.837a.411.411,0,0,0,0-.779l-4.915-2.837A1.487,1.487,0,0,0,399.772,329.561Z" transform="translate(-334.618 -320.44)" fill="#00223d"/>
          <path id="Trazado_95464" data-name="Trazado 95464" d="M410.247,323.515l-4.914,2.836a.412.412,0,0,0,0,.779l4.914,2.837a1.491,1.491,0,0,0,1.348,0l4.914-2.837a.411.411,0,0,0,0-.779l-4.914-2.837A1.491,1.491,0,0,0,410.247,323.515Z" transform="translate(-337.333 -318.873)" fill="#00223d"/>
          <path id="Trazado_95465" data-name="Trazado 95465" d="M420.72,317.467l-4.912,2.837a.411.411,0,0,0,0,.779l4.912,2.836a1.482,1.482,0,0,0,1.348,0l4.913-2.836a.411.411,0,0,0,0-.779l-4.913-2.837A1.489,1.489,0,0,0,420.72,317.467Z" transform="translate(-340.047 -317.305)" fill="#00223d"/>
        </g>
        <g id="Grupo_41948" data-name="Grupo 41948" transform="translate(30.126 18.386)">
          <path id="Trazado_95466" data-name="Trazado 95466" d="M354.609,378.759l-18.319,10.576a.411.411,0,0,0,0,.779l4.914,2.838a1.489,1.489,0,0,0,1.348,0l18.32-10.578a.411.411,0,0,0,0-.779l-4.914-2.837A1.486,1.486,0,0,0,354.609,378.759Z" transform="translate(-336.01 -342.757)" fill="#00223d"/>
          <path id="Trazado_95467" data-name="Trazado 95467" d="M369.771,372.712l-4.913,2.837a.41.41,0,0,0,0,.778l4.913,2.837a1.492,1.492,0,0,0,1.349,0l4.913-2.837a.411.411,0,0,0,0-.778l-4.915-2.837A1.492,1.492,0,0,0,369.771,372.712Z" transform="translate(-343.414 -341.19)" fill="#00223d"/>
          <path id="Trazado_95468" data-name="Trazado 95468" d="M403.523,348.523,375.331,364.8a.411.411,0,0,0,0,.779l4.914,2.837a1.491,1.491,0,0,0,1.348,0l28.192-16.276a.412.412,0,0,0,0-.779l-4.914-2.836A1.488,1.488,0,0,0,403.523,348.523Z" transform="translate(-346.129 -334.922)" fill="#00223d"/>
          <path id="Trazado_95469" data-name="Trazado 95469" d="M422.141,342.476l-4.914,2.837a.411.411,0,0,0,0,.779l4.914,2.836a1.483,1.483,0,0,0,1.347,0l4.915-2.836a.412.412,0,0,0,0-.779l-4.915-2.837A1.488,1.488,0,0,0,422.141,342.476Z" transform="translate(-356.987 -333.354)" fill="#00223d"/>
          <path id="Trazado_95470" data-name="Trazado 95470" d="M440.372,330.381,427.7,337.7a.411.411,0,0,0,0,.779l4.913,2.836a1.486,1.486,0,0,0,1.348,0L446.635,334a.41.41,0,0,0,0-.778l-4.913-2.838A1.492,1.492,0,0,0,440.372,330.381Z" transform="translate(-359.701 -330.22)" fill="#00223d"/>
        </g>
        <g id="Grupo_41949" data-name="Grupo 41949" transform="translate(21.736 13.543)">
          <path id="Trazado_95471" data-name="Trazado 95471" d="M335.478,378.3l-10.512,6.07a.41.41,0,0,0,0,.778l4.915,2.837a1.488,1.488,0,0,0,1.349,0l10.51-6.07a.411.411,0,0,0,0-.779l-4.912-2.837A1.5,1.5,0,0,0,335.478,378.3Z" transform="translate(-324.686 -337.797)" fill="#00223d"/>
          <path id="Trazado_95472" data-name="Trazado 95472" d="M358.449,366.174l-4.913,2.837a.41.41,0,0,0,0,.778l4.913,2.837a1.492,1.492,0,0,0,1.349,0l4.913-2.837a.41.41,0,0,0,0-.778l-4.913-2.837A1.488,1.488,0,0,0,358.449,366.174Z" transform="translate(-332.09 -334.654)" fill="#00223d"/>
          <path id="Trazado_95473" data-name="Trazado 95473" d="M347.975,372.22l-4.912,2.837a.411.411,0,0,0,0,.779l4.912,2.837a1.491,1.491,0,0,0,1.348,0l4.914-2.837a.411.411,0,0,0,0-.779l-4.915-2.837A1.487,1.487,0,0,0,347.975,372.22Z" transform="translate(-329.376 -336.22)" fill="#00223d"/>
          <path id="Trazado_95474" data-name="Trazado 95474" d="M368.922,360.128l-4.913,2.836a.412.412,0,0,0,0,.779l4.913,2.837a1.494,1.494,0,0,0,1.35,0l4.912-2.837a.411.411,0,0,0,0-.779l-4.913-2.836A1.494,1.494,0,0,0,368.922,360.128Z" transform="translate(-334.805 -333.087)" fill="#00223d"/>
          <path id="Trazado_95475" data-name="Trazado 95475" d="M379.4,354.08l-4.912,2.837a.411.411,0,0,0,0,.779l4.914,2.837a1.486,1.486,0,0,0,1.348,0l4.913-2.837a.411.411,0,0,0,0-.779l-4.913-2.837A1.494,1.494,0,0,0,379.4,354.08Z" transform="translate(-337.519 -331.519)" fill="#00223d"/>
          <path id="Trazado_95476" data-name="Trazado 95476" d="M389.87,348.033l-4.913,2.837a.412.412,0,0,0,0,.779l4.913,2.837a1.491,1.491,0,0,0,1.348,0l4.915-2.837a.411.411,0,0,0,0-.779l-4.913-2.837A1.5,1.5,0,0,0,389.87,348.033Z" transform="translate(-340.234 -329.952)" fill="#00223d"/>
          <path id="Trazado_95477" data-name="Trazado 95477" d="M400.344,341.986l-4.914,2.837a.411.411,0,0,0,0,.779l4.914,2.836a1.486,1.486,0,0,0,1.348,0l4.913-2.836a.411.411,0,0,0,0-.779l-4.913-2.837A1.491,1.491,0,0,0,400.344,341.986Z" transform="translate(-342.948 -328.385)" fill="#00223d"/>
          <path id="Trazado_95478" data-name="Trazado 95478" d="M410.818,335.938l-4.915,2.837a.411.411,0,0,0,0,.779l4.914,2.837a1.493,1.493,0,0,0,1.349,0l4.913-2.837a.411.411,0,0,0,0-.779l-4.913-2.837A1.488,1.488,0,0,0,410.818,335.938Z" transform="translate(-345.662 -326.817)" fill="#00223d"/>
          <path id="Trazado_95479" data-name="Trazado 95479" d="M421.292,329.892l-4.913,2.837a.411.411,0,0,0,0,.779l4.913,2.837a1.492,1.492,0,0,0,1.349,0l4.912-2.837a.411.411,0,0,0,0-.779l-4.912-2.837A1.493,1.493,0,0,0,421.292,329.892Z" transform="translate(-348.377 -325.25)" fill="#00223d"/>
          <path id="Trazado_95480" data-name="Trazado 95480" d="M431.765,323.845l-4.914,2.836a.411.411,0,0,0,0,.779l4.914,2.837a1.487,1.487,0,0,0,1.348,0l4.915-2.837a.411.411,0,0,0,0-.779l-4.915-2.836A1.489,1.489,0,0,0,431.765,323.845Z" transform="translate(-351.091 -323.683)" fill="#00223d"/>
        </g>
      </g>
    </g>
  </g>
</svg>
